<svg height="121pt" viewBox="0 0 443 121" width="443pt" xmlns="http://www.w3.org/2000/svg"><g transform="matrix(1.3333 0 0 -1.3333 -75.053 1019.2)"><path d="m57.537 675.17h27.638v87.789h-27.638z" fill="#e6e6e6" fill-opacity=".4" fill-rule="evenodd"/><g fill="none" stroke-linejoin="round" stroke-miterlimit="10" stroke-width=".75003"><path d="m57.14 762.87h28.46" stroke="#b2b2b2"/><path d="m57.509 763.24v-88.497" stroke="#b2b2b2"/><g stroke="#000"><path d="m84.863 762.87h302.82"/><path d="m85.231 763.24v-88.497"/><path d="m167.81 763.24v-88.497"/><path d="m239.69 763.24v-88.497"/><path d="m387.32 763.24v-88.497"/><path d="m387.32 763.24v-88.497"/></g><path d="m57.14 748.25h28.46" stroke="#b2b2b2"/><path d="m84.863 748.25h302.82" stroke="#000"/><path d="m57.14 675.11h28.46" stroke="#b2b2b2"/><path d="m84.863 675.11h302.82" stroke="#000"/><path d="m57.14 675.11h28.46" stroke="#b2b2b2"/><path d="m84.863 675.11h302.82" stroke="#000"/></g><g font-family="Liberation Sans" font-size="10.006" transform="scale(1 -1)"><g font-weight="bold"><text fill="#808080" x="66.976501" y="-752.30048"><tspan x="66.976501 69.748161" y="-752.30048">id</tspan></text><text x="113.4645" y="-752.30048"><tspan x="113.4645 119.56816 125.13148 134.02682" y="-752.30048">name</tspan></text><text x="188.80949" y="-752.30048"><tspan x="188.80949 194.91316 201.01682 207.12048 213.22414" y="-752.30048">phone</tspan></text><text x="294.3725" y="-752.30048"><tspan x="294.3725 299.93582 306.03949 312.14313 316.03546 321.59882 327.16214" y="-752.30048">address</tspan></text></g><text fill="#808080" x="77.748497" y="-737.67352"><tspan x="77.748497" y="-737.67352">1</tspan></text><text x="86.252495" y="-736.68152"><tspan x="86.252495 92.916496 95.137825 100.70116 106.2645" y="-736.68152">Bibbo</tspan></text><text x="173.2195" y="-736.68152"><tspan x="173.2195 178.78284 184.34618 189.9095 195.47284 201.03618 206.59952 212.16286 217.72618 223.28952 228.85286" y="-736.68152">99999999999</tspan></text><text x="240.71249" y="-736.68152"><tspan x="240.71249 247.93683 253.50017 256.27182 261.83514 264.05649 266.82816 269.59979 274.60281 276.82413 282.38748 287.39047 289.61182 295.17514 297.94681 305.17114 310.73447 316.29782 321.86115 327.42447 330.19614 335.75949 341.32281 344.09448 346.86615 354.09045 359.65381 361.87512 367.43848" y="-736.68152">Hefei, Jinxiu Dadao 99, China</tspan></text><text fill="#808080" x="77.748497" y="-723.04651"><tspan x="77.748497" y="-723.04651">2</tspan></text><text x="86.252495" y="-722.0545"><tspan x="86.252495 92.916496 98.479828 104.04317 109.6065" y="-722.0545">Bebbo</tspan></text><text x="173.2195" y="-722.0545"><tspan x="173.2195 178.78284 184.34618 189.9095 195.47284 201.03618 206.59952 212.16286 217.72618 223.28952 228.85286" y="-722.0545">55555555555</tspan></text><text x="240.71249" y="-722.0545"><tspan x="240.71249 247.93683 253.50017 256.27182 261.83514 267.3985 272.96182 277.96481 280.73648 283.50815 290.73248 296.29581 301.85916 310.19415 315.75748 317.97882 320.75049 325.75348 328.52515 331.29681 339.07147 344.6348 347.9668 356.30179 361.86514 367.42847" y="-722.0545">Rathaus, Chemnitz, Germany</tspan></text><text fill="#808080" x="77.748497" y="-708.41949"><tspan x="77.748497" y="-708.41949">3</tspan></text><text x="86.252495" y="-707.42749"><tspan x="86.252495 92.916496 98.479828 104.04317 109.6065" y="-707.42749">Bebba</tspan></text><text x="173.2195" y="-707.42749"><tspan x="173.2195 178.78284 184.34618 189.9095 195.47284 201.03618 206.59952 212.16286 217.72618 223.28952 228.85286" y="-707.42749">33333333333</tspan></text><text x="240.71249" y="-707.42749"><tspan x="240.71249 246.81616 249.03749 257.37247 262.93582 267.93881 270.71048 277.37445 282.93781 288.50113 294.06448 297.39648 302.95981 305.73148 308.50314 315.72748 322.39145 325.16312 327.93478 335.15912 341.82312" y="-707.42749">Times Square, NY, USA</tspan></text><text fill="#808080" x="77.748497" y="-693.79352"><tspan x="77.748497" y="-693.79352">4</tspan></text><text x="86.252495" y="-692.80048"><tspan x="86.252495 92.916496 98.479828 104.04317 109.6065" y="-692.80048">Bobbo</tspan></text><text x="173.2195" y="-692.80048"><tspan x="173.2195 178.78284 184.34618 189.9095 195.47284 201.03618 206.59952 212.16286 217.72618 223.28952 228.85286" y="-692.80048">44444444444</tspan></text><text x="240.71249" y="-692.80048"><tspan x="240.71249 247.3765 249.59782 252.36949 255.14114 260.70447 262.92581 265.69745 271.80112 277.36447 284.58878 290.15213 293.48413 296.2558 299.02744 305.69144 311.25479 314.58679 316.80811 321.81113 324.58276 327.35443 333.4581 336.7901 342.35342 347.91675 352.91977" y="-692.80048">Eiffel Tower, Paris, France</tspan></text><text fill="#808080" x="73.241501" y="-679.1665"><tspan x="73.241501" y="-679.1665">…</tspan></text><text x="87.244499" y="-679.1665"><tspan x="87.244499" y="-679.1665">…</tspan></text><text x="198.75949" y="-679.1665"><tspan x="198.75949" y="-679.1665">…</tspan></text><text x="241.7045" y="-679.1665"><tspan x="241.7045" y="-679.1665">…</tspan></text></g></g></svg>