<svg height="202pt" viewBox="0 0 528 202" width="528pt" xmlns="http://www.w3.org/2000/svg" xmlns:xlink="http://www.w3.org/1999/xlink"><linearGradient id="a" x2="0" y2="1"><stop offset="0" stop-color="#a9a9a9" stop-opacity=".19608"/><stop offset="1" stop-color="#a9a9a9" stop-opacity=".19608"/></linearGradient><linearGradient id="b" x2="0" y2="1"><stop offset="0" stop-color="#fcfcfc"/><stop offset="1" stop-color="#fcfcfc"/></linearGradient><linearGradient id="c" x2="0" y2="1"><stop offset="0" stop-color="#f3f3f3"/><stop offset="1" stop-color="#e1e1e1"/></linearGradient><linearGradient id="d" gradientTransform="scale(.99946 1.0005)" gradientUnits="userSpaceOnUse" x1="-.75034" x2="-.75034" y1="-.78024" y2="18.89"><stop offset="0" stop-color="#dcdcdc"/><stop offset="1" stop-color="#dcdcdc"/></linearGradient><linearGradient id="e" gradientTransform="scale(1.7518 .57083)" gradientUnits="userSpaceOnUse" x2="0" xlink:href="#a" y2="50.804"/><linearGradient id="f" gradientTransform="scale(1.7321 .57735)" gradientUnits="userSpaceOnUse" x1="-.28868" x2="-.28868" y1="-.86602" y2="51.095"><stop offset="0" stop-color="#eeffe0"/><stop offset="1" stop-color="#eeffe0"/></linearGradient><linearGradient id="g" gradientTransform="scale(.90682 1.1028)" gradientUnits="userSpaceOnUse" x2="0" xlink:href="#a" y2="172.77"/><linearGradient id="h" gradientTransform="scale(1.2815 .78033)" gradientUnits="userSpaceOnUse" x1="-.39016" x2="-.39016" xlink:href="#b" y1="-.64075" y2="121.62"/><linearGradient id="i" gradientTransform="scale(1.7666 .56605)" gradientUnits="userSpaceOnUse" x1="-.28303" x2="-.28303" xlink:href="#b" y1="-.88331" y2="87.801"/><linearGradient id="j" gradientTransform="scale(.99738 1.0026)" gradientUnits="userSpaceOnUse" x1="-.57651" x2="-.57651" y1="-.81104" y2="12.474"><stop offset="0" stop-color="#ffff80"/><stop offset="1" stop-color="#ffff80"/></linearGradient><linearGradient id="k" gradientUnits="userSpaceOnUse" x1="-.575" x2="-.575" y1="-.575" y2="11.575"><stop offset="0" stop-color="#d2e9ff"/><stop offset="1" stop-color="#d2e9ff"/></linearGradient><linearGradient id="l" gradientTransform="scale(.98481 1.0154)" gradientUnits="userSpaceOnUse" x1="-.41286" x2="-.41286" y1="-.80082" y2="12.483"><stop offset="0" stop-color="#c5cbff"/><stop offset="1" stop-color="#c5cbff"/></linearGradient><linearGradient id="m" gradientTransform="scale(2.7364 .36545)" gradientUnits="userSpaceOnUse" x1="-.18272" x2="-.18272" xlink:href="#b" y1="-1.3682" y2="55.887"/><linearGradient id="n" gradientTransform="scale(1.1144 .89736)" gradientUnits="userSpaceOnUse" x1="-.61828" x2="-.61828" xlink:href="#c" y1="-.76781" y2="10.102"/><linearGradient id="o" gradientTransform="scale(1.0891 .9182)" gradientUnits="userSpaceOnUse" x1="-.38932" x2="-.38932" xlink:href="#c" y1="-.75038" y2="10.128"/><linearGradient id="p" gradientTransform="scale(.98191 1.0184)" gradientUnits="userSpaceOnUse" x1="-.36007" x2="-.36007" xlink:href="#c" y1="-.69431" y2="8.988"/><linearGradient id="q" gradientTransform="scale(2.4092 .41508)" gradientUnits="userSpaceOnUse" x1="-.22484" x2="-.22484" y1="-1.2046" y2="63.844"><stop offset="0" stop-color="#4aa5ff"/><stop offset="1" stop-color="#4aa5ff"/></linearGradient><linearGradient id="r" gradientTransform="scale(1.0383 .9631)" gradientUnits="userSpaceOnUse" x2="0" xlink:href="#a" y2="150.89"/><linearGradient id="s" gradientTransform="scale(1.467 .68166)" gradientUnits="userSpaceOnUse" x1="-.34083" x2="-.34083" xlink:href="#b" y1="-.7335" y2="106.06"/><linearGradient id="t" gradientTransform="scale(2.3825 .41972)" gradientUnits="userSpaceOnUse" x1="-.20986" x2="-.20986" xlink:href="#b" y1="-1.1913" y2="64.567"/><g stroke="#606060" stroke-linecap="square" stroke-linejoin="bevel" stroke-width="1.5"><g fill="none"><g transform="translate(-78.065 -118.01)"><path d="m440 214.7h-33"/><path d="m407 214.7c-74.164 0-74.164-1.468-148.33-1.468"/><path d="m258.67 213.23h-22"/></g><g transform="matrix(-1 0 0 -1 361.93 96.684)"><path d="m18 0-18-11"/><path d="m18 0-18 11"/></g></g><circle cx="9.075" cy="9.075" fill="url(#d)" fill-rule="evenodd" r="9.075" stroke-dasharray="6 3" transform="matrix(-1 0 0 -1 342.93 105.62)"/><g fill="none"><path d="m0-8.8v17.6" transform="matrix(-1 0 0 -1 168.61 95.216)"/><path d="m0-8.8v17.6" transform="matrix(-1 0 0 -1 176.61 95.216)"/></g></g><g fill-rule="evenodd"><path d="m0 0h89v29h-89z" fill="url(#e)" transform="translate(218.57 121.84)"/><path d="m0 0h89v29h-89z" fill="url(#f)" stroke="#a4b09b" stroke-linecap="square" stroke-linejoin="bevel" transform="translate(210.57 113.84)"/><text style="font-family:Noto Sans;font-size:13.2;font-style:italic;font-weight:400;stroke-linecap:square;stroke-linejoin:bevel" transform="translate(213.57 115.64)" x="4" y="17.8906">is_in_building</text><path d="m0 12c0-6.6274 5.3726-12 12-12h132.67c6.627 0 12 5.3726 12 12v166.52c0 6.627-5.373 12-12 12h-132.67c-6.6274 0-12-5.373-12-12z" fill="url(#g)" transform="translate(369.93 9.988)"/><g stroke-linecap="square" stroke-linejoin="bevel"><path d="m0 0h155.67v94.4h-155.67z" fill="url(#h)" stroke="#d7d7d7" transform="translate(361.93 27.988)"/><path d="m0 0h155.67v49.2h-155.67z" fill="url(#i)" stroke="#d7d7d7" transform="translate(361.93 122.39)"/><path d="m2.6889 0-2.6889 2.6889v6.7222l2.6889 2.6889 1.3444-1.3444v-2.6889h1.3444l1.3444 1.3444 2.6889-2.6889 2.6889 2.6889v-5.3778h-8.0667v-2.6889z" fill="url(#j)" stroke="#897416" stroke-width="1.15" transform="translate(369.93 35.028)"/><text fill="#2b7dba" font-family="Noto Sans" font-size="14.667" font-style="italic" font-weight="700" transform="translate(387.18 30.788)" y="16.0313">building_number</text><path d="m2.6889 0-2.6889 2.6889v6.7222l2.6889 2.6889 1.3444-1.3444v-2.6889h1.3444l1.3444 1.3444 2.6889-2.6889 2.6889 2.6889v-5.3778h-8.0667v-2.6889z" fill="url(#j)" stroke="#897416" stroke-width="1.15" transform="translate(369.93 57.628)"/><text fill="#2b7dba" font-family="Noto Sans" font-size="14.667" font-style="italic" font-weight="700" transform="translate(387.18 53.388)" y="16.0313">room_number</text><circle cx="5.5" cy="5.5" fill="url(#k)" r="5.5" stroke="#5a9ee4" stroke-width="1.15" transform="translate(369.93 80.813)"/><text font-family="Noto Sans" font-size="14.667" font-style="italic" font-weight="400" transform="translate(386.08 75.988)" y="16.0313">room_name</text><circle cx="5.5" cy="5.5" fill="url(#k)" r="5.5" stroke="#5a9ee4" stroke-width="1.15" transform="translate(369.93 103.41)"/><text font-family="Noto Sans" font-size="14.667" font-style="italic" font-weight="400" transform="translate(386.08 98.588)" y="16.0313">capacity</text><path d="m6.7222 0-6.7222 6.7222 5.3778 5.3778h6.7222v-6.7222z" fill="url(#l)" stroke="#4c4c98" stroke-width="1.15" transform="translate(369.93 129.34)"/><text fill="#082061" font-family="Noto Sans" font-size="14.667" font-style="italic" font-weight="400" transform="translate(387.02 125.19)" y="16.0313">room_pk</text><path d="m6.7222 0-6.7222 6.7222 5.3778 5.3778h6.7222v-6.7222z" fill="url(#l)" stroke="#4c4c98" stroke-width="1.15" transform="translate(369.93 151.94)"/><text fill="#082061" font-family="Noto Sans" font-size="14.667" font-style="italic" font-weight="400" transform="translate(387.02 147.79)" y="16.0313">building_fk</text><path d="m0 0h155.672v7.924l-.182 2.0838-.542 2.0204-.884 1.8958-1.2 1.7135-1.479 1.479-1.713 1.1998-1.896.884-2.02.5414-2.084.1823h-131.672l-2.08378-.1823-2.02046-.5414-1.89576-.884-1.71345-1.1998-1.47908-1.479-1.19977-1.7135-.884011-1.8958-.541382-2.0204-.182307-2.0838z" fill="url(#m)" stroke="#d7d7d7" transform="translate(361.93 171.59)"/><g stroke="#bebebe"><path d="m0 0h11l-5.5 8.8z" fill="url(#n)" opacity=".4" transform="translate(453.27 176.56)"/><path d="m5.5 0-5.5 8.8h11z" fill="url(#o)" transform="translate(431.75 176.56)"/><path d="m4.4 0 4.4 4.4-4.4 4.4-4.4-4.4z" fill="url(#p)" transform="translate(409.88 176.62)"/></g><g transform="translate(361.93 1.988)"><path d="m0 12 .18231-2.0838.54138-2.0205.88401-1.8958 1.1998-1.7134 1.4791-1.4791 1.7134-1.1998 1.8958-.88401 2.0205-.54138 2.0838-.18231h131.67l2.084.18231 2.02.54138 1.896.88401 1.713 1.1998 1.479 1.4791 1.2 1.7134.884 1.8958.542 2.0205.182 2.0838v14h-155.67z" fill="url(#q)" stroke="#3175b0"/><g font-family="Noto Sans" font-size="14.667"><text font-style="italic" font-weight="400" x="36.265598" y="17.3333">public.</text><text fill="#fff" font-weight="700" x="80.609398" y="17.3333">room</text></g></g></g><path d="m0 12c0-6.6274 5.3726-12 12-12h132.67c6.627 0 12 5.3726 12 12v121.32c0 6.627-5.373 12-12 12h-132.67c-6.6274 0-12-5.373-12-12z" fill="url(#r)" transform="translate(9.9348 29.988)"/><g stroke-linecap="square" stroke-linejoin="bevel"><path d="m0 0h155.67v71.8h-155.67z" fill="url(#s)" stroke="#d7d7d7" transform="translate(1.9348 47.988)"/><path d="m0 0h155.67v26.6h-155.67z" fill="url(#t)" stroke="#d7d7d7" transform="translate(1.9348 119.79)"/><path d="m2.6889 0-2.6889 2.6889v6.7222l2.6889 2.6889 1.3444-1.3444v-2.6889h1.3444l1.3444 1.3444 2.6889-2.6889 2.6889 2.6889v-5.3778h-8.0667v-2.6889z" fill="url(#j)" stroke="#897416" stroke-width="1.15" transform="translate(9.9348 55.028)"/><text fill="#2b7dba" font-family="Noto Sans" font-size="14.667" font-style="italic" font-weight="700" transform="translate(27.185 50.788)" y="16.0313">building_number</text><circle cx="5.5" cy="5.5" fill="url(#k)" r="5.5" stroke="#5a9ee4" stroke-width="1.15" transform="translate(9.9348 78.213)"/><text font-family="Noto Sans" font-size="14.667" font-style="italic" font-weight="400" transform="translate(26.085 73.388)" y="16.0313">building_name</text><circle cx="5.5" cy="5.5" fill="url(#k)" r="5.5" stroke="#5a9ee4" stroke-width="1.15" transform="translate(9.9348 100.81)"/><text font-family="Noto Sans" font-size="14.667" font-style="italic" font-weight="400" transform="translate(26.085 95.988)" y="16.0313">address</text><path d="m6.7222 0-6.7222 6.7222 5.3778 5.3778h6.7222v-6.7222z" fill="url(#l)" stroke="#4c4c98" stroke-width="1.15" transform="translate(9.9348 126.74)"/><text fill="#082061" font-family="Noto Sans" font-size="14.667" font-style="italic" font-weight="400" transform="translate(27.016 122.59)" y="16.0313">building_pk</text><path d="m0 0h155.672v7.924l-.182 2.0838-.542 2.0204-.884 1.8958-1.2 1.7135-1.479 1.479-1.713 1.1998-1.896.884-2.02.5414-2.084.1823h-131.672l-2.08378-.1823-2.02046-.5414-1.89576-.884-1.71345-1.1998-1.47908-1.479-1.19977-1.7135-.884011-1.8958-.541382-2.0204-.182307-2.0838z" fill="url(#m)" stroke="#d7d7d7" transform="translate(1.9348 146.39)"/><g stroke="#bebebe"><path d="m0 0h11l-5.5 8.8z" fill="url(#n)" opacity=".4" transform="translate(93.27 151.36)"/><path d="m5.5 0-5.5 8.8h11z" fill="url(#o)" transform="translate(71.745 151.36)"/><path d="m4.4 0 4.4 4.4-4.4 4.4-4.4-4.4z" fill="url(#p)" transform="translate(49.885 151.42)"/></g><g transform="translate(1.9348 21.988)"><path d="m0 12 .18231-2.0838.54138-2.0205.88401-1.8958 1.1998-1.7134 1.4791-1.4791 1.7134-1.1998 1.8958-.88401 2.0205-.54138 2.0838-.18231h131.67l2.084.18231 2.02.54138 1.896.88401 1.713 1.1998 1.479 1.4791 1.2 1.7134.884 1.8958.542 2.0205.182 2.0838v14h-155.67z" fill="url(#q)" stroke="#3175b0"/><g font-family="Noto Sans" font-size="14.667"><text font-style="italic" font-weight="400" x="25.25" y="17.3333">public.</text><text fill="#fff" font-weight="700" x="69.593803" y="17.3333">building</text></g></g></g></g></svg>