<svg height="202pt" viewBox="0 0 319 202" width="319pt" xmlns="http://www.w3.org/2000/svg" xmlns:xlink="http://www.w3.org/1999/xlink"><linearGradient id="a" x2="0" y2="1"><stop offset="0" stop-color="#fcfcfc"/><stop offset="1" stop-color="#fcfcfc"/></linearGradient><linearGradient id="b" x2="0" y2="1"><stop offset="0" stop-color="#d2e9ff"/><stop offset="1" stop-color="#d2e9ff"/></linearGradient><linearGradient id="c" x2="0" y2="1"><stop offset="0" stop-color="#f3f3f3"/><stop offset="1" stop-color="#e1e1e1"/></linearGradient><linearGradient id="d" gradientTransform="matrix(1.2714 0 0 .78655 9.7913 9.988)" gradientUnits="userSpaceOnUse" x2="0" y2="242.23"><stop offset="0" stop-color="#a9a9a9" stop-opacity=".19608"/><stop offset="1" stop-color="#a9a9a9" stop-opacity=".19608"/></linearGradient><linearGradient id="e" gradientTransform="matrix(1.6155 0 0 .61901 1.7913 27.988)" gradientUnits="userSpaceOnUse" x1="-.3095" x2="-.3095" xlink:href="#a" y1="-.80775" y2="189.82"/><linearGradient id="f" gradientTransform="matrix(3.3403 0 0 .29937 1.7913 144.99)" gradientUnits="userSpaceOnUse" x1="-.14968" x2="-.14968" xlink:href="#a" y1="-1.6702" y2="90.523"/><linearGradient id="g" gradientTransform="matrix(.99738 0 0 1.0026 9.7913 35.028)" gradientUnits="userSpaceOnUse" x1="-.57651" x2="-.57651" y1="-.81104" y2="12.474"><stop offset="0" stop-color="#ffff80"/><stop offset="1" stop-color="#ffff80"/></linearGradient><linearGradient id="h" gradientUnits="userSpaceOnUse" x1="9.2163" x2="9.2163" xlink:href="#b" y1="57.638" y2="69.788"/><linearGradient id="i" gradientUnits="userSpaceOnUse" x1="9.2163" x2="9.2163" xlink:href="#b" y1="80.238" y2="92.388"/><linearGradient id="j" gradientUnits="userSpaceOnUse" x1="9.2163" x2="9.2163" xlink:href="#b" y1="102.84" y2="114.99"/><linearGradient id="k" gradientUnits="userSpaceOnUse" x1="9.2163" x2="9.2163" xlink:href="#b" y1="125.44" y2="137.59"/><linearGradient id="l" gradientTransform="matrix(.98481 0 0 1.0154 9.7913 151.94)" gradientUnits="userSpaceOnUse" x1="-.41286" x2="-.41286" y1="-.80082" y2="12.483"><stop offset="0" stop-color="#c5cbff"/><stop offset="1" stop-color="#c5cbff"/></linearGradient><linearGradient id="m" gradientTransform="matrix(3.8364 0 0 .26066 1.7913 171.59)" gradientUnits="userSpaceOnUse" x1="-.13033" x2="-.13033" xlink:href="#a" y1="-1.9182" y2="78.355"/><linearGradient id="n" gradientTransform="matrix(1.1144 0 0 .89736 168.77 176.56)" gradientUnits="userSpaceOnUse" x1="-.61828" x2="-.61828" xlink:href="#c" y1="-.76781" y2="10.102"/><linearGradient id="o" gradientTransform="matrix(1.0891 0 0 .9182 147.25 176.56)" gradientUnits="userSpaceOnUse" x1="-.38932" x2="-.38932" xlink:href="#c" y1="-.75038" y2="10.128"/><linearGradient id="p" gradientTransform="matrix(.98191 0 0 1.0184 125.39 176.62)" gradientUnits="userSpaceOnUse" x1="-.36007" x2="-.36007" xlink:href="#c" y1="-.69431" y2="8.988"/><linearGradient id="q" gradientTransform="matrix(3.3775 0 0 .29608 1.7913 1.988)" gradientUnits="userSpaceOnUse" x1="-.16038" x2="-.16038" y1="-1.6887" y2="89.503"><stop offset="0" stop-color="#4aa5ff"/><stop offset="1" stop-color="#4aa5ff"/></linearGradient><g fill-rule="evenodd"><path d="m9.7913 21.988c0-6.6274 5.3726-12 12-12h283.96c6.628 0 12 5.3726 12 12v166.52c0 6.627-5.372 12-12 12h-283.96c-6.6274 0-12-5.373-12-12z" fill="url(#d)"/><g stroke-linecap="square" stroke-linejoin="bevel"><path d="m1.7913 27.988h306.96v117h-306.96z" fill="url(#e)" stroke="#d7d7d7"/><path d="m1.7913 144.99h306.96v26.6h-306.96z" fill="url(#f)" stroke="#d7d7d7"/><path d="m12.48 35.028-2.6889 2.6889v6.7222l2.6889 2.6889 1.3444-1.3444v-2.6889h1.3444l1.3444 1.3444 2.6889-2.6889 2.6889 2.6889v-5.3778h-8.0667v-2.6889z" fill="url(#g)" stroke="#897416" stroke-width="1.15"/><g font-family="'Noto Sans'" font-size="14.667" font-style="italic"><text fill="#2b7dba" font-weight="700" x="27.041338" y="46.819298">student_id</text><text fill="#4964a6" font-weight="700" x="155.72234" xml:space="preserve" y="46.819298"> character(11)</text><text fill="#25682d" font-weight="400" x="267.59433" y="46.819298">« pk »</text></g><circle cx="15.291" cy="63.713" fill="url(#h)" r="5.5" stroke="#5a9ee4" stroke-width="1.15"/><g font-family="'Noto Sans'" font-size="14.667" font-style="italic"><text font-weight="400" x="25.941338" y="69.419296">student_national_id</text><text fill="#4964a6" font-weight="700" x="155.72234" xml:space="preserve" y="69.419296"> character(18)</text><text fill="#25682d" font-weight="400" x="266.34433" y="69.419296">« nn »</text></g><circle cx="15.291" cy="86.313" fill="url(#i)" r="5.5" stroke="#5a9ee4" stroke-width="1.15"/><g font-family="'Noto Sans'" font-size="14.667" font-style="italic"><text font-weight="400" x="25.941338" y="92.019302">student_name</text><text fill="#4964a6" font-weight="700" x="155.72234" xml:space="preserve" y="92.019302"> varchar(100)</text><text fill="#25682d" font-weight="400" x="266.34433" y="92.019302">« nn »</text></g><circle cx="15.291" cy="108.91" fill="url(#j)" r="5.5" stroke="#5a9ee4" stroke-width="1.15"/><g font-family="'Noto Sans'" font-size="14.667" font-style="italic"><text font-weight="400" x="25.941338" y="114.6193">parent_name</text><text fill="#4964a6" font-weight="700" x="155.72234" xml:space="preserve" y="114.6193"> varchar(100)</text><text fill="#25682d" font-weight="400" x="266.34433" y="114.6193">« nn »</text></g><circle cx="15.291" cy="131.51" fill="url(#k)" r="5.5" stroke="#5a9ee4" stroke-width="1.15"/><g font-family="'Noto Sans'" font-size="14.667" font-style="italic"><text font-weight="400" x="25.941338" y="137.2193">parent_mobile</text><text fill="#4964a6" font-weight="700" x="155.72234" xml:space="preserve" y="137.2193"> character(11)</text><text fill="#25682d" font-weight="400" x="266.34433" y="137.2193">« nn »</text></g><path d="m16.514 151.94-6.7222 6.7222 5.3778 5.3778h6.7222v-6.7222z" fill="url(#l)" stroke="#4c4c98" stroke-width="1.15"/><g font-family="'Noto Sans'" font-size="14.667" font-style="italic"><text fill="#082061" font-weight="400" x="26.872938" y="163.81931">student_id_pk</text><text fill="#4964a6" font-weight="700" x="155.72234" xml:space="preserve" y="163.81931"> constraint</text><text fill="#25682d" font-weight="400" x="267.59433" y="163.81931">« pk »</text></g><path d="m1.7913 171.59h306.96v7.924l-.182 2.0838-.541 2.0204-.884 1.8958-1.2 1.7135-1.479 1.479-1.714 1.1998-1.895.884-2.021.5414-2.084.1823h-282.96l-2.0838-.1823-2.0205-.5414-1.8958-.884-1.7134-1.1998-1.4791-1.479-1.1998-1.7135-.88401-1.8958-.54138-2.0204-.18231-2.0838v-7.924" fill="url(#m)" stroke="#d7d7d7"/><g stroke="#bebebe"><path d="m168.77 176.56h11l-5.5 8.8z" fill="url(#n)" opacity=".4"/><path d="m152.75 176.56-5.5 8.8h11z" fill="url(#o)"/><path d="m129.79 176.62 4.4 4.4-4.4 4.4-4.4-4.4z" fill="url(#p)"/></g><path d="m1.7913 13.988.18231-2.0838.54138-2.0205.88401-1.8958 1.1998-1.7134 1.4791-1.4791 1.7134-1.1998 1.8958-.88401 2.0205-.54138 2.0838-.18231h282.96l2.084.18231 2.021.54138 1.895.88401 1.714 1.1998 1.479 1.4791 1.2 1.7134.884 1.8958.541 2.0205.182 2.0838v14h-306.96z" fill="url(#q)" stroke="#3175b0"/><g font-family="'Noto Sans'" font-size="14.667"><text font-style="italic" font-weight="400" x="104.35434" y="19.321301">public.</text><text fill="#fff" font-weight="700" x="148.69734" y="19.321301">student</text></g></g></g></svg>