<svg height="199pt" viewBox="0 0 385 199" width="385pt" xmlns="http://www.w3.org/2000/svg"><path d="m1.7264 196.99h36.85v-195.06h-36.85z" fill="#e6e6e6" fill-opacity=".4" fill-rule="evenodd" stroke-width="1.3333"/><g fill="none" stroke-linejoin="round" stroke-miterlimit="10"><path d="m1.1971 2.0521h37.946" stroke="#b2b2b2"/><path d="m1.6891 1.5721v196" stroke="#b2b2b2"/><g stroke="#000"><path d="m38.16 2.0521h345.63"/><path d="m38.651 1.5721v196"/><path d="m112.58 1.5721v196"/><path d="m230.87 1.5721v196"/><path d="m295.2 1.5721v196"/><path d="m383.3 1.5721v196"/><path d="m383.3 1.5721v196"/></g><path d="m1.1971 21.558h37.946" stroke="#b2b2b2"/><path d="m38.16 21.558h345.63" stroke="#000"/><path d="m1.1971 197.07h37.946" stroke="#b2b2b2"/><path d="m38.16 197.07h345.63" stroke="#000"/><path d="m1.1971 197.07h37.946" stroke="#b2b2b2"/><path d="m38.16 197.07h345.63" stroke="#000"/></g><g font-family="Liberation Sans" font-size="13.341" stroke-width="1.3333"><g font-weight="bold"><text fill="#808080" x="14.311424" y="16.153137"><tspan stroke-width="1.3333" x="14.311424 18.006878" y="16.153137">id</tspan></text><text x="45.605301" y="16.153137"><tspan stroke-width="1.3333" x="45.605301 53.0229 61.160912 68.578499 73.021057 81.159065 93.019211 100.43681" y="16.153137">customer</tspan></text><text x="146.93211" y="16.153137"><tspan stroke-width="1.3333" x="146.93211 155.07011 160.25977 168.39777 176.53578 184.67378 192.09138" y="16.153137">product</tspan></text><text x="238.96179" y="16.153137"><tspan stroke-width="1.3333" x="238.96179 246.37939 258.23956 266.37756 274.51556 282.65359" y="16.153137">amount</tspan></text><text x="314.47461" y="16.153137"><tspan stroke-width="1.3333" x="314.47461 322.61261 327.80225 335.94028 343.35788 348.54755 355.96512" y="16.153137">ordered</tspan></text></g><text fill="#808080" x="28.673725" y="35.655254"><tspan stroke-width="1.3333" x="28.673725" y="35.655254">1</tspan></text><text x="305.17749" y="35.655254"><tspan stroke-width="1.3333" x="305.17749 312.59509 320.0127 327.4303 334.84787 339.29044 346.70801 354.12564 358.56821 365.98578" y="35.655254">2024-11-21</tspan></text><text fill="#808080" x="28.673725" y="55.157452"><tspan stroke-width="1.3333" x="28.673725" y="55.157452">2</tspan></text><text x="305.17749" y="55.157452"><tspan stroke-width="1.3333" x="305.17749 312.59509 320.0127 327.4303 334.84787 339.29044 346.70801 354.12564 358.56821 365.98578" y="55.157452">2024-12-09</tspan></text><text fill="#808080" x="28.673725" y="74.659653"><tspan stroke-width="1.3333" x="28.673725" y="74.659653">3</tspan></text><text x="305.17749" y="74.659653"><tspan stroke-width="1.3333" x="305.17749 312.59509 320.0127 327.4303 334.84787 339.29044 346.70801 354.12564 358.56821 365.98578" y="74.659653">2024-12-16</tspan></text><text fill="#808080" x="28.673725" y="94.160461"><tspan stroke-width="1.3333" x="28.673725" y="94.160461">4</tspan></text><text x="305.17749" y="94.160461"><tspan stroke-width="1.3333" x="305.17749 312.59509 320.0127 327.4303 334.84787 339.29044 346.70801 354.12564 358.56821 365.98578" y="94.160461">2024-12-30</tspan></text><text fill="#808080" x="28.673725" y="113.66266"><tspan stroke-width="1.3333" x="28.673725" y="113.66266">5</tspan></text><text x="305.17749" y="113.66266"><tspan stroke-width="1.3333" x="305.17749 312.59509 320.0127 327.4303 334.84787 339.29044 346.70801 354.12564 358.56821 365.98578" y="113.66266">2025-01-05</tspan></text><text fill="#808080" x="28.673725" y="133.16486"><tspan stroke-width="1.3333" x="28.673725" y="133.16486">6</tspan></text><text x="305.17749" y="133.16486"><tspan stroke-width="1.3333" x="305.17749 312.59509 320.0127 327.4303 334.84787 339.29044 346.70801 354.12564 358.56821 365.98578" y="133.16486">2025-01-12</tspan></text><text fill="#808080" x="28.673725" y="152.66705"><tspan stroke-width="1.3333" x="28.673725" y="152.66705">7</tspan></text><text x="305.17749" y="152.66705"><tspan stroke-width="1.3333" x="305.17749 312.59509 320.0127 327.4303 334.84787 339.29044 346.70801 354.12564 358.56821 365.98578" y="152.66705">2025-01-16</tspan></text><text fill="#808080" x="28.673725" y="172.16788"><tspan stroke-width="1.3333" x="28.673725" y="172.16788">8</tspan></text><text x="255.37862" y="35.655254"><tspan stroke-width="1.3333" x="255.37862 262.79617" y="35.655254">12</tspan></text><text x="262.86243" y="55.157452"><tspan stroke-width="1.3333" x="262.86243" y="55.157452">2</tspan></text><text x="262.86243" y="74.659653"><tspan stroke-width="1.3333" x="262.86243" y="74.659653">7</tspan></text><text x="262.86243" y="94.160461"><tspan stroke-width="1.3333" x="262.86243" y="94.160461">7</tspan></text><text x="262.86243" y="113.66266"><tspan stroke-width="1.3333" x="262.86243" y="113.66266">3</tspan></text><text x="262.86243" y="133.16486"><tspan stroke-width="1.3333" x="262.86243" y="133.16486">4</tspan></text><text x="255.37862" y="152.66705"><tspan stroke-width="1.3333" x="255.37862 262.79617" y="152.66705">10</tspan></text><text x="262.86243" y="172.16788"><tspan stroke-width="1.3333" x="262.86243" y="172.16788">6</tspan></text><text x="305.17749" y="172.16788"><tspan stroke-width="1.3333" x="305.17749 312.59509 320.0127 327.4303 334.84787 339.29044 346.70801 354.12564 358.56821 365.98578" y="172.16788">2025-02-05</tspan></text><text fill="#808080" x="22.664549" y="191.67007"><tspan stroke-width="1.3333" x="22.664549" y="191.67007">…</tspan></text><text x="69.106049" y="191.67007"><tspan stroke-width="1.3333" x="69.106049" y="191.67007">…</tspan></text><text x="165.42085" y="191.67007"><tspan stroke-width="1.3333" x="165.42085" y="191.67007">…</tspan></text><text x="256.47253" y="191.67007"><tspan stroke-width="1.3333" x="256.47253" y="191.67007">…</tspan></text><text x="332.57816" y="191.67007"><tspan stroke-width="1.3333" x="332.57816" y="191.67007">…</tspan></text><text x="46.719288" y="35.731262"><tspan stroke-width="1.3333" x="46.719288" y="35.731262">1</tspan></text><text fill="#646464" x="57.639832" y="35.731262"><tspan fill="#646464" stroke-width="1.3333" x="57.639832 62.162434 70.967491 74.022583 81.360123 88.831093 96.168633" y="35.731262">(Bibbo)</tspan></text><text x="46.719288" y="55.194805"><tspan stroke-width="1.3333" x="46.719288" y="55.194805">2</tspan></text><text fill="#646464" x="57.639832" y="55.194805"><tspan fill="#646464" stroke-width="1.3333" x="57.639832 62.162434 70.967491 78.438438 85.869392 93.20694 100.67788" y="55.194805">(Bebbo)</tspan></text><text x="46.719288" y="74.659653"><tspan stroke-width="1.3333" x="46.719288" y="74.659653">3</tspan></text><text fill="#646464" x="57.639832" y="74.659653"><tspan fill="#646464" stroke-width="1.3333" x="57.639832 62.162434 70.967491 78.438438 85.869392 93.20694 100.67788" y="74.659653">(Bebba)</tspan></text><text x="46.719288" y="94.123192"><tspan stroke-width="1.3333" x="46.719288" y="94.123192">2</tspan></text><text fill="#646464" x="57.639832" y="94.123192"><tspan fill="#646464" stroke-width="1.3333" x="57.639832 62.162434 70.967491 78.438438 85.869392 93.20694 100.67788" y="94.123192">(Bebbo)</tspan></text><text x="46.719288" y="113.70001"><tspan stroke-width="1.3333" x="46.719288" y="113.70001">1</tspan></text><text fill="#646464" x="57.639832" y="113.70001"><tspan fill="#646464" stroke-width="1.3333" x="57.639832 62.162434 70.967491 74.022583 81.360123 88.831093 96.168633" y="113.70001">(Bibbo)</tspan></text><text x="46.719288" y="133.20221"><tspan stroke-width="1.3333" x="46.719288" y="133.20221">2</tspan></text><text fill="#646464" x="57.639832" y="133.20221"><tspan fill="#646464" stroke-width="1.3333" x="57.639832 62.162434 70.967491 78.438438 85.869392 93.20694 100.67788" y="133.20221">(Bebbo)</tspan></text><text x="46.719288" xml:space="preserve" y="152.66705"><tspan stroke-width="1.3333" x="46.719288 54.056831" y="152.66705">3 </tspan></text><text fill="#646464" x="57.792347" y="152.66705"><tspan fill="#646464" stroke-width="1.3333" x="57.792347 62.181526 71.133339 78.470894 85.901833 93.239372 100.71034" y="152.66705">(Bebba)</tspan></text><text x="46.719288" y="172.13052"><tspan stroke-width="1.3333" x="46.719288" y="172.13052">2</tspan></text><text fill="#646464" x="57.639832" y="172.13052"><tspan fill="#646464" stroke-width="1.3333" x="57.639832 62.162434 70.967491 78.438438 85.869392 93.20694 100.67788" y="172.13052">(Bebbo)</tspan></text><text x="124.28832" xml:space="preserve" y="35.731262"><tspan stroke-width="1.3333" x="124.28832 131.62589" y="35.731262">7 </tspan></text><text fill="#646464" x="135.33691" y="35.731262"><tspan fill="#646464" stroke-width="1.3333" x="135.33691 139.7261 148.67793 156.01547 163.44641 170.78397 174.51945 178.25491 187.16672 190.11507 196.77223 204.10977 207.84526 215.31622 222.65376" y="35.731262">(Shoe, Size 42)</tspan></text><text x="124.28832" xml:space="preserve" y="55.194805"><tspan stroke-width="1.3333" x="124.28832 131.62589" y="55.194805">3 </tspan></text><text fill="#646464" x="135.33691" y="55.194805"><tspan fill="#646464" stroke-width="1.3333" x="135.33691 139.7261 148.67793 156.01547 163.44641 170.78397 174.51945 178.25491 187.16672 190.11507 196.77223 204.10977 207.84526 215.31622 222.65376" y="55.194805">(Shoe, Size 38)</tspan></text><text x="124.87721" y="74.659653"><tspan stroke-width="1.3333" x="124.87721" y="74.659653">2</tspan></text><text fill="#646464" x="135.33691" y="74.659653"><tspan fill="#646464" stroke-width="1.3333" x="135.33691 139.85951 148.66457 156.13553 163.56645 170.90401 174.63948 178.37497 187.18002 190.23512 196.89229 204.22983 207.9653 215.39624 222.7338" y="74.659653">(Shoe, Size 37)</tspan></text><text x="124.76647" y="94.123192"><tspan stroke-width="1.3333" x="124.76647" y="94.123192">5</tspan></text><text fill="#646464" x="135.33691" y="94.123192"><tspan fill="#646464" stroke-width="1.3333" x="135.33691 139.85951 148.66457 156.13553 163.56645 170.90401 174.63948 178.37497 187.18002 190.23512 196.89229 204.22983 207.9653 215.39624 222.7338" y="94.123192">(Shoe, Size 40)</tspan></text><text x="124.76647" y="113.70001"><tspan stroke-width="1.3333" x="124.76647" y="113.70001">5</tspan></text><text fill="#646464" x="135.33691" y="113.70001"><tspan fill="#646464" stroke-width="1.3333" x="135.33691 139.85951 148.66457 156.13553 163.56645 170.90401 174.63948 178.37497 187.18002 190.23512 196.89229 204.22983 207.9653 215.39624 222.7338" y="113.70001">(Shoe, Size 40)</tspan></text><text x="124.28832" xml:space="preserve" y="133.20221"><tspan stroke-width="1.3333" x="124.28832 131.62589" y="133.20221">6 </tspan></text><text fill="#646464" x="135.33691" y="133.20221"><tspan fill="#646464" stroke-width="1.3333" x="135.33691 139.7261 148.67793 156.01547 163.44641 170.78397 174.51945 178.25491 187.16672 190.11507 196.77223 204.10977 207.84526 215.31622 222.65376" y="133.20221">(Shoe, Size 41)</tspan></text><text x="116.81735" xml:space="preserve" y="152.66705"><tspan stroke-width="1.3333" x="116.81735 124.15491 131.62589" y="152.66705">11 </tspan></text><text fill="#646464" x="135.33691" y="152.66705"><tspan fill="#646464" stroke-width="1.3333" x="135.33691 139.72609 147.06364 154.53459 158.92378 166.39474 173.86571 177.45442 186.36623 193.83717 198.22636 204.91022 212.34116" y="152.66705">(Large Purse)</tspan></text><text x="124.28832" xml:space="preserve" y="172.13052"><tspan stroke-width="1.3333" x="124.28832 131.62589" y="172.13052">3 </tspan></text><text fill="#646464" x="135.33691" y="172.13052"><tspan fill="#646464" stroke-width="1.3333" x="135.33691 139.7261 148.67793 156.01547 163.44641 170.78397 174.51945 178.25491 187.16672 190.11507 196.77223 204.10977 207.84526 215.31622 222.65376" y="172.13052">(Shoe, Size 38)</tspan></text></g></svg>