<svg height="199pt" viewBox="0 0 385 199" width="385pt" xmlns="http://www.w3.org/2000/svg"><g transform="matrix(1.3333 0 0 -1.3333 -75.053 1019.2)"><path d="m57.586 616.67h27.638v146.3h-27.638z" fill="#e6e6e6" fill-opacity=".4" fill-rule="evenodd"/><g fill="none" stroke-linejoin="round" stroke-miterlimit="10" stroke-width=".75003"><path d="m57.189 762.88h28.46" stroke="#b2b2b2"/><path d="m57.558 763.24v-147" stroke="#b2b2b2"/><g stroke="#000"><path d="m84.912 762.88h259.23"/><path d="m85.28 763.24v-147"/><path d="m140.73 763.24v-147"/><path d="m229.45 763.24v-147"/><path d="m277.7 763.24v-147"/><path d="m343.77 763.24v-147"/><path d="m343.77 763.24v-147"/></g><path d="m57.189 748.25h28.46" stroke="#b2b2b2"/><path d="m84.912 748.25h259.23" stroke="#000"/><path d="m57.189 616.61h28.46" stroke="#b2b2b2"/><path d="m84.912 616.61h259.23" stroke="#000"/><path d="m57.189 616.61h28.46" stroke="#b2b2b2"/><path d="m84.912 616.61h259.23" stroke="#000"/></g><g font-family="Liberation Sans" font-size="10.006" transform="scale(1 -1)"><g font-weight="bold"><text fill="#808080" x="67.024994" y="-752.30396"><tspan x="67.024994 69.796654" y="-752.30396">id</tspan></text><text x="90.495987" y="-752.30396"><tspan x="90.495987 96.059326 102.16299 107.72632 111.05832 117.16198 126.05731 131.62065" y="-752.30396">customer</tspan></text><text x="166.493" y="-752.30396"><tspan x="166.493 172.59665 176.48898 182.59264 188.6963 194.79996 200.3633" y="-752.30396">product</tspan></text><text x="235.51698" y="-752.30396"><tspan x="235.51698 241.08032 249.97566 256.07932 262.18298 268.28665" y="-752.30396">amount</tspan></text><text x="292.15302" y="-752.30396"><tspan x="292.15302 298.25665 302.14899 308.25266 313.81601 317.70834 323.27167" y="-752.30396">ordered</tspan></text></g><text fill="#808080" x="77.796989" y="-737.677"><tspan x="77.796989" y="-737.677">1</tspan></text><text x="264.60001" y="-737.677"><tspan x="264.60001 270.16333" y="-737.677">12</tspan></text><text x="285.17999" y="-737.677"><tspan x="285.17999 290.74335 296.30667 301.87003 307.43335 310.76535 316.32867 321.89203 325.22403 330.78735" y="-737.677">2024-11-21</tspan></text><text fill="#808080" x="77.796989" y="-723.04999"><tspan x="77.796989" y="-723.04999">2</tspan></text><text x="270.21301" y="-723.04999"><tspan x="270.21301" y="-723.04999">2</tspan></text><text x="285.17999" y="-723.04999"><tspan x="285.17999 290.74335 296.30667 301.87003 307.43335 310.76535 316.32867 321.89203 325.22403 330.78735" y="-723.04999">2024-12-09</tspan></text><text fill="#808080" x="77.796989" y="-708.42297"><tspan x="77.796989" y="-708.42297">3</tspan></text><text x="270.21301" y="-708.42297"><tspan x="270.21301" y="-708.42297">7</tspan></text><text x="285.17999" y="-708.42297"><tspan x="285.17999 290.74335 296.30667 301.87003 307.43335 310.76535 316.32867 321.89203 325.22403 330.78735" y="-708.42297">2024-12-16</tspan></text><text fill="#808080" x="77.796989" y="-693.797"><tspan x="77.796989" y="-693.797">4</tspan></text><text x="270.21301" y="-693.797"><tspan x="270.21301" y="-693.797">7</tspan></text><text x="285.17999" y="-693.797"><tspan x="285.17999 290.74335 296.30667 301.87003 307.43335 310.76535 316.32867 321.89203 325.22403 330.78735" y="-693.797">2024-12-30</tspan></text><text fill="#808080" x="77.796989" y="-679.16998"><tspan x="77.796989" y="-679.16998">5</tspan></text><text x="270.21301" y="-679.16998"><tspan x="270.21301" y="-679.16998">3</tspan></text><text x="285.17999" y="-679.16998"><tspan x="285.17999 290.74335 296.30667 301.87003 307.43335 310.76535 316.32867 321.89203 325.22403 330.78735" y="-679.16998">2025-01-05</tspan></text><text fill="#808080" x="77.796989" y="-664.54297"><tspan x="77.796989" y="-664.54297">6</tspan></text><text x="270.21301" y="-664.54297"><tspan x="270.21301" y="-664.54297">4</tspan></text><text x="285.17999" y="-664.54297"><tspan x="285.17999 290.74335 296.30667 301.87003 307.43335 310.76535 316.32867 321.89203 325.22403 330.78735" y="-664.54297">2025-01-12</tspan></text><text fill="#808080" x="77.796989" y="-649.91595"><tspan x="77.796989" y="-649.91595">7</tspan></text><text x="264.60001" y="-649.91595"><tspan x="264.60001 270.16333" y="-649.91595">10</tspan></text><text x="285.17999" y="-649.91595"><tspan x="285.17999 290.74335 296.30667 301.87003 307.43335 310.76535 316.32867 321.89203 325.22403 330.78735" y="-649.91595">2025-01-16</tspan></text><text fill="#808080" x="77.796989" y="-635.28998"><tspan x="77.796989" y="-635.28998">8</tspan></text><text x="270.21301" y="-635.28998"><tspan x="270.21301" y="-635.28998">6</tspan></text><text x="285.17999" y="-635.28998"><tspan x="285.17999 290.74335 296.30667 301.87003 307.43335 310.76535 316.32867 321.89203 325.22403 330.78735" y="-635.28998">2025-02-05</tspan></text><text fill="#808080" x="73.289993" y="-620.66296"><tspan x="73.289993" y="-620.66296">…</tspan></text><text x="87.292992" y="-620.66296"><tspan x="87.292992" y="-620.66296">…</tspan></text><text x="142.73898" y="-620.66296"><tspan x="142.73898" y="-620.66296">…</tspan></text><text x="265.70599" y="-620.66296"><tspan x="265.70599" y="-620.66296">…</tspan></text><text x="305.73102" y="-620.66296"><tspan x="305.73102" y="-620.66296">…</tspan></text><text x="87.264992" y="-737.62"><tspan x="87.264992" y="-737.62">1</tspan></text><text fill="#999" x="95.455605" y="-737.62"><tspan x="95.455605 98.847641 105.4516 107.74297 113.24627 118.84963 124.35293" y="-737.62">(Bibbo)</tspan></text><text x="142.76698" xml:space="preserve" y="-737.62"><tspan x="142.76698 148.27029" y="-737.62">7 </tspan></text><text fill="#999" x="151.07298" y="-737.62"><tspan x="151.07298 154.36496 161.07899 166.58229 172.15562 177.65894 180.46062 183.26228 189.9463 192.15762 197.15062 202.65392 205.4556 211.05896 216.56226" y="-737.62">(Shoe, Size 42)</tspan></text><text x="87.264992" y="-723.02197"><tspan x="87.264992" y="-723.02197">2</tspan></text><text fill="#999" x="95.455605" y="-723.02197"><tspan x="95.455605 98.847641 105.4516 111.05495 116.6283 122.1316 127.73495" y="-723.02197">(Bebbo)</tspan></text><text x="142.76698" xml:space="preserve" y="-723.02197"><tspan x="142.76698 148.27029" y="-723.02197">3 </tspan></text><text fill="#999" x="151.07298" y="-723.02197"><tspan x="151.07298 154.36496 161.07899 166.58229 172.15562 177.65894 180.46062 183.26228 189.9463 192.15762 197.15062 202.65392 205.4556 211.05896 216.56226" y="-723.02197">(Shoe, Size 38)</tspan></text><text x="87.264992" y="-708.42297"><tspan x="87.264992" y="-708.42297">3</tspan></text><text fill="#999" x="95.455605" y="-708.42297"><tspan x="95.455605 98.847641 105.4516 111.05495 116.6283 122.1316 127.73495" y="-708.42297">(Bebba)</tspan></text><text x="142.76698" y="-708.42297"><tspan x="142.76698" y="-708.42297">2</tspan></text><text fill="#999" x="150.9576" y="-708.42297"><tspan x="150.9576 154.34964 160.9536 166.55696 172.13029 177.63359 180.43527 183.23695 189.84091 192.13229 197.12529 202.62859 205.43027 211.0036 216.50691" y="-708.42297">(Shoe, Size 37)</tspan></text><text x="87.264992" y="-693.82495"><tspan x="87.264992" y="-693.82495">2</tspan></text><text fill="#999" x="95.455605" y="-693.82495"><tspan x="95.455605 98.847641 105.4516 111.05495 116.6283 122.1316 127.73495" y="-693.82495">(Bebbo)</tspan></text><text x="142.76698" y="-693.82495"><tspan x="142.76698" y="-693.82495">5</tspan></text><text fill="#999" x="150.9576" y="-693.82495"><tspan x="150.9576 154.34964 160.9536 166.55696 172.13029 177.63359 180.43527 183.23695 189.84091 192.13229 197.12529 202.62859 205.43027 211.0036 216.50691" y="-693.82495">(Shoe, Size 40)</tspan></text><text x="87.264992" y="-679.14197"><tspan x="87.264992" y="-679.14197">1</tspan></text><text fill="#999" x="95.455605" y="-679.14197"><tspan x="95.455605 98.847641 105.4516 107.74297 113.24627 118.84963 124.35293" y="-679.14197">(Bibbo)</tspan></text><text x="142.76698" y="-679.14197"><tspan x="142.76698" y="-679.14197">5</tspan></text><text fill="#999" x="150.9576" y="-679.14197"><tspan x="150.9576 154.34964 160.9536 166.55696 172.13029 177.63359 180.43527 183.23695 189.84091 192.13229 197.12529 202.62859 205.43027 211.0036 216.50691" y="-679.14197">(Shoe, Size 40)</tspan></text><text x="87.264992" y="-664.51495"><tspan x="87.264992" y="-664.51495">2</tspan></text><text fill="#999" x="95.455605" y="-664.51495"><tspan x="95.455605 98.847641 105.4516 111.05495 116.6283 122.1316 127.73495" y="-664.51495">(Bebbo)</tspan></text><text x="142.76698" xml:space="preserve" y="-664.51495"><tspan x="142.76698 148.27029" y="-664.51495">6 </tspan></text><text fill="#999" x="151.07298" y="-664.51495"><tspan x="151.07298 154.36496 161.07899 166.58229 172.15562 177.65894 180.46062 183.26228 189.9463 192.15762 197.15062 202.65392 205.4556 211.05896 216.56226" y="-664.51495">(Shoe, Size 41)</tspan></text><text x="87.264992" xml:space="preserve" y="-649.91595"><tspan x="87.264992 92.768288" y="-649.91595">3 </tspan></text><text fill="#999" x="95.569992" y="-649.91595"><tspan x="95.569992 98.861961 105.57599 111.07929 116.65263 122.15593 127.75929" y="-649.91595">(Bebba)</tspan></text><text x="142.76698" xml:space="preserve" y="-649.91595"><tspan x="142.76698 148.27029 153.87366" y="-649.91595">11 </tspan></text><text fill="#999" x="156.657" y="-649.91595"><tspan x="156.657 159.94896 165.45227 171.05562 174.3476 179.95096 185.55432 188.24593 194.92995 200.53329 203.82527 208.83829 214.41162" y="-649.91595">(Large Purse)</tspan></text><text x="87.264992" y="-635.31799"><tspan x="87.264992" y="-635.31799">2</tspan></text><text fill="#999" x="95.455605" y="-635.31799"><tspan x="95.455605 98.847641 105.4516 111.05495 116.6283 122.1316 127.73495" y="-635.31799">(Bebbo)</tspan></text><text x="142.76698" xml:space="preserve" y="-635.31799"><tspan x="142.76698 148.27029" y="-635.31799">3 </tspan></text><text fill="#999" x="151.07298" y="-635.31799"><tspan x="151.07298 154.36496 161.07899 166.58229 172.15562 177.65894 180.46062 183.26228 189.9463 192.15762 197.15062 202.65392 205.4556 211.05896 216.56226" y="-635.31799">(Shoe, Size 38)</tspan></text></g></g></svg>