<svg height="54pt" viewBox="0 0 147 54" width="147pt" xmlns="http://www.w3.org/2000/svg"><path d="m1.5969 1.5908h95.034v50.818h-95.034z" fill="#ee7105" stroke="#b5161e" stroke-linecap="round" stroke-linejoin="round" stroke-width=".353"/><text stroke-width=".35278" x="272.76028" y="-3.134316"><tspan stroke-width=".35278" x="272.76028" y="-3.134316"/></text><text stroke-width=".35278" x="329.65207" y="-60.873505"><tspan stroke-width=".35278" x="329.65207" y="-60.873505"/></text><g fill="none" stroke="#fff" stroke-linecap="round" stroke-linejoin="round" stroke-width="2" transform="translate(112.68 -125.48)"><path d="m-83.92 164.28v9.6554c6.7441 1.014 14.443.92823 20.314.93548 2.403-.00081 20.175-.24359 20.314-.94025v-9.6507c-13.651-2.0044-27.092-.11253-40.629.00001z"/><ellipse cx="-63.605" cy="164.31" rx="20.315" ry="1.0213"/><path d="m-92.321 134.31 28.716 17.723"/><path d="m-63.565 134.31-.03987 29.823"/><path d="m-34.809 134.31-28.796 17.723"/><g stroke-miterlimit="10"><path d="m-43.291 156.15v-8.4366h-40.629v8.4366z"/><path d="m-79.716 138.53v-8.4366h-25.211v8.4366z"/><path d="m-50.96 138.53v-8.4366h-25.211v8.4366z"/><path d="m-22.204 138.53v-8.4366h-25.211v8.4366z"/></g></g><path d="m28.759 38.797v9.6554c6.7441 1.014 14.443.92823 20.314.93548 2.403-.00081 20.175-.24359 20.314-.94025v-9.6507c-13.651-2.0044-27.092-.11253-40.629.00001z" fill="#ee7105" stroke="#b5161e" stroke-width=".353"/><ellipse cx="49.074" cy="38.83" fill="#ee7105" rx="20.315" ry="1.0213" stroke="#b5161e" stroke-linecap="round" stroke-linejoin="round" stroke-width=".353"/><g stroke-width=".35278"><g stroke="#b5161e" stroke-linejoin="round"><g fill="none" stroke-linecap="round"><path d="m20.358 8.8302 28.716 17.723"/><path d="m49.114 8.8302-.03987 29.823"/><path d="m77.87 8.8302-28.796 17.723"/></g><path d="m69.388 30.666v-8.4366h-40.629v8.4366z" fill="#ee7105" stroke-miterlimit="10"/></g><text font-family="'DejaVu Sans'" font-size="2.707" x="31.933662" y="27.299904"><tspan font-family="'DejaVu Sans'" stroke-width=".35278" x="31.933662" y="27.299904">Conceptual/Logical Layer</tspan></text><path d="m32.963 13.048v-8.4366h-25.211v8.4366z" fill="#ee7105" stroke="#b5161e" stroke-linejoin="round" stroke-miterlimit="10"/><text font-family="'DejaVu Sans'" font-size="2.707" x="9.800513" y="9.839333"><tspan font-family="'DejaVu Sans'" stroke-width=".35278" x="9.800513" y="9.839333">External View 1</tspan></text><path d="m61.719 13.048v-8.4366h-25.211v8.4366z" fill="#ee7105" stroke="#b5161e" stroke-linejoin="round" stroke-miterlimit="10"/><text font-family="'DejaVu Sans'" font-size="2.707" x="38.567223" y="9.839333"><tspan font-family="'DejaVu Sans'" stroke-width=".35278" x="38.567223" y="9.839333">External View 2</tspan></text><path d="m90.475 13.048v-8.4366h-25.211v8.4366z" fill="#ee7105" stroke="#b5161e" stroke-linejoin="round" stroke-miterlimit="10"/><text font-family="'DejaVu Sans'" font-size="2.707" x="67.458847" y="9.839333"><tspan font-family="'DejaVu Sans'" stroke-width=".35278" x="67.458847" y="9.839333">External View...</tspan></text><text font-family="'DejaVu Sans'" font-size="2.707" x="37.866348" y="45.690781"><tspan font-family="'DejaVu Sans'" stroke-width=".35278" x="37.866348" y="45.690781">Physical Layer</tspan></text><text x="103.80907" y="47.000664"><tspan x="103.80907" y="47.000664"/></text></g><text font-family="'DejaVu Sans'" font-size="2.707" stroke-width=".75" x="99.980896" y="43.901947"><tspan x="99.980896" y="43.901947">the actual way the data is stored</tspan><tspan x="99.980896" y="47.479614">hidden from the applications</tspan></text><text style="font-family:Ubuntu;font-size:3.0192;font-weight:bold;stroke:#fff;stroke-linecap:round;stroke-linejoin:round;stroke-width:.5" x="2.465301" y="51.066841"><tspan style="font-family:DejaVu Sans;font-size:3.0192;font-weight:normal;stroke:#fff;stroke-linecap:round;stroke-linejoin:round;stroke-width:.5" x="2.465301" y="51.066841">database</tspan></text><text font-family="'DejaVu Sans'" font-size="2.707" stroke-width=".75" x="99.904228" y="25.405777"><tspan x="99.904228" y="25.405777">definition of the all the tables and</tspan><tspan x="99.904228" y="28.983444">relationship in the database</tspan></text><text font-family="'DejaVu Sans'" font-size="2.707" stroke-width=".75" x="99.906876" y="6.261665"><tspan x="99.906876" y="6.261665">different views on the data:</tspan><tspan x="99.906876" y="9.839333">different applications get to see</tspan><tspan x="99.906876" y="13.417">different subsets of the data</tspan></text><text style="font-family:Ubuntu;font-size:3.0192;font-weight:bold;stroke-linecap:round;stroke-linejoin:round;stroke-width:.5" x="2.465301" y="51.066841"><tspan style="font-family:DejaVu Sans;font-size:3.0192;font-weight:normal;stroke-linecap:round;stroke-linejoin:round;stroke-width:.5" x="2.465301" y="51.066841">database</tspan></text></svg>