<svg height="224pt" viewBox="0 0 305 224" width="305pt" xmlns="http://www.w3.org/2000/svg" xmlns:xlink="http://www.w3.org/1999/xlink"><linearGradient id="a" x2="0" y2="1"><stop offset="0" stop-color="#fcfcfc"/><stop offset="1" stop-color="#fcfcfc"/></linearGradient><linearGradient id="b" x2="0" y2="1"><stop offset="0" stop-color="#f3f3f3"/><stop offset="1" stop-color="#e1e1e1"/></linearGradient><linearGradient id="c" gradientTransform="scale(1.1737 .85198)" gradientUnits="userSpaceOnUse" x2="0" y2="250.15"><stop offset="0" stop-color="#a9a9a9" stop-opacity=".19608"/><stop offset="1" stop-color="#a9a9a9" stop-opacity=".19608"/></linearGradient><linearGradient id="d" gradientTransform="scale(1.4451 .692)" gradientUnits="userSpaceOnUse" x1="-.346" x2="-.346" xlink:href="#a" y1="-.72254" y2="202.46"/><linearGradient id="e" gradientTransform="scale(3.2616 .3066)" gradientUnits="userSpaceOnUse" x1="-.1533" x2="-.1533" xlink:href="#a" y1="-1.6308" y2="88.39"/><linearGradient id="f" gradientTransform="scale(.99738 1.0026)" gradientUnits="userSpaceOnUse" x1="-.57651" x2="-.57651" y1="-.81104" y2="12.474"><stop offset="0" stop-color="#ffff80"/><stop offset="1" stop-color="#ffff80"/></linearGradient><linearGradient id="g" gradientUnits="userSpaceOnUse" x1="-.575" x2="-.575" y1="-.575" y2="11.575"><stop offset="0" stop-color="#d2e9ff"/><stop offset="1" stop-color="#d2e9ff"/></linearGradient><linearGradient id="h" gradientTransform="scale(.98481 1.0154)" gradientUnits="userSpaceOnUse" x1="-.41286" x2="-.41286" y1="-.80082" y2="12.483"><stop offset="0" stop-color="#c5cbff"/><stop offset="1" stop-color="#c5cbff"/></linearGradient><linearGradient id="i" gradientTransform="scale(3.746 .26695)" gradientUnits="userSpaceOnUse" x1="-.13348" x2="-.13348" xlink:href="#a" y1="-1.873" y2="76.508"/><linearGradient id="j" gradientTransform="scale(1.1144 .89736)" gradientUnits="userSpaceOnUse" x1="-.61828" x2="-.61828" xlink:href="#b" y1="-.76781" y2="10.102"/><linearGradient id="k" gradientTransform="scale(1.0891 .9182)" gradientUnits="userSpaceOnUse" x1="-.38932" x2="-.38932" xlink:href="#b" y1="-.75038" y2="10.128"/><linearGradient id="l" gradientTransform="scale(.98191 1.0184)" gradientUnits="userSpaceOnUse" x1="-.36007" x2="-.36007" xlink:href="#b" y1="-.69431" y2="8.988"/><linearGradient id="m" gradientTransform="scale(3.2979 .30322)" gradientUnits="userSpaceOnUse" x1="-.16425" x2="-.16425" y1="-1.6489" y2="87.394"><stop offset="0" stop-color="#4aa5ff"/><stop offset="1" stop-color="#4aa5ff"/></linearGradient><g fill-rule="evenodd"><path d="m0 12c0-6.6274 5.3726-12 12-12h269.61c6.628 0 12 5.3726 12 12v189.12c0 6.627-5.372 12-12 12h-269.61c-6.6274 0-12-5.373-12-12z" fill="url(#c)" transform="translate(9.9643 9.688)"/><g stroke-linecap="square" stroke-linejoin="bevel"><path d="m0 0h292.61v139.6h-292.61z" fill="url(#d)" stroke="#d7d7d7" transform="translate(1.9643 27.688)"/><path d="m0 0h292.61v26.6h-292.61z" fill="url(#e)" stroke="#d7d7d7" transform="translate(1.9643 167.29)"/><path d="m2.6889 0-2.6889 2.6889v6.7222l2.6889 2.6889 1.3444-1.3444v-2.6889h1.3444l1.3444 1.3444 2.6889-2.6889 2.6889 2.6889v-5.3778h-8.0667v-2.6889z" fill="url(#f)" stroke="#897416" stroke-width="1.15" transform="translate(9.9643 34.728)"/><g font-family="'Noto Sans'" font-size="14.667" font-style="italic"><text fill="#2b7dba" font-weight="700" transform="translate(27.214 30.488)" y="16.0313">building_number</text><text fill="#4964a6" font-weight="700" transform="translate(147.64 30.488)" xml:space="preserve" y="16.0313"> varchar(4)</text><text fill="#25682d" font-weight="400" transform="translate(253.42 30.488)" y="16.0313">« pk »</text></g><path d="m2.6889 0-2.6889 2.6889v6.7222l2.6889 2.6889 1.3444-1.3444v-2.6889h1.3444l1.3444 1.3444 2.6889-2.6889 2.6889 2.6889v-5.3778h-8.0667v-2.6889z" fill="url(#f)" stroke="#897416" stroke-width="1.15" transform="translate(9.9643 57.328)"/><g font-family="'Noto Sans'" font-size="14.667" font-style="italic"><text fill="#2b7dba" font-weight="700" transform="translate(27.214 53.088)" y="16.0313">room_number</text><text fill="#4964a6" font-weight="700" transform="translate(147.64 53.088)" xml:space="preserve" y="16.0313"> varchar(4)</text><text fill="#25682d" font-weight="400" transform="translate(253.42 53.088)" y="16.0313">« pk »</text></g><circle cx="5.5" cy="5.5" fill="url(#g)" r="5.5" stroke="#5a9ee4" stroke-width="1.15" transform="translate(9.9643 80.513)"/><g font-family="'Noto Sans'" font-size="14.667" font-style="italic"><text font-weight="400" transform="translate(26.114 75.688)" y="16.0313">building_name</text><text fill="#4964a6" font-weight="700" transform="translate(147.64 75.688)" xml:space="preserve" y="16.0313"> varchar(100)</text><text fill="#25682d" font-weight="400" transform="translate(252.17 75.688)" y="16.0313">« nn »</text></g><circle cx="5.5" cy="5.5" fill="url(#g)" r="5.5" stroke="#5a9ee4" stroke-width="1.15" transform="translate(9.9643 103.11)"/><g font-family="'Noto Sans'" font-size="14.667" font-style="italic"><text font-weight="400" transform="translate(26.114 98.288)" y="16.0313">room_name</text><text fill="#4964a6" font-weight="700" transform="translate(147.64 98.288)" xml:space="preserve" y="16.0313"> varchar(100)</text><text fill="#25682d" font-weight="400" transform="translate(252.17 98.288)" y="16.0313">« nn »</text></g><circle cx="5.5" cy="5.5" fill="url(#g)" r="5.5" stroke="#5a9ee4" stroke-width="1.15" transform="translate(9.9643 125.71)"/><g font-family="'Noto Sans'" font-size="14.667" font-style="italic"><text font-weight="400" transform="translate(26.114 120.89)" y="16.0313">capacity</text><text fill="#4964a6" font-weight="700" transform="translate(147.64 120.89)" xml:space="preserve" y="16.0313"> integer</text><text fill="#25682d" font-weight="400" transform="translate(252.17 120.89)" y="16.0313">« nn »</text></g><circle cx="5.5" cy="5.5" fill="url(#g)" r="5.5" stroke="#5a9ee4" stroke-width="1.15" transform="translate(9.9643 148.31)"/><g font-family="'Noto Sans'" font-size="14.667" font-style="italic"><text font-weight="400" transform="translate(26.114 143.49)" y="16.0313">address</text><text fill="#4964a6" font-weight="700" transform="translate(147.64 143.49)" xml:space="preserve" y="16.0313"> varchar(100)</text><text fill="#25682d" font-weight="400" transform="translate(252.17 143.49)" y="16.0313">« nn »</text></g><path d="m6.7222 0-6.7222 6.7222 5.3778 5.3778h6.7222v-6.7222z" fill="url(#h)" stroke="#4c4c98" stroke-width="1.15" transform="translate(9.9643 174.24)"/><g font-family="'Noto Sans'" font-size="14.667" font-style="italic"><text fill="#082061" font-weight="400" transform="translate(27.046 170.09)" y="16.0313">br_pk</text><text fill="#4964a6" font-weight="700" transform="translate(147.64 170.09)" xml:space="preserve" y="16.0313"> constraint</text><text fill="#25682d" font-weight="400" transform="translate(253.42 170.09)" y="16.0313">« pk »</text></g><path d="m0 0h292.613v7.924l-.182 2.0838-.541 2.0204-.884 1.8958-1.2 1.7135-1.479 1.479-1.714 1.1998-1.895.884-2.021.5414-2.084.1823h-268.613l-2.08378-.1823-2.02046-.5414-1.89576-.884-1.71345-1.1998-1.47908-1.479-1.19977-1.7135-.884011-1.8958-.541382-2.0204-.182307-2.0838z" fill="url(#i)" stroke="#d7d7d7" transform="translate(1.9643 193.89)"/><g stroke="#bebebe"><path d="m0 0h11l-5.5 8.8z" fill="url(#j)" opacity=".4" transform="translate(161.77 198.86)"/><path d="m5.5 0-5.5 8.8h11z" fill="url(#k)" transform="translate(140.25 198.86)"/><path d="m4.4 0 4.4 4.4-4.4 4.4-4.4-4.4z" fill="url(#l)" transform="translate(118.39 198.92)"/></g><g transform="translate(1.9643 1.688)"><path d="m0 12 .18231-2.0838.54138-2.0205.88401-1.8958 1.1998-1.7134 1.4791-1.4791 1.7134-1.1998 1.8958-.88401 2.0205-.54138 2.0838-.18231h268.61l2.084.18231 2.021.54138 1.895.88401 1.714 1.1998 1.479 1.4791 1.2 1.7134.884 1.8958.541 2.0205.182 2.0838v14h-292.61z" fill="url(#m)" stroke="#3175b0"/><g font-family="'Noto Sans'" font-size="14.667"><text font-style="italic" font-weight="400" x="70.75" y="17.3333">public.</text><text fill="#fff" font-weight="700" x="115.094" y="17.3333">building_room</text></g></g></g></g></svg>