<svg height="202pt" viewBox="0 0 745 202" width="745pt" xmlns="http://www.w3.org/2000/svg" xmlns:xlink="http://www.w3.org/1999/xlink"><linearGradient id="a" x2="0" y2="1"><stop offset="0" stop-color="#a9a9a9" stop-opacity=".19608"/><stop offset="1" stop-color="#a9a9a9" stop-opacity=".19608"/></linearGradient><linearGradient id="b" x2="0" y2="1"><stop offset="0" stop-color="#fcfcfc"/><stop offset="1" stop-color="#fcfcfc"/></linearGradient><linearGradient id="c" x2="0" y2="1"><stop offset="0" stop-color="#ffff80"/><stop offset="1" stop-color="#ffff80"/></linearGradient><linearGradient id="d" x2="0" y2="1"><stop offset="0" stop-color="#d2e9ff"/><stop offset="1" stop-color="#d2e9ff"/></linearGradient><linearGradient id="e" x2="0" y2="1"><stop offset="0" stop-color="#c5cbff"/><stop offset="1" stop-color="#c5cbff"/></linearGradient><linearGradient id="f" x2="0" y2="1"><stop offset="0" stop-color="#f3f3f3"/><stop offset="1" stop-color="#e1e1e1"/></linearGradient><linearGradient id="g" x2="0" y2="1"><stop offset="0" stop-color="#4aa5ff"/><stop offset="1" stop-color="#4aa5ff"/></linearGradient><linearGradient id="h" gradientTransform="matrix(.99946 0 0 1.0005 -422.96 -98.641)" gradientUnits="userSpaceOnUse" x1="-.75034" x2="-.75034" y1="-.78024" y2="18.89"><stop offset="0" stop-color="#dcdcdc"/><stop offset="1" stop-color="#dcdcdc"/></linearGradient><linearGradient id="i" gradientTransform="matrix(1.7518 0 0 .57083 327.07 111.84)" gradientUnits="userSpaceOnUse" x2="0" xlink:href="#a" y2="50.804"/><linearGradient id="j" gradientTransform="matrix(1.7321 0 0 .57735 319.07 103.84)" gradientUnits="userSpaceOnUse" x1="-.28868" x2="-.28868" y1="-.86602" y2="51.095"><stop offset="0" stop-color="#eeffe0"/><stop offset="1" stop-color="#eeffe0"/></linearGradient><linearGradient id="k" gradientTransform="matrix(1.2414 0 0 .80554 449.96 9.988)" gradientUnits="userSpaceOnUse" x2="0" xlink:href="#a" y2="236.52"/><linearGradient id="l" gradientTransform="matrix(1.7543 0 0 .57002 441.96 27.988)" gradientUnits="userSpaceOnUse" x1="-.28501" x2="-.28501" xlink:href="#b" y1="-.87717" y2="166.49"/><linearGradient id="m" gradientTransform="matrix(2.4184 0 0 .41349 441.96 122.39)" gradientUnits="userSpaceOnUse" x1="-.20674" x2="-.20674" xlink:href="#b" y1="-1.2092" y2="120.2"/><linearGradient id="n" gradientTransform="matrix(.99738 0 0 1.0026 449.96 35.028)" gradientUnits="userSpaceOnUse" x1="-.57651" x2="-.57651" xlink:href="#c" y1="-.81104" y2="12.474"/><linearGradient id="o" gradientTransform="matrix(.99738 0 0 1.0026 449.96 57.628)" gradientUnits="userSpaceOnUse" x1="-.57651" x2="-.57651" xlink:href="#c" y1="-.81104" y2="12.474"/><linearGradient id="p" gradientUnits="userSpaceOnUse" x1="449.39" x2="449.39" xlink:href="#d" y1="80.238" y2="92.388"/><linearGradient id="q" gradientUnits="userSpaceOnUse" x1="449.39" x2="449.39" xlink:href="#d" y1="102.84" y2="114.99"/><linearGradient id="r" gradientTransform="matrix(.98481 0 0 1.0154 449.96 129.34)" gradientUnits="userSpaceOnUse" x1="-.41286" x2="-.41286" xlink:href="#e" y1="-.80082" y2="12.483"/><linearGradient id="s" gradientTransform="matrix(.98481 0 0 1.0154 449.96 151.94)" gradientUnits="userSpaceOnUse" x1="-.41286" x2="-.41286" xlink:href="#e" y1="-.80082" y2="12.483"/><linearGradient id="t" gradientTransform="matrix(3.746 0 0 .26695 441.96 171.59)" gradientUnits="userSpaceOnUse" x1="-.13348" x2="-.13348" xlink:href="#b" y1="-1.873" y2="76.508"/><linearGradient id="u" gradientTransform="matrix(1.1144 0 0 .89736 601.77 176.56)" gradientUnits="userSpaceOnUse" x1="-.61828" x2="-.61828" xlink:href="#f" y1="-.76781" y2="10.102"/><linearGradient id="v" gradientTransform="matrix(1.0891 0 0 .9182 580.25 176.56)" gradientUnits="userSpaceOnUse" x1="-.38932" x2="-.38932" xlink:href="#f" y1="-.75038" y2="10.128"/><linearGradient id="w" gradientTransform="matrix(.98191 0 0 1.0184 558.39 176.62)" gradientUnits="userSpaceOnUse" x1="-.36007" x2="-.36007" xlink:href="#f" y1="-.69431" y2="8.988"/><linearGradient id="x" gradientTransform="matrix(3.2979 0 0 .30322 441.96 1.988)" gradientUnits="userSpaceOnUse" x1="-.16425" x2="-.16425" xlink:href="#g" y1="-1.6489" y2="87.394"/><linearGradient id="y" gradientTransform="matrix(1.4214 0 0 .70353 9.9643 9.988)" gradientUnits="userSpaceOnUse" x2="0" xlink:href="#a" y2="206.56"/><linearGradient id="z" gradientTransform="matrix(2.0083 0 0 .49794 1.9643 27.988)" gradientUnits="userSpaceOnUse" x1="-.24897" x2="-.24897" xlink:href="#b" y1="-1.0041" y2="145.2"/><linearGradient id="A" gradientTransform="matrix(3.2616 0 0 .3066 1.9643 99.788)" gradientUnits="userSpaceOnUse" x1="-.1533" x2="-.1533" xlink:href="#b" y1="-1.6308" y2="88.39"/><linearGradient id="B" gradientTransform="matrix(.99738 0 0 1.0026 9.9643 35.028)" gradientUnits="userSpaceOnUse" x1="-.57651" x2="-.57651" xlink:href="#c" y1="-.81104" y2="12.474"/><linearGradient id="C" gradientUnits="userSpaceOnUse" x1="9.3893" x2="9.3893" xlink:href="#d" y1="57.638" y2="69.788"/><linearGradient id="D" gradientUnits="userSpaceOnUse" x1="9.3893" x2="9.3893" xlink:href="#d" y1="80.238" y2="92.388"/><linearGradient id="E" gradientTransform="matrix(.98481 0 0 1.0154 9.9643 106.74)" gradientUnits="userSpaceOnUse" x1="-.41286" x2="-.41286" xlink:href="#e" y1="-.80082" y2="12.483"/><linearGradient id="F" gradientTransform="matrix(3.746 0 0 .26695 1.9643 126.39)" gradientUnits="userSpaceOnUse" x1="-.13348" x2="-.13348" xlink:href="#b" y1="-1.873" y2="76.508"/><linearGradient id="G" gradientTransform="matrix(1.1144 0 0 .89736 161.77 131.36)" gradientUnits="userSpaceOnUse" x1="-.61828" x2="-.61828" xlink:href="#f" y1="-.76781" y2="10.102"/><linearGradient id="H" gradientTransform="matrix(1.0891 0 0 .9182 140.25 131.36)" gradientUnits="userSpaceOnUse" x1="-.38932" x2="-.38932" xlink:href="#f" y1="-.75038" y2="10.128"/><linearGradient id="I" gradientTransform="matrix(.98191 0 0 1.0184 118.39 131.42)" gradientUnits="userSpaceOnUse" x1="-.36007" x2="-.36007" xlink:href="#f" y1="-.69431" y2="8.988"/><linearGradient id="J" gradientTransform="matrix(3.2979 0 0 .30322 1.9643 1.988)" gradientUnits="userSpaceOnUse" x1="-.16425" x2="-.16425" xlink:href="#g" y1="-1.6489" y2="87.394"/><g stroke="#606060" stroke-linecap="square" stroke-linejoin="bevel" stroke-width="1.5"><g fill="none"><path d="m441.96 89.709h-33"/><path d="m408.96 89.709c-45.693 0-45.693-7.518-91.387-7.518"/><path d="m317.58 82.191h-22"/><g transform="matrix(-1 0 0 -1 441.96 89.71)"><path d="m18 0-18-11"/><path d="m18 0-18 11"/></g></g><circle cx="-413.89" cy="-89.566" fill="url(#h)" fill-rule="evenodd" r="9.075" stroke-dasharray="6 3" transform="scale(-1)"/><g fill="none"><path d="m0-8.8v17.6" transform="matrix(-1 0 0 -1 305.58 82.19)"/><path d="m0-8.8v17.6" transform="matrix(-1 0 0 -1 313.58 82.19)"/></g></g><g fill-rule="evenodd"><path d="m327.07 111.84h89v29h-89z" fill="url(#i)"/><path d="m319.07 103.84h89v29h-89z" fill="url(#j)" stroke="#a4b09b" stroke-linecap="square" stroke-linejoin="bevel"/><text style="font-family:Noto Sans;font-size:13.2;font-style:italic;font-weight:400;stroke-linecap:square;stroke-linejoin:bevel" x="326.06635" y="123.5316">is_in_building</text><path d="m449.96 21.988c0-6.6274 5.3726-12 12-12h269.61c6.628 0 12 5.3726 12 12v166.52c0 6.627-5.372 12-12 12h-269.61c-6.6274 0-12-5.373-12-12z" fill="url(#k)"/><g stroke-linecap="square" stroke-linejoin="bevel"><path d="m441.96 27.988h292.61v94.4h-292.61z" fill="url(#l)" stroke="#d7d7d7"/><path d="m441.96 122.39h292.61v49.2h-292.61z" fill="url(#m)" stroke="#d7d7d7"/><path d="m452.65 35.028-2.6889 2.6889v6.7222l2.6889 2.6889 1.3444-1.3444v-2.6889h1.3444l1.3444 1.3444 2.6889-2.6889 2.6889 2.6889v-5.3778h-8.0667v-2.6889z" fill="url(#n)" stroke="#897416" stroke-width="1.15"/><g font-family="Noto Sans" font-size="14.667" font-style="italic"><text fill="#2b7dba" font-weight="700" x="467.21432" y="46.819298">building_number</text><text fill="#4964a6" font-weight="700" x="587.63635" xml:space="preserve" y="46.819298"> varchar(4)</text><text fill="#25682d" font-weight="400" x="677.34332" y="46.819298">« pk fk »</text></g><path d="m452.65 57.628-2.6889 2.6889v6.7222l2.6889 2.6889 1.3444-1.3444v-2.6889h1.3444l1.3444 1.3444 2.6889-2.6889 2.6889 2.6889v-5.3778h-8.0667v-2.6889z" fill="url(#o)" stroke="#897416" stroke-width="1.15"/><g font-family="Noto Sans" font-size="14.667" font-style="italic"><text fill="#2b7dba" font-weight="700" x="467.21432" y="69.419296">room_number</text><text fill="#4964a6" font-weight="700" x="587.63635" xml:space="preserve" y="69.419296"> varchar(4)</text><text fill="#25682d" font-weight="400" x="693.42133" y="69.419296">« pk »</text></g><circle cx="455.46" cy="86.313" fill="url(#p)" r="5.5" stroke="#5a9ee4" stroke-width="1.15"/><g font-family="Noto Sans" font-size="14.667" font-style="italic"><text font-weight="400" x="466.11435" y="92.019302">room_name</text><text fill="#4964a6" font-weight="700" x="587.63635" xml:space="preserve" y="92.019302"> varchar(100)</text><text fill="#25682d" font-weight="400" x="692.17133" y="92.019302">« nn »</text></g><circle cx="455.46" cy="108.91" fill="url(#q)" r="5.5" stroke="#5a9ee4" stroke-width="1.15"/><g font-family="Noto Sans" font-size="14.667" font-style="italic"><text font-weight="400" x="466.11435" y="114.6193">capacity</text><text fill="#4964a6" font-weight="700" x="587.63635" xml:space="preserve" y="114.6193"> integer</text><text fill="#25682d" font-weight="400" x="692.17133" y="114.6193">« nn »</text></g><path d="m456.69 129.34-6.7222 6.7222 5.3778 5.3778h6.7222v-6.7222z" fill="url(#r)" stroke="#4c4c98" stroke-width="1.15"/><g font-family="Noto Sans" font-size="14.667" font-style="italic"><text fill="#082061" font-weight="400" x="467.04633" y="141.2193">room_pk</text><text fill="#4964a6" font-weight="700" x="587.63635" xml:space="preserve" y="141.2193"> constraint</text><text fill="#25682d" font-weight="400" x="693.42133" y="141.2193">« pk »</text></g><path d="m456.69 151.94-6.7222 6.7222 5.3778 5.3778h6.7222v-6.7222z" fill="url(#s)" stroke="#4c4c98" stroke-width="1.15"/><g font-family="Noto Sans" font-size="14.667" font-style="italic"><text fill="#082061" font-weight="400" x="467.04633" y="163.81931">building_fk</text><text fill="#4964a6" font-weight="700" x="587.63635" xml:space="preserve" y="163.81931"> constraint</text><text fill="#25682d" font-weight="400" x="697.32733" y="163.81931">« fk »</text></g><path d="m441.96434 171.588h292.613v7.924l-.182 2.0838-.541 2.0204-.884 1.8958-1.2 1.7135-1.479 1.479-1.714 1.1998-1.895.884-2.021.5414-2.084.1823h-268.613l-2.08378-.1823-2.02046-.5414-1.89576-.884-1.71345-1.1998-1.47908-1.479-1.19977-1.7135-.88401-1.8958-.54138-2.0204-.18231-2.0838z" fill="url(#t)" stroke="#d7d7d7"/><g stroke="#bebebe"><path d="m601.77 176.56h11l-5.5 8.8z" fill="url(#u)" opacity=".4"/><path d="m585.75 176.56-5.5 8.8h11z" fill="url(#v)"/><path d="m562.79 176.62 4.4 4.4-4.4 4.4-4.4-4.4z" fill="url(#w)"/></g><path d="m441.96 13.988.18231-2.0838.54138-2.0205.88401-1.8958 1.1998-1.7134 1.4791-1.4791 1.7134-1.1998 1.8958-.88401 2.0205-.54138 2.0838-.18231h268.61l2.084.18231 2.021.54138 1.895.88401 1.714 1.1998 1.479 1.4791 1.2 1.7134.884 1.8958.541 2.0205.182 2.0838v14h-292.61z" fill="url(#x)" stroke="#3175b0"/><g font-family="Noto Sans" font-size="14.667"><text font-style="italic" font-weight="400" x="546.69836" y="19.321301">public.</text><text fill="#fff" font-weight="700" x="591.04236" y="19.321301">room</text></g></g><path d="m9.9643 21.988c0-6.6274 5.3726-12 12-12h269.61c6.628 0 12 5.3726 12 12v121.32c0 6.627-5.372 12-12 12h-269.61c-6.6274 0-12-5.373-12-12z" fill="url(#y)"/><g stroke-linecap="square" stroke-linejoin="bevel"><path d="m1.9643 27.988h292.61v71.8h-292.61z" fill="url(#z)" stroke="#d7d7d7"/><path d="m1.9643 99.788h292.61v26.6h-292.61z" fill="url(#A)" stroke="#d7d7d7"/><path d="m12.653 35.028-2.6889 2.6889v6.7222l2.6889 2.6889 1.3444-1.3444v-2.6889h1.3444l1.3444 1.3444 2.6889-2.6889 2.6889 2.6889v-5.3778h-8.0667v-2.6889z" fill="url(#B)" stroke="#897416" stroke-width="1.15"/><g font-family="Noto Sans" font-size="14.667" font-style="italic"><text fill="#2b7dba" font-weight="700" x="27.214338" y="46.819298">building_number</text><text fill="#4964a6" font-weight="700" x="147.63634" xml:space="preserve" y="46.819298"> varchar(4)</text><text fill="#25682d" font-weight="400" x="253.42134" y="46.819298">« pk »</text></g><circle cx="15.464" cy="63.713" fill="url(#C)" r="5.5" stroke="#5a9ee4" stroke-width="1.15"/><g font-family="Noto Sans" font-size="14.667" font-style="italic"><text font-weight="400" x="26.114338" y="69.419296">building_name</text><text fill="#4964a6" font-weight="700" x="147.63634" xml:space="preserve" y="69.419296"> varchar(100)</text><text fill="#25682d" font-weight="400" x="252.17134" y="69.419296">« nn »</text></g><circle cx="15.464" cy="86.313" fill="url(#D)" r="5.5" stroke="#5a9ee4" stroke-width="1.15"/><g font-family="Noto Sans" font-size="14.667" font-style="italic"><text font-weight="400" x="26.114338" y="92.019302">address</text><text fill="#4964a6" font-weight="700" x="147.63634" xml:space="preserve" y="92.019302"> varchar(100)</text><text fill="#25682d" font-weight="400" x="252.17134" y="92.019302">« nn »</text></g><path d="m16.687 106.74-6.7222 6.7222 5.3778 5.3778h6.7222v-6.7222z" fill="url(#E)" stroke="#4c4c98" stroke-width="1.15"/><g font-family="Noto Sans" font-size="14.667" font-style="italic"><text fill="#082061" font-weight="400" x="27.045938" y="118.6193">building_pk</text><text fill="#4964a6" font-weight="700" x="147.63634" xml:space="preserve" y="118.6193"> constraint</text><text fill="#25682d" font-weight="400" x="253.42134" y="118.6193">« pk »</text></g><path d="m1.9643 126.39h292.61v7.924l-.182 2.0838-.541 2.0204-.884 1.8958-1.2 1.7135-1.479 1.479-1.714 1.1998-1.895.884-2.021.5414-2.084.1823h-268.61l-2.0838-.1823-2.0205-.5414-1.8958-.884-1.7134-1.1998-1.4791-1.479-1.1998-1.7135-.88401-1.8958-.54138-2.0204-.18231-2.0838z" fill="url(#F)" stroke="#d7d7d7"/><g stroke="#bebebe"><path d="m161.77 131.36h11l-5.5 8.8z" fill="url(#G)" opacity=".4"/><path d="m145.75 131.36-5.5 8.8h11z" fill="url(#H)"/><path d="m122.79 131.42 4.4 4.4-4.4 4.4-4.4-4.4z" fill="url(#I)"/></g><path d="m1.9643 13.988.18231-2.0838.54138-2.0205.88401-1.8958 1.1998-1.7134 1.4791-1.4791 1.7134-1.1998 1.8958-.88401 2.0205-.54138 2.0838-.18231h268.61l2.084.18231 2.021.54138 1.895.88401 1.714 1.1998 1.479 1.4791 1.2 1.7134.884 1.8958.541 2.0205.182 2.0838v14h-292.61z" fill="url(#J)" stroke="#3175b0"/><g font-family="Noto Sans" font-size="14.667"><text font-style="italic" font-weight="400" x="95.683144" y="19.321301">public.</text><text fill="#fff" font-weight="700" x="140.02734" y="19.321301">building</text></g></g></g></svg>