<svg height="48pt" viewBox="0 0 65 48" width="65pt" xmlns="http://www.w3.org/2000/svg"><g transform="translate(-30.319 -48.403)"><g fill="none" stroke-linecap="round" stroke-width=".70556"><ellipse cx="-84.668" cy="72.403" rx="8.8394" ry="22.365" stroke="#b5161e" stroke-linejoin="round" transform="scale(-1 1)"/><ellipse cx="-40.97" cy="72.403" rx="8.8394" ry="22.365" stroke="#ee7105" stroke-linejoin="round" transform="scale(-1 1)"/><g stroke="#000" stroke-linejoin="bevel"><path d="m84.668 55.949-43.698 1.4337"/><path d="m84.668 64.176-43.698-6.7931"/><path d="m84.668 80.63-43.698 6.7931"/><path d="m40.97 77.41 43.698-5.0066"/><path d="m40.97 77.41 43.698-12.528"/><path d="m40.97 87.423 43.698-15.02"/></g></g><g transform="scale(-1 1)"><g fill="#ee7105"><circle cx="-40.97" cy="57.383" r="2.3156"/><circle cx="-40.97" cy="67.396" r="2.3156"/><circle cx="-40.97" cy="77.41" r="2.3156"/><circle cx="-40.97" cy="87.423" r="2.3156"/></g><g fill="#b5161e"><circle cx="-84.668" cy="55.949" r="2.3156"/><circle cx="-84.668" cy="64.176" r="2.3156"/><circle cx="-84.668" cy="72.403" r="2.3156"/><circle cx="-84.668" cy="80.63" r="2.3156"/><circle cx="-84.668" cy="88.857" r="2.3156"/></g></g></g></svg>