<svg height="434pt" viewBox="0 0 1067 434" width="1067pt" xmlns="http://www.w3.org/2000/svg" xmlns:xlink="http://www.w3.org/1999/xlink"><linearGradient id="a" x2="0" y2="1"><stop offset="0" stop-color="#dcdcdc"/><stop offset="1" stop-color="#dcdcdc"/></linearGradient><linearGradient id="b" x2="0" y2="1"><stop offset="0" stop-color="#a9a9a9" stop-opacity=".19608"/><stop offset="1" stop-color="#a9a9a9" stop-opacity=".19608"/></linearGradient><linearGradient id="c" x2="0" y2="1"><stop offset="0" stop-color="#eeffe0"/><stop offset="1" stop-color="#eeffe0"/></linearGradient><linearGradient id="d" x2="0" y2="1"><stop offset="0" stop-color="#fcfcfc"/><stop offset="1" stop-color="#fcfcfc"/></linearGradient><linearGradient id="e" x2="0" y2="1"><stop offset="0" stop-color="#ffff80"/><stop offset="1" stop-color="#ffff80"/></linearGradient><linearGradient id="f" x2="0" y2="1"><stop offset="0" stop-color="#d2e9ff"/><stop offset="1" stop-color="#d2e9ff"/></linearGradient><linearGradient id="g" x2="0" y2="1"><stop offset="0" stop-color="#c5cbff"/><stop offset="1" stop-color="#c5cbff"/></linearGradient><linearGradient id="h" x2="0" y2="1"><stop offset="0" stop-color="#f3f3f3"/><stop offset="1" stop-color="#e1e1e1"/></linearGradient><linearGradient id="i" x2="0" y2="1"><stop offset="0" stop-color="#4aa5ff"/><stop offset="1" stop-color="#4aa5ff"/></linearGradient><linearGradient id="j" x2="0" y2="1"><stop offset="0" stop-color="#ff8769"/><stop offset="1" stop-color="#ff8769"/></linearGradient><linearGradient id="k" gradientTransform="matrix(.99946 0 0 1.0005 707.78 105.04)" gradientUnits="userSpaceOnUse" x1="-.75034" x2="-.75034" xlink:href="#a" y1="-.78024" y2="18.89"/><linearGradient id="l" gradientTransform="matrix(1.3772 0 0 .72614 731.53 142.04)" gradientUnits="userSpaceOnUse" x2="0" xlink:href="#b" y2="39.937"/><linearGradient id="m" gradientTransform="matrix(1.3663 0 0 .73193 723.53 134.04)" gradientUnits="userSpaceOnUse" x1="-.36596" x2="-.36596" xlink:href="#c" y1="-.68313" y2="40.305"/><linearGradient id="n" gradientTransform="matrix(.99946 0 0 1.0005 234.01 -553.53)" gradientUnits="userSpaceOnUse" x1="-.75034" x2="-.75034" xlink:href="#a" y1="-.78024" y2="18.89"/><linearGradient id="o" gradientTransform="matrix(1.3896 0 0 .71962 569.7 249.89)" gradientUnits="userSpaceOnUse" x2="0" xlink:href="#b" y2="40.299"/><linearGradient id="p" gradientTransform="matrix(1.3784 0 0 .72548 561.7 241.89)" gradientUnits="userSpaceOnUse" x1="-.36274" x2="-.36274" xlink:href="#c" y1="-.6892" y2="40.663"/><linearGradient id="q" gradientTransform="matrix(.99946 0 0 1.0005 188.81 -150.07)" gradientUnits="userSpaceOnUse" x1="-.75034" x2="-.75034" xlink:href="#a" y1="-.78024" y2="18.89"/><linearGradient id="r" gradientTransform="matrix(1.1447 0 0 .87359 80.56 239.89)" gradientUnits="userSpaceOnUse" x2="0" xlink:href="#b" y2="33.196"/><linearGradient id="s" gradientTransform="matrix(1.1402 0 0 .87706 72.56 231.89)" gradientUnits="userSpaceOnUse" x1="-.43853" x2="-.43853" xlink:href="#c" y1="-.57009" y2="33.635"/><linearGradient id="t" gradientTransform="matrix(.99946 0 0 1.0005 295.95 84.581)" gradientUnits="userSpaceOnUse" x1="-.75034" x2="-.75034" xlink:href="#a" y1="-.78024" y2="18.89"/><linearGradient id="u" gradientTransform="matrix(1.3131 0 0 .76158 319.59 129.98)" gradientUnits="userSpaceOnUse" x2="0" xlink:href="#b" y2="38.079"/><linearGradient id="v" gradientTransform="matrix(1.3038 0 0 .76696 311.59 121.98)" gradientUnits="userSpaceOnUse" x1="-.38348" x2="-.38348" xlink:href="#c" y1="-.65192" y2="38.463"/><linearGradient id="w" gradientTransform="matrix(1.4193 0 0 .70455 29.701 309.89)" gradientUnits="userSpaceOnUse" x2="0" xlink:href="#b" y2="174.19"/><linearGradient id="x" gradientTransform="matrix(2.2192 0 0 .45061 21.701 327.89)" gradientUnits="userSpaceOnUse" x1="-.2253" x2="-.2253" xlink:href="#d" y1="-1.1096" y2="110.3"/><linearGradient id="y" gradientTransform="matrix(2.993 0 0 .33412 21.701 377.09)" gradientUnits="userSpaceOnUse" x1="-.16706" x2="-.16706" xlink:href="#d" y1="-1.4965" y2="81.109"/><linearGradient id="z" gradientTransform="matrix(.99738 0 0 1.0026 29.701 334.93)" gradientUnits="userSpaceOnUse" x1="-.57651" x2="-.57651" xlink:href="#e" y1="-.81104" y2="12.474"/><linearGradient id="A" gradientUnits="userSpaceOnUse" x1="29.126" x2="29.126" xlink:href="#f" y1="357.54" y2="369.69"/><linearGradient id="B" gradientTransform="matrix(.98481 0 0 1.0154 29.701 384.04)" gradientUnits="userSpaceOnUse" x1="-.41286" x2="-.41286" xlink:href="#g" y1="-.80082" y2="12.483"/><linearGradient id="C" gradientTransform="matrix(3.4374 0 0 .29092 21.701 403.69)" gradientUnits="userSpaceOnUse" x1="-.14546" x2="-.14546" xlink:href="#d" y1="-1.7187" y2="70.206"/><linearGradient id="D" gradientTransform="matrix(1.1144 0 0 .89736 158.32 408.66)" gradientUnits="userSpaceOnUse" x1="-.61828" x2="-.61828" xlink:href="#h" y1="-.76781" y2="10.102"/><linearGradient id="E" gradientTransform="matrix(1.0891 0 0 .9182 136.79 408.66)" gradientUnits="userSpaceOnUse" x1="-.38932" x2="-.38932" xlink:href="#h" y1="-.75038" y2="10.128"/><linearGradient id="F" gradientTransform="matrix(.98191 0 0 1.0184 114.93 408.72)" gradientUnits="userSpaceOnUse" x1="-.36007" x2="-.36007" xlink:href="#h" y1="-.69431" y2="8.988"/><linearGradient id="G" gradientTransform="matrix(3.0263 0 0 .33044 21.701 301.89)" gradientUnits="userSpaceOnUse" x1="-.17899" x2="-.17899" xlink:href="#i" y1="-1.5131" y2="80.196"/><linearGradient id="H" gradientTransform="matrix(1.4447 0 0 .69219 809.7 69.888)" gradientUnits="userSpaceOnUse" x2="0" xlink:href="#b" y2="177.3"/><linearGradient id="I" gradientTransform="matrix(2.2588 0 0 .4427 801.7 87.888)" gradientUnits="userSpaceOnUse" x1="-.22135" x2="-.22135" xlink:href="#d" y1="-1.1294" y2="112.26"/><linearGradient id="J" gradientTransform="matrix(3.0464 0 0 .32826 801.7 137.09)" gradientUnits="userSpaceOnUse" x1="-.16413" x2="-.16413" xlink:href="#d" y1="-1.5232" y2="82.557"/><linearGradient id="K" gradientTransform="matrix(.99738 0 0 1.0026 809.7 94.928)" gradientUnits="userSpaceOnUse" x1="-.57651" x2="-.57651" xlink:href="#e" y1="-.81104" y2="12.474"/><linearGradient id="L" gradientUnits="userSpaceOnUse" x1="809.13" x2="809.13" xlink:href="#f" y1="117.54" y2="129.69"/><linearGradient id="M" gradientTransform="matrix(.98481 0 0 1.0154 809.7 144.04)" gradientUnits="userSpaceOnUse" x1="-.41286" x2="-.41286" xlink:href="#g" y1="-.80082" y2="12.483"/><linearGradient id="N" gradientTransform="matrix(3.4988 0 0 .28581 801.7 163.69)" gradientUnits="userSpaceOnUse" x1="-.14291" x2="-.14291" xlink:href="#d" y1="-1.7494" y2="71.459"/><linearGradient id="O" gradientTransform="matrix(1.1144 0 0 .89736 942.77 168.66)" gradientUnits="userSpaceOnUse" x1="-.61828" x2="-.61828" xlink:href="#h" y1="-.76781" y2="10.102"/><linearGradient id="P" gradientTransform="matrix(1.0891 0 0 .9182 921.25 168.66)" gradientUnits="userSpaceOnUse" x1="-.38932" x2="-.38932" xlink:href="#h" y1="-.75038" y2="10.128"/><linearGradient id="Q" gradientTransform="matrix(.98191 0 0 1.0184 899.38 168.72)" gradientUnits="userSpaceOnUse" x1="-.36007" x2="-.36007" xlink:href="#h" y1="-.69431" y2="8.988"/><linearGradient id="R" gradientTransform="matrix(3.0803 0 0 .32464 801.7 61.888)" gradientUnits="userSpaceOnUse" x1="-.17585" x2="-.17585" xlink:href="#i" y1="-1.5401" y2="81.628"/><linearGradient id="S" gradientTransform="matrix(1.4101 0 0 .70918 429.7 309.89)" gradientUnits="userSpaceOnUse" x2="0" xlink:href="#b" y2="173.05"/><linearGradient id="T" gradientTransform="matrix(2.2047 0 0 .45357 421.7 327.89)" gradientUnits="userSpaceOnUse" x1="-.22678" x2="-.22678" xlink:href="#d" y1="-1.1024" y2="109.58"/><linearGradient id="U" gradientTransform="matrix(2.9734 0 0 .33632 421.7 377.09)" gradientUnits="userSpaceOnUse" x1="-.16816" x2="-.16816" xlink:href="#d" y1="-1.4867" y2="80.579"/><linearGradient id="V" gradientTransform="matrix(.99738 0 0 1.0026 429.7 334.93)" gradientUnits="userSpaceOnUse" x1="-.57651" x2="-.57651" xlink:href="#e" y1="-.81104" y2="12.474"/><linearGradient id="W" gradientUnits="userSpaceOnUse" x1="429.13" x2="429.13" xlink:href="#f" y1="357.54" y2="369.69"/><linearGradient id="X" gradientTransform="matrix(.98481 0 0 1.0154 429.7 384.04)" gradientUnits="userSpaceOnUse" x1="-.41286" x2="-.41286" xlink:href="#g" y1="-.80082" y2="12.483"/><linearGradient id="Y" gradientTransform="matrix(3.415 0 0 .29283 421.7 403.69)" gradientUnits="userSpaceOnUse" x1="-.14642" x2="-.14642" xlink:href="#d" y1="-1.7075" y2="69.747"/><linearGradient id="Z" gradientTransform="matrix(1.1144 0 0 .89736 556.71 408.66)" gradientUnits="userSpaceOnUse" x1="-.61828" x2="-.61828" xlink:href="#h" y1="-.76781" y2="10.102"/><linearGradient id="aa" gradientTransform="matrix(1.0891 0 0 .9182 535.18 408.66)" gradientUnits="userSpaceOnUse" x1="-.38932" x2="-.38932" xlink:href="#h" y1="-.75038" y2="10.128"/><linearGradient id="ab" gradientTransform="matrix(.98191 0 0 1.0184 513.32 408.72)" gradientUnits="userSpaceOnUse" x1="-.36007" x2="-.36007" xlink:href="#h" y1="-.69431" y2="8.988"/><linearGradient id="ac" gradientTransform="matrix(3.0065 0 0 .33261 421.7 301.89)" gradientUnits="userSpaceOnUse" x1="-.18017" x2="-.18017" xlink:href="#i" y1="-1.5033" y2="79.673"/><linearGradient id="ad" gradientTransform="matrix(1.1606 0 0 .86162 409.7 9.888)" gradientUnits="userSpaceOnUse" x2="0" xlink:href="#b" y2="247.35"/><linearGradient id="ae" gradientTransform="matrix(1.7347 0 0 .57647 401.7 27.888)" gradientUnits="userSpaceOnUse" x1="-.28823" x2="-.28823" xlink:href="#d" y1="-.86735" y2="164.62"/><linearGradient id="af" gradientTransform="matrix(1.9858 0 0 .50358 401.7 122.29)" gradientUnits="userSpaceOnUse" x1="-.25179" x2="-.25179" xlink:href="#d" y1="-.9929" y2="143.57"/><linearGradient id="ag" gradientTransform="matrix(.99738 0 0 1.0026 409.7 34.928)" gradientUnits="userSpaceOnUse" x1="-.57651" x2="-.57651" xlink:href="#e" y1="-.81104" y2="12.474"/><linearGradient id="ah" gradientUnits="userSpaceOnUse" x1="409.13" x2="409.13" xlink:href="#j" y1="56.988" y2="70.238"/><linearGradient id="ai" gradientUnits="userSpaceOnUse" x1="409.13" x2="409.13" xlink:href="#j" y1="79.588" y2="92.838"/><linearGradient id="aj" gradientUnits="userSpaceOnUse" x1="409.13" x2="409.13" xlink:href="#f" y1="102.74" y2="114.89"/><linearGradient id="ak" gradientTransform="matrix(.98481 0 0 1.0154 409.7 129.24)" gradientUnits="userSpaceOnUse" x1="-.41286" x2="-.41286" xlink:href="#g" y1="-.80082" y2="12.483"/><linearGradient id="al" gradientTransform="matrix(.98481 0 0 1.0154 409.7 151.84)" gradientUnits="userSpaceOnUse" x1="-.41286" x2="-.41286" xlink:href="#g" y1="-.80082" y2="12.483"/><linearGradient id="am" gradientTransform="matrix(.98481 0 0 1.0154 409.7 174.44)" gradientUnits="userSpaceOnUse" x1="-.41286" x2="-.41286" xlink:href="#g" y1="-.80082" y2="12.483"/><linearGradient id="an" gradientTransform="matrix(3.7041 0 0 .26997 401.7 194.09)" gradientUnits="userSpaceOnUse" x1="-.13499" x2="-.13499" xlink:href="#d" y1="-1.852" y2="75.652"/><linearGradient id="ao" gradientTransform="matrix(1.1144 0 0 .89736 558.24 199.06)" gradientUnits="userSpaceOnUse" x1="-.61828" x2="-.61828" xlink:href="#h" y1="-.76781" y2="10.102"/><linearGradient id="ap" gradientTransform="matrix(1.0891 0 0 .9182 536.71 199.06)" gradientUnits="userSpaceOnUse" x1="-.38932" x2="-.38932" xlink:href="#h" y1="-.75038" y2="10.128"/><linearGradient id="aq" gradientTransform="matrix(.98191 0 0 1.0184 514.85 199.12)" gradientUnits="userSpaceOnUse" x1="-.36007" x2="-.36007" xlink:href="#h" y1="-.69431" y2="8.988"/><linearGradient id="ar" gradientTransform="matrix(3.261 0 0 .30666 401.7 1.888)" gradientUnits="userSpaceOnUse" x1="-.16611" x2="-.16611" xlink:href="#i" y1="-1.6305" y2="86.416"/><linearGradient id="as" gradientTransform="matrix(1.2803 0 0 .78107 9.7008 9.888)" gradientUnits="userSpaceOnUse" x2="0" xlink:href="#b" y2="214.99"/><linearGradient id="at" gradientTransform="matrix(2.3416 0 0 .42706 1.7008 27.888)" gradientUnits="userSpaceOnUse" x1="-.21353" x2="-.21353" xlink:href="#d" y1="-1.1708" y2="116.38"/><linearGradient id="au" gradientTransform="matrix(1.9445 0 0 .51428 1.7008 77.088)" gradientUnits="userSpaceOnUse" x1="-.25714" x2="-.25714" xlink:href="#d" y1="-.97223" y2="140.58"/><linearGradient id="av" gradientTransform="matrix(.99738 0 0 1.0026 9.7008 34.928)" gradientUnits="userSpaceOnUse" x1="-.57651" x2="-.57651" xlink:href="#e" y1="-.81104" y2="12.474"/><linearGradient id="aw" gradientTransform="matrix(.99738 0 0 1.0026 9.7008 57.528)" gradientUnits="userSpaceOnUse" x1="-.57651" x2="-.57651" xlink:href="#e" y1="-.81104" y2="12.474"/><linearGradient id="ax" gradientTransform="matrix(.98481 0 0 1.0154 9.7008 84.044)" gradientUnits="userSpaceOnUse" x1="-.41286" x2="-.41286" xlink:href="#g" y1="-.80082" y2="12.483"/><linearGradient id="ay" gradientTransform="matrix(.98481 0 0 1.0154 9.7008 106.64)" gradientUnits="userSpaceOnUse" x1="-.41286" x2="-.41286" xlink:href="#g" y1="-.80082" y2="12.483"/><linearGradient id="az" gradientTransform="matrix(.98481 0 0 1.0154 9.7008 129.24)" gradientUnits="userSpaceOnUse" x1="-.41286" x2="-.41286" xlink:href="#g" y1="-.80082" y2="12.483"/><linearGradient id="aA" gradientTransform="matrix(3.6269 0 0 .27571 1.7008 148.89)" gradientUnits="userSpaceOnUse" x1="-.13786" x2="-.13786" xlink:href="#d" y1="-1.8135" y2="74.077"/><linearGradient id="aB" gradientTransform="matrix(1.1144 0 0 .89736 152.32 153.86)" gradientUnits="userSpaceOnUse" x1="-.61828" x2="-.61828" xlink:href="#h" y1="-.76781" y2="10.102"/><linearGradient id="aC" gradientTransform="matrix(1.0891 0 0 .9182 130.8 153.86)" gradientUnits="userSpaceOnUse" x1="-.38932" x2="-.38932" xlink:href="#h" y1="-.75038" y2="10.128"/><linearGradient id="aD" gradientTransform="matrix(.98191 0 0 1.0184 108.94 153.92)" gradientUnits="userSpaceOnUse" x1="-.36007" x2="-.36007" xlink:href="#h" y1="-.69431" y2="8.988"/><linearGradient id="aE" gradientTransform="matrix(3.1931 0 0 .31317 1.7008 1.888)" gradientUnits="userSpaceOnUse" x1="-.16964" x2="-.16964" xlink:href="#i" y1="-1.5966" y2="84.618"/><g stroke="#606060" stroke-linecap="square" stroke-linejoin="bevel" stroke-width="1.5"><g fill="none"><path d="m688.78 113.98h33"/><path d="m721.78 113.98c28.961 0 28.961 4.346 57.922 4.346"/><path d="m779.7 118.32h22"/><g transform="translate(688.78 113.98)"><path d="m18 0-18-11"/><path d="m18 0-18 11"/></g></g><circle cx="716.85" cy="114.12" fill="url(#k)" fill-rule="evenodd" r="9.075" stroke-dasharray="6 3"/><g fill="none"><path d="m0-8.8v17.6" transform="translate(791.7 118.32)"/><path d="m0-8.8v17.6" transform="translate(783.7 118.32)"/></g></g><path d="m731.53 142.04h55v29h-55z" fill="url(#l)" fill-rule="evenodd"/><g stroke-linecap="square" stroke-linejoin="bevel"><path d="m723.53 134.04h55v29h-55z" fill="url(#m)" fill-rule="evenodd" stroke="#a4b09b"/><text fill-rule="evenodd" font-family="'Noto Sans'" font-size="13.2" font-style="italic" font-weight="400" x="730.53485" y="153.7296">teaches</text><g stroke="#606060" stroke-width="1.5"><g fill="none"><path d="m544.6 215.01v33"/><path d="m544.08 279.89c0-15.938.522-15.938.522-31.876"/><path d="m544.08 279.89v22"/><g transform="matrix(0 1 -1 0 544.6 215.01)"><path d="m18 0-18-11"/><path d="m18 0-18 11"/></g></g><circle cx="243.09" cy="-544.46002" fill="url(#n)" fill-rule="evenodd" r="9.075" stroke-dasharray="6 3" transform="rotate(90)"/><g fill="none"><path d="m0-8.8v17.6" transform="matrix(0 1 -1 0 544.08 291.89)"/><path d="m0-8.8v17.6" transform="matrix(0 1 -1 0 544.08 283.89)"/></g></g></g><path d="m569.7 249.89h56v29h-56z" fill="url(#o)" fill-rule="evenodd"/><path d="m561.7 241.89h56v29h-56z" fill="url(#p)" fill-rule="evenodd" stroke="#a4b09b" stroke-linecap="square" stroke-linejoin="bevel"/><g stroke="#606060" stroke-linecap="square" stroke-linejoin="bevel" stroke-width="1.5"><g fill="none"><path d="m141.14 169.81v33"/><path d="m143.99 279.89c0-38.538-2.853-38.538-2.853-77.076"/><path d="m143.99 279.89v22"/><g transform="matrix(0 1 -1 0 141.14 169.81)"><path d="m18 0-18-11"/><path d="m18 0-18 11"/></g></g><circle cx="197.89" cy="-141" fill="url(#q)" fill-rule="evenodd" r="9.075" stroke-dasharray="6 3" transform="rotate(90)"/><g fill="none"><path d="m0-8.8v17.6" transform="matrix(0 1 -1 0 143.99 291.89)"/><path d="m0-8.8v17.6" transform="matrix(0 1 -1 0 143.99 283.89)"/></g></g><path d="m80.56 239.89h38v29h-38z" fill="url(#r)" fill-rule="evenodd"/><g stroke-linecap="square" stroke-linejoin="bevel"><path d="m72.56 231.89h38v29h-38z" fill="url(#s)" fill-rule="evenodd" stroke="#a4b09b"/><text fill-rule="evenodd" font-family="Noto Sans" font-size="13.2" font-style="italic" font-weight="400" x="79.559837" y="251.5786">joins</text><g stroke="#606060" stroke-width="1.5"><g fill="none"><path d="m276.95 93.513h33"/><path d="m309.95 93.513c34.875 0 34.875 6.945 69.75 6.945"/><path d="m379.7 100.46h22"/><g transform="translate(276.95 93.513)"><path d="m18 0-18-11"/><path d="m18 0-18 11"/></g></g><circle cx="305.03" cy="93.656" fill="url(#t)" fill-rule="evenodd" r="9.075" stroke-dasharray="6 3"/><g fill="none"><path d="m0-8.8v17.6" transform="translate(391.7 100.46)"/><path d="m0-8.8v17.6" transform="translate(383.7 100.46)"/></g></g></g><g fill-rule="evenodd"><path d="m319.59 129.98h50v29h-50z" fill="url(#u)"/><path d="m311.59 121.98h50v29h-50z" fill="url(#v)" stroke="#a4b09b" stroke-linecap="square" stroke-linejoin="bevel"/><text style="font-family:Noto Sans;font-size:13.2;font-style:italic;font-weight:400;stroke-linecap:square;stroke-linejoin:bevel" x="318.58984" y="141.6656">course</text><path d="m29.701 321.89c0-6.6274 5.3726-12 12-12h223.23c6.627 0 12 5.3726 12 12v98.724c0 6.627-5.373 12-12 12h-223.23c-6.6274 0-12-5.373-12-12z" fill="url(#w)"/><g stroke-linecap="square" stroke-linejoin="bevel"><path d="m21.701 327.89h246.23v49.2h-246.23z" fill="url(#x)" stroke="#d7d7d7"/><path d="m21.701 377.09h246.23v26.6h-246.23z" fill="url(#y)" stroke="#d7d7d7"/><path d="m32.39 334.93-2.6889 2.6889v6.7222l2.6889 2.6889 1.3444-1.3444v-2.6889h1.3444l1.3444 1.3444 2.6889-2.6889 2.6889 2.6889v-5.3778h-8.0667v-2.6889z" fill="url(#z)" stroke="#897416" stroke-width="1.15"/><g font-family="Noto Sans" font-size="14.667" font-style="italic"><text fill="#2b7dba" font-weight="700" x="46.950836" y="346.7193">id</text><text fill="#4964a6" font-weight="700" x="84.647736" xml:space="preserve" y="346.7193"> integer</text><text fill="#25682d" font-weight="400" x="226.77884" y="346.7193">« pk »</text></g><circle cx="35.201" cy="363.61" fill="url(#A)" r="5.5" stroke="#5a9ee4" stroke-width="1.15"/><g font-family="Noto Sans" font-size="14.667" font-style="italic"><text font-weight="400" x="45.850838" y="369.31931">name</text><text fill="#4964a6" font-weight="700" x="84.647736" xml:space="preserve" y="369.31931"> varchar(255)</text><text fill="#25682d" font-weight="400" x="225.52884" y="369.31931">« nn »</text></g><path d="m36.423 384.04-6.7222 6.7222 5.3778 5.3778h6.7222v-6.7222z" fill="url(#B)" stroke="#4c4c98" stroke-width="1.15"/><g font-family="Noto Sans" font-size="14.667" font-style="italic"><text fill="#082061" font-weight="400" x="46.782436" y="395.91931">student_id_pk</text><text fill="#4964a6" font-weight="700" x="138.15784" xml:space="preserve" y="395.91931"> constraint</text><text fill="#25682d" font-weight="400" x="226.77884" y="395.91931">« pk »</text></g><path d="m21.701 403.69h246.23v7.924l-.182 2.0838-.542 2.0204-.884 1.8958-1.2 1.7135-1.479 1.479-1.713 1.1998-1.896.884-2.02.5414-2.084.1823h-222.23l-2.0838-.1823-2.0205-.5414-1.8958-.884-1.7134-1.1998-1.4791-1.479-1.1998-1.7135-.88401-1.8958-.54138-2.0204-.18231-2.0838z" fill="url(#C)" stroke="#d7d7d7"/><g stroke="#bebebe"><path d="m158.32 408.66h11l-5.5 8.8z" fill="url(#D)" opacity=".4"/><path d="m142.29 408.66-5.5 8.8h11z" fill="url(#E)"/><path d="m119.33 408.72 4.4 4.4-4.4 4.4-4.4-4.4z" fill="url(#F)"/></g><path d="m21.701 313.89.18231-2.0838.54138-2.0205.88401-1.8958 1.1998-1.7134 1.4791-1.4791 1.7134-1.1998 1.8958-.88401 2.0205-.54138 2.0838-.18231h222.23l2.084.18231 2.02.54138 1.896.88401 1.713 1.1998 1.479 1.4791 1.2 1.7134.884 1.8958.542 2.0205.182 2.0838v14h-246.23z" fill="url(#G)" stroke="#3175b0"/><g font-family="Noto Sans" font-size="14.667"><text font-style="italic" font-weight="400" x="93.888336" y="319.22131">public.</text><text fill="#fff" font-weight="700" x="138.23184" y="319.22131">student</text></g></g><path d="m809.7 81.888c0-6.6274 5.3726-12 12-12h232.14c6.628 0 12 5.3726 12 12v98.724c0 6.627-5.372 12-12 12h-232.14c-6.6274 0-12-5.373-12-12z" fill="url(#H)"/><g stroke-linecap="square" stroke-linejoin="bevel"><path d="m801.7 87.888h255.14v49.2h-255.14z" fill="url(#I)" stroke="#d7d7d7"/><path d="m801.7 137.09h255.14v26.6h-255.14z" fill="url(#J)" stroke="#d7d7d7"/><path d="m812.39 94.928-2.6889 2.6889v6.7222l2.6889 2.6889 1.3444-1.3444v-2.6889h1.3444l1.3444 1.3444 2.6889-2.6889 2.6889 2.6889v-5.3778h-8.0667v-2.6889z" fill="url(#K)" stroke="#897416" stroke-width="1.15"/><g font-family="Noto Sans" font-size="14.667" font-style="italic"><text fill="#2b7dba" font-weight="700" x="826.95087" y="106.7193">id</text><text fill="#4964a6" font-weight="700" x="864.64783" xml:space="preserve" y="106.7193"> integer</text><text fill="#25682d" font-weight="400" x="1015.6808" y="106.7193">« pk »</text></g><circle cx="815.2" cy="123.61" fill="url(#L)" r="5.5" stroke="#5a9ee4" stroke-width="1.15"/><g font-family="Noto Sans" font-size="14.667" font-style="italic"><text font-weight="400" x="825.85083" y="129.31931">name</text><text fill="#4964a6" font-weight="700" x="864.64783" xml:space="preserve" y="129.31931"> varchar(255)</text><text fill="#25682d" font-weight="400" x="1014.4308" y="129.31931">« nn »</text></g><path d="m816.42 144.04-6.7222 6.7222 5.3778 5.3778h6.7222v-6.7222z" fill="url(#M)" stroke="#4c4c98" stroke-width="1.15"/><g font-family="Noto Sans" font-size="14.667" font-style="italic"><text fill="#082061" font-weight="400" x="826.78284" y="155.9193">professor_id_pl</text><text fill="#4964a6" font-weight="700" x="927.06384" xml:space="preserve" y="155.9193"> constraint</text><text fill="#25682d" font-weight="400" x="1015.6808" y="155.9193">« pk »</text></g><path d="m801.7 163.69h255.14v7.924l-.182 2.0838-.542 2.0204-.884 1.8958-1.199 1.7135-1.479 1.479-1.714 1.1998-1.896.884-2.02.5414-2.084.1823h-231.14l-2.0838-.1823-2.0205-.5414-1.8958-.884-1.7134-1.1998-1.4791-1.479-1.1998-1.7135-.88401-1.8958-.54138-2.0204-.18231-2.0838z" fill="url(#N)" stroke="#d7d7d7"/><g stroke="#bebebe"><path d="m942.77 168.66h11l-5.5 8.8z" fill="url(#O)" opacity=".4"/><path d="m926.75 168.66-5.5 8.8h11z" fill="url(#P)"/><path d="m903.78 168.72 4.4 4.4-4.4 4.4-4.4-4.4z" fill="url(#Q)"/></g><path d="m801.7 73.888.18231-2.0838.54138-2.0205.88401-1.8958 1.1998-1.7134 1.4791-1.4791 1.7134-1.1998 1.8958-.88401 2.0205-.54138 2.0838-.18231h231.14l2.084.18231 2.02.54138 1.896.88401 1.714 1.1998 1.479 1.4791 1.199 1.7134.884 1.8958.542 2.0205.182 2.0838v14h-255.14z" fill="url(#R)" stroke="#3175b0"/><g font-family="Noto Sans" font-size="14.667"><text font-style="italic" font-weight="400" x="872.13837" y="79.221298">public.</text><text fill="#fff" font-weight="700" x="916.48181" y="79.221298">professor</text></g></g><path d="m429.7 321.89c0-6.6274 5.3726-12 12-12h220.02c6.628 0 12 5.3726 12 12v98.724c0 6.627-5.372 12-12 12h-220.02c-6.6274 0-12-5.373-12-12z" fill="url(#S)"/><g stroke-linecap="square" stroke-linejoin="bevel"><path d="m421.7 327.89h243.02v49.2h-243.02z" fill="url(#T)" stroke="#d7d7d7"/><path d="m421.7 377.09h243.02v26.6h-243.02z" fill="url(#U)" stroke="#d7d7d7"/><path d="m432.39 334.93-2.6889 2.6889v6.7222l2.6889 2.6889 1.3444-1.3444v-2.6889h1.3444l1.3444 1.3444 2.6889-2.6889 2.6889 2.6889v-5.3778h-8.0667v-2.6889z" fill="url(#V)" stroke="#897416" stroke-width="1.15"/><g font-family="Noto Sans" font-size="14.667" font-style="italic"><text fill="#2b7dba" font-weight="700" x="446.95084" y="346.7193">id</text><text fill="#4964a6" font-weight="700" x="471.99185" xml:space="preserve" y="346.7193"> integer</text><text fill="#25682d" font-weight="400" x="623.55981" y="346.7193">« pk »</text></g><circle cx="435.2" cy="363.61" fill="url(#W)" r="5.5" stroke="#5a9ee4" stroke-width="1.15"/><g font-family="Noto Sans" font-size="14.667" font-style="italic"><text font-weight="400" x="445.85083" y="369.31931">title</text><text fill="#4964a6" font-weight="700" x="471.99185" xml:space="preserve" y="369.31931"> varchar(255)</text><text fill="#25682d" font-weight="400" x="622.30981" y="369.31931">« nn »</text></g><path d="m436.42 384.04-6.7222 6.7222 5.3778 5.3778h6.7222v-6.7222z" fill="url(#X)" stroke="#4c4c98" stroke-width="1.15"/><g font-family="Noto Sans" font-size="14.667" font-style="italic"><text fill="#082061" font-weight="400" x="446.78284" y="395.91931">module_id_pl</text><text fill="#4964a6" font-weight="700" x="534.93884" xml:space="preserve" y="395.91931"> constraint</text><text fill="#25682d" font-weight="400" x="623.55981" y="395.91931">« pk »</text></g><path d="m421.70084 403.688h243.015v7.924l-.182 2.0838-.542 2.0204-.884 1.8958-1.199 1.7135-1.479 1.479-1.714 1.1998-1.896.884-2.02.5414-2.084.1823h-219.015l-2.08378-.1823-2.02046-.5414-1.89576-.884-1.71345-1.1998-1.47908-1.479-1.19977-1.7135-.88401-1.8958-.54138-2.0204-.18231-2.0838z" fill="url(#Y)" stroke="#d7d7d7"/><g stroke="#bebebe"><path d="m556.71 408.66h11l-5.5 8.8z" fill="url(#Z)" opacity=".4"/><path d="m540.68 408.66-5.5 8.8h11z" fill="url(#aa)"/><path d="m517.72 408.72 4.4 4.4-4.4 4.4-4.4-4.4z" fill="url(#ab)"/></g><path d="m421.7 313.89.18231-2.0838.54138-2.0205.88401-1.8958 1.1998-1.7134 1.4791-1.4791 1.7134-1.1998 1.8958-.88401 2.0205-.54138 2.0838-.18231h219.02l2.084.18231 2.02.54138 1.896.88401 1.714 1.1998 1.479 1.4791 1.199 1.7134.884 1.8958.542 2.0205.182 2.0838v14h-243.02z" fill="url(#ac)" stroke="#3175b0"/><g font-family="Noto Sans" font-size="14.667"><text font-style="italic" font-weight="400" x="493.15393" y="319.22131">public.</text><text fill="#fff" font-weight="700" x="537.49786" y="319.22131">module</text></g></g><path d="m409.7 21.888c0-6.6274 5.3726-12 12-12h263.08c6.627 0 12 5.3726 12 12v189.12c0 6.627-5.373 12-12 12h-263.08c-6.6274 0-12-5.373-12-12z" fill="url(#ad)"/><g stroke-linecap="square" stroke-linejoin="bevel"><path d="m401.7 27.888h286.08v94.4h-286.08z" fill="url(#ae)" stroke="#d7d7d7"/><path d="m401.7 122.29h286.08v71.8h-286.08z" fill="url(#af)" stroke="#d7d7d7"/><path d="m412.39 34.928-2.6889 2.6889v6.7222l2.6889 2.6889 1.3444-1.3444v-2.6889h1.3444l1.3444 1.3444 2.6889-2.6889 2.6889 2.6889v-5.3778h-8.0667v-2.6889z" fill="url(#ag)" stroke="#897416" stroke-width="1.15"/><g font-family="Noto Sans" font-size="14.667" font-style="italic"><text fill="#2b7dba" font-weight="700" x="426.95084" y="46.719299">id</text><text fill="#4964a6" font-weight="700" x="490.32584" xml:space="preserve" y="46.719299"> integer</text><text fill="#25682d" font-weight="400" x="646.62183" y="46.719299">« pk »</text></g><path d="m409.7 61.596v4.0333h5.3778v4.0333h1.3444l5.3778-5.3778v-1.3444l-5.3778-5.3778h-1.3444v4.0333z" fill="url(#ah)" stroke="#8f341b" stroke-width="1.15"/><g font-family="Noto Sans" font-size="14.667" font-style="italic"><text font-weight="400" x="426.95084" y="69.319298">professor</text><text fill="#4964a6" font-weight="700" x="490.32584" xml:space="preserve" y="69.319298"> integer</text><text fill="#25682d" font-weight="400" x="629.29382" y="69.319298">« fk nn »</text></g><path d="m409.7 84.196v4.0333h5.3778v4.0333h1.3444l5.3778-5.3778v-1.3444l-5.3778-5.3778h-1.3444v4.0333z" fill="url(#ai)" stroke="#8f341b" stroke-width="1.15"/><g font-family="Noto Sans" font-size="14.667" font-style="italic"><text font-weight="400" x="426.95084" y="91.919296">module</text><text fill="#4964a6" font-weight="700" x="490.32584" xml:space="preserve" y="91.919296"> integer</text><text fill="#25682d" font-weight="400" x="629.29382" y="91.919296">« fk nn »</text></g><circle cx="415.2" cy="108.81" fill="url(#aj)" r="5.5" stroke="#5a9ee4" stroke-width="1.15"/><g font-family="Noto Sans" font-size="14.667" font-style="italic"><text font-weight="400" x="425.85083" y="114.5193">semester</text><text fill="#4964a6" font-weight="700" x="490.32584" xml:space="preserve" y="114.5193"> integer</text><text fill="#25682d" font-weight="400" x="645.37183" y="114.5193">« nn »</text></g><path d="m416.42 129.24-6.7222 6.7222 5.3778 5.3778h6.7222v-6.7222z" fill="url(#ak)" stroke="#4c4c98" stroke-width="1.15"/><g font-family="Noto Sans" font-size="14.667" font-style="italic"><text fill="#082061" font-weight="400" x="426.78284" y="141.11929">course_id_pk</text><text fill="#4964a6" font-weight="700" x="558.00085" xml:space="preserve" y="141.11929"> constraint</text><text fill="#25682d" font-weight="400" x="646.62183" y="141.11929">« pk »</text></g><path d="m416.42 151.84-6.7222 6.7222 5.3778 5.3778h6.7222v-6.7222z" fill="url(#al)" stroke="#4c4c98" stroke-width="1.15"/><g font-family="Noto Sans" font-size="14.667" font-style="italic"><text fill="#082061" font-weight="400" x="426.78284" y="163.7193">course_professor_fk</text><text fill="#4964a6" font-weight="700" x="558.00085" xml:space="preserve" y="163.7193"> constraint</text><text fill="#25682d" font-weight="400" x="650.52887" y="163.7193">« fk »</text></g><path d="m416.42 174.44-6.7222 6.7222 5.3778 5.3778h6.7222v-6.7222z" fill="url(#am)" stroke="#4c4c98" stroke-width="1.15"/><g font-family="Noto Sans" font-size="14.667" font-style="italic"><text fill="#082061" font-weight="400" x="426.78284" y="186.31931">course_module_fk</text><text fill="#4964a6" font-weight="700" x="558.00085" xml:space="preserve" y="186.31931"> constraint</text><text fill="#25682d" font-weight="400" x="650.52887" y="186.31931">« fk »</text></g><path d="m401.70084 194.088h286.078v7.924l-.183 2.0838-.541 2.0204-.884 1.8958-1.2 1.7135-1.479 1.479-1.713 1.1998-1.896.884-2.021.5414-2.083.1823h-262.078l-2.08378-.1823-2.02046-.5414-1.89576-.884-1.71345-1.1998-1.47908-1.479-1.19977-1.7135-.88401-1.8958-.54138-2.0204-.18231-2.0838z" fill="url(#an)" stroke="#d7d7d7"/><g stroke="#bebebe"><path d="m558.24 199.06h11l-5.5 8.8z" fill="url(#ao)" opacity=".4"/><path d="m542.21 199.06-5.5 8.8h11z" fill="url(#ap)"/><path d="m519.25 199.12 4.4 4.4-4.4 4.4-4.4-4.4z" fill="url(#aq)"/></g><path d="m401.7 13.888.18231-2.0838.54138-2.0205.88401-1.8958 1.1998-1.7134 1.4791-1.4791 1.7134-1.1998 1.8958-.88401 2.0205-.54138 2.0838-.18231h262.08l2.083.18231 2.021.54138 1.896.88401 1.713 1.1998 1.479 1.4791 1.2 1.7134.884 1.8958.541 2.0205.183 2.0838v14h-286.08z" fill="url(#ar)" stroke="#3175b0"/><g font-family="Noto Sans" font-size="14.667"><text font-style="italic" font-weight="400" x="498.09143" y="19.2213">public.</text><text fill="#fff" font-weight="700" x="542.43481" y="19.2213">course</text></g></g><path d="m9.7008 21.888c0-6.6274 5.3726-12 12-12h251.25c6.627 0 12 5.3726 12 12v143.92c0 6.627-5.373 12-12 12h-251.25c-6.6274 0-12-5.373-12-12z" fill="url(#as)"/><g stroke-linecap="square" stroke-linejoin="bevel"><path d="m1.7008 27.888h274.25v49.2h-274.25z" fill="url(#at)" stroke="#d7d7d7"/><path d="m1.7008 77.088h274.25v71.8h-274.25z" fill="url(#au)" stroke="#d7d7d7"/><path d="m12.39 34.928-2.6889 2.6889v6.7222l2.6889 2.6889 1.3444-1.3444v-2.6889h1.3444l1.3444 1.3444 2.6889-2.6889 2.6889 2.6889v-5.3778h-8.0667v-2.6889z" fill="url(#av)" stroke="#897416" stroke-width="1.15"/><g font-family="Noto Sans" font-size="14.667" font-style="italic"><text fill="#2b7dba" font-weight="700" x="26.950838" y="46.719299">student</text><text fill="#4964a6" font-weight="700" x="82.66964" xml:space="preserve" y="46.719299"> integer</text><text fill="#25682d" font-weight="400" x="218.71584" y="46.719299">« pk fk »</text></g><path d="m12.39 57.528-2.6889 2.6889v6.7222l2.6889 2.6889 1.3444-1.3444v-2.6889h1.3444l1.3444 1.3444 2.6889-2.6889 2.6889 2.6889v-5.3778h-8.0667v-2.6889z" fill="url(#aw)" stroke="#897416" stroke-width="1.15"/><g font-family="Noto Sans" font-size="14.667" font-style="italic"><text fill="#2b7dba" font-weight="700" x="26.950838" y="69.319298">course</text><text fill="#4964a6" font-weight="700" x="82.66964" xml:space="preserve" y="69.319298"> integer</text><text fill="#25682d" font-weight="400" x="218.71584" y="69.319298">« pk fk »</text></g><path d="m16.423 84.044-6.7222 6.7222 5.3778 5.3778h6.7222v-6.7222z" fill="url(#ax)" stroke="#4c4c98" stroke-width="1.15"/><g font-family="Noto Sans" font-size="14.667" font-style="italic"><text fill="#082061" font-weight="400" x="26.782438" y="95.919296">enrolls_pk</text><text fill="#4964a6" font-weight="700" x="146.17284" xml:space="preserve" y="95.919296"> constraint</text><text fill="#25682d" font-weight="400" x="234.79384" y="95.919296">« pk »</text></g><path d="m16.423 106.64-6.7222 6.7222 5.3778 5.3778h6.7222v-6.7222z" fill="url(#ay)" stroke="#4c4c98" stroke-width="1.15"/><g font-family="Noto Sans" font-size="14.667" font-style="italic"><text fill="#082061" font-weight="400" x="26.782438" y="118.5193">enrolls_student_fk</text><text fill="#4964a6" font-weight="700" x="146.17284" xml:space="preserve" y="118.5193"> constraint</text><text fill="#25682d" font-weight="400" x="238.70084" y="118.5193">« fk »</text></g><path d="m16.423 129.24-6.7222 6.7222 5.3778 5.3778h6.7222v-6.7222z" fill="url(#az)" stroke="#4c4c98" stroke-width="1.15"/><g font-family="Noto Sans" font-size="14.667" font-style="italic"><text fill="#082061" font-weight="400" x="26.782438" y="141.11929">enrolls_course_fk</text><text fill="#4964a6" font-weight="700" x="146.17284" xml:space="preserve" y="141.11929"> constraint</text><text fill="#25682d" font-weight="400" x="238.70084" y="141.11929">« fk »</text></g><path d="m1.7008 148.89h274.25v7.924l-.183 2.0838-.541 2.0204-.884 1.8958-1.2 1.7135-1.479 1.479-1.713 1.1998-1.896.884-2.021.5414-2.083.1823h-250.25l-2.0838-.1823-2.0205-.5414-1.8958-.884-1.7134-1.1998-1.4791-1.479-1.1998-1.7135-.88401-1.8958-.54138-2.0204-.18231-2.0838z" fill="url(#aA)" stroke="#d7d7d7"/><g stroke="#bebebe"><path d="m152.32 153.86h11l-5.5 8.8z" fill="url(#aB)" opacity=".4"/><path d="m136.3 153.86-5.5 8.8h11z" fill="url(#aC)"/><path d="m113.34 153.92 4.4 4.4-4.4 4.4-4.4-4.4z" fill="url(#aD)"/></g><path d="m1.7008 13.888.18231-2.0838.54138-2.0205.88401-1.8958 1.1998-1.7134 1.4791-1.4791 1.7134-1.1998 1.8958-.88401 2.0205-.54138 2.0838-.18231h250.25l2.083.18231 2.021.54138 1.896.88401 1.713 1.1998 1.479 1.4791 1.2 1.7134.884 1.8958.541 2.0205.183 2.0838v14h-274.25z" fill="url(#aE)" stroke="#3175b0"/><g font-family="Noto Sans"><g font-size="14.667"><text font-style="italic" font-weight="400" x="91.60714" y="19.2213">public.</text><text fill="#fff" font-weight="700" x="135.95084" y="19.2213">enrolls</text></g><text font-size="13.2" font-style="italic" font-weight="400" x="567.58337" y="261.34">module</text></g></g></g></svg>