<svg height="434pt" viewBox="0 0 927 434" width="927pt" xmlns="http://www.w3.org/2000/svg" xmlns:xlink="http://www.w3.org/1999/xlink"><linearGradient id="a" x2="0" y2="1"><stop offset="0" stop-color="#dcdcdc"/><stop offset="1" stop-color="#dcdcdc"/></linearGradient><linearGradient id="b" x2="0" y2="1"><stop offset="0" stop-color="#a9a9a9" stop-opacity=".19608"/><stop offset="1" stop-color="#a9a9a9" stop-opacity=".19608"/></linearGradient><linearGradient id="c" x2="0" y2="1"><stop offset="0" stop-color="#eeffe0"/><stop offset="1" stop-color="#eeffe0"/></linearGradient><linearGradient id="d" x2="0" y2="1"><stop offset="0" stop-color="#fcfcfc"/><stop offset="1" stop-color="#fcfcfc"/></linearGradient><linearGradient id="e" x2="0" y2="1"><stop offset="0" stop-color="#ffff80"/><stop offset="1" stop-color="#ffff80"/></linearGradient><linearGradient id="f" x2="0" y2="1"><stop offset="0" stop-color="#d2e9ff"/><stop offset="1" stop-color="#d2e9ff"/></linearGradient><linearGradient id="g" x2="0" y2="1"><stop offset="0" stop-color="#c5cbff"/><stop offset="1" stop-color="#c5cbff"/></linearGradient><linearGradient id="h" x2="0" y2="1"><stop offset="0" stop-color="#f3f3f3"/><stop offset="1" stop-color="#e1e1e1"/></linearGradient><linearGradient id="i" x2="0" y2="1"><stop offset="0" stop-color="#4aa5ff"/><stop offset="1" stop-color="#4aa5ff"/></linearGradient><linearGradient id="j" x2="0" y2="1"><stop offset="0" stop-color="#ff8769"/><stop offset="1" stop-color="#ff8769"/></linearGradient><linearGradient id="k" gradientTransform="matrix(.99946 0 0 1.0005 687.89 85.225)" gradientUnits="userSpaceOnUse" x1="-.75034" x2="-.75034" xlink:href="#a" y1="-.78024" y2="18.89"/><linearGradient id="l" gradientTransform="matrix(1.3772 0 0 .72614 709.59 109.89)" gradientUnits="userSpaceOnUse" x2="0" xlink:href="#b" y2="39.937"/><linearGradient id="m" gradientTransform="matrix(1.3663 0 0 .73193 701.59 101.89)" gradientUnits="userSpaceOnUse" x1="-.36596" x2="-.36596" xlink:href="#c" y1="-.68313" y2="40.305"/><linearGradient id="n" gradientTransform="matrix(.99946 0 0 1.0005 234.01 -601.9)" gradientUnits="userSpaceOnUse" x1="-.75034" x2="-.75034" xlink:href="#a" y1="-.78024" y2="18.89"/><linearGradient id="o" gradientTransform="matrix(1.3896 0 0 .71962 689.59 249.89)" gradientUnits="userSpaceOnUse" x2="0" xlink:href="#b" y2="40.299"/><linearGradient id="p" gradientTransform="matrix(1.3784 0 0 .72548 681.59 241.89)" gradientUnits="userSpaceOnUse" x1="-.36274" x2="-.36274" xlink:href="#c" y1="-.6892" y2="40.663"/><linearGradient id="q" gradientTransform="matrix(.99946 0 0 1.0005 -222.59 -87.865)" gradientUnits="userSpaceOnUse" x1="-.75034" x2="-.75034" xlink:href="#a" y1="-.78024" y2="18.89"/><linearGradient id="r" gradientTransform="matrix(1.1447 0 0 .87359 169.59 89.888)" gradientUnits="userSpaceOnUse" x2="0" xlink:href="#b" y2="33.196"/><linearGradient id="s" gradientTransform="matrix(1.1402 0 0 .87706 161.59 81.888)" gradientUnits="userSpaceOnUse" x1="-.43853" x2="-.43853" xlink:href="#c" y1="-.57009" y2="33.635"/><linearGradient id="t" gradientTransform="matrix(.99946 0 0 1.0005 416.06 83.525)" gradientUnits="userSpaceOnUse" x1="-.75034" x2="-.75034" xlink:href="#a" y1="-.78024" y2="18.89"/><linearGradient id="u" gradientTransform="matrix(1.3131 0 0 .76158 429.59 129.89)" gradientUnits="userSpaceOnUse" x2="0" xlink:href="#b" y2="38.079"/><linearGradient id="v" gradientTransform="matrix(1.3038 0 0 .76696 421.59 121.89)" gradientUnits="userSpaceOnUse" x1="-.38348" x2="-.38348" xlink:href="#c" y1="-.65192" y2="38.463"/><linearGradient id="w" gradientTransform="matrix(1.0191 0 0 .98126 9.5893 9.888)" gradientUnits="userSpaceOnUse" x2="0" xlink:href="#b" y2="125.07"/><linearGradient id="x" gradientTransform="matrix(1.5934 0 0 .62758 1.5893 27.888)" gradientUnits="userSpaceOnUse" x1="-.31379" x2="-.31379" xlink:href="#d" y1="-.79671" y2="79.193"/><linearGradient id="y" gradientTransform="matrix(2.149 0 0 .46534 1.5893 77.088)" gradientUnits="userSpaceOnUse" x1="-.23267" x2="-.23267" xlink:href="#d" y1="-1.0745" y2="58.237"/><linearGradient id="z" gradientTransform="matrix(.99738 0 0 1.0026 9.5893 34.928)" gradientUnits="userSpaceOnUse" x1="-.57651" x2="-.57651" xlink:href="#e" y1="-.81104" y2="12.474"/><linearGradient id="A" gradientUnits="userSpaceOnUse" x1="9.0143" x2="9.0143" xlink:href="#f" y1="57.538" y2="69.688"/><linearGradient id="B" gradientTransform="matrix(.98481 0 0 1.0154 9.5893 84.044)" gradientUnits="userSpaceOnUse" x1="-.41286" x2="-.41286" xlink:href="#g" y1="-.80082" y2="12.483"/><linearGradient id="C" gradientTransform="matrix(2.4681 0 0 .40517 1.5893 103.69)" gradientUnits="userSpaceOnUse" x1="-.20259" x2="-.20259" xlink:href="#d" y1="-1.234" y2="50.408"/><linearGradient id="D" gradientTransform="matrix(1.1144 0 0 .89736 78.316 108.66)" gradientUnits="userSpaceOnUse" x1="-.61828" x2="-.61828" xlink:href="#h" y1="-.76781" y2="10.102"/><linearGradient id="E" gradientTransform="matrix(1.0891 0 0 .9182 56.792 108.66)" gradientUnits="userSpaceOnUse" x1="-.38932" x2="-.38932" xlink:href="#h" y1="-.75038" y2="10.128"/><linearGradient id="F" gradientTransform="matrix(.98191 0 0 1.0184 34.932 108.72)" gradientUnits="userSpaceOnUse" x1="-.36007" x2="-.36007" xlink:href="#h" y1="-.69431" y2="8.988"/><linearGradient id="G" gradientTransform="matrix(2.1731 0 0 .46018 1.5893 1.888)" gradientUnits="userSpaceOnUse" x1="-.24927" x2="-.24927" xlink:href="#i" y1="-1.0865" y2="57.586"/><linearGradient id="H" gradientTransform="matrix(1.0541 0 0 .94867 789.59 9.888)" gradientUnits="userSpaceOnUse" x2="0" xlink:href="#b" y2="129.36"/><linearGradient id="I" gradientTransform="matrix(1.6481 0 0 .60674 781.59 27.888)" gradientUnits="userSpaceOnUse" x1="-.30337" x2="-.30337" xlink:href="#d" y1="-.82407" y2="81.913"/><linearGradient id="J" gradientTransform="matrix(2.2228 0 0 .44989 781.59 77.088)" gradientUnits="userSpaceOnUse" x1="-.22494" x2="-.22494" xlink:href="#d" y1="-1.1114" y2="60.237"/><linearGradient id="K" gradientTransform="matrix(.99738 0 0 1.0026 789.59 34.928)" gradientUnits="userSpaceOnUse" x1="-.57651" x2="-.57651" xlink:href="#e" y1="-.81104" y2="12.474"/><linearGradient id="L" gradientUnits="userSpaceOnUse" x1="789.01" x2="789.01" xlink:href="#f" y1="57.538" y2="69.688"/><linearGradient id="M" gradientTransform="matrix(.98481 0 0 1.0154 789.59 84.044)" gradientUnits="userSpaceOnUse" x1="-.41286" x2="-.41286" xlink:href="#g" y1="-.80082" y2="12.483"/><linearGradient id="N" gradientTransform="matrix(2.5529 0 0 .39172 781.59 103.69)" gradientUnits="userSpaceOnUse" x1="-.19586" x2="-.19586" xlink:href="#d" y1="-1.2764" y2="52.139"/><linearGradient id="O" gradientTransform="matrix(1.1144 0 0 .89736 862.77 108.66)" gradientUnits="userSpaceOnUse" x1="-.61828" x2="-.61828" xlink:href="#h" y1="-.76781" y2="10.102"/><linearGradient id="P" gradientTransform="matrix(1.0891 0 0 .9182 841.25 108.66)" gradientUnits="userSpaceOnUse" x1="-.38932" x2="-.38932" xlink:href="#h" y1="-.75038" y2="10.128"/><linearGradient id="Q" gradientTransform="matrix(.98191 0 0 1.0184 819.38 108.72)" gradientUnits="userSpaceOnUse" x1="-.36007" x2="-.36007" xlink:href="#h" y1="-.69431" y2="8.988"/><linearGradient id="R" gradientTransform="matrix(2.2477 0 0 .4449 781.59 1.888)" gradientUnits="userSpaceOnUse" x1="-.24099" x2="-.24099" xlink:href="#i" y1="-1.1238" y2="59.563"/><linearGradient id="S" gradientTransform="matrix(1.0061 0 0 .99389 549.59 309.89)" gradientUnits="userSpaceOnUse" x2="0" xlink:href="#b" y2="123.48"/><linearGradient id="T" gradientTransform="matrix(1.5732 0 0 .63566 541.59 327.89)" gradientUnits="userSpaceOnUse" x1="-.31783" x2="-.31783" xlink:href="#d" y1="-.78658" y2="78.187"/><linearGradient id="U" gradientTransform="matrix(2.1216 0 0 .47133 541.59 377.09)" gradientUnits="userSpaceOnUse" x1="-.23567" x2="-.23567" xlink:href="#d" y1="-1.0608" y2="57.497"/><linearGradient id="V" gradientTransform="matrix(.99738 0 0 1.0026 549.59 334.93)" gradientUnits="userSpaceOnUse" x1="-.57651" x2="-.57651" xlink:href="#e" y1="-.81104" y2="12.474"/><linearGradient id="W" gradientUnits="userSpaceOnUse" x1="549.01" x2="549.01" xlink:href="#f" y1="357.54" y2="369.69"/><linearGradient id="X" gradientTransform="matrix(.98481 0 0 1.0154 549.59 384.04)" gradientUnits="userSpaceOnUse" x1="-.41286" x2="-.41286" xlink:href="#g" y1="-.80082" y2="12.483"/><linearGradient id="Y" gradientTransform="matrix(2.4367 0 0 .41039 541.59 403.69)" gradientUnits="userSpaceOnUse" x1="-.20519" x2="-.20519" xlink:href="#d" y1="-1.2184" y2="49.767"/><linearGradient id="Z" gradientTransform="matrix(1.1144 0 0 .89736 616.71 408.66)" gradientUnits="userSpaceOnUse" x1="-.61828" x2="-.61828" xlink:href="#h" y1="-.76781" y2="10.102"/><linearGradient id="aa" gradientTransform="matrix(1.0891 0 0 .9182 595.18 408.66)" gradientUnits="userSpaceOnUse" x1="-.38932" x2="-.38932" xlink:href="#h" y1="-.75038" y2="10.128"/><linearGradient id="ab" gradientTransform="matrix(.98191 0 0 1.0184 573.32 408.72)" gradientUnits="userSpaceOnUse" x1="-.36007" x2="-.36007" xlink:href="#h" y1="-.69431" y2="8.988"/><linearGradient id="ac" gradientTransform="matrix(2.1454 0 0 .4661 541.59 301.89)" gradientUnits="userSpaceOnUse" x1="-.25248" x2="-.25248" xlink:href="#i" y1="-1.0727" y2="56.854"/><linearGradient id="ad" gradientTransform="matrix(.886 0 0 1.1287 509.59 9.888)" gradientUnits="userSpaceOnUse" x2="0" xlink:href="#b" y2="188.83"/><linearGradient id="ae" gradientTransform="matrix(1.3243 0 0 .75514 501.59 27.888)" gradientUnits="userSpaceOnUse" x1="-.37757" x2="-.37757" xlink:href="#d" y1="-.66213" y2="125.67"/><linearGradient id="af" gradientTransform="matrix(1.5159 0 0 .65966 501.59 122.29)" gradientUnits="userSpaceOnUse" x1="-.32983" x2="-.32983" xlink:href="#d" y1="-.75797" y2="109.6"/><linearGradient id="ag" gradientTransform="matrix(.99738 0 0 1.0026 509.59 34.928)" gradientUnits="userSpaceOnUse" x1="-.57651" x2="-.57651" xlink:href="#e" y1="-.81104" y2="12.474"/><linearGradient id="ah" gradientUnits="userSpaceOnUse" x1="509.01" x2="509.01" xlink:href="#j" y1="56.988" y2="70.238"/><linearGradient id="ai" gradientUnits="userSpaceOnUse" x1="509.01" x2="509.01" xlink:href="#j" y1="79.588" y2="92.838"/><linearGradient id="aj" gradientUnits="userSpaceOnUse" x1="509.01" x2="509.01" xlink:href="#f" y1="102.74" y2="114.89"/><linearGradient id="ak" gradientTransform="matrix(.98481 0 0 1.0154 509.59 129.24)" gradientUnits="userSpaceOnUse" x1="-.41286" x2="-.41286" xlink:href="#g" y1="-.80082" y2="12.483"/><linearGradient id="al" gradientTransform="matrix(.98481 0 0 1.0154 509.59 151.84)" gradientUnits="userSpaceOnUse" x1="-.41286" x2="-.41286" xlink:href="#g" y1="-.80082" y2="12.483"/><linearGradient id="am" gradientTransform="matrix(.98481 0 0 1.0154 509.59 174.44)" gradientUnits="userSpaceOnUse" x1="-.41286" x2="-.41286" xlink:href="#g" y1="-.80082" y2="12.483"/><linearGradient id="an" gradientTransform="matrix(2.8276 0 0 .35365 501.59 194.09)" gradientUnits="userSpaceOnUse" x1="-.17682" x2="-.17682" xlink:href="#d" y1="-1.4138" y2="57.752"/><linearGradient id="ao" gradientTransform="matrix(1.1144 0 0 .89736 598.24 199.06)" gradientUnits="userSpaceOnUse" x1="-.61828" x2="-.61828" xlink:href="#h" y1="-.76781" y2="10.102"/><linearGradient id="ap" gradientTransform="matrix(1.0891 0 0 .9182 576.71 199.06)" gradientUnits="userSpaceOnUse" x1="-.38932" x2="-.38932" xlink:href="#h" y1="-.75038" y2="10.128"/><linearGradient id="aq" gradientTransform="matrix(.98191 0 0 1.0184 554.85 199.12)" gradientUnits="userSpaceOnUse" x1="-.36007" x2="-.36007" xlink:href="#h" y1="-.69431" y2="8.988"/><linearGradient id="ar" gradientTransform="matrix(2.4895 0 0 .40168 501.59 1.888)" gradientUnits="userSpaceOnUse" x1="-.21758" x2="-.21758" xlink:href="#i" y1="-1.2448" y2="65.973"/><linearGradient id="as" gradientTransform="matrix(.96221 0 0 1.0393 249.59 9.888)" gradientUnits="userSpaceOnUse" x2="0" xlink:href="#b" y2="161.58"/><linearGradient id="at" gradientTransform="matrix(1.7598 0 0 .56823 241.59 27.888)" gradientUnits="userSpaceOnUse" x1="-.28412" x2="-.28412" xlink:href="#d" y1="-.87992" y2="87.464"/><linearGradient id="au" gradientTransform="matrix(1.4614 0 0 .68429 241.59 77.088)" gradientUnits="userSpaceOnUse" x1="-.34214" x2="-.34214" xlink:href="#d" y1="-.73068" y2="105.66"/><linearGradient id="av" gradientTransform="matrix(.99738 0 0 1.0026 249.59 34.928)" gradientUnits="userSpaceOnUse" x1="-.57651" x2="-.57651" xlink:href="#e" y1="-.81104" y2="12.474"/><linearGradient id="aw" gradientTransform="matrix(.99738 0 0 1.0026 249.59 57.528)" gradientUnits="userSpaceOnUse" x1="-.57651" x2="-.57651" xlink:href="#e" y1="-.81104" y2="12.474"/><linearGradient id="ax" gradientTransform="matrix(.98481 0 0 1.0154 249.59 84.044)" gradientUnits="userSpaceOnUse" x1="-.41286" x2="-.41286" xlink:href="#g" y1="-.80082" y2="12.483"/><linearGradient id="ay" gradientTransform="matrix(.98481 0 0 1.0154 249.59 106.64)" gradientUnits="userSpaceOnUse" x1="-.41286" x2="-.41286" xlink:href="#g" y1="-.80082" y2="12.483"/><linearGradient id="az" gradientTransform="matrix(.98481 0 0 1.0154 249.59 129.24)" gradientUnits="userSpaceOnUse" x1="-.41286" x2="-.41286" xlink:href="#g" y1="-.80082" y2="12.483"/><linearGradient id="aA" gradientTransform="matrix(2.7259 0 0 .36686 241.59 148.89)" gradientUnits="userSpaceOnUse" x1="-.18343" x2="-.18343" xlink:href="#d" y1="-1.3629" y2="55.673"/><linearGradient id="aB" gradientTransform="matrix(1.1144 0 0 .89736 332.32 153.86)" gradientUnits="userSpaceOnUse" x1="-.61828" x2="-.61828" xlink:href="#h" y1="-.76781" y2="10.102"/><linearGradient id="aC" gradientTransform="matrix(1.0891 0 0 .9182 310.8 153.86)" gradientUnits="userSpaceOnUse" x1="-.38932" x2="-.38932" xlink:href="#h" y1="-.75038" y2="10.128"/><linearGradient id="aD" gradientTransform="matrix(.98191 0 0 1.0184 288.94 153.92)" gradientUnits="userSpaceOnUse" x1="-.36007" x2="-.36007" xlink:href="#h" y1="-.69431" y2="8.988"/><linearGradient id="aE" gradientTransform="matrix(2.4 0 0 .41668 241.59 1.888)" gradientUnits="userSpaceOnUse" x1="-.2257" x2="-.2257" xlink:href="#i" y1="-1.2" y2="63.599"/><g stroke="#606060" stroke-linecap="square" stroke-linejoin="bevel" stroke-width="1.5"><g fill="none"><path d="m668.89 94.157h33"/><path d="m701.89 94.157c28.85 0 28.85-19.257 57.7-19.257"/><path d="m759.59 74.9h22"/><g transform="translate(668.89 94.157)"><path d="m18 0-18-11"/><path d="m18 0-18 11"/></g></g><circle cx="696.96" cy="94.3" fill="url(#k)" fill-rule="evenodd" r="9.075" stroke-dasharray="6 3"/><g fill="none"><path d="m0-8.8v17.6" transform="translate(771.59 74.9)"/><path d="m0-8.8v17.6" transform="translate(763.59 74.9)"/></g></g><path d="m709.59 109.89h55v29h-55z" fill="url(#l)" fill-rule="evenodd"/><g stroke-linecap="square" stroke-linejoin="bevel"><path d="m701.59 101.89h55v29h-55z" fill="url(#m)" fill-rule="evenodd" stroke="#a4b09b"/><text fill-rule="evenodd" font-family="Noto Sans" font-size="13.2" font-style="italic" font-weight="400" x="708.58936" y="121.5786">teaches</text><g stroke="#606060" stroke-width="1.5"><g fill="none"><path d="m592.96 215.01v33"/><path d="m599.26 279.89c0-15.938-6.297-15.938-6.297-31.876"/><path d="m599.26 279.89v22"/><g transform="matrix(0 1 -1 0 592.96 215.01)"><path d="m18 0-18-11"/><path d="m18 0-18 11"/></g></g><circle cx="243.09" cy="-592.82" fill="url(#n)" fill-rule="evenodd" r="9.075" stroke-dasharray="6 3" transform="rotate(90)"/><g fill="none"><path d="m0-8.8v17.6" transform="matrix(0 1 -1 0 599.26 291.89)"/><path d="m0-8.8v17.6" transform="matrix(0 1 -1 0 599.26 283.89)"/></g></g></g><path d="m689.59 249.89h56v29h-56z" fill="url(#o)" fill-rule="evenodd"/><g stroke-linecap="square" stroke-linejoin="bevel"><path d="m681.59 241.89h56v29h-56z" fill="url(#p)" fill-rule="evenodd" stroke="#a4b09b"/><text fill-rule="evenodd" font-family="Noto Sans" font-size="13.2" font-style="italic" font-weight="400" x="688.58936" y="261.57861">module</text><g stroke="#606060" stroke-width="1.5"><g fill="none"><path d="m241.59 78.934h-33"/><path d="m208.59 78.934c-28.772 0-28.772-10.014-57.543-10.014"/><path d="m151.05 68.92h-22"/><g transform="matrix(-1 0 0 -1 241.59 78.934)"><path d="m18 0-18-11"/><path d="m18 0-18 11"/></g></g><circle cx="-213.51" cy="-78.79" fill="url(#q)" fill-rule="evenodd" r="9.075" stroke-dasharray="6 3" transform="scale(-1)"/><g fill="none"><path d="m0-8.8v17.6" transform="matrix(-1 0 0 -1 139.05 68.92)"/><path d="m0-8.8v17.6" transform="matrix(-1 0 0 -1 147.05 68.92)"/></g></g></g><path d="m169.59 89.888h38v29h-38z" fill="url(#r)" fill-rule="evenodd"/><g stroke-linecap="square" stroke-linejoin="bevel"><path d="m161.59 81.888h38v29h-38z" fill="url(#s)" fill-rule="evenodd" stroke="#a4b09b"/><text fill-rule="evenodd" font-family="Noto Sans" font-size="13.2" font-style="italic" font-weight="400" x="168.58934" y="101.5786">joins</text><g stroke="#606060" stroke-width="1.5"><g fill="none"><path d="m397.06 92.457h33"/><path d="m430.06 92.457c24.764 0 24.764 8.884 49.528 8.884"/><path d="m479.59 101.34h22"/><g transform="translate(397.06 92.457)"><path d="m18 0-18-11"/><path d="m18 0-18 11"/></g></g><circle cx="425.14" cy="92.6" fill="url(#t)" fill-rule="evenodd" r="9.075" stroke-dasharray="6 3"/><g fill="none"><path d="m0-8.8v17.6" transform="translate(491.59 101.34)"/><path d="m0-8.8v17.6" transform="translate(483.59 101.34)"/></g></g></g><g fill-rule="evenodd"><path d="m429.59 129.89h50v29h-50z" fill="url(#u)"/><path d="m421.59 121.89h50v29h-50z" fill="url(#v)" stroke="#a4b09b" stroke-linecap="square" stroke-linejoin="bevel"/><text style="font-family:Noto Sans;font-size:13.2;font-style:italic;font-weight:400;stroke-linecap:square;stroke-linejoin:bevel" x="428.58932" y="141.5786">course</text><path d="m9.5893 21.888c0-6.6274 5.3726-12 12-12h103.46c6.627 0 12 5.3726 12 12v98.724c0 6.627-5.373 12-12 12h-103.46c-6.6274 0-12-5.373-12-12z" fill="url(#w)"/><g stroke-linecap="square" stroke-linejoin="bevel"><path d="m1.5893 27.888h126.46v49.2h-126.46z" fill="url(#x)" stroke="#d7d7d7"/><path d="m1.5893 77.088h126.46v26.6h-126.46z" fill="url(#y)" stroke="#d7d7d7"/><path d="m12.278 34.928-2.6889 2.6889v6.7222l2.6889 2.6889 1.3444-1.3444v-2.6889h1.3444l1.3444 1.3444 2.6889-2.6889 2.6889 2.6889v-5.3778h-8.0667v-2.6889z" fill="url(#z)" stroke="#897416" stroke-width="1.15"/><text fill="#2b7dba" font-family="Noto Sans" font-size="14.667" font-style="italic" font-weight="700" x="26.839338" y="46.719299">id</text><circle cx="15.089" cy="63.613" fill="url(#A)" r="5.5" stroke="#5a9ee4" stroke-width="1.15"/><text font-family="Noto Sans" font-size="14.667" font-style="italic" font-weight="400" x="25.73934" y="69.319298">name</text><path d="m16.312 84.044-6.7222 6.7222 5.3778 5.3778h6.7222v-6.7222z" fill="url(#B)" stroke="#4c4c98" stroke-width="1.15"/><text fill="#082061" font-family="Noto Sans" font-size="14.667" font-style="italic" font-weight="400" x="26.670938" y="95.919304">student_id_pk</text><path d="m1.5893 103.69h126.46v7.924l-.183 2.0838-.541 2.0204-.884 1.8958-1.2 1.7135-1.479 1.479-1.713 1.1998-1.896.884-2.021.5414-2.083.1823h-102.46l-2.0838-.1823-2.0205-.5414-1.8958-.884-1.7134-1.1998-1.4791-1.479-1.1998-1.7135-.88401-1.8958-.54138-2.0204-.18231-2.0838z" fill="url(#C)" stroke="#d7d7d7"/><g stroke="#bebebe"><path d="m78.316 108.66h11l-5.5 8.8z" fill="url(#D)" opacity=".4"/><path d="m62.292 108.66-5.5 8.8h11z" fill="url(#E)"/><path d="m39.332 108.72 4.4 4.4-4.4 4.4-4.4-4.4z" fill="url(#F)"/></g><path d="m1.5893 13.888.18231-2.0838.54138-2.0205.88401-1.8958 1.1998-1.7134 1.4791-1.4791 1.7134-1.1998 1.8958-.88401 2.0205-.54138 2.0838-.18231h102.46l2.083.18231 2.021.54138 1.896.88401 1.713 1.1998 1.479 1.4791 1.2 1.7134.884 1.8958.541 2.0205.183 2.0838v14h-126.46z" fill="url(#G)" stroke="#3175b0"/><g font-family="Noto Sans" font-size="14.667"><text font-style="italic" font-weight="400" x="13.901837" y="19.2213">public.</text><text fill="#fff" font-weight="700" x="58.245632" y="19.2213">student</text></g></g><path d="m789.59 21.888c0-6.6274 5.3726-12 12-12h112.36c6.627 0 12 5.3726 12 12v98.724c0 6.627-5.373 12-12 12h-112.36c-6.6274 0-12-5.373-12-12z" fill="url(#H)"/><g stroke-linecap="square" stroke-linejoin="bevel"><path d="m781.59 27.888h135.36v49.2h-135.36z" fill="url(#I)" stroke="#d7d7d7"/><path d="m781.59 77.088h135.36v26.6h-135.36z" fill="url(#J)" stroke="#d7d7d7"/><path d="m792.28 34.928-2.6889 2.6889v6.7222l2.6889 2.6889 1.3444-1.3444v-2.6889h1.3444l1.3444 1.3444 2.6889-2.6889 2.6889 2.6889v-5.3778h-8.0667v-2.6889z" fill="url(#K)" stroke="#897416" stroke-width="1.15"/><text fill="#2b7dba" font-family="Noto Sans" font-size="14.667" font-style="italic" font-weight="700" x="806.83936" y="46.719299">id</text><circle cx="795.09" cy="63.613" fill="url(#L)" r="5.5" stroke="#5a9ee4" stroke-width="1.15"/><text font-family="Noto Sans" font-size="14.667" font-style="italic" font-weight="400" x="805.73938" y="69.319298">name</text><path d="m796.31 84.044-6.7222 6.7222 5.3778 5.3778h6.7222v-6.7222z" fill="url(#M)" stroke="#4c4c98" stroke-width="1.15"/><text fill="#082061" font-family="Noto Sans" font-size="14.667" font-style="italic" font-weight="400" x="806.67133" y="95.919304">professor_id_pl</text><path d="m781.58934 103.688h135.363v7.924l-.182 2.0838-.542 2.0204-.884 1.8958-1.2 1.7135-1.479 1.479-1.713 1.1998-1.896.884-2.02.5414-2.084.1823h-111.363l-2.08378-.1823-2.02046-.5414-1.89576-.884-1.71345-1.1998-1.47908-1.479-1.19977-1.7135-.88401-1.8958-.54138-2.0204-.18231-2.0838z" fill="url(#N)" stroke="#d7d7d7"/><g stroke="#bebebe"><path d="m862.77 108.66h11l-5.5 8.8z" fill="url(#O)" opacity=".4"/><path d="m846.75 108.66-5.5 8.8h11z" fill="url(#P)"/><path d="m823.78 108.72 4.4 4.4-4.4 4.4-4.4-4.4z" fill="url(#Q)"/></g><path d="m781.59 13.888.18231-2.0838.54138-2.0205.88401-1.8958 1.1998-1.7134 1.4791-1.4791 1.7134-1.1998 1.8958-.88401 2.0205-.54138 2.0838-.18231h111.36l2.084.18231 2.02.54138 1.896.88401 1.713 1.1998 1.479 1.4791 1.2 1.7134.884 1.8958.542 2.0205.182 2.0838v14h-135.36z" fill="url(#R)" stroke="#3175b0"/><g font-family="Noto Sans" font-size="14.667"><text font-style="italic" font-weight="400" x="792.13623" y="19.2213">public.</text><text fill="#fff" font-weight="700" x="836.47998" y="19.2213">professor</text></g></g><path d="m549.59 321.89c0-6.6274 5.3726-12 12-12h100.24c6.627 0 12 5.3726 12 12v98.724c0 6.627-5.373 12-12 12h-100.24c-6.6274 0-12-5.373-12-12z" fill="url(#S)"/><g stroke-linecap="square" stroke-linejoin="bevel"><path d="m541.59 327.89h123.24v49.2h-123.24z" fill="url(#T)" stroke="#d7d7d7"/><path d="m541.59 377.09h123.24v26.6h-123.24z" fill="url(#U)" stroke="#d7d7d7"/><path d="m552.28 334.93-2.6889 2.6889v6.7222l2.6889 2.6889 1.3444-1.3444v-2.6889h1.3444l1.3444 1.3444 2.6889-2.6889 2.6889 2.6889v-5.3778h-8.0667v-2.6889z" fill="url(#V)" stroke="#897416" stroke-width="1.15"/><text fill="#2b7dba" font-family="Noto Sans" font-size="14.667" font-style="italic" font-weight="700" x="566.83936" y="346.7193">id</text><circle cx="555.09" cy="363.61" fill="url(#W)" r="5.5" stroke="#5a9ee4" stroke-width="1.15"/><text font-family="Noto Sans" font-size="14.667" font-style="italic" font-weight="400" x="565.73938" y="369.31931">title</text><path d="m556.31 384.04-6.7222 6.7222 5.3778 5.3778h6.7222v-6.7222z" fill="url(#X)" stroke="#4c4c98" stroke-width="1.15"/><text fill="#082061" font-family="Noto Sans" font-size="14.667" font-style="italic" font-weight="400" x="566.67133" y="395.91931">module_id_pl</text><path d="m541.58934 403.688h123.238v7.924l-.182 2.0838-.542 2.0204-.884 1.8958-1.2 1.7135-1.479 1.479-1.713 1.1998-1.896.884-2.02.5414-2.084.1823h-99.238l-2.08378-.1823-2.02046-.5414-1.89576-.884-1.71345-1.1998-1.47908-1.479-1.19977-1.7135-.88401-1.8958-.54138-2.0204-.18231-2.0838z" fill="url(#Y)" stroke="#d7d7d7"/><g stroke="#bebebe"><path d="m616.71 408.66h11l-5.5 8.8z" fill="url(#Z)" opacity=".4"/><path d="m600.68 408.66-5.5 8.8h11z" fill="url(#aa)"/><path d="m577.72 408.72 4.4 4.4-4.4 4.4-4.4-4.4z" fill="url(#ab)"/></g><path d="m541.59 313.89.18231-2.0838.54138-2.0205.88401-1.8958 1.1998-1.7134 1.4791-1.4791 1.7134-1.1998 1.8958-.88401 2.0205-.54138 2.0838-.18231h99.238l2.084.18231 2.02.54138 1.896.88401 1.713 1.1998 1.479 1.4791 1.2 1.7134.884 1.8958.542 2.0205.182 2.0838v14h-123.24z" fill="url(#ac)" stroke="#3175b0"/><g font-family="Noto Sans" font-size="14.667"><text font-style="italic" font-weight="400" x="553.15186" y="319.22131">public.</text><text fill="#fff" font-weight="700" x="597.49567" y="319.22131">module</text></g></g><path d="m509.59 21.888c0-6.6274 5.3726-12 12-12h143.3c6.628 0 12 5.3726 12 12v189.12c0 6.627-5.372 12-12 12h-143.3c-6.6274 0-12-5.373-12-12z" fill="url(#ad)"/><g stroke-linecap="square" stroke-linejoin="bevel"><path d="m501.59 27.888h166.3v94.4h-166.3z" fill="url(#ae)" stroke="#d7d7d7"/><path d="m501.59 122.29h166.3v71.8h-166.3z" fill="url(#af)" stroke="#d7d7d7"/><path d="m512.28 34.928-2.6889 2.6889v6.7222l2.6889 2.6889 1.3444-1.3444v-2.6889h1.3444l1.3444 1.3444 2.6889-2.6889 2.6889 2.6889v-5.3778h-8.0667v-2.6889z" fill="url(#ag)" stroke="#897416" stroke-width="1.15"/><text fill="#2b7dba" font-family="Noto Sans" font-size="14.667" font-style="italic" font-weight="700" x="526.83936" y="46.719299">id</text><path d="m509.59 61.596v4.0333h5.3778v4.0333h1.3444l5.3778-5.3778v-1.3444l-5.3778-5.3778h-1.3444v4.0333z" fill="url(#ah)" stroke="#8f341b" stroke-width="1.15"/><text font-family="Noto Sans" font-size="14.667" font-style="italic" font-weight="400" x="526.83936" y="69.319298">professor</text><path d="m509.59 84.196v4.0333h5.3778v4.0333h1.3444l5.3778-5.3778v-1.3444l-5.3778-5.3778h-1.3444v4.0333z" fill="url(#ai)" stroke="#8f341b" stroke-width="1.15"/><text font-family="Noto Sans" font-size="14.667" font-style="italic" font-weight="400" x="526.83936" y="91.919304">module</text><circle cx="515.09" cy="108.81" fill="url(#aj)" r="5.5" stroke="#5a9ee4" stroke-width="1.15"/><text font-family="Noto Sans" font-size="14.667" font-style="italic" font-weight="400" x="525.73938" y="114.5193">semester</text><path d="m516.31 129.24-6.7222 6.7222 5.3778 5.3778h6.7222v-6.7222z" fill="url(#ak)" stroke="#4c4c98" stroke-width="1.15"/><text fill="#082061" font-family="Noto Sans" font-size="14.667" font-style="italic" font-weight="400" x="526.67133" y="141.11929">course_id_pk</text><path d="m516.31 151.84-6.7222 6.7222 5.3778 5.3778h6.7222v-6.7222z" fill="url(#al)" stroke="#4c4c98" stroke-width="1.15"/><text fill="#082061" font-family="Noto Sans" font-size="14.667" font-style="italic" font-weight="400" x="526.67133" y="163.7193">course_professor_fk</text><path d="m516.31 174.44-6.7222 6.7222 5.3778 5.3778h6.7222v-6.7222z" fill="url(#am)" stroke="#4c4c98" stroke-width="1.15"/><text fill="#082061" font-family="Noto Sans" font-size="14.667" font-style="italic" font-weight="400" x="526.67133" y="186.31931">course_module_fk</text><path d="m501.58934 194.088h166.3v7.924l-.182 2.0838-.541 2.0204-.884 1.8958-1.2 1.7135-1.479 1.479-1.714 1.1998-1.895.884-2.021.5414-2.084.1823h-142.3l-2.08378-.1823-2.02046-.5414-1.89576-.884-1.71345-1.1998-1.47908-1.479-1.19977-1.7135-.88401-1.8958-.54138-2.0204-.18231-2.0838z" fill="url(#an)" stroke="#d7d7d7"/><g stroke="#bebebe"><path d="m598.24 199.06h11l-5.5 8.8z" fill="url(#ao)" opacity=".4"/><path d="m582.21 199.06-5.5 8.8h11z" fill="url(#ap)"/><path d="m559.25 199.12 4.4 4.4-4.4 4.4-4.4-4.4z" fill="url(#aq)"/></g><path d="m501.59 13.888.18231-2.0838.54138-2.0205.88401-1.8958 1.1998-1.7134 1.4791-1.4791 1.7134-1.1998 1.8958-.88401 2.0205-.54138 2.0838-.18231h142.3l2.084.18231 2.021.54138 1.895.88401 1.714 1.1998 1.479 1.4791 1.2 1.7134.884 1.8958.541 2.0205.182 2.0838v14h-166.3z" fill="url(#ar)" stroke="#3175b0"/><g font-family="Noto Sans" font-size="14.667"><text font-style="italic" font-weight="400" x="538.08936" y="19.2213">public.</text><text fill="#fff" font-weight="700" x="582.43317" y="19.2213">course</text></g></g><path d="m249.59 21.888c0-6.6274 5.3726-12 12-12h131.47c6.628 0 12 5.3726 12 12v143.92c0 6.627-5.372 12-12 12h-131.47c-6.6274 0-12-5.373-12-12z" fill="url(#as)"/><g stroke-linecap="square" stroke-linejoin="bevel"><path d="m241.59 27.888h154.47v49.2h-154.47z" fill="url(#at)" stroke="#d7d7d7"/><path d="m241.59 77.088h154.47v71.8h-154.47z" fill="url(#au)" stroke="#d7d7d7"/><path d="m252.28 34.928-2.6889 2.6889v6.7222l2.6889 2.6889 1.3444-1.3444v-2.6889h1.3444l1.3444 1.3444 2.6889-2.6889 2.6889 2.6889v-5.3778h-8.0667v-2.6889z" fill="url(#av)" stroke="#897416" stroke-width="1.15"/><text fill="#2b7dba" font-family="Noto Sans" font-size="14.667" font-style="italic" font-weight="700" x="266.83932" y="46.719299">student</text><path d="m252.28 57.528-2.6889 2.6889v6.7222l2.6889 2.6889 1.3444-1.3444v-2.6889h1.3444l1.3444 1.3444 2.6889-2.6889 2.6889 2.6889v-5.3778h-8.0667v-2.6889z" fill="url(#aw)" stroke="#897416" stroke-width="1.15"/><text fill="#2b7dba" font-family="Noto Sans" font-size="14.667" font-style="italic" font-weight="700" x="266.83932" y="69.319298">course</text><path d="m256.31 84.044-6.7222 6.7222 5.3778 5.3778h6.7222v-6.7222z" fill="url(#ax)" stroke="#4c4c98" stroke-width="1.15"/><text fill="#082061" font-family="Noto Sans" font-size="14.667" font-style="italic" font-weight="400" x="266.67133" y="95.919304">enrolls_pk</text><path d="m256.31 106.64-6.7222 6.7222 5.3778 5.3778h6.7222v-6.7222z" fill="url(#ay)" stroke="#4c4c98" stroke-width="1.15"/><text fill="#082061" font-family="Noto Sans" font-size="14.667" font-style="italic" font-weight="400" x="266.67133" y="118.5193">enrolls_student_fk</text><path d="m256.31 129.24-6.7222 6.7222 5.3778 5.3778h6.7222v-6.7222z" fill="url(#az)" stroke="#4c4c98" stroke-width="1.15"/><text fill="#082061" font-family="Noto Sans" font-size="14.667" font-style="italic" font-weight="400" x="266.67133" y="141.11929">enrolls_course_fk</text><path d="m241.58934 148.888h154.472v7.924l-.182 2.0838-.541 2.0204-.884 1.8958-1.2 1.7135-1.479 1.479-1.714 1.1998-1.896.884-2.02.5414-2.084.1823h-130.472l-2.08378-.1823-2.02046-.5414-1.89576-.884-1.71345-1.1998-1.47908-1.479-1.19977-1.7135-.88401-1.8958-.54138-2.0204-.18231-2.0838z" fill="url(#aA)" stroke="#d7d7d7"/><g stroke="#bebebe"><path d="m332.32 153.86h11l-5.5 8.8z" fill="url(#aB)" opacity=".4"/><path d="m316.3 153.86-5.5 8.8h11z" fill="url(#aC)"/><path d="m293.34 153.92 4.4 4.4-4.4 4.4-4.4-4.4z" fill="url(#aD)"/></g><path d="m241.59 13.888.18231-2.0838.54138-2.0205.88401-1.8958 1.1998-1.7134 1.4791-1.4791 1.7134-1.1998 1.8958-.88401 2.0205-.54138 2.0838-.18231h130.47l2.084.18231 2.02.54138 1.896.88401 1.714 1.1998 1.479 1.4791 1.2 1.7134.884 1.8958.541 2.0205.182 2.0838v14h-154.47z" fill="url(#aE)" stroke="#3175b0"/><g font-family="Noto Sans" font-size="14.667"><text font-style="italic" font-weight="400" x="271.62064" y="19.2213">public.</text><text fill="#fff" font-weight="700" x="315.96432" y="19.2213">enrolls</text></g></g></g></svg>