<svg height="202pt" viewBox="0 0 751 202" width="751pt" xmlns="http://www.w3.org/2000/svg" xmlns:xlink="http://www.w3.org/1999/xlink"><linearGradient id="a" x2="0" y2="1"><stop offset="0" stop-color="#a9a9a9" stop-opacity=".19608"/><stop offset="1" stop-color="#a9a9a9" stop-opacity=".19608"/></linearGradient><linearGradient id="b" x2="0" y2="1"><stop offset="0" stop-color="#fcfcfc"/><stop offset="1" stop-color="#fcfcfc"/></linearGradient><linearGradient id="c" x2="0" y2="1"><stop offset="0" stop-color="#ffff80"/><stop offset="1" stop-color="#ffff80"/></linearGradient><linearGradient id="d" x2="0" y2="1"><stop offset="0" stop-color="#d2e9ff"/><stop offset="1" stop-color="#d2e9ff"/></linearGradient><linearGradient id="e" x2="0" y2="1"><stop offset="0" stop-color="#c5cbff"/><stop offset="1" stop-color="#c5cbff"/></linearGradient><linearGradient id="f" x2="0" y2="1"><stop offset="0" stop-color="#f3f3f3"/><stop offset="1" stop-color="#e1e1e1"/></linearGradient><linearGradient id="g" x2="0" y2="1"><stop offset="0" stop-color="#4aa5ff"/><stop offset="1" stop-color="#4aa5ff"/></linearGradient><linearGradient id="h" gradientTransform="matrix(.99946 0 0 1.0005 344.86 90.575)" gradientUnits="userSpaceOnUse" x1="-.75034" x2="-.75034" y1="-.78024" y2="18.89"><stop offset="0" stop-color="#dcdcdc"/><stop offset="1" stop-color="#dcdcdc"/></linearGradient><linearGradient id="i" gradientTransform="matrix(1.6189 0 0 .61772 369.63 126.34)" gradientUnits="userSpaceOnUse" x2="0" xlink:href="#a" y2="46.947"/><linearGradient id="j" gradientTransform="matrix(1.6021 0 0 .62419 361.63 118.34)" gradientUnits="userSpaceOnUse" x1="-.31209" x2="-.31209" y1="-.80104" y2="47.261"><stop offset="0" stop-color="#eeffe0"/><stop offset="1" stop-color="#eeffe0"/></linearGradient><linearGradient id="k" gradientTransform="matrix(1.3041 0 0 .76679 9.8193 9.988)" gradientUnits="userSpaceOnUse" x2="0" xlink:href="#a" y2="248.47"/><linearGradient id="l" gradientTransform="matrix(1.843 0 0 .5426 1.8193 27.988)" gradientUnits="userSpaceOnUse" x1="-.2713" x2="-.2713" xlink:href="#b" y1="-.9215" y2="174.9"/><linearGradient id="m" gradientTransform="matrix(2.5407 0 0 .3936 1.8193 122.39)" gradientUnits="userSpaceOnUse" x1="-.1968" x2="-.1968" xlink:href="#b" y1="-1.2703" y2="126.27"/><linearGradient id="n" gradientTransform="matrix(.99738 0 0 1.0026 9.8193 35.028)" gradientUnits="userSpaceOnUse" x1="-.57651" x2="-.57651" xlink:href="#c" y1="-.81104" y2="12.474"/><linearGradient id="o" gradientUnits="userSpaceOnUse" x1="9.2443" x2="9.2443" xlink:href="#d" y1="57.638" y2="69.788"/><linearGradient id="p" gradientUnits="userSpaceOnUse" x1="9.2443" x2="9.2443" xlink:href="#d" y1="80.238" y2="92.388"/><linearGradient id="q" gradientUnits="userSpaceOnUse" x1="9.2443" x2="9.2443" y1="102.29" y2="115.54"><stop offset="0" stop-color="#ff8769"/><stop offset="1" stop-color="#ff8769"/></linearGradient><linearGradient id="r" gradientTransform="matrix(.98481 0 0 1.0154 9.8193 129.34)" gradientUnits="userSpaceOnUse" x1="-.41286" x2="-.41286" xlink:href="#e" y1="-.80082" y2="12.483"/><linearGradient id="s" gradientTransform="matrix(.98481 0 0 1.0154 9.8193 151.94)" gradientUnits="userSpaceOnUse" x1="-.41286" x2="-.41286" xlink:href="#e" y1="-.80082" y2="12.483"/><linearGradient id="t" gradientTransform="matrix(3.9353 0 0 .25411 1.8193 171.59)" gradientUnits="userSpaceOnUse" x1="-.12706" x2="-.12706" xlink:href="#b" y1="-1.9676" y2="80.374"/><linearGradient id="u" gradientTransform="matrix(1.1144 0 0 .89736 176.84 176.56)" gradientUnits="userSpaceOnUse" x1="-.61828" x2="-.61828" xlink:href="#f" y1="-.76781" y2="10.102"/><linearGradient id="v" gradientTransform="matrix(1.0891 0 0 .9182 155.31 176.56)" gradientUnits="userSpaceOnUse" x1="-.38932" x2="-.38932" xlink:href="#f" y1="-.75038" y2="10.128"/><linearGradient id="w" gradientTransform="matrix(.98191 0 0 1.0184 133.45 176.62)" gradientUnits="userSpaceOnUse" x1="-.36007" x2="-.36007" xlink:href="#f" y1="-.69431" y2="8.988"/><linearGradient id="x" gradientTransform="matrix(3.4645 0 0 .28864 1.8193 1.988)" gradientUnits="userSpaceOnUse" x1="-.15635" x2="-.15635" xlink:href="#g" y1="-1.7323" y2="91.81"/><linearGradient id="y" gradientTransform="matrix(1.5102 0 0 .66216 469.82 49.988)" gradientUnits="userSpaceOnUse" x2="0" xlink:href="#a" y2="185.34"/><linearGradient id="z" gradientTransform="matrix(2.3613 0 0 .42349 461.82 67.988)" gradientUnits="userSpaceOnUse" x1="-.21175" x2="-.21175" xlink:href="#b" y1="-1.1807" y2="117.36"/><linearGradient id="A" gradientTransform="matrix(3.1846 0 0 .31402 461.82 117.19)" gradientUnits="userSpaceOnUse" x1="-.15701" x2="-.15701" xlink:href="#b" y1="-1.5923" y2="86.302"/><linearGradient id="B" gradientTransform="matrix(.99738 0 0 1.0026 469.82 75.028)" gradientUnits="userSpaceOnUse" x1="-.57651" x2="-.57651" xlink:href="#c" y1="-.81104" y2="12.474"/><linearGradient id="C" gradientUnits="userSpaceOnUse" x1="469.24" x2="469.24" xlink:href="#d" y1="97.638" y2="109.79"/><linearGradient id="D" gradientTransform="matrix(.98481 0 0 1.0154 469.82 124.14)" gradientUnits="userSpaceOnUse" x1="-.41286" x2="-.41286" xlink:href="#e" y1="-.80082" y2="12.483"/><linearGradient id="E" gradientTransform="matrix(3.6575 0 0 .27341 461.82 143.79)" gradientUnits="userSpaceOnUse" x1="-.13671" x2="-.13671" xlink:href="#b" y1="-1.8287" y2="74.7"/><linearGradient id="F" gradientTransform="matrix(1.1144 0 0 .89736 614.77 148.76)" gradientUnits="userSpaceOnUse" x1="-.61828" x2="-.61828" xlink:href="#f" y1="-.76781" y2="10.102"/><linearGradient id="G" gradientTransform="matrix(1.0891 0 0 .9182 593.25 148.76)" gradientUnits="userSpaceOnUse" x1="-.38932" x2="-.38932" xlink:href="#f" y1="-.75038" y2="10.128"/><linearGradient id="H" gradientTransform="matrix(.98191 0 0 1.0184 571.39 148.82)" gradientUnits="userSpaceOnUse" x1="-.36007" x2="-.36007" xlink:href="#f" y1="-.69431" y2="8.988"/><linearGradient id="I" gradientTransform="matrix(3.22 0 0 .31056 461.82 41.988)" gradientUnits="userSpaceOnUse" x1="-.16822" x2="-.16822" xlink:href="#g" y1="-1.61" y2="85.33"/><g stroke="#606060" stroke-linecap="square" stroke-linejoin="bevel" stroke-width="1.5"><g fill="none"><path d="m325.86 99.507h33"/><path d="m358.86 99.507c40.481 0 40.481 1.894 80.962 1.894"/><path d="m439.82 101.4h22"/><g transform="translate(325.86 99.507)"><path d="m18 0-18-11"/><path d="m18 0-18 11"/></g></g><circle cx="353.93" cy="99.65" fill="url(#h)" fill-rule="evenodd" r="9.075" stroke-dasharray="6 3"/><g fill="none"><path d="m0-8.8v17.6" transform="translate(451.82 101.4)"/><path d="m0-8.8v17.6" transform="translate(443.82 101.4)"/></g></g><g fill-rule="evenodd"><path d="m369.63 126.34h76v29h-76z" fill="url(#i)"/><path d="m361.63 118.34h76v29h-76z" fill="url(#j)" stroke="#a4b09b" stroke-linecap="square" stroke-linejoin="bevel"/><text style="font-family:Noto Sans;font-size:13.2;font-style:italic;font-weight:400;stroke-linecap:square;stroke-linejoin:bevel" x="368.63333" y="138.0356">has_parent</text><path d="m9.8193 21.988c0-6.6274 5.3726-12 12-12h300.04c6.627 0 12 5.3726 12 12v166.52c0 6.627-5.373 12-12 12h-300.04c-6.6274 0-12-5.373-12-12z" fill="url(#k)"/><g stroke-linecap="square" stroke-linejoin="bevel"><path d="m1.8193 27.988h323.04v94.4h-323.04z" fill="url(#l)" stroke="#d7d7d7"/><path d="m1.8193 122.39h323.04v49.2h-323.04z" fill="url(#m)" stroke="#d7d7d7"/><path d="m12.508 35.028-2.6889 2.6889v6.7222l2.6889 2.6889 1.3444-1.3444v-2.6889h1.3444l1.3444 1.3444 2.6889-2.6889 2.6889 2.6889v-5.3778h-8.0667v-2.6889z" fill="url(#n)" stroke="#897416" stroke-width="1.15"/><g font-family="Noto Sans" font-size="14.667" font-style="italic"><text fill="#2b7dba" font-weight="700" x="27.069338" y="46.819298">student_id</text><text fill="#4964a6" font-weight="700" x="155.75034" xml:space="preserve" y="46.819298"> character(11)</text><text fill="#25682d" font-weight="400" x="283.70035" y="46.819298">« pk »</text></g><circle cx="15.319" cy="63.713" fill="url(#o)" r="5.5" stroke="#5a9ee4" stroke-width="1.15"/><g font-family="Noto Sans" font-size="14.667" font-style="italic"><text font-weight="400" x="25.969337" y="69.419296">student_national_id</text><text fill="#4964a6" font-weight="700" x="155.75034" xml:space="preserve" y="69.419296"> character(18)</text><text fill="#25682d" font-weight="400" x="282.45035" y="69.419296">« nn »</text></g><circle cx="15.319" cy="86.313" fill="url(#p)" r="5.5" stroke="#5a9ee4" stroke-width="1.15"/><g font-family="Noto Sans" font-size="14.667" font-style="italic"><text font-weight="400" x="25.969337" y="92.019302">student_name</text><text fill="#4964a6" font-weight="700" x="155.75034" xml:space="preserve" y="92.019302"> varchar(100)</text><text fill="#25682d" font-weight="400" x="282.45035" y="92.019302">« nn »</text></g><path d="m9.8193 106.9v4.0333h5.3778v4.0333h1.3444l5.3778-5.3778v-1.3444l-5.3778-5.3778h-1.3444v4.0333z" fill="url(#q)" stroke="#8f341b" stroke-width="1.15"/><g font-family="Noto Sans" font-size="14.667" font-style="italic"><text font-weight="400" x="27.069338" y="114.6193">parent_mobile</text><text fill="#4964a6" font-weight="700" x="155.75034" xml:space="preserve" y="114.6193"> character(11)</text><text fill="#25682d" font-weight="400" x="266.37234" y="114.6193">« fk nn »</text></g><path d="m16.542 129.34-6.7222 6.7222 5.3778 5.3778h6.7222v-6.7222z" fill="url(#r)" stroke="#4c4c98" stroke-width="1.15"/><g font-family="Noto Sans" font-size="14.667" font-style="italic"><text fill="#082061" font-weight="400" x="26.900938" y="141.2193">student_id_pk</text><text fill="#4964a6" font-weight="700" x="155.75034" xml:space="preserve" y="141.2193"> constraint</text><text fill="#25682d" font-weight="400" x="283.70035" y="141.2193">« pk »</text></g><path d="m16.542 151.94-6.7222 6.7222 5.3778 5.3778h6.7222v-6.7222z" fill="url(#s)" stroke="#4c4c98" stroke-width="1.15"/><g font-family="Noto Sans" font-size="14.667" font-style="italic"><text fill="#082061" font-weight="400" x="26.900938" y="163.81931">parent_mobile_fk</text><text fill="#4964a6" font-weight="700" x="155.75034" xml:space="preserve" y="163.81931"> constraint</text><text fill="#25682d" font-weight="400" x="287.60733" y="163.81931">« fk »</text></g><path d="m1.8193 171.59h323.04v7.924l-.183 2.0838-.541 2.0204-.884 1.8958-1.2 1.7135-1.479 1.479-1.713 1.1998-1.896.884-2.021.5414-2.083.1823h-299.04l-2.0838-.1823-2.0205-.5414-1.8958-.884-1.7134-1.1998-1.4791-1.479-1.1998-1.7135-.88401-1.8958-.54138-2.0204-.18231-2.0838z" fill="url(#t)" stroke="#d7d7d7"/><g stroke="#bebebe"><path d="m176.84 176.56h11l-5.5 8.8z" fill="url(#u)" opacity=".4"/><path d="m160.81 176.56-5.5 8.8h11z" fill="url(#v)"/><path d="m137.85 176.62 4.4 4.4-4.4 4.4-4.4-4.4z" fill="url(#w)"/></g><path d="m1.8193 13.988.18231-2.0838.54138-2.0205.88401-1.8958 1.1998-1.7134 1.4791-1.4791 1.7134-1.1998 1.8958-.88401 2.0205-.54138 2.0838-.18231h299.04l2.083.18231 2.021.54138 1.896.88401 1.713 1.1998 1.479 1.4791 1.2 1.7134.884 1.8958.541 2.0205.183 2.0838v14h-323.04z" fill="url(#x)" stroke="#3175b0"/><g font-family="Noto Sans" font-size="14.667"><text font-style="italic" font-weight="400" x="112.41334" y="19.321301">public.</text><text fill="#fff" font-weight="700" x="156.75734" y="19.321301">student</text></g></g><path d="m469.82 61.988c0-6.6274 5.3726-12 12-12h255.9c6.628 0 12 5.3726 12 12v98.724c0 6.627-5.372 12-12 12h-255.9c-6.6274 0-12-5.373-12-12z" fill="url(#y)"/><g stroke-linecap="square" stroke-linejoin="bevel"><path d="m461.82 67.988h278.9v49.2h-278.9z" fill="url(#z)" stroke="#d7d7d7"/><path d="m461.82 117.19h278.9v26.6h-278.9z" fill="url(#A)" stroke="#d7d7d7"/><path d="m472.51 75.028-2.6889 2.6889v6.7222l2.6889 2.6889 1.3444-1.3444v-2.6889h1.3444l1.3444 1.3444 2.6889-2.6889 2.6889 2.6889v-5.3778h-8.0667v-2.6889z" fill="url(#B)" stroke="#897416" stroke-width="1.15"/><g font-family="Noto Sans" font-size="14.667" font-style="italic"><text fill="#2b7dba" font-weight="700" x="487.06934" y="86.819298">parent_mobile</text><text fill="#4964a6" font-weight="700" x="588.94434" xml:space="preserve" y="86.819298"> character(11)</text><text fill="#25682d" font-weight="400" x="699.56635" y="86.819298">« pk »</text></g><circle cx="475.32" cy="103.71" fill="url(#C)" r="5.5" stroke="#5a9ee4" stroke-width="1.15"/><g font-family="Noto Sans" font-size="14.667" font-style="italic"><text font-weight="400" x="485.96933" y="109.4193">parent_name</text><text fill="#4964a6" font-weight="700" x="588.94434" xml:space="preserve" y="109.4193"> varchar(100)</text><text fill="#25682d" font-weight="400" x="698.31635" y="109.4193">« nn »</text></g><path d="m476.54 124.14-6.7222 6.7222 5.3778 5.3778h6.7222v-6.7222z" fill="url(#D)" stroke="#4c4c98" stroke-width="1.15"/><g font-family="Noto Sans" font-size="14.667" font-style="italic"><text fill="#082061" font-weight="400" x="486.90134" y="136.0193">parent_mobile_pk</text><text fill="#4964a6" font-weight="700" x="605.26031" xml:space="preserve" y="136.0193"> constraint</text><text fill="#25682d" font-weight="400" x="699.56635" y="136.0193">« pk »</text></g><path d="m461.81934 143.788h278.903v7.924l-.182 2.0838-.542 2.0204-.884 1.8958-1.199 1.7135-1.479 1.479-1.714 1.1998-1.896.884-2.02.5414-2.084.1823h-254.903l-2.08378-.1823-2.02046-.5414-1.89576-.884-1.71345-1.1998-1.47908-1.479-1.19977-1.7135-.88401-1.8958-.54138-2.0204-.18231-2.0838z" fill="url(#E)" stroke="#d7d7d7"/><g stroke="#bebebe"><path d="m614.77 148.76h11l-5.5 8.8z" fill="url(#F)" opacity=".4"/><path d="m598.75 148.76-5.5 8.8h11z" fill="url(#G)"/><path d="m575.79 148.82 4.4 4.4-4.4 4.4-4.4-4.4z" fill="url(#H)"/></g><path d="m461.82 53.988.18231-2.0838.54138-2.0205.88401-1.8958 1.1998-1.7134 1.4791-1.4791 1.7134-1.1998 1.8958-.88401 2.0205-.54138 2.0838-.18231h254.9l2.084.18231 2.02.54138 1.896.88401 1.714 1.1998 1.479 1.4791 1.199 1.7134.884 1.8958.542 2.0205.182 2.0838v14h-278.9z" fill="url(#I)" stroke="#3175b0"/><g font-family="Noto Sans" font-size="14.667"><text font-style="italic" font-weight="400" x="554.47565" y="59.321301">public.</text><text fill="#fff" font-weight="700" x="598.81934" y="59.321301">parent</text></g></g></g></svg>