<svg height="179pt" viewBox="0 0 731 179" width="731pt" xmlns="http://www.w3.org/2000/svg" xmlns:xlink="http://www.w3.org/1999/xlink"><linearGradient id="a" x2="0" y2="1"><stop offset="0" stop-color="#a9a9a9" stop-opacity=".19608"/><stop offset="1" stop-color="#a9a9a9" stop-opacity=".19608"/></linearGradient><linearGradient id="b" x2="0" y2="1"><stop offset="0" stop-color="#fcfcfc"/><stop offset="1" stop-color="#fcfcfc"/></linearGradient><linearGradient id="c" x2="0" y2="1"><stop offset="0" stop-color="#ffff80"/><stop offset="1" stop-color="#ffff80"/></linearGradient><linearGradient id="d" x2="0" y2="1"><stop offset="0" stop-color="#d2e9ff"/><stop offset="1" stop-color="#d2e9ff"/></linearGradient><linearGradient id="e" x2="0" y2="1"><stop offset="0" stop-color="#c5cbff"/><stop offset="1" stop-color="#c5cbff"/></linearGradient><linearGradient id="f" x2="0" y2="1"><stop offset="0" stop-color="#f3f3f3"/><stop offset="1" stop-color="#e1e1e1"/></linearGradient><linearGradient id="g" x2="0" y2="1"><stop offset="0" stop-color="#4aa5ff"/><stop offset="1" stop-color="#4aa5ff"/></linearGradient><linearGradient id="h" gradientTransform="matrix(.99946 0 0 1.0005 312.52 82.664)" gradientUnits="userSpaceOnUse" x1="-.75034" x2="-.75034" y1="-.78024" y2="18.89"><stop offset="0" stop-color="#dcdcdc"/><stop offset="1" stop-color="#dcdcdc"/></linearGradient><linearGradient id="i" gradientTransform="matrix(1.6189 0 0 .61772 343.46 120.46)" gradientUnits="userSpaceOnUse" x2="0" xlink:href="#a" y2="46.947"/><linearGradient id="j" gradientTransform="matrix(1.6021 0 0 .62419 335.46 112.46)" gradientUnits="userSpaceOnUse" x1="-.31209" x2="-.31209" y1="-.80104" y2="47.261"><stop offset="0" stop-color="#eeffe0"/><stop offset="1" stop-color="#eeffe0"/></linearGradient><linearGradient id="k" gradientTransform="matrix(1.318 0 0 .75873 9.8193 9.788)" gradientUnits="userSpaceOnUse" x2="0" xlink:href="#a" y2="221.32"/><linearGradient id="l" gradientTransform="matrix(2.0017 0 0 .49957 1.8193 27.788)" gradientUnits="userSpaceOnUse" x1="-.24979" x2="-.24979" xlink:href="#b" y1="-1.0009" y2="144.72"/><linearGradient id="m" gradientTransform="matrix(2.4106 0 0 .41484 1.8193 99.588)" gradientUnits="userSpaceOnUse" x1="-.20742" x2="-.20742" xlink:href="#b" y1="-1.2053" y2="119.8"/><linearGradient id="n" gradientTransform="matrix(.99738 0 0 1.0026 9.8193 34.828)" gradientUnits="userSpaceOnUse" x1="-.57651" x2="-.57651" xlink:href="#c" y1="-.81104" y2="12.474"/><linearGradient id="o" gradientUnits="userSpaceOnUse" x1="9.2443" x2="9.2443" xlink:href="#d" y1="57.438" y2="69.588"/><linearGradient id="p" gradientUnits="userSpaceOnUse" x1="9.2443" x2="9.2443" y1="79.488" y2="92.738"><stop offset="0" stop-color="#ff8769"/><stop offset="1" stop-color="#ff8769"/></linearGradient><linearGradient id="q" gradientTransform="matrix(.98481 0 0 1.0154 9.8193 106.54)" gradientUnits="userSpaceOnUse" x1="-.41286" x2="-.41286" xlink:href="#e" y1="-.80082" y2="12.483"/><linearGradient id="r" gradientTransform="matrix(.98481 0 0 1.0154 9.8193 129.14)" gradientUnits="userSpaceOnUse" x1="-.41286" x2="-.41286" xlink:href="#e" y1="-.80082" y2="12.483"/><linearGradient id="s" gradientTransform="matrix(3.7338 0 0 .26783 1.8193 148.79)" gradientUnits="userSpaceOnUse" x1="-.13391" x2="-.13391" xlink:href="#b" y1="-1.8669" y2="76.258"/><linearGradient id="t" gradientTransform="matrix(1.1144 0 0 .89736 160.67 153.76)" gradientUnits="userSpaceOnUse" x1="-.61828" x2="-.61828" xlink:href="#f" y1="-.76781" y2="10.102"/><linearGradient id="u" gradientTransform="matrix(1.0891 0 0 .9182 139.14 153.76)" gradientUnits="userSpaceOnUse" x1="-.38932" x2="-.38932" xlink:href="#f" y1="-.75038" y2="10.128"/><linearGradient id="v" gradientTransform="matrix(.98191 0 0 1.0184 117.28 153.82)" gradientUnits="userSpaceOnUse" x1="-.36007" x2="-.36007" xlink:href="#f" y1="-.69431" y2="8.988"/><linearGradient id="w" gradientTransform="matrix(3.2871 0 0 .30422 1.8193 1.788)" gradientUnits="userSpaceOnUse" x1="-.16479" x2="-.16479" xlink:href="#g" y1="-1.6436" y2="87.109"/><linearGradient id="x" gradientTransform="matrix(1.5102 0 0 .66216 449.82 49.788)" gradientUnits="userSpaceOnUse" x2="0" xlink:href="#a" y2="185.34"/><linearGradient id="y" gradientTransform="matrix(2.3613 0 0 .42349 441.82 67.788)" gradientUnits="userSpaceOnUse" x1="-.21175" x2="-.21175" xlink:href="#b" y1="-1.1807" y2="117.36"/><linearGradient id="z" gradientTransform="matrix(3.1846 0 0 .31402 441.82 116.99)" gradientUnits="userSpaceOnUse" x1="-.15701" x2="-.15701" xlink:href="#b" y1="-1.5923" y2="86.302"/><linearGradient id="A" gradientTransform="matrix(.99738 0 0 1.0026 449.82 74.828)" gradientUnits="userSpaceOnUse" x1="-.57651" x2="-.57651" xlink:href="#c" y1="-.81104" y2="12.474"/><linearGradient id="B" gradientUnits="userSpaceOnUse" x1="449.24" x2="449.24" xlink:href="#d" y1="97.438" y2="109.59"/><linearGradient id="C" gradientTransform="matrix(.98481 0 0 1.0154 449.82 123.94)" gradientUnits="userSpaceOnUse" x1="-.41286" x2="-.41286" xlink:href="#e" y1="-.80082" y2="12.483"/><linearGradient id="D" gradientTransform="matrix(3.6575 0 0 .27341 441.82 143.59)" gradientUnits="userSpaceOnUse" x1="-.13671" x2="-.13671" xlink:href="#b" y1="-1.8287" y2="74.7"/><linearGradient id="E" gradientTransform="matrix(1.1144 0 0 .89736 594.77 148.56)" gradientUnits="userSpaceOnUse" x1="-.61828" x2="-.61828" xlink:href="#f" y1="-.76781" y2="10.102"/><linearGradient id="F" gradientTransform="matrix(1.0891 0 0 .9182 573.25 148.56)" gradientUnits="userSpaceOnUse" x1="-.38932" x2="-.38932" xlink:href="#f" y1="-.75038" y2="10.128"/><linearGradient id="G" gradientTransform="matrix(.98191 0 0 1.0184 551.39 148.62)" gradientUnits="userSpaceOnUse" x1="-.36007" x2="-.36007" xlink:href="#f" y1="-.69431" y2="8.988"/><linearGradient id="H" gradientTransform="matrix(3.22 0 0 .31056 441.82 41.788)" gradientUnits="userSpaceOnUse" x1="-.16822" x2="-.16822" xlink:href="#g" y1="-1.61" y2="85.33"/><g stroke="#606060" stroke-linecap="square" stroke-linejoin="bevel" stroke-width="1.5"><g fill="none"><path d="m293.52 91.596h33"/><path d="m326.52 91.596c46.65 0 46.65 5.944 93.3 5.944"/><path d="m419.82 97.54h22"/><g transform="translate(293.52 91.596)"><path d="m18 0-18-11"/><path d="m18 0-18 11"/></g></g><circle cx="321.59" cy="91.739" fill="url(#h)" fill-rule="evenodd" r="9.075" stroke-dasharray="6 3"/><g fill="none"><path d="m0-8.8v17.6" transform="translate(431.82 97.54)"/><path d="m0-8.8v17.6" transform="translate(423.82 97.54)"/></g></g><g fill-rule="evenodd"><path d="m343.46 120.46h76v29h-76z" fill="url(#i)"/><path d="m335.46 112.46h76v29h-76z" fill="url(#j)" stroke="#a4b09b" stroke-linecap="square" stroke-linejoin="bevel"/><text style="font-family:Noto Sans;font-size:13.2;font-style:italic;font-weight:400;stroke-linecap:square;stroke-linejoin:bevel" x="342.46432" y="132.1496">has_parent</text><path d="m9.8193 21.788c0-6.6274 5.3726-12 12-12h267.7c6.627 0 12 5.3726 12 12v143.92c0 6.627-5.373 12-12 12h-267.7c-6.6274 0-12-5.373-12-12z" fill="url(#k)"/><g stroke-linecap="square" stroke-linejoin="bevel"><path d="m1.8193 27.788h290.7v71.8h-290.7z" fill="url(#l)" stroke="#d7d7d7"/><path d="m1.8193 99.588h290.7v49.2h-290.7z" fill="url(#m)" stroke="#d7d7d7"/><path d="m12.508 34.828-2.6889 2.6889v6.7222l2.6889 2.6889 1.3444-1.3444v-2.6889h1.3444l1.3444 1.3444 2.6889-2.6889 2.6889 2.6889v-5.3778h-8.0667v-2.6889z" fill="url(#n)" stroke="#897416" stroke-width="1.15"/><g font-family="Noto Sans" font-size="14.667" font-style="italic"><text fill="#2b7dba" font-weight="700" x="27.069338" y="46.619301">student_id</text><text fill="#4964a6" font-weight="700" x="123.41334" xml:space="preserve" y="46.619301"> character(11)</text><text fill="#25682d" font-weight="400" x="251.36334" y="46.619301">« pk »</text></g><circle cx="15.319" cy="63.513" fill="url(#o)" r="5.5" stroke="#5a9ee4" stroke-width="1.15"/><g font-family="Noto Sans" font-size="14.667" font-style="italic"><text font-weight="400" x="25.969337" y="69.219299">student_name</text><text fill="#4964a6" font-weight="700" x="123.41334" xml:space="preserve" y="69.219299"> varchar(100)</text><text fill="#25682d" font-weight="400" x="250.11334" y="69.219299">« nn »</text></g><path d="m9.8193 84.096v4.0333h5.3778v4.0333h1.3444l5.3778-5.3778v-1.3444l-5.3778-5.3778h-1.3444v4.0333z" fill="url(#p)" stroke="#8f341b" stroke-width="1.15"/><g font-family="Noto Sans" font-size="14.667" font-style="italic"><text font-weight="400" x="27.069338" y="91.819298">parent_mobile</text><text fill="#4964a6" font-weight="700" x="123.41334" xml:space="preserve" y="91.819298"> character(11)</text><text fill="#25682d" font-weight="400" x="234.03534" y="91.819298">« fk nn »</text></g><path d="m16.542 106.54-6.7222 6.7222 5.3778 5.3778h6.7222v-6.7222z" fill="url(#q)" stroke="#4c4c98" stroke-width="1.15"/><g font-family="Noto Sans" font-size="14.667" font-style="italic"><text fill="#082061" font-weight="400" x="26.900938" y="118.4193">student_id_pk</text><text fill="#4964a6" font-weight="700" x="141.35434" xml:space="preserve" y="118.4193"> constraint</text><text fill="#25682d" font-weight="400" x="251.36334" y="118.4193">« pk »</text></g><path d="m16.542 129.14-6.7222 6.7222 5.3778 5.3778h6.7222v-6.7222z" fill="url(#r)" stroke="#4c4c98" stroke-width="1.15"/><g font-family="Noto Sans" font-size="14.667" font-style="italic"><text fill="#082061" font-weight="400" x="26.900938" y="141.0193">parent_mobile_fk</text><text fill="#4964a6" font-weight="700" x="141.35434" xml:space="preserve" y="141.0193"> constraint</text><text fill="#25682d" font-weight="400" x="255.26933" y="141.0193">« fk »</text></g><path d="m1.8193 148.79h290.7v7.924l-.182 2.0838-.542 2.0204-.884 1.8958-1.199 1.7135-1.48 1.479-1.713 1.1998-1.896.884-2.02.5414-2.084.1823h-266.7l-2.0838-.1823-2.0205-.5414-1.8958-.884-1.7134-1.1998-1.4791-1.479-1.1998-1.7135-.88401-1.8958-.54138-2.0204-.18231-2.0838z" fill="url(#s)" stroke="#d7d7d7"/><g stroke="#bebebe"><path d="m160.67 153.76h11l-5.5 8.8z" fill="url(#t)" opacity=".4"/><path d="m144.64 153.76-5.5 8.8h11z" fill="url(#u)"/><path d="m121.68 153.82 4.4 4.4-4.4 4.4-4.4-4.4z" fill="url(#v)"/></g><path d="m1.8193 13.788.18231-2.0838.54138-2.0205.88401-1.8958 1.1998-1.7134 1.4791-1.4791 1.7134-1.1998 1.8958-.88401 2.0205-.54138 2.0838-.18231h266.7l2.084.18231 2.02.54138 1.896.88401 1.713 1.1998 1.48 1.4791 1.199 1.7134.884 1.8958.542 2.0205.182 2.0838v14h-290.7z" fill="url(#w)" stroke="#3175b0"/><g font-family="Noto Sans" font-size="14.667"><text font-style="italic" font-weight="400" x="96.241234" y="19.1213">public.</text><text fill="#fff" font-weight="700" x="140.58534" y="19.1213">student</text></g></g><path d="m449.82 61.788c0-6.6274 5.3726-12 12-12h255.9c6.628 0 12 5.3726 12 12v98.724c0 6.627-5.372 12-12 12h-255.9c-6.6274 0-12-5.373-12-12z" fill="url(#x)"/><g stroke-linecap="square" stroke-linejoin="bevel"><path d="m441.82 67.788h278.9v49.2h-278.9z" fill="url(#y)" stroke="#d7d7d7"/><path d="m441.82 116.99h278.9v26.6h-278.9z" fill="url(#z)" stroke="#d7d7d7"/><path d="m452.51 74.828-2.6889 2.6889v6.7222l2.6889 2.6889 1.3444-1.3444v-2.6889h1.3444l1.3444 1.3444 2.6889-2.6889 2.6889 2.6889v-5.3778h-8.0667v-2.6889z" fill="url(#A)" stroke="#897416" stroke-width="1.15"/><g font-family="Noto Sans" font-size="14.667" font-style="italic"><text fill="#2b7dba" font-weight="700" x="467.06934" y="86.619301">parent_mobile</text><text fill="#4964a6" font-weight="700" x="568.94434" xml:space="preserve" y="86.619301"> character(11)</text><text fill="#25682d" font-weight="400" x="679.56635" y="86.619301">« pk »</text></g><circle cx="455.32" cy="103.51" fill="url(#B)" r="5.5" stroke="#5a9ee4" stroke-width="1.15"/><g font-family="Noto Sans" font-size="14.667" font-style="italic"><text font-weight="400" x="465.96933" y="109.2193">parent_name</text><text fill="#4964a6" font-weight="700" x="568.94434" xml:space="preserve" y="109.2193"> varchar(100)</text><text fill="#25682d" font-weight="400" x="678.31635" y="109.2193">« nn »</text></g><path d="m456.54 123.94-6.7222 6.7222 5.3778 5.3778h6.7222v-6.7222z" fill="url(#C)" stroke="#4c4c98" stroke-width="1.15"/><g font-family="Noto Sans" font-size="14.667" font-style="italic"><text fill="#082061" font-weight="400" x="466.90134" y="135.81931">parent_mobile_pk</text><text fill="#4964a6" font-weight="700" x="585.26031" xml:space="preserve" y="135.81931"> constraint</text><text fill="#25682d" font-weight="400" x="679.56635" y="135.81931">« pk »</text></g><path d="m441.81934 143.588h278.903v7.924l-.182 2.0838-.542 2.0204-.884 1.8958-1.199 1.7135-1.479 1.479-1.714 1.1998-1.896.884-2.02.5414-2.084.1823h-254.903l-2.08378-.1823-2.02046-.5414-1.89576-.884-1.71345-1.1998-1.47908-1.479-1.19977-1.7135-.88401-1.8958-.54138-2.0204-.18231-2.0838z" fill="url(#D)" stroke="#d7d7d7"/><g stroke="#bebebe"><path d="m594.77 148.56h11l-5.5 8.8z" fill="url(#E)" opacity=".4"/><path d="m578.75 148.56-5.5 8.8h11z" fill="url(#F)"/><path d="m555.79 148.62 4.4 4.4-4.4 4.4-4.4-4.4z" fill="url(#G)"/></g><path d="m441.82 53.788.18231-2.0838.54138-2.0205.88401-1.8958 1.1998-1.7134 1.4791-1.4791 1.7134-1.1998 1.8958-.88401 2.0205-.54138 2.0838-.18231h254.9l2.084.18231 2.02.54138 1.896.88401 1.714 1.1998 1.479 1.4791 1.199 1.7134.884 1.8958.542 2.0205.182 2.0838v14h-278.9z" fill="url(#H)" stroke="#3175b0"/><g font-family="Noto Sans" font-size="14.667"><text font-style="italic" font-weight="400" x="534.47565" y="59.1213">public.</text><text fill="#fff" font-weight="700" x="578.81934" y="59.1213">parent</text></g></g></g></svg>