<svg height="509pt" viewBox="0 0 750 509" width="750pt" xmlns="http://www.w3.org/2000/svg" xmlns:xlink="http://www.w3.org/1999/xlink"><linearGradient id="a" x2="0" y2="1"><stop offset="0" stop-color="#dcdcdc"/><stop offset="1" stop-color="#dcdcdc"/></linearGradient><linearGradient id="b" x2="0" y2="1"><stop offset="0" stop-color="#a9a9a9" stop-opacity=".19608"/><stop offset="1" stop-color="#a9a9a9" stop-opacity=".19608"/></linearGradient><linearGradient id="c" x2="0" y2="1"><stop offset="0" stop-color="#eeffe0"/><stop offset="1" stop-color="#eeffe0"/></linearGradient><linearGradient id="d" x2="0" y2="1"><stop offset="0" stop-color="#fcfcfc"/><stop offset="1" stop-color="#fcfcfc"/></linearGradient><linearGradient id="e" x2="0" y2="1"><stop offset="0" stop-color="#ffff80"/><stop offset="1" stop-color="#ffff80"/></linearGradient><linearGradient id="f" x2="0" y2="1"><stop offset="0" stop-color="#d2e9ff"/><stop offset="1" stop-color="#d2e9ff"/></linearGradient><linearGradient id="g" x2="0" y2="1"><stop offset="0" stop-color="#c5cbff"/><stop offset="1" stop-color="#c5cbff"/></linearGradient><linearGradient id="h" x2="0" y2="1"><stop offset="0" stop-color="#f3f3f3"/><stop offset="1" stop-color="#e1e1e1"/></linearGradient><linearGradient id="i" x2="0" y2="1"><stop offset="0" stop-color="#4aa5ff"/><stop offset="1" stop-color="#4aa5ff"/></linearGradient><linearGradient id="j" x2="0" y2="1"><stop offset="0" stop-color="#ff8769"/><stop offset="1" stop-color="#ff8769"/></linearGradient><linearGradient id="k" x2="0" y2="1"><stop offset="0" stop-color="#e0e0e0"/><stop offset="1" stop-color="#e0e0e0"/></linearGradient><linearGradient id="l" gradientTransform="matrix(.99946 0 0 1.0005 165.5 121.29)" gradientUnits="userSpaceOnUse" x1="-.75034" x2="-.75034" xlink:href="#a" y1="-.78024" y2="18.89"/><linearGradient id="m" gradientTransform="matrix(1.9028 0 0 .52554 189.89 49.588)" gradientUnits="userSpaceOnUse" x2="0" xlink:href="#b" y2="55.182"/><linearGradient id="n" gradientTransform="matrix(1.8797 0 0 .532 181.89 41.588)" gradientUnits="userSpaceOnUse" x1="-.266" x2="-.266" xlink:href="#c" y1="-.93986" y2="55.452"/><linearGradient id="o" gradientTransform="matrix(.99946 0 0 1.0005 -562.89 -128.38)" gradientUnits="userSpaceOnUse" x1="-.75034" x2="-.75034" xlink:href="#a" y1="-.78024" y2="18.89"/><linearGradient id="p" gradientTransform="matrix(2.0086 0 0 .49786 449.89 149.59)" gradientUnits="userSpaceOnUse" x2="0" xlink:href="#b" y2="58.249"/><linearGradient id="q" gradientTransform="matrix(1.9833 0 0 .50422 441.89 141.59)" gradientUnits="userSpaceOnUse" x1="-.25211" x2="-.25211" xlink:href="#c" y1="-.99163" y2="58.506"/><linearGradient id="r" gradientTransform="matrix(.99946 0 0 1.0005 -302.89 -388.41)" gradientUnits="userSpaceOnUse" x1="-.75034" x2="-.75034" xlink:href="#a" y1="-.78024" y2="18.89"/><linearGradient id="s" gradientTransform="matrix(1.8937 0 0 .52806 209.89 429.59)" gradientUnits="userSpaceOnUse" x2="0" xlink:href="#b" y2="54.918"/><linearGradient id="t" gradientTransform="matrix(1.8708 0 0 .53452 201.89 421.59)" gradientUnits="userSpaceOnUse" x1="-.26726" x2="-.26726" xlink:href="#c" y1="-.93541" y2="55.189"/><linearGradient id="u" gradientTransform="matrix(.99946 0 0 1.0005 -222.59 382.28)" gradientUnits="userSpaceOnUse" x1="-.75034" x2="-.75034" xlink:href="#a" y1="-.78024" y2="18.89"/><linearGradient id="v" gradientTransform="matrix(1.2731 0 0 .78551 343.88 169.59)" gradientUnits="userSpaceOnUse" x2="0" xlink:href="#b" y2="36.919"/><linearGradient id="w" gradientTransform="matrix(1.2649 0 0 .79057 335.88 161.59)" gradientUnits="userSpaceOnUse" x1="-.39528" x2="-.39528" xlink:href="#c" y1="-.63246" y2="37.315"/><linearGradient id="x" gradientTransform="matrix(1.0022 0 0 .99785 329.89 9.588)" gradientUnits="userSpaceOnUse" x2="0" xlink:href="#b" y2="122.99"/><linearGradient id="y" gradientTransform="matrix(1.5669 0 0 .63819 321.89 27.588)" gradientUnits="userSpaceOnUse" x1="-.3191" x2="-.3191" xlink:href="#d" y1="-.78346" y2="77.876"/><linearGradient id="z" gradientTransform="matrix(2.1132 0 0 .47321 321.89 76.788)" gradientUnits="userSpaceOnUse" x1="-.23661" x2="-.23661" xlink:href="#d" y1="-1.0566" y2="57.268"/><linearGradient id="A" gradientTransform="matrix(.99738 0 0 1.0026 329.89 34.628)" gradientUnits="userSpaceOnUse" x1="-.57651" x2="-.57651" xlink:href="#e" y1="-.81104" y2="12.474"/><linearGradient id="B" gradientUnits="userSpaceOnUse" x1="329.31" x2="329.31" xlink:href="#f" y1="57.238" y2="69.388"/><linearGradient id="C" gradientTransform="matrix(.98481 0 0 1.0154 329.89 83.744)" gradientUnits="userSpaceOnUse" x1="-.41286" x2="-.41286" xlink:href="#g" y1="-.80082" y2="12.483"/><linearGradient id="D" gradientTransform="matrix(2.427 0 0 .41203 321.89 103.39)" gradientUnits="userSpaceOnUse" x1="-.20601" x2="-.20601" xlink:href="#d" y1="-1.2135" y2="49.57"/><linearGradient id="E" gradientTransform="matrix(1.1144 0 0 .89736 396.51 108.36)" gradientUnits="userSpaceOnUse" x1="-.61828" x2="-.61828" xlink:href="#h" y1="-.76781" y2="10.102"/><linearGradient id="F" gradientTransform="matrix(1.0891 0 0 .9182 374.99 108.36)" gradientUnits="userSpaceOnUse" x1="-.38932" x2="-.38932" xlink:href="#h" y1="-.75038" y2="10.128"/><linearGradient id="G" gradientTransform="matrix(.98191 0 0 1.0184 353.13 108.42)" gradientUnits="userSpaceOnUse" x1="-.36007" x2="-.36007" xlink:href="#h" y1="-.69431" y2="8.988"/><linearGradient id="H" gradientTransform="matrix(2.1369 0 0 .46796 321.89 1.588)" gradientUnits="userSpaceOnUse" x1="-.25348" x2="-.25348" xlink:href="#i" y1="-1.0685" y2="56.629"/><linearGradient id="I" gradientTransform="matrix(.74821 0 0 1.3365 9.8863 29.588)" gradientUnits="userSpaceOnUse" x2="0" xlink:href="#b" y2="193.28"/><linearGradient id="J" gradientTransform="matrix(.94133 0 0 1.0623 1.8863 47.588)" gradientUnits="userSpaceOnUse" x1="-.53116" x2="-.53116" xlink:href="#d" y1="-.47067" y2="153.15"/><linearGradient id="K" gradientTransform="matrix(1.6973 0 0 .58918 1.8863 209.79)" gradientUnits="userSpaceOnUse" x1="-.29459" x2="-.29459" xlink:href="#d" y1="-.84864" y2="84.354"/><linearGradient id="L" gradientTransform="matrix(.99738 0 0 1.0026 9.8863 54.628)" gradientUnits="userSpaceOnUse" x1="-.57651" x2="-.57651" xlink:href="#e" y1="-.81104" y2="12.474"/><linearGradient id="M" gradientUnits="userSpaceOnUse" x1="9.3113" x2="9.3113" xlink:href="#j" y1="76.688" y2="89.938"/><linearGradient id="N" gradientUnits="userSpaceOnUse" x1="9.3113" x2="9.3113" xlink:href="#f" y1="99.838" y2="111.99"/><linearGradient id="O" gradientUnits="userSpaceOnUse" x1="9.3113" x2="9.3113" xlink:href="#k" y1="122.44" y2="134.59"/><linearGradient id="P" gradientUnits="userSpaceOnUse" x1="9.3113" x2="9.3113" xlink:href="#f" y1="145.04" y2="157.19"/><linearGradient id="Q" gradientUnits="userSpaceOnUse" x1="9.3113" x2="9.3113" xlink:href="#f" y1="167.64" y2="179.79"/><linearGradient id="R" gradientUnits="userSpaceOnUse" x1="9.3113" x2="9.3113" xlink:href="#k" y1="190.24" y2="202.39"/><linearGradient id="S" gradientTransform="matrix(.98481 0 0 1.0154 9.8863 216.74)" gradientUnits="userSpaceOnUse" x1="-.41286" x2="-.41286" xlink:href="#g" y1="-.80082" y2="12.483"/><linearGradient id="T" gradientTransform="matrix(.98481 0 0 1.0154 9.8863 239.34)" gradientUnits="userSpaceOnUse" x1="-.41286" x2="-.41286" xlink:href="#g" y1="-.80082" y2="12.483"/><linearGradient id="U" gradientTransform="matrix(2.6289 0 0 .38038 1.8863 258.99)" gradientUnits="userSpaceOnUse" x1="-.19019" x2="-.19019" xlink:href="#d" y1="-1.3145" y2="53.694"/><linearGradient id="V" gradientTransform="matrix(1.1144 0 0 .89736 87.191 263.96)" gradientUnits="userSpaceOnUse" x1="-.61828" x2="-.61828" xlink:href="#h" y1="-.76781" y2="10.102"/><linearGradient id="W" gradientTransform="matrix(1.0891 0 0 .9182 65.667 263.96)" gradientUnits="userSpaceOnUse" x1="-.38932" x2="-.38932" xlink:href="#h" y1="-.75038" y2="10.128"/><linearGradient id="X" gradientTransform="matrix(.98191 0 0 1.0184 43.807 264.02)" gradientUnits="userSpaceOnUse" x1="-.36007" x2="-.36007" xlink:href="#h" y1="-.69431" y2="8.988"/><linearGradient id="Y" gradientTransform="matrix(2.3146 0 0 .43203 1.8863 21.588)" gradientUnits="userSpaceOnUse" x1="-.23402" x2="-.23402" xlink:href="#i" y1="-1.1573" y2="61.338"/><linearGradient id="Z" gradientTransform="matrix(.75178 0 0 1.3302 589.89 9.588)" gradientUnits="userSpaceOnUse" x2="0" xlink:href="#b" y2="211.19"/><linearGradient id="aa" gradientTransform="matrix(.9244 0 0 1.0818 581.89 27.588)" gradientUnits="userSpaceOnUse" x1="-.54089" x2="-.54089" xlink:href="#d" y1="-.4622" y2="171.29"/><linearGradient id="ab" gradientTransform="matrix(1.7784 0 0 .5623 581.89 212.39)" gradientUnits="userSpaceOnUse" x1="-.28115" x2="-.28115" xlink:href="#d" y1="-.8892" y2="88.387"/><linearGradient id="ac" gradientTransform="matrix(.99738 0 0 1.0026 589.89 34.628)" gradientUnits="userSpaceOnUse" x1="-.57651" x2="-.57651" xlink:href="#e" y1="-.81104" y2="12.474"/><linearGradient id="ad" gradientUnits="userSpaceOnUse" x1="589.31" x2="589.31" xlink:href="#j" y1="56.688" y2="69.938"/><linearGradient id="ae" gradientUnits="userSpaceOnUse" x1="589.31" x2="589.31" xlink:href="#f" y1="79.838" y2="91.988"/><linearGradient id="af" gradientUnits="userSpaceOnUse" x1="589.31" x2="589.31" xlink:href="#k" y1="102.44" y2="114.59"/><linearGradient id="ag" gradientUnits="userSpaceOnUse" x1="589.31" x2="589.31" xlink:href="#f" y1="125.04" y2="137.19"/><linearGradient id="ah" gradientUnits="userSpaceOnUse" x1="589.31" x2="589.31" xlink:href="#k" y1="147.64" y2="159.79"/><linearGradient id="ai" gradientUnits="userSpaceOnUse" x1="589.31" x2="589.31" xlink:href="#f" y1="170.24" y2="182.39"/><linearGradient id="aj" gradientUnits="userSpaceOnUse" x1="589.31" x2="589.31" xlink:href="#f" y1="192.84" y2="204.99"/><linearGradient id="ak" gradientTransform="matrix(.98481 0 0 1.0154 589.89 219.34)" gradientUnits="userSpaceOnUse" x1="-.41286" x2="-.41286" xlink:href="#g" y1="-.80082" y2="12.483"/><linearGradient id="al" gradientTransform="matrix(.98481 0 0 1.0154 589.89 241.94)" gradientUnits="userSpaceOnUse" x1="-.41286" x2="-.41286" xlink:href="#g" y1="-.80082" y2="12.483"/><linearGradient id="am" gradientTransform="matrix(2.7546 0 0 .36303 581.89 261.59)" gradientUnits="userSpaceOnUse" x1="-.18151" x2="-.18151" xlink:href="#d" y1="-1.3773" y2="56.26"/><linearGradient id="an" gradientTransform="matrix(1.1144 0 0 .89736 674.27 266.56)" gradientUnits="userSpaceOnUse" x1="-.61828" x2="-.61828" xlink:href="#h" y1="-.76781" y2="10.102"/><linearGradient id="ao" gradientTransform="matrix(1.0891 0 0 .9182 652.75 266.56)" gradientUnits="userSpaceOnUse" x1="-.38932" x2="-.38932" xlink:href="#h" y1="-.75038" y2="10.128"/><linearGradient id="ap" gradientTransform="matrix(.98191 0 0 1.0184 630.89 266.62)" gradientUnits="userSpaceOnUse" x1="-.36007" x2="-.36007" xlink:href="#h" y1="-.69431" y2="8.988"/><linearGradient id="aq" gradientTransform="matrix(2.4253 0 0 .41233 581.89 1.588)" gradientUnits="userSpaceOnUse" x1="-.22335" x2="-.22335" xlink:href="#i" y1="-1.2126" y2="64.269"/><linearGradient id="ar" gradientTransform="matrix(.95344 0 0 1.0488 29.886 329.59)" gradientUnits="userSpaceOnUse" x2="0" xlink:href="#b" y2="160.1"/><linearGradient id="as" gradientTransform="matrix(1.448 0 0 .69059 21.886 347.59)" gradientUnits="userSpaceOnUse" x1="-.34529" x2="-.34529" xlink:href="#d" y1="-.72402" y2="104.69"/><linearGradient id="at" gradientTransform="matrix(1.7438 0 0 .57346 21.886 419.39)" gradientUnits="userSpaceOnUse" x1="-.28673" x2="-.28673" xlink:href="#d" y1="-.8719" y2="86.667"/><linearGradient id="au" gradientTransform="matrix(.99738 0 0 1.0026 29.886 354.63)" gradientUnits="userSpaceOnUse" x1="-.57651" x2="-.57651" xlink:href="#e" y1="-.81104" y2="12.474"/><linearGradient id="av" gradientTransform="matrix(.99113 0 0 1.0089 29.886 377.14)" gradientUnits="userSpaceOnUse" x1="-.58014" x2="-.58014" y1="-.80596" y2="12.563"><stop offset="0" stop-color="#f5c000"/><stop offset="1" stop-color="#f5c000"/></linearGradient><linearGradient id="aw" gradientUnits="userSpaceOnUse" x1="29.311" x2="29.311" xlink:href="#f" y1="399.84" y2="411.99"/><linearGradient id="ax" gradientTransform="matrix(.98481 0 0 1.0154 29.886 426.34)" gradientUnits="userSpaceOnUse" x1="-.41286" x2="-.41286" xlink:href="#g" y1="-.80082" y2="12.483"/><linearGradient id="ay" gradientTransform="matrix(.98481 0 0 1.0154 29.886 448.94)" gradientUnits="userSpaceOnUse" x1="-.41286" x2="-.41286" xlink:href="#g" y1="-.80082" y2="12.483"/><linearGradient id="az" gradientTransform="matrix(2.701 0 0 .37023 21.886 468.59)" gradientUnits="userSpaceOnUse" x1="-.18512" x2="-.18512" xlink:href="#d" y1="-1.3505" y2="55.165"/><linearGradient id="aA" gradientTransform="matrix(1.1144 0 0 .89736 111.21 473.56)" gradientUnits="userSpaceOnUse" x1="-.61828" x2="-.61828" xlink:href="#h" y1="-.76781" y2="10.102"/><linearGradient id="aB" gradientTransform="matrix(1.0891 0 0 .9182 89.686 473.56)" gradientUnits="userSpaceOnUse" x1="-.38932" x2="-.38932" xlink:href="#h" y1="-.75038" y2="10.128"/><linearGradient id="aC" gradientTransform="matrix(.98191 0 0 1.0184 67.825 473.62)" gradientUnits="userSpaceOnUse" x1="-.36007" x2="-.36007" xlink:href="#h" y1="-.69431" y2="8.988"/><linearGradient id="aD" gradientTransform="matrix(2.3781 0 0 .42051 21.886 321.59)" gradientUnits="userSpaceOnUse" x1="-.22778" x2="-.22778" xlink:href="#i" y1="-1.189" y2="63.019"/><linearGradient id="aE" gradientTransform="matrix(.76151 0 0 1.3132 329.89 249.59)" gradientUnits="userSpaceOnUse" x2="0" xlink:href="#b" y2="196.72"/><linearGradient id="aF" gradientTransform="matrix(1.0322 0 0 .96881 321.89 267.59)" gradientUnits="userSpaceOnUse" x1="-.4844" x2="-.4844" xlink:href="#d" y1="-.5161" y2="144.61"/><linearGradient id="aG" gradientTransform="matrix(1.4345 0 0 .69712 321.89 407.19)" gradientUnits="userSpaceOnUse" x1="-.34856" x2="-.34856" xlink:href="#d" y1="-.71723" y2="103.71"/><linearGradient id="aH" gradientTransform="matrix(.99738 0 0 1.0026 329.89 274.63)" gradientUnits="userSpaceOnUse" x1="-.57651" x2="-.57651" xlink:href="#e" y1="-.81104" y2="12.474"/><linearGradient id="aI" gradientUnits="userSpaceOnUse" x1="329.31" x2="329.31" xlink:href="#j" y1="296.69" y2="309.94"/><linearGradient id="aJ" gradientUnits="userSpaceOnUse" x1="329.31" x2="329.31" xlink:href="#j" y1="319.29" y2="332.54"/><linearGradient id="aK" gradientUnits="userSpaceOnUse" x1="329.31" x2="329.31" xlink:href="#f" y1="342.44" y2="354.59"/><linearGradient id="aL" gradientUnits="userSpaceOnUse" x1="329.31" x2="329.31" xlink:href="#f" y1="365.04" y2="377.19"/><linearGradient id="aM" gradientUnits="userSpaceOnUse" x1="329.31" x2="329.31" xlink:href="#k" y1="387.64" y2="399.79"/><linearGradient id="aN" gradientTransform="matrix(.98481 0 0 1.0154 329.89 414.14)" gradientUnits="userSpaceOnUse" x1="-.41286" x2="-.41286" xlink:href="#g" y1="-.80082" y2="12.483"/><linearGradient id="aO" gradientTransform="matrix(.98481 0 0 1.0154 329.89 436.74)" gradientUnits="userSpaceOnUse" x1="-.41286" x2="-.41286" xlink:href="#g" y1="-.80082" y2="12.483"/><linearGradient id="aP" gradientTransform="matrix(.98481 0 0 1.0154 329.89 459.34)" gradientUnits="userSpaceOnUse" x1="-.41286" x2="-.41286" xlink:href="#g" y1="-.80082" y2="12.483"/><linearGradient id="aQ" gradientTransform="matrix(2.6757 0 0 .37374 321.89 478.99)" gradientUnits="userSpaceOnUse" x1="-.18687" x2="-.18687" xlink:href="#d" y1="-1.3378" y2="54.648"/><linearGradient id="aR" gradientTransform="matrix(1.1144 0 0 .89736 409.79 483.96)" gradientUnits="userSpaceOnUse" x1="-.61828" x2="-.61828" xlink:href="#h" y1="-.76781" y2="10.102"/><linearGradient id="aS" gradientTransform="matrix(1.0891 0 0 .9182 388.26 483.96)" gradientUnits="userSpaceOnUse" x1="-.38932" x2="-.38932" xlink:href="#h" y1="-.75038" y2="10.128"/><linearGradient id="aT" gradientTransform="matrix(.98191 0 0 1.0184 366.4 484.02)" gradientUnits="userSpaceOnUse" x1="-.36007" x2="-.36007" xlink:href="#h" y1="-.69431" y2="8.988"/><linearGradient id="aU" gradientTransform="matrix(2.3558 0 0 .42449 321.89 241.59)" gradientUnits="userSpaceOnUse" x1="-.22994" x2="-.22994" xlink:href="#i" y1="-1.1779" y2="62.428"/><g stroke="#606060" stroke-linecap="square" stroke-linejoin="bevel" stroke-width="1.5"><g fill="none"><path d="m146.5 130.23h33"/><path d="m179.5 130.23c60.193 0 60.193-49.783 120.39-49.783"/><path d="m299.89 80.443h22"/><g transform="translate(146.5 130.23)"><path d="m18 0-18-11"/><path d="m18 0-18 11"/></g></g><circle cx="174.57" cy="130.37" fill="url(#l)" fill-rule="evenodd" r="9.075" stroke-dasharray="6 3"/><g fill="none"><path d="m0-8.8v17.6" transform="translate(311.89 80.443)"/><path d="m0-8.8v17.6" transform="translate(303.89 80.443)"/></g></g><path d="m189.89 49.588h105v29h-105z" fill="url(#m)" fill-rule="evenodd"/><g stroke-linecap="square" stroke-linejoin="bevel"><path d="m181.89 41.588h105v29h-105z" fill="url(#n)" fill-rule="evenodd" stroke="#a4b09b"/><text fill-rule="evenodd" font-family="Noto Sans" font-size="13.2" font-style="italic" font-weight="400" x="188.88634" y="61.278599">name_of_person</text><g stroke="#606060" stroke-width="1.5"><g fill="none"><path d="m581.89 119.44h-33"/><path d="m548.89 119.44c-40.873 0-40.873-38.943-81.747-38.943"/><path d="m467.14 80.5h-22"/><g transform="matrix(-1 0 0 -1 581.89 119.44)"><path d="m18 0-18-11"/><path d="m18 0-18 11"/></g></g><circle cx="-553.81" cy="-119.3" fill="url(#o)" fill-rule="evenodd" r="9.075" stroke-dasharray="6 3" transform="scale(-1)"/><g fill="none"><path d="m0-8.8v17.6" transform="matrix(-1 0 0 -1 455.14 80.5)"/><path d="m0-8.8v17.6" transform="matrix(-1 0 0 -1 463.14 80.5)"/></g></g></g><path d="m449.89 149.59h117v29h-117z" fill="url(#p)" fill-rule="evenodd"/><g stroke-linecap="square" stroke-linejoin="bevel"><path d="m441.89 141.59h117v29h-117z" fill="url(#q)" fill-rule="evenodd" stroke="#a4b09b"/><text fill-rule="evenodd" font-family="Noto Sans" font-size="13.2" font-style="italic" font-weight="400" x="448.88635" y="161.27859">address_of_person</text><g stroke="#606060" stroke-width="1.5"><g fill="none"><path d="m321.89 379.48h-33"/><path d="m288.89 379.48c-46.175 0-46.175 17.174-92.35 17.174"/><path d="m196.54 396.65h-22"/><g transform="matrix(-1 0 0 -1 321.89 379.48)"><path d="m18 0-18-11"/><path d="m18 0-18 11"/></g></g><circle cx="-293.81" cy="-379.34" fill="url(#r)" fill-rule="evenodd" r="9.075" stroke-dasharray="6 3" transform="scale(-1)"/><g fill="none"><path d="m0-8.8v17.6" transform="matrix(-1 0 0 -1 184.54 396.65)"/><path d="m0-8.8v17.6" transform="matrix(-1 0 0 -1 192.54 396.65)"/></g></g></g><path d="m209.89 429.59h104v29h-104z" fill="url(#s)" fill-rule="evenodd"/><g stroke-linecap="square" stroke-linejoin="bevel"><path d="m201.89 421.59h104v29h-104z" fill="url(#t)" fill-rule="evenodd" stroke="#a4b09b"/><text fill-rule="evenodd" font-family="Noto Sans" font-size="13.2" font-style="italic" font-weight="400" x="208.88634" y="441.27863">belongs_to_type</text><g stroke="#606060" stroke-width="1.5"><g fill="none"><path d="m391.22 241.59v-33"/><path d="m386.16 146.31c0 31.138 5.057 31.138 5.057 62.276"/><path d="m386.16 146.31v-22"/><g transform="matrix(0 -1 1 0 391.22 241.59)"><path d="m18 0-18-11"/><path d="m18 0-18 11"/></g></g><circle cx="-213.51" cy="391.36" fill="url(#u)" fill-rule="evenodd" r="9.075" stroke-dasharray="6 3" transform="rotate(-90)"/><g fill="none"><path d="m0-8.8v17.6" transform="matrix(0 -1 1 0 386.16 134.31)"/><path d="m0-8.8v17.6" transform="matrix(0 -1 1 0 386.16 142.31)"/></g></g></g><g fill-rule="evenodd"><path d="m343.88 169.59h47v29h-47z" fill="url(#v)"/><path d="m335.88 161.59h47v29h-47z" fill="url(#w)" stroke="#a4b09b" stroke-linecap="square" stroke-linejoin="bevel"/><text style="font-family:Noto Sans;font-size:13.2;font-style:italic;font-weight:400;stroke-linecap:square;stroke-linejoin:bevel" x="342.8826" y="181.27859">has_id</text><path d="m329.89 21.588c0-6.6274 5.3726-12 12-12h99.253c6.628 0 12 5.3726 12 12v98.724c0 6.627-5.372 12-12 12h-99.253c-6.6274 0-12-5.373-12-12z" fill="url(#x)"/><g stroke-linecap="square" stroke-linejoin="bevel"><path d="m321.89 27.588h122.25v49.2h-122.25z" fill="url(#y)" stroke="#d7d7d7"/><path d="m321.89 76.788h122.25v26.6h-122.25z" fill="url(#z)" stroke="#d7d7d7"/><path d="m332.58 34.628-2.6889 2.6889v6.7222l2.6889 2.6889 1.3444-1.3444v-2.6889h1.3444l1.3444 1.3444 2.6889-2.6889 2.6889 2.6889v-5.3778h-8.0667v-2.6889z" fill="url(#A)" stroke="#897416" stroke-width="1.15"/><text fill="#2b7dba" font-family="Noto Sans" font-size="14.667" font-style="italic" font-weight="700" x="347.13635" y="46.4193">id</text><circle cx="335.39" cy="63.313" fill="url(#B)" r="5.5" stroke="#5a9ee4" stroke-width="1.15"/><text font-family="Noto Sans" font-size="14.667" font-style="italic" font-weight="400" x="346.03635" y="69.019295">date_of_birth</text><path d="m336.61 83.744-6.7222 6.7222 5.3778 5.3778h6.7222v-6.7222z" fill="url(#C)" stroke="#4c4c98" stroke-width="1.15"/><text fill="#082061" font-family="Noto Sans" font-size="14.667" font-style="italic" font-weight="400" x="346.96835" y="95.619301">person_id_pk</text><path d="m321.88634 103.388h122.253v7.924l-.182 2.0838-.541 2.0204-.884 1.8958-1.2 1.7135-1.479 1.479-1.714 1.1998-1.895.884-2.021.5414-2.084.1823h-98.253l-2.08378-.1823-2.02046-.5414-1.89576-.884-1.71345-1.1998-1.47908-1.479-1.19977-1.7135-.88401-1.8958-.54138-2.0204-.18231-2.0838z" fill="url(#D)" stroke="#d7d7d7"/><g stroke="#bebebe"><path d="m396.51 108.36h11l-5.5 8.8z" fill="url(#E)" opacity=".4"/><path d="m380.49 108.36-5.5 8.8h11z" fill="url(#F)"/><path d="m357.53 108.42 4.4 4.4-4.4 4.4-4.4-4.4z" fill="url(#G)"/></g><path d="m321.89 13.588.18231-2.0838.54138-2.0205.88401-1.8958 1.1998-1.7134 1.4791-1.4791 1.7134-1.1998 1.8958-.88401 2.0205-.54138 2.0838-.18231h98.253l2.084.18231 2.021.54138 1.895.88401 1.714 1.1998 1.479 1.4791 1.2 1.7134.884 1.8958.541 2.0205.182 2.0838v14h-122.25z" fill="url(#H)" stroke="#3175b0"/><g font-family="Noto Sans" font-size="14.667"><text font-style="italic" font-weight="400" x="335.48016" y="18.921299">public.</text><text fill="#fff" font-weight="700" x="379.82385" y="18.921299">person</text></g></g><path d="m9.8863 41.588c0-6.6274 5.3726-12 12-12h120.61c6.627 0 12 5.3726 12 12v234.32c0 6.627-5.373 12-12 12h-120.61c-6.6274 0-12-5.373-12-12z" fill="url(#I)"/><g stroke-linecap="square" stroke-linejoin="bevel"><path d="m1.8863 47.588h143.61v162.2h-143.61z" fill="url(#J)" stroke="#d7d7d7"/><path d="m1.8863 209.79h143.61v49.2h-143.61z" fill="url(#K)" stroke="#d7d7d7"/><path d="m12.575 54.628-2.6889 2.6889v6.7222l2.6889 2.6889 1.3444-1.3444v-2.6889h1.3444l1.3444 1.3444 2.6889-2.6889 2.6889 2.6889v-5.3778h-8.0667v-2.6889z" fill="url(#L)" stroke="#897416" stroke-width="1.15"/><text fill="#2b7dba" font-family="Noto Sans" font-size="14.667" font-style="italic" font-weight="700" x="27.136337" y="66.419296">id</text><path d="m9.8863 81.296v4.0333h5.3778v4.0333h1.3444l5.3778-5.3778v-1.3444l-5.3778-5.3778h-1.3444v4.0333z" fill="url(#M)" stroke="#8f341b" stroke-width="1.15"/><text font-family="Noto Sans" font-size="14.667" font-style="italic" font-weight="400" x="27.136337" y="89.019295">person</text><circle cx="15.386" cy="105.91" fill="url(#N)" r="5.5" stroke="#5a9ee4" stroke-width="1.15"/><text font-family="Noto Sans" font-size="14.667" font-style="italic" font-weight="400" x="26.036339" y="111.6193">full_name</text><circle cx="15.386" cy="128.51" fill="url(#O)" r="5.5" stroke="#808080" stroke-width="1.15"/><text font-family="'Noto Sans'" font-size="14.667" font-weight="400" x="26.036339" y="134.2193">salutation</text><circle cx="15.386" cy="151.11" fill="url(#P)" r="5.5" stroke="#5a9ee4" stroke-width="1.15"/><text font-family="Noto Sans" font-size="14.667" font-style="italic" font-weight="400" x="26.036339" y="156.81929">is_official</text><circle cx="15.386" cy="173.71" fill="url(#Q)" r="5.5" stroke="#5a9ee4" stroke-width="1.15"/><text font-family="Noto Sans" font-size="14.667" font-style="italic" font-weight="400" x="26.036339" y="179.4193">start_date</text><circle cx="15.386" cy="196.31" fill="url(#R)" r="5.5" stroke="#808080" stroke-width="1.15"/><text font-family="'Noto Sans'" font-size="14.667" font-weight="400" x="26.036339" y="202.0193">end_date</text><path d="m16.609 216.74-6.7222 6.7222 5.3778 5.3778h6.7222v-6.7222z" fill="url(#S)" stroke="#4c4c98" stroke-width="1.15"/><text fill="#082061" font-family="Noto Sans" font-size="14.667" font-style="italic" font-weight="400" x="26.967937" y="228.61929">name_id_pk</text><path d="m16.609 239.34-6.7222 6.7222 5.3778 5.3778h6.7222v-6.7222z" fill="url(#T)" stroke="#4c4c98" stroke-width="1.15"/><text fill="#082061" font-family="Noto Sans" font-size="14.667" font-style="italic" font-weight="400" x="26.967937" y="251.21928">name_person_fk</text><path d="m1.8863 258.99h143.61v7.924l-.182 2.0838-.542 2.0204-.884 1.8958-1.2 1.7135-1.479 1.479-1.713 1.1998-1.896.884-2.02.5414-2.084.1823h-119.61l-2.0838-.1823-2.0205-.5414-1.8958-.884-1.7134-1.1998-1.4791-1.479-1.1998-1.7135-.88401-1.8958-.54138-2.0204-.18231-2.0838z" fill="url(#U)" stroke="#d7d7d7"/><g stroke="#bebebe"><path d="m87.191 263.96h11l-5.5 8.8z" fill="url(#V)" opacity=".4"/><path d="m71.167 263.96-5.5 8.8h11z" fill="url(#W)"/><path d="m48.207 264.02 4.4 4.4-4.4 4.4-4.4-4.4z" fill="url(#X)"/></g><path d="m1.8863 33.588.18231-2.0838.54138-2.0205.88401-1.8958 1.1998-1.7134 1.4791-1.4791 1.7134-1.1998 1.8958-.88401 2.0205-.54138 2.0838-.18231h119.61l2.084.18231 2.02.54138 1.896.88401 1.713 1.1998 1.479 1.4791 1.2 1.7134.884 1.8958.542 2.0205.182 2.0838v14h-143.61z" fill="url(#Y)" stroke="#3175b0"/><g font-family="Noto Sans" font-size="14.667"><text font-style="italic" font-weight="400" x="30.776939" y="38.921299">public.</text><text fill="#fff" font-weight="700" x="75.120735" y="38.921299">name</text></g></g><path d="m589.89 21.588c0-6.6274 5.3726-12 12-12h134.77c6.628 0 12 5.3726 12 12v256.92c0 6.627-5.372 12-12 12h-134.77c-6.6274 0-12-5.373-12-12z" fill="url(#Z)"/><g stroke-linecap="square" stroke-linejoin="bevel"><path d="m581.89 27.588h157.77v184.8h-157.77z" fill="url(#aa)" stroke="#d7d7d7"/><path d="m581.89 212.39h157.77v49.2h-157.77z" fill="url(#ab)" stroke="#d7d7d7"/><path d="m592.58 34.628-2.6889 2.6889v6.7222l2.6889 2.6889 1.3444-1.3444v-2.6889h1.3444l1.3444 1.3444 2.6889-2.6889 2.6889 2.6889v-5.3778h-8.0667v-2.6889z" fill="url(#ac)" stroke="#897416" stroke-width="1.15"/><text fill="#2b7dba" font-family="Noto Sans" font-size="14.667" font-style="italic" font-weight="700" x="607.13635" y="46.4193">id</text><path d="m589.89 61.296v4.0333h5.3778v4.0333h1.3444l5.3778-5.3778v-1.3444l-5.3778-5.3778h-1.3444v4.0333z" fill="url(#ad)" stroke="#8f341b" stroke-width="1.15"/><text font-family="Noto Sans" font-size="14.667" font-style="italic" font-weight="400" x="607.13635" y="69.019295">person</text><circle cx="595.39" cy="85.913" fill="url(#ae)" r="5.5" stroke="#5a9ee4" stroke-width="1.15"/><text font-family="Noto Sans" font-size="14.667" font-style="italic" font-weight="400" x="606.03638" y="91.619301">country</text><circle cx="595.39" cy="108.51" fill="url(#af)" r="5.5" stroke="#808080" stroke-width="1.15"/><text font-family="'Noto Sans'" font-size="14.667" font-weight="400" x="606.03638" y="114.2193">province</text><circle cx="595.39" cy="131.11" fill="url(#ag)" r="5.5" stroke="#5a9ee4" stroke-width="1.15"/><text font-family="Noto Sans" font-size="14.667" font-style="italic" font-weight="400" x="606.03638" y="136.81929">city</text><circle cx="595.39" cy="153.71" fill="url(#ah)" r="5.5" stroke="#808080" stroke-width="1.15"/><text font-family="'Noto Sans'" font-size="14.667" font-weight="400" x="606.03638" y="159.4193">district</text><circle cx="595.39" cy="176.31" fill="url(#ai)" r="5.5" stroke="#5a9ee4" stroke-width="1.15"/><text font-family="Noto Sans" font-size="14.667" font-style="italic" font-weight="400" x="606.03638" y="182.0193">postal_code</text><circle cx="595.39" cy="198.91" fill="url(#aj)" r="5.5" stroke="#5a9ee4" stroke-width="1.15"/><text font-family="Noto Sans" font-size="14.667" font-style="italic" font-weight="400" x="606.03638" y="204.61929">street_address</text><path d="m596.61 219.34-6.7222 6.7222 5.3778 5.3778h6.7222v-6.7222z" fill="url(#ak)" stroke="#4c4c98" stroke-width="1.15"/><text fill="#082061" font-family="Noto Sans" font-size="14.667" font-style="italic" font-weight="400" x="606.96832" y="231.2193">address_id_pk</text><path d="m596.61 241.94-6.7222 6.7222 5.3778 5.3778h6.7222v-6.7222z" fill="url(#al)" stroke="#4c4c98" stroke-width="1.15"/><text fill="#082061" font-family="Noto Sans" font-size="14.667" font-style="italic" font-weight="400" x="606.96832" y="253.81929">address_person_fk</text><path d="m581.88634 261.588h157.769v7.924l-.182 2.0838-.542 2.0204-.884 1.8958-1.199 1.7135-1.479 1.479-1.714 1.1998-1.896.884-2.02.5414-2.084.1823h-133.769l-2.08378-.1823-2.02046-.5414-1.89576-.884-1.71345-1.1998-1.47908-1.479-1.19977-1.7135-.88401-1.8958-.54138-2.0204-.18231-2.0838z" fill="url(#am)" stroke="#d7d7d7"/><g stroke="#bebebe"><path d="m674.27 266.56h11l-5.5 8.8z" fill="url(#an)" opacity=".4"/><path d="m658.25 266.56-5.5 8.8h11z" fill="url(#ao)"/><path d="m635.29 266.62 4.4 4.4-4.4 4.4-4.4-4.4z" fill="url(#ap)"/></g><path d="m581.89 13.588.18231-2.0838.54138-2.0205.88401-1.8958 1.1998-1.7134 1.4791-1.4791 1.7134-1.1998 1.8958-.88401 2.0205-.54138 2.0838-.18231h133.77l2.084.18231 2.02.54138 1.896.88401 1.714 1.1998 1.479 1.4791 1.199 1.7134.884 1.8958.542 2.0205.182 2.0838v14h-157.77z" fill="url(#aq)" stroke="#3175b0"/><g font-family="Noto Sans" font-size="14.667"><text font-style="italic" font-weight="400" x="609.94885" y="18.921299">public.</text><text fill="#fff" font-weight="700" x="654.29266" y="18.921299">address</text></g></g><path d="m29.886 341.59c0-6.6274 5.3726-12 12-12h128.65c6.627 0 12 5.3726 12 12v143.92c0 6.627-5.373 12-12 12h-128.65c-6.6274 0-12-5.373-12-12z" fill="url(#ar)"/><g stroke-linecap="square" stroke-linejoin="bevel"><path d="m21.886 347.59h151.65v71.8h-151.65z" fill="url(#as)" stroke="#d7d7d7"/><path d="m21.886 419.39h151.65v49.2h-151.65z" fill="url(#at)" stroke="#d7d7d7"/><path d="m32.575 354.63-2.6889 2.6889v6.7222l2.6889 2.6889 1.3444-1.3444v-2.6889h1.3444l1.3444 1.3444 2.6889-2.6889 2.6889 2.6889v-5.3778h-8.0667v-2.6889z" fill="url(#au)" stroke="#897416" stroke-width="1.15"/><text fill="#2b7dba" font-family="Noto Sans" font-size="14.667" font-style="italic" font-weight="700" x="47.136337" y="366.41931">id</text><path d="m35.264 377.14-5.3778 5.3778v1.3444l5.3778 5.3778h1.3444l5.3778-5.3778v-1.3444l-5.3778-5.3778z" fill="url(#av)" stroke="#ab8600" stroke-width="1.15"/><text font-family="Noto Sans" font-size="14.667" font-style="italic" font-weight="400" x="47.136337" y="389.01932">name</text><circle cx="35.386" cy="405.91" fill="url(#aw)" r="5.5" stroke="#5a9ee4" stroke-width="1.15"/><text font-family="Noto Sans" font-size="14.667" font-style="italic" font-weight="400" x="46.036339" y="411.61932">validation_regexp</text><path d="m36.609 426.34-6.7222 6.7222 5.3778 5.3778h6.7222v-6.7222z" fill="url(#ax)" stroke="#4c4c98" stroke-width="1.15"/><text fill="#082061" font-family="Noto Sans" font-size="14.667" font-style="italic" font-weight="400" x="46.967937" y="438.2193">id_type_id_pk</text><path d="m36.609 448.94-6.7222 6.7222 5.3778 5.3778h6.7222v-6.7222z" fill="url(#ay)" stroke="#4c4c98" stroke-width="1.15"/><text fill="#082061" font-family="Noto Sans" font-size="14.667" font-style="italic" font-weight="400" x="46.967937" y="460.81931">id_type_name_uq</text><path d="m21.886 468.59h151.65v7.924l-.182 2.0838-.542 2.0204-.884 1.8958-1.199 1.7135-1.48 1.479-1.713 1.1998-1.896.884-2.02.5414-2.084.1823h-127.65l-2.0838-.1823-2.0205-.5414-1.8958-.884-1.7134-1.1998-1.4791-1.479-1.1998-1.7135-.88401-1.8958-.54138-2.0204-.18231-2.0838z" fill="url(#az)" stroke="#d7d7d7"/><g stroke="#bebebe"><path d="m111.21 473.56h11l-5.5 8.8z" fill="url(#aA)" opacity=".4"/><path d="m95.186 473.56-5.5 8.8h11z" fill="url(#aB)"/><path d="m72.225 473.62 4.4 4.4-4.4 4.4-4.4-4.4z" fill="url(#aC)"/></g><path d="m21.886 333.59.18231-2.0838.54138-2.0205.88401-1.8958 1.1998-1.7134 1.4791-1.4791 1.7134-1.1998 1.8958-.88401 2.0205-.54138 2.0838-.18231h127.65l2.084.18231 2.02.54138 1.896.88401 1.713 1.1998 1.48 1.4791 1.199 1.7134.884 1.8958.542 2.0205.182 2.0838v14h-151.65z" fill="url(#aD)" stroke="#3175b0"/><g font-family="Noto Sans" font-size="14.667"><text font-style="italic" font-weight="400" x="49.245735" y="338.92133">public.</text><text fill="#fff" font-weight="700" x="93.589439" y="338.92133">id_type</text></g></g><path d="m329.89 261.59c0-6.6274 5.3726-12 12-12h125.8c6.628 0 12 5.3726 12 12v234.32c0 6.627-5.372 12-12 12h-125.8c-6.6274 0-12-5.373-12-12z" fill="url(#aE)"/><g stroke-linecap="square" stroke-linejoin="bevel"><path d="m321.89 267.59h148.8v139.6h-148.8z" fill="url(#aF)" stroke="#d7d7d7"/><path d="m321.89 407.19h148.8v71.8h-148.8z" fill="url(#aG)" stroke="#d7d7d7"/><path d="m332.58 274.63-2.6889 2.6889v6.7222l2.6889 2.6889 1.3444-1.3444v-2.6889h1.3444l1.3444 1.3444 2.6889-2.6889 2.6889 2.6889v-5.3778h-8.0667v-2.6889z" fill="url(#aH)" stroke="#897416" stroke-width="1.15"/><text fill="#2b7dba" font-family="Noto Sans" font-size="14.667" font-style="italic" font-weight="700" x="347.13635" y="286.41931">id</text><path d="m329.89 301.3v4.0333h5.3778v4.0333h1.3444l5.3778-5.3778v-1.3444l-5.3778-5.3778h-1.3444v4.0333z" fill="url(#aI)" stroke="#8f341b" stroke-width="1.15"/><text font-family="Noto Sans" font-size="14.667" font-style="italic" font-weight="400" x="347.13635" y="309.01932">id_type</text><path d="m329.89 323.9v4.0333h5.3778v4.0333h1.3444l5.3778-5.3778v-1.3444l-5.3778-5.3778h-1.3444v4.0333z" fill="url(#aJ)" stroke="#8f341b" stroke-width="1.15"/><text font-family="Noto Sans" font-size="14.667" font-style="italic" font-weight="400" x="347.13635" y="331.61932">person</text><circle cx="335.39" cy="348.51" fill="url(#aK)" r="5.5" stroke="#5a9ee4" stroke-width="1.15"/><text font-family="Noto Sans" font-size="14.667" font-style="italic" font-weight="400" x="346.03635" y="354.2193">value</text><circle cx="335.39" cy="371.11" fill="url(#aL)" r="5.5" stroke="#5a9ee4" stroke-width="1.15"/><text font-family="Noto Sans" font-size="14.667" font-style="italic" font-weight="400" x="346.03635" y="376.81931">valid_from</text><circle cx="335.39" cy="393.71" fill="url(#aM)" r="5.5" stroke="#808080" stroke-width="1.15"/><text font-family="'Noto Sans'" font-size="14.667" font-weight="400" x="346.03635" y="399.41931">valid_to</text><path d="m336.61 414.14-6.7222 6.7222 5.3778 5.3778h6.7222v-6.7222z" fill="url(#aN)" stroke="#4c4c98" stroke-width="1.15"/><text fill="#082061" font-family="Noto Sans" font-size="14.667" font-style="italic" font-weight="400" x="346.96835" y="426.01932">has_id_id_pk</text><path d="m336.61 436.74-6.7222 6.7222 5.3778 5.3778h6.7222v-6.7222z" fill="url(#aO)" stroke="#4c4c98" stroke-width="1.15"/><text fill="#082061" font-family="Noto Sans" font-size="14.667" font-style="italic" font-weight="400" x="346.96835" y="448.61932">has_id_id_type_fk</text><path d="m336.61 459.34-6.7222 6.7222 5.3778 5.3778h6.7222v-6.7222z" fill="url(#aP)" stroke="#4c4c98" stroke-width="1.15"/><text fill="#082061" font-family="Noto Sans" font-size="14.667" font-style="italic" font-weight="400" x="346.96835" y="471.2193">has_id_person_fk</text><path d="m321.88634 478.988h148.8v7.924l-.182 2.0838-.541 2.0204-.884 1.8958-1.2 1.7135-1.479 1.479-1.714 1.1998-1.895.884-2.021.5414-2.084.1823h-124.8l-2.08378-.1823-2.02046-.5414-1.89576-.884-1.71345-1.1998-1.47908-1.479-1.19977-1.7135-.88401-1.8958-.54138-2.0204-.18231-2.0838z" fill="url(#aQ)" stroke="#d7d7d7"/><g stroke="#bebebe"><path d="m409.79 483.96h11l-5.5 8.8z" fill="url(#aR)" opacity=".4"/><path d="m393.76 483.96-5.5 8.8h11z" fill="url(#aS)"/><path d="m370.8 484.02 4.4 4.4-4.4 4.4-4.4-4.4z" fill="url(#aT)"/></g><path d="m321.89 253.59.18231-2.0838.54138-2.0205.88401-1.8958 1.1998-1.7134 1.4791-1.4791 1.7134-1.1998 1.8958-.88401 2.0205-.54138 2.0838-.18231h124.8l2.084.18231 2.021.54138 1.895.88401 1.714 1.1998 1.479 1.4791 1.2 1.7134.884 1.8958.541 2.0205.182 2.0838v14h-148.8z" fill="url(#aU)" stroke="#3175b0"/><g font-family="Noto Sans" font-size="14.667"><text font-style="italic" font-weight="400" x="351.33945" y="258.92133">public.</text><text fill="#fff" font-weight="700" x="395.68326" y="258.92133">has_id</text></g></g></g></svg>