<svg height="529pt" viewBox="0 0 1110 529" width="1110pt" xmlns="http://www.w3.org/2000/svg" xmlns:xlink="http://www.w3.org/1999/xlink"><linearGradient id="a" x2="0" y2="1"><stop offset="0" stop-color="#dcdcdc"/><stop offset="1" stop-color="#dcdcdc"/></linearGradient><linearGradient id="b" x2="0" y2="1"><stop offset="0" stop-color="#a9a9a9" stop-opacity=".19608"/><stop offset="1" stop-color="#a9a9a9" stop-opacity=".19608"/></linearGradient><linearGradient id="c" x2="0" y2="1"><stop offset="0" stop-color="#eeffe0"/><stop offset="1" stop-color="#eeffe0"/></linearGradient><linearGradient id="d" x2="0" y2="1"><stop offset="0" stop-color="#fcfcfc"/><stop offset="1" stop-color="#fcfcfc"/></linearGradient><linearGradient id="e" x2="0" y2="1"><stop offset="0" stop-color="#ffff80"/><stop offset="1" stop-color="#ffff80"/></linearGradient><linearGradient id="f" x2="0" y2="1"><stop offset="0" stop-color="#d2e9ff"/><stop offset="1" stop-color="#d2e9ff"/></linearGradient><linearGradient id="g" x2="0" y2="1"><stop offset="0" stop-color="#c5cbff"/><stop offset="1" stop-color="#c5cbff"/></linearGradient><linearGradient id="h" x2="0" y2="1"><stop offset="0" stop-color="#f3f3f3"/><stop offset="1" stop-color="#e1e1e1"/></linearGradient><linearGradient id="i" x2="0" y2="1"><stop offset="0" stop-color="#4aa5ff"/><stop offset="1" stop-color="#4aa5ff"/></linearGradient><linearGradient id="j" x2="0" y2="1"><stop offset="0" stop-color="#ff8769"/><stop offset="1" stop-color="#ff8769"/></linearGradient><linearGradient id="k" x2="0" y2="1"><stop offset="0" stop-color="#e0e0e0"/><stop offset="1" stop-color="#e0e0e0"/></linearGradient><linearGradient id="l" gradientTransform="matrix(.99946 0 0 1.0005 285.39 112)" gradientUnits="userSpaceOnUse" x1="-.75034" x2="-.75034" xlink:href="#a" y1="-.78024" y2="18.89"/><linearGradient id="m" gradientTransform="matrix(1.9028 0 0 .52554 290 49.588)" gradientUnits="userSpaceOnUse" x2="0" xlink:href="#b" y2="55.182"/><linearGradient id="n" gradientTransform="matrix(1.8797 0 0 .532 282 41.588)" gradientUnits="userSpaceOnUse" x1="-.266" x2="-.266" xlink:href="#c" y1="-.93986" y2="55.452"/><linearGradient id="o" gradientTransform="matrix(.99946 0 0 1.0005 -803 -139.45)" gradientUnits="userSpaceOnUse" x1="-.75034" x2="-.75034" xlink:href="#a" y1="-.78024" y2="18.89"/><linearGradient id="p" gradientTransform="matrix(2.0086 0 0 .49786 690 49.588)" gradientUnits="userSpaceOnUse" x2="0" xlink:href="#b" y2="58.249"/><linearGradient id="q" gradientTransform="matrix(1.9833 0 0 .50422 682 41.588)" gradientUnits="userSpaceOnUse" x1="-.25211" x2="-.25211" xlink:href="#c" y1="-.99163" y2="58.506"/><linearGradient id="r" gradientTransform="matrix(.99946 0 0 1.0005 -463 -404.22)" gradientUnits="userSpaceOnUse" x1="-.75034" x2="-.75034" xlink:href="#a" y1="-.78024" y2="18.89"/><linearGradient id="s" gradientTransform="matrix(1.8937 0 0 .52806 370 349.59)" gradientUnits="userSpaceOnUse" x2="0" xlink:href="#b" y2="54.918"/><linearGradient id="t" gradientTransform="matrix(1.8708 0 0 .53452 362 341.59)" gradientUnits="userSpaceOnUse" x1="-.26726" x2="-.26726" xlink:href="#c" y1="-.93541" y2="55.189"/><linearGradient id="u" gradientTransform="matrix(.99946 0 0 1.0005 -242.59 571.1)" gradientUnits="userSpaceOnUse" x1="-.75034" x2="-.75034" xlink:href="#a" y1="-.78024" y2="18.89"/><linearGradient id="v" gradientTransform="matrix(1.2731 0 0 .78551 590 169.59)" gradientUnits="userSpaceOnUse" x2="0" xlink:href="#b" y2="36.919"/><linearGradient id="w" gradientTransform="matrix(1.2649 0 0 .79057 582 161.59)" gradientUnits="userSpaceOnUse" x1="-.39528" x2="-.39528" xlink:href="#c" y1="-.63246" y2="37.315"/><linearGradient id="x" gradientTransform="matrix(1.4072 0 0 .71061 410 9.588)" gradientUnits="userSpaceOnUse" x2="0" xlink:href="#b" y2="172.7"/><linearGradient id="y" gradientTransform="matrix(2.2003 0 0 .45449 402 27.588)" gradientUnits="userSpaceOnUse" x1="-.22724" x2="-.22724" xlink:href="#d" y1="-1.1001" y2="109.35"/><linearGradient id="z" gradientTransform="matrix(2.9674 0 0 .337 402 76.788)" gradientUnits="userSpaceOnUse" x1="-.1685" x2="-.1685" xlink:href="#d" y1="-1.4837" y2="80.417"/><linearGradient id="A" gradientTransform="matrix(.99738 0 0 1.0026 410 34.628)" gradientUnits="userSpaceOnUse" x1="-.57651" x2="-.57651" xlink:href="#e" y1="-.81104" y2="12.474"/><linearGradient id="B" gradientUnits="userSpaceOnUse" x1="409.42" x2="409.42" xlink:href="#f" y1="57.238" y2="69.388"/><linearGradient id="C" gradientTransform="matrix(.98481 0 0 1.0154 410 83.744)" gradientUnits="userSpaceOnUse" x1="-.41286" x2="-.41286" xlink:href="#g" y1="-.80082" y2="12.483"/><linearGradient id="D" gradientTransform="matrix(3.4081 0 0 .29342 402 103.39)" gradientUnits="userSpaceOnUse" x1="-.14671" x2="-.14671" xlink:href="#d" y1="-1.704" y2="69.606"/><linearGradient id="E" gradientTransform="matrix(1.1144 0 0 .89736 536.51 108.36)" gradientUnits="userSpaceOnUse" x1="-.61828" x2="-.61828" xlink:href="#h" y1="-.76781" y2="10.102"/><linearGradient id="F" gradientTransform="matrix(1.0891 0 0 .9182 514.99 108.36)" gradientUnits="userSpaceOnUse" x1="-.38932" x2="-.38932" xlink:href="#h" y1="-.75038" y2="10.128"/><linearGradient id="G" gradientTransform="matrix(.98191 0 0 1.0184 493.13 108.42)" gradientUnits="userSpaceOnUse" x1="-.36007" x2="-.36007" xlink:href="#h" y1="-.69431" y2="8.988"/><linearGradient id="H" gradientTransform="matrix(3.0004 0 0 .33328 402 1.588)" gradientUnits="userSpaceOnUse" x1="-.18053" x2="-.18053" xlink:href="#i" y1="-1.5002" y2="79.512"/><linearGradient id="I" gradientTransform="matrix(1.0117 0 0 .98846 9.9978 29.588)" gradientUnits="userSpaceOnUse" x2="0" xlink:href="#b" y2="261.34"/><linearGradient id="J" gradientTransform="matrix(1.2728 0 0 .78567 1.9978 47.588)" gradientUnits="userSpaceOnUse" x1="-.39283" x2="-.39283" xlink:href="#d" y1="-.6364" y2="207.09"/><linearGradient id="K" gradientTransform="matrix(2.2949 0 0 .43574 1.9978 209.79)" gradientUnits="userSpaceOnUse" x1="-.21787" x2="-.21787" xlink:href="#d" y1="-1.1475" y2="114.06"/><linearGradient id="L" gradientTransform="matrix(.99738 0 0 1.0026 9.9978 54.628)" gradientUnits="userSpaceOnUse" x1="-.57651" x2="-.57651" xlink:href="#e" y1="-.81104" y2="12.474"/><linearGradient id="M" gradientUnits="userSpaceOnUse" x1="9.4228" x2="9.4228" xlink:href="#j" y1="76.688" y2="89.938"/><linearGradient id="N" gradientUnits="userSpaceOnUse" x1="9.4228" x2="9.4228" xlink:href="#f" y1="99.838" y2="111.99"/><linearGradient id="O" gradientUnits="userSpaceOnUse" x1="9.4228" x2="9.4228" xlink:href="#k" y1="122.44" y2="134.59"/><linearGradient id="P" gradientUnits="userSpaceOnUse" x1="9.4228" x2="9.4228" xlink:href="#f" y1="145.04" y2="157.19"/><linearGradient id="Q" gradientUnits="userSpaceOnUse" x1="9.4228" x2="9.4228" xlink:href="#f" y1="167.64" y2="179.79"/><linearGradient id="R" gradientUnits="userSpaceOnUse" x1="9.4228" x2="9.4228" xlink:href="#k" y1="190.24" y2="202.39"/><linearGradient id="S" gradientTransform="matrix(.98481 0 0 1.0154 9.9978 216.74)" gradientUnits="userSpaceOnUse" x1="-.41286" x2="-.41286" xlink:href="#g" y1="-.80082" y2="12.483"/><linearGradient id="T" gradientTransform="matrix(.98481 0 0 1.0154 9.9978 239.34)" gradientUnits="userSpaceOnUse" x1="-.41286" x2="-.41286" xlink:href="#g" y1="-.80082" y2="12.483"/><linearGradient id="U" gradientTransform="matrix(3.5547 0 0 .28132 1.9978 258.99)" gradientUnits="userSpaceOnUse" x1="-.14066" x2="-.14066" xlink:href="#d" y1="-1.7773" y2="72.601"/><linearGradient id="V" gradientTransform="matrix(1.1144 0 0 .89736 147.19 263.96)" gradientUnits="userSpaceOnUse" x1="-.61828" x2="-.61828" xlink:href="#h" y1="-.76781" y2="10.102"/><linearGradient id="W" gradientTransform="matrix(1.0891 0 0 .9182 125.67 263.96)" gradientUnits="userSpaceOnUse" x1="-.38932" x2="-.38932" xlink:href="#h" y1="-.75038" y2="10.128"/><linearGradient id="X" gradientTransform="matrix(.98191 0 0 1.0184 103.81 264.02)" gradientUnits="userSpaceOnUse" x1="-.36007" x2="-.36007" xlink:href="#h" y1="-.69431" y2="8.988"/><linearGradient id="Y" gradientTransform="matrix(3.1295 0 0 .31954 1.9978 21.588)" gradientUnits="userSpaceOnUse" x1="-.17309" x2="-.17309" xlink:href="#i" y1="-1.5648" y2="82.932"/><linearGradient id="Z" gradientTransform="matrix(.99576 0 0 1.0043 830 29.588)" gradientUnits="userSpaceOnUse" x2="0" xlink:href="#b" y2="279.73"/><linearGradient id="aa" gradientTransform="matrix(1.2244 0 0 .81672 822 47.588)" gradientUnits="userSpaceOnUse" x1="-.40836" x2="-.40836" xlink:href="#d" y1="-.6122" y2="226.88"/><linearGradient id="ab" gradientTransform="matrix(2.3556 0 0 .42453 822 232.39)" gradientUnits="userSpaceOnUse" x1="-.21226" x2="-.21226" xlink:href="#d" y1="-1.1778" y2="117.07"/><linearGradient id="ac" gradientTransform="matrix(.99738 0 0 1.0026 830 54.628)" gradientUnits="userSpaceOnUse" x1="-.57651" x2="-.57651" xlink:href="#e" y1="-.81104" y2="12.474"/><linearGradient id="ad" gradientUnits="userSpaceOnUse" x1="829.42" x2="829.42" xlink:href="#j" y1="76.688" y2="89.938"/><linearGradient id="ae" gradientUnits="userSpaceOnUse" x1="829.42" x2="829.42" xlink:href="#f" y1="99.838" y2="111.99"/><linearGradient id="af" gradientUnits="userSpaceOnUse" x1="829.42" x2="829.42" xlink:href="#k" y1="122.44" y2="134.59"/><linearGradient id="ag" gradientUnits="userSpaceOnUse" x1="829.42" x2="829.42" xlink:href="#f" y1="145.04" y2="157.19"/><linearGradient id="ah" gradientUnits="userSpaceOnUse" x1="829.42" x2="829.42" xlink:href="#k" y1="167.64" y2="179.79"/><linearGradient id="ai" gradientUnits="userSpaceOnUse" x1="829.42" x2="829.42" xlink:href="#f" y1="190.24" y2="202.39"/><linearGradient id="aj" gradientUnits="userSpaceOnUse" x1="829.42" x2="829.42" xlink:href="#f" y1="212.84" y2="224.99"/><linearGradient id="ak" gradientTransform="matrix(.98481 0 0 1.0154 830 239.34)" gradientUnits="userSpaceOnUse" x1="-.41286" x2="-.41286" xlink:href="#g" y1="-.80082" y2="12.483"/><linearGradient id="al" gradientTransform="matrix(.98481 0 0 1.0154 830 261.94)" gradientUnits="userSpaceOnUse" x1="-.41286" x2="-.41286" xlink:href="#g" y1="-.80082" y2="12.483"/><linearGradient id="am" gradientTransform="matrix(3.6486 0 0 .27408 822 281.59)" gradientUnits="userSpaceOnUse" x1="-.13704" x2="-.13704" xlink:href="#d" y1="-1.8243" y2="74.519"/><linearGradient id="an" gradientTransform="matrix(1.1144 0 0 .89736 974.27 286.56)" gradientUnits="userSpaceOnUse" x1="-.61828" x2="-.61828" xlink:href="#h" y1="-.76781" y2="10.102"/><linearGradient id="ao" gradientTransform="matrix(1.0891 0 0 .9182 952.75 286.56)" gradientUnits="userSpaceOnUse" x1="-.38932" x2="-.38932" xlink:href="#h" y1="-.75038" y2="10.128"/><linearGradient id="ap" gradientTransform="matrix(.98191 0 0 1.0184 930.88 286.62)" gradientUnits="userSpaceOnUse" x1="-.36007" x2="-.36007" xlink:href="#h" y1="-.69431" y2="8.988"/><linearGradient id="aq" gradientTransform="matrix(3.2122 0 0 .31132 822 21.588)" gradientUnits="userSpaceOnUse" x1="-.16863" x2="-.16863" xlink:href="#i" y1="-1.6061" y2="85.123"/><linearGradient id="ar" gradientTransform="matrix(1.3605 0 0 .73502 29.998 329.59)" gradientUnits="userSpaceOnUse" x2="0" xlink:href="#b" y2="228.46"/><linearGradient id="as" gradientTransform="matrix(2.0663 0 0 .48396 21.998 347.59)" gradientUnits="userSpaceOnUse" x1="-.24198" x2="-.24198" xlink:href="#d" y1="-1.0331" y2="149.39"/><linearGradient id="at" gradientTransform="matrix(2.4883 0 0 .40188 21.998 419.39)" gradientUnits="userSpaceOnUse" x1="-.20094" x2="-.20094" xlink:href="#d" y1="-1.2442" y2="123.67"/><linearGradient id="au" gradientTransform="matrix(.99738 0 0 1.0026 29.998 354.63)" gradientUnits="userSpaceOnUse" x1="-.57651" x2="-.57651" xlink:href="#e" y1="-.81104" y2="12.474"/><linearGradient id="av" gradientTransform="matrix(.99113 0 0 1.0089 29.998 377.14)" gradientUnits="userSpaceOnUse" x1="-.58014" x2="-.58014" y1="-.80596" y2="12.563"><stop offset="0" stop-color="#f5c000"/><stop offset="1" stop-color="#f5c000"/></linearGradient><linearGradient id="aw" gradientUnits="userSpaceOnUse" x1="29.423" x2="29.423" xlink:href="#f" y1="399.84" y2="411.99"/><linearGradient id="ax" gradientTransform="matrix(.98481 0 0 1.0154 29.998 426.34)" gradientUnits="userSpaceOnUse" x1="-.41286" x2="-.41286" xlink:href="#g" y1="-.80082" y2="12.483"/><linearGradient id="ay" gradientTransform="matrix(.98481 0 0 1.0154 29.998 448.94)" gradientUnits="userSpaceOnUse" x1="-.41286" x2="-.41286" xlink:href="#g" y1="-.80082" y2="12.483"/><linearGradient id="az" gradientTransform="matrix(3.8542 0 0 .25946 21.998 468.59)" gradientUnits="userSpaceOnUse" x1="-.12973" x2="-.12973" xlink:href="#d" y1="-1.9271" y2="78.719"/><linearGradient id="aA" gradientTransform="matrix(1.1144 0 0 .89736 190.41 473.56)" gradientUnits="userSpaceOnUse" x1="-.61828" x2="-.61828" xlink:href="#h" y1="-.76781" y2="10.102"/><linearGradient id="aB" gradientTransform="matrix(1.0891 0 0 .9182 168.89 473.56)" gradientUnits="userSpaceOnUse" x1="-.38932" x2="-.38932" xlink:href="#h" y1="-.75038" y2="10.128"/><linearGradient id="aC" gradientTransform="matrix(.98191 0 0 1.0184 147.02 473.62)" gradientUnits="userSpaceOnUse" x1="-.36007" x2="-.36007" xlink:href="#h" y1="-.69431" y2="8.988"/><linearGradient id="aD" gradientTransform="matrix(3.3932 0 0 .29471 21.998 321.59)" gradientUnits="userSpaceOnUse" x1="-.15964" x2="-.15964" xlink:href="#i" y1="-1.6966" y2="89.919"/><linearGradient id="aE" gradientTransform="matrix(1.0216 0 0 .9789 490 269.59)" gradientUnits="userSpaceOnUse" x2="0" xlink:href="#b" y2="263.89"/><linearGradient id="aF" gradientTransform="matrix(1.3847 0 0 .72219 482 287.59)" gradientUnits="userSpaceOnUse" x1="-.36109" x2="-.36109" xlink:href="#d" y1="-.69234" y2="193.99"/><linearGradient id="aG" gradientTransform="matrix(1.9243 0 0 .51967 482 427.19)" gradientUnits="userSpaceOnUse" x1="-.25983" x2="-.25983" xlink:href="#d" y1="-.96216" y2="139.13"/><linearGradient id="aH" gradientTransform="matrix(.99738 0 0 1.0026 490 294.63)" gradientUnits="userSpaceOnUse" x1="-.57651" x2="-.57651" xlink:href="#e" y1="-.81104" y2="12.474"/><linearGradient id="aI" gradientUnits="userSpaceOnUse" x1="489.42" x2="489.42" xlink:href="#j" y1="316.69" y2="329.94"/><linearGradient id="aJ" gradientUnits="userSpaceOnUse" x1="489.42" x2="489.42" xlink:href="#j" y1="339.29" y2="352.54"/><linearGradient id="aK" gradientUnits="userSpaceOnUse" x1="489.42" x2="489.42" xlink:href="#f" y1="362.44" y2="374.59"/><linearGradient id="aL" gradientUnits="userSpaceOnUse" x1="489.42" x2="489.42" xlink:href="#f" y1="385.04" y2="397.19"/><linearGradient id="aM" gradientUnits="userSpaceOnUse" x1="489.42" x2="489.42" xlink:href="#k" y1="407.64" y2="419.79"/><linearGradient id="aN" gradientTransform="matrix(.98481 0 0 1.0154 490 434.14)" gradientUnits="userSpaceOnUse" x1="-.41286" x2="-.41286" xlink:href="#g" y1="-.80082" y2="12.483"/><linearGradient id="aO" gradientTransform="matrix(.98481 0 0 1.0154 490 456.74)" gradientUnits="userSpaceOnUse" x1="-.41286" x2="-.41286" xlink:href="#g" y1="-.80082" y2="12.483"/><linearGradient id="aP" gradientTransform="matrix(.98481 0 0 1.0154 490 479.34)" gradientUnits="userSpaceOnUse" x1="-.41286" x2="-.41286" xlink:href="#g" y1="-.80082" y2="12.483"/><linearGradient id="aQ" gradientTransform="matrix(3.5894 0 0 .2786 482 498.99)" gradientUnits="userSpaceOnUse" x1="-.1393" x2="-.1393" xlink:href="#d" y1="-1.7947" y2="73.31"/><linearGradient id="aR" gradientTransform="matrix(1.1144 0 0 .89736 629.79 503.96)" gradientUnits="userSpaceOnUse" x1="-.61828" x2="-.61828" xlink:href="#h" y1="-.76781" y2="10.102"/><linearGradient id="aS" gradientTransform="matrix(1.0891 0 0 .9182 608.26 503.96)" gradientUnits="userSpaceOnUse" x1="-.38932" x2="-.38932" xlink:href="#h" y1="-.75038" y2="10.128"/><linearGradient id="aT" gradientTransform="matrix(.98191 0 0 1.0184 586.4 504.02)" gradientUnits="userSpaceOnUse" x1="-.36007" x2="-.36007" xlink:href="#h" y1="-.69431" y2="8.988"/><linearGradient id="aU" gradientTransform="matrix(3.16 0 0 .31645 482 261.59)" gradientUnits="userSpaceOnUse" x1="-.17141" x2="-.17141" xlink:href="#i" y1="-1.58" y2="83.741"/><path d="m370 349.59h104v29h-104z" fill="url(#s)" fill-rule="evenodd"/><g stroke-linecap="square" stroke-linejoin="bevel"><path d="m362 341.59h104v29h-104z" fill="url(#t)" fill-rule="evenodd" stroke="#a4b09b"/><g stroke="#606060" stroke-width="1.5"><g fill="none"><path d="m266.39 120.94h33"/><path d="m299.39 120.94c40.305 0 40.305-30.583 80.61-30.583"/><path d="m380 90.354h22"/><g transform="translate(266.39 120.94)"><path d="m18 0-18-11"/><path d="m18 0-18 11"/></g></g><circle cx="294.46" cy="121.08" fill="url(#l)" fill-rule="evenodd" r="9.075" stroke-dasharray="6 3"/><g fill="none"><path d="m0-8.8v17.6" transform="translate(392 90.354)"/><path d="m0-8.8v17.6" transform="translate(384 90.354)"/></g></g></g><path d="m290 49.588h105v29h-105z" fill="url(#m)" fill-rule="evenodd"/><g stroke-linecap="square" stroke-linejoin="bevel"><path d="m282 41.588h105v29h-105z" fill="url(#n)" fill-rule="evenodd" stroke="#a4b09b"/><text fill-rule="evenodd" font-family="Noto Sans" font-size="13.2" font-style="italic" font-weight="400" x="288.99783" y="61.278599">name_of_person</text><g stroke="#606060" stroke-width="1.5"><g fill="none"><path d="m822 130.52h-33"/><path d="m789 130.52c-60.985 0-60.985-40.062-121.97-40.062"/><path d="m667.03 90.459h-22"/><g transform="matrix(-1 0 0 -1 822 130.52)"><path d="m18 0-18-11"/><path d="m18 0-18 11"/></g></g><circle cx="-793.92" cy="-130.38" fill="url(#o)" fill-rule="evenodd" r="9.075" stroke-dasharray="6 3" transform="scale(-1)"/><g fill="none"><path d="m0-8.8v17.6" transform="matrix(-1 0 0 -1 655.03 90.459)"/><path d="m0-8.8v17.6" transform="matrix(-1 0 0 -1 663.03 90.459)"/></g></g></g><path d="m690 49.588h117v29h-117z" fill="url(#p)" fill-rule="evenodd"/><g stroke-linecap="square" stroke-linejoin="bevel"><path d="m682 41.588h117v29h-117z" fill="url(#q)" fill-rule="evenodd" stroke="#a4b09b"/><text fill-rule="evenodd" font-family="Noto Sans" font-size="13.2" font-style="italic" font-weight="400" x="688.99786" y="61.278599">address_of_person</text><g stroke="#606060" stroke-width="1.5"><g fill="none"><path d="m482 395.29h-33"/><path d="m449 395.29c-47.087 0-47.087 5.025-94.174 5.025"/><path d="m354.82 400.32h-22"/><g transform="matrix(-1 0 0 -1 482 395.29)"><path d="m18 0-18-11"/><path d="m18 0-18 11"/></g></g><circle cx="-453.92" cy="-395.15" fill="url(#r)" fill-rule="evenodd" r="9.075" stroke-dasharray="6 3" transform="scale(-1)"/><g fill="none"><path d="m0-8.8v17.6" transform="matrix(-1 0 0 -1 342.82 400.32)"/><path d="m0-8.8v17.6" transform="matrix(-1 0 0 -1 350.82 400.32)"/><path d="m580.03 261.59v-33"/><path d="m540.97 146.31c0 41.138 39.061 41.138 39.061 82.276"/><path d="m540.97 146.31v-22"/><g transform="matrix(0 -1 1 0 580.03 261.59)"><path d="m18 0-18-11"/><path d="m18 0-18 11"/></g></g><circle cx="-233.51" cy="580.18" fill="url(#u)" fill-rule="evenodd" r="9.075" stroke-dasharray="6 3" transform="rotate(-90)"/><g fill="none"><path d="m0-8.8v17.6" transform="matrix(0 -1 1 0 540.97 134.31)"/><path d="m0-8.8v17.6" transform="matrix(0 -1 1 0 540.97 142.31)"/></g></g></g><g fill-rule="evenodd"><path d="m590 169.59h47v29h-47z" fill="url(#v)"/><g stroke-linecap="square" stroke-linejoin="bevel"><path d="m582 161.59h47v29h-47z" fill="url(#w)" stroke="#a4b09b"/><g font-family="Noto Sans" font-size="13.2" font-style="italic" font-weight="400"><text x="588.99786" y="181.27859">has_id</text><text x="367.4744" y="359.52002">belongs_to_type</text></g></g><path d="m410 21.588c0-6.6274 5.3726-12 12-12h219.03c6.627 0 12 5.3726 12 12v98.724c0 6.627-5.373 12-12 12h-219.03c-6.6274 0-12-5.373-12-12z" fill="url(#x)"/><g stroke-linecap="square" stroke-linejoin="bevel"><path d="m402 27.588h242.03v49.2h-242.03z" fill="url(#y)" stroke="#d7d7d7"/><path d="m402 76.788h242.03v26.6h-242.03z" fill="url(#z)" stroke="#d7d7d7"/><path d="m412.69 34.628-2.6889 2.6889v6.7222l2.6889 2.6889 1.3444-1.3444v-2.6889h1.3444l1.3444 1.3444 2.6889-2.6889 2.6889 2.6889v-5.3778h-8.0667v-2.6889z" fill="url(#A)" stroke="#897416" stroke-width="1.15"/><g font-family="Noto Sans" font-size="14.667" font-style="italic"><text fill="#2b7dba" font-weight="700" x="427.24783" y="46.4193">id</text><text fill="#4964a6" font-weight="700" x="512.97589" xml:space="preserve" y="46.4193"> integer</text><text fill="#25682d" font-weight="400" x="602.87286" y="46.4193">« pk »</text></g><circle cx="415.5" cy="63.313" fill="url(#B)" r="5.5" stroke="#5a9ee4" stroke-width="1.15"/><g font-family="Noto Sans" font-size="14.667" font-style="italic"><text font-weight="400" x="426.14783" y="69.019295">date_of_birth</text><text fill="#4964a6" font-weight="700" x="512.97589" xml:space="preserve" y="69.019295"> date</text><text fill="#25682d" font-weight="400" x="601.62286" y="69.019295">« nn »</text></g><path d="m416.72 83.744-6.7222 6.7222 5.3778 5.3778h6.7222v-6.7222z" fill="url(#C)" stroke="#4c4c98" stroke-width="1.15"/><g font-family="Noto Sans" font-size="14.667" font-style="italic"><text fill="#082061" font-weight="400" x="427.07983" y="95.619301">person_id_pk</text><text fill="#4964a6" font-weight="700" x="514.25085" xml:space="preserve" y="95.619301"> constraint</text><text fill="#25682d" font-weight="400" x="602.87286" y="95.619301">« pk »</text></g><path d="m402 103.39h242.03v7.924l-.183 2.0838-.541 2.0204-.884 1.8958-1.2 1.7135-1.479 1.479-1.713 1.1998-1.896.884-2.02.5414-2.084.1823h-218.03l-2.0838-.1823-2.0205-.5414-1.8958-.884-1.7134-1.1998-1.4791-1.479-1.1998-1.7135-.88401-1.8958-.54138-2.0204-.18231-2.0838z" fill="url(#D)" stroke="#d7d7d7"/><g stroke="#bebebe"><path d="m536.51 108.36h11l-5.5 8.8z" fill="url(#E)" opacity=".4"/><path d="m520.49 108.36-5.5 8.8h11z" fill="url(#F)"/><path d="m497.53 108.42 4.4 4.4-4.4 4.4-4.4-4.4z" fill="url(#G)"/></g><path d="m402 13.588.18231-2.0838.54138-2.0205.88401-1.8958 1.1998-1.7134 1.4791-1.4791 1.7134-1.1998 1.8958-.88401 2.0205-.54138 2.0838-.18231h218.03l2.084.18231 2.02.54138 1.896.88401 1.713 1.1998 1.479 1.4791 1.2 1.7134.884 1.8958.541 2.0205.183 2.0838v14h-242.03z" fill="url(#H)" stroke="#3175b0"/><g font-family="Noto Sans" font-size="14.667"><text font-style="italic" font-weight="400" x="475.46664" y="18.921299">public.</text><text fill="#fff" font-weight="700" x="519.81085" y="18.921299">person</text></g></g><path d="m9.9978 41.588c0-6.6274 5.3726-12 12-12h240.39c6.628 0 12 5.3726 12 12v234.32c0 6.627-5.372 12-12 12h-240.39c-6.6274 0-12-5.373-12-12z" fill="url(#I)"/><g stroke-linecap="square" stroke-linejoin="bevel"><path d="m1.9978 47.588h263.39v162.2h-263.39z" fill="url(#J)" stroke="#d7d7d7"/><path d="m1.9978 209.79h263.39v49.2h-263.39z" fill="url(#K)" stroke="#d7d7d7"/><path d="m12.687 54.628-2.6889 2.6889v6.7222l2.6889 2.6889 1.3444-1.3444v-2.6889h1.3444l1.3444 1.3444 2.6889-2.6889 2.6889 2.6889v-5.3778h-8.0667v-2.6889z" fill="url(#L)" stroke="#897416" stroke-width="1.15"/><g font-family="Noto Sans" font-size="14.667" font-style="italic"><text fill="#2b7dba" font-weight="700" x="27.247837" y="66.419296">id</text><text fill="#4964a6" font-weight="700" x="96.256844" xml:space="preserve" y="66.419296"> integer</text><text fill="#25682d" font-weight="400" x="224.23183" y="66.419296">« pk »</text></g><path d="m9.9978 81.296v4.0333h5.3778v4.0333h1.3444l5.3778-5.3778v-1.3444l-5.3778-5.3778h-1.3444v4.0333z" fill="url(#M)" stroke="#8f341b" stroke-width="1.15"/><g font-family="Noto Sans" font-size="14.667" font-style="italic"><text font-weight="400" x="27.247837" y="89.019295">person</text><text fill="#4964a6" font-weight="700" x="96.256844" xml:space="preserve" y="89.019295"> integer</text><text fill="#25682d" font-weight="400" x="206.90384" y="89.019295">« fk nn »</text></g><circle cx="15.498" cy="105.91" fill="url(#N)" r="5.5" stroke="#5a9ee4" stroke-width="1.15"/><g font-family="Noto Sans" font-size="14.667" font-style="italic"><text font-weight="400" x="26.147839" y="111.6193">full_name</text><text fill="#4964a6" font-weight="700" x="96.256844" xml:space="preserve" y="111.6193"> varchar(255)</text><text fill="#25682d" font-weight="400" x="222.98183" y="111.6193">« nn »</text></g><circle cx="15.498" cy="128.51" fill="url(#O)" r="5.5" stroke="#808080" stroke-width="1.15"/><text font-family="'Noto Sans'" font-size="14.667" font-weight="400" x="26.147839" y="134.2193">salutation</text><text fill="#4964a6" font-family="Noto Sans" font-size="14.667" font-style="italic" font-weight="700" x="96.256844" xml:space="preserve" y="134.2193"> varchar(255)</text><text fill="#25682d" x="258.49783" y="134.2193"/><circle cx="15.498" cy="151.11" fill="url(#P)" r="5.5" stroke="#5a9ee4" stroke-width="1.15"/><g font-family="Noto Sans" font-size="14.667" font-style="italic"><text font-weight="400" x="26.147839" y="156.81929">is_official</text><text fill="#4964a6" font-weight="700" x="96.256844" xml:space="preserve" y="156.81929"> boolean</text><text fill="#25682d" font-weight="400" x="222.98183" y="156.81929">« nn »</text></g><circle cx="15.498" cy="173.71" fill="url(#Q)" r="5.5" stroke="#5a9ee4" stroke-width="1.15"/><g font-family="Noto Sans" font-size="14.667" font-style="italic"><text font-weight="400" x="26.147839" y="179.4193">start_date</text><text fill="#4964a6" font-weight="700" x="96.256844" xml:space="preserve" y="179.4193"> date</text><text fill="#25682d" font-weight="400" x="222.98183" y="179.4193">« nn »</text></g><circle cx="15.498" cy="196.31" fill="url(#R)" r="5.5" stroke="#808080" stroke-width="1.15"/><text font-family="'Noto Sans'" font-size="14.667" font-weight="400" x="26.147839" y="202.0193">end_date</text><text fill="#4964a6" font-family="Noto Sans" font-size="14.667" font-style="italic" font-weight="700" x="96.256844" xml:space="preserve" y="202.0193"> date</text><text fill="#25682d" x="258.49783" y="202.0193"/><path d="m16.72 216.74-6.7222 6.7222 5.3778 5.3778h6.7222v-6.7222z" fill="url(#S)" stroke="#4c4c98" stroke-width="1.15"/><g font-family="Noto Sans" font-size="14.667" font-style="italic"><text fill="#082061" font-weight="400" x="27.079437" y="228.61929">name_id_pk</text><text fill="#4964a6" font-weight="700" x="135.61084" xml:space="preserve" y="228.61929"> constraint</text><text fill="#25682d" font-weight="400" x="224.23183" y="228.61929">« pk »</text></g><path d="m16.72 239.34-6.7222 6.7222 5.3778 5.3778h6.7222v-6.7222z" fill="url(#T)" stroke="#4c4c98" stroke-width="1.15"/><g font-family="Noto Sans" font-size="14.667" font-style="italic"><text fill="#082061" font-weight="400" x="27.079437" y="251.21928">name_person_fk</text><text fill="#4964a6" font-weight="700" x="135.61084" xml:space="preserve" y="251.21928"> constraint</text><text fill="#25682d" font-weight="400" x="228.13783" y="251.21928">« fk »</text></g><path d="m1.9978 258.99h263.39v7.924l-.182 2.0838-.542 2.0204-.884 1.8958-1.199 1.7135-1.479 1.479-1.714 1.1998-1.896.884-2.02.5414-2.084.1823h-239.39l-2.0838-.1823-2.0205-.5414-1.8958-.884-1.7134-1.1998-1.4791-1.479-1.1998-1.7135-.88401-1.8958-.54138-2.0204-.18231-2.0838z" fill="url(#U)" stroke="#d7d7d7"/><g stroke="#bebebe"><path d="m147.19 263.96h11l-5.5 8.8z" fill="url(#V)" opacity=".4"/><path d="m131.17 263.96-5.5 8.8h11z" fill="url(#W)"/><path d="m108.21 264.02 4.4 4.4-4.4 4.4-4.4-4.4z" fill="url(#X)"/></g><path d="m1.9978 33.588.18231-2.0838.54138-2.0205.88401-1.8958 1.1998-1.7134 1.4791-1.4791 1.7134-1.1998 1.8958-.88401 2.0205-.54138 2.0838-.18231h239.39l2.084.18231 2.02.54138 1.896.88401 1.714 1.1998 1.479 1.4791 1.199 1.7134.884 1.8958.542 2.0205.182 2.0838v14h-263.39z" fill="url(#Y)" stroke="#3175b0"/><g font-family="Noto Sans" font-size="14.667"><text font-style="italic" font-weight="400" x="90.779144" y="38.921299">public.</text><text fill="#fff" font-weight="700" x="135.12283" y="38.921299">name</text></g></g><path d="m830 41.588c0-6.6274 5.3726-12 12-12h254.55c6.628 0 12 5.3726 12 12v256.92c0 6.627-5.372 12-12 12h-254.55c-6.6274 0-12-5.373-12-12z" fill="url(#Z)"/><g stroke-linecap="square" stroke-linejoin="bevel"><path d="m822 47.588h277.55v184.8h-277.55z" fill="url(#aa)" stroke="#d7d7d7"/><path d="m822 232.39h277.55v49.2h-277.55z" fill="url(#ab)" stroke="#d7d7d7"/><path d="m832.69 54.628-2.6889 2.6889v6.7222l2.6889 2.6889 1.3444-1.3444v-2.6889h1.3444l1.3444 1.3444 2.6889-2.6889 2.6889 2.6889v-5.3778h-8.0667v-2.6889z" fill="url(#ac)" stroke="#897416" stroke-width="1.15"/><g font-family="Noto Sans" font-size="14.667" font-style="italic"><text fill="#2b7dba" font-weight="700" x="847.24786" y="66.419296">id</text><text fill="#4964a6" font-weight="700" x="942.06989" xml:space="preserve" y="66.419296"> integer</text><text fill="#25682d" font-weight="400" x="1058.3878" y="66.419296">« pk »</text></g><path d="m830 81.296v4.0333h5.3778v4.0333h1.3444l5.3778-5.3778v-1.3444l-5.3778-5.3778h-1.3444v4.0333z" fill="url(#ad)" stroke="#8f341b" stroke-width="1.15"/><g font-family="Noto Sans" font-size="14.667" font-style="italic"><text font-weight="400" x="847.24786" y="89.019295">person</text><text fill="#4964a6" font-weight="700" x="942.06989" xml:space="preserve" y="89.019295"> integer</text><text fill="#25682d" font-weight="400" x="1041.0579" y="89.019295">« fk nn »</text></g><circle cx="835.5" cy="105.91" fill="url(#ae)" r="5.5" stroke="#5a9ee4" stroke-width="1.15"/><g font-family="Noto Sans" font-size="14.667" font-style="italic"><text font-weight="400" x="846.14789" y="111.6193">country</text><text fill="#4964a6" font-weight="700" x="942.06989" xml:space="preserve" y="111.6193"> char(2)</text><text fill="#25682d" font-weight="400" x="1057.1378" y="111.6193">« nn »</text></g><circle cx="835.5" cy="128.51" fill="url(#af)" r="5.5" stroke="#808080" stroke-width="1.15"/><text font-family="'Noto Sans'" font-size="14.667" font-weight="400" x="846.14789" y="134.2193">province</text><text fill="#4964a6" font-family="Noto Sans" font-size="14.667" font-style="italic" font-weight="700" x="942.06989" xml:space="preserve" y="134.2193"> char(2)</text><text fill="#25682d" x="1092.6578" y="134.2193"/><circle cx="835.5" cy="151.11" fill="url(#ag)" r="5.5" stroke="#5a9ee4" stroke-width="1.15"/><g font-family="Noto Sans" font-size="14.667" font-style="italic"><text font-weight="400" x="846.14789" y="156.81929">city</text><text fill="#4964a6" font-weight="700" x="942.06989" xml:space="preserve" y="156.81929"> varchar(255)</text><text fill="#25682d" font-weight="400" x="1057.1378" y="156.81929">« nn »</text></g><circle cx="835.5" cy="173.71" fill="url(#ah)" r="5.5" stroke="#808080" stroke-width="1.15"/><text font-family="'Noto Sans'" font-size="14.667" font-weight="400" x="846.14789" y="179.4193">district</text><text fill="#4964a6" font-family="Noto Sans" font-size="14.667" font-style="italic" font-weight="700" x="942.06989" xml:space="preserve" y="179.4193"> varchar(255)</text><text fill="#25682d" x="1092.6578" y="179.4193"/><circle cx="835.5" cy="196.31" fill="url(#ai)" r="5.5" stroke="#5a9ee4" stroke-width="1.15"/><g font-family="Noto Sans" font-size="14.667" font-style="italic"><text font-weight="400" x="846.14789" y="202.0193">postal_code</text><text fill="#4964a6" font-weight="700" x="942.06989" xml:space="preserve" y="202.0193"> varchar(32)</text><text fill="#25682d" font-weight="400" x="1057.1378" y="202.0193">« nn »</text></g><circle cx="835.5" cy="218.91" fill="url(#aj)" r="5.5" stroke="#5a9ee4" stroke-width="1.15"/><g font-family="Noto Sans" font-size="14.667" font-style="italic"><text font-weight="400" x="846.14789" y="224.61929">street_address</text><text fill="#4964a6" font-weight="700" x="942.06989" xml:space="preserve" y="224.61929"> varchar(255)</text><text fill="#25682d" font-weight="400" x="1057.1378" y="224.61929">« nn »</text></g><path d="m836.72 239.34-6.7222 6.7222 5.3778 5.3778h6.7222v-6.7222z" fill="url(#ak)" stroke="#4c4c98" stroke-width="1.15"/><g font-family="Noto Sans" font-size="14.667" font-style="italic"><text fill="#082061" font-weight="400" x="847.07983" y="251.21928">address_id_pk</text><text fill="#4964a6" font-weight="700" x="969.76685" xml:space="preserve" y="251.21928"> constraint</text><text fill="#25682d" font-weight="400" x="1058.3878" y="251.21928">« pk »</text></g><path d="m836.72 261.94-6.7222 6.7222 5.3778 5.3778h6.7222v-6.7222z" fill="url(#al)" stroke="#4c4c98" stroke-width="1.15"/><g font-family="Noto Sans" font-size="14.667" font-style="italic"><text fill="#082061" font-weight="400" x="847.07983" y="273.81931">address_person_fk</text><text fill="#4964a6" font-weight="700" x="969.76685" xml:space="preserve" y="273.81931"> constraint</text><text fill="#25682d" font-weight="400" x="1062.2979" y="273.81931">« fk »</text></g><path d="m822 281.59h277.55v7.924l-.182 2.0838-.541 2.0204-.884 1.8958-1.2 1.7135-1.479 1.479-1.714 1.1998-1.895.884-2.021.5414-2.084.1823h-253.55l-2.0838-.1823-2.0205-.5414-1.8958-.884-1.7134-1.1998-1.4791-1.479-1.1998-1.7135-.88401-1.8958-.54138-2.0204-.18231-2.0838z" fill="url(#am)" stroke="#d7d7d7"/><g stroke="#bebebe"><path d="m974.27 286.56h11l-5.5 8.8z" fill="url(#an)" opacity=".4"/><path d="m958.25 286.56-5.5 8.8h11z" fill="url(#ao)"/><path d="m935.28 286.62 4.4 4.4-4.4 4.4-4.4-4.4z" fill="url(#ap)"/></g><path d="m822 33.588.18231-2.0838.54138-2.0205.88401-1.8958 1.1998-1.7134 1.4791-1.4791 1.7134-1.1998 1.8958-.88401 2.0205-.54138 2.0838-.18231h253.55l2.084.18231 2.021.54138 1.895.88401 1.714 1.1998 1.479 1.4791 1.2 1.7134.884 1.8958.541 2.0205.182 2.0838v14h-277.55z" fill="url(#aq)" stroke="#3175b0"/><g font-family="Noto Sans" font-size="14.667"><text font-style="italic" font-weight="400" x="909.95099" y="38.921299">public.</text><text fill="#fff" font-weight="700" x="954.29486" y="38.921299">address</text></g></g><path d="m29.998 341.59c0-6.6274 5.3726-12 12-12h286.83c6.627 0 12 5.3726 12 12v143.92c0 6.627-5.373 12-12 12h-286.83c-6.6274 0-12-5.373-12-12z" fill="url(#ar)"/><g stroke-linecap="square" stroke-linejoin="bevel"><path d="m21.998 347.59h309.83v71.8h-309.83z" fill="url(#as)" stroke="#d7d7d7"/><path d="m21.998 419.39h309.83v49.2h-309.83z" fill="url(#at)" stroke="#d7d7d7"/><path d="m32.687 354.63-2.6889 2.6889v6.7222l2.6889 2.6889 1.3444-1.3444v-2.6889h1.3444l1.3444 1.3444 2.6889-2.6889 2.6889 2.6889v-5.3778h-8.0667v-2.6889z" fill="url(#au)" stroke="#897416" stroke-width="1.15"/><g font-family="Noto Sans" font-size="14.667" font-style="italic"><text fill="#2b7dba" font-weight="700" x="47.247837" y="366.41931">id</text><text fill="#4964a6" font-weight="700" x="163.64783" xml:space="preserve" y="366.41931"> integer</text><text fill="#25682d" font-weight="400" x="290.66785" y="366.41931">« pk »</text></g><path d="m35.376 377.14-5.3778 5.3778v1.3444l5.3778 5.3778h1.3444l5.3778-5.3778v-1.3444l-5.3778-5.3778z" fill="url(#av)" stroke="#ab8600" stroke-width="1.15"/><g font-family="Noto Sans" font-size="14.667" font-style="italic"><text font-weight="400" x="47.247837" y="389.01932">name</text><text fill="#4964a6" font-weight="700" x="163.64783" xml:space="preserve" y="389.01932"> varchar(100)</text><text fill="#25682d" font-weight="400" x="268.18283" y="389.01932">« uq nn »</text></g><circle cx="35.498" cy="405.91" fill="url(#aw)" r="5.5" stroke="#5a9ee4" stroke-width="1.15"/><g font-family="Noto Sans" font-size="14.667" font-style="italic"><text font-weight="400" x="46.147839" y="411.61932">validation_regexp</text><text fill="#4964a6" font-weight="700" x="163.64783" xml:space="preserve" y="411.61932"> varchar(255)</text><text fill="#25682d" font-weight="400" x="289.41785" y="411.61932">« nn »</text></g><path d="m36.72 426.34-6.7222 6.7222 5.3778 5.3778h6.7222v-6.7222z" fill="url(#ax)" stroke="#4c4c98" stroke-width="1.15"/><g font-family="Noto Sans" font-size="14.667" font-style="italic"><text fill="#082061" font-weight="400" x="47.079437" y="438.2193">id_type_id_pk</text><text fill="#4964a6" font-weight="700" x="163.64783" xml:space="preserve" y="438.2193"> constraint</text><text fill="#25682d" font-weight="400" x="290.66785" y="438.2193">« pk »</text></g><path d="m36.72 448.94-6.7222 6.7222 5.3778 5.3778h6.7222v-6.7222z" fill="url(#ay)" stroke="#4c4c98" stroke-width="1.15"/><g font-family="Noto Sans" font-size="14.667" font-style="italic"><text fill="#082061" font-weight="400" x="47.079437" y="460.81931">id_type_name_uq</text><text fill="#4964a6" font-weight="700" x="163.64783" xml:space="preserve" y="460.81931"> constraint</text><text fill="#25682d" font-weight="400" x="289.41785" y="460.81931">« uq »</text></g><path d="m21.998 468.59h309.83v7.924l-.183 2.0838-.541 2.0204-.884 1.8958-1.2 1.7135-1.479 1.479-1.713 1.1998-1.896.884-2.02.5414-2.084.1823h-285.83l-2.0838-.1823-2.0205-.5414-1.8958-.884-1.7134-1.1998-1.4791-1.479-1.1998-1.7135-.88401-1.8958-.54138-2.0204-.18231-2.0838z" fill="url(#az)" stroke="#d7d7d7"/><g stroke="#bebebe"><path d="m190.41 473.56h11l-5.5 8.8z" fill="url(#aA)" opacity=".4"/><path d="m174.39 473.56-5.5 8.8h11z" fill="url(#aB)"/><path d="m151.42 473.62 4.4 4.4-4.4 4.4-4.4-4.4z" fill="url(#aC)"/></g><path d="m21.998 333.59.18231-2.0838.54138-2.0205.88401-1.8958 1.1998-1.7134 1.4791-1.4791 1.7134-1.1998 1.8958-.88401 2.0205-.54138 2.0838-.18231h285.83l2.084.18231 2.02.54138 1.896.88401 1.713 1.1998 1.479 1.4791 1.2 1.7134.884 1.8958.541 2.0205.183 2.0838v14h-309.83z" fill="url(#aD)" stroke="#3175b0"/><g font-family="Noto Sans" font-size="14.667"><text font-style="italic" font-weight="400" x="128.43584" y="338.92133">public.</text><text fill="#fff" font-weight="700" x="172.77884" y="338.92133">id_type</text></g></g><path d="m490 281.59c0-6.6274 5.3726-12 12-12h245.58c6.627 0 12 5.3726 12 12v234.32c0 6.627-5.373 12-12 12h-245.58c-6.6274 0-12-5.373-12-12z" fill="url(#aE)"/><g stroke-linecap="square" stroke-linejoin="bevel"><path d="m482 287.59h268.58v139.6h-268.58z" fill="url(#aF)" stroke="#d7d7d7"/><path d="m482 427.19h268.58v71.8h-268.58z" fill="url(#aG)" stroke="#d7d7d7"/><path d="m492.69 294.63-2.6889 2.6889v6.7222l2.6889 2.6889 1.3444-1.3444v-2.6889h1.3444l1.3444 1.3444 2.6889-2.6889 2.6889 2.6889v-5.3778h-8.0667v-2.6889z" fill="url(#aH)" stroke="#897416" stroke-width="1.15"/><g font-family="Noto Sans" font-size="14.667" font-style="italic"><text fill="#2b7dba" font-weight="700" x="507.24783" y="306.41931">id</text><text fill="#4964a6" font-weight="700" x="575.97589" xml:space="preserve" y="306.41931"> integer</text><text fill="#25682d" font-weight="400" x="709.41888" y="306.41931">« pk »</text></g><path d="m490 321.3v4.0333h5.3778v4.0333h1.3444l5.3778-5.3778v-1.3444l-5.3778-5.3778h-1.3444v4.0333z" fill="url(#aI)" stroke="#8f341b" stroke-width="1.15"/><g font-family="Noto Sans" font-size="14.667" font-style="italic"><text font-weight="400" x="507.24783" y="329.01932">id_type</text><text fill="#4964a6" font-weight="700" x="575.97589" xml:space="preserve" y="329.01932"> integer</text><text fill="#25682d" font-weight="400" x="692.09088" y="329.01932">« fk nn »</text></g><path d="m490 343.9v4.0333h5.3778v4.0333h1.3444l5.3778-5.3778v-1.3444l-5.3778-5.3778h-1.3444v4.0333z" fill="url(#aJ)" stroke="#8f341b" stroke-width="1.15"/><g font-family="Noto Sans" font-size="14.667" font-style="italic"><text font-weight="400" x="507.24783" y="351.61932">person</text><text fill="#4964a6" font-weight="700" x="575.97589" xml:space="preserve" y="351.61932"> integer</text><text fill="#25682d" font-weight="400" x="692.09088" y="351.61932">« fk nn »</text></g><circle cx="495.5" cy="368.51" fill="url(#aK)" r="5.5" stroke="#5a9ee4" stroke-width="1.15"/><g font-family="Noto Sans" font-size="14.667" font-style="italic"><text font-weight="400" x="506.14786" y="374.2193">value</text><text fill="#4964a6" font-weight="700" x="575.97589" xml:space="preserve" y="374.2193"> varchar(100)</text><text fill="#25682d" font-weight="400" x="708.16888" y="374.2193">« nn »</text></g><circle cx="495.5" cy="391.11" fill="url(#aL)" r="5.5" stroke="#5a9ee4" stroke-width="1.15"/><g font-family="Noto Sans" font-size="14.667" font-style="italic"><text font-weight="400" x="506.14786" y="396.81931">valid_from</text><text fill="#4964a6" font-weight="700" x="575.97589" xml:space="preserve" y="396.81931"> date</text><text fill="#25682d" font-weight="400" x="708.16888" y="396.81931">« nn »</text></g><circle cx="495.5" cy="413.71" fill="url(#aM)" r="5.5" stroke="#808080" stroke-width="1.15"/><text font-family="'Noto Sans'" font-size="14.667" font-weight="400" x="506.14786" y="419.41931">valid_to</text><text fill="#4964a6" font-family="Noto Sans" font-size="14.667" font-style="italic" font-weight="700" x="575.97589" xml:space="preserve" y="419.41931"> date</text><text fill="#25682d" x="743.68488" y="419.41931"/><path d="m496.72 434.14-6.7222 6.7222 5.3778 5.3778h6.7222v-6.7222z" fill="url(#aN)" stroke="#4c4c98" stroke-width="1.15"/><g font-family="Noto Sans" font-size="14.667" font-style="italic"><text fill="#082061" font-weight="400" x="507.0798" y="446.01932">has_id_id_pk</text><text fill="#4964a6" font-weight="700" x="620.79785" xml:space="preserve" y="446.01932"> constraint</text><text fill="#25682d" font-weight="400" x="709.41888" y="446.01932">« pk »</text></g><path d="m496.72 456.74-6.7222 6.7222 5.3778 5.3778h6.7222v-6.7222z" fill="url(#aO)" stroke="#4c4c98" stroke-width="1.15"/><g font-family="Noto Sans" font-size="14.667" font-style="italic"><text fill="#082061" font-weight="400" x="507.0798" y="468.61932">has_id_id_type_fk</text><text fill="#4964a6" font-weight="700" x="620.79785" xml:space="preserve" y="468.61932"> constraint</text><text fill="#25682d" font-weight="400" x="713.32587" y="468.61932">« fk »</text></g><path d="m496.72 479.34-6.7222 6.7222 5.3778 5.3778h6.7222v-6.7222z" fill="url(#aP)" stroke="#4c4c98" stroke-width="1.15"/><g font-family="Noto Sans" font-size="14.667" font-style="italic"><text fill="#082061" font-weight="400" x="507.0798" y="491.2193">has_id_person_fk</text><text fill="#4964a6" font-weight="700" x="620.79785" xml:space="preserve" y="491.2193"> constraint</text><text fill="#25682d" font-weight="400" x="713.32587" y="491.2193">« fk »</text></g><path d="m482 498.99h268.58v7.924l-.183 2.0838-.541 2.0204-.884 1.8958-1.2 1.7135-1.479 1.479-1.713 1.1998-1.896.884-2.021.5414-2.083.1823h-244.58l-2.0838-.1823-2.0205-.5414-1.8958-.884-1.7134-1.1998-1.4791-1.479-1.1998-1.7135-.88401-1.8958-.54138-2.0204-.18231-2.0838z" fill="url(#aQ)" stroke="#d7d7d7"/><g stroke="#bebebe"><path d="m629.79 503.96h11l-5.5 8.8z" fill="url(#aR)" opacity=".4"/><path d="m613.76 503.96-5.5 8.8h11z" fill="url(#aS)"/><path d="m590.8 504.02 4.4 4.4-4.4 4.4-4.4-4.4z" fill="url(#aT)"/></g><path d="m482 273.59.18231-2.0838.54138-2.0205.88401-1.8958 1.1998-1.7134 1.4791-1.4791 1.7134-1.1998 1.8958-.88401 2.0205-.54138 2.0838-.18231h244.58l2.083.18231 2.021.54138 1.896.88401 1.713 1.1998 1.479 1.4791 1.2 1.7134.884 1.8958.541 2.0205.183 2.0838v14h-268.58z" fill="url(#aU)" stroke="#3175b0"/><g font-family="Noto Sans" font-size="14.667"><text font-style="italic" font-weight="400" x="571.32599" y="278.92133">public.</text><text fill="#fff" font-weight="700" x="615.66986" y="278.92133">has_id</text></g></g></g></svg>