<svg height="271pt" viewBox="0 0 409 271" width="409pt" xmlns="http://www.w3.org/2000/svg"><path d="m1.8957 254.63h36.85v-253.57h-36.85z" fill="#e6e6e6" fill-opacity=".4" fill-rule="evenodd" stroke-width="1.3333"/><g fill="none" stroke-linejoin="round" stroke-miterlimit="10"><path d="m1.3664 1.1855h37.946" stroke="#b2b2b2"/><path d="m1.8584.69213v254.5" stroke="#b2b2b2"/><g stroke="#000"><path d="m38.329 1.1855h369.28"/><path d="m38.82.69213v254.5"/><path d="m148.91.69213v254.5"/><path d="m201.38.69213v254.5"/><path d="m252.82.69213v254.5"/><path d="m304.26.69213v254.5"/><path d="m355.68.69213v254.5"/><path d="m407.12.69213v254.5"/><path d="m407.12.69213v254.5"/></g><path d="m1.3664 20.692h37.946" stroke="#b2b2b2"/><path d="m38.329 20.692h369.28" stroke="#000"/><path d="m1.3664 254.71h37.946" stroke="#b2b2b2"/><path d="m38.329 254.71h369.28" stroke="#000"/></g><g font-family="Liberation Sans" font-size="13.341" stroke-width="1.3333"><g font-weight="bold"><text fill="#808080" x="14.481423" y="15.283529"><tspan stroke-width="1.3333" x="14.481423 18.176878" y="15.283529">id</tspan></text><text x="76.463882" y="15.283529"><tspan stroke-width="1.3333" x="76.463882 84.601891 92.019463 103.87962" y="15.283529">name</tspan></text><text x="159.23381" y="15.283529"><tspan stroke-width="1.3333" x="159.23381 167.37181 172.56146 176.25693 183.67451" y="15.283529">price</tspan></text><text x="206.0233" y="15.283529"><tspan stroke-width="1.3333" x="206.0233 216.38925 223.80685 227.5023 235.64032 243.77832" y="15.283529">weight</tspan></text><text x="261.12726" y="15.283529"><tspan stroke-width="1.3333" x="261.12726 271.49323 275.18869 283.32672 287.76923" y="15.283529">width</tspan></text><text x="310.03406" y="15.283529"><tspan stroke-width="1.3333" x="310.03406 318.17206 325.58966 329.28513 337.42313 345.56113" y="15.283529">height</tspan></text><text x="363.28607" y="15.283529"><tspan stroke-width="1.3333" x="363.28607 371.42407 378.84164 386.97968 391.42224" y="15.283529">depth</tspan></text></g><text fill="#808080" x="28.843725" y="34.785645"><tspan stroke-width="1.3333" x="28.843725" y="34.785645">1</tspan></text><text x="41.504745" y="34.785645"><tspan stroke-width="1.3333" x="41.504745 50.389847 57.807449 65.225037 72.642662 76.338112 80.033569 88.918663 91.880379 98.550858 105.96845 109.66392 117.0815" y="34.785645">Shoe, Size 36</tspan></text><text x="158.06184" y="34.785645"><tspan stroke-width="1.3333" x="158.06184 165.47942 172.89702 180.31462 184.01009 191.42766" y="34.785645">150.99</tspan></text><text x="220.57492" y="34.785645"><tspan stroke-width="1.3333" x="220.57492 227.99252 235.41013 242.82773" y="34.785645">1300</tspan></text><text x="279.45746" y="34.785645"><tspan stroke-width="1.3333" x="279.45746 286.87509 294.29266" y="34.785645">350</tspan></text><text x="330.89621" y="34.785645"><tspan stroke-width="1.3333" x="330.89621 338.31378 345.73141" y="34.785645">250</tspan></text><text x="382.33359" y="34.785645"><tspan stroke-width="1.3333" x="382.33359 389.75119 397.16876" y="34.785645">130</tspan></text><text fill="#808080" x="28.843725" y="54.287846"><tspan stroke-width="1.3333" x="28.843725" y="54.287846">2</tspan></text><text x="41.504745" y="54.287846"><tspan stroke-width="1.3333" x="41.504745 50.389847 57.807449 65.225037 72.642662 76.338112 80.033569 88.918663 91.880379 98.550858 105.96845 109.66392 117.0815" y="54.287846">Shoe, Size 37</tspan></text><text x="158.06184" y="54.287846"><tspan stroke-width="1.3333" x="158.06184 165.47942 172.89702 180.31462 184.01009 191.42766" y="54.287846">152.99</tspan></text><text x="220.57492" y="54.287846"><tspan stroke-width="1.3333" x="220.57492 227.99252 235.41013 242.82773" y="54.287846">1325</tspan></text><text x="279.45746" y="54.287846"><tspan stroke-width="1.3333" x="279.45746 286.87509 294.29266" y="54.287846">350</tspan></text><text x="330.89621" y="54.287846"><tspan stroke-width="1.3333" x="330.89621 338.31378 345.73141" y="54.287846">250</tspan></text><text x="382.33359" y="54.287846"><tspan stroke-width="1.3333" x="382.33359 389.75119 397.16876" y="54.287846">130</tspan></text><text fill="#808080" x="28.843725" y="73.790039"><tspan stroke-width="1.3333" x="28.843725" y="73.790039">3</tspan></text><text x="41.504745" y="73.790039"><tspan stroke-width="1.3333" x="41.504745 50.389847 57.807449 65.225037 72.642662 76.338112 80.033569 88.918663 91.880379 98.550858 105.96845 109.66392 117.0815" y="73.790039">Shoe, Size 38</tspan></text><text x="158.06184" y="73.790039"><tspan stroke-width="1.3333" x="158.06184 165.47942 172.89702 180.31462 184.01009 191.42766" y="73.790039">154.99</tspan></text><text x="220.57492" y="73.790039"><tspan stroke-width="1.3333" x="220.57492 227.99252 235.41013 242.82773" y="73.790039">1350</tspan></text><text x="279.45746" y="73.790039"><tspan stroke-width="1.3333" x="279.45746 286.87509 294.29266" y="73.790039">350</tspan></text><text x="330.89621" y="73.790039"><tspan stroke-width="1.3333" x="330.89621 338.31378 345.73141" y="73.790039">250</tspan></text><text x="382.33359" y="73.790039"><tspan stroke-width="1.3333" x="382.33359 389.75119 397.16876" y="73.790039">130</tspan></text><text fill="#808080" x="28.843725" y="93.290855"><tspan stroke-width="1.3333" x="28.843725" y="93.290855">4</tspan></text><text x="41.504745" y="93.290855"><tspan stroke-width="1.3333" x="41.504745 50.389847 57.807449 65.225037 72.642662 76.338112 80.033569 88.918663 91.880379 98.550858 105.96845 109.66392 117.0815" y="93.290855">Shoe, Size 39</tspan></text><text x="158.06184" y="93.290855"><tspan stroke-width="1.3333" x="158.06184 165.47942 172.89702 180.31462 184.01009 191.42766" y="93.290855">156.99</tspan></text><text x="220.57492" y="93.290855"><tspan stroke-width="1.3333" x="220.57492 227.99252 235.41013 242.82773" y="93.290855">1375</tspan></text><text x="279.45746" y="93.290855"><tspan stroke-width="1.3333" x="279.45746 286.87509 294.29266" y="93.290855">350</tspan></text><text x="330.89621" y="93.290855"><tspan stroke-width="1.3333" x="330.89621 338.31378 345.73141" y="93.290855">250</tspan></text><text x="382.33359" y="93.290855"><tspan stroke-width="1.3333" x="382.33359 389.75119 397.16876" y="93.290855">130</tspan></text><text fill="#808080" x="28.843725" y="112.79305"><tspan stroke-width="1.3333" x="28.843725" y="112.79305">5</tspan></text><text x="41.504745" y="112.79305"><tspan stroke-width="1.3333" x="41.504745 50.389847 57.807449 65.225037 72.642662 76.338112 80.033569 88.918663 91.880379 98.550858 105.96845 109.66392 117.0815" y="112.79305">Shoe, Size 40</tspan></text><text x="158.06184" y="112.79305"><tspan stroke-width="1.3333" x="158.06184 165.47942 172.89702 180.31462 184.01009 191.42766" y="112.79305">158.99</tspan></text><text x="220.57492" y="112.79305"><tspan stroke-width="1.3333" x="220.57492 227.99252 235.41013 242.82773" y="112.79305">1400</tspan></text><text x="279.45746" y="112.79305"><tspan stroke-width="1.3333" x="279.45746 286.87509 294.29266" y="112.79305">350</tspan></text><text x="330.89621" y="112.79305"><tspan stroke-width="1.3333" x="330.89621 338.31378 345.73141" y="112.79305">250</tspan></text><text x="382.33359" y="112.79305"><tspan stroke-width="1.3333" x="382.33359 389.75119 397.16876" y="112.79305">130</tspan></text><text fill="#808080" x="28.843725" y="132.29526"><tspan stroke-width="1.3333" x="28.843725" y="132.29526">6</tspan></text><text x="41.504745" y="132.29526"><tspan stroke-width="1.3333" x="41.504745 50.389847 57.807449 65.225037 72.642662 76.338112 80.033569 88.918663 91.880379 98.550858 105.96845 109.66392 117.0815" y="132.29526">Shoe, Size 41</tspan></text><text x="158.06184" y="132.29526"><tspan stroke-width="1.3333" x="158.06184 165.47942 172.89702 180.31462 184.01009 191.42766" y="132.29526">160.99</tspan></text><text x="220.57492" y="132.29526"><tspan stroke-width="1.3333" x="220.57492 227.99252 235.41013 242.82773" y="132.29526">1425</tspan></text><text x="279.45746" y="132.29526"><tspan stroke-width="1.3333" x="279.45746 286.87509 294.29266" y="132.29526">350</tspan></text><text x="330.89621" y="132.29526"><tspan stroke-width="1.3333" x="330.89621 338.31378 345.73141" y="132.29526">250</tspan></text><text x="382.33359" y="132.29526"><tspan stroke-width="1.3333" x="382.33359 389.75119 397.16876" y="132.29526">130</tspan></text><text fill="#808080" x="28.843725" y="151.79745"><tspan stroke-width="1.3333" x="28.843725" y="151.79745">7</tspan></text><text x="41.504745" y="151.79745"><tspan stroke-width="1.3333" x="41.504745 50.389847 57.807449 65.225037 72.642662 76.338112 80.033569 88.918663 91.880379 98.550858 105.96845 109.66392 117.0815" y="151.79745">Shoe, Size 42</tspan></text><text x="158.06184" y="151.79745"><tspan stroke-width="1.3333" x="158.06184 165.47942 172.89702 180.31462 184.01009 191.42766" y="151.79745">162.99</tspan></text><text x="220.57492" y="151.79745"><tspan stroke-width="1.3333" x="220.57492 227.99252 235.41013 242.82773" y="151.79745">1450</tspan></text><text x="279.45746" y="151.79745"><tspan stroke-width="1.3333" x="279.45746 286.87509 294.29266" y="151.79745">350</tspan></text><text x="330.89621" y="151.79745"><tspan stroke-width="1.3333" x="330.89621 338.31378 345.73141" y="151.79745">250</tspan></text><text x="382.33359" y="151.79745"><tspan stroke-width="1.3333" x="382.33359 389.75119 397.16876" y="151.79745">130</tspan></text><text fill="#808080" x="28.843725" y="171.29826"><tspan stroke-width="1.3333" x="28.843725" y="171.29826">8</tspan></text><text x="41.504745" y="171.29826"><tspan stroke-width="1.3333" x="41.504745 50.389847 57.807449 65.225037 72.642662 76.338112 80.033569 88.918663 91.880379 98.550858 105.96845 109.66392 117.0815" y="171.29826">Shoe, Size 43</tspan></text><text x="158.06184" y="171.29826"><tspan stroke-width="1.3333" x="158.06184 165.47942 172.89702 180.31462 184.01009 191.42766" y="171.29826">164.99</tspan></text><text x="220.57492" y="171.29826"><tspan stroke-width="1.3333" x="220.57492 227.99252 235.41013 242.82773" y="171.29826">1475</tspan></text><text x="279.45746" y="171.29826"><tspan stroke-width="1.3333" x="279.45746 286.87509 294.29266" y="171.29826">350</tspan></text><text x="330.89621" y="171.29826"><tspan stroke-width="1.3333" x="330.89621 338.31378 345.73141" y="171.29826">250</tspan></text><text x="382.33359" y="171.29826"><tspan stroke-width="1.3333" x="382.33359 389.75119 397.16876" y="171.29826">130</tspan></text><text fill="#808080" x="28.843725" y="190.80046"><tspan stroke-width="1.3333" x="28.843725" y="190.80046">9</tspan></text><text x="41.504745" y="190.80046"><tspan stroke-width="1.3333" x="41.504745 50.389847 61.502892 68.920502 71.882187 74.843895 78.53936 87.424477 94.842041 99.284622 105.95511" y="190.80046">Small Purse</tspan></text><text x="176.58138" y="190.80046"><tspan stroke-width="1.3333" x="176.58138 183.99895 191.41655" y="190.80046">100</tspan></text><text x="228.02007" y="190.80046"><tspan stroke-width="1.3333" x="228.02007 235.43767 242.85527" y="190.80046">500</tspan></text><text x="279.45746" y="190.80046"><tspan stroke-width="1.3333" x="279.45746 286.87509 294.29266" y="190.80046">350</tspan></text><text x="330.89621" y="190.80046"><tspan stroke-width="1.3333" x="330.89621 338.31378 345.73141" y="190.80046">250</tspan></text><text x="382.33359" y="190.80046"><tspan stroke-width="1.3333" x="382.33359 389.75119 397.16876" y="190.80046">130</tspan></text><text fill="#808080" x="21.359913" y="210.30266"><tspan stroke-width="1.3333" x="21.359913 28.777514" y="210.30266">10</tspan></text><text x="41.504745" y="210.30266"><tspan stroke-width="1.3333" x="41.504745 52.617798 60.035378 67.45298 70.414688 77.832291 88.945343 92.640793 101.5259 108.9435 113.38605 120.05654" y="210.30266">Medium Purse</tspan></text><text x="176.58138" y="210.30266"><tspan stroke-width="1.3333" x="176.58138 183.99895 191.41655" y="210.30266">120</tspan></text><text x="228.02007" y="210.30266"><tspan stroke-width="1.3333" x="228.02007 235.43767 242.85527" y="210.30266">750</tspan></text><text x="279.45746" y="210.30266"><tspan stroke-width="1.3333" x="279.45746 286.87509 294.29266" y="210.30266">400</tspan></text><text x="330.89621" y="210.30266"><tspan stroke-width="1.3333" x="330.89621 338.31378 345.73141" y="210.30266">300</tspan></text><text x="382.33359" y="210.30266"><tspan stroke-width="1.3333" x="382.33359 389.75119 397.16876" y="210.30266">200</tspan></text><text fill="#808080" x="21.359913" y="229.80478"><tspan stroke-width="1.3333" x="21.359913 28.777514" y="229.80478">11</tspan></text><text x="41.504745" y="229.80478"><tspan stroke-width="1.3333" x="41.504745 48.922337 56.339935 60.782501 68.200073 75.617668 79.313133 88.198242 95.615852 100.05839 106.7289" y="229.80478">Large Purse</tspan></text><text x="176.58138" y="229.80478"><tspan stroke-width="1.3333" x="176.58138 183.99895 191.41655" y="229.80478">150</tspan></text><text x="220.57492" y="229.80478"><tspan stroke-width="1.3333" x="220.57492 227.99252 235.41013 242.82773" y="229.80478">1500</tspan></text><text x="279.45746" y="229.80478"><tspan stroke-width="1.3333" x="279.45746 286.87509 294.29266" y="229.80478">600</tspan></text><text x="330.89621" y="229.80478"><tspan stroke-width="1.3333" x="330.89621 338.31378 345.73141" y="229.80478">300</tspan></text><text x="382.33359" y="229.80478"><tspan stroke-width="1.3333" x="382.33359 389.75119 397.16876" y="229.80478">250</tspan></text><text fill="#808080" x="22.834547" y="249.30698"><tspan stroke-width="1.3333" x="22.834547" y="249.30698">…</tspan></text><text x="41.504745" y="249.30698"><tspan stroke-width="1.3333" x="41.504745" y="249.30698">…</tspan></text><text x="185.38782" y="249.30698"><tspan stroke-width="1.3333" x="185.38782" y="249.30698">…</tspan></text><text x="236.8252" y="249.30698"><tspan stroke-width="1.3333" x="236.8252" y="249.30698">…</tspan></text><text x="288.26392" y="249.30698"><tspan stroke-width="1.3333" x="288.26392" y="249.30698">…</tspan></text><text x="339.70264" y="249.30698"><tspan stroke-width="1.3333" x="339.70264" y="249.30698">…</tspan></text><text x="391.14001" y="249.30698"><tspan stroke-width="1.3333" x="391.14001" y="249.30698">…</tspan></text><g fill="#666"><text x="160.36844" y="267.67453"><tspan stroke-width="1.3333" x="160.36844 170.00064 181.11369" y="267.67453">RMB</tspan></text><text x="223.44687" y="267.67453"><tspan stroke-width="1.3333" x="223.44687" y="267.67453">g</tspan></text><text x="267.47644" y="267.67453"><tspan stroke-width="1.3333" x="267.47644 278.58948" y="267.67453">mm</tspan></text><text x="318.91519" y="267.67453"><tspan stroke-width="1.3333" x="318.91519 330.02823" y="267.67453">mm</tspan></text><text x="370.35388" y="267.67453"><tspan stroke-width="1.3333" x="370.35388 381.46692" y="267.67453">mm</tspan></text></g></g></svg>