<svg height="179pt" viewBox="0 0 461 179" width="461pt" xmlns="http://www.w3.org/2000/svg" xmlns:xlink="http://www.w3.org/1999/xlink"><linearGradient id="a" x2="0" y2="1"><stop offset="0" stop-color="#a9a9a9" stop-opacity=".19608"/><stop offset="1" stop-color="#a9a9a9" stop-opacity=".19608"/></linearGradient><linearGradient id="b" x2="0" y2="1"><stop offset="0" stop-color="#fcfcfc"/><stop offset="1" stop-color="#fcfcfc"/></linearGradient><linearGradient id="c" x2="0" y2="1"><stop offset="0" stop-color="#ffff80"/><stop offset="1" stop-color="#ffff80"/></linearGradient><linearGradient id="d" x2="0" y2="1"><stop offset="0" stop-color="#d2e9ff"/><stop offset="1" stop-color="#d2e9ff"/></linearGradient><linearGradient id="e" x2="0" y2="1"><stop offset="0" stop-color="#c5cbff"/><stop offset="1" stop-color="#c5cbff"/></linearGradient><linearGradient id="f" x2="0" y2="1"><stop offset="0" stop-color="#f3f3f3"/><stop offset="1" stop-color="#e1e1e1"/></linearGradient><linearGradient id="g" x2="0" y2="1"><stop offset="0" stop-color="#4aa5ff"/><stop offset="1" stop-color="#4aa5ff"/></linearGradient><linearGradient id="h" gradientTransform="matrix(.99946 0 0 1.0005 183.99 76.12)" gradientUnits="userSpaceOnUse" x1="-.75034" x2="-.75034" y1="-.78024" y2="18.89"><stop offset="0" stop-color="#dcdcdc"/><stop offset="1" stop-color="#dcdcdc"/></linearGradient><linearGradient id="i" gradientTransform="matrix(1.8004 0 0 .55544 210.3 110.27)" gradientUnits="userSpaceOnUse" x2="0" xlink:href="#a" y2="52.211"/><linearGradient id="j" gradientTransform="matrix(1.7795 0 0 .56195 202.3 102.27)" gradientUnits="userSpaceOnUse" x1="-.28098" x2="-.28098" y1="-.88976" y2="52.496"><stop offset="0" stop-color="#eeffe0"/><stop offset="1" stop-color="#eeffe0"/></linearGradient><linearGradient id="k" gradientTransform="matrix(1.0272 0 0 .97348 330.02 29.788)" gradientUnits="userSpaceOnUse" x2="0" xlink:href="#a" y2="126.07"/><linearGradient id="l" gradientTransform="matrix(1.6062 0 0 .6226 322.02 47.788)" gradientUnits="userSpaceOnUse" x1="-.3113" x2="-.3113" xlink:href="#b" y1="-.80308" y2="79.826"/><linearGradient id="m" gradientTransform="matrix(2.1661 0 0 .46165 322.02 96.988)" gradientUnits="userSpaceOnUse" x1="-.23083" x2="-.23083" xlink:href="#b" y1="-1.0831" y2="58.702"/><linearGradient id="n" gradientTransform="matrix(.99738 0 0 1.0026 330.02 54.828)" gradientUnits="userSpaceOnUse" x1="-.57651" x2="-.57651" xlink:href="#c" y1="-.81104" y2="12.474"/><linearGradient id="o" gradientUnits="userSpaceOnUse" x1="329.44" x2="329.44" xlink:href="#d" y1="77.438" y2="89.588"/><linearGradient id="p" gradientTransform="matrix(.98481 0 0 1.0154 330.02 103.94)" gradientUnits="userSpaceOnUse" x1="-.41286" x2="-.41286" xlink:href="#e" y1="-.80082" y2="12.483"/><linearGradient id="q" gradientTransform="matrix(2.4878 0 0 .40196 322.02 123.59)" gradientUnits="userSpaceOnUse" x1="-.20098" x2="-.20098" xlink:href="#b" y1="-1.2439" y2="50.811"/><linearGradient id="r" gradientTransform="matrix(1.1144 0 0 .89736 399.77 128.56)" gradientUnits="userSpaceOnUse" x1="-.61828" x2="-.61828" xlink:href="#f" y1="-.76781" y2="10.102"/><linearGradient id="s" gradientTransform="matrix(1.0891 0 0 .9182 378.25 128.56)" gradientUnits="userSpaceOnUse" x1="-.38932" x2="-.38932" xlink:href="#f" y1="-.75038" y2="10.128"/><linearGradient id="t" gradientTransform="matrix(.98191 0 0 1.0184 356.39 128.62)" gradientUnits="userSpaceOnUse" x1="-.36007" x2="-.36007" xlink:href="#f" y1="-.69431" y2="8.988"/><linearGradient id="u" gradientTransform="matrix(2.1904 0 0 .45653 322.02 21.788)" gradientUnits="userSpaceOnUse" x1="-.24729" x2="-.24729" xlink:href="#g" y1="-1.0952" y2="58.046"/><linearGradient id="v" gradientTransform="matrix(.98514 0 0 1.0151 10.019 9.788)" gradientUnits="userSpaceOnUse" x2="0" xlink:href="#a" y2="165.43"/><linearGradient id="w" gradientTransform="matrix(1.4962 0 0 .66836 2.0193 27.788)" gradientUnits="userSpaceOnUse" x1="-.33418" x2="-.33418" xlink:href="#b" y1="-.7481" y2="108.18"/><linearGradient id="x" gradientTransform="matrix(1.8018 0 0 .555 2.0193 99.588)" gradientUnits="userSpaceOnUse" x1="-.2775" x2="-.2775" xlink:href="#b" y1="-.9009" y2="89.549"/><linearGradient id="y" gradientTransform="matrix(.99738 0 0 1.0026 10.019 34.828)" gradientUnits="userSpaceOnUse" x1="-.57651" x2="-.57651" xlink:href="#c" y1="-.81104" y2="12.474"/><linearGradient id="z" gradientUnits="userSpaceOnUse" x1="9.4443" x2="9.4443" xlink:href="#d" y1="57.438" y2="69.588"/><linearGradient id="A" gradientUnits="userSpaceOnUse" x1="9.4443" x2="9.4443" y1="79.488" y2="92.738"><stop offset="0" stop-color="#ff8769"/><stop offset="1" stop-color="#ff8769"/></linearGradient><linearGradient id="B" gradientTransform="matrix(.98481 0 0 1.0154 10.019 106.54)" gradientUnits="userSpaceOnUse" x1="-.41286" x2="-.41286" xlink:href="#e" y1="-.80082" y2="12.483"/><linearGradient id="C" gradientTransform="matrix(.98481 0 0 1.0154 10.019 129.14)" gradientUnits="userSpaceOnUse" x1="-.41286" x2="-.41286" xlink:href="#e" y1="-.80082" y2="12.483"/><linearGradient id="D" gradientTransform="matrix(2.7908 0 0 .35832 2.0193 148.79)" gradientUnits="userSpaceOnUse" x1="-.17916" x2="-.17916" xlink:href="#b" y1="-1.3954" y2="57"/><linearGradient id="E" gradientTransform="matrix(1.1144 0 0 .89736 96.504 153.76)" gradientUnits="userSpaceOnUse" x1="-.61828" x2="-.61828" xlink:href="#f" y1="-.76781" y2="10.102"/><linearGradient id="F" gradientTransform="matrix(1.0891 0 0 .9182 74.98 153.76)" gradientUnits="userSpaceOnUse" x1="-.38932" x2="-.38932" xlink:href="#f" y1="-.75038" y2="10.128"/><linearGradient id="G" gradientTransform="matrix(.98191 0 0 1.0184 53.119 153.82)" gradientUnits="userSpaceOnUse" x1="-.36007" x2="-.36007" xlink:href="#f" y1="-.69431" y2="8.988"/><linearGradient id="H" gradientTransform="matrix(2.4571 0 0 .40698 2.0193 1.788)" gradientUnits="userSpaceOnUse" x1="-.22045" x2="-.22045" xlink:href="#g" y1="-1.2286" y2="65.114"/><g stroke="#606060" stroke-linecap="square" stroke-linejoin="bevel" stroke-width="1.5"><g fill="none"><path d="m164.99 85.051h33"/><path d="m197.99 85.051c51.014 0 51.014-1.346 102.03-1.346"/><path d="m300.02 83.705h22"/><g transform="translate(164.99 85.051)"><path d="m18 0-18-11"/><path d="m18 0-18 11"/></g></g><circle cx="193.07" cy="85.195" fill="url(#h)" fill-rule="evenodd" r="9.075" stroke-dasharray="6 3"/><g fill="none"><path d="m0-8.8v17.6" transform="translate(312.02 83.705)"/><path d="m0-8.8v17.6" transform="translate(304.02 83.705)"/></g></g><g fill-rule="evenodd"><path d="m210.3 110.27h94v29h-94z" fill="url(#i)"/><path d="m202.3 102.27h94v29h-94z" fill="url(#j)" stroke="#a4b09b" stroke-linecap="square" stroke-linejoin="bevel"/><text style="font-family:Noto Sans;font-size:13.2;font-style:italic;font-weight:400;stroke-linecap:square;stroke-linejoin:bevel" x="209.30133" y="121.9596">home_address</text><path d="m330.02 41.788c0-6.6274 5.3726-12 12-12h105.5c6.628 0 12 5.3726 12 12v98.724c0 6.627-5.372 12-12 12h-105.5c-6.6274 0-12-5.373-12-12z" fill="url(#k)"/><g stroke-linecap="square" stroke-linejoin="bevel"><path d="m322.02 47.788h128.5v49.2h-128.5z" fill="url(#l)" stroke="#d7d7d7"/><path d="m322.02 96.988h128.5v26.6h-128.5z" fill="url(#m)" stroke="#d7d7d7"/><path d="m332.71 54.828-2.6889 2.6889v6.7222l2.6889 2.6889 1.3444-1.3444v-2.6889h1.3444l1.3444 1.3444 2.6889-2.6889 2.6889 2.6889v-5.3778h-8.0667v-2.6889z" fill="url(#n)" stroke="#897416" stroke-width="1.15"/><text fill="#2b7dba" font-family="Noto Sans" font-size="14.667" font-style="italic" font-weight="700" x="347.26935" y="66.619301">id</text><circle cx="335.52" cy="83.513" fill="url(#o)" r="5.5" stroke="#5a9ee4" stroke-width="1.15"/><text font-family="Noto Sans" font-size="14.667" font-style="italic" font-weight="400" x="346.16934" y="89.219299">full_address</text><path d="m336.74 103.94-6.7222 6.7222 5.3778 5.3778h6.7222v-6.7222z" fill="url(#p)" stroke="#4c4c98" stroke-width="1.15"/><text fill="#082061" font-family="Noto Sans" font-size="14.667" font-style="italic" font-weight="400" x="347.10135" y="115.81931">address_id_pk</text><path d="m322.01934 123.588h128.503v7.924l-.182 2.0838-.541 2.0204-.884 1.8958-1.2 1.7135-1.479 1.479-1.714 1.1998-1.895.884-2.021.5414-2.084.1823h-104.503l-2.08378-.1823-2.02046-.5414-1.89576-.884-1.71345-1.1998-1.47908-1.479-1.19977-1.7135-.88401-1.8958-.54138-2.0204-.18231-2.0838z" fill="url(#q)" stroke="#d7d7d7"/><g stroke="#bebebe"><path d="m399.77 128.56h11l-5.5 8.8z" fill="url(#r)" opacity=".4"/><path d="m383.75 128.56-5.5 8.8h11z" fill="url(#s)"/><path d="m360.79 128.62 4.4 4.4-4.4 4.4-4.4-4.4z" fill="url(#t)"/></g><path d="m322.02 33.788.18231-2.0838.54138-2.0205.88401-1.8958 1.1998-1.7134 1.4791-1.4791 1.7134-1.1998 1.8958-.88401 2.0205-.54138 2.0838-.18231h104.5l2.084.18231 2.021.54138 1.895.88401 1.714 1.1998 1.479 1.4791 1.2 1.7134.884 1.8958.541 2.0205.182 2.0838v14h-128.5z" fill="url(#u)" stroke="#3175b0"/><g font-family="Noto Sans" font-size="14.667"><text font-style="italic" font-weight="400" x="335.45685" y="39.121296">public.</text><text fill="#fff" font-weight="700" x="379.80066" y="39.121296">address</text></g></g><path d="m10.019 21.788c0-6.6274 5.3726-12 12-12h138.97c6.628 0 12 5.3726 12 12v143.92c0 6.627-5.372 12-12 12h-138.97c-6.6274 0-12-5.373-12-12z" fill="url(#v)"/><g stroke-linecap="square" stroke-linejoin="bevel"><path d="m2.0193 27.788h161.97v71.8h-161.97z" fill="url(#w)" stroke="#d7d7d7"/><path d="m2.0193 99.588h161.97v49.2h-161.97z" fill="url(#x)" stroke="#d7d7d7"/><path d="m12.708 34.828-2.6889 2.6889v6.7222l2.6889 2.6889 1.3444-1.3444v-2.6889h1.3444l1.3444 1.3444 2.6889-2.6889 2.6889 2.6889v-5.3778h-8.0667v-2.6889z" fill="url(#y)" stroke="#897416" stroke-width="1.15"/><text fill="#2b7dba" font-family="Noto Sans" font-size="14.667" font-style="italic" font-weight="700" x="27.269337" y="46.619297">id</text><circle cx="15.519" cy="63.513" fill="url(#z)" r="5.5" stroke="#5a9ee4" stroke-width="1.15"/><text font-family="Noto Sans" font-size="14.667" font-style="italic" font-weight="400" x="26.169338" y="69.219299">name</text><path d="m10.019 84.096v4.0333h5.3778v4.0333h1.3444l5.3778-5.3778v-1.3444l-5.3778-5.3778h-1.3444v4.0333z" fill="url(#A)" stroke="#8f341b" stroke-width="1.15"/><text font-family="Noto Sans" font-size="14.667" font-style="italic" font-weight="400" x="27.269337" y="91.819305">address</text><path d="m16.742 106.54-6.7222 6.7222 5.3778 5.3778h6.7222v-6.7222z" fill="url(#B)" stroke="#4c4c98" stroke-width="1.15"/><text fill="#082061" font-family="Noto Sans" font-size="14.667" font-style="italic" font-weight="400" x="27.100937" y="118.4193">student_id_pk</text><path d="m16.742 129.14-6.7222 6.7222 5.3778 5.3778h6.7222v-6.7222z" fill="url(#C)" stroke="#4c4c98" stroke-width="1.15"/><text fill="#082061" font-family="Noto Sans" font-size="14.667" font-style="italic" font-weight="400" x="27.100937" y="141.01929">student_address_fk</text><path d="m2.0193 148.79h161.97v7.924l-.182 2.0838-.541 2.0204-.884 1.8958-1.2 1.7135-1.479 1.479-1.714 1.1998-1.896.884-2.02.5414-2.084.1823h-137.97l-2.0838-.1823-2.0205-.5414-1.8958-.884-1.7134-1.1998-1.4791-1.479-1.1998-1.7135-.88401-1.8958-.54138-2.0204-.18231-2.0838z" fill="url(#D)" stroke="#d7d7d7"/><g stroke="#bebebe"><path d="m96.504 153.76h11l-5.5 8.8z" fill="url(#E)" opacity=".4"/><path d="m80.48 153.76-5.5 8.8h11z" fill="url(#F)"/><path d="m57.519 153.82 4.4 4.4-4.4 4.4-4.4-4.4z" fill="url(#G)"/></g><path d="m2.0193 13.788.18231-2.0838.54138-2.0205.88401-1.8958 1.1998-1.7134 1.4791-1.4791 1.7134-1.1998 1.8958-.88401 2.0205-.54138 2.0838-.18231h137.97l2.084.18231 2.02.54138 1.896.88401 1.714 1.1998 1.479 1.4791 1.2 1.7134.884 1.8958.541 2.0205.182 2.0838v14h-161.97z" fill="url(#H)" stroke="#3175b0"/><g font-family="Noto Sans" font-size="14.667"><text font-style="italic" font-weight="400" x="32.081837" y="19.1213">public.</text><text fill="#fff" font-weight="700" x="76.425644" y="19.1213">student</text></g></g></g></svg>