<svg height="179pt" viewBox="0 0 683 179" width="683pt" xmlns="http://www.w3.org/2000/svg" xmlns:xlink="http://www.w3.org/1999/xlink"><linearGradient id="a" x2="0" y2="1"><stop offset="0" stop-color="#a9a9a9" stop-opacity=".19608"/><stop offset="1" stop-color="#a9a9a9" stop-opacity=".19608"/></linearGradient><linearGradient id="b" x2="0" y2="1"><stop offset="0" stop-color="#fcfcfc"/><stop offset="1" stop-color="#fcfcfc"/></linearGradient><linearGradient id="c" x2="0" y2="1"><stop offset="0" stop-color="#f3f3f3"/><stop offset="1" stop-color="#e1e1e1"/></linearGradient><linearGradient id="d" x2="0" y2="1"><stop offset="0" stop-color="#4aa5ff"/><stop offset="1" stop-color="#4aa5ff"/></linearGradient><linearGradient id="e" gradientTransform="scale(.99946 1.0005)" gradientUnits="userSpaceOnUse" x1="-.75034" x2="-.75034" y1="-.78024" y2="18.89"><stop offset="0" stop-color="#dcdcdc"/><stop offset="1" stop-color="#dcdcdc"/></linearGradient><linearGradient id="f" gradientTransform="scale(1.8004 .55544)" gradientUnits="userSpaceOnUse" x2="0" xlink:href="#a" y2="52.211"/><linearGradient id="g" gradientTransform="scale(1.7795 .56195)" gradientUnits="userSpaceOnUse" x1="-.28098" x2="-.28098" y1="-.88976" y2="52.496"><stop offset="0" stop-color="#eeffe0"/><stop offset="1" stop-color="#eeffe0"/></linearGradient><linearGradient id="h" gradientTransform="scale(1.4333 .69768)" gradientUnits="userSpaceOnUse" x2="0" xlink:href="#a" y2="175.9"/><linearGradient id="i" gradientTransform="scale(2.2411 .44622)" gradientUnits="userSpaceOnUse" x1="-.22311" x2="-.22311" xlink:href="#b" y1="-1.1205" y2="111.38"/><linearGradient id="j" gradientTransform="scale(3.0224 .33086)" gradientUnits="userSpaceOnUse" x1="-.16543" x2="-.16543" xlink:href="#b" y1="-1.5112" y2="81.907"/><linearGradient id="k" gradientTransform="scale(.99738 1.0026)" gradientUnits="userSpaceOnUse" x1="-.57651" x2="-.57651" y1="-.81104" y2="12.474"><stop offset="0" stop-color="#ffff80"/><stop offset="1" stop-color="#ffff80"/></linearGradient><linearGradient id="l" gradientUnits="userSpaceOnUse" x1="-.575" x2="-.575" y1="-.575" y2="11.575"><stop offset="0" stop-color="#d2e9ff"/><stop offset="1" stop-color="#d2e9ff"/></linearGradient><linearGradient id="m" gradientTransform="scale(.98481 1.0154)" gradientUnits="userSpaceOnUse" x1="-.41286" x2="-.41286" y1="-.80082" y2="12.483"><stop offset="0" stop-color="#c5cbff"/><stop offset="1" stop-color="#c5cbff"/></linearGradient><linearGradient id="n" gradientTransform="scale(3.4712 .28808)" gradientUnits="userSpaceOnUse" x1="-.14404" x2="-.14404" xlink:href="#b" y1="-1.7356" y2="70.896"/><linearGradient id="o" gradientTransform="scale(1.1144 .89736)" gradientUnits="userSpaceOnUse" x1="-.61828" x2="-.61828" xlink:href="#c" y1="-.76781" y2="10.102"/><linearGradient id="p" gradientTransform="scale(1.0891 .9182)" gradientUnits="userSpaceOnUse" x1="-.38932" x2="-.38932" xlink:href="#c" y1="-.75038" y2="10.128"/><linearGradient id="q" gradientTransform="scale(.98191 1.0184)" gradientUnits="userSpaceOnUse" x1="-.36007" x2="-.36007" xlink:href="#c" y1="-.69431" y2="8.988"/><linearGradient id="r" gradientTransform="scale(3.056 .32722)" gradientUnits="userSpaceOnUse" x1="-.17725" x2="-.17725" xlink:href="#d" y1="-1.528" y2="80.985"/><linearGradient id="s" gradientTransform="scale(1.2976 .77065)" gradientUnits="userSpaceOnUse" x2="0" xlink:href="#a" y2="217.9"/><linearGradient id="t" gradientTransform="scale(1.9708 .50742)" gradientUnits="userSpaceOnUse" x1="-.25371" x2="-.25371" xlink:href="#b" y1="-.98538" y2="142.49"/><linearGradient id="u" gradientTransform="scale(2.3733 .42136)" gradientUnits="userSpaceOnUse" x1="-.21068" x2="-.21068" xlink:href="#b" y1="-1.1866" y2="117.95"/><linearGradient id="v" gradientUnits="userSpaceOnUse" x1="-.575" x2="-.575" y1="-.575" y2="12.675"><stop offset="0" stop-color="#ff8769"/><stop offset="1" stop-color="#ff8769"/></linearGradient><linearGradient id="w" gradientTransform="scale(3.676 .27203)" gradientUnits="userSpaceOnUse" x1="-.13602" x2="-.13602" xlink:href="#b" y1="-1.838" y2="75.079"/><linearGradient id="x" gradientTransform="scale(3.2363 .30899)" gradientUnits="userSpaceOnUse" x1="-.16737" x2="-.16737" xlink:href="#d" y1="-1.6182" y2="85.762"/><g stroke="#606060" stroke-linecap="square" stroke-linejoin="bevel" stroke-width="1.5"><g fill="none"><g transform="translate(-78.291 -78.212)"><path d="m362.75 163.05h33"/><path d="m395.75 163.054c41.125 0 41.125-.882 82.25-.882"/><path d="m478 162.17h22"/></g><g transform="translate(284.46 84.842)"><path d="m18 0-18-11"/><path d="m18 0-18 11"/></g></g><circle cx="9.075" cy="9.075" fill="url(#e)" fill-rule="evenodd" r="9.075" stroke-dasharray="6 3" transform="translate(303.46 75.91)"/><g fill="none"><path d="m0-8.8v17.6" transform="translate(411.71 83.96)"/><path d="m0-8.8v17.6" transform="translate(403.71 83.96)"/></g></g><g fill-rule="evenodd"><path d="m0 0h94v29h-94z" fill="url(#f)" transform="translate(319.88 110.29)"/><path d="m0 0h94v29h-94z" fill="url(#g)" stroke="#a4b09b" stroke-linecap="square" stroke-linejoin="bevel" transform="translate(311.88 102.29)"/><text style="font-family:Noto Sans;font-size:13.2;font-style:italic;font-weight:400;stroke-linecap:square;stroke-linejoin:bevel" transform="translate(314.88 104.09)" x="4" y="17.8906">home_address</text><path d="m0 12c0-6.6274 5.3726-12 12-12h228.12c6.627 0 12 5.3726 12 12v98.724c0 6.627-5.373 12-12 12h-228.12c-6.6274 0-12-5.373-12-12z" fill="url(#h)" transform="translate(429.71 29.788)"/><g stroke-linecap="square" stroke-linejoin="bevel"><path d="m0 0h251.12v49.2h-251.12z" fill="url(#i)" stroke="#d7d7d7" transform="translate(421.71 47.788)"/><path d="m0 0h251.12v26.6h-251.12z" fill="url(#j)" stroke="#d7d7d7" transform="translate(421.71 96.988)"/><path d="m2.6889 0-2.6889 2.6889v6.7222l2.6889 2.6889 1.3444-1.3444v-2.6889h1.3444l1.3444 1.3444 2.6889-2.6889 2.6889 2.6889v-5.3778h-8.0667v-2.6889z" fill="url(#k)" stroke="#897416" stroke-width="1.15" transform="translate(429.71 54.828)"/><g font-family="Noto Sans" font-size="14.667" font-style="italic"><text fill="#2b7dba" font-weight="700" transform="translate(446.96 50.588)" y="16.0313">id</text><text fill="#4964a6" font-weight="700" transform="translate(525.89 50.588)" xml:space="preserve" y="16.0313"> integer</text><text fill="#25682d" font-weight="400" transform="translate(631.68 50.588)" y="16.0313">« pk »</text></g><circle cx="5.5" cy="5.5" fill="url(#l)" r="5.5" stroke="#5a9ee4" stroke-width="1.15" transform="translate(429.71 78.013)"/><g font-family="Noto Sans" font-size="14.667" font-style="italic"><text font-weight="400" transform="translate(445.86 73.188)" y="16.0313">full_address</text><text fill="#4964a6" font-weight="700" transform="translate(525.89 73.188)" xml:space="preserve" y="16.0313"> varchar(255)</text><text fill="#25682d" font-weight="400" transform="translate(630.43 73.188)" y="16.0313">« nn »</text></g><path d="m6.7222 0-6.7222 6.7222 5.3778 5.3778h6.7222v-6.7222z" fill="url(#m)" stroke="#4c4c98" stroke-width="1.15" transform="translate(429.71 103.94)"/><g font-family="Noto Sans" font-size="14.667" font-style="italic"><text fill="#082061" font-weight="400" transform="translate(446.79 99.788)" y="16.0313">address_id_pk</text><text fill="#4964a6" font-weight="700" transform="translate(540.21 99.788)" xml:space="preserve" y="16.0313"> constraint</text><text fill="#25682d" font-weight="400" transform="translate(631.68 99.788)" y="16.0313">« pk »</text></g><path d="m0 0h251.123v7.924l-.183 2.0838-.541 2.0204-.884 1.8958-1.2 1.7135-1.479 1.479-1.713 1.1998-1.896.884-2.021.5414-2.083.1823h-227.123l-2.08378-.1823-2.02046-.5414-1.89576-.884-1.71345-1.1998-1.47908-1.479-1.19977-1.7135-.884011-1.8958-.541382-2.0204-.182307-2.0838z" fill="url(#n)" stroke="#d7d7d7" transform="translate(421.71 123.59)"/><g stroke="#bebebe"><path d="m0 0h11l-5.5 8.8z" fill="url(#o)" opacity=".4" transform="translate(560.77 128.56)"/><path d="m5.5 0-5.5 8.8h11z" fill="url(#p)" transform="translate(539.25 128.56)"/><path d="m4.4 0 4.4 4.4-4.4 4.4-4.4-4.4z" fill="url(#q)" transform="translate(517.38 128.62)"/></g><g transform="translate(421.71 21.788)"><path d="m0 12 .18231-2.0838.54138-2.0205.88401-1.8958 1.1998-1.7134 1.4791-1.4791 1.7134-1.1998 1.8958-.88401 2.0205-.54138 2.0838-.18231h227.12l2.083.18231 2.021.54138 1.896.88401 1.713 1.1998 1.479 1.4791 1.2 1.7134.884 1.8958.541 2.0205.183 2.0838v14h-251.12z" fill="url(#r)" stroke="#3175b0"/><g font-family="Noto Sans" font-size="14.667"><text font-style="italic" font-weight="400" x="74.734398" y="17.3333">public.</text><text fill="#fff" font-weight="700" x="119.078" y="17.3333">address</text></g></g></g><path d="m0 12c0-6.6274 5.3726-12 12-12h258.75c6.627 0 12 5.3726 12 12v143.92c0 6.627-5.373 12-12 12h-258.75c-6.6274 0-12-5.373-12-12z" fill="url(#s)" transform="translate(9.7093 9.788)"/><g stroke-linecap="square" stroke-linejoin="bevel"><path d="m0 0h281.75v71.8h-281.75z" fill="url(#t)" stroke="#d7d7d7" transform="translate(1.7093 27.788)"/><path d="m0 0h281.75v49.2h-281.75z" fill="url(#u)" stroke="#d7d7d7" transform="translate(1.7093 99.588)"/><path d="m2.6889 0-2.6889 2.6889v6.7222l2.6889 2.6889 1.3444-1.3444v-2.6889h1.3444l1.3444 1.3444 2.6889-2.6889 2.6889 2.6889v-5.3778h-8.0667v-2.6889z" fill="url(#k)" stroke="#897416" stroke-width="1.15" transform="translate(9.7093 34.828)"/><g font-family="Noto Sans" font-size="14.667" font-style="italic"><text fill="#2b7dba" font-weight="700" transform="translate(26.959 30.588)" y="16.0313">id</text><text fill="#4964a6" font-weight="700" transform="translate(79.912 30.588)" xml:space="preserve" y="16.0313"> integer</text><text fill="#25682d" font-weight="400" transform="translate(242.3 30.588)" y="16.0313">« pk »</text></g><circle cx="5.5" cy="5.5" fill="url(#l)" r="5.5" stroke="#5a9ee4" stroke-width="1.15" transform="translate(9.7093 58.013)"/><g font-family="Noto Sans" font-size="14.667" font-style="italic"><text font-weight="400" transform="translate(25.859 53.188)" y="16.0313">name</text><text fill="#4964a6" font-weight="700" transform="translate(79.912 53.188)" xml:space="preserve" y="16.0313"> varchar(255)</text><text fill="#25682d" font-weight="400" transform="translate(241.05 53.188)" y="16.0313">« nn »</text></g><path d="m0 4.0333v4.0333h5.3778v4.0333h1.3444l5.3778-5.3778v-1.3444l-5.3778-5.3778h-1.3444v4.0333z" fill="url(#v)" stroke="#8f341b" stroke-width="1.15" transform="translate(9.7093 80.063)"/><g font-family="Noto Sans" font-size="14.667" font-style="italic"><text font-weight="400" transform="translate(26.959 75.788)" y="16.0313">address</text><text fill="#4964a6" font-weight="700" transform="translate(79.912 75.788)" xml:space="preserve" y="16.0313"> integer</text><text fill="#25682d" font-weight="400" transform="translate(224.97 75.788)" y="16.0313">« fk nn »</text></g><path d="m6.7222 0-6.7222 6.7222 5.3778 5.3778h6.7222v-6.7222z" fill="url(#m)" stroke="#4c4c98" stroke-width="1.15" transform="translate(9.7093 106.54)"/><g font-family="Noto Sans" font-size="14.667" font-style="italic"><text fill="#082061" font-weight="400" transform="translate(26.791 102.39)" y="16.0313">student_id_pk</text><text fill="#4964a6" font-weight="700" transform="translate(153.68 102.39)" xml:space="preserve" y="16.0313"> constraint</text><text fill="#25682d" font-weight="400" transform="translate(242.3 102.39)" y="16.0313">« pk »</text></g><path d="m6.7222 0-6.7222 6.7222 5.3778 5.3778h6.7222v-6.7222z" fill="url(#m)" stroke="#4c4c98" stroke-width="1.15" transform="translate(9.7093 129.14)"/><g font-family="Noto Sans" font-size="14.667" font-style="italic"><text fill="#082061" font-weight="400" transform="translate(26.791 124.99)" y="16.0313">student_address_fk</text><text fill="#4964a6" font-weight="700" transform="translate(153.68 124.99)" xml:space="preserve" y="16.0313"> constraint</text><text fill="#25682d" font-weight="400" transform="translate(246.21 124.99)" y="16.0313">« fk »</text></g><path d="m0 0h281.75v7.924l-.183 2.0838-.541 2.0204-.884 1.8958-1.2 1.7135-1.479 1.479-1.713 1.1998-1.896.884-2.021.5414-2.083.1823h-257.75l-2.08378-.1823-2.02046-.5414-1.89576-.884-1.71345-1.1998-1.47908-1.479-1.19977-1.7135-.884011-1.8958-.541382-2.0204-.182307-2.0838z" fill="url(#w)" stroke="#d7d7d7" transform="translate(1.7093 148.79)"/><g stroke="#bebebe"><path d="m0 0h11l-5.5 8.8z" fill="url(#o)" opacity=".4" transform="translate(156.08 153.76)"/><path d="m5.5 0-5.5 8.8h11z" fill="url(#p)" transform="translate(134.56 153.76)"/><path d="m4.4 0 4.4 4.4-4.4 4.4-4.4-4.4z" fill="url(#q)" transform="translate(112.7 153.82)"/></g><g transform="translate(1.7093 1.788)"><path d="m0 12 .18231-2.0838.54138-2.0205.88401-1.8958 1.1998-1.7134 1.4791-1.4791 1.7134-1.1998 1.8958-.88401 2.0205-.54138 2.0838-.18231h257.75l2.083.18231 2.021.54138 1.896.88401 1.713 1.1998 1.479 1.4791 1.2 1.7134.884 1.8958.541 2.0205.183 2.0838v14h-281.75z" fill="url(#x)" stroke="#3175b0"/><g font-family="Noto Sans" font-size="14.667"><text font-style="italic" font-weight="400" x="89.953102" y="17.3333">public.</text><text fill="#fff" font-weight="700" x="134.297" y="17.3333">student</text></g></g></g></g></svg>