<svg height="224pt" viewBox="0 0 719 224" width="719pt" xmlns="http://www.w3.org/2000/svg" xmlns:xlink="http://www.w3.org/1999/xlink"><linearGradient id="a" x2="0" y2="1"><stop offset="0" stop-color="#a9a9a9" stop-opacity=".19608"/><stop offset="1" stop-color="#a9a9a9" stop-opacity=".19608"/></linearGradient><linearGradient id="b" x2="0" y2="1"><stop offset="0" stop-color="#fcfcfc"/><stop offset="1" stop-color="#fcfcfc"/></linearGradient><linearGradient id="c" x2="0" y2="1"><stop offset="0" stop-color="#ffff80"/><stop offset="1" stop-color="#ffff80"/></linearGradient><linearGradient id="d" x2="0" y2="1"><stop offset="0" stop-color="#d2e9ff"/><stop offset="1" stop-color="#d2e9ff"/></linearGradient><linearGradient id="e" x2="0" y2="1"><stop offset="0" stop-color="#c5cbff"/><stop offset="1" stop-color="#c5cbff"/></linearGradient><linearGradient id="f" x2="0" y2="1"><stop offset="0" stop-color="#f3f3f3"/><stop offset="1" stop-color="#e1e1e1"/></linearGradient><linearGradient id="g" x2="0" y2="1"><stop offset="0" stop-color="#4aa5ff"/><stop offset="1" stop-color="#4aa5ff"/></linearGradient><linearGradient id="h" gradientTransform="matrix(.99946 0 0 1.0005 303.51 97.568)" gradientUnits="userSpaceOnUse" x1="-.75034" x2="-.75034" y1="-.78024" y2="18.89"><stop offset="0" stop-color="#dcdcdc"/><stop offset="1" stop-color="#dcdcdc"/></linearGradient><linearGradient id="i" gradientTransform="matrix(1.8004 0 0 .55544 329.93 132.86)" gradientUnits="userSpaceOnUse" x2="0" xlink:href="#a" y2="52.211"/><linearGradient id="j" gradientTransform="matrix(1.7795 0 0 .56195 321.93 124.86)" gradientUnits="userSpaceOnUse" x1="-.28098" x2="-.28098" y1="-.88976" y2="52.496"><stop offset="0" stop-color="#eeffe0"/><stop offset="1" stop-color="#eeffe0"/></linearGradient><linearGradient id="k" gradientTransform="matrix(1.1214 0 0 .89174 449.76 9.688)" gradientUnits="userSpaceOnUse" x2="0" xlink:href="#a" y2="239"/><linearGradient id="l" gradientTransform="matrix(1.3807 0 0 .72429 441.76 27.688)" gradientUnits="userSpaceOnUse" x1="-.36215" x2="-.36215" xlink:href="#b" y1="-.69033" y2="193.43"/><linearGradient id="m" gradientTransform="matrix(3.1162 0 0 .32091 441.76 167.29)" gradientUnits="userSpaceOnUse" x1="-.16045" x2="-.16045" xlink:href="#b" y1="-1.5581" y2="84.449"/><linearGradient id="n" gradientTransform="matrix(.99738 0 0 1.0026 449.76 34.728)" gradientUnits="userSpaceOnUse" x1="-.57651" x2="-.57651" xlink:href="#c" y1="-.81104" y2="12.474"/><linearGradient id="o" gradientUnits="userSpaceOnUse" x1="449.19" x2="449.19" xlink:href="#d" y1="57.338" y2="69.488"/><linearGradient id="p" gradientUnits="userSpaceOnUse" x1="449.19" x2="449.19" y1="79.938" y2="92.088"><stop offset="0" stop-color="#e0e0e0"/><stop offset="1" stop-color="#e0e0e0"/></linearGradient><linearGradient id="q" gradientUnits="userSpaceOnUse" x1="449.19" x2="449.19" xlink:href="#d" y1="102.54" y2="114.69"/><linearGradient id="r" gradientUnits="userSpaceOnUse" x1="449.19" x2="449.19" xlink:href="#d" y1="125.14" y2="137.29"/><linearGradient id="s" gradientUnits="userSpaceOnUse" x1="449.19" x2="449.19" xlink:href="#d" y1="147.74" y2="159.89"/><linearGradient id="t" gradientTransform="matrix(.98481 0 0 1.0154 449.76 174.24)" gradientUnits="userSpaceOnUse" x1="-.41286" x2="-.41286" xlink:href="#e" y1="-.80082" y2="12.483"/><linearGradient id="u" gradientTransform="matrix(3.5789 0 0 .27941 441.76 193.89)" gradientUnits="userSpaceOnUse" x1="-.13971" x2="-.13971" xlink:href="#b" y1="-1.7895" y2="73.096"/><linearGradient id="v" gradientTransform="matrix(1.1144 0 0 .89736 588.77 198.86)" gradientUnits="userSpaceOnUse" x1="-.61828" x2="-.61828" xlink:href="#f" y1="-.76781" y2="10.102"/><linearGradient id="w" gradientTransform="matrix(1.0891 0 0 .9182 567.25 198.86)" gradientUnits="userSpaceOnUse" x1="-.38932" x2="-.38932" xlink:href="#f" y1="-.75038" y2="10.128"/><linearGradient id="x" gradientTransform="matrix(.98191 0 0 1.0184 545.39 198.92)" gradientUnits="userSpaceOnUse" x1="-.36007" x2="-.36007" xlink:href="#f" y1="-.69431" y2="8.988"/><linearGradient id="y" gradientTransform="matrix(3.1509 0 0 .31737 441.76 1.688)" gradientUnits="userSpaceOnUse" x1="-.17191" x2="-.17191" xlink:href="#g" y1="-1.5754" y2="83.498"/><linearGradient id="z" gradientTransform="matrix(1.2976 0 0 .77065 9.7643 29.688)" gradientUnits="userSpaceOnUse" x2="0" xlink:href="#a" y2="217.9"/><linearGradient id="A" gradientTransform="matrix(1.9708 0 0 .50742 1.7643 47.688)" gradientUnits="userSpaceOnUse" x1="-.25371" x2="-.25371" xlink:href="#b" y1="-.98538" y2="142.49"/><linearGradient id="B" gradientTransform="matrix(2.3733 0 0 .42136 1.7643 119.49)" gradientUnits="userSpaceOnUse" x1="-.21068" x2="-.21068" xlink:href="#b" y1="-1.1866" y2="117.95"/><linearGradient id="C" gradientTransform="matrix(.99738 0 0 1.0026 9.7643 54.728)" gradientUnits="userSpaceOnUse" x1="-.57651" x2="-.57651" xlink:href="#c" y1="-.81104" y2="12.474"/><linearGradient id="D" gradientUnits="userSpaceOnUse" x1="9.1893" x2="9.1893" xlink:href="#d" y1="77.338" y2="89.488"/><linearGradient id="E" gradientUnits="userSpaceOnUse" x1="9.1893" x2="9.1893" y1="99.388" y2="112.64"><stop offset="0" stop-color="#ff8769"/><stop offset="1" stop-color="#ff8769"/></linearGradient><linearGradient id="F" gradientTransform="matrix(.98481 0 0 1.0154 9.7643 126.44)" gradientUnits="userSpaceOnUse" x1="-.41286" x2="-.41286" xlink:href="#e" y1="-.80082" y2="12.483"/><linearGradient id="G" gradientTransform="matrix(.98481 0 0 1.0154 9.7643 149.04)" gradientUnits="userSpaceOnUse" x1="-.41286" x2="-.41286" xlink:href="#e" y1="-.80082" y2="12.483"/><linearGradient id="H" gradientTransform="matrix(3.676 0 0 .27203 1.7643 168.69)" gradientUnits="userSpaceOnUse" x1="-.13602" x2="-.13602" xlink:href="#b" y1="-1.838" y2="75.079"/><linearGradient id="I" gradientTransform="matrix(1.1144 0 0 .89736 156.14 173.66)" gradientUnits="userSpaceOnUse" x1="-.61828" x2="-.61828" xlink:href="#f" y1="-.76781" y2="10.102"/><linearGradient id="J" gradientTransform="matrix(1.0891 0 0 .9182 134.61 173.66)" gradientUnits="userSpaceOnUse" x1="-.38932" x2="-.38932" xlink:href="#f" y1="-.75038" y2="10.128"/><linearGradient id="K" gradientTransform="matrix(.98191 0 0 1.0184 112.75 173.72)" gradientUnits="userSpaceOnUse" x1="-.36007" x2="-.36007" xlink:href="#f" y1="-.69431" y2="8.988"/><linearGradient id="L" gradientTransform="matrix(3.2363 0 0 .30899 1.7643 21.688)" gradientUnits="userSpaceOnUse" x1="-.16737" x2="-.16737" xlink:href="#g" y1="-1.6182" y2="85.762"/><g stroke="#606060" stroke-linecap="square" stroke-linejoin="bevel" stroke-width="1.5"><g fill="none"><path d="m284.51 106.5h33"/><path d="m317.51434 106.5c51.125 0 51.125.945 102.25.945"/><path d="m419.76 107.44h22"/><g transform="translate(284.51 106.5)"><path d="m18 0-18-11"/><path d="m18 0-18 11"/></g></g><circle cx="312.59" cy="106.64" fill="url(#h)" fill-rule="evenodd" r="9.075" stroke-dasharray="6 3"/><g fill="none"><path d="m0-8.8v17.6" transform="translate(431.76 107.44)"/><path d="m0-8.8v17.6" transform="translate(423.76 107.44)"/></g></g><g fill-rule="evenodd"><path d="m329.93 132.86h94v29h-94z" fill="url(#i)"/><path d="m321.93 124.86h94v29h-94z" fill="url(#j)" stroke="#a4b09b" stroke-linecap="square" stroke-linejoin="bevel"/><text style="font-family:Noto Sans;font-size:13.2;font-style:italic;font-weight:400;stroke-linecap:square;stroke-linejoin:bevel" x="328.93433" y="144.5536">home_address</text><path d="m449.76 21.688c0-6.6274 5.3726-12 12-12h244.01c6.628 0 12 5.3726 12 12v189.12c0 6.627-5.372 12-12 12h-244.01c-6.6274 0-12-5.373-12-12z" fill="url(#k)"/><g stroke-linecap="square" stroke-linejoin="bevel"><path d="m441.76 27.688h267.01v139.6h-267.01z" fill="url(#l)" stroke="#d7d7d7"/><path d="m441.76 167.29h267.01v26.6h-267.01z" fill="url(#m)" stroke="#d7d7d7"/><path d="m452.45 34.728-2.6889 2.6889v6.7222l2.6889 2.6889 1.3444-1.3444v-2.6889h1.3444l1.3444 1.3444 2.6889-2.6889 2.6889 2.6889v-5.3778h-8.0667v-2.6889z" fill="url(#n)" stroke="#897416" stroke-width="1.15"/><g font-family="Noto Sans" font-size="14.667" font-style="italic"><text fill="#2b7dba" font-weight="700" x="467.01434" y="46.519299">id</text><text fill="#4964a6" font-weight="700" x="561.83636" xml:space="preserve" y="46.519299"> integer</text><text fill="#25682d" font-weight="400" x="667.62134" y="46.519299">« pk »</text></g><circle cx="455.26" cy="63.413" fill="url(#o)" r="5.5" stroke="#5a9ee4" stroke-width="1.15"/><g font-family="Noto Sans" font-size="14.667" font-style="italic"><text font-weight="400" x="465.91434" y="69.119301">country</text><text fill="#4964a6" font-weight="700" x="561.83636" xml:space="preserve" y="69.119301"> varchar(100)</text><text fill="#25682d" font-weight="400" x="666.37134" y="69.119301">« nn »</text></g><circle cx="455.26" cy="86.013" fill="url(#p)" r="5.5" stroke="#808080" stroke-width="1.15"/><text font-family="'Noto Sans'" font-size="14.667" font-weight="400" x="465.91434" y="91.719299">province</text><text fill="#4964a6" font-family="Noto Sans" font-size="14.667" font-style="italic" font-weight="700" x="561.83636" xml:space="preserve" y="91.719299"> varchar(100)</text><text fill="#25682d" x="701.88733" y="91.719299"/><circle cx="455.26" cy="108.61" fill="url(#q)" r="5.5" stroke="#5a9ee4" stroke-width="1.15"/><g font-family="Noto Sans" font-size="14.667" font-style="italic"><text font-weight="400" x="465.91434" y="114.3193">city</text><text fill="#4964a6" font-weight="700" x="561.83636" xml:space="preserve" y="114.3193"> varchar(100)</text><text fill="#25682d" font-weight="400" x="666.37134" y="114.3193">« nn »</text></g><circle cx="455.26" cy="131.21" fill="url(#r)" r="5.5" stroke="#5a9ee4" stroke-width="1.15"/><g font-family="Noto Sans" font-size="14.667" font-style="italic"><text font-weight="400" x="465.91434" y="136.9193">postal_code</text><text fill="#4964a6" font-weight="700" x="561.83636" xml:space="preserve" y="136.9193"> varchar(40)</text><text fill="#25682d" font-weight="400" x="666.37134" y="136.9193">« nn »</text></g><circle cx="455.26" cy="153.81" fill="url(#s)" r="5.5" stroke="#5a9ee4" stroke-width="1.15"/><g font-family="Noto Sans" font-size="14.667" font-style="italic"><text font-weight="400" x="465.91434" y="159.5193">street_address</text><text fill="#4964a6" font-weight="700" x="561.83636" xml:space="preserve" y="159.5193"> varchar(255)</text><text fill="#25682d" font-weight="400" x="666.37134" y="159.5193">« nn »</text></g><path d="m456.49 174.24-6.7222 6.7222 5.3778 5.3778h6.7222v-6.7222z" fill="url(#t)" stroke="#4c4c98" stroke-width="1.15"/><g font-family="Noto Sans" font-size="14.667" font-style="italic"><text fill="#082061" font-weight="400" x="466.84634" y="186.11929">address_id_pk</text><text fill="#4964a6" font-weight="700" x="561.83636" xml:space="preserve" y="186.11929"> constraint</text><text fill="#25682d" font-weight="400" x="667.62134" y="186.11929">« pk »</text></g><path d="m441.76434 193.888h267.013v7.924l-.182 2.0838-.541 2.0204-.884 1.8958-1.2 1.7135-1.479 1.479-1.714 1.1998-1.895.884-2.021.5414-2.084.1823h-243.013l-2.08378-.1823-2.02046-.5414-1.89576-.884-1.71345-1.1998-1.47908-1.479-1.19977-1.7135-.88401-1.8958-.54138-2.0204-.18231-2.0838z" fill="url(#u)" stroke="#d7d7d7"/><g stroke="#bebebe"><path d="m588.77 198.86h11l-5.5 8.8z" fill="url(#v)" opacity=".4"/><path d="m572.75 198.86-5.5 8.8h11z" fill="url(#w)"/><path d="m549.79 198.92 4.4 4.4-4.4 4.4-4.4-4.4z" fill="url(#x)"/></g><path d="m441.76 13.688.18231-2.0838.54138-2.0205.88401-1.8958 1.1998-1.7134 1.4791-1.4791 1.7134-1.1998 1.8958-.88401 2.0205-.54138 2.0838-.18231h243.01l2.084.18231 2.021.54138 1.895.88401 1.714 1.1998 1.479 1.4791 1.2 1.7134.884 1.8958.541 2.0205.182 2.0838v14h-267.01z" fill="url(#y)" stroke="#3175b0"/><g font-family="Noto Sans" font-size="14.667"><text font-style="italic" font-weight="400" x="524.45184" y="19.021299">public.</text><text fill="#fff" font-weight="700" x="568.79535" y="19.021299">address</text></g></g><path d="m9.7643 41.688c0-6.6274 5.3726-12 12-12h258.75c6.627 0 12 5.3726 12 12v143.92c0 6.627-5.373 12-12 12h-258.75c-6.6274 0-12-5.373-12-12z" fill="url(#z)"/><g stroke-linecap="square" stroke-linejoin="bevel"><path d="m1.7643 47.688h281.75v71.8h-281.75z" fill="url(#A)" stroke="#d7d7d7"/><path d="m1.7643 119.49h281.75v49.2h-281.75z" fill="url(#B)" stroke="#d7d7d7"/><path d="m12.453 54.728-2.6889 2.6889v6.7222l2.6889 2.6889 1.3444-1.3444v-2.6889h1.3444l1.3444 1.3444 2.6889-2.6889 2.6889 2.6889v-5.3778h-8.0667v-2.6889z" fill="url(#C)" stroke="#897416" stroke-width="1.15"/><g font-family="Noto Sans" font-size="14.667" font-style="italic"><text fill="#2b7dba" font-weight="700" x="27.014338" y="66.519302">id</text><text fill="#4964a6" font-weight="700" x="79.967438" xml:space="preserve" y="66.519302"> integer</text><text fill="#25682d" font-weight="400" x="242.35735" y="66.519302">« pk »</text></g><circle cx="15.264" cy="83.413" fill="url(#D)" r="5.5" stroke="#5a9ee4" stroke-width="1.15"/><g font-family="Noto Sans" font-size="14.667" font-style="italic"><text font-weight="400" x="25.914337" y="89.119301">name</text><text fill="#4964a6" font-weight="700" x="79.967438" xml:space="preserve" y="89.119301"> varchar(255)</text><text fill="#25682d" font-weight="400" x="241.10735" y="89.119301">« nn »</text></g><path d="m9.7643 104v4.0333h5.3778v4.0333h1.3444l5.3778-5.3778v-1.3444l-5.3778-5.3778h-1.3444v4.0333z" fill="url(#E)" stroke="#8f341b" stroke-width="1.15"/><g font-family="Noto Sans" font-size="14.667" font-style="italic"><text font-weight="400" x="27.014338" y="111.7193">address</text><text fill="#4964a6" font-weight="700" x="79.967438" xml:space="preserve" y="111.7193"> integer</text><text fill="#25682d" font-weight="400" x="225.02934" y="111.7193">« fk nn »</text></g><path d="m16.487 126.44-6.7222 6.7222 5.3778 5.3778h6.7222v-6.7222z" fill="url(#F)" stroke="#4c4c98" stroke-width="1.15"/><g font-family="Noto Sans" font-size="14.667" font-style="italic"><text fill="#082061" font-weight="400" x="26.845938" y="138.31931">student_id_pk</text><text fill="#4964a6" font-weight="700" x="153.73634" xml:space="preserve" y="138.31931"> constraint</text><text fill="#25682d" font-weight="400" x="242.35735" y="138.31931">« pk »</text></g><path d="m16.487 149.04-6.7222 6.7222 5.3778 5.3778h6.7222v-6.7222z" fill="url(#G)" stroke="#4c4c98" stroke-width="1.15"/><g font-family="Noto Sans" font-size="14.667" font-style="italic"><text fill="#082061" font-weight="400" x="26.845938" y="160.9193">student_address_fk</text><text fill="#4964a6" font-weight="700" x="153.73634" xml:space="preserve" y="160.9193"> constraint</text><text fill="#25682d" font-weight="400" x="246.26434" y="160.9193">« fk »</text></g><path d="m1.7643 168.69h281.75v7.924l-.183 2.0838-.541 2.0204-.884 1.8958-1.2 1.7135-1.479 1.479-1.713 1.1998-1.896.884-2.021.5414-2.083.1823h-257.75l-2.0838-.1823-2.0205-.5414-1.8958-.884-1.7134-1.1998-1.4791-1.479-1.1998-1.7135-.88401-1.8958-.54138-2.0204-.18231-2.0838z" fill="url(#H)" stroke="#d7d7d7"/><g stroke="#bebebe"><path d="m156.14 173.66h11l-5.5 8.8z" fill="url(#I)" opacity=".4"/><path d="m140.11 173.66-5.5 8.8h11z" fill="url(#J)"/><path d="m117.15 173.72 4.4 4.4-4.4 4.4-4.4-4.4z" fill="url(#K)"/></g><path d="m1.7643 33.688.18231-2.0838.54138-2.0205.88401-1.8958 1.1998-1.7134 1.4791-1.4791 1.7134-1.1998 1.8958-.88401 2.0205-.54138 2.0838-.18231h257.75l2.083.18231 2.021.54138 1.896.88401 1.713 1.1998 1.479 1.4791 1.2 1.7134.884 1.8958.541 2.0205.183 2.0838v14h-281.75z" fill="url(#L)" stroke="#3175b0"/><g font-family="Noto Sans" font-size="14.667"><text font-style="italic" font-weight="400" x="91.717438" y="39.021301">public.</text><text fill="#fff" font-weight="700" x="136.06134" y="39.021301">student</text></g></g></g></svg>