<svg height="224pt" viewBox="0 0 462 224" width="462pt" xmlns="http://www.w3.org/2000/svg" xmlns:xlink="http://www.w3.org/1999/xlink"><linearGradient id="a" x2="0" y2="1"><stop offset="0" stop-color="#a9a9a9" stop-opacity=".19608"/><stop offset="1" stop-color="#a9a9a9" stop-opacity=".19608"/></linearGradient><linearGradient id="b" x2="0" y2="1"><stop offset="0" stop-color="#fcfcfc"/><stop offset="1" stop-color="#fcfcfc"/></linearGradient><linearGradient id="c" x2="0" y2="1"><stop offset="0" stop-color="#ffff80"/><stop offset="1" stop-color="#ffff80"/></linearGradient><linearGradient id="d" x2="0" y2="1"><stop offset="0" stop-color="#d2e9ff"/><stop offset="1" stop-color="#d2e9ff"/></linearGradient><linearGradient id="e" x2="0" y2="1"><stop offset="0" stop-color="#c5cbff"/><stop offset="1" stop-color="#c5cbff"/></linearGradient><linearGradient id="f" x2="0" y2="1"><stop offset="0" stop-color="#f3f3f3"/><stop offset="1" stop-color="#e1e1e1"/></linearGradient><linearGradient id="g" x2="0" y2="1"><stop offset="0" stop-color="#4aa5ff"/><stop offset="1" stop-color="#4aa5ff"/></linearGradient><linearGradient id="h" gradientTransform="matrix(.99946 0 0 1.0005 183.71 97.415)" gradientUnits="userSpaceOnUse" x1="-.75034" x2="-.75034" y1="-.78024" y2="18.89"><stop offset="0" stop-color="#dcdcdc"/><stop offset="1" stop-color="#dcdcdc"/></linearGradient><linearGradient id="i" gradientTransform="matrix(1.8004 0 0 .55544 210.02 132.91)" gradientUnits="userSpaceOnUse" x2="0" xlink:href="#a" y2="52.211"/><linearGradient id="j" gradientTransform="matrix(1.7795 0 0 .56195 202.02 124.91)" gradientUnits="userSpaceOnUse" x1="-.28098" x2="-.28098" y1="-.88976" y2="52.496"><stop offset="0" stop-color="#eeffe0"/><stop offset="1" stop-color="#eeffe0"/></linearGradient><linearGradient id="k" gradientTransform="matrix(.78422 0 0 1.2751 329.73 9.688)" gradientUnits="userSpaceOnUse" x2="0" xlink:href="#a" y2="167.14"/><linearGradient id="l" gradientTransform="matrix(.96552 0 0 1.0357 321.73 27.688)" gradientUnits="userSpaceOnUse" x1="-.51785" x2="-.51785" xlink:href="#b" y1="-.48276" y2="135.27"/><linearGradient id="m" gradientTransform="matrix(2.1792 0 0 .45888 321.73 167.29)" gradientUnits="userSpaceOnUse" x1="-.22944" x2="-.22944" xlink:href="#b" y1="-1.0896" y2="59.057"/><linearGradient id="n" gradientTransform="matrix(.99738 0 0 1.0026 329.73 34.728)" gradientUnits="userSpaceOnUse" x1="-.57651" x2="-.57651" xlink:href="#c" y1="-.81104" y2="12.474"/><linearGradient id="o" gradientUnits="userSpaceOnUse" x1="329.16" x2="329.16" xlink:href="#d" y1="57.338" y2="69.488"/><linearGradient id="p" gradientUnits="userSpaceOnUse" x1="329.16" x2="329.16" y1="79.938" y2="92.088"><stop offset="0" stop-color="#e0e0e0"/><stop offset="1" stop-color="#e0e0e0"/></linearGradient><linearGradient id="q" gradientUnits="userSpaceOnUse" x1="329.16" x2="329.16" xlink:href="#d" y1="102.54" y2="114.69"/><linearGradient id="r" gradientUnits="userSpaceOnUse" x1="329.16" x2="329.16" xlink:href="#d" y1="125.14" y2="137.29"/><linearGradient id="s" gradientUnits="userSpaceOnUse" x1="329.16" x2="329.16" xlink:href="#d" y1="147.74" y2="159.89"/><linearGradient id="t" gradientTransform="matrix(.98481 0 0 1.0154 329.73 174.24)" gradientUnits="userSpaceOnUse" x1="-.41286" x2="-.41286" xlink:href="#e" y1="-.80082" y2="12.483"/><linearGradient id="u" gradientTransform="matrix(2.5028 0 0 .39955 321.73 193.89)" gradientUnits="userSpaceOnUse" x1="-.19977" x2="-.19977" xlink:href="#b" y1="-1.2514" y2="51.118"/><linearGradient id="v" gradientTransform="matrix(1.1144 0 0 .89736 400.27 198.86)" gradientUnits="userSpaceOnUse" x1="-.61828" x2="-.61828" xlink:href="#f" y1="-.76781" y2="10.102"/><linearGradient id="w" gradientTransform="matrix(1.0891 0 0 .9182 378.75 198.86)" gradientUnits="userSpaceOnUse" x1="-.38932" x2="-.38932" xlink:href="#f" y1="-.75038" y2="10.128"/><linearGradient id="x" gradientTransform="matrix(.98191 0 0 1.0184 356.88 198.92)" gradientUnits="userSpaceOnUse" x1="-.36007" x2="-.36007" xlink:href="#f" y1="-.69431" y2="8.988"/><linearGradient id="y" gradientTransform="matrix(2.2036 0 0 .45379 321.73 1.688)" gradientUnits="userSpaceOnUse" x1="-.24581" x2="-.24581" xlink:href="#g" y1="-1.1018" y2="58.397"/><linearGradient id="z" gradientTransform="matrix(.98514 0 0 1.0151 9.7348 29.688)" gradientUnits="userSpaceOnUse" x2="0" xlink:href="#a" y2="165.43"/><linearGradient id="A" gradientTransform="matrix(1.4962 0 0 .66836 1.7348 47.688)" gradientUnits="userSpaceOnUse" x1="-.33418" x2="-.33418" xlink:href="#b" y1="-.7481" y2="108.18"/><linearGradient id="B" gradientTransform="matrix(1.8018 0 0 .555 1.7348 119.49)" gradientUnits="userSpaceOnUse" x1="-.2775" x2="-.2775" xlink:href="#b" y1="-.9009" y2="89.549"/><linearGradient id="C" gradientTransform="matrix(.99738 0 0 1.0026 9.7348 54.728)" gradientUnits="userSpaceOnUse" x1="-.57651" x2="-.57651" xlink:href="#c" y1="-.81104" y2="12.474"/><linearGradient id="D" gradientUnits="userSpaceOnUse" x1="9.1598" x2="9.1598" xlink:href="#d" y1="77.338" y2="89.488"/><linearGradient id="E" gradientUnits="userSpaceOnUse" x1="9.1598" x2="9.1598" y1="99.388" y2="112.64"><stop offset="0" stop-color="#ff8769"/><stop offset="1" stop-color="#ff8769"/></linearGradient><linearGradient id="F" gradientTransform="matrix(.98481 0 0 1.0154 9.7348 126.44)" gradientUnits="userSpaceOnUse" x1="-.41286" x2="-.41286" xlink:href="#e" y1="-.80082" y2="12.483"/><linearGradient id="G" gradientTransform="matrix(.98481 0 0 1.0154 9.7348 149.04)" gradientUnits="userSpaceOnUse" x1="-.41286" x2="-.41286" xlink:href="#e" y1="-.80082" y2="12.483"/><linearGradient id="H" gradientTransform="matrix(2.7908 0 0 .35832 1.7348 168.69)" gradientUnits="userSpaceOnUse" x1="-.17916" x2="-.17916" xlink:href="#b" y1="-1.3954" y2="57"/><linearGradient id="I" gradientTransform="matrix(1.1144 0 0 .89736 96.22 173.66)" gradientUnits="userSpaceOnUse" x1="-.61828" x2="-.61828" xlink:href="#f" y1="-.76781" y2="10.102"/><linearGradient id="J" gradientTransform="matrix(1.0891 0 0 .9182 74.696 173.66)" gradientUnits="userSpaceOnUse" x1="-.38932" x2="-.38932" xlink:href="#f" y1="-.75038" y2="10.128"/><linearGradient id="K" gradientTransform="matrix(.98191 0 0 1.0184 52.835 173.72)" gradientUnits="userSpaceOnUse" x1="-.36007" x2="-.36007" xlink:href="#f" y1="-.69431" y2="8.988"/><linearGradient id="L" gradientTransform="matrix(2.4571 0 0 .40698 1.7348 21.688)" gradientUnits="userSpaceOnUse" x1="-.22045" x2="-.22045" xlink:href="#g" y1="-1.2286" y2="65.114"/><g stroke="#606060" stroke-linecap="square" stroke-linejoin="bevel" stroke-width="1.5"><g fill="none"><path d="m164.71 106.35h33"/><path d="m197.71 106.35c51.014 0 51.014 1.343 102.03 1.343"/><path d="m299.73 107.69h22"/><g transform="translate(164.71 106.35)"><path d="m18 0-18-11"/><path d="m18 0-18 11"/></g></g><circle cx="192.78" cy="106.49" fill="url(#h)" fill-rule="evenodd" r="9.075" stroke-dasharray="6 3"/><g fill="none"><path d="m0-8.8v17.6" transform="translate(311.73 107.69)"/><path d="m0-8.8v17.6" transform="translate(303.73 107.69)"/></g></g><g fill-rule="evenodd"><path d="m210.02 132.91h94v29h-94z" fill="url(#i)"/><path d="m202.02 124.91h94v29h-94z" fill="url(#j)" stroke="#a4b09b" stroke-linecap="square" stroke-linejoin="bevel"/><text style="font-family:Noto Sans;font-size:13.2;font-style:italic;font-weight:400;stroke-linecap:square;stroke-linejoin:bevel" x="209.01683" y="144.59961">home_address</text><path d="m329.73 21.688c0-6.6274 5.3726-12 12-12h107.07c6.627 0 12 5.3726 12 12v189.12c0 6.627-5.373 12-12 12h-107.07c-6.6274 0-12-5.373-12-12z" fill="url(#k)"/><g stroke-linecap="square" stroke-linejoin="bevel"><path d="m321.73 27.688h130.07v139.6h-130.07z" fill="url(#l)" stroke="#d7d7d7"/><path d="m321.73 167.29h130.07v26.6h-130.07z" fill="url(#m)" stroke="#d7d7d7"/><path d="m332.42 34.728-2.6889 2.6889v6.7222l2.6889 2.6889 1.3444-1.3444v-2.6889h1.3444l1.3444 1.3444 2.6889-2.6889 2.6889 2.6889v-5.3778h-8.0667v-2.6889z" fill="url(#n)" stroke="#897416" stroke-width="1.15"/><text fill="#2b7dba" font-family="Noto Sans" font-size="14.667" font-style="italic" font-weight="700" x="346.98483" y="46.519299">id</text><circle cx="335.23" cy="63.413" fill="url(#o)" r="5.5" stroke="#5a9ee4" stroke-width="1.15"/><text font-family="Noto Sans" font-size="14.667" font-style="italic" font-weight="400" x="345.88483" y="69.119301">country</text><circle cx="335.23" cy="86.013" fill="url(#p)" r="5.5" stroke="#808080" stroke-width="1.15"/><text font-family="'Noto Sans'" font-size="14.667" font-weight="400" x="345.88483" y="91.719307">province</text><circle cx="335.23" cy="108.61" fill="url(#q)" r="5.5" stroke="#5a9ee4" stroke-width="1.15"/><text font-family="Noto Sans" font-size="14.667" font-style="italic" font-weight="400" x="345.88483" y="114.31931">city</text><circle cx="335.23" cy="131.21" fill="url(#r)" r="5.5" stroke="#5a9ee4" stroke-width="1.15"/><text font-family="Noto Sans" font-size="14.667" font-style="italic" font-weight="400" x="345.88483" y="136.9193">postal_code</text><circle cx="335.23" cy="153.81" fill="url(#s)" r="5.5" stroke="#5a9ee4" stroke-width="1.15"/><text font-family="Noto Sans" font-size="14.667" font-style="italic" font-weight="400" x="345.88483" y="159.5193">street_address</text><path d="m336.46 174.24-6.7222 6.7222 5.3778 5.3778h6.7222v-6.7222z" fill="url(#t)" stroke="#4c4c98" stroke-width="1.15"/><text fill="#082061" font-family="Noto Sans" font-size="14.667" font-style="italic" font-weight="400" x="346.81683" y="186.11931">address_id_pk</text><path d="m321.73484 193.888h130.072v7.924l-.182 2.0838-.542 2.0204-.884 1.8958-1.2 1.7135-1.479 1.479-1.713 1.1998-1.896.884-2.02.5414-2.084.1823h-106.072l-2.08378-.1823-2.02046-.5414-1.89576-.884-1.71345-1.1998-1.47908-1.479-1.19977-1.7135-.88401-1.8958-.54138-2.0204-.18231-2.0838z" fill="url(#u)" stroke="#d7d7d7"/><g stroke="#bebebe"><path d="m400.27 198.86h11l-5.5 8.8z" fill="url(#v)" opacity=".4"/><path d="m384.25 198.86-5.5 8.8h11z" fill="url(#w)"/><path d="m361.28 198.92 4.4 4.4-4.4 4.4-4.4-4.4z" fill="url(#x)"/></g><path d="m321.73 13.688.18231-2.0838.54138-2.0205.88401-1.8958 1.1998-1.7134 1.4791-1.4791 1.7134-1.1998 1.8958-.88401 2.0205-.54138 2.0838-.18231h106.07l2.084.18231 2.02.54138 1.896.88401 1.713 1.1998 1.479 1.4791 1.2 1.7134.884 1.8958.542 2.0205.182 2.0838v14h-130.07z" fill="url(#y)" stroke="#3175b0"/><g font-family="Noto Sans" font-size="14.667"><text font-style="italic" font-weight="400" x="335.95364" y="19.021299">public.</text><text fill="#fff" font-weight="700" x="380.29733" y="19.021299">address</text></g></g><path d="m9.7348 41.688c0-6.6274 5.3726-12 12-12h138.97c6.628 0 12 5.3726 12 12v143.92c0 6.627-5.372 12-12 12h-138.97c-6.6274 0-12-5.373-12-12z" fill="url(#z)"/><g stroke-linecap="square" stroke-linejoin="bevel"><path d="m1.7348 47.688h161.97v71.8h-161.97z" fill="url(#A)" stroke="#d7d7d7"/><path d="m1.7348 119.49h161.97v49.2h-161.97z" fill="url(#B)" stroke="#d7d7d7"/><path d="m12.424 54.728-2.6889 2.6889v6.7222l2.6889 2.6889 1.3444-1.3444v-2.6889h1.3444l1.3444 1.3444 2.6889-2.6889 2.6889 2.6889v-5.3778h-8.0667v-2.6889z" fill="url(#C)" stroke="#897416" stroke-width="1.15"/><text fill="#2b7dba" font-family="Noto Sans" font-size="14.667" font-style="italic" font-weight="700" x="26.984838" y="66.519302">id</text><circle cx="15.235" cy="83.413" fill="url(#D)" r="5.5" stroke="#5a9ee4" stroke-width="1.15"/><text font-family="Noto Sans" font-size="14.667" font-style="italic" font-weight="400" x="25.88484" y="89.119301">name</text><path d="m9.7348 104v4.0333h5.3778v4.0333h1.3444l5.3778-5.3778v-1.3444l-5.3778-5.3778h-1.3444v4.0333z" fill="url(#E)" stroke="#8f341b" stroke-width="1.15"/><text font-family="Noto Sans" font-size="14.667" font-style="italic" font-weight="400" x="26.984838" y="111.71931">address</text><path d="m16.457 126.44-6.7222 6.7222 5.3778 5.3778h6.7222v-6.7222z" fill="url(#F)" stroke="#4c4c98" stroke-width="1.15"/><text fill="#082061" font-family="Noto Sans" font-size="14.667" font-style="italic" font-weight="400" x="26.816439" y="138.31931">student_id_pk</text><path d="m16.457 149.04-6.7222 6.7222 5.3778 5.3778h6.7222v-6.7222z" fill="url(#G)" stroke="#4c4c98" stroke-width="1.15"/><text fill="#082061" font-family="Noto Sans" font-size="14.667" font-style="italic" font-weight="400" x="26.816439" y="160.9193">student_address_fk</text><path d="m1.7348 168.69h161.97v7.924l-.182 2.0838-.541 2.0204-.884 1.8958-1.2 1.7135-1.479 1.479-1.714 1.1998-1.896.884-2.02.5414-2.084.1823h-137.97l-2.0838-.1823-2.0205-.5414-1.8958-.884-1.7134-1.1998-1.4791-1.479-1.1998-1.7135-.88401-1.8958-.54138-2.0204-.18231-2.0838v-7.924" fill="url(#H)" stroke="#d7d7d7"/><g stroke="#bebebe"><path d="m96.22 173.66h11l-5.5 8.8z" fill="url(#I)" opacity=".4"/><path d="m80.196 173.66-5.5 8.8h11z" fill="url(#J)"/><path d="m57.235 173.72 4.4 4.4-4.4 4.4-4.4-4.4z" fill="url(#K)"/></g><path d="m1.7348 33.688.18231-2.0838.54138-2.0205.88401-1.8958 1.1998-1.7134 1.4791-1.4791 1.7134-1.1998 1.8958-.88401 2.0205-.54138 2.0838-.18231h137.97l2.084.18231 2.02.54138 1.896.88401 1.714 1.1998 1.479 1.4791 1.2 1.7134.884 1.8958.541 2.0205.182 2.0838v14h-161.97z" fill="url(#L)" stroke="#3175b0"/><g font-family="Noto Sans" font-size="14.667"><text font-style="italic" font-weight="400" x="31.797338" y="39.021297">public.</text><text fill="#fff" font-weight="700" x="76.141144" y="39.021297">student</text></g></g></g></svg>