<svg height="179pt" viewBox="0 0 286 179" width="286pt" xmlns="http://www.w3.org/2000/svg" xmlns:xlink="http://www.w3.org/1999/xlink"><linearGradient id="a" x2="0" y2="1"><stop offset="0" stop-color="#fcfcfc"/><stop offset="1" stop-color="#fcfcfc"/></linearGradient><linearGradient id="b" x2="0" y2="1"><stop offset="0" stop-color="#d2e9ff"/><stop offset="1" stop-color="#d2e9ff"/></linearGradient><linearGradient id="c" x2="0" y2="1"><stop offset="0" stop-color="#f3f3f3"/><stop offset="1" stop-color="#e1e1e1"/></linearGradient><linearGradient id="d" gradientTransform="matrix(1.2786 0 0 .78211 10.01 9.788)" gradientUnits="userSpaceOnUse" x2="0" y2="214.71"><stop offset="0" stop-color="#a9a9a9" stop-opacity=".19608"/><stop offset="1" stop-color="#a9a9a9" stop-opacity=".19608"/></linearGradient><linearGradient id="e" gradientTransform="matrix(1.6963 0 0 .5895 2.0098 27.788)" gradientUnits="userSpaceOnUse" x1="-.29475" x2="-.29475" xlink:href="#a" y1="-.84817" y2="160.98"/><linearGradient id="f" gradientTransform="matrix(3.1538 0 0 .31708 2.0098 122.19)" gradientUnits="userSpaceOnUse" x1="-.15854" x2="-.15854" xlink:href="#a" y1="-1.5769" y2="85.468"/><linearGradient id="g" gradientTransform="matrix(.99738 0 0 1.0026 10.01 34.828)" gradientUnits="userSpaceOnUse" x1="-.57651" x2="-.57651" y1="-.81104" y2="12.474"><stop offset="0" stop-color="#ffff80"/><stop offset="1" stop-color="#ffff80"/></linearGradient><linearGradient id="h" gradientUnits="userSpaceOnUse" x1="9.4348" x2="9.4348" xlink:href="#b" y1="57.438" y2="69.588"/><linearGradient id="i" gradientUnits="userSpaceOnUse" x1="9.4348" x2="9.4348" xlink:href="#b" y1="80.038" y2="92.188"/><linearGradient id="j" gradientUnits="userSpaceOnUse" x1="9.4348" x2="9.4348" xlink:href="#b" y1="102.64" y2="114.79"/><linearGradient id="k" gradientTransform="matrix(.98481 0 0 1.0154 10.01 129.14)" gradientUnits="userSpaceOnUse" x1="-.41286" x2="-.41286" y1="-.80082" y2="12.483"><stop offset="0" stop-color="#c5cbff"/><stop offset="1" stop-color="#c5cbff"/></linearGradient><linearGradient id="l" gradientTransform="matrix(3.6221 0 0 .27608 2.0098 148.79)" gradientUnits="userSpaceOnUse" x1="-.13804" x2="-.13804" xlink:href="#a" y1="-1.8111" y2="73.979"/><linearGradient id="m" gradientTransform="matrix(1.1144 0 0 .89736 152.27 153.76)" gradientUnits="userSpaceOnUse" x1="-.61828" x2="-.61828" xlink:href="#c" y1="-.76781" y2="10.102"/><linearGradient id="n" gradientTransform="matrix(1.0891 0 0 .9182 130.75 153.76)" gradientUnits="userSpaceOnUse" x1="-.38932" x2="-.38932" xlink:href="#c" y1="-.75038" y2="10.128"/><linearGradient id="o" gradientTransform="matrix(.98191 0 0 1.0184 108.88 153.82)" gradientUnits="userSpaceOnUse" x1="-.36007" x2="-.36007" xlink:href="#c" y1="-.69431" y2="8.988"/><linearGradient id="p" gradientTransform="matrix(3.1889 0 0 .31359 2.0098 1.788)" gradientUnits="userSpaceOnUse" x1="-.16986" x2="-.16986" y1="-1.5944" y2="84.506"><stop offset="0" stop-color="#4aa5ff"/><stop offset="1" stop-color="#4aa5ff"/></linearGradient><g fill-rule="evenodd"><path d="m10.01 21.788c0-6.6274 5.3726-12 12-12h250.52c6.627 0 12 5.3726 12 12v143.92c0 6.627-5.373 12-12 12h-250.52c-6.6274 0-12-5.373-12-12z" fill="url(#d)"/><g stroke-linecap="square" stroke-linejoin="bevel"><path d="m2.0098 27.788h273.52v94.4h-273.52z" fill="url(#e)" stroke="#d7d7d7"/><path d="m2.0098 122.19h273.52v26.6h-273.52z" fill="url(#f)" stroke="#d7d7d7"/><path d="m12.699 34.828-2.6889 2.6889v6.7222l2.6889 2.6889 1.3444-1.3444v-2.6889h1.3444l1.3444 1.3444 2.6889-2.6889 2.6889 2.6889v-5.3778h-8.0667v-2.6889z" fill="url(#g)" stroke="#897416" stroke-width="1.15"/><g font-family="'Noto Sans'" font-size="14.667" font-style="italic"><text fill="#2b7dba" font-weight="700" x="27.259838" y="46.619301">student_id</text><text fill="#4964a6" font-weight="700" x="122.50384" xml:space="preserve" y="46.619301"> character(11)</text><text fill="#25682d" font-weight="400" x="234.37584" y="46.619301">« pk »</text></g><circle cx="15.51" cy="63.513" fill="url(#h)" r="5.5" stroke="#5a9ee4" stroke-width="1.15"/><g font-family="'Noto Sans'" font-size="14.667" font-style="italic"><text font-weight="400" x="26.159838" y="69.219299">student_name</text><text fill="#4964a6" font-weight="700" x="122.50384" xml:space="preserve" y="69.219299"> varchar(100)</text><text fill="#25682d" font-weight="400" x="233.12584" y="69.219299">« nn »</text></g><circle cx="15.51" cy="86.113" fill="url(#i)" r="5.5" stroke="#5a9ee4" stroke-width="1.15"/><g font-family="'Noto Sans'" font-size="14.667" font-style="italic"><text font-weight="400" x="26.159838" y="91.819298">parent_name</text><text fill="#4964a6" font-weight="700" x="122.50384" xml:space="preserve" y="91.819298"> varchar(100)</text><text fill="#25682d" font-weight="400" x="233.12584" y="91.819298">« nn »</text></g><circle cx="15.51" cy="108.71" fill="url(#j)" r="5.5" stroke="#5a9ee4" stroke-width="1.15"/><g font-family="'Noto Sans'" font-size="14.667" font-style="italic"><text font-weight="400" x="26.159838" y="114.4193">parent_mobile</text><text fill="#4964a6" font-weight="700" x="122.50384" xml:space="preserve" y="114.4193"> character(11)</text><text fill="#25682d" font-weight="400" x="233.12584" y="114.4193">« nn »</text></g><path d="m16.732 129.14-6.7222 6.7222 5.3778 5.3778h6.7222v-6.7222z" fill="url(#k)" stroke="#4c4c98" stroke-width="1.15"/><g font-family="'Noto Sans'" font-size="14.667" font-style="italic"><text fill="#082061" font-weight="400" x="27.091438" y="141.0193">student_id_pk</text><text fill="#4964a6" font-weight="700" x="122.50384" xml:space="preserve" y="141.0193"> constraint</text><text fill="#25682d" font-weight="400" x="234.37584" y="141.0193">« pk »</text></g><path d="m2.0098 148.79h273.52v7.924l-.182 2.0838-.542 2.0204-.884 1.8958-1.2 1.7135-1.479 1.479-1.713 1.1998-1.896.884-2.02.5414-2.084.1823h-249.52l-2.0838-.1823-2.0205-.5414-1.8958-.884-1.7134-1.1998-1.4791-1.479-1.1998-1.7135-.88401-1.8958-.54138-2.0204-.18231-2.0838z" fill="url(#l)" stroke="#d7d7d7"/><g stroke="#bebebe"><path d="m152.27 153.76h11l-5.5 8.8z" fill="url(#m)" opacity=".4"/><path d="m136.25 153.76-5.5 8.8h11z" fill="url(#n)"/><path d="m113.28 153.82 4.4 4.4-4.4 4.4-4.4-4.4z" fill="url(#o)"/></g><path d="m2.0098 13.788.18231-2.0838.54138-2.0205.88401-1.8958 1.1998-1.7134 1.4791-1.4791 1.7134-1.1998 1.8958-.88401 2.0205-.54138 2.0838-.18231h249.52l2.084.18231 2.02.54138 1.896.88401 1.713 1.1998 1.479 1.4791 1.2 1.7134.884 1.8958.542 2.0205.182 2.0838v14h-273.52z" fill="url(#p)" stroke="#3175b0"/><g font-family="'Noto Sans'" font-size="14.667"><text font-style="italic" font-weight="400" x="87.853638" y="19.1213">public.</text><text fill="#fff" font-weight="700" x="132.19785" y="19.1213">student</text></g></g></g></svg>