<svg height="439pt" viewBox="0 0 986 439" width="986pt" xmlns="http://www.w3.org/2000/svg" xmlns:xlink="http://www.w3.org/1999/xlink"><linearGradient id="a" x2="0" y2="1"><stop offset="0" stop-color="#a9a9a9" stop-opacity=".19608"/><stop offset="1" stop-color="#a9a9a9" stop-opacity=".19608"/></linearGradient><linearGradient id="b" x2="0" y2="1"><stop offset="0" stop-color="#eeffe0"/><stop offset="1" stop-color="#eeffe0"/></linearGradient><linearGradient id="c" x2="0" y2="1"><stop offset="0" stop-color="#fcfcfc"/><stop offset="1" stop-color="#fcfcfc"/></linearGradient><linearGradient id="d" x2="0" y2="1"><stop offset="0" stop-color="#ffff80"/><stop offset="1" stop-color="#ffff80"/></linearGradient><linearGradient id="e" x2="0" y2="1"><stop offset="0" stop-color="#d2e9ff"/><stop offset="1" stop-color="#d2e9ff"/></linearGradient><linearGradient id="f" x2="0" y2="1"><stop offset="0" stop-color="#c5cbff"/><stop offset="1" stop-color="#c5cbff"/></linearGradient><linearGradient id="g" x2="0" y2="1"><stop offset="0" stop-color="#f3f3f3"/><stop offset="1" stop-color="#e1e1e1"/></linearGradient><linearGradient id="h" x2="0" y2="1"><stop offset="0" stop-color="#4aa5ff"/><stop offset="1" stop-color="#4aa5ff"/></linearGradient><linearGradient id="i" x2="0" y2="1"><stop offset="0" stop-color="#ff8769"/><stop offset="1" stop-color="#ff8769"/></linearGradient><linearGradient id="j" gradientTransform="matrix(.99946 0 0 1.0005 -642.97 -204.37)" gradientUnits="userSpaceOnUse" x1="-.75034" x2="-.75034" y1="-.78024" y2="18.89"><stop offset="0" stop-color="#dcdcdc"/><stop offset="1" stop-color="#dcdcdc"/></linearGradient><linearGradient id="k" gradientTransform="matrix(1.8937 0 0 .52806 509.97 289.79)" gradientUnits="userSpaceOnUse" x2="0" xlink:href="#a" y2="54.918"/><linearGradient id="l" gradientTransform="matrix(1.8708 0 0 .53452 501.97 281.79)" gradientUnits="userSpaceOnUse" x1="-.26726" x2="-.26726" xlink:href="#b" y1="-.93541" y2="55.189"/><linearGradient id="m" gradientTransform="matrix(1.0008 0 0 .99917 -642.97 -165.77)" gradientUnits="userSpaceOnUse" x1="-.74932" x2="18.884" y1="-.71786" y2="18.916"><stop offset="0" stop-color="#abd4c1"/><stop offset="1" stop-color="#abd4c1"/></linearGradient><linearGradient id="n" gradientTransform="matrix(1.2731 0 0 .78551 389.97 189.79)" gradientUnits="userSpaceOnUse" x2="0" xlink:href="#a" y2="36.919"/><linearGradient id="o" gradientTransform="matrix(1.2649 0 0 .79057 381.97 181.79)" gradientUnits="userSpaceOnUse" x1="-.39528" x2="-.39528" xlink:href="#b" y1="-.63246" y2="37.315"/><linearGradient id="p" gradientTransform="matrix(1.0008 0 0 .99917 330.17 87.393)" gradientUnits="userSpaceOnUse" x1="-.74932" x2="18.884" y1="-.71786" y2="18.916"><stop offset="0" stop-color="#bfb5ad"/><stop offset="1" stop-color="#bfb5ad"/></linearGradient><linearGradient id="q" gradientTransform="matrix(2.1173 0 0 .47231 429.97 49.788)" gradientUnits="userSpaceOnUse" x2="0" xlink:href="#a" y2="61.4"/><linearGradient id="r" gradientTransform="matrix(2.0897 0 0 .47855 421.97 41.788)" gradientUnits="userSpaceOnUse" x1="-.23927" x2="-.23927" xlink:href="#b" y1="-1.0448" y2="61.645"/><linearGradient id="s" gradientTransform="matrix(1.3605 0 0 .73502 69.966 269.79)" gradientUnits="userSpaceOnUse" x2="0" xlink:href="#a" y2="228.46"/><linearGradient id="t" gradientTransform="matrix(2.0663 0 0 .48396 61.966 287.79)" gradientUnits="userSpaceOnUse" x1="-.24198" x2="-.24198" xlink:href="#c" y1="-1.0331" y2="149.39"/><linearGradient id="u" gradientTransform="matrix(2.4883 0 0 .40188 61.966 359.59)" gradientUnits="userSpaceOnUse" x1="-.20094" x2="-.20094" xlink:href="#c" y1="-1.2442" y2="123.67"/><linearGradient id="v" gradientTransform="matrix(.99738 0 0 1.0026 69.966 294.83)" gradientUnits="userSpaceOnUse" x1="-.57651" x2="-.57651" xlink:href="#d" y1="-.81104" y2="12.474"/><linearGradient id="w" gradientTransform="matrix(.99113 0 0 1.0089 69.966 317.34)" gradientUnits="userSpaceOnUse" x1="-.58014" x2="-.58014" y1="-.80596" y2="12.563"><stop offset="0" stop-color="#f5c000"/><stop offset="1" stop-color="#f5c000"/></linearGradient><linearGradient id="x" gradientUnits="userSpaceOnUse" x1="69.391" x2="69.391" xlink:href="#e" y1="340.04" y2="352.19"/><linearGradient id="y" gradientTransform="matrix(.98481 0 0 1.0154 69.966 366.54)" gradientUnits="userSpaceOnUse" x1="-.41286" x2="-.41286" xlink:href="#f" y1="-.80082" y2="12.483"/><linearGradient id="z" gradientTransform="matrix(.98481 0 0 1.0154 69.966 389.14)" gradientUnits="userSpaceOnUse" x1="-.41286" x2="-.41286" xlink:href="#f" y1="-.80082" y2="12.483"/><linearGradient id="A" gradientTransform="matrix(3.8542 0 0 .25946 61.966 408.79)" gradientUnits="userSpaceOnUse" x1="-.12973" x2="-.12973" xlink:href="#c" y1="-1.9271" y2="78.719"/><linearGradient id="B" gradientTransform="matrix(1.1144 0 0 .89736 230.38 413.76)" gradientUnits="userSpaceOnUse" x1="-.61828" x2="-.61828" xlink:href="#g" y1="-.76781" y2="10.102"/><linearGradient id="C" gradientTransform="matrix(1.0891 0 0 .9182 208.85 413.76)" gradientUnits="userSpaceOnUse" x1="-.38932" x2="-.38932" xlink:href="#g" y1="-.75038" y2="10.128"/><linearGradient id="D" gradientTransform="matrix(.98191 0 0 1.0184 186.99 413.82)" gradientUnits="userSpaceOnUse" x1="-.36007" x2="-.36007" xlink:href="#g" y1="-.69431" y2="8.988"/><linearGradient id="E" gradientTransform="matrix(3.3932 0 0 .29471 61.966 261.79)" gradientUnits="userSpaceOnUse" x1="-.15964" x2="-.15964" xlink:href="#h" y1="-1.6966" y2="89.919"/><linearGradient id="F" gradientTransform="matrix(1.0583 0 0 .94495 669.97 9.788)" gradientUnits="userSpaceOnUse" x2="0" xlink:href="#a" y2="297.29"/><linearGradient id="G" gradientTransform="matrix(1.4959 0 0 .66851 661.97 27.788)" gradientUnits="userSpaceOnUse" x1="-.33425" x2="-.33425" xlink:href="#c" y1="-.74793" y2="209.57"/><linearGradient id="H" gradientTransform="matrix(1.816 0 0 .55067 661.97 167.39)" gradientUnits="userSpaceOnUse" x1="-.27533" x2="-.27533" xlink:href="#c" y1="-.90799" y2="172.34"/><linearGradient id="I" gradientTransform="matrix(.99738 0 0 1.0026 669.97 34.828)" gradientUnits="userSpaceOnUse" x1="-.57651" x2="-.57651" xlink:href="#d" y1="-.81104" y2="12.474"/><linearGradient id="J" gradientUnits="userSpaceOnUse" x1="669.39" x2="669.39" xlink:href="#i" y1="56.888" y2="70.138"/><linearGradient id="K" gradientUnits="userSpaceOnUse" x1="669.39" x2="669.39" xlink:href="#i" y1="79.488" y2="92.738"/><linearGradient id="L" gradientUnits="userSpaceOnUse" x1="669.39" x2="669.39" xlink:href="#e" y1="102.64" y2="114.79"/><linearGradient id="M" gradientUnits="userSpaceOnUse" x1="669.39" x2="669.39" xlink:href="#e" y1="125.24" y2="137.39"/><linearGradient id="N" gradientUnits="userSpaceOnUse" x1="669.39" x2="669.39" y1="147.84" y2="159.99"><stop offset="0" stop-color="#e0e0e0"/><stop offset="1" stop-color="#e0e0e0"/></linearGradient><linearGradient id="O" gradientTransform="matrix(.98481 0 0 1.0154 669.97 174.34)" gradientUnits="userSpaceOnUse" x1="-.41286" x2="-.41286" xlink:href="#f" y1="-.80082" y2="12.483"/><linearGradient id="P" gradientTransform="matrix(.98481 0 0 1.0154 669.97 196.94)" gradientUnits="userSpaceOnUse" x1="-.41286" x2="-.41286" xlink:href="#f" y1="-.80082" y2="12.483"/><linearGradient id="Q" gradientTransform="matrix(.98481 0 0 1.0154 669.97 219.54)" gradientUnits="userSpaceOnUse" x1="-.41286" x2="-.41286" xlink:href="#f" y1="-.80082" y2="12.483"/><linearGradient id="R" gradientTransform="matrix(.98481 0 0 1.0154 669.97 242.14)" gradientUnits="userSpaceOnUse" x1="-.41286" x2="-.41286" xlink:href="#f" y1="-.80082" y2="12.483"/><linearGradient id="S" gradientTransform="matrix(3.8776 0 0 .25789 661.97 261.79)" gradientUnits="userSpaceOnUse" x1="-.12895" x2="-.12895" xlink:href="#c" y1="-1.9388" y2="79.196"/><linearGradient id="T" gradientTransform="matrix(1.1144 0 0 .89736 832.27 266.76)" gradientUnits="userSpaceOnUse" x1="-.61828" x2="-.61828" xlink:href="#g" y1="-.76781" y2="10.102"/><linearGradient id="U" gradientTransform="matrix(1.0891 0 0 .9182 810.75 266.76)" gradientUnits="userSpaceOnUse" x1="-.38932" x2="-.38932" xlink:href="#g" y1="-.75038" y2="10.128"/><linearGradient id="V" gradientTransform="matrix(.98191 0 0 1.0184 788.88 266.82)" gradientUnits="userSpaceOnUse" x1="-.36007" x2="-.36007" xlink:href="#g" y1="-.69431" y2="8.988"/><linearGradient id="W" gradientTransform="matrix(3.4138 0 0 .29293 661.97 1.788)" gradientUnits="userSpaceOnUse" x1="-.15867" x2="-.15867" xlink:href="#h" y1="-1.7069" y2="90.465"/><linearGradient id="X" gradientTransform="matrix(1.4587 0 0 .68556 9.9663 29.788)" gradientUnits="userSpaceOnUse" x2="0" xlink:href="#a" y2="211.98"/><linearGradient id="Y" gradientTransform="matrix(2.4818 0 0 .40293 1.9663 47.788)" gradientUnits="userSpaceOnUse" x1="-.20146" x2="-.20146" xlink:href="#c" y1="-1.2409" y2="123.35"/><linearGradient id="Z" gradientTransform="matrix(2.4818 0 0 .40293 1.9663 96.988)" gradientUnits="userSpaceOnUse" x1="-.20146" x2="-.20146" xlink:href="#c" y1="-1.2409" y2="123.35"/><linearGradient id="aa" gradientTransform="matrix(.99738 0 0 1.0026 9.9663 54.828)" gradientUnits="userSpaceOnUse" x1="-.57651" x2="-.57651" xlink:href="#d" y1="-.81104" y2="12.474"/><linearGradient id="ab" gradientUnits="userSpaceOnUse" x1="9.3913" x2="9.3913" xlink:href="#i" y1="76.888" y2="90.138"/><linearGradient id="ac" gradientTransform="matrix(.98481 0 0 1.0154 9.9663 103.94)" gradientUnits="userSpaceOnUse" x1="-.41286" x2="-.41286" xlink:href="#f" y1="-.80082" y2="12.483"/><linearGradient id="ad" gradientTransform="matrix(.98481 0 0 1.0154 9.9663 126.54)" gradientUnits="userSpaceOnUse" x1="-.41286" x2="-.41286" xlink:href="#f" y1="-.80082" y2="12.483"/><linearGradient id="ae" gradientTransform="matrix(3.8441 0 0 .26014 1.9663 146.19)" gradientUnits="userSpaceOnUse" x1="-.13007" x2="-.13007" xlink:href="#c" y1="-1.9221" y2="78.513"/><linearGradient id="af" gradientTransform="matrix(1.1144 0 0 .89736 169.57 151.16)" gradientUnits="userSpaceOnUse" x1="-.61828" x2="-.61828" xlink:href="#g" y1="-.76781" y2="10.102"/><linearGradient id="ag" gradientTransform="matrix(1.0891 0 0 .9182 148.04 151.16)" gradientUnits="userSpaceOnUse" x1="-.38932" x2="-.38932" xlink:href="#g" y1="-.75038" y2="10.128"/><linearGradient id="ah" gradientTransform="matrix(.98191 0 0 1.0184 126.18 151.22)" gradientUnits="userSpaceOnUse" x1="-.36007" x2="-.36007" xlink:href="#g" y1="-.69431" y2="8.988"/><linearGradient id="ai" gradientTransform="matrix(3.3843 0 0 .29548 1.9663 21.788)" gradientUnits="userSpaceOnUse" x1="-.16006" x2="-.16006" xlink:href="#h" y1="-1.6922" y2="89.684"/><g stroke="#606060" stroke-linecap="square" stroke-linejoin="bevel" stroke-width="1.5"><g fill="none"><path d="m661.97 195.44h-33"/><path d="m628.97 195.44c-117.09 0-117.09 97.77-234.17 97.77"/><path d="m394.79 293.2h-22"/><g transform="matrix(-1 0 0 -1 661.97 195.44)"><path d="m18 0-18-11"/><path d="m18 0-18 11"/></g></g><circle cx="-633.89" cy="-195.29" fill="url(#j)" fill-rule="evenodd" r="9.075" stroke-dasharray="6 3" transform="scale(-1)"/><g fill="none"><path d="m0-8.8v17.6" transform="matrix(-1 0 0 -1 382.79 293.2)"/><path d="m0-8.8v17.6" transform="matrix(-1 0 0 -1 390.79 293.2)"/></g></g><path d="m509.97 289.79h104v29h-104z" fill="url(#k)" fill-rule="evenodd"/><g stroke-linejoin="bevel"><path d="m501.97 281.79h104v29h-104z" fill="url(#l)" fill-rule="evenodd" stroke="#a4b09b" stroke-linecap="square"/><text style="fill-rule:evenodd;font-family:Noto Sans;font-size:13.2;font-style:italic;font-weight:400;stroke-linecap:square" x="508.96634" y="301.47861">belongs_to_type</text><g stroke="#26a269" stroke-linecap="round" stroke-width="1.5"><g fill="none"><path d="m661.97 156.83h-33"/><path d="m628.97 156.83c-203.5 0-203.5 4.954-407 4.954"/><path d="m221.97 161.79c-32.699 0-32.699-67.338-65.399-67.338"/><g transform="matrix(-1 0 0 -1 661.97 156.83)"><path d="m18 0-18-11"/><path d="m18 0-18 11"/></g></g><circle cx="-633.89" cy="-156.69" fill="url(#m)" fill-rule="evenodd" r="9.075" stroke-dasharray="6 3" transform="scale(-1)"/></g></g><path d="m389.97 189.79h47v29h-47z" fill="url(#n)" fill-rule="evenodd"/><g stroke-linejoin="bevel"><path d="m381.97 181.79h47v29h-47z" fill="url(#o)" fill-rule="evenodd" stroke="#a4b09b" stroke-linecap="square"/><text style="fill-rule:evenodd;font-family:Noto Sans;font-size:13.2;font-style:italic;font-weight:400;stroke-linecap:square" x="388.96634" y="201.47861">has_id</text><g stroke="#63452c" stroke-linecap="round" stroke-width="1.5"><g fill="none"><path d="m311.17 96.325h33"/><path d="m344.17 96.325c147.9 0 147.9-.028 295.8-.028"/><path d="m639.97 96.297h22"/><g transform="translate(311.17 96.325)"><path d="m18 0-18-11"/><path d="m18 0-18 11"/></g></g><circle cx="339.24" cy="96.468" fill="url(#p)" fill-rule="evenodd" r="9.075" stroke-dasharray="6 3"/><g fill="none"><path d="m0-8.8v17.6" transform="translate(651.97 96.297)"/><path d="m0-8.8v17.6" transform="translate(643.97 96.297)"/></g></g></g><g fill-rule="evenodd"><path d="m429.97 49.788h130v29h-130z" fill="url(#q)"/><path d="m421.97 41.788h130v29h-130z" fill="url(#r)" stroke="#a4b09b" stroke-linecap="square" stroke-linejoin="bevel"/><text style="font-family:Noto Sans;font-size:13.2;font-style:italic;font-weight:400;stroke-linecap:square;stroke-linejoin:bevel" x="428.96634" y="61.4786">enforce_at_least_one</text><path d="m69.966 281.79c0-6.6274 5.3726-12 12-12h286.83c6.627 0 12 5.3726 12 12v143.92c0 6.627-5.373 12-12 12h-286.83c-6.6274 0-12-5.373-12-12z" fill="url(#s)"/><g stroke-linecap="square" stroke-linejoin="bevel"><path d="m61.966 287.79h309.83v71.8h-309.83z" fill="url(#t)" stroke="#d7d7d7"/><path d="m61.966 359.59h309.83v49.2h-309.83z" fill="url(#u)" stroke="#d7d7d7"/><path d="m72.655 294.83-2.6889 2.6889v6.7222l2.6889 2.6889 1.3444-1.3444v-2.6889h1.3444l1.3444 1.3444 2.6889-2.6889 2.6889 2.6889v-5.3778h-8.0667v-2.6889z" fill="url(#v)" stroke="#897416" stroke-width="1.15"/><g font-family="Noto Sans" font-size="14.667" font-style="italic"><text fill="#2b7dba" font-weight="700" x="87.216339" y="306.61929">id</text><text fill="#4964a6" font-weight="700" x="203.61633" xml:space="preserve" y="306.61929"> integer</text><text fill="#25682d" font-weight="400" x="330.63635" y="306.61929">« pk »</text></g><path d="m75.344 317.34-5.3778 5.3778v1.3444l5.3778 5.3778h1.3444l5.3778-5.3778v-1.3444l-5.3778-5.3778z" fill="url(#w)" stroke="#ab8600" stroke-width="1.15"/><g font-family="Noto Sans" font-size="14.667" font-style="italic"><text font-weight="400" x="87.216339" y="329.2193">name</text><text fill="#4964a6" font-weight="700" x="203.61633" xml:space="preserve" y="329.2193"> varchar(100)</text><text fill="#25682d" font-weight="400" x="308.15134" y="329.2193">« uq nn »</text></g><circle cx="75.466" cy="346.11" fill="url(#x)" r="5.5" stroke="#5a9ee4" stroke-width="1.15"/><g font-family="Noto Sans" font-size="14.667" font-style="italic"><text font-weight="400" x="86.116341" y="351.81931">validation_regexp</text><text fill="#4964a6" font-weight="700" x="203.61633" xml:space="preserve" y="351.81931"> varchar(255)</text><text fill="#25682d" font-weight="400" x="329.38635" y="351.81931">« nn »</text></g><path d="m76.689 366.54-6.7222 6.7222 5.3778 5.3778h6.7222v-6.7222z" fill="url(#y)" stroke="#4c4c98" stroke-width="1.15"/><g font-family="Noto Sans" font-size="14.667" font-style="italic"><text fill="#082061" font-weight="400" x="87.047935" y="378.41931">id_type_id_pk</text><text fill="#4964a6" font-weight="700" x="203.61633" xml:space="preserve" y="378.41931"> constraint</text><text fill="#25682d" font-weight="400" x="330.63635" y="378.41931">« pk »</text></g><path d="m76.689 389.14-6.7222 6.7222 5.3778 5.3778h6.7222v-6.7222z" fill="url(#z)" stroke="#4c4c98" stroke-width="1.15"/><g font-family="Noto Sans" font-size="14.667" font-style="italic"><text fill="#082061" font-weight="400" x="87.047935" y="401.01929">id_type_name_uq</text><text fill="#4964a6" font-weight="700" x="203.61633" xml:space="preserve" y="401.01929"> constraint</text><text fill="#25682d" font-weight="400" x="329.38635" y="401.01929">« uq »</text></g><path d="m61.966 408.79h309.83v7.924l-.183 2.0838-.541 2.0204-.884 1.8958-1.2 1.7135-1.479 1.479-1.713 1.1998-1.896.884-2.02.5414-2.084.1823h-285.83l-2.0838-.1823-2.0205-.5414-1.8958-.884-1.7134-1.1998-1.4791-1.479-1.1998-1.7135-.88401-1.8958-.54138-2.0204-.18231-2.0838z" fill="url(#A)" stroke="#d7d7d7"/><g stroke="#bebebe"><path d="m230.38 413.76h11l-5.5 8.8z" fill="url(#B)" opacity=".4"/><path d="m214.35 413.76-5.5 8.8h11z" fill="url(#C)"/><path d="m191.39 413.82 4.4 4.4-4.4 4.4-4.4-4.4z" fill="url(#D)"/></g><path d="m61.966 273.79.18231-2.0838.54138-2.0205.88401-1.8958 1.1998-1.7134 1.4791-1.4791 1.7134-1.1998 1.8958-.88401 2.0205-.54138 2.0838-.18231h285.83l2.084.18231 2.02.54138 1.896.88401 1.713 1.1998 1.479 1.4791 1.2 1.7134.884 1.8958.541 2.0205.183 2.0838v14h-309.83z" fill="url(#E)" stroke="#3175b0"/><g font-family="Noto Sans" font-size="14.667"><text font-style="italic" font-weight="400" x="168.40434" y="279.12131">public.</text><text fill="#fff" font-weight="700" x="212.74734" y="279.12131">id_type</text></g></g><path d="m669.97 21.788c0-6.6274 5.3726-12 12-12h290.61c6.627 0 12 5.3726 12 12v256.92c0 6.627-5.373 12-12 12h-290.61c-6.6274 0-12-5.373-12-12z" fill="url(#F)"/><g stroke-linecap="square" stroke-linejoin="bevel"><path d="m661.97 27.788h313.61v139.6h-313.61z" fill="url(#G)" stroke="#d7d7d7"/><path d="m661.97 167.39h313.61v94.4h-313.61z" fill="url(#H)" stroke="#d7d7d7"/><path d="m672.66 34.828-2.6889 2.6889v6.7222l2.6889 2.6889 1.3444-1.3444v-2.6889h1.3444l1.3444 1.3444 2.6889-2.6889 2.6889 2.6889v-5.3778h-8.0667v-2.6889z" fill="url(#I)" stroke="#897416" stroke-width="1.15"/><g font-family="Noto Sans" font-size="14.667" font-style="italic"><text fill="#2b7dba" font-weight="700" x="687.21637" y="46.619301">id</text><text fill="#4964a6" font-weight="700" x="755.94434" xml:space="preserve" y="46.619301"> integer</text><text fill="#25682d" font-weight="400" x="913.18433" y="46.619301">« pk uq »</text></g><path d="m669.97 61.496v4.0333h5.3778v4.0333h1.3444l5.3778-5.3778v-1.3444l-5.3778-5.3778h-1.3444v4.0333z" fill="url(#J)" stroke="#8f341b" stroke-width="1.15"/><g font-family="Noto Sans" font-size="14.667" font-style="italic"><text font-weight="400" x="687.21637" y="69.219299">id_type</text><text fill="#4964a6" font-weight="700" x="755.94434" xml:space="preserve" y="69.219299"> integer</text><text fill="#25682d" font-weight="400" x="917.09137" y="69.219299">« fk nn »</text></g><path d="m669.97 84.096v4.0333h5.3778v4.0333h1.3444l5.3778-5.3778v-1.3444l-5.3778-5.3778h-1.3444v4.0333z" fill="url(#K)" stroke="#8f341b" stroke-width="1.15"/><g font-family="Noto Sans" font-size="14.667" font-style="italic"><text font-weight="400" x="687.21637" y="91.819298">person</text><text fill="#4964a6" font-weight="700" x="755.94434" xml:space="preserve" y="91.819298"> integer</text><text fill="#25682d" font-weight="400" x="895.85632" y="91.819298">« uq fk nn »</text></g><circle cx="675.47" cy="108.71" fill="url(#L)" r="5.5" stroke="#5a9ee4" stroke-width="1.15"/><g font-family="Noto Sans" font-size="14.667" font-style="italic"><text font-weight="400" x="686.11633" y="114.4193">value</text><text fill="#4964a6" font-weight="700" x="755.94434" xml:space="preserve" y="114.4193"> varchar(100)</text><text fill="#25682d" font-weight="400" x="933.16931" y="114.4193">« nn »</text></g><circle cx="675.47" cy="131.31" fill="url(#M)" r="5.5" stroke="#5a9ee4" stroke-width="1.15"/><g font-family="Noto Sans" font-size="14.667" font-style="italic"><text font-weight="400" x="686.11633" y="137.0193">valid_from</text><text fill="#4964a6" font-weight="700" x="755.94434" xml:space="preserve" y="137.0193"> date</text><text fill="#25682d" font-weight="400" x="933.16931" y="137.0193">« nn »</text></g><circle cx="675.47" cy="153.91" fill="url(#N)" r="5.5" stroke="#808080" stroke-width="1.15"/><text font-family="'Noto Sans'" font-size="14.667" font-weight="400" x="686.11633" y="159.61929">valid_to</text><text fill="#4964a6" font-family="Noto Sans" font-size="14.667" font-style="italic" font-weight="700" x="755.94434" xml:space="preserve" y="159.61929"> date</text><text fill="#25682d" x="968.68433" y="159.61929"/><path d="m676.69 174.34-6.7222 6.7222 5.3778 5.3778h6.7222v-6.7222z" fill="url(#O)" stroke="#4c4c98" stroke-width="1.15"/><g font-family="Noto Sans" font-size="14.667" font-style="italic"><text fill="#082061" font-weight="400" x="687.04834" y="186.2193">personal_id_id_pk</text><text fill="#4964a6" font-weight="700" x="844.54834" xml:space="preserve" y="186.2193"> constraint</text><text fill="#25682d" font-weight="400" x="934.41931" y="186.2193">« pk »</text></g><path d="m676.69 196.94-6.7222 6.7222 5.3778 5.3778h6.7222v-6.7222z" fill="url(#P)" stroke="#4c4c98" stroke-width="1.15"/><g font-family="Noto Sans" font-size="14.667" font-style="italic"><text fill="#082061" font-weight="400" x="687.04834" y="208.81931">person_id_id_person_uq</text><text fill="#4964a6" font-weight="700" x="844.54834" xml:space="preserve" y="208.81931"> constraint</text><text fill="#25682d" font-weight="400" x="933.16931" y="208.81931">« uq »</text></g><path d="m676.69 219.54-6.7222 6.7222 5.3778 5.3778h6.7222v-6.7222z" fill="url(#Q)" stroke="#4c4c98" stroke-width="1.15"/><g font-family="Noto Sans" font-size="14.667" font-style="italic"><text fill="#082061" font-weight="400" x="687.04834" y="231.4193">personal_id_id_type_fk</text><text fill="#4964a6" font-weight="700" x="844.54834" xml:space="preserve" y="231.4193"> constraint</text><text fill="#25682d" font-weight="400" x="938.32532" y="231.4193">« fk »</text></g><path d="m676.69 242.14-6.7222 6.7222 5.3778 5.3778h6.7222v-6.7222z" fill="url(#R)" stroke="#4c4c98" stroke-width="1.15"/><g font-family="Noto Sans" font-size="14.667" font-style="italic"><text fill="#082061" font-weight="400" x="687.04834" y="254.0193">personal_id_person_fk</text><text fill="#4964a6" font-weight="700" x="844.54834" xml:space="preserve" y="254.0193"> constraint</text><text fill="#25682d" font-weight="400" x="938.32532" y="254.0193">« fk »</text></g><path d="m661.96634 261.788h313.609v7.924l-.182 2.0838-.542 2.0204-.884 1.8958-1.2 1.7135-1.479 1.479-1.713 1.1998-1.896.884-2.02.5414-2.084.1823h-289.609l-2.08378-.1823-2.02046-.5414-1.89576-.884-1.71345-1.1998-1.47908-1.479-1.19977-1.7135-.88401-1.8958-.54138-2.0204-.18231-2.0838z" fill="url(#S)" stroke="#d7d7d7"/><g stroke="#bebebe"><path d="m832.27 266.76h11l-5.5 8.8z" fill="url(#T)" opacity=".4"/><path d="m816.25 266.76-5.5 8.8h11z" fill="url(#U)"/><path d="m793.28 266.82 4.4 4.4-4.4 4.4-4.4-4.4z" fill="url(#V)"/></g><path d="m661.97 13.788.18231-2.0838.54138-2.0205.88401-1.8958 1.1998-1.7134 1.4791-1.4791 1.7134-1.1998 1.8958-.88401 2.0205-.54138 2.0838-.18231h289.61l2.084.18231 2.02.54138 1.896.88401 1.713 1.1998 1.479 1.4791 1.2 1.7134.884 1.8958.542 2.0205.182 2.0838v14h-313.61z" fill="url(#W)" stroke="#3175b0"/><g font-family="Noto Sans" font-size="14.667"><text font-style="italic" font-weight="400" x="754.32574" y="19.1213">public.</text><text fill="#fff" font-weight="700" x="798.66937" y="19.1213">personal_id</text></g></g><path d="m9.9663 41.788c0-6.6274 5.3726-12 12-12h285.2c6.627 0 12 5.3726 12 12v121.32c0 6.627-5.373 12-12 12h-285.2c-6.6274 0-12-5.373-12-12z" fill="url(#X)"/><g stroke-linecap="square" stroke-linejoin="bevel"><path d="m1.9663 47.788h308.2v49.2h-308.2z" fill="url(#Y)" stroke="#d7d7d7"/><path d="m1.9663 96.988h308.2v49.2h-308.2z" fill="url(#Z)" stroke="#d7d7d7"/><path d="m12.655 54.828-2.6889 2.6889v6.7222l2.6889 2.6889 1.3444-1.3444v-2.6889h1.3444l1.3444 1.3444 2.6889-2.6889 2.6889 2.6889v-5.3778h-8.0667v-2.6889z" fill="url(#aa)" stroke="#897416" stroke-width="1.15"/><g font-family="Noto Sans" font-size="14.667" font-style="italic"><text fill="#2b7dba" font-weight="700" x="27.216337" y="66.619301">id</text><text fill="#4964a6" font-weight="700" x="91.372635" xml:space="preserve" y="66.619301"> integer</text><text fill="#25682d" font-weight="400" x="252.93434" y="66.619301">« pk fk »</text></g><path d="m9.9663 81.496v4.0333h5.3778v4.0333h1.3444l5.3778-5.3778v-1.3444l-5.3778-5.3778h-1.3444v4.0333z" fill="url(#ab)" stroke="#8f341b" stroke-width="1.15"/><g font-family="Noto Sans" font-size="14.667" font-style="italic"><text font-weight="400" x="27.216337" y="89.219299">person_id</text><text fill="#4964a6" font-weight="700" x="91.372635" xml:space="preserve" y="89.219299"> integer</text><text fill="#25682d" font-weight="400" x="251.68434" y="89.219299">« fk nn »</text></g><path d="m16.689 103.94-6.7222 6.7222 5.3778 5.3778h6.7222v-6.7222z" fill="url(#ac)" stroke="#4c4c98" stroke-width="1.15"/><g font-family="Noto Sans" font-size="14.667" font-style="italic"><text fill="#082061" font-weight="400" x="27.047937" y="115.8193">person_id_pk</text><text fill="#4964a6" font-weight="700" x="180.39134" xml:space="preserve" y="115.8193"> constraint</text><text fill="#25682d" font-weight="400" x="269.01233" y="115.8193">« pk »</text></g><path d="m16.689 126.54-6.7222 6.7222 5.3778 5.3778h6.7222v-6.7222z" fill="url(#ad)" stroke="#4c4c98" stroke-width="1.15"/><g font-family="Noto Sans" font-size="14.667" font-style="italic"><text fill="#082061" font-weight="400" x="27.047937" y="138.4193">person_id_person_id_fk</text><text fill="#4964a6" font-weight="700" x="180.39134" xml:space="preserve" y="138.4193"> constraint</text><text fill="#25682d" font-weight="400" x="272.91934" y="138.4193">« fk »</text></g><path d="m1.9663 146.19h308.2v7.924l-.183 2.0838-.541 2.0204-.884 1.8958-1.2 1.7135-1.479 1.479-1.713 1.1998-1.896.884-2.021.5414-2.083.1823h-284.2l-2.0838-.1823-2.0205-.5414-1.8958-.884-1.7134-1.1998-1.4791-1.479-1.1998-1.7135-.88401-1.8958-.54138-2.0204-.18231-2.0838v-7.924" fill="url(#ae)" stroke="#d7d7d7"/><g stroke="#bebebe"><path d="m169.57 151.16h11l-5.5 8.8z" fill="url(#af)" opacity=".4"/><path d="m153.54 151.16-5.5 8.8h11z" fill="url(#ag)"/><path d="m130.58 151.22 4.4 4.4-4.4 4.4-4.4-4.4z" fill="url(#ah)"/></g><path d="m1.9663 33.788.18231-2.0838.54138-2.0205.88401-1.8958 1.1998-1.7134 1.4791-1.4791 1.7134-1.1998 1.8958-.88401 2.0205-.54138 2.0838-.18231h284.2l2.083.18231 2.021.54138 1.896.88401 1.713 1.1998 1.479 1.4791 1.2 1.7134.884 1.8958.541 2.0205.183 2.0838v14h-308.2z" fill="url(#ai)" stroke="#3175b0"/><g font-family="Noto Sans" font-size="14.667"><text font-style="italic" font-weight="400" x="108.52934" y="39.1213">public.</text><text fill="#fff" font-weight="700" x="152.87234" y="39.1213">person</text></g></g></g></svg>