<svg height="292pt" viewBox="0 0 804 292" width="804pt" xmlns="http://www.w3.org/2000/svg" xmlns:xlink="http://www.w3.org/1999/xlink"><linearGradient id="a" x2="0" y2="1"><stop offset="0" stop-color="#a9a9a9" stop-opacity=".19608"/><stop offset="1" stop-color="#a9a9a9" stop-opacity=".19608"/></linearGradient><linearGradient id="b" x2="0" y2="1"><stop offset="0" stop-color="#eeffe0"/><stop offset="1" stop-color="#eeffe0"/></linearGradient><linearGradient id="c" x2="0" y2="1"><stop offset="0" stop-color="#fcfcfc"/><stop offset="1" stop-color="#fcfcfc"/></linearGradient><linearGradient id="d" x2="0" y2="1"><stop offset="0" stop-color="#ffff80"/><stop offset="1" stop-color="#ffff80"/></linearGradient><linearGradient id="e" x2="0" y2="1"><stop offset="0" stop-color="#d2e9ff"/><stop offset="1" stop-color="#d2e9ff"/></linearGradient><linearGradient id="f" x2="0" y2="1"><stop offset="0" stop-color="#c5cbff"/><stop offset="1" stop-color="#c5cbff"/></linearGradient><linearGradient id="g" x2="0" y2="1"><stop offset="0" stop-color="#f3f3f3"/><stop offset="1" stop-color="#e1e1e1"/></linearGradient><linearGradient id="h" x2="0" y2="1"><stop offset="0" stop-color="#4aa5ff"/><stop offset="1" stop-color="#4aa5ff"/></linearGradient><linearGradient id="i" x2="0" y2="1"><stop offset="0" stop-color="#ff8769"/><stop offset="1" stop-color="#ff8769"/></linearGradient><linearGradient id="j" gradientTransform="matrix(.99946 0 0 1.0005 554.53 127.6)" gradientUnits="userSpaceOnUse" x1="-.75034" x2="-.75034" y1="-.78024" y2="18.89"><stop offset="0" stop-color="#dcdcdc"/><stop offset="1" stop-color="#dcdcdc"/></linearGradient><linearGradient id="k" gradientTransform="matrix(1.8937 0 0 .52806 549.95 169.79)" gradientUnits="userSpaceOnUse" x2="0" xlink:href="#a" y2="54.918"/><linearGradient id="l" gradientTransform="matrix(1.8708 0 0 .53452 541.95 161.79)" gradientUnits="userSpaceOnUse" x1="-.26726" x2="-.26726" xlink:href="#b" y1="-.93541" y2="55.189"/><linearGradient id="m" gradientTransform="matrix(1.0008 0 0 .99917 -322.95 -168.33)" gradientUnits="userSpaceOnUse" x1="-.74932" x2="18.884" y1="-.71786" y2="18.916"><stop offset="0" stop-color="#abd4c1"/><stop offset="1" stop-color="#abd4c1"/></linearGradient><linearGradient id="n" gradientTransform="matrix(1.2731 0 0 .78551 241.23 190.02)" gradientUnits="userSpaceOnUse" x2="0" xlink:href="#a" y2="36.919"/><linearGradient id="o" gradientTransform="matrix(1.2649 0 0 .79057 233.23 182.02)" gradientUnits="userSpaceOnUse" x1="-.39528" x2="-.39528" xlink:href="#b" y1="-.63246" y2="37.315"/><linearGradient id="p" gradientTransform="matrix(1.0008 0 0 .99917 208.87 93.07)" gradientUnits="userSpaceOnUse" x1="-.74932" x2="18.884" y1="-.71786" y2="18.916"><stop offset="0" stop-color="#bfb5ad"/><stop offset="1" stop-color="#bfb5ad"/></linearGradient><linearGradient id="q" gradientTransform="matrix(2.1173 0 0 .47231 205.95 58.252)" gradientUnits="userSpaceOnUse" x2="0" xlink:href="#a" y2="61.4"/><linearGradient id="r" gradientTransform="matrix(2.0897 0 0 .47855 197.95 50.252)" gradientUnits="userSpaceOnUse" x1="-.23927" x2="-.23927" xlink:href="#b" y1="-1.0448" y2="61.645"/><linearGradient id="s" gradientTransform="matrix(.95344 0 0 1.0488 649.95 49.788)" gradientUnits="userSpaceOnUse" x2="0" xlink:href="#a" y2="160.1"/><linearGradient id="t" gradientTransform="matrix(1.448 0 0 .69059 641.95 67.788)" gradientUnits="userSpaceOnUse" x1="-.34529" x2="-.34529" xlink:href="#c" y1="-.72402" y2="104.69"/><linearGradient id="u" gradientTransform="matrix(1.7438 0 0 .57346 641.95 139.59)" gradientUnits="userSpaceOnUse" x1="-.28673" x2="-.28673" xlink:href="#c" y1="-.8719" y2="86.667"/><linearGradient id="v" gradientTransform="matrix(.99738 0 0 1.0026 649.95 74.828)" gradientUnits="userSpaceOnUse" x1="-.57651" x2="-.57651" xlink:href="#d" y1="-.81104" y2="12.474"/><linearGradient id="w" gradientTransform="matrix(.99113 0 0 1.0089 649.95 97.344)" gradientUnits="userSpaceOnUse" x1="-.58014" x2="-.58014" y1="-.80596" y2="12.563"><stop offset="0" stop-color="#f5c000"/><stop offset="1" stop-color="#f5c000"/></linearGradient><linearGradient id="x" gradientUnits="userSpaceOnUse" x1="649.37" x2="649.37" xlink:href="#e" y1="120.04" y2="132.19"/><linearGradient id="y" gradientTransform="matrix(.98481 0 0 1.0154 649.95 146.54)" gradientUnits="userSpaceOnUse" x1="-.41286" x2="-.41286" xlink:href="#f" y1="-.80082" y2="12.483"/><linearGradient id="z" gradientTransform="matrix(.98481 0 0 1.0154 649.95 169.14)" gradientUnits="userSpaceOnUse" x1="-.41286" x2="-.41286" xlink:href="#f" y1="-.80082" y2="12.483"/><linearGradient id="A" gradientTransform="matrix(2.701 0 0 .37023 641.95 188.79)" gradientUnits="userSpaceOnUse" x1="-.18512" x2="-.18512" xlink:href="#c" y1="-1.3505" y2="55.165"/><linearGradient id="B" gradientTransform="matrix(1.1144 0 0 .89736 731.27 193.76)" gradientUnits="userSpaceOnUse" x1="-.61828" x2="-.61828" xlink:href="#g" y1="-.76781" y2="10.102"/><linearGradient id="C" gradientTransform="matrix(1.0891 0 0 .9182 709.75 193.76)" gradientUnits="userSpaceOnUse" x1="-.38932" x2="-.38932" xlink:href="#g" y1="-.75038" y2="10.128"/><linearGradient id="D" gradientTransform="matrix(.98191 0 0 1.0184 687.88 193.82)" gradientUnits="userSpaceOnUse" x1="-.36007" x2="-.36007" xlink:href="#g" y1="-.69431" y2="8.988"/><linearGradient id="E" gradientTransform="matrix(2.3781 0 0 .42051 641.95 41.788)" gradientUnits="userSpaceOnUse" x1="-.22778" x2="-.22778" xlink:href="#h" y1="-1.189" y2="63.019"/><linearGradient id="F" gradientTransform="matrix(.83011 0 0 1.2047 349.95 9.788)" gradientUnits="userSpaceOnUse" x2="0" xlink:href="#a" y2="233.2"/><linearGradient id="G" gradientTransform="matrix(1.1734 0 0 .85224 341.95 27.788)" gradientUnits="userSpaceOnUse" x1="-.42612" x2="-.42612" xlink:href="#c" y1="-.58669" y2="164.39"/><linearGradient id="H" gradientTransform="matrix(1.4245 0 0 .70201 341.95 167.39)" gradientUnits="userSpaceOnUse" x1="-.351" x2="-.351" xlink:href="#c" y1="-.71224" y2="135.18"/><linearGradient id="I" gradientTransform="matrix(.99738 0 0 1.0026 349.95 34.828)" gradientUnits="userSpaceOnUse" x1="-.57651" x2="-.57651" xlink:href="#d" y1="-.81104" y2="12.474"/><linearGradient id="J" gradientUnits="userSpaceOnUse" x1="349.37" x2="349.37" xlink:href="#i" y1="56.888" y2="70.138"/><linearGradient id="K" gradientUnits="userSpaceOnUse" x1="349.37" x2="349.37" xlink:href="#i" y1="79.488" y2="92.738"/><linearGradient id="L" gradientUnits="userSpaceOnUse" x1="349.37" x2="349.37" xlink:href="#e" y1="102.64" y2="114.79"/><linearGradient id="M" gradientUnits="userSpaceOnUse" x1="349.37" x2="349.37" xlink:href="#e" y1="125.24" y2="137.39"/><linearGradient id="N" gradientUnits="userSpaceOnUse" x1="349.37" x2="349.37" y1="147.84" y2="159.99"><stop offset="0" stop-color="#e0e0e0"/><stop offset="1" stop-color="#e0e0e0"/></linearGradient><linearGradient id="O" gradientTransform="matrix(.98481 0 0 1.0154 349.95 174.34)" gradientUnits="userSpaceOnUse" x1="-.41286" x2="-.41286" xlink:href="#f" y1="-.80082" y2="12.483"/><linearGradient id="P" gradientTransform="matrix(.98481 0 0 1.0154 349.95 196.94)" gradientUnits="userSpaceOnUse" x1="-.41286" x2="-.41286" xlink:href="#f" y1="-.80082" y2="12.483"/><linearGradient id="Q" gradientTransform="matrix(.98481 0 0 1.0154 349.95 219.54)" gradientUnits="userSpaceOnUse" x1="-.41286" x2="-.41286" xlink:href="#f" y1="-.80082" y2="12.483"/><linearGradient id="R" gradientTransform="matrix(.98481 0 0 1.0154 349.95 242.14)" gradientUnits="userSpaceOnUse" x1="-.41286" x2="-.41286" xlink:href="#f" y1="-.80082" y2="12.483"/><linearGradient id="S" gradientTransform="matrix(3.0417 0 0 .32877 341.95 261.79)" gradientUnits="userSpaceOnUse" x1="-.16438" x2="-.16438" xlink:href="#c" y1="-1.5208" y2="62.123"/><linearGradient id="T" gradientTransform="matrix(1.1144 0 0 .89736 451.73 266.76)" gradientUnits="userSpaceOnUse" x1="-.61828" x2="-.61828" xlink:href="#g" y1="-.76781" y2="10.102"/><linearGradient id="U" gradientTransform="matrix(1.0891 0 0 .9182 430.21 266.76)" gradientUnits="userSpaceOnUse" x1="-.38932" x2="-.38932" xlink:href="#g" y1="-.75038" y2="10.128"/><linearGradient id="V" gradientTransform="matrix(.98191 0 0 1.0184 408.35 266.82)" gradientUnits="userSpaceOnUse" x1="-.36007" x2="-.36007" xlink:href="#g" y1="-.69431" y2="8.988"/><linearGradient id="W" gradientTransform="matrix(2.6779 0 0 .37342 341.95 1.788)" gradientUnits="userSpaceOnUse" x1="-.20228" x2="-.20228" xlink:href="#h" y1="-1.339" y2="70.965"/><linearGradient id="X" gradientTransform="matrix(1.1417 0 0 .87589 9.9458 29.788)" gradientUnits="userSpaceOnUse" x2="0" xlink:href="#a" y2="165.92"/><linearGradient id="Y" gradientTransform="matrix(1.9425 0 0 .51479 1.9458 47.788)" gradientUnits="userSpaceOnUse" x1="-.2574" x2="-.2574" xlink:href="#c" y1="-.97126" y2="96.544"/><linearGradient id="Z" gradientTransform="matrix(1.9425 0 0 .51479 1.9458 96.988)" gradientUnits="userSpaceOnUse" x1="-.2574" x2="-.2574" xlink:href="#c" y1="-.97126" y2="96.544"/><linearGradient id="aa" gradientTransform="matrix(.99738 0 0 1.0026 9.9458 54.828)" gradientUnits="userSpaceOnUse" x1="-.57651" x2="-.57651" xlink:href="#d" y1="-.81104" y2="12.474"/><linearGradient id="ab" gradientUnits="userSpaceOnUse" x1="9.3708" x2="9.3708" xlink:href="#i" y1="76.888" y2="90.138"/><linearGradient id="ac" gradientTransform="matrix(.98481 0 0 1.0154 9.9458 103.94)" gradientUnits="userSpaceOnUse" x1="-.41286" x2="-.41286" xlink:href="#f" y1="-.80082" y2="12.483"/><linearGradient id="ad" gradientTransform="matrix(.98481 0 0 1.0154 9.9458 126.54)" gradientUnits="userSpaceOnUse" x1="-.41286" x2="-.41286" xlink:href="#f" y1="-.80082" y2="12.483"/><linearGradient id="ae" gradientTransform="matrix(3.0088 0 0 .33236 1.9458 146.19)" gradientUnits="userSpaceOnUse" x1="-.16618" x2="-.16618" xlink:href="#c" y1="-1.5044" y2="61.452"/><linearGradient id="af" gradientTransform="matrix(1.1144 0 0 .89736 109.66 151.16)" gradientUnits="userSpaceOnUse" x1="-.61828" x2="-.61828" xlink:href="#g" y1="-.76781" y2="10.102"/><linearGradient id="ag" gradientTransform="matrix(1.0891 0 0 .9182 88.133 151.16)" gradientUnits="userSpaceOnUse" x1="-.38932" x2="-.38932" xlink:href="#g" y1="-.75038" y2="10.128"/><linearGradient id="ah" gradientTransform="matrix(.98191 0 0 1.0184 66.273 151.22)" gradientUnits="userSpaceOnUse" x1="-.36007" x2="-.36007" xlink:href="#g" y1="-.69431" y2="8.988"/><linearGradient id="ai" gradientTransform="matrix(2.649 0 0 .3775 1.9458 21.788)" gradientUnits="userSpaceOnUse" x1="-.20448" x2="-.20448" xlink:href="#h" y1="-1.3245" y2="70.199"/><g stroke="#606060" stroke-linecap="square" stroke-linejoin="bevel" stroke-width="1.5"><g fill="none"><path d="m535.53 136.54h33"/><path d="m568.53 136.54c25.709 0 25.709-6.282 51.418-6.282"/><path d="m619.95 130.26h22"/><path d="m553.53 136.54-18-11"/><path d="m553.53 136.54-18 11"/></g><circle cx="563.59998" cy="136.67999" fill="url(#j)" fill-rule="evenodd" r="9.075" stroke-dasharray="6 3"/><g fill="none"><path d="m631.95 121.46v17.6"/><path d="m623.95 121.46v17.6"/></g></g><path d="m549.95 169.79h104v29h-104z" fill="url(#k)" fill-rule="evenodd"/><g stroke-linejoin="bevel"><path d="m541.95 161.79h104v29h-104z" fill="url(#l)" fill-rule="evenodd" stroke="#a4b09b" stroke-linecap="square"/><text style="font-style:italic;font-weight:400;font-size:13.2;font-family:Noto Sans;fill-rule:evenodd;stroke-linecap:square" x="548.94586" y="181.47859">belongs_to_type</text><g stroke="#26a269" stroke-linecap="round" stroke-width="1.5"><g fill="none"><path d="m341.95 159.4h-33"/><path d="m308.95 159.4c-43.5 0-43.5 2.387-87 2.387"/><path d="m221.95 161.79c-4.287 0-4.287-25.904-8.575-25.904"/><path d="m213.37 135.88h-22"/><g transform="matrix(-1 0 0 -1 341.95 159.4)"><path d="m18 0-18-11"/><path d="m18 0-18 11"/></g></g><circle cx="-313.87" cy="-159.25999" fill="url(#m)" fill-rule="evenodd" r="9.075" stroke-dasharray="6 3" transform="scale(-1)"/><g fill="none"><path d="m201.37 144.68v-17.6"/><path d="m209.37 144.68v-17.6"/></g></g></g><path d="m241.23 190.02h47v29h-47z" fill="url(#n)" fill-rule="evenodd"/><g stroke-linejoin="bevel"><path d="m233.23 182.02h47v29h-47z" fill="url(#o)" fill-rule="evenodd" stroke="#a4b09b" stroke-linecap="square"/><text style="font-style:italic;font-weight:400;font-size:13.2;font-family:Noto Sans;fill-rule:evenodd;stroke-linecap:square" x="240.23283" y="201.70959">has_id</text><g stroke="#63452c" stroke-linecap="round" stroke-width="1.5"><g fill="none"><path d="m191.37 102h33"/><path d="m224.37 102c47.788 0 47.788-4.179 95.575-4.179"/><path d="m319.95 97.823h22"/><g transform="translate(189.87 102)"><path d="m18 0-18-11"/><path d="m18 0-18 11"/></g></g><circle cx="217.95" cy="102.14" fill="url(#p)" fill-rule="evenodd" r="9.075" stroke-dasharray="6 3"/><g fill="none"><path d="m331.95 89.023v17.6"/><path d="m323.95 89.023v17.6"/></g></g></g><g fill-rule="evenodd"><path d="m205.95 58.252h130v29h-130z" fill="url(#q)"/><path d="m197.95 50.252h130v29h-130z" fill="url(#r)" stroke="#a4b09b" stroke-linecap="square" stroke-linejoin="bevel"/><text style="font-style:italic;font-weight:400;font-size:13.2;font-family:Noto Sans;stroke-linecap:square;stroke-linejoin:bevel" x="204.94583" y="69.942505">enforce_at_least_one</text><path d="m649.95 61.788c0-6.6274 5.3726-12 12-12h128.65c6.627 0 12 5.3726 12 12v143.92c0 6.627-5.373 12-12 12h-128.65c-6.6274 0-12-5.373-12-12z" fill="url(#s)"/><g stroke-linecap="square" stroke-linejoin="bevel"><path d="m641.95 67.788h151.65v71.8h-151.65z" fill="url(#t)" stroke="#d7d7d7"/><path d="m641.95 139.59h151.65v49.2h-151.65z" fill="url(#u)" stroke="#d7d7d7"/><path d="m652.63 74.828-2.6889 2.6889v6.7222l2.6889 2.6889 1.3444-1.3444v-2.6889h1.3444l1.3444 1.3444 2.6889-2.6889 2.6889 2.6889v-5.3778h-8.0667v-2.6889z" fill="url(#v)" stroke="#897416" stroke-width="1.15"/><text fill="#2b7dba" font-family="Noto Sans" font-size="14.667" font-style="italic" font-weight="700" x="667.19586" y="86.619301">id</text><path d="m655.32 97.344-5.3778 5.3778v1.3444l5.3778 5.3778h1.3444l5.3778-5.3778v-1.3444l-5.3778-5.3778z" fill="url(#w)" stroke="#ab8600" stroke-width="1.15"/><text font-family="Noto Sans" font-size="14.667" font-style="italic" font-weight="400" x="667.19586" y="109.2193">name</text><circle cx="655.45001" cy="126.11" fill="url(#x)" r="5.5" stroke="#5a9ee4" stroke-width="1.15"/><text font-family="Noto Sans" font-size="14.667" font-style="italic" font-weight="400" x="666.09589" y="131.81929">validation_regexp</text><path d="m656.67 146.54-6.7222 6.7222 5.3778 5.3778h6.7222v-6.7222z" fill="url(#y)" stroke="#4c4c98" stroke-width="1.15"/><text fill="#082061" font-family="Noto Sans" font-size="14.667" font-style="italic" font-weight="400" x="667.02783" y="158.4193">id_type_id_pk</text><path d="m656.67 169.14-6.7222 6.7222 5.3778 5.3778h6.7222v-6.7222z" fill="url(#z)" stroke="#4c4c98" stroke-width="1.15"/><text fill="#082061" font-family="Noto Sans" font-size="14.667" font-style="italic" font-weight="400" x="667.02783" y="181.01929">id_type_name_uq</text><path d="m641.94584 188.788h151.65v7.924l-.182 2.0838-.542 2.0204-.884 1.8958-1.199 1.7135-1.48 1.479-1.713 1.1998-1.896.884-2.02.5414-2.084.1823h-127.65l-2.08378-.1823-2.02046-.5414-1.89576-.884-1.71345-1.1998-1.47908-1.479-1.19977-1.7135-.88401-1.8958-.54138-2.0204-.18231-2.0838z" fill="url(#A)" stroke="#d7d7d7"/><g stroke="#bebebe"><path d="m731.27 193.76h11l-5.5 8.8z" fill="url(#B)" opacity=".4"/><path d="m715.25 193.76-5.5 8.8h11z" fill="url(#C)"/><path d="m692.28 193.82 4.4 4.4-4.4 4.4-4.4-4.4z" fill="url(#D)"/></g><path d="m641.95 53.788.18231-2.0838.54138-2.0205.88401-1.8958 1.1998-1.7134 1.4791-1.4791 1.7134-1.1998 1.8958-.88401 2.0205-.54138 2.0838-.18231h127.65l2.084.18231 2.02.54138 1.896.88401 1.713 1.1998 1.48 1.4791 1.199 1.7134.884 1.8958.542 2.0205.182 2.0838v14h-151.65z" fill="url(#E)" stroke="#3175b0"/><g font-family="Noto Sans" font-size="14.667"><text font-style="italic" font-weight="400" x="669.30524" y="59.121296">public.</text><text fill="#fff" font-weight="700" x="713.64899" y="59.121296">id_type</text></g></g><path d="m349.95 21.788c0-6.6274 5.3726-12 12-12h169.58c6.627 0 12 5.3726 12 12v256.92c0 6.627-5.373 12-12 12h-169.58c-6.6274 0-12-5.373-12-12z" fill="url(#F)"/><g stroke-linecap="square" stroke-linejoin="bevel"><path d="m341.95 27.788h192.58v139.6h-192.58z" fill="url(#G)" stroke="#d7d7d7"/><path d="m341.95 167.39h192.58v94.4h-192.58z" fill="url(#H)" stroke="#d7d7d7"/><path d="m352.63 34.828-2.6889 2.6889v6.7222l2.6889 2.6889 1.3444-1.3444v-2.6889h1.3444l1.3444 1.3444 2.6889-2.6889 2.6889 2.6889v-5.3778h-8.0667v-2.6889z" fill="url(#I)" stroke="#897416" stroke-width="1.15"/><text fill="#2b7dba" font-family="Noto Sans" font-size="14.667" font-style="italic" font-weight="700" x="367.19583" y="46.619297">id</text><path d="m349.95 61.496v4.0333h5.3778v4.0333h1.3444l5.3778-5.3778v-1.3444l-5.3778-5.3778h-1.3444v4.0333z" fill="url(#J)" stroke="#8f341b" stroke-width="1.15"/><text font-family="Noto Sans" font-size="14.667" font-style="italic" font-weight="400" x="367.19583" y="69.219299">id_type</text><path d="m349.95 84.096v4.0333h5.3778v4.0333h1.3444l5.3778-5.3778v-1.3444l-5.3778-5.3778h-1.3444v4.0333z" fill="url(#K)" stroke="#8f341b" stroke-width="1.15"/><text font-family="Noto Sans" font-size="14.667" font-style="italic" font-weight="400" x="367.19583" y="91.819305">person</text><circle cx="355.45001" cy="108.71" fill="url(#L)" r="5.5" stroke="#5a9ee4" stroke-width="1.15"/><text font-family="Noto Sans" font-size="14.667" font-style="italic" font-weight="400" x="366.09583" y="114.4193">value</text><circle cx="355.45001" cy="131.31" fill="url(#M)" r="5.5" stroke="#5a9ee4" stroke-width="1.15"/><text font-family="Noto Sans" font-size="14.667" font-style="italic" font-weight="400" x="366.09583" y="137.01929">valid_from</text><circle cx="355.45001" cy="153.91" fill="url(#N)" r="5.5" stroke="#808080" stroke-width="1.15"/><text font-family="'Noto Sans'" font-size="14.667" font-weight="400" x="366.09583" y="159.61929">valid_to</text><path d="m356.67 174.34-6.7222 6.7222 5.3778 5.3778h6.7222v-6.7222z" fill="url(#O)" stroke="#4c4c98" stroke-width="1.15"/><text fill="#082061" font-family="Noto Sans" font-size="14.667" font-style="italic" font-weight="400" x="367.02783" y="186.2193">personal_id_id_pk</text><path d="m356.67 196.94-6.7222 6.7222 5.3778 5.3778h6.7222v-6.7222z" fill="url(#P)" stroke="#4c4c98" stroke-width="1.15"/><text fill="#082061" font-family="Noto Sans" font-size="14.667" font-style="italic" font-weight="400" x="367.02783" y="208.81929">person_id_id_person_uq</text><path d="m356.67 219.54-6.7222 6.7222 5.3778 5.3778h6.7222v-6.7222z" fill="url(#Q)" stroke="#4c4c98" stroke-width="1.15"/><text fill="#082061" font-family="Noto Sans" font-size="14.667" font-style="italic" font-weight="400" x="367.02783" y="231.4193">personal_id_id_type_fk</text><path d="m356.67 242.14-6.7222 6.7222 5.3778 5.3778h6.7222v-6.7222z" fill="url(#R)" stroke="#4c4c98" stroke-width="1.15"/><text fill="#082061" font-family="Noto Sans" font-size="14.667" font-style="italic" font-weight="400" x="367.02783" y="254.01929">personal_id_person_fk</text><path d="m341.94584 261.788h192.582v7.924l-.183 2.0838-.541 2.0204-.884 1.8958-1.2 1.7135-1.479 1.479-1.713 1.1998-1.896.884-2.021.5414-2.083.1823h-168.582l-2.08378-.1823-2.02046-.5414-1.89576-.884-1.71345-1.1998-1.47908-1.479-1.19977-1.7135-.88401-1.8958-.54138-2.0204-.18231-2.0838z" fill="url(#S)" stroke="#d7d7d7"/><g stroke="#bebebe"><path d="m451.73 266.76h11l-5.5 8.8z" fill="url(#T)" opacity=".4"/><path d="m435.71 266.76-5.5 8.8h11z" fill="url(#U)"/><path d="m412.75 266.82 4.4 4.4-4.4 4.4-4.4-4.4z" fill="url(#V)"/></g><path d="m341.95 13.788.18231-2.0838.54138-2.0205.88401-1.8958 1.1998-1.7134 1.4791-1.4791 1.7134-1.1998 1.8958-.88401 2.0205-.54138 2.0838-.18231h168.58l2.083.18231 2.021.54138 1.896.88401 1.713 1.1998 1.479 1.4791 1.2 1.7134.884 1.8958.541 2.0205.183 2.0838v14h-192.58z" fill="url(#W)" stroke="#3175b0"/><g font-family="Noto Sans" font-size="14.667"><text font-style="italic" font-weight="400" x="373.78964" y="19.1213">public.</text><text fill="#fff" font-weight="700" x="418.13333" y="19.1213">personal_id</text></g></g><path d="m9.9458 41.788c0-6.6274 5.3726-12 12-12h165.43c6.628 0 12 5.3726 12 12v121.32c0 6.627-5.372 12-12 12h-165.43c-6.6274 0-12-5.373-12-12z" fill="url(#X)"/><g stroke-linecap="square" stroke-linejoin="bevel"><path d="m1.9458 47.788h188.42v49.2h-188.42z" fill="url(#Y)" stroke="#d7d7d7"/><path d="m1.9458 96.988h188.42v49.2h-188.42z" fill="url(#Z)" stroke="#d7d7d7"/><path d="m12.635 54.828-2.6889 2.6889v6.7222l2.6889 2.6889 1.3444-1.3444v-2.6889h1.3444l1.3444 1.3444 2.6889-2.6889 2.6889 2.6889v-5.3778h-8.0667v-2.6889z" fill="url(#aa)" stroke="#897416" stroke-width="1.15"/><text fill="#2b7dba" font-family="Noto Sans" font-size="14.667" font-style="italic" font-weight="700" x="27.195837" y="66.619301">id</text><path d="m9.9458 81.496v4.0333h5.3778v4.0333h1.3444l5.3778-5.3778v-1.3444l-5.3778-5.3778h-1.3444v4.0333z" fill="url(#ab)" stroke="#8f341b" stroke-width="1.15"/><text font-family="Noto Sans" font-size="14.667" font-style="italic" font-weight="400" x="27.195837" y="89.219299">person_id</text><path d="m16.668 103.94-6.7222 6.7222 5.3778 5.3778h6.7222v-6.7222z" fill="url(#ac)" stroke="#4c4c98" stroke-width="1.15"/><text fill="#082061" font-family="Noto Sans" font-size="14.667" font-style="italic" font-weight="400" x="27.027437" y="115.81931">person_id_pk</text><path d="m16.668 126.54-6.7222 6.7222 5.3778 5.3778h6.7222v-6.7222z" fill="url(#ad)" stroke="#4c4c98" stroke-width="1.15"/><text fill="#082061" font-family="Noto Sans" font-size="14.667" font-style="italic" font-weight="400" x="27.027437" y="138.4193">person_id_person_id_fk</text><path d="m1.9458 146.19h188.43v7.924l-.182 2.0838-.541 2.0204-.884 1.8958-1.2 1.7135-1.479 1.479-1.714 1.1998-1.895.884-2.021.5414-2.084.1823h-164.43l-2.0838-.1823-2.0205-.5414-1.8958-.884-1.7134-1.1998-1.4791-1.479-1.1998-1.7135-.88401-1.8958-.54138-2.0204-.18231-2.0838z" fill="url(#ae)" stroke="#d7d7d7"/><g stroke="#bebebe"><path d="m109.66 151.16h11l-5.5 8.8z" fill="url(#af)" opacity=".4"/><path d="m93.633 151.16-5.5 8.8h11z" fill="url(#ag)"/><path d="m70.673 151.22 4.4 4.4-4.4 4.4-4.4-4.4z" fill="url(#ah)"/></g><path d="m1.9458 33.788.18231-2.0838.54138-2.0205.88401-1.8958 1.1998-1.7134 1.4791-1.4791 1.7134-1.1998 1.8958-.88401 2.0205-.54138 2.0838-.18231h164.43l2.084.18231 2.021.54138 1.895.88401 1.714 1.1998 1.479 1.4791 1.2 1.7134.884 1.8958.541 2.0205.182 2.0838v14h-188.43z" fill="url(#ai)" stroke="#3175b0"/><g font-family="Noto Sans" font-size="14.667"><text font-style="italic" font-weight="400" x="48.617741" y="39.121296">public.</text><text fill="#fff" font-weight="700" x="92.961441" y="39.121296">person</text></g></g></g></svg>