<svg height="224pt" viewBox="0 0 173 224" width="173pt" xmlns="http://www.w3.org/2000/svg" xmlns:xlink="http://www.w3.org/1999/xlink"><linearGradient id="a" x2="0" y2="1"><stop offset="0" stop-color="#fcfcfc"/><stop offset="1" stop-color="#fcfcfc"/></linearGradient><linearGradient id="b" x2="0" y2="1"><stop offset="0" stop-color="#ffff80"/><stop offset="1" stop-color="#ffff80"/></linearGradient><linearGradient id="c" x2="0" y2="1"><stop offset="0" stop-color="#d2e9ff"/><stop offset="1" stop-color="#d2e9ff"/></linearGradient><linearGradient id="d" x2="0" y2="1"><stop offset="0" stop-color="#f3f3f3"/><stop offset="1" stop-color="#e1e1e1"/></linearGradient><linearGradient id="e" gradientTransform="matrix(.87214 0 0 1.1466 9.7163 9.688)" gradientUnits="userSpaceOnUse" x2="0" y2="185.87"><stop offset="0" stop-color="#a9a9a9" stop-opacity=".19608"/><stop offset="1" stop-color="#a9a9a9" stop-opacity=".19608"/></linearGradient><linearGradient id="f" gradientTransform="matrix(1.0738 0 0 .9313 1.7163 27.688)" gradientUnits="userSpaceOnUse" x1="-.46565" x2="-.46565" xlink:href="#a" y1="-.53688" y2="150.44"/><linearGradient id="g" gradientTransform="matrix(2.4235 0 0 .41262 1.7163 167.29)" gradientUnits="userSpaceOnUse" x1="-.20631" x2="-.20631" xlink:href="#a" y1="-1.2118" y2="65.678"/><linearGradient id="h" gradientTransform="matrix(.99738 0 0 1.0026 9.7163 34.728)" gradientUnits="userSpaceOnUse" x1="-.57651" x2="-.57651" xlink:href="#b" y1="-.81104" y2="12.474"/><linearGradient id="i" gradientTransform="matrix(.99738 0 0 1.0026 9.7163 57.328)" gradientUnits="userSpaceOnUse" x1="-.57651" x2="-.57651" xlink:href="#b" y1="-.81104" y2="12.474"/><linearGradient id="j" gradientUnits="userSpaceOnUse" x1="9.1413" x2="9.1413" xlink:href="#c" y1="79.938" y2="92.088"/><linearGradient id="k" gradientUnits="userSpaceOnUse" x1="9.1413" x2="9.1413" xlink:href="#c" y1="102.54" y2="114.69"/><linearGradient id="l" gradientUnits="userSpaceOnUse" x1="9.1413" x2="9.1413" xlink:href="#c" y1="125.14" y2="137.29"/><linearGradient id="m" gradientUnits="userSpaceOnUse" x1="9.1413" x2="9.1413" xlink:href="#c" y1="147.74" y2="159.89"/><linearGradient id="n" gradientTransform="matrix(.98481 0 0 1.0154 9.7163 174.24)" gradientUnits="userSpaceOnUse" x1="-.41286" x2="-.41286" y1="-.80082" y2="12.483"><stop offset="0" stop-color="#c5cbff"/><stop offset="1" stop-color="#c5cbff"/></linearGradient><linearGradient id="o" gradientTransform="matrix(2.7834 0 0 .35927 1.7163 193.89)" gradientUnits="userSpaceOnUse" x1="-.17963" x2="-.17963" xlink:href="#a" y1="-1.3917" y2="56.849"/><linearGradient id="p" gradientTransform="matrix(1.1144 0 0 .89736 95.769 198.86)" gradientUnits="userSpaceOnUse" x1="-.61828" x2="-.61828" xlink:href="#d" y1="-.76781" y2="10.102"/><linearGradient id="q" gradientTransform="matrix(1.0891 0 0 .9182 74.246 198.86)" gradientUnits="userSpaceOnUse" x1="-.38932" x2="-.38932" xlink:href="#d" y1="-.75038" y2="10.128"/><linearGradient id="r" gradientTransform="matrix(.98191 0 0 1.0184 52.385 198.92)" gradientUnits="userSpaceOnUse" x1="-.36007" x2="-.36007" xlink:href="#d" y1="-.69431" y2="8.988"/><linearGradient id="s" gradientTransform="matrix(2.4506 0 0 .40806 1.7163 1.688)" gradientUnits="userSpaceOnUse" x1="-.22104" x2="-.22104" y1="-1.2253" y2="64.942"><stop offset="0" stop-color="#4aa5ff"/><stop offset="1" stop-color="#4aa5ff"/></linearGradient><g fill-rule="evenodd"><path d="m9.7163 21.688c0-6.6274 5.3726-12 12-12h138.11c6.628 0 12 5.3726 12 12v189.12c0 6.627-5.372 12-12 12h-138.11c-6.6274 0-12-5.373-12-12z" fill="url(#e)"/><g stroke-linecap="square" stroke-linejoin="bevel"><path d="m1.7163 27.688h161.11v139.6h-161.11z" fill="url(#f)" stroke="#d7d7d7"/><path d="m1.7163 167.29h161.11v26.6h-161.11z" fill="url(#g)" stroke="#d7d7d7"/><path d="m12.405 34.728-2.6889 2.6889v6.7222l2.6889 2.6889 1.3444-1.3444v-2.6889h1.3444l1.3444 1.3444 2.6889-2.6889 2.6889 2.6889v-5.3778h-8.0667v-2.6889z" fill="url(#h)" stroke="#897416" stroke-width="1.15"/><text fill="#2b7dba" font-family="'Noto Sans'" font-size="14.667" font-style="italic" font-weight="700" x="26.966337" y="46.519299">building_number</text><path d="m12.405 57.328-2.6889 2.6889v6.7222l2.6889 2.6889 1.3444-1.3444v-2.6889h1.3444l1.3444 1.3444 2.6889-2.6889 2.6889 2.6889v-5.3778h-8.0667v-2.6889z" fill="url(#i)" stroke="#897416" stroke-width="1.15"/><text fill="#2b7dba" font-family="'Noto Sans'" font-size="14.667" font-style="italic" font-weight="700" x="26.966337" y="69.119301">room_number</text><circle cx="15.216" cy="86.013" fill="url(#j)" r="5.5" stroke="#5a9ee4" stroke-width="1.15"/><text font-family="'Noto Sans'" font-size="14.667" font-style="italic" font-weight="400" x="25.866339" y="91.719299">building_name</text><circle cx="15.216" cy="108.61" fill="url(#k)" r="5.5" stroke="#5a9ee4" stroke-width="1.15"/><text font-family="'Noto Sans'" font-size="14.667" font-style="italic" font-weight="400" x="25.866339" y="114.3193">room_name</text><circle cx="15.216" cy="131.21" fill="url(#l)" r="5.5" stroke="#5a9ee4" stroke-width="1.15"/><text font-family="'Noto Sans'" font-size="14.667" font-style="italic" font-weight="400" x="25.866339" y="136.9193">capacity</text><circle cx="15.216" cy="153.81" fill="url(#m)" r="5.5" stroke="#5a9ee4" stroke-width="1.15"/><text font-family="'Noto Sans'" font-size="14.667" font-style="italic" font-weight="400" x="25.866339" y="159.5193">address</text><path d="m16.439 174.24-6.7222 6.7222 5.3778 5.3778h6.7222v-6.7222z" fill="url(#n)" stroke="#4c4c98" stroke-width="1.15"/><text fill="#082061" font-family="'Noto Sans'" font-size="14.667" font-style="italic" font-weight="400" x="26.797937" y="186.11929">br_pk</text><path d="m1.7163 193.89h161.11v7.924l-.182 2.0838-.541 2.0204-.884 1.8958-1.2 1.7135-1.479 1.479-1.714 1.1998-1.895.884-2.021.5414-2.084.1823h-137.11l-2.0838-.1823-2.0205-.5414-1.8958-.884-1.7134-1.1998-1.4791-1.479-1.1998-1.7135-.88401-1.8958-.54138-2.0204-.18231-2.0838v-7.924" fill="url(#o)" stroke="#d7d7d7"/><g stroke="#bebebe"><path d="m95.769 198.86h11l-5.5 8.8z" fill="url(#p)" opacity=".4"/><path d="m79.746 198.86-5.5 8.8h11z" fill="url(#q)"/><path d="m56.785 198.92 4.4 4.4-4.4 4.4-4.4-4.4z" fill="url(#r)"/></g><path d="m1.7163 13.688.18231-2.0838.54138-2.0205.88401-1.8958 1.1998-1.7134 1.4791-1.4791 1.7134-1.1998 1.8958-.88401 2.0205-.54138 2.0838-.18231h137.11l2.084.18231 2.021.54138 1.895.88401 1.714 1.1998 1.479 1.4791 1.2 1.7134.884 1.8958.541 2.0205.182 2.0838v14h-161.11z" fill="url(#s)" stroke="#3175b0"/><g font-family="'Noto Sans'" font-size="14.667"><text font-style="italic" font-weight="400" x="6.716338" y="19.021299">public.</text><text fill="#fff" font-weight="700" x="51.060139" y="19.021299">building_room</text></g></g></g></svg>