<svg height="315pt" viewBox="0 0 234 315" width="234pt" xmlns="http://www.w3.org/2000/svg" xmlns:xlink="http://www.w3.org/1999/xlink"><linearGradient id="a" x2="0" y2="1"><stop offset="0" stop-color="#fcfcfc"/><stop offset="1" stop-color="#fcfcfc"/></linearGradient><linearGradient id="b" x2="0" y2="1"><stop offset="0" stop-color="#d2e9ff"/><stop offset="1" stop-color="#d2e9ff"/></linearGradient><linearGradient id="c" x2="0" y2="1"><stop offset="0" stop-color="#c5cbff"/><stop offset="1" stop-color="#c5cbff"/></linearGradient><linearGradient id="d" x2="0" y2="1"><stop offset="0" stop-color="#f3f3f3"/><stop offset="1" stop-color="#e1e1e1"/></linearGradient><linearGradient id="e" gradientTransform="matrix(.85676 0 0 1.1672 9.8708 9.988)" gradientUnits="userSpaceOnUse" x2="0" y2="260.05"><stop offset="0" stop-color="#a9a9a9" stop-opacity=".19608"/><stop offset="1" stop-color="#a9a9a9" stop-opacity=".19608"/></linearGradient><linearGradient id="f" gradientTransform="matrix(1.2588 0 0 .79439 1.8708 27.988)" gradientUnits="userSpaceOnUse" x1="-.3972" x2="-.3972" xlink:href="#a" y1="-.62941" y2="176.36"/><linearGradient id="g" gradientTransform="matrix(1.3741 0 0 .72775 1.8708 167.59)" gradientUnits="userSpaceOnUse" x1="-.36388" x2="-.36388" xlink:href="#a" y1="-.68705" y2="161.46"/><linearGradient id="h" gradientTransform="matrix(.99738 0 0 1.0026 9.8708 35.028)" gradientUnits="userSpaceOnUse" x1="-.57651" x2="-.57651" y1="-.81104" y2="12.474"><stop offset="0" stop-color="#ffff80"/><stop offset="1" stop-color="#ffff80"/></linearGradient><linearGradient id="i" gradientUnits="userSpaceOnUse" x1="9.2958" x2="9.2958" xlink:href="#b" y1="57.638" y2="69.788"/><linearGradient id="j" gradientUnits="userSpaceOnUse" x1="9.2958" x2="9.2958" xlink:href="#b" y1="80.238" y2="92.388"/><linearGradient id="k" gradientUnits="userSpaceOnUse" x1="9.2958" x2="9.2958" xlink:href="#b" y1="102.84" y2="114.99"/><linearGradient id="l" gradientUnits="userSpaceOnUse" x1="9.2958" x2="9.2958" xlink:href="#b" y1="125.44" y2="137.59"/><linearGradient id="m" gradientUnits="userSpaceOnUse" x1="9.2958" x2="9.2958" xlink:href="#b" y1="148.04" y2="160.19"/><linearGradient id="n" gradientTransform="matrix(.98481 0 0 1.0154 9.8708 174.54)" gradientUnits="userSpaceOnUse" x1="-.41286" x2="-.41286" xlink:href="#c" y1="-.80082" y2="12.483"/><linearGradient id="o" gradientTransform="matrix(.98481 0 0 1.0154 9.8708 197.14)" gradientUnits="userSpaceOnUse" x1="-.41286" x2="-.41286" xlink:href="#c" y1="-.80082" y2="12.483"/><linearGradient id="p" gradientTransform="matrix(.98481 0 0 1.0154 9.8708 219.74)" gradientUnits="userSpaceOnUse" x1="-.41286" x2="-.41286" xlink:href="#c" y1="-.80082" y2="12.483"/><linearGradient id="q" gradientTransform="matrix(.98481 0 0 1.0154 9.8708 242.34)" gradientUnits="userSpaceOnUse" x1="-.41286" x2="-.41286" xlink:href="#c" y1="-.80082" y2="12.483"/><linearGradient id="r" gradientTransform="matrix(.98481 0 0 1.0154 9.8708 264.94)" gradientUnits="userSpaceOnUse" x1="-.41286" x2="-.41286" xlink:href="#c" y1="-.80082" y2="12.483"/><linearGradient id="s" gradientTransform="matrix(3.2631 0 0 .30645 1.8708 284.59)" gradientUnits="userSpaceOnUse" x1="-.15323" x2="-.15323" xlink:href="#a" y1="-1.6316" y2="66.646"/><linearGradient id="t" gradientTransform="matrix(1.1144 0 0 .89736 126.27 289.56)" gradientUnits="userSpaceOnUse" x1="-.61828" x2="-.61828" xlink:href="#d" y1="-.76781" y2="10.102"/><linearGradient id="u" gradientTransform="matrix(1.0891 0 0 .9182 104.75 289.56)" gradientUnits="userSpaceOnUse" x1="-.38932" x2="-.38932" xlink:href="#d" y1="-.75038" y2="10.128"/><linearGradient id="v" gradientTransform="matrix(.98191 0 0 1.0184 82.885 289.62)" gradientUnits="userSpaceOnUse" x1="-.36007" x2="-.36007" xlink:href="#d" y1="-.69431" y2="8.988"/><linearGradient id="w" gradientTransform="matrix(2.8729 0 0 .34808 1.8708 1.988)" gradientUnits="userSpaceOnUse" x1="-.18855" x2="-.18855" y1="-1.4364" y2="76.131"><stop offset="0" stop-color="#4aa5ff"/><stop offset="1" stop-color="#4aa5ff"/></linearGradient><g fill-rule="evenodd"><path d="m9.8708 21.988c0-6.6274 5.3726-12 12-12h198.8c6.628 0 12 5.3726 12 12v279.52c0 6.627-5.372 12-12 12h-198.8c-6.6274 0-12-5.373-12-12z" fill="url(#e)"/><g stroke-linecap="square" stroke-linejoin="bevel"><path d="m1.8708 27.988h221.8v139.6h-221.8z" fill="url(#f)" stroke="#d7d7d7"/><path d="m1.8708 167.59h221.8v117h-221.8z" fill="url(#g)" stroke="#d7d7d7"/><path d="m12.56 35.028-2.6889 2.6889v6.7222l2.6889 2.6889 1.3444-1.3444v-2.6889h1.3444l1.3444 1.3444 2.6889-2.6889 2.6889 2.6889v-5.3778h-8.0667v-2.6889z" fill="url(#h)" stroke="#897416" stroke-width="1.15"/><text fill="#2b7dba" font-family="'Noto Sans'" font-size="14.667" font-style="italic" font-weight="700" x="27.120838" y="46.819298">student_id</text><circle cx="15.371" cy="63.713" fill="url(#i)" r="5.5" stroke="#5a9ee4" stroke-width="1.15"/><text font-family="'Noto Sans'" font-size="14.667" font-style="italic" font-weight="400" x="26.020838" y="69.419296">national_id</text><circle cx="15.371" cy="86.313" fill="url(#j)" r="5.5" stroke="#5a9ee4" stroke-width="1.15"/><text font-family="'Noto Sans'" font-size="14.667" font-style="italic" font-weight="400" x="26.020838" y="92.019302">name</text><circle cx="15.371" cy="108.91" fill="url(#k)" r="5.5" stroke="#5a9ee4" stroke-width="1.15"/><text font-family="'Noto Sans'" font-size="14.667" font-style="italic" font-weight="400" x="26.020838" y="114.6193">address</text><circle cx="15.371" cy="131.51" fill="url(#l)" r="5.5" stroke="#5a9ee4" stroke-width="1.15"/><text font-family="'Noto Sans'" font-size="14.667" font-style="italic" font-weight="400" x="26.020838" y="137.2193">mobile</text><circle cx="15.371" cy="154.11" fill="url(#m)" r="5.5" stroke="#5a9ee4" stroke-width="1.15"/><text font-family="'Noto Sans'" font-size="14.667" font-style="italic" font-weight="400" x="26.020838" y="159.81931">date_of_birth</text><path d="m16.593 174.54-6.7222 6.7222 5.3778 5.3778h6.7222v-6.7222z" fill="url(#n)" stroke="#4c4c98" stroke-width="1.15"/><text fill="#082061" font-family="'Noto Sans'" font-size="14.667" font-style="italic" font-weight="400" x="26.952438" y="186.4193">student_student_id_pk</text><path d="m16.593 197.14-6.7222 6.7222 5.3778 5.3778h6.7222v-6.7222z" fill="url(#o)" stroke="#4c4c98" stroke-width="1.15"/><text fill="#082061" font-family="'Noto Sans'" font-size="14.667" font-style="italic" font-weight="400" x="26.952438" y="209.0193">student_national_id_check</text><path d="m16.593 219.74-6.7222 6.7222 5.3778 5.3778h6.7222v-6.7222z" fill="url(#p)" stroke="#4c4c98" stroke-width="1.15"/><text fill="#082061" font-family="'Noto Sans'" font-size="14.667" font-style="italic" font-weight="400" x="26.952438" y="231.61929">student_mobile_check</text><path d="m16.593 242.34-6.7222 6.7222 5.3778 5.3778h6.7222v-6.7222z" fill="url(#q)" stroke="#4c4c98" stroke-width="1.15"/><text fill="#082061" font-family="'Noto Sans'" font-size="14.667" font-style="italic" font-weight="400" x="26.952438" y="254.2193">student_date_of_birth_check</text><path d="m16.593 264.94-6.7222 6.7222 5.3778 5.3778h6.7222v-6.7222z" fill="url(#r)" stroke="#4c4c98" stroke-width="1.15"/><text fill="#082061" font-family="'Noto Sans'" font-size="14.667" font-style="italic" font-weight="400" x="26.952438" y="276.81931">student_name_check</text><path d="m1.8708 284.59h221.8v7.924l-.182 2.0838-.541 2.0204-.884 1.8958-1.2 1.7135-1.479 1.479-1.714 1.1998-1.895.884-2.021.5414-2.084.1823h-197.8l-2.0838-.1823-2.0205-.5414-1.8958-.884-1.7134-1.1998-1.4791-1.479-1.1998-1.7135-.88401-1.8958-.54138-2.0204-.18231-2.0838v-7.924" fill="url(#s)" stroke="#d7d7d7"/><g stroke="#bebebe"><path d="m126.27 289.56h11l-5.5 8.8z" fill="url(#t)" opacity=".4"/><path d="m110.25 289.56-5.5 8.8h11z" fill="url(#u)"/><path d="m87.285 289.62 4.4 4.4-4.4 4.4-4.4-4.4z" fill="url(#v)"/></g><path d="m1.8708 13.988.18231-2.0838.54138-2.0205.88401-1.8958 1.1998-1.7134 1.4791-1.4791 1.7134-1.1998 1.8958-.88401 2.0205-.54138 2.0838-.18231h197.8l2.084.18231 2.021.54138 1.895.88401 1.714 1.1998 1.479 1.4791 1.2 1.7134.884 1.8958.541 2.0205.182 2.0838v14h-221.8z" fill="url(#w)" stroke="#3175b0"/><g font-family="'Noto Sans'" font-size="14.667"><text font-style="italic" font-weight="400" x="61.85524" y="19.321301">public.</text><text fill="#fff" font-weight="700" x="106.19884" y="19.321301">student</text></g></g></g></svg>