<svg height="282pt" viewBox="0 0 566 282" width="566pt" xmlns="http://www.w3.org/2000/svg" xmlns:xlink="http://www.w3.org/1999/xlink"><linearGradient id="a" x2="0" y2="1"><stop offset="0" stop-color="#a9a9a9" stop-opacity=".19608"/><stop offset="1" stop-color="#a9a9a9" stop-opacity=".19608"/></linearGradient><linearGradient id="b" x2="0" y2="1"><stop offset="0" stop-color="#fcfcfc"/><stop offset="1" stop-color="#fcfcfc"/></linearGradient><linearGradient id="c" x2="0" y2="1"><stop offset="0" stop-color="#ffff80"/><stop offset="1" stop-color="#ffff80"/></linearGradient><linearGradient id="d" x2="0" y2="1"><stop offset="0" stop-color="#d2e9ff"/><stop offset="1" stop-color="#d2e9ff"/></linearGradient><linearGradient id="e" x2="0" y2="1"><stop offset="0" stop-color="#c5cbff"/><stop offset="1" stop-color="#c5cbff"/></linearGradient><linearGradient id="f" x2="0" y2="1"><stop offset="0" stop-color="#f3f3f3"/><stop offset="1" stop-color="#e1e1e1"/></linearGradient><linearGradient id="g" x2="0" y2="1"><stop offset="0" stop-color="#4aa5ff"/><stop offset="1" stop-color="#4aa5ff"/></linearGradient><linearGradient id="h" gradientTransform="matrix(.99946 0 0 1.0005 -362.82 -174.86)" gradientUnits="userSpaceOnUse" x1="-.75034" x2="-.75034" y1="-.78024" y2="18.89"><stop offset="0" stop-color="#dcdcdc"/><stop offset="1" stop-color="#dcdcdc"/></linearGradient><linearGradient id="i" gradientTransform="matrix(2.0342 0 0 .4916 246.01 181.64)" gradientUnits="userSpaceOnUse" x2="0" xlink:href="#a" y2="58.992"/><linearGradient id="j" gradientTransform="matrix(2.0083 0 0 .49793 238.01 173.64)" gradientUnits="userSpaceOnUse" x1="-.24896" x2="-.24896" y1="-1.0042" y2="59.245"><stop offset="0" stop-color="#eeffe0"/><stop offset="1" stop-color="#eeffe0"/></linearGradient><linearGradient id="k" gradientTransform="matrix(.9287 0 0 1.0768 9.8158 9.988)" gradientUnits="userSpaceOnUse" x2="0" xlink:href="#a" y2="239.91"/><linearGradient id="l" gradientTransform="matrix(1.2588 0 0 .79439 1.8158 27.988)" gradientUnits="userSpaceOnUse" x1="-.3972" x2="-.3972" xlink:href="#b" y1="-.62941" y2="176.36"/><linearGradient id="m" gradientTransform="matrix(1.7494 0 0 .57162 1.8158 167.59)" gradientUnits="userSpaceOnUse" x1="-.28581" x2="-.28581" xlink:href="#b" y1="-.87471" y2="126.48"/><linearGradient id="n" gradientTransform="matrix(.99738 0 0 1.0026 9.8158 35.028)" gradientUnits="userSpaceOnUse" x1="-.57651" x2="-.57651" xlink:href="#c" y1="-.81104" y2="12.474"/><linearGradient id="o" gradientUnits="userSpaceOnUse" x1="9.2408" x2="9.2408" xlink:href="#d" y1="57.638" y2="69.788"/><linearGradient id="p" gradientUnits="userSpaceOnUse" x1="9.2408" x2="9.2408" xlink:href="#d" y1="80.238" y2="92.388"/><linearGradient id="q" gradientUnits="userSpaceOnUse" x1="9.2408" x2="9.2408" xlink:href="#d" y1="102.84" y2="114.99"/><linearGradient id="r" gradientUnits="userSpaceOnUse" x1="9.2408" x2="9.2408" xlink:href="#d" y1="125.44" y2="137.59"/><linearGradient id="s" gradientUnits="userSpaceOnUse" x1="9.2408" x2="9.2408" y1="148.04" y2="160.19"><stop offset="0" stop-color="#e0e0e0"/><stop offset="1" stop-color="#e0e0e0"/></linearGradient><linearGradient id="t" gradientTransform="matrix(.98481 0 0 1.0154 9.8158 174.54)" gradientUnits="userSpaceOnUse" x1="-.41286" x2="-.41286" xlink:href="#e" y1="-.80082" y2="12.483"/><linearGradient id="u" gradientTransform="matrix(.98481 0 0 1.0154 9.8158 197.14)" gradientUnits="userSpaceOnUse" x1="-.41286" x2="-.41286" xlink:href="#e" y1="-.80082" y2="12.483"/><linearGradient id="v" gradientTransform="matrix(.98481 0 0 1.0154 9.8158 219.74)" gradientUnits="userSpaceOnUse" x1="-.41286" x2="-.41286" xlink:href="#e" y1="-.80082" y2="12.483"/><linearGradient id="w" gradientTransform="matrix(3.2631 0 0 .30645 1.8158 239.39)" gradientUnits="userSpaceOnUse" x1="-.15323" x2="-.15323" xlink:href="#b" y1="-1.6316" y2="66.646"/><linearGradient id="x" gradientTransform="matrix(1.1144 0 0 .89736 126.21 244.36)" gradientUnits="userSpaceOnUse" x1="-.61828" x2="-.61828" xlink:href="#f" y1="-.76781" y2="10.102"/><linearGradient id="y" gradientTransform="matrix(1.0891 0 0 .9182 104.69 244.36)" gradientUnits="userSpaceOnUse" x1="-.38932" x2="-.38932" xlink:href="#f" y1="-.75038" y2="10.128"/><linearGradient id="z" gradientTransform="matrix(.98191 0 0 1.0184 82.83 244.42)" gradientUnits="userSpaceOnUse" x1="-.36007" x2="-.36007" xlink:href="#f" y1="-.69431" y2="8.988"/><linearGradient id="A" gradientTransform="matrix(2.8729 0 0 .34808 1.8158 1.988)" gradientUnits="userSpaceOnUse" x1="-.18855" x2="-.18855" xlink:href="#g" y1="-1.4364" y2="76.131"/><linearGradient id="B" gradientTransform="matrix(.95815 0 0 1.0437 389.82 89.988)" gradientUnits="userSpaceOnUse" x2="0" xlink:href="#a" y2="182.55"/><linearGradient id="C" gradientTransform="matrix(1.55 0 0 .64515 381.82 107.99)" gradientUnits="userSpaceOnUse" x1="-.32257" x2="-.32257" xlink:href="#b" y1="-.77502" y2="112.07"/><linearGradient id="D" gradientTransform="matrix(1.55 0 0 .64515 381.82 179.79)" gradientUnits="userSpaceOnUse" x1="-.32257" x2="-.32257" xlink:href="#b" y1="-.77502" y2="112.07"/><linearGradient id="E" gradientTransform="matrix(.99738 0 0 1.0026 389.82 115.03)" gradientUnits="userSpaceOnUse" x1="-.57651" x2="-.57651" xlink:href="#c" y1="-.81104" y2="12.474"/><linearGradient id="F" gradientUnits="userSpaceOnUse" x1="389.24" x2="389.24" xlink:href="#d" y1="137.64" y2="149.79"/><linearGradient id="G" gradientUnits="userSpaceOnUse" x1="389.24" x2="389.24" y1="159.69" y2="172.94"><stop offset="0" stop-color="#ff8769"/><stop offset="1" stop-color="#ff8769"/></linearGradient><linearGradient id="H" gradientTransform="matrix(.98481 0 0 1.0154 389.82 186.74)" gradientUnits="userSpaceOnUse" x1="-.41286" x2="-.41286" xlink:href="#e" y1="-.80082" y2="12.483"/><linearGradient id="I" gradientTransform="matrix(.98481 0 0 1.0154 389.82 209.34)" gradientUnits="userSpaceOnUse" x1="-.41286" x2="-.41286" xlink:href="#e" y1="-.80082" y2="12.483"/><linearGradient id="J" gradientTransform="matrix(.98481 0 0 1.0154 389.82 231.94)" gradientUnits="userSpaceOnUse" x1="-.41286" x2="-.41286" xlink:href="#e" y1="-.80082" y2="12.483"/><linearGradient id="K" gradientTransform="matrix(2.8912 0 0 .34587 381.82 251.59)" gradientUnits="userSpaceOnUse" x1="-.17294" x2="-.17294" xlink:href="#b" y1="-1.4456" y2="59.051"/><linearGradient id="L" gradientTransform="matrix(1.1144 0 0 .89736 482.27 256.56)" gradientUnits="userSpaceOnUse" x1="-.61828" x2="-.61828" xlink:href="#f" y1="-.76781" y2="10.102"/><linearGradient id="M" gradientTransform="matrix(1.0891 0 0 .9182 460.75 256.56)" gradientUnits="userSpaceOnUse" x1="-.38932" x2="-.38932" xlink:href="#f" y1="-.75038" y2="10.128"/><linearGradient id="N" gradientTransform="matrix(.98191 0 0 1.0184 438.88 256.62)" gradientUnits="userSpaceOnUse" x1="-.36007" x2="-.36007" xlink:href="#f" y1="-.69431" y2="8.988"/><linearGradient id="O" gradientTransform="matrix(2.5455 0 0 .39285 381.82 81.988)" gradientUnits="userSpaceOnUse" x1="-.2128" x2="-.2128" xlink:href="#g" y1="-1.2728" y2="67.456"/><g stroke="#606060" stroke-linecap="square" stroke-linejoin="bevel" stroke-width="1.5"><g fill="none"><path d="m381.82 165.93h-33"/><path d="m348.82 165.93c-51.1 0-51.1-20.354-102.2-20.354"/><path d="m246.62 145.57h-22"/><g transform="matrix(-1 0 0 -1 381.82 165.93)"><path d="m18 0-18-11"/><path d="m18 0-18 11"/></g></g><circle cx="-353.74" cy="-165.78" fill="url(#h)" fill-rule="evenodd" r="9.075" stroke-dasharray="6 3" transform="scale(-1)"/><g fill="none"><path d="m0-8.8v17.6" transform="matrix(-1 0 0 -1 234.62 145.57)"/><path d="m0-8.8v17.6" transform="matrix(-1 0 0 -1 242.62 145.57)"/></g></g><g fill-rule="evenodd"><path d="m246.01 181.64h120v29h-120z" fill="url(#i)"/><path d="m238.01 173.64h120v29h-120z" fill="url(#j)" stroke="#a4b09b" stroke-linecap="square" stroke-linejoin="bevel"/><text style="font-family:Noto Sans;font-size:13.2;font-style:italic;font-weight:400;stroke-linecap:square;stroke-linejoin:bevel" x="245.01184" y="193.3316">rel_mobile_student</text><path d="m9.8158 21.988c0-6.6274 5.3726-12 12-12h198.8c6.628 0 12 5.3726 12 12v234.32c0 6.627-5.372 12-12 12h-198.8c-6.6274 0-12-5.373-12-12z" fill="url(#k)"/><g stroke-linecap="square" stroke-linejoin="bevel"><path d="m1.8158 27.988h221.8v139.6h-221.8z" fill="url(#l)" stroke="#d7d7d7"/><path d="m1.8158 167.59h221.8v71.8h-221.8z" fill="url(#m)" stroke="#d7d7d7"/><path d="m12.505 35.028-2.6889 2.6889v6.7222l2.6889 2.6889 1.3444-1.3444v-2.6889h1.3444l1.3444 1.3444 2.6889-2.6889 2.6889 2.6889v-5.3778h-8.0667v-2.6889z" fill="url(#n)" stroke="#897416" stroke-width="1.15"/><text fill="#2b7dba" font-family="Noto Sans" font-size="14.667" font-style="italic" font-weight="700" x="27.065838" y="46.819298">student_id</text><circle cx="15.316" cy="63.713" fill="url(#o)" r="5.5" stroke="#5a9ee4" stroke-width="1.15"/><text font-family="Noto Sans" font-size="14.667" font-style="italic" font-weight="400" x="25.965839" y="69.419296">national_id</text><circle cx="15.316" cy="86.313" fill="url(#p)" r="5.5" stroke="#5a9ee4" stroke-width="1.15"/><text font-family="Noto Sans" font-size="14.667" font-style="italic" font-weight="400" x="25.965839" y="92.019302">address</text><circle cx="15.316" cy="108.91" fill="url(#q)" r="5.5" stroke="#5a9ee4" stroke-width="1.15"/><text font-family="Noto Sans" font-size="14.667" font-style="italic" font-weight="400" x="25.965839" y="114.6193">date_of_birth</text><circle cx="15.316" cy="131.51" fill="url(#r)" r="5.5" stroke="#5a9ee4" stroke-width="1.15"/><text font-family="Noto Sans" font-size="14.667" font-style="italic" font-weight="400" x="25.965839" y="137.2193">full_name</text><circle cx="15.316" cy="154.11" fill="url(#s)" r="5.5" stroke="#808080" stroke-width="1.15"/><text font-family="'Noto Sans'" font-size="14.667" font-weight="400" x="25.965839" y="159.81931">salutation</text><path d="m16.538 174.54-6.7222 6.7222 5.3778 5.3778h6.7222v-6.7222z" fill="url(#t)" stroke="#4c4c98" stroke-width="1.15"/><text fill="#082061" font-family="Noto Sans" font-size="14.667" font-style="italic" font-weight="400" x="26.897438" y="186.41931">student_student_id_pk</text><path d="m16.538 197.14-6.7222 6.7222 5.3778 5.3778h6.7222v-6.7222z" fill="url(#u)" stroke="#4c4c98" stroke-width="1.15"/><text fill="#082061" font-family="Noto Sans" font-size="14.667" font-style="italic" font-weight="400" x="26.897438" y="209.0193">student_national_id_check</text><path d="m16.538 219.74-6.7222 6.7222 5.3778 5.3778h6.7222v-6.7222z" fill="url(#v)" stroke="#4c4c98" stroke-width="1.15"/><text fill="#082061" font-family="Noto Sans" font-size="14.667" font-style="italic" font-weight="400" x="26.897438" y="231.61931">student_date_of_birth_check</text><path d="m1.8158 239.39h221.8v7.924l-.182 2.0838-.541 2.0204-.884 1.8958-1.2 1.7135-1.479 1.479-1.714 1.1998-1.895.884-2.021.5414-2.084.1823h-197.8l-2.0838-.1823-2.0205-.5414-1.8958-.884-1.7134-1.1998-1.4791-1.479-1.1998-1.7135-.88401-1.8958-.54138-2.0204-.18231-2.0838v-7.924" fill="url(#w)" stroke="#d7d7d7"/><g stroke="#bebebe"><path d="m126.21 244.36h11l-5.5 8.8z" fill="url(#x)" opacity=".4"/><path d="m110.19 244.36-5.5 8.8h11z" fill="url(#y)"/><path d="m87.23 244.42 4.4 4.4-4.4 4.4-4.4-4.4z" fill="url(#z)"/></g><path d="m1.8158 13.988.18231-2.0838.54138-2.0205.88401-1.8958 1.1998-1.7134 1.4791-1.4791 1.7134-1.1998 1.8958-.88401 2.0205-.54138 2.0838-.18231h197.8l2.084.18231 2.021.54138 1.895.88401 1.714 1.1998 1.479 1.4791 1.2 1.7134.884 1.8958.541 2.0205.182 2.0838v14h-221.8z" fill="url(#A)" stroke="#3175b0"/><g font-family="Noto Sans" font-size="14.667"><text font-style="italic" font-weight="400" x="61.800243" y="19.321301">public.</text><text fill="#fff" font-weight="700" x="106.14384" y="19.321301">student</text></g></g><path d="m389.82 101.99c0-6.6274 5.3726-12 12-12h150.91c6.627 0 12 5.3726 12 12v166.52c0 6.627-5.373 12-12 12h-150.91c-6.6274 0-12-5.373-12-12z" fill="url(#B)"/><g stroke-linecap="square" stroke-linejoin="bevel"><path d="m381.82 107.99h173.91v71.8h-173.91z" fill="url(#C)" stroke="#d7d7d7"/><path d="m381.82 179.79h173.91v71.8h-173.91z" fill="url(#D)" stroke="#d7d7d7"/><path d="m392.5 115.03-2.6889 2.6889v6.7222l2.6889 2.6889 1.3444-1.3444v-2.6889h1.3444l1.3444 1.3444 2.6889-2.6889 2.6889 2.6889v-5.3778h-8.0667v-2.6889z" fill="url(#E)" stroke="#897416" stroke-width="1.15"/><text fill="#2b7dba" font-family="Noto Sans" font-size="14.667" font-style="italic" font-weight="700" x="407.06583" y="126.8193">id</text><circle cx="395.32" cy="143.71" fill="url(#F)" r="5.5" stroke="#5a9ee4" stroke-width="1.15"/><text font-family="Noto Sans" font-size="14.667" font-style="italic" font-weight="400" x="405.96582" y="149.41931">phone</text><path d="m389.82 164.3v4.0333h5.3778v4.0333h1.3444l5.3778-5.3778v-1.3444l-5.3778-5.3778h-1.3444v4.0333z" fill="url(#G)" stroke="#8f341b" stroke-width="1.15"/><text font-family="Noto Sans" font-size="14.667" font-style="italic" font-weight="400" x="407.06583" y="172.0193">student</text><path d="m396.54 186.74-6.7222 6.7222 5.3778 5.3778h6.7222v-6.7222z" fill="url(#H)" stroke="#4c4c98" stroke-width="1.15"/><text fill="#082061" font-family="Noto Sans" font-size="14.667" font-style="italic" font-weight="400" x="406.89783" y="198.61931">mobile_id_pk</text><path d="m396.54 209.34-6.7222 6.7222 5.3778 5.3778h6.7222v-6.7222z" fill="url(#I)" stroke="#4c4c98" stroke-width="1.15"/><text fill="#082061" font-family="Noto Sans" font-size="14.667" font-style="italic" font-weight="400" x="406.89783" y="221.2193">mobile_phone_check</text><path d="m396.54 231.94-6.7222 6.7222 5.3778 5.3778h6.7222v-6.7222z" fill="url(#J)" stroke="#4c4c98" stroke-width="1.15"/><text fill="#082061" font-family="Noto Sans" font-size="14.667" font-style="italic" font-weight="400" x="406.89783" y="243.81931">mobile_student_id_fk</text><path d="m381.81584 251.588h173.91v7.924l-.183 2.0838-.541 2.0204-.884 1.8958-1.2 1.7135-1.479 1.479-1.713 1.1998-1.896.884-2.021.5414-2.083.1823h-149.91l-2.08378-.1823-2.02046-.5414-1.89576-.884-1.71345-1.1998-1.47908-1.479-1.19977-1.7135-.88401-1.8958-.54138-2.0204-.18231-2.0838z" fill="url(#K)" stroke="#d7d7d7"/><g stroke="#bebebe"><path d="m482.27 256.56h11l-5.5 8.8z" fill="url(#L)" opacity=".4"/><path d="m466.25 256.56-5.5 8.8h11z" fill="url(#M)"/><path d="m443.28 256.62 4.4 4.4-4.4 4.4-4.4-4.4z" fill="url(#N)"/></g><path d="m381.82 93.988.18231-2.0838.54138-2.0205.88401-1.8958 1.1998-1.7134 1.4791-1.4791 1.7134-1.1998 1.8958-.88401 2.0205-.54138 2.0838-.18231h149.91l2.083.18231 2.021.54138 1.896.88401 1.713 1.1998 1.479 1.4791 1.2 1.7134.884 1.8958.541 2.0205.183 2.0838v14h-173.91z" fill="url(#O)" stroke="#3175b0"/><g font-family="Noto Sans" font-size="14.667"><text font-style="italic" font-weight="400" x="421.36273" y="99.321297">public.</text><text fill="#fff" font-weight="700" x="465.70642" y="99.321297">mobile</text></g></g></g></svg>