<svg height="269pt" viewBox="0 0 846 269" width="846pt" xmlns="http://www.w3.org/2000/svg" xmlns:xlink="http://www.w3.org/1999/xlink"><linearGradient id="a" x2="0" y2="1"><stop offset="0" stop-color="#a9a9a9" stop-opacity=".19608"/><stop offset="1" stop-color="#a9a9a9" stop-opacity=".19608"/></linearGradient><linearGradient id="b" x2="0" y2="1"><stop offset="0" stop-color="#fcfcfc"/><stop offset="1" stop-color="#fcfcfc"/></linearGradient><linearGradient id="c" x2="0" y2="1"><stop offset="0" stop-color="#ffff80"/><stop offset="1" stop-color="#ffff80"/></linearGradient><linearGradient id="d" x2="0" y2="1"><stop offset="0" stop-color="#d2e9ff"/><stop offset="1" stop-color="#d2e9ff"/></linearGradient><linearGradient id="e" x2="0" y2="1"><stop offset="0" stop-color="#c5cbff"/><stop offset="1" stop-color="#c5cbff"/></linearGradient><linearGradient id="f" x2="0" y2="1"><stop offset="0" stop-color="#f3f3f3"/><stop offset="1" stop-color="#e1e1e1"/></linearGradient><linearGradient id="g" x2="0" y2="1"><stop offset="0" stop-color="#4aa5ff"/><stop offset="1" stop-color="#4aa5ff"/></linearGradient><linearGradient id="h" gradientTransform="matrix(.99946 0 0 1.0005 -522.93 -158.33)" gradientUnits="userSpaceOnUse" x1="-.75034" x2="-.75034" y1="-.78024" y2="18.89"><stop offset="0" stop-color="#dcdcdc"/><stop offset="1" stop-color="#dcdcdc"/></linearGradient><linearGradient id="i" gradientTransform="matrix(2.0342 0 0 .4916 386.01 170.3)" gradientUnits="userSpaceOnUse" x2="0" xlink:href="#a" y2="58.992"/><linearGradient id="j" gradientTransform="matrix(2.0083 0 0 .49793 378.01 162.3)" gradientUnits="userSpaceOnUse" x1="-.24896" x2="-.24896" y1="-1.0042" y2="59.245"><stop offset="0" stop-color="#eeffe0"/><stop offset="1" stop-color="#eeffe0"/></linearGradient><linearGradient id="k" gradientTransform="matrix(1.1516 0 0 .86837 9.9273 9.588)" gradientUnits="userSpaceOnUse" x2="0" xlink:href="#a" y2="297.48"/><linearGradient id="l" gradientTransform="matrix(1.5609 0 0 .64064 1.9273 27.588)" gradientUnits="userSpaceOnUse" x1="-.32032" x2="-.32032" xlink:href="#b" y1="-.78047" y2="218.69"/><linearGradient id="m" gradientTransform="matrix(2.1693 0 0 .46098 1.9273 167.19)" gradientUnits="userSpaceOnUse" x1="-.23049" x2="-.23049" xlink:href="#b" y1="-1.0846" y2="156.84"/><linearGradient id="n" gradientTransform="matrix(.99738 0 0 1.0026 9.9273 34.628)" gradientUnits="userSpaceOnUse" x1="-.57651" x2="-.57651" xlink:href="#c" y1="-.81104" y2="12.474"/><linearGradient id="o" gradientUnits="userSpaceOnUse" x1="9.3523" x2="9.3523" xlink:href="#d" y1="57.238" y2="69.388"/><linearGradient id="p" gradientUnits="userSpaceOnUse" x1="9.3523" x2="9.3523" xlink:href="#d" y1="79.838" y2="91.988"/><linearGradient id="q" gradientUnits="userSpaceOnUse" x1="9.3523" x2="9.3523" xlink:href="#d" y1="102.44" y2="114.59"/><linearGradient id="r" gradientUnits="userSpaceOnUse" x1="9.3523" x2="9.3523" xlink:href="#d" y1="125.04" y2="137.19"/><linearGradient id="s" gradientUnits="userSpaceOnUse" x1="9.3523" x2="9.3523" y1="147.64" y2="159.79"><stop offset="0" stop-color="#e0e0e0"/><stop offset="1" stop-color="#e0e0e0"/></linearGradient><linearGradient id="t" gradientTransform="matrix(.98481 0 0 1.0154 9.9273 174.14)" gradientUnits="userSpaceOnUse" x1="-.41286" x2="-.41286" xlink:href="#e" y1="-.80082" y2="12.483"/><linearGradient id="u" gradientTransform="matrix(.98481 0 0 1.0154 9.9273 196.74)" gradientUnits="userSpaceOnUse" x1="-.41286" x2="-.41286" xlink:href="#e" y1="-.80082" y2="12.483"/><linearGradient id="v" gradientTransform="matrix(.98481 0 0 1.0154 9.9273 219.34)" gradientUnits="userSpaceOnUse" x1="-.41286" x2="-.41286" xlink:href="#e" y1="-.80082" y2="12.483"/><linearGradient id="w" gradientTransform="matrix(4.0463 0 0 .24714 1.9273 238.99)" gradientUnits="userSpaceOnUse" x1="-.12357" x2="-.12357" xlink:href="#b" y1="-2.0231" y2="82.641"/><linearGradient id="x" gradientTransform="matrix(1.1144 0 0 .89736 186.22 243.96)" gradientUnits="userSpaceOnUse" x1="-.61828" x2="-.61828" xlink:href="#f" y1="-.76781" y2="10.102"/><linearGradient id="y" gradientTransform="matrix(1.0891 0 0 .9182 164.69 243.96)" gradientUnits="userSpaceOnUse" x1="-.38932" x2="-.38932" xlink:href="#f" y1="-.75038" y2="10.128"/><linearGradient id="z" gradientTransform="matrix(.98191 0 0 1.0184 142.83 244.02)" gradientUnits="userSpaceOnUse" x1="-.36007" x2="-.36007" xlink:href="#f" y1="-.69431" y2="8.988"/><linearGradient id="A" gradientTransform="matrix(3.5622 0 0 .28072 1.9273 1.588)" gradientUnits="userSpaceOnUse" x1="-.15206" x2="-.15206" xlink:href="#g" y1="-1.7811" y2="94.4"/><linearGradient id="B" gradientTransform="matrix(1.2437 0 0 .80407 549.93 69.588)" gradientUnits="userSpaceOnUse" x2="0" xlink:href="#a" y2="236.95"/><linearGradient id="C" gradientTransform="matrix(2.0119 0 0 .49703 541.93 87.588)" gradientUnits="userSpaceOnUse" x1="-.24852" x2="-.24852" xlink:href="#b" y1="-1.006" y2="145.46"/><linearGradient id="D" gradientTransform="matrix(2.0119 0 0 .49703 541.93 159.39)" gradientUnits="userSpaceOnUse" x1="-.24852" x2="-.24852" xlink:href="#b" y1="-1.006" y2="145.46"/><linearGradient id="E" gradientTransform="matrix(.99738 0 0 1.0026 549.93 94.628)" gradientUnits="userSpaceOnUse" x1="-.57651" x2="-.57651" xlink:href="#c" y1="-.81104" y2="12.474"/><linearGradient id="F" gradientUnits="userSpaceOnUse" x1="549.35" x2="549.35" xlink:href="#d" y1="117.24" y2="129.39"/><linearGradient id="G" gradientUnits="userSpaceOnUse" x1="549.35" x2="549.35" y1="139.29" y2="152.54"><stop offset="0" stop-color="#ff8769"/><stop offset="1" stop-color="#ff8769"/></linearGradient><linearGradient id="H" gradientTransform="matrix(.98481 0 0 1.0154 549.93 166.34)" gradientUnits="userSpaceOnUse" x1="-.41286" x2="-.41286" xlink:href="#e" y1="-.80082" y2="12.483"/><linearGradient id="I" gradientTransform="matrix(.98481 0 0 1.0154 549.93 188.94)" gradientUnits="userSpaceOnUse" x1="-.41286" x2="-.41286" xlink:href="#e" y1="-.80082" y2="12.483"/><linearGradient id="J" gradientTransform="matrix(.98481 0 0 1.0154 549.93 211.54)" gradientUnits="userSpaceOnUse" x1="-.41286" x2="-.41286" xlink:href="#e" y1="-.80082" y2="12.483"/><linearGradient id="K" gradientTransform="matrix(3.7528 0 0 .26647 541.93 231.19)" gradientUnits="userSpaceOnUse" x1="-.13323" x2="-.13323" xlink:href="#b" y1="-1.8764" y2="76.648"/><linearGradient id="L" gradientTransform="matrix(1.1144 0 0 .89736 702.27 236.16)" gradientUnits="userSpaceOnUse" x1="-.61828" x2="-.61828" xlink:href="#f" y1="-.76781" y2="10.102"/><linearGradient id="M" gradientTransform="matrix(1.0891 0 0 .9182 680.75 236.16)" gradientUnits="userSpaceOnUse" x1="-.38932" x2="-.38932" xlink:href="#f" y1="-.75038" y2="10.128"/><linearGradient id="N" gradientTransform="matrix(.98191 0 0 1.0184 658.89 236.22)" gradientUnits="userSpaceOnUse" x1="-.36007" x2="-.36007" xlink:href="#f" y1="-.69431" y2="8.988"/><linearGradient id="O" gradientTransform="matrix(3.3039 0 0 .30267 541.93 61.588)" gradientUnits="userSpaceOnUse" x1="-.16395" x2="-.16395" xlink:href="#g" y1="-1.652" y2="87.554"/><g stroke="#606060" stroke-linecap="square" stroke-linejoin="bevel" stroke-width="1.5"><g fill="none"><path d="m541.93 149.4h-33"/><path d="m508.93 149.4c-71.211 0-71.211-9.985-142.42-9.985"/><path d="m366.51 139.41h-22"/><g transform="matrix(-1 0 0 -1 541.93 149.4)"><path d="m18 0-18-11"/><path d="m18 0-18 11"/></g></g><circle cx="-513.85" cy="-149.26" fill="url(#h)" fill-rule="evenodd" r="9.075" stroke-dasharray="6 3" transform="scale(-1)"/><g fill="none"><path d="m0-8.8v17.6" transform="matrix(-1 0 0 -1 354.51 139.41)"/><path d="m0-8.8v17.6" transform="matrix(-1 0 0 -1 362.51 139.41)"/></g></g><g fill-rule="evenodd"><path d="m386.01 170.3h120v29h-120z" fill="url(#i)"/><path d="m378.01 162.3h120v29h-120z" fill="url(#j)" stroke="#a4b09b" stroke-linecap="square" stroke-linejoin="bevel"/><text style="font-family:Noto Sans;font-size:13.2;font-style:italic;font-weight:400;stroke-linecap:square;stroke-linejoin:bevel" x="385.01135" y="181.98759">rel_mobile_student</text><path d="m9.9273 21.588c0-6.6274 5.3726-12 12-12h318.58c6.627 0 12 5.3726 12 12v234.32c0 6.627-5.373 12-12 12h-318.58c-6.6274 0-12-5.373-12-12z" fill="url(#k)"/><g stroke-linecap="square" stroke-linejoin="bevel"><path d="m1.9273 27.588h341.58v139.6h-341.58z" fill="url(#l)" stroke="#d7d7d7"/><path d="m1.9273 167.19h341.58v71.8h-341.58z" fill="url(#m)" stroke="#d7d7d7"/><path d="m12.616 34.628-2.6889 2.6889v6.7222l2.6889 2.6889 1.3444-1.3444v-2.6889h1.3444l1.3444 1.3444 2.6889-2.6889 2.6889 2.6889v-5.3778h-8.0667v-2.6889z" fill="url(#n)" stroke="#897416" stroke-width="1.15"/><g font-family="Noto Sans" font-size="14.667" font-style="italic"><text fill="#2b7dba" font-weight="700" x="27.177338" y="46.4193">student_id</text><text fill="#4964a6" font-weight="700" x="112.90534" xml:space="preserve" y="46.4193"> character(11)</text><text fill="#25682d" font-weight="400" x="302.34833" y="46.4193">« pk »</text></g><circle cx="15.427" cy="63.313" fill="url(#o)" r="5.5" stroke="#5a9ee4" stroke-width="1.15"/><g font-family="Noto Sans" font-size="14.667" font-style="italic"><text font-weight="400" x="26.077337" y="69.019302">national_id</text><text fill="#4964a6" font-weight="700" x="112.90534" xml:space="preserve" y="69.019302"> character(18)</text><text fill="#25682d" font-weight="400" x="301.09833" y="69.019302">« nn »</text></g><circle cx="15.427" cy="85.913" fill="url(#p)" r="5.5" stroke="#5a9ee4" stroke-width="1.15"/><g font-family="Noto Sans" font-size="14.667" font-style="italic"><text font-weight="400" x="26.077337" y="91.619301">address</text><text fill="#4964a6" font-weight="700" x="112.90534" xml:space="preserve" y="91.619301"> varchar(255)</text><text fill="#25682d" font-weight="400" x="301.09833" y="91.619301">« nn »</text></g><circle cx="15.427" cy="108.51" fill="url(#q)" r="5.5" stroke="#5a9ee4" stroke-width="1.15"/><g font-family="Noto Sans" font-size="14.667" font-style="italic"><text font-weight="400" x="26.077337" y="114.2193">date_of_birth</text><text fill="#4964a6" font-weight="700" x="112.90534" xml:space="preserve" y="114.2193"> date</text><text fill="#25682d" font-weight="400" x="301.09833" y="114.2193">« nn »</text></g><circle cx="15.427" cy="131.11" fill="url(#r)" r="5.5" stroke="#5a9ee4" stroke-width="1.15"/><g font-family="Noto Sans" font-size="14.667" font-style="italic"><text font-weight="400" x="26.077337" y="136.81931">full_name</text><text fill="#4964a6" font-weight="700" x="112.90534" xml:space="preserve" y="136.81931"> varchar(255)</text><text fill="#25682d" font-weight="400" x="301.09833" y="136.81931">« nn »</text></g><circle cx="15.427" cy="153.71" fill="url(#s)" r="5.5" stroke="#808080" stroke-width="1.15"/><text font-family="'Noto Sans'" font-size="14.667" font-weight="400" x="26.077337" y="159.4193">salutation</text><text fill="#4964a6" font-family="Noto Sans" font-size="14.667" font-style="italic" font-weight="700" x="112.90534" xml:space="preserve" y="159.4193"> varchar(255)</text><text fill="#25682d" x="336.61435" y="159.4193"/><path d="m16.65 174.14-6.7222 6.7222 5.3778 5.3778h6.7222v-6.7222z" fill="url(#t)" stroke="#4c4c98" stroke-width="1.15"/><g font-family="Noto Sans" font-size="14.667" font-style="italic"><text fill="#082061" font-weight="400" x="27.008938" y="186.0193">student_student_id_pk</text><text fill="#4964a6" font-weight="700" x="213.72734" xml:space="preserve" y="186.0193"> constraint</text><text fill="#25682d" font-weight="400" x="302.34833" y="186.0193">« pk »</text></g><path d="m16.65 196.74-6.7222 6.7222 5.3778 5.3778h6.7222v-6.7222z" fill="url(#u)" stroke="#4c4c98" stroke-width="1.15"/><g font-family="Noto Sans" font-size="14.667" font-style="italic"><text fill="#082061" font-weight="400" x="27.008938" y="208.61929">student_national_id_check</text><text fill="#4964a6" font-weight="700" x="213.72734" xml:space="preserve" y="208.61929"> constraint</text><text fill="#25682d" font-weight="400" x="304.23935" y="208.61929">« ck »</text></g><path d="m16.65 219.34-6.7222 6.7222 5.3778 5.3778h6.7222v-6.7222z" fill="url(#v)" stroke="#4c4c98" stroke-width="1.15"/><g font-family="Noto Sans" font-size="14.667" font-style="italic"><text fill="#082061" font-weight="400" x="27.008938" y="231.2193">student_date_of_birth_check</text><text fill="#4964a6" font-weight="700" x="213.72734" xml:space="preserve" y="231.2193"> constraint</text><text fill="#25682d" font-weight="400" x="304.23935" y="231.2193">« ck »</text></g><path d="m1.9273 238.99h341.58v7.924l-.183 2.0838-.541 2.0204-.884 1.8958-1.2 1.7135-1.479 1.479-1.713 1.1998-1.896.884-2.021.5414-2.083.1823h-317.58l-2.0838-.1823-2.0205-.5414-1.8958-.884-1.7134-1.1998-1.4791-1.479-1.1998-1.7135-.88401-1.8958-.54138-2.0204-.18231-2.0838z" fill="url(#w)" stroke="#d7d7d7"/><g stroke="#bebebe"><path d="m186.22 243.96h11l-5.5 8.8z" fill="url(#x)" opacity=".4"/><path d="m170.19 243.96-5.5 8.8h11z" fill="url(#y)"/><path d="m147.23 244.02 4.4 4.4-4.4 4.4-4.4-4.4z" fill="url(#z)"/></g><path d="m1.9273 13.588.18231-2.0838.54138-2.0205.88401-1.8958 1.1998-1.7134 1.4791-1.4791 1.7134-1.1998 1.8958-.88401 2.0205-.54138 2.0838-.18231h317.58l2.083.18231 2.021.54138 1.896.88401 1.713 1.1998 1.479 1.4791 1.2 1.7134.884 1.8958.541 2.0205.183 2.0838v14h-341.58z" fill="url(#A)" stroke="#3175b0"/><g font-family="Noto Sans" font-size="14.667"><text font-style="italic" font-weight="400" x="121.78634" y="18.921299">public.</text><text fill="#fff" font-weight="700" x="166.13034" y="18.921299">student</text></g></g><path d="m549.93 81.588c0-6.6274 5.3726-12 12-12h270.69c6.627 0 12 5.3726 12 12v166.52c0 6.627-5.373 12-12 12h-270.69c-6.6274 0-12-5.373-12-12z" fill="url(#B)"/><g stroke-linecap="square" stroke-linejoin="bevel"><path d="m541.93 87.588h293.69v71.8h-293.69z" fill="url(#C)" stroke="#d7d7d7"/><path d="m541.93 159.39h293.69v71.8h-293.69z" fill="url(#D)" stroke="#d7d7d7"/><path d="m552.62 94.628-2.6889 2.6889v6.7222l2.6889 2.6889 1.3444-1.3444v-2.6889h1.3444l1.3444 1.3444 2.6889-2.6889 2.6889 2.6889v-5.3778h-8.0667v-2.6889z" fill="url(#E)" stroke="#897416" stroke-width="1.15"/><g font-family="Noto Sans" font-size="14.667" font-style="italic"><text fill="#2b7dba" font-weight="700" x="567.17737" y="106.4193">id</text><text fill="#4964a6" font-weight="700" x="618.08331" xml:space="preserve" y="106.4193"> integer</text><text fill="#25682d" font-weight="400" x="794.45831" y="106.4193">« pk »</text></g><circle cx="555.43" cy="123.31" fill="url(#F)" r="5.5" stroke="#5a9ee4" stroke-width="1.15"/><g font-family="Noto Sans" font-size="14.667" font-style="italic"><text font-weight="400" x="566.07733" y="129.0193">phone</text><text fill="#4964a6" font-weight="700" x="618.08331" xml:space="preserve" y="129.0193"> character(11)</text><text fill="#25682d" font-weight="400" x="793.20831" y="129.0193">« nn »</text></g><path d="m549.93 143.9v4.0333h5.3778v4.0333h1.3444l5.3778-5.3778v-1.3444l-5.3778-5.3778h-1.3444v4.0333z" fill="url(#G)" stroke="#8f341b" stroke-width="1.15"/><g font-family="Noto Sans" font-size="14.667" font-style="italic"><text font-weight="400" x="567.17737" y="151.61929">student</text><text fill="#4964a6" font-weight="700" x="618.08331" xml:space="preserve" y="151.61929"> character(11)</text><text fill="#25682d" font-weight="400" x="777.13031" y="151.61929">« fk nn »</text></g><path d="m556.65 166.34-6.7222 6.7222 5.3778 5.3778h6.7222v-6.7222z" fill="url(#H)" stroke="#4c4c98" stroke-width="1.15"/><g font-family="Noto Sans" font-size="14.667" font-style="italic"><text fill="#082061" font-weight="400" x="567.00934" y="178.2193">mobile_id_pk</text><text fill="#4964a6" font-weight="700" x="705.83734" xml:space="preserve" y="178.2193"> constraint</text><text fill="#25682d" font-weight="400" x="794.45831" y="178.2193">« pk »</text></g><path d="m556.65 188.94-6.7222 6.7222 5.3778 5.3778h6.7222v-6.7222z" fill="url(#I)" stroke="#4c4c98" stroke-width="1.15"/><g font-family="Noto Sans" font-size="14.667" font-style="italic"><text fill="#082061" font-weight="400" x="567.00934" y="200.81931">mobile_phone_check</text><text fill="#4964a6" font-weight="700" x="705.83734" xml:space="preserve" y="200.81931"> constraint</text><text fill="#25682d" font-weight="400" x="796.34833" y="200.81931">« ck »</text></g><path d="m556.65 211.54-6.7222 6.7222 5.3778 5.3778h6.7222v-6.7222z" fill="url(#J)" stroke="#4c4c98" stroke-width="1.15"/><g font-family="Noto Sans" font-size="14.667" font-style="italic"><text fill="#082061" font-weight="400" x="567.00934" y="223.4193">mobile_student_id_fk</text><text fill="#4964a6" font-weight="700" x="705.83734" xml:space="preserve" y="223.4193"> constraint</text><text fill="#25682d" font-weight="400" x="798.36432" y="223.4193">« fk »</text></g><path d="m541.92734 231.188h293.687v7.924l-.182 2.0838-.542 2.0204-.884 1.8958-1.199 1.7135-1.479 1.479-1.714 1.1998-1.896.884-2.02.5414-2.084.1823h-269.687l-2.08378-.1823-2.02046-.5414-1.89576-.884-1.71345-1.1998-1.47908-1.479-1.19977-1.7135-.88401-1.8958-.54138-2.0204-.18231-2.0838z" fill="url(#K)" stroke="#d7d7d7"/><g stroke="#bebebe"><path d="m702.27 236.16h11l-5.5 8.8z" fill="url(#L)" opacity=".4"/><path d="m686.25 236.16-5.5 8.8h11z" fill="url(#M)"/><path d="m663.29 236.22 4.4 4.4-4.4 4.4-4.4-4.4z" fill="url(#N)"/></g><path d="m541.93 73.588.18231-2.0838.54138-2.0205.88401-1.8958 1.1998-1.7134 1.4791-1.4791 1.7134-1.1998 1.8958-.88401 2.0205-.54138 2.0838-.18231h269.69l2.084.18231 2.02.54138 1.896.88401 1.714 1.1998 1.479 1.4791 1.199 1.7134.884 1.8958.542 2.0205.182 2.0838v14h-293.69z" fill="url(#O)" stroke="#3175b0"/><g font-family="Noto Sans" font-size="14.667"><text font-style="italic" font-weight="400" x="641.34924" y="78.921303">public.</text><text fill="#fff" font-weight="700" x="685.69336" y="78.921303">mobile</text></g></g></g></svg>