<?xml version="1.0" encoding="UTF-8"?>
<svg width="628pt" height="498pt" version="1.1" viewBox="0 0 628 498" xmlns="http://www.w3.org/2000/svg" xmlns:xlink="http://www.w3.org/1999/xlink"><defs><g id="r"><path d="m5.5781 0c-0.89844 0-1.6992-0.19141-2.4062-0.57812-0.71094-0.38281-1.2656-0.94531-1.6719-1.6875-0.40625-0.75-0.60938-1.6602-0.60938-2.7344 0-0.8125 0.125-1.5234 0.375-2.1406 0.25781-0.625 0.61328-1.1484 1.0625-1.5781 0.44531-0.42578 0.95312-0.74219 1.5156-0.95312 0.57031-0.21875 1.1758-0.32812 1.8125-0.32812 0.50781 0 0.95703 0.042969 1.3438 0.125 0.38281 0.085938 0.70312 0.18359 0.95312 0.29688 0.25781 0.10547 0.45312 0.19922 0.57812 0.28125l-0.375 0.92188c-0.24219-0.13281-0.55859-0.26562-0.95312-0.39062-0.38672-0.125-0.85156-0.1875-1.3906-0.1875-0.80469 0-1.4805 0.16797-2.0312 0.5-0.55469 0.33594-0.97656 0.79688-1.2656 1.3906-0.28125 0.58594-0.42188 1.2734-0.42188 2.0625 0 0.80469 0.13281 1.5 0.40625 2.0938 0.28125 0.58594 0.6875 1.043 1.2188 1.375 0.53125 0.32422 1.1797 0.48438 1.9531 0.48438 0.64453 0 1.1797-0.050781 1.6094-0.15625 0.4375-0.11328 0.77344-0.23438 1.0156-0.35938l0.29688 0.9375c-0.15625 0.10547-0.49609 0.23438-1.0156 0.39062-0.52344 0.15625-1.1875 0.23438-2 0.23438z"/></g><g id="h"><path d="m4.2812 0c-0.67969 0-1.2812-0.16406-1.8125-0.5-0.52344-0.33203-0.93359-0.79688-1.2344-1.3906-0.29297-0.60156-0.4375-1.3047-0.4375-2.1094 0-0.80078 0.14453-1.5 0.4375-2.0938 0.30078-0.60156 0.71094-1.0703 1.2344-1.4062 0.53125-0.33203 1.1328-0.5 1.8125-0.5 0.6875 0 1.2891 0.16797 1.8125 0.5 0.53125 0.33594 0.94531 0.80469 1.25 1.4062 0.30078 0.59375 0.45312 1.293 0.45312 2.0938 0 0.80469-0.15234 1.5078-0.45312 2.1094-0.30469 0.59375-0.71484 1.0586-1.2344 1.3906-0.52344 0.33594-1.1328 0.5-1.8281 0.5zm0-1.0156c0.48828 0 0.91016-0.11719 1.2656-0.35938 0.35156-0.25 0.625-0.59766 0.8125-1.0469 0.1875-0.44531 0.28125-0.97266 0.28125-1.5781 0-0.60156-0.09375-1.1289-0.28125-1.5781-0.1875-0.44531-0.46094-0.78906-0.8125-1.0312-0.35547-0.25-0.77734-0.375-1.2656-0.375-0.48047 0-0.89844 0.125-1.25 0.375-0.34375 0.24219-0.61719 0.58594-0.8125 1.0312-0.1875 0.44922-0.28125 0.97656-0.28125 1.5781 0 0.60547 0.09375 1.1328 0.28125 1.5781 0.19531 0.44922 0.46875 0.79688 0.8125 1.0469 0.35156 0.24219 0.76953 0.35938 1.25 0.35938z"/></g><g id="c"><path d="m1.2344 0v-7.5781c0.30078-0.070313 0.69531-0.16016 1.1875-0.26562 0.48828-0.10156 1.0781-0.15625 1.7656-0.15625 0.78906 0 1.4062 0.15234 1.8438 0.45312 0.4375 0.30469 0.74219 0.72656 0.92188 1.2656 0.1875 0.54297 0.28125 1.1719 0.28125 1.8906v4.3906h-1.0938v-4.0781c0-0.70703-0.070313-1.2734-0.20312-1.7031-0.125-0.42578-0.33984-0.73438-0.64062-0.92188-0.30469-0.19531-0.72656-0.29688-1.2656-0.29688-0.40625 0-0.76562 0.027344-1.0781 0.078125-0.3125 0.054687-0.52344 0.09375-0.625 0.125v6.7969z"/></g><g id="b"><path d="m3.7188 0c-0.64844 0-1.1562-0.11328-1.5312-0.34375-0.375-0.23828-0.64062-0.58594-0.79688-1.0469-0.14844-0.46875-0.21875-1.0469-0.21875-1.7344v-7.1406l1.1094-0.1875v2.4531h2.9688v0.95312h-2.9688v4.0156c0 0.55469 0.054688 0.97656 0.17188 1.2656 0.125 0.29297 0.30078 0.49219 0.53125 0.59375 0.22656 0.10547 0.5 0.15625 0.8125 0.15625 0.375 0 0.6875-0.039063 0.9375-0.125 0.25-0.09375 0.44531-0.17578 0.59375-0.25l0.23438 0.92188c-0.14844 0.085938-0.39062 0.18359-0.73438 0.29688-0.33594 0.11719-0.70312 0.17188-1.1094 0.17188z"/></g><g id="a"><path d="m4.5625 0c-0.88672 0-1.6094-0.17188-2.1719-0.51562-0.55469-0.35156-0.96094-0.82812-1.2188-1.4219-0.25-0.60156-0.375-1.2891-0.375-2.0625 0-0.89453 0.16016-1.6328 0.48438-2.2188 0.32031-0.59375 0.73828-1.0352 1.25-1.3281 0.50781-0.30078 1.0508-0.45312 1.625-0.45312 0.63281 0 1.1797 0.125 1.6406 0.375 0.46875 0.25 0.82812 0.63672 1.0781 1.1562 0.25781 0.52344 0.39062 1.1797 0.39062 1.9688 0 0.054688-0.00781 0.125-0.015625 0.21875 0 0.09375-0.00781 0.17188-0.015625 0.23438h-5.2969c0.039062 0.96094 0.26953 1.7031 0.6875 2.2344 0.42578 0.53125 1.0938 0.79688 2 0.79688 0.5 0 0.90625-0.046875 1.2188-0.14062 0.32031-0.10156 0.55078-0.19531 0.6875-0.28125l0.1875 0.98438c-0.13672 0.074219-0.40234 0.16797-0.79688 0.28125-0.39844 0.11719-0.85156 0.17188-1.3594 0.17188zm-2.5938-4.9531h4.1719c0-0.42578-0.085937-0.78906-0.25-1.0938-0.15625-0.3125-0.38281-0.55078-0.67188-0.71875-0.28125-0.16406-0.63281-0.25-1.0469-0.25-0.4375 0-0.82031 0.10156-1.1406 0.29688-0.32422 0.19922-0.57422 0.45312-0.75 0.76562-0.17969 0.3125-0.28125 0.64844-0.3125 1z"/></g><g id="ai"><path d="m1.125 3c-0.24219 0-0.46875-0.03125-0.6875-0.09375-0.21094-0.054688-0.35156-0.10156-0.42188-0.14062l0.21875-0.92188c0.0625 0.03125 0.17969 0.070312 0.35938 0.125 0.1875 0.0625 0.375 0.09375 0.5625 0.09375 0.36328 0 0.67188-0.0625 0.92188-0.1875 0.25781-0.11719 0.48438-0.30859 0.67188-0.57812 0.19531-0.27344 0.37891-0.63281 0.54688-1.0781-0.41797-0.83203-0.8125-1.7031-1.1875-2.6094-0.375-0.91406-0.72656-1.8477-1.0469-2.7969-0.3125-0.95703-0.57422-1.8945-0.78125-2.8125h1.1562c0.10156 0.49219 0.23438 1.0234 0.39062 1.5938 0.16406 0.5625 0.34766 1.1484 0.54688 1.75 0.20703 0.60547 0.42969 1.2188 0.67188 1.8438 0.25 0.61719 0.50781 1.2266 0.78125 1.8281 0.26953-0.82031 0.50781-1.5977 0.71875-2.3281 0.20703-0.73828 0.39844-1.4883 0.57812-2.25 0.17578-0.75781 0.35156-1.5703 0.53125-2.4375h1.1094c-0.21875 1-0.46094 1.9922-0.71875 2.9688-0.26172 0.96875-0.53906 1.9062-0.82812 2.8125-0.28125 0.89844-0.58594 1.7422-0.90625 2.5312-0.24219 0.625-0.5 1.1328-0.78125 1.5312-0.27344 0.40625-0.59375 0.69531-0.96875 0.875-0.375 0.1875-0.85547 0.28125-1.4375 0.28125z"/></g><g id="p"><path d="m1.2344 3v-10.578c0.19531-0.0625 0.42578-0.125 0.6875-0.1875 0.26953-0.0625 0.58203-0.11328 0.9375-0.15625 0.35156-0.050781 0.74219-0.078125 1.1719-0.078125 0.75781 0 1.4219 0.16406 1.9844 0.48438 0.5625 0.32422 1 0.78906 1.3125 1.3906 0.32031 0.59375 0.48438 1.3047 0.48438 2.125 0 0.78125-0.13672 1.4766-0.40625 2.0781-0.27344 0.59375-0.66406 1.0625-1.1719 1.4062-0.51172 0.34375-1.1328 0.51562-1.8594 0.51562-0.46875 0-0.88672-0.066406-1.25-0.20312-0.35547-0.13281-0.62109-0.26953-0.79688-0.40625v3.6094zm3-4.0156c0.44531 0 0.82031-0.070313 1.125-0.21875 0.3125-0.15625 0.5625-0.36719 0.75-0.64062 0.1875-0.28125 0.32031-0.59766 0.40625-0.95312 0.082031-0.36328 0.125-0.75 0.125-1.1562 0-0.63281-0.10938-1.1758-0.32812-1.625-0.21094-0.45703-0.51172-0.80078-0.90625-1.0312-0.39844-0.23828-0.85938-0.35938-1.3906-0.35938-0.42969 0-0.78125 0.023438-1.0625 0.0625-0.28125 0.042969-0.49219 0.085938-0.625 0.125v5.1719c0.16406 0.125 0.42188 0.26172 0.76562 0.40625 0.34375 0.14844 0.72266 0.21875 1.1406 0.21875z"/></g><g id="k"><path d="m4.2031 0c-0.77344 0-1.3828-0.14453-1.8281-0.4375-0.4375-0.30078-0.75781-0.72656-0.95312-1.2812-0.1875-0.55078-0.28125-1.1797-0.28125-1.8906v-4.3906h1.1094v4.0938c0 0.69922 0.066406 1.2617 0.20312 1.6875 0.13281 0.42969 0.35156 0.73438 0.65625 0.92188 0.3125 0.1875 0.72266 0.28125 1.2344 0.28125 0.40625 0 0.76562-0.019531 1.0781-0.0625 0.32031-0.050781 0.53516-0.09375 0.64062-0.125v-6.7969h1.0781v7.5781c-0.29297 0.074219-0.6875 0.16406-1.1875 0.26562-0.49219 0.10547-1.0742 0.15625-1.75 0.15625z"/></g><g id="u"><path d="m4.0312 0c-0.42969 0-0.82031-0.019531-1.1719-0.0625-0.35547-0.050781-0.66797-0.10938-0.9375-0.17188-0.26172-0.070313-0.49219-0.13281-0.6875-0.1875v-11.109l1.0938-0.1875v4.3281c0.17578-0.13281 0.44141-0.26953 0.79688-0.40625 0.36328-0.13281 0.78125-0.20312 1.25-0.20312 0.72656 0 1.3477 0.17188 1.8594 0.51562 0.50781 0.34375 0.89844 0.82031 1.1719 1.4219 0.26953 0.59375 0.40625 1.2812 0.40625 2.0625 0 0.82422-0.16406 1.5312-0.48438 2.125-0.3125 0.59375-0.75 1.0586-1.3125 1.3906-0.5625 0.32422-1.2266 0.48438-1.9844 0.48438zm-0.015625-1.0156c0.53125 0 0.99219-0.11328 1.3906-0.34375 0.39453-0.23828 0.69531-0.57812 0.90625-1.0156 0.21875-0.44531 0.32812-0.98828 0.32812-1.625 0-0.41406-0.042969-0.80078-0.125-1.1562-0.085937-0.36328-0.21875-0.67969-0.40625-0.95312-0.1875-0.28125-0.4375-0.49219-0.75-0.64062-0.30469-0.15625-0.67969-0.23438-1.125-0.23438-0.41797 0-0.79688 0.074219-1.1406 0.21875-0.34375 0.13672-0.60156 0.27344-0.76562 0.40625v5.1562c0.13281 0.042969 0.34375 0.085937 0.625 0.125 0.28125 0.042969 0.63281 0.0625 1.0625 0.0625z"/></g><g id="g"><path d="m3.2812 0c-0.46875 0-0.85938-0.066406-1.1719-0.20312-0.30469-0.14453-0.52734-0.36328-0.67188-0.65625-0.14844-0.30078-0.21875-0.70703-0.21875-1.2188v-9.5625l1.0938-0.1875v9.6719c0 0.48047 0.082031 0.79297 0.25 0.9375 0.17578 0.13672 0.47266 0.23438 0.89062 0.29688z"/></g><g id="f"><path d="m1.2344 0v-8h1.0938v8zm0.5625-10.359c-0.21875 0-0.40625-0.07031-0.5625-0.21875-0.14844-0.15625-0.21875-0.35938-0.21875-0.60938 0-0.23828 0.070313-0.42969 0.21875-0.57812 0.15625-0.15625 0.34375-0.23438 0.5625-0.23438 0.20703 0 0.38281 0.07813 0.53125 0.23438 0.15625 0.14844 0.23438 0.33984 0.23438 0.57812 0 0.25-0.078125 0.45312-0.23438 0.60938-0.14844 0.14844-0.32422 0.21875-0.53125 0.21875z"/></g><g id="e"><path d="m4.4375 0c-0.80469 0-1.4766-0.16406-2.0156-0.5-0.54297-0.33203-0.94922-0.79688-1.2188-1.3906-0.27344-0.60156-0.40625-1.3008-0.40625-2.0938 0-0.78906 0.14062-1.4844 0.42188-2.0781 0.28125-0.60156 0.6875-1.0781 1.2188-1.4219 0.53906-0.34375 1.1758-0.51562 1.9062-0.51562 0.39453 0 0.77344 0.039062 1.1406 0.10938 0.36328 0.074219 0.64844 0.16406 0.85938 0.26562l-0.28125 0.95312c-0.19922-0.082031-0.42188-0.15625-0.67188-0.21875-0.24219-0.0625-0.55859-0.09375-0.95312-0.09375-0.8125 0-1.4336 0.26562-1.8594 0.79688-0.42969 0.52344-0.64062 1.2578-0.64062 2.2031 0 0.59375 0.085938 1.1172 0.26562 1.5625 0.17578 0.4375 0.45703 0.78125 0.84375 1.0312 0.39453 0.25 0.91406 0.375 1.5625 0.375 0.375 0 0.70703-0.039063 1-0.125 0.28906-0.082031 0.50391-0.16016 0.64062-0.23438l0.21875 0.95312c-0.1875 0.09375-0.47656 0.1875-0.85938 0.28125-0.375 0.09375-0.76562 0.14062-1.1719 0.14062z"/></g><g id="as"><path d="m1.7969 0c-0.26172 0-0.46875-0.082031-0.625-0.25-0.15625-0.17578-0.23438-0.39062-0.23438-0.64062 0-0.25781 0.078125-0.47266 0.23438-0.64062 0.15625-0.16406 0.36328-0.25 0.625-0.25 0.26953 0 0.48438 0.085938 0.64062 0.25 0.15625 0.16797 0.23438 0.38281 0.23438 0.64062 0 0.25-0.078125 0.46484-0.23438 0.64062-0.15625 0.16797-0.37109 0.25-0.64062 0.25z"/></g><g id="d"><path d="m4.5469 0c-0.74219 0-1.3984-0.16016-1.9688-0.48438-0.5625-0.32031-1-0.78125-1.3125-1.375s-0.46875-1.3047-0.46875-2.1406c0-0.78125 0.12891-1.4688 0.39062-2.0625 0.26953-0.60156 0.66016-1.0781 1.1719-1.4219 0.51953-0.34375 1.1406-0.51562 1.8594-0.51562 0.47656 0 0.89453 0.070312 1.25 0.20312 0.35156 0.13672 0.61719 0.27344 0.79688 0.40625v-4.1406l1.0781-0.1875v11.297c-0.17969 0.054687-0.40625 0.11719-0.6875 0.1875-0.27344 0.0625-0.58594 0.12109-0.9375 0.17188-0.34375 0.042969-0.73438 0.0625-1.1719 0.0625zm0.015625-1.0156c0.42578 0 0.78125-0.019531 1.0625-0.0625 0.28125-0.039063 0.49219-0.082031 0.64062-0.125v-5.1562c-0.16797-0.13281-0.42188-0.26953-0.76562-0.40625-0.34375-0.14453-0.73047-0.21875-1.1562-0.21875-0.4375 0-0.8125 0.078125-1.125 0.23438-0.30469 0.14844-0.55469 0.35938-0.75 0.64062-0.1875 0.27344-0.32422 0.58984-0.40625 0.95312-0.085938 0.35547-0.125 0.74219-0.125 1.1562 0 0.63672 0.10938 1.1797 0.32812 1.625 0.21875 0.4375 0.52344 0.77734 0.92188 1.0156 0.39453 0.23047 0.85156 0.34375 1.375 0.34375z"/></g><g id="q"><path d="m1.2344 0v-7.5781c0.30078-0.070313 0.6875-0.16016 1.1562-0.26562 0.46875-0.10156 1.0508-0.15625 1.75-0.15625 0.48828 0 0.90625 0.074219 1.25 0.21875 0.34375 0.13672 0.625 0.34375 0.84375 0.625 0.09375-0.0625 0.25-0.16016 0.46875-0.29688 0.22656-0.13281 0.51562-0.25781 0.85938-0.375 0.34375-0.11328 0.73828-0.17188 1.1875-0.17188 0.78125 0 1.3672 0.15625 1.7656 0.46875 0.39453 0.30469 0.66016 0.72656 0.79688 1.2656 0.13281 0.54297 0.20312 1.168 0.20312 1.875v4.3906h-1.0938v-4.0781c0-0.65625-0.04687-1.1953-0.14062-1.625-0.08594-0.4375-0.25781-0.75781-0.51562-0.96875-0.25-0.21875-0.625-0.32812-1.125-0.32812-0.36719 0-0.68359 0.042969-0.95312 0.125-0.26172 0.085938-0.48047 0.1875-0.65625 0.3125-0.16797 0.11719-0.29297 0.19922-0.375 0.25 0.09375 0.26172 0.16016 0.55469 0.20312 0.875 0.039063 0.3125 0.0625 0.64844 0.0625 1v4.4375h-1.0938v-4.0781c0-0.65625-0.046875-1.1953-0.14062-1.625-0.085938-0.4375-0.25781-0.75781-0.51562-0.96875-0.26172-0.21875-0.65234-0.32812-1.1719-0.32812-0.28125 0-0.53906 0.015625-0.76562 0.046875-0.23047 0.023437-0.42188 0.046875-0.57812 0.078125-0.14844 0.03125-0.25781 0.058594-0.32812 0.078125v6.7969z"/></g><g id="j"><path d="m3.5312 0c-0.54297 0-1.0312-0.078125-1.4688-0.23438-0.42969-0.16406-0.76562-0.4375-1.0156-0.8125-0.24219-0.375-0.35938-0.86328-0.35938-1.4688 0-0.57031 0.13281-1.0391 0.40625-1.4062 0.28125-0.36328 0.66016-0.625 1.1406-0.78125 0.48828-0.16406 1.0352-0.25 1.6406-0.25 0.26953 0 0.55469 0.027344 0.85938 0.078125 0.30078 0.042969 0.49219 0.085938 0.57812 0.125v-0.40625c0-0.30078-0.042969-0.59375-0.125-0.875-0.085938-0.28906-0.25781-0.52344-0.51562-0.70312-0.25-0.1875-0.63672-0.28125-1.1562-0.28125-0.53125 0-0.94531 0.039063-1.2344 0.10938-0.28125 0.074219-0.49219 0.13281-0.625 0.17188l-0.14062-0.9375c0.17578-0.082031 0.44141-0.15625 0.79688-0.21875 0.36328-0.070313 0.78906-0.10938 1.2812-0.10938 0.69531 0 1.25 0.125 1.6562 0.375s0.69531 0.58984 0.875 1.0156c0.17578 0.42969 0.26562 0.91797 0.26562 1.4688v4.7969c-0.19922 0.054688-0.5625 0.125-1.0938 0.21875-0.53125 0.085938-1.1211 0.125-1.7656 0.125zm0.17188-0.96875c0.33203 0 0.63281-0.007812 0.90625-0.03125 0.28125-0.03125 0.51562-0.066406 0.70312-0.10938v-2.7031c-0.09375-0.050781-0.26172-0.10156-0.5-0.15625-0.24219-0.050781-0.54297-0.078125-0.90625-0.078125-0.3125 0-0.63281 0.039063-0.95312 0.10938-0.32422 0.0625-0.60156 0.21094-0.82812 0.4375-0.21875 0.21875-0.32812 0.54297-0.32812 0.96875 0 0.58594 0.17188 0.99219 0.51562 1.2188 0.34375 0.23047 0.80469 0.34375 1.3906 0.34375z"/></g><g id="ar"><path d="m3.5 0v-8.9844h-3.2344v-1.0156h7.6094v1.0156h-3.2188v8.9844z"/></g><g id="aq"><path d="m1.3125 0v-10h5.9844v1.0156h-4.8438v3h4.3125v0.96875h-4.3125v4h5.2031v1.0156z"/></g><g id="y"><path d="m0.375 0c0.25781-0.5 0.53125-0.98828 0.8125-1.4688 0.28906-0.47656 0.58594-0.94531 0.89062-1.4062 0.3125-0.46875 0.61719-0.92188 0.92188-1.3594l-2.4844-3.7656h1.2656l1.9219 3 1.9375-3h1.1719l-2.4375 3.7188c0.28906 0.38672 0.59375 0.82031 0.90625 1.2969 0.32031 0.46875 0.63281 0.96094 0.9375 1.4688 0.30078 0.51172 0.57031 1.0156 0.8125 1.5156h-1.1719c-0.14844-0.30078-0.33984-0.64453-0.57812-1.0312-0.24219-0.39453-0.5-0.8125-0.78125-1.25-0.27344-0.4375-0.54297-0.84766-0.8125-1.2344-0.28125 0.38672-0.5625 0.79688-0.84375 1.2344-0.27344 0.42969-0.52734 0.83984-0.76562 1.2344-0.23047 0.39844-0.41797 0.74609-0.5625 1.0469z"/></g><g id="i"><path d="m2.8594 0c-0.65625 0-1.168-0.054688-1.5312-0.17188-0.36719-0.125-0.60938-0.21094-0.73438-0.26562l0.25-0.98438c0.11328 0.042969 0.33594 0.125 0.67188 0.25 0.33203 0.125 0.78125 0.1875 1.3438 0.1875 0.53906 0 0.97656-0.082031 1.3125-0.25 0.33203-0.16406 0.5-0.45703 0.5-0.875 0-0.25781-0.0625-0.46875-0.1875-0.625-0.11719-0.16406-0.30469-0.31641-0.5625-0.45312-0.26172-0.13281-0.61719-0.28906-1.0625-0.46875-0.38672-0.15625-0.74219-0.32031-1.0625-0.5-0.3125-0.17578-0.57422-0.39844-0.78125-0.67188-0.19922-0.28125-0.29688-0.64062-0.29688-1.0781 0-0.41406 0.10156-0.78125 0.3125-1.0938 0.21875-0.3125 0.52344-0.55469 0.92188-0.73438 0.39453-0.17578 0.86719-0.26562 1.4219-0.26562 0.50781 0 0.9375 0.046875 1.2812 0.14062 0.35156 0.09375 0.60156 0.17188 0.75 0.23438l-0.23438 0.96875c-0.13672-0.070312-0.34375-0.14844-0.625-0.23438-0.28125-0.09375-0.68359-0.14062-1.2031-0.14062-0.40625 0-0.76562 0.089844-1.0781 0.26562-0.30469 0.16797-0.45312 0.4375-0.45312 0.8125 0 0.26172 0.0625 0.47656 0.1875 0.64062 0.13281 0.16797 0.32812 0.3125 0.57812 0.4375 0.25781 0.125 0.57031 0.26172 0.9375 0.40625 0.42578 0.16797 0.80469 0.33984 1.1406 0.51562 0.34375 0.17969 0.61328 0.41406 0.8125 0.70312 0.20703 0.28125 0.3125 0.66406 0.3125 1.1406 0 0.44922-0.12109 0.83594-0.35938 1.1562-0.23047 0.32422-0.5625 0.5625-1 0.71875s-0.96094 0.23438-1.5625 0.23438z"/></g><g id="ap"><path d="m3.625 3c-0.48047 0-0.92969-0.042969-1.3438-0.125-0.40625-0.074219-0.75781-0.16406-1.0469-0.26562l0.21875-0.95312c0.23828 0.082031 0.55469 0.16406 0.95312 0.25 0.40625 0.082031 0.82031 0.125 1.25 0.125 0.58203 0 1.0547-0.074219 1.4219-0.21875 0.36328-0.14844 0.62891-0.375 0.79688-0.6875 0.17578-0.3125 0.26562-0.73047 0.26562-1.25v-0.46875c-0.14844 0.10547-0.38672 0.23047-0.71875 0.375-0.32422 0.14844-0.74609 0.21875-1.2656 0.21875-0.60547 0-1.1641-0.13281-1.6719-0.40625-0.51172-0.26953-0.92188-0.69141-1.2344-1.2656-0.30469-0.58203-0.45312-1.3438-0.45312-2.2812 0-0.76953 0.14062-1.457 0.42188-2.0625 0.28906-0.61328 0.70703-1.0977 1.25-1.4531 0.53906-0.35156 1.1914-0.53125 1.9531-0.53125 0.67578 0 1.2383 0.054688 1.6875 0.15625 0.44531 0.09375 0.8125 0.18359 1.0938 0.26562v7.2188c0 1.1953-0.29688 2.0547-0.89062 2.5781-0.59375 0.51953-1.4922 0.78125-2.6875 0.78125zm0.57812-4c0.39453 0 0.76562-0.0625 1.1094-0.1875 0.35156-0.125 0.625-0.27344 0.8125-0.45312v-5.1562c-0.15625-0.050781-0.36719-0.097656-0.625-0.14062-0.25-0.039062-0.60547-0.0625-1.0625-0.0625-0.53125 0-0.98438 0.13281-1.3594 0.39062-0.36719 0.25-0.64844 0.60938-0.84375 1.0781-0.19922 0.46094-0.29688 0.99219-0.29688 1.5938 0 0.53125 0.0625 0.98438 0.1875 1.3594 0.125 0.36719 0.29688 0.66797 0.51562 0.90625 0.21875 0.24219 0.45703 0.41406 0.71875 0.51562 0.26953 0.10547 0.55078 0.15625 0.84375 0.15625z"/></g><g id="x"><path d="m1.0781 0v-8.375c0-0.98828 0.23438-1.7383 0.70312-2.25 0.47656-0.50781 1.2031-0.76562 2.1719-0.76562 0.40625 0 0.73828 0.03906 1 0.10938 0.25781 0.0625 0.44141 0.11719 0.54688 0.15625l-0.23438 0.92188c-0.10547-0.03906-0.26172-0.08594-0.46875-0.14062-0.21094-0.05078-0.46875-0.07813-0.78125-0.07813-0.66797 0-1.1406 0.16797-1.4219 0.5-0.28125 0.33594-0.42188 0.85938-0.42188 1.5781v0.75h3.0156v0.92188h-3.0156v6.6719zm5.75 0v-7.5938h1.0938v7.5938zm0.53125-9.4219c-0.21094 0-0.39062-0.070313-0.54688-0.21875-0.14844-0.14453-0.21875-0.33594-0.21875-0.57812 0-0.23828 0.070312-0.42969 0.21875-0.57812 0.15625-0.14453 0.33594-0.21875 0.54688-0.21875 0.21875 0 0.39844 0.07422 0.54688 0.21875 0.15625 0.14844 0.23438 0.33984 0.23438 0.57812 0 0.24219-0.078125 0.43359-0.23438 0.57812-0.14844 0.14844-0.32812 0.21875-0.54688 0.21875z"/></g><g id="w"><path d="m0.40625-3.875v-1.0781h3.4219v1.0781z"/></g><g id="n"><path d="m1.1094-1.0938-0.3125-0.9375 5.4219-2.3281-5.4219-2.3281 0.3125-0.9375 6.3594 2.7656v1z"/></g><g id="v"><path d="m0.8125-5.0312v-0.9375h6.6562v0.9375zm0 3v-0.95312h6.6562v0.95312z"/></g><g id="m"><path d="m7.1406-1.0938-6.3438-2.7656v-1l6.3438-2.7656 0.32812 0.9375-5.4219 2.3281 5.4219 2.3281z"/></g><g id="ao"><path d="m3.5469 0c-0.79297 0-1.4492-0.085938-1.9688-0.26562-0.52344-0.17578-0.88281-0.32812-1.0781-0.45312l0.35938-0.92188c0.20703 0.11719 0.53516 0.25 0.98438 0.40625 0.45703 0.14844 1.0234 0.21875 1.7031 0.21875 0.76953 0 1.3633-0.12891 1.7812-0.39062 0.42578-0.25781 0.64062-0.67578 0.64062-1.25 0-0.42578-0.11719-0.76562-0.34375-1.0156-0.23047-0.25781-0.53125-0.46875-0.90625-0.625-0.375-0.16406-0.78906-0.33203-1.2344-0.5-0.55469-0.19531-1.0312-0.40625-1.4375-0.625-0.40625-0.22656-0.71875-0.50391-0.9375-0.82812-0.21875-0.33203-0.32812-0.74219-0.32812-1.2344 0-0.55078 0.12891-1.0156 0.39062-1.3906 0.25781-0.375 0.64062-0.65625 1.1406-0.84375s1.0938-0.28125 1.7812-0.28125c0.5625 0 1.082 0.074219 1.5625 0.21875 0.48828 0.13672 0.86719 0.29297 1.1406 0.46875l-0.39062 0.90625c-0.28125-0.1875-0.625-0.33203-1.0312-0.4375-0.40625-0.10156-0.83984-0.15625-1.2969-0.15625-0.625 0-1.1406 0.12109-1.5469 0.35938-0.39844 0.23047-0.59375 0.61719-0.59375 1.1562 0 0.375 0.097656 0.67969 0.29688 0.90625 0.19531 0.23047 0.46094 0.42188 0.79688 0.57812 0.34375 0.15625 0.73438 0.3125 1.1719 0.46875 0.55078 0.21094 1.0508 0.42969 1.5 0.65625 0.44531 0.21875 0.80078 0.50781 1.0625 0.85938 0.25781 0.34375 0.39062 0.8125 0.39062 1.4062 0 0.58594-0.14844 1.0703-0.4375 1.4531-0.29297 0.38672-0.71094 0.67969-1.25 0.875-0.53125 0.1875-1.1719 0.28125-1.9219 0.28125z"/></g><g id="l"><path d="m1.2344 0v-7.4844c0.25-0.11328 0.59766-0.22656 1.0469-0.34375 0.44531-0.11328 0.98438-0.17188 1.6094-0.17188 0.20703 0 0.41016 0.015625 0.60938 0.046875 0.19531 0.023437 0.375 0.054687 0.53125 0.09375 0.16406 0.03125 0.28906 0.0625 0.375 0.09375l-0.23438 0.96875c-0.085937-0.039063-0.25-0.082031-0.5-0.125-0.24219-0.050781-0.55469-0.078125-0.9375-0.078125-0.36719 0-0.67188 0.03125-0.92188 0.09375-0.24219 0.0625-0.40234 0.10938-0.48438 0.14062v6.7656z"/></g><g id="an"><path d="m1.3125 0v-10h5.9062v1.0156h-4.7656v2.9844h4.2188v1h-4.2188v5z"/></g><g id="am"><path d="m1.2344 0v-11.547l1.0938-0.1875v4.0781c0.28906-0.10156 0.59375-0.1875 0.90625-0.25 0.32031-0.0625 0.63281-0.09375 0.9375-0.09375 0.80078 0 1.4219 0.15234 1.8594 0.45312 0.4375 0.30469 0.74219 0.72656 0.92188 1.2656 0.1875 0.54297 0.28125 1.1719 0.28125 1.8906v4.3906h-1.0938v-4.0781c0-0.70703-0.070313-1.2734-0.20312-1.7031-0.125-0.42578-0.33984-0.73438-0.64062-0.92188-0.30469-0.19531-0.73047-0.29688-1.2812-0.29688-0.19922 0-0.41797 0.027344-0.65625 0.078125-0.24219 0.042969-0.45312 0.089844-0.64062 0.14062-0.1875 0.042969-0.32031 0.078125-0.39062 0.10938v6.6719z"/></g><g id="al"><path d="m1.3125 0v-10h0.90625c0.38281 0.40625 0.78906 0.88281 1.2188 1.4219 0.4375 0.53125 0.875 1.0859 1.3125 1.6562 0.4375 0.57422 0.85938 1.1484 1.2656 1.7188 0.40625 0.57422 0.78125 1.125 1.125 1.6562 0.35156 0.53125 0.65625 1.0078 0.90625 1.4219v-7.875h1.125v10h-0.95312c-0.23047-0.40625-0.52344-0.88281-0.875-1.4375-0.34375-0.55078-0.73047-1.1328-1.1562-1.75-0.41797-0.625-0.85156-1.2422-1.2969-1.8594-0.44922-0.625-0.88672-1.207-1.3125-1.75-0.41797-0.55078-0.79688-1.0195-1.1406-1.4062v8.2031z"/></g><g id="ak"><path d="m3.8438 0c-0.24219 0-0.52344-0.0078125-0.84375-0.03125-0.3125-0.03125-0.62109-0.0625-0.92188-0.09375-0.30469-0.039062-0.55859-0.09375-0.76562-0.15625v-9.4688c0.23828-0.070312 0.50781-0.12891 0.8125-0.17188 0.3125-0.050781 0.61719-0.078125 0.92188-0.078125h0.85938c0.75 0 1.4297 0.074219 2.0469 0.21875 0.625 0.14844 1.125 0.39844 1.5 0.75 0.38281 0.34375 0.57812 0.82422 0.57812 1.4375 0 0.48047-0.13672 0.89062-0.40625 1.2344-0.27344 0.34375-0.63672 0.58984-1.0938 0.73438 0.58203 0.15625 1.0625 0.43359 1.4375 0.82812 0.375 0.39844 0.5625 0.98438 0.5625 1.7656 0 0.99219-0.38672 1.7461-1.1562 2.2656-0.77344 0.51172-1.9492 0.76562-3.5312 0.76562zm0.125-1.0312c0.58203 0 1.1289-0.050781 1.6406-0.15625 0.50781-0.11328 0.92188-0.31641 1.2344-0.60938 0.32031-0.28906 0.48438-0.71094 0.48438-1.2656 0-0.75781-0.25781-1.2734-0.76562-1.5469-0.51172-0.26953-1.2109-0.40625-2.0938-0.40625h-2.0312v3.9219c0.15625 0.042969 0.375 0.0625 0.65625 0.0625h0.875zm-1.5312-4.9531h1.8438c0.48828 0 0.92578-0.039063 1.3125-0.125 0.38281-0.09375 0.69141-0.25 0.92188-0.46875 0.22656-0.21875 0.34375-0.53125 0.34375-0.9375 0-0.53906-0.27344-0.92188-0.8125-1.1406-0.53125-0.22656-1.2305-0.34375-2.0938-0.34375h-0.89062c-0.25 0-0.46094 0.015625-0.625 0.046875z"/></g><g id="aj"><path d="m1.2344 0v-11.703l1.0938-0.1875v7.4062c0.23828-0.25 0.50391-0.52344 0.79688-0.82812 0.28906-0.3125 0.58594-0.62891 0.89062-0.95312 0.30078-0.33203 0.58203-0.64844 0.84375-0.95312 0.26953-0.30078 0.5-0.5625 0.6875-0.78125h1.3125c-0.30469 0.33594-0.65234 0.71484-1.0469 1.1406-0.39844 0.42969-0.79688 0.85938-1.2031 1.2969s-0.78125 0.83594-1.125 1.1875c0.32031 0.23047 0.64844 0.51562 0.98438 0.85938 0.33203 0.34375 0.66406 0.71875 1 1.125 0.33203 0.39844 0.64453 0.80469 0.9375 1.2188 0.28906 0.40625 0.53516 0.79688 0.73438 1.1719h-1.2656c-0.30469-0.51953-0.65625-1.0352-1.0625-1.5469-0.40625-0.51953-0.82812-0.98828-1.2656-1.4062-0.42969-0.41406-0.83594-0.75391-1.2188-1.0156v3.9688z"/></g><g id="ah"><path d="m1.2031 0v-10h6.5938v1.7188h-4.5781v2.2812h4.0625v1.7031h-4.0625v4.2969z"/></g><g id="ag"><path d="m4.4219 0c-0.74219 0-1.3906-0.16406-1.9531-0.5-0.5625-0.33203-1-0.79688-1.3125-1.3906-0.3125-0.60156-0.46875-1.3047-0.46875-2.1094 0-0.80078 0.16016-1.5 0.48438-2.0938 0.32031-0.60156 0.76562-1.0703 1.3281-1.4062 0.5625-0.33203 1.2031-0.5 1.9219-0.5s1.3594 0.16797 1.9219 0.5c0.5625 0.33594 1 0.80469 1.3125 1.4062 0.3125 0.59375 0.46875 1.293 0.46875 2.0938 0 0.80469-0.15625 1.5078-0.46875 2.1094-0.30469 0.59375-0.73047 1.0586-1.2812 1.3906-0.55469 0.33594-1.2031 0.5-1.9531 0.5zm0-1.6562c0.36328 0 0.67578-0.09375 0.9375-0.28125 0.25781-0.19531 0.45703-0.47266 0.59375-0.82812 0.14453-0.35156 0.21875-0.76562 0.21875-1.2344 0-0.47656-0.074219-0.89062-0.21875-1.2344-0.13672-0.34375-0.33594-0.60938-0.59375-0.79688-0.26172-0.19531-0.57422-0.29688-0.9375-0.29688-0.375 0-0.69922 0.10156-0.96875 0.29688-0.26172 0.1875-0.46094 0.45312-0.59375 0.79688-0.13672 0.34375-0.20312 0.75781-0.20312 1.2344 0 0.46875 0.066406 0.88281 0.20312 1.2344 0.13281 0.35547 0.33203 0.63281 0.59375 0.82812 0.26953 0.1875 0.59375 0.28125 0.96875 0.28125z"/></g><g id="ac"><path d="m1.0781 0v-7.4375c0.35156-0.13281 0.78516-0.25781 1.2969-0.375 0.51953-0.125 1.1016-0.1875 1.75-0.1875 0.16406 0 0.35938 0.011719 0.57812 0.03125 0.22656 0.023438 0.44531 0.054688 0.65625 0.09375 0.20703 0.042969 0.38281 0.09375 0.53125 0.15625l-0.32812 1.5938c-0.17969-0.050781-0.39844-0.097656-0.65625-0.14062-0.26172-0.050781-0.55469-0.078125-0.875-0.078125-0.19922 0-0.39844 0.015625-0.59375 0.046875-0.19922 0.03125-0.34375 0.070313-0.4375 0.10938v6.1875z"/></g><g id="t"><path d="m1.0781 0v-7.5625c0.36328-0.09375 0.82031-0.1875 1.375-0.28125 0.55078-0.10156 1.1289-0.15625 1.7344-0.15625 0.53125 0 0.96875 0.074219 1.3125 0.21875 0.35156 0.13672 0.64453 0.3125 0.875 0.53125 0.17578-0.13281 0.38281-0.25391 0.625-0.35938 0.25-0.11328 0.51562-0.20703 0.79688-0.28125 0.28906-0.070313 0.57031-0.10938 0.84375-0.10938 0.8125 0 1.4375 0.15234 1.875 0.45312 0.4375 0.30469 0.73438 0.72656 0.89062 1.2656 0.16406 0.54297 0.25 1.168 0.25 1.875v4.4062h-1.9219v-4.1406c0-0.51953-0.042969-0.94141-0.125-1.2656-0.074219-0.32031-0.21094-0.55469-0.40625-0.70312-0.19922-0.15625-0.46875-0.23438-0.8125-0.23438-0.14844 0-0.30469 0.023438-0.46875 0.0625-0.15625 0.042969-0.30469 0.09375-0.4375 0.15625-0.13672 0.0625-0.25781 0.125-0.35938 0.1875 0.082031 0.24219 0.13281 0.49609 0.15625 0.76562 0.03125 0.26172 0.046875 0.54688 0.046875 0.85938v4.3125h-1.9219v-4.1406c0-0.51953-0.042969-0.94141-0.125-1.2656-0.074219-0.32031-0.21094-0.55469-0.40625-0.70312-0.19922-0.15625-0.47656-0.23438-0.82812-0.23438-0.13672 0-0.27344 0.00781-0.40625 0.015625-0.125 0.011719-0.24609 0.027344-0.35938 0.046875-0.10547 0.011719-0.19922 0.027344-0.28125 0.046875v6.2344z"/></g><g id="ab"><path d="m3.4062 0v-8.2656h-3.1094v-1.7344h8.2188v1.7344h-3.1094v8.2656z"/></g><g id="aa"><path d="m3.75 0c-0.63672 0-1.1953-0.082031-1.6719-0.25-0.48047-0.16406-0.85547-0.4375-1.125-0.8125-0.26172-0.375-0.39062-0.88281-0.39062-1.5312 0-0.60156 0.14453-1.0859 0.4375-1.4531 0.30078-0.36328 0.70312-0.625 1.2031-0.78125s1.0312-0.23438 1.5938-0.23438c0.28125 0 0.53906 0.015625 0.78125 0.046875 0.23828 0.023437 0.42188 0.054687 0.54688 0.09375v-0.21875c0-0.23828-0.046875-0.45312-0.14062-0.64062s-0.25781-0.32812-0.48438-0.42188c-0.23047-0.10156-0.54688-0.15625-0.95312-0.15625-0.41797 0-0.79688 0.027344-1.1406 0.078125-0.34375 0.042969-0.625 0.10547-0.84375 0.1875l-0.25-1.5312c0.22656-0.082031 0.56641-0.16406 1.0156-0.25 0.44531-0.082031 0.92188-0.125 1.4219-0.125 0.8125 0 1.4531 0.125 1.9219 0.375s0.80078 0.60547 1 1.0625c0.19531 0.46094 0.29688 1 0.29688 1.625v4.5625c-0.28125 0.054688-0.69922 0.13281-1.25 0.23438-0.55469 0.09375-1.2109 0.14062-1.9688 0.14062zm0.15625-1.5312h0.70312c0.21875 0 0.39062-0.023438 0.51562-0.078125v-2.0156c-0.09375-0.03125-0.23438-0.054688-0.42188-0.078125-0.1875-0.03125-0.38672-0.046875-0.59375-0.046875-0.28125 0-0.54688 0.03125-0.79688 0.09375s-0.45312 0.17188-0.60938 0.32812c-0.15625 0.14844-0.23438 0.37109-0.23438 0.67188 0 0.41797 0.12891 0.71094 0.39062 0.875 0.25781 0.16797 0.60938 0.25 1.0469 0.25z"/></g><g id="z"><path d="m4.1562 0c-0.375 0-0.75781-0.019531-1.1406-0.0625-0.375-0.039062-0.73047-0.09375-1.0625-0.15625-0.33594-0.070312-0.625-0.14453-0.875-0.21875v-10.844l1.9219-0.3125v4c0.21875-0.10156 0.47266-0.19531 0.76562-0.28125 0.28906-0.082031 0.60156-0.125 0.9375-0.125 0.73828 0 1.3594 0.16797 1.8594 0.5 0.50781 0.32422 0.89062 0.78906 1.1406 1.3906 0.25781 0.60547 0.39062 1.3086 0.39062 2.1094 0 0.8125-0.15625 1.5234-0.46875 2.125-0.3125 0.59375-0.76562 1.0586-1.3594 1.3906-0.58594 0.32422-1.2891 0.48438-2.1094 0.48438zm-0.015625-1.6562c0.42578 0 0.78516-0.097656 1.0781-0.29688 0.30078-0.19531 0.53125-0.47266 0.6875-0.82812 0.15625-0.36328 0.23438-0.78516 0.23438-1.2656 0-0.36328-0.039063-0.69141-0.10938-0.98438-0.0625-0.28906-0.16797-0.53516-0.3125-0.73438-0.14844-0.19531-0.32812-0.34375-0.54688-0.4375-0.21875-0.10156-0.48438-0.15625-0.79688-0.15625-0.27344 0-0.53125 0.042969-0.78125 0.125-0.25 0.074219-0.44922 0.16406-0.59375 0.26562v4.2188c0.11328 0.023438 0.26562 0.042969 0.45312 0.0625 0.19531 0.023438 0.42578 0.03125 0.6875 0.03125z"/></g><g id="s"><path d="m3.9062 0c-0.75 0-1.3281-0.097656-1.7344-0.29688-0.40625-0.19531-0.69531-0.48438-0.85938-0.85938-0.15625-0.38281-0.23438-0.84375-0.23438-1.375v-8.8438l1.9219-0.3125v8.7812c0 0.41797 0.070312 0.73047 0.21875 0.9375 0.14453 0.19922 0.46875 0.32422 0.96875 0.375z"/></g><g id="o"><path d="m4.6875 0c-0.91797 0-1.668-0.16406-2.25-0.5-0.58594-0.34375-1.0234-0.81641-1.3125-1.4219-0.29297-0.60156-0.4375-1.2812-0.4375-2.0312 0-0.89453 0.17578-1.6406 0.53125-2.2344 0.35156-0.59375 0.80078-1.0391 1.3438-1.3438 0.55078-0.3125 1.1328-0.46875 1.75-0.46875 0.70703 0 1.3164 0.13672 1.8281 0.40625 0.50781 0.27344 0.90625 0.67188 1.1875 1.2031 0.28125 0.52344 0.42188 1.1836 0.42188 1.9844 0 0.10547-0.00781 0.21875-0.015625 0.34375-0.011719 0.125-0.023437 0.24219-0.03125 0.34375h-5.0312c0.039063 0.64844 0.25391 1.1523 0.64062 1.5156 0.38281 0.35547 0.92578 0.53125 1.625 0.53125 0.42578 0 0.82031-0.039063 1.1875-0.125 0.36328-0.09375 0.65625-0.19531 0.875-0.3125l0.28125 1.6406c-0.21875 0.10547-0.57422 0.21094-1.0625 0.3125-0.48047 0.10547-0.99219 0.15625-1.5312 0.15625zm-2.0156-5.0938h3.2188c-0.011719-0.22656-0.074219-0.44141-0.1875-0.64062-0.11719-0.19531-0.28125-0.35156-0.5-0.46875-0.21875-0.11328-0.51172-0.17188-0.875-0.17188-0.35547 0-0.64844 0.0625-0.875 0.1875-0.23047 0.11719-0.40625 0.27344-0.53125 0.46875-0.125 0.1875-0.21094 0.39844-0.25 0.625z"/></g><g id="af"><path d="m1.2031 0v-10h6.6406v1.7188h-4.625v2.2812h4.1094v1.6875h-4.1094v2.6094h4.9844v1.7031z"/></g><g id="ae"><path d="m1.0781 0v-7.5625c0.35156-0.09375 0.8125-0.1875 1.375-0.28125 0.5625-0.10156 1.1719-0.15625 1.8281-0.15625 0.86328 0 1.5312 0.15234 2 0.45312 0.47656 0.30469 0.8125 0.72656 1 1.2656 0.19531 0.54297 0.29688 1.168 0.29688 1.875v4.4062h-1.9219v-4.1406c0-0.53125-0.046875-0.95703-0.14062-1.2812-0.085937-0.32031-0.23438-0.55469-0.45312-0.70312-0.21875-0.14453-0.52344-0.21875-0.90625-0.21875-0.23047 0-0.44922 0.015625-0.65625 0.046875-0.21094 0.023437-0.375 0.042969-0.5 0.0625v6.2344z"/></g><g id="ad"><path d="m3.9375 0c-0.76172 0-1.3555-0.13281-1.7812-0.40625-0.41797-0.26953-0.71484-0.64844-0.89062-1.1406-0.16797-0.48828-0.25-1.0781-0.25-1.7656v-6.7031l1.9062-0.3125v2.3281h2.7188v1.625h-2.7188v3.0625c0 0.375 0.039063 0.6875 0.125 0.9375 0.082031 0.24219 0.21875 0.42188 0.40625 0.54688 0.1875 0.11719 0.44141 0.17188 0.76562 0.17188 0.26953 0 0.53125-0.023438 0.78125-0.078125 0.25-0.0625 0.46875-0.12891 0.65625-0.20312l0.28125 1.5312c-0.23047 0.09375-0.50781 0.1875-0.82812 0.28125-0.32422 0.085938-0.71484 0.125-1.1719 0.125z"/></g><clipPath id="bi"><path d="m274 151h83v32h-83z"/></clipPath><clipPath id="bh"><path d="m273 156c0-3.3047 2.6953-6 6-6h73c3.3047 0 6 2.6953 6 6v22c0 3.3047-2.6953 6-6 6h-73c-3.3047 0-6-2.6953-6-6z"/></clipPath><clipPath id="ba"><path d="m274 191h83v32h-83z"/></clipPath><clipPath id="az"><path d="m273 196c0-3.3047 2.6953-6 6-6h73c3.3047 0 6 2.6953 6 6v22c0 3.3047-2.6953 6-6 6h-73c-3.3047 0-6-2.6953-6-6z"/></clipPath><clipPath id="ay"><path d="m274 231h83v32h-83z"/></clipPath><clipPath id="ax"><path d="m273 236c0-3.3047 2.6953-6 6-6h73c3.3047 0 6 2.6953 6 6v22c0 3.3047-2.6953 6-6 6h-73c-3.3047 0-6-2.6953-6-6z"/></clipPath><clipPath id="aw"><path d="m274 271h83v32h-83z"/></clipPath><clipPath id="av"><path d="m273 276c0-3.3047 2.6953-6 6-6h73c3.3047 0 6 2.6953 6 6v22c0 3.3047-2.6953 6-6 6h-73c-3.3047 0-6-2.6953-6-6z"/></clipPath><clipPath id="au"><path d="m529 451h84v32h-84z"/></clipPath><clipPath id="at"><path d="m528 456c0-3.3047 2.6953-6 6-6h74c3.3047 0 6 2.6953 6 6v22c0 3.3047-2.6953 6-6 6h-74c-3.3047 0-6-2.6953-6-6z"/></clipPath><clipPath id="bg"><path d="m437 451h84v32h-84z"/></clipPath><clipPath id="bf"><path d="m436 456c0-3.3047 2.6953-6 6-6h74c3.3047 0 6 2.6953 6 6v22c0 3.3047-2.6953 6-6 6h-74c-3.3047 0-6-2.6953-6-6z"/></clipPath><clipPath id="be"><path d="m345 451h84v32h-84z"/></clipPath><clipPath id="bd"><path d="m344 456c0-3.3047 2.6953-6 6-6h74c3.3047 0 6 2.6953 6 6v22c0 3.3047-2.6953 6-6 6h-74c-3.3047 0-6-2.6953-6-6z"/></clipPath><clipPath id="bc"><path d="m253 451h84v32h-84z"/></clipPath><clipPath id="bb"><path d="m252 456c0-3.3047 2.6953-6 6-6h74c3.3047 0 6 2.6953 6 6v22c0 3.3047-2.6953 6-6 6h-74c-3.3047 0-6-2.6953-6-6z"/></clipPath><marker id="cm" overflow="visible" markerHeight="5.5999999" markerWidth="7.6999998" orient="auto-start-reverse" preserveAspectRatio="xMidYMid" viewBox="0 0 7.7 5.6"><path transform="scale(.7)" d="m-2-4 11 4-11 4c2-2.33 2-5.66 0-8z" fill="context-stroke" fill-rule="evenodd"/></marker></defs><rect x="1" y="1" width="626" height="496" fill="#fafafa"/><g fill="#3d3d3d"><use x="36" y="86" xlink:href="#r"/><use x="45" y="86" xlink:href="#h"/><use x="54" y="86" xlink:href="#c"/><use x="62" y="86" xlink:href="#b"/><use x="68" y="86" xlink:href="#a"/><use x="76" y="86" xlink:href="#c"/><use x="84" y="86" xlink:href="#b"/><use x="36" y="62" xlink:href="#r"/><use x="45" y="62" xlink:href="#h"/><use x="54" y="62" xlink:href="#c"/><use x="62" y="62" xlink:href="#b"/><use x="68" y="62" xlink:href="#a"/><use x="76" y="62" xlink:href="#c"/><use x="84" y="62" xlink:href="#b"/><use x="90" y="62" xlink:href="#glyph-0-5"/><use x="93" y="62" xlink:href="#b"/><use x="99" y="62" xlink:href="#ai"/><use x="106" y="62" xlink:href="#p"/><use x="115" y="62" xlink:href="#a"/><use x="135" y="86" xlink:href="#p"/><use x="144" y="86" xlink:href="#k"/><use x="152" y="86" xlink:href="#u"/><use x="161" y="86" xlink:href="#g"/><use x="165" y="86" xlink:href="#f"/><use x="169" y="86" xlink:href="#e"/><use x="176" y="86" xlink:href="#as"/><use x="180" y="86" xlink:href="#d"/><use x="189" y="86" xlink:href="#a"/><use x="197" y="86" xlink:href="#q"/><use x="210" y="86" xlink:href="#j"/><use x="218" y="86" xlink:href="#c"/><use x="226" y="86" xlink:href="#d"/><use x="135" y="62" xlink:href="#ar"/><use x="143" y="62" xlink:href="#j"/><use x="151" y="62" xlink:href="#u"/><use x="160" y="62" xlink:href="#g"/><use x="164" y="62" xlink:href="#a"/><use x="24" y="38" xlink:href="#ah"/><use x="32" y="38" xlink:href="#ag"/><use x="41" y="38" xlink:href="#ac"/><use x="47" y="38" xlink:href="#t"/><use x="36" y="140" xlink:href="#aq"/><use x="44" y="140" xlink:href="#y"/><use x="51" y="140" xlink:href="#f"/><use x="55" y="140" xlink:href="#i"/><use x="61" y="140" xlink:href="#b"/><use x="67" y="140" xlink:href="#f"/><use x="71" y="140" xlink:href="#c"/><use x="79" y="140" xlink:href="#ap"/><use x="87" y="140" xlink:href="#glyph-0-5"/><use x="90" y="140" xlink:href="#x"/><use x="99" y="140" xlink:href="#a"/><use x="107" y="140" xlink:href="#g"/><use x="111" y="140" xlink:href="#d"/><use x="120" y="140" xlink:href="#i"/></g><g clip-path="url(#bi)"><g clip-path="url(#bh)"><path d="m274 151h83v32h-83z" fill="#fff"/></g></g><path d="m273 156c0-3.3047 2.6953-6 6-6h73c3.3047 0 6 2.6953 6 6v22c0 3.3047-2.6953 6-6 6h-73c-3.3047 0-6-2.6953-6-6zm1 0c0-2.7539 2.2461-5 5-5h73c2.7539 0 5 2.2461 5 5v22c0 2.7539-2.2461 5-5 5h-73c-2.7539 0-5-2.2461-5-5z" fill="#c7c7c7" fill-rule="evenodd"/><g fill="#3d3d3d"><use x="309" y="172" xlink:href="#w"/><use x="313" y="172" xlink:href="#n"/></g><g clip-path="url(#ba)"><g clip-path="url(#az)"><path d="m274 191h83v32h-83z" fill="#fff"/></g></g><path d="m273 196c0-3.3047 2.6953-6 6-6h73c3.3047 0 6 2.6953 6 6v22c0 3.3047-2.6953 6-6 6h-73c-3.3047 0-6-2.6953-6-6zm1 0c0-2.7539 2.2461-5 5-5h73c2.7539 0 5 2.2461 5 5v22c0 2.7539-2.2461 5-5 5h-73c-2.7539 0-5-2.2461-5-5z" fill="#c7c7c7" fill-rule="evenodd"/><g fill="#3d3d3d"><use x="303" y="212" xlink:href="#v"/><use x="311" y="212" xlink:href="#n"/><use x="319" y="212" xlink:href="#n"/></g><g clip-path="url(#ay)"><g clip-path="url(#ax)"><path d="m274 231h83v32h-83z" fill="#fcfcfc"/></g></g><path d="m273 236c0-3.3047 2.6953-6 6-6h73c3.3047 0 6 2.6953 6 6v22c0 3.3047-2.6953 6-6 6h-73c-3.3047 0-6-2.6953-6-6zm1 0c0-2.7539 2.2461-5 5-5h73c2.7539 0 5 2.2461 5 5v22c0 2.7539-2.2461 5-5 5h-73c-2.7539 0-5-2.2461-5-5z" fill="#c7c7c7" fill-rule="evenodd"/><g fill="#9c9c9c"><use x="309" y="252" xlink:href="#m"/><use x="317" y="252" xlink:href="#w"/></g><g clip-path="url(#aw)"><g clip-path="url(#av)"><path d="m274 271h83v32h-83z" fill="#fff"/></g></g><path d="m273 276c0-3.3047 2.6953-6 6-6h73c3.3047 0 6 2.6953 6 6v22c0 3.3047-2.6953 6-6 6h-73c-3.3047 0-6-2.6953-6-6zm1 0c0-2.7539 2.2461-5 5-5h73c2.7539 0 5 2.2461 5 5v22c0 2.7539-2.2461 5-5 5h-73c-2.7539 0-5-2.2461-5-5z" fill="#c7c7c7" fill-rule="evenodd"/><g fill="#3d3d3d"><use x="303" y="292" xlink:href="#m"/><use x="311" y="292" xlink:href="#m"/><use x="319" y="292" xlink:href="#v"/><use x="370" y="140" xlink:href="#ao"/><use x="378" y="140" xlink:href="#a"/><use x="386" y="140" xlink:href="#g"/><use x="390" y="140" xlink:href="#a"/><use x="398" y="140" xlink:href="#e"/><use x="405" y="140" xlink:href="#b"/><use x="411" y="140" xlink:href="#a"/><use x="419" y="140" xlink:href="#d"/><use x="428" y="140" xlink:href="#glyph-0-5"/><use x="431" y="140" xlink:href="#x"/><use x="440" y="140" xlink:href="#a"/><use x="448" y="140" xlink:href="#g"/><use x="452" y="140" xlink:href="#d"/><use x="461" y="140" xlink:href="#i"/></g><path d="m36 150h225v276h-225zm1 1h223v274h-223z" fill="#c7c7c7" fill-rule="evenodd"/><path d="m37 223h223v202h-223z" fill="#fff"/><path d="m37 151h223v24h-223z" fill="#fff"/><use x="41" y="168" xlink:href="#f"/><use x="45" y="168" xlink:href="#d"/><path d="m37 175h223v24h-223z" fill="#fff"/><use x="41" y="192" xlink:href="#e"/><use x="48" y="192" xlink:href="#k"/><use x="56" y="192" xlink:href="#i"/><use x="62" y="192" xlink:href="#b"/><use x="68" y="192" xlink:href="#h"/><use x="77" y="192" xlink:href="#q"/><use x="90" y="192" xlink:href="#a"/><use x="98" y="192" xlink:href="#l"/><path d="m37 199h223v24h-223z" fill="#e95420"/><g fill="#fff"><use x="41" y="216" xlink:href="#p"/><use x="50" y="216" xlink:href="#l"/><use x="56" y="216" xlink:href="#h"/><use x="65" y="216" xlink:href="#d"/><use x="74" y="216" xlink:href="#k"/><use x="82" y="216" xlink:href="#e"/><use x="89" y="216" xlink:href="#b"/></g><path d="m370 150h232v276h-232zm1 1h230v274h-230z" fill="#c7c7c7" fill-rule="evenodd"/><path d="m371 199h230v226h-230z" fill="#fff"/><path d="m371 151h230v24h-230z" fill="#fff"/><use x="375" y="168" xlink:href="#j"/><use x="383" y="168" xlink:href="#q"/><use x="396" y="168" xlink:href="#h"/><use x="405" y="168" xlink:href="#k"/><use x="413" y="168" xlink:href="#c"/><use x="421" y="168" xlink:href="#b"/><path d="m371 175h230v24h-230z" fill="#fff"/><use x="375" y="192" xlink:href="#h"/><use x="384" y="192" xlink:href="#l"/><use x="390" y="192" xlink:href="#d"/><use x="399" y="192" xlink:href="#a"/><use x="407" y="192" xlink:href="#l"/><use x="413" y="192" xlink:href="#a"/><use x="421" y="192" xlink:href="#d"/><g fill="#3d3d3d"><use x="24" y="116" xlink:href="#ab"/><use x="32" y="116" xlink:href="#aa"/><use x="40" y="116" xlink:href="#z"/><use x="49" y="116" xlink:href="#s"/><use x="53" y="116" xlink:href="#o"/><use x="61" y="116" xlink:href="#glyph-1-9"/><use x="64" y="116" xlink:href="#af"/><use x="73" y="116" xlink:href="#s"/><use x="77" y="116" xlink:href="#o"/><use x="85" y="116" xlink:href="#t"/><use x="98" y="116" xlink:href="#o"/><use x="106" y="116" xlink:href="#ae"/><use x="115" y="116" xlink:href="#ad"/></g><g clip-path="url(#au)"><g clip-path="url(#at)"><path d="m529 451h84v32h-84z" fill="#fff"/></g></g><path d="m528 456c0-3.3047 2.6953-6 6-6h74c3.3047 0 6 2.6953 6 6v22c0 3.3047-2.6953 6-6 6h-74c-3.3047 0-6-2.6953-6-6zm1 0c0-2.7539 2.2461-5 5-5h74c2.7539 0 5 2.2461 5 5v22c0 2.7539-2.2461 5-5 5h-74c-2.7539 0-5-2.2461-5-5z" fill="#c7c7c7" fill-rule="evenodd"/><g fill="#3d3d3d"><use x="552" y="472" xlink:href="#an"/><use x="560" y="472" xlink:href="#f"/><use x="564" y="472" xlink:href="#c"/><use x="572" y="472" xlink:href="#f"/><use x="576" y="472" xlink:href="#i"/><use x="582" y="472" xlink:href="#am"/></g><g clip-path="url(#bg)"><g clip-path="url(#bf)"><path d="m437 451h84v32h-84z" fill="#fff"/></g></g><path d="m436 456c0-3.3047 2.6953-6 6-6h74c3.3047 0 6 2.6953 6 6v22c0 3.3047-2.6953 6-6 6h-74c-3.3047 0-6-2.6953-6-6zm1 0c0-2.7539 2.2461-5 5-5h74c2.7539 0 5 2.2461 5 5v22c0 2.7539-2.2461 5-5 5h-74c-2.7539 0-5-2.2461-5-5z" fill="#c7c7c7" fill-rule="evenodd"/><g fill="#3d3d3d"><use x="457" y="472" xlink:href="#r"/><use x="466" y="472" xlink:href="#j"/><use x="474" y="472" xlink:href="#c"/><use x="482" y="472" xlink:href="#e"/><use x="489" y="472" xlink:href="#a"/><use x="497" y="472" xlink:href="#g"/></g><g clip-path="url(#be)"><g clip-path="url(#bd)"><path d="m345 451h84v32h-84z" fill="#fcfcfc"/></g></g><path d="m344 456c0-3.3047 2.6953-6 6-6h74c3.3047 0 6 2.6953 6 6v22c0 3.3047-2.6953 6-6 6h-74c-3.3047 0-6-2.6953-6-6zm1 0c0-2.7539 2.2461-5 5-5h74c2.7539 0 5 2.2461 5 5v22c0 2.7539-2.2461 5-5 5h-74c-2.7539 0-5-2.2461-5-5z" fill="#c7c7c7" fill-rule="evenodd"/><g fill="#9c9c9c"><use x="366" y="472" xlink:href="#al"/><use x="376" y="472" xlink:href="#a"/><use x="384" y="472" xlink:href="#y"/><use x="391" y="472" xlink:href="#b"/><use x="397" y="472" xlink:href="#glyph-0-5"/><use x="400" y="472" xlink:href="#n"/></g><g clip-path="url(#bc)"><g clip-path="url(#bb)"><path d="m253 451h84v32h-84z" fill="#fff"/></g></g><path d="m252 456c0-3.3047 2.6953-6 6-6h74c3.3047 0 6 2.6953 6 6v22c0 3.3047-2.6953 6-6 6h-74c-3.3047 0-6-2.6953-6-6zm1 0c0-2.7539 2.2461-5 5-5h74c2.7539 0 5 2.2461 5 5v22c0 2.7539-2.2461 5-5 5h-74c-2.7539 0-5-2.2461-5-5z" fill="#c7c7c7" fill-rule="evenodd"/><g fill="#3d3d3d"><use x="274" y="472" xlink:href="#m"/><use x="282" y="472" xlink:href="#glyph-0-5"/><use x="285" y="472" xlink:href="#ak"/><use x="294" y="472" xlink:href="#j"/><use x="302" y="472" xlink:href="#e"/><use x="309" y="472" xlink:href="#aj"/></g><path d="m394.56 264 133.44 167.84" fill="none" marker-end="url(#cm)" stroke="#f00" stroke-linecap="round" stroke-linejoin="round" stroke-width="5"/></svg>
