<?xml version="1.0" encoding="UTF-8"?>
<svg width="628pt" height="498pt" version="1.1" viewBox="0 0 628 498" xmlns="http://www.w3.org/2000/svg" xmlns:xlink="http://www.w3.org/1999/xlink"><defs><g id="ab"><path d="m5.5781 0c-0.89844 0-1.6992-0.19141-2.4062-0.57812-0.71094-0.38281-1.2656-0.94531-1.6719-1.6875-0.40625-0.75-0.60938-1.6602-0.60938-2.7344 0-0.8125 0.125-1.5234 0.375-2.1406 0.25781-0.625 0.61328-1.1484 1.0625-1.5781 0.44531-0.42578 0.95312-0.74219 1.5156-0.95312 0.57031-0.21875 1.1758-0.32812 1.8125-0.32812 0.50781 0 0.95703 0.042969 1.3438 0.125 0.38281 0.085938 0.70312 0.18359 0.95312 0.29688 0.25781 0.10547 0.45312 0.19922 0.57812 0.28125l-0.375 0.92188c-0.24219-0.13281-0.55859-0.26562-0.95312-0.39062-0.38672-0.125-0.85156-0.1875-1.3906-0.1875-0.80469 0-1.4805 0.16797-2.0312 0.5-0.55469 0.33594-0.97656 0.79688-1.2656 1.3906-0.28125 0.58594-0.42188 1.2734-0.42188 2.0625 0 0.80469 0.13281 1.5 0.40625 2.0938 0.28125 0.58594 0.6875 1.043 1.2188 1.375 0.53125 0.32422 1.1797 0.48438 1.9531 0.48438 0.64453 0 1.1797-0.050781 1.6094-0.15625 0.4375-0.11328 0.77344-0.23438 1.0156-0.35938l0.29688 0.9375c-0.15625 0.10547-0.49609 0.23438-1.0156 0.39062-0.52344 0.15625-1.1875 0.23438-2 0.23438z"/></g><g id="n"><path d="m4.2031 0c-0.77344 0-1.3828-0.14453-1.8281-0.4375-0.4375-0.30078-0.75781-0.72656-0.95312-1.2812-0.1875-0.55078-0.28125-1.1797-0.28125-1.8906v-4.3906h1.1094v4.0938c0 0.69922 0.066406 1.2617 0.20312 1.6875 0.13281 0.42969 0.35156 0.73438 0.65625 0.92188 0.3125 0.1875 0.72266 0.28125 1.2344 0.28125 0.40625 0 0.76562-0.019531 1.0781-0.0625 0.32031-0.050781 0.53516-0.09375 0.64062-0.125v-6.7969h1.0781v7.5781c-0.29297 0.074219-0.6875 0.16406-1.1875 0.26562-0.49219 0.10547-1.0742 0.15625-1.75 0.15625z"/></g><g id="o"><path d="m1.2344 0v-7.4844c0.25-0.11328 0.59766-0.22656 1.0469-0.34375 0.44531-0.11328 0.98438-0.17188 1.6094-0.17188 0.20703 0 0.41016 0.015625 0.60938 0.046875 0.19531 0.023437 0.375 0.054687 0.53125 0.09375 0.16406 0.03125 0.28906 0.0625 0.375 0.09375l-0.23438 0.96875c-0.085937-0.039063-0.25-0.082031-0.5-0.125-0.24219-0.050781-0.55469-0.078125-0.9375-0.078125-0.36719 0-0.67188 0.03125-0.92188 0.09375-0.24219 0.0625-0.40234 0.10938-0.48438 0.14062v6.7656z"/></g><g id="c"><path d="m4.5625 0c-0.88672 0-1.6094-0.17188-2.1719-0.51562-0.55469-0.35156-0.96094-0.82812-1.2188-1.4219-0.25-0.60156-0.375-1.2891-0.375-2.0625 0-0.89453 0.16016-1.6328 0.48438-2.2188 0.32031-0.59375 0.73828-1.0352 1.25-1.3281 0.50781-0.30078 1.0508-0.45312 1.625-0.45312 0.63281 0 1.1797 0.125 1.6406 0.375 0.46875 0.25 0.82812 0.63672 1.0781 1.1562 0.25781 0.52344 0.39062 1.1797 0.39062 1.9688 0 0.054688-0.00781 0.125-0.015625 0.21875 0 0.09375-0.00781 0.17188-0.015625 0.23438h-5.2969c0.039062 0.96094 0.26953 1.7031 0.6875 2.2344 0.42578 0.53125 1.0938 0.79688 2 0.79688 0.5 0 0.90625-0.046875 1.2188-0.14062 0.32031-0.10156 0.55078-0.19531 0.6875-0.28125l0.1875 0.98438c-0.13672 0.074219-0.40234 0.16797-0.79688 0.28125-0.39844 0.11719-0.85156 0.17188-1.3594 0.17188zm-2.5938-4.9531h4.1719c0-0.42578-0.085937-0.78906-0.25-1.0938-0.15625-0.3125-0.38281-0.55078-0.67188-0.71875-0.28125-0.16406-0.63281-0.25-1.0469-0.25-0.4375 0-0.82031 0.10156-1.1406 0.29688-0.32422 0.19922-0.57422 0.45312-0.75 0.76562-0.17969 0.3125-0.28125 0.64844-0.3125 1z"/></g><g id="k"><path d="m1.2344 0v-7.5781c0.30078-0.070313 0.69531-0.16016 1.1875-0.26562 0.48828-0.10156 1.0781-0.15625 1.7656-0.15625 0.78906 0 1.4062 0.15234 1.8438 0.45312 0.4375 0.30469 0.74219 0.72656 0.92188 1.2656 0.1875 0.54297 0.28125 1.1719 0.28125 1.8906v4.3906h-1.0938v-4.0781c0-0.70703-0.070313-1.2734-0.20312-1.7031-0.125-0.42578-0.33984-0.73438-0.64062-0.92188-0.30469-0.19531-0.72656-0.29688-1.2656-0.29688-0.40625 0-0.76562 0.027344-1.0781 0.078125-0.3125 0.054687-0.52344 0.09375-0.625 0.125v6.7969z"/></g><g id="b"><path d="m3.7188 0c-0.64844 0-1.1562-0.11328-1.5312-0.34375-0.375-0.23828-0.64062-0.58594-0.79688-1.0469-0.14844-0.46875-0.21875-1.0469-0.21875-1.7344v-7.1406l1.1094-0.1875v2.4531h2.9688v0.95312h-2.9688v4.0156c0 0.55469 0.054688 0.97656 0.17188 1.2656 0.125 0.29297 0.30078 0.49219 0.53125 0.59375 0.22656 0.10547 0.5 0.15625 0.8125 0.15625 0.375 0 0.6875-0.039063 0.9375-0.125 0.25-0.09375 0.44531-0.17578 0.59375-0.25l0.23438 0.92188c-0.14844 0.085938-0.39062 0.18359-0.73438 0.29688-0.33594 0.11719-0.70312 0.17188-1.1094 0.17188z"/></g><g id="h"><path d="m3.2812 0c-0.46875 0-0.85938-0.066406-1.1719-0.20312-0.30469-0.14453-0.52734-0.36328-0.67188-0.65625-0.14844-0.30078-0.21875-0.70703-0.21875-1.2188v-9.5625l1.0938-0.1875v9.6719c0 0.48047 0.082031 0.79297 0.25 0.9375 0.17578 0.13672 0.47266 0.23438 0.89062 0.29688z"/></g><g id="t"><path d="m1.125 3c-0.24219 0-0.46875-0.03125-0.6875-0.09375-0.21094-0.054688-0.35156-0.10156-0.42188-0.14062l0.21875-0.92188c0.0625 0.03125 0.17969 0.070312 0.35938 0.125 0.1875 0.0625 0.375 0.09375 0.5625 0.09375 0.36328 0 0.67188-0.0625 0.92188-0.1875 0.25781-0.11719 0.48438-0.30859 0.67188-0.57812 0.19531-0.27344 0.37891-0.63281 0.54688-1.0781-0.41797-0.83203-0.8125-1.7031-1.1875-2.6094-0.375-0.91406-0.72656-1.8477-1.0469-2.7969-0.3125-0.95703-0.57422-1.8945-0.78125-2.8125h1.1562c0.10156 0.49219 0.23438 1.0234 0.39062 1.5938 0.16406 0.5625 0.34766 1.1484 0.54688 1.75 0.20703 0.60547 0.42969 1.2188 0.67188 1.8438 0.25 0.61719 0.50781 1.2266 0.78125 1.8281 0.26953-0.82031 0.50781-1.5977 0.71875-2.3281 0.20703-0.73828 0.39844-1.4883 0.57812-2.25 0.17578-0.75781 0.35156-1.5703 0.53125-2.4375h1.1094c-0.21875 1-0.46094 1.9922-0.71875 2.9688-0.26172 0.96875-0.53906 1.9062-0.82812 2.8125-0.28125 0.89844-0.58594 1.7422-0.90625 2.5312-0.24219 0.625-0.5 1.1328-0.78125 1.5312-0.27344 0.40625-0.59375 0.69531-0.96875 0.875-0.375 0.1875-0.85547 0.28125-1.4375 0.28125z"/></g><g id="ae"><path d="m1.4844 2.3906-0.82812-0.32812c0.22656-0.46875 0.39062-0.95312 0.48438-1.4531s0.14062-1 0.14062-1.5c0-0.082031-0.00781-0.15625-0.015625-0.21875v-0.21875c0-0.070313-0.00781-0.14062-0.015625-0.20312h1.2188c0.00781 0.10547 0.015625 0.19922 0.015625 0.28125v0.17188c0 0.61719-0.089844 1.2188-0.26562 1.8125-0.17969 0.60156-0.42188 1.1562-0.73438 1.6562z"/></g><g id="s"><path d="m1.2344 0v-11.547l1.0938-0.1875v4.0781c0.28906-0.10156 0.59375-0.1875 0.90625-0.25 0.32031-0.0625 0.63281-0.09375 0.9375-0.09375 0.80078 0 1.4219 0.15234 1.8594 0.45312 0.4375 0.30469 0.74219 0.72656 0.92188 1.2656 0.1875 0.54297 0.28125 1.1719 0.28125 1.8906v4.3906h-1.0938v-4.0781c0-0.70703-0.070313-1.2734-0.20312-1.7031-0.125-0.42578-0.33984-0.73438-0.64062-0.92188-0.30469-0.19531-0.73047-0.29688-1.2812-0.29688-0.19922 0-0.41797 0.027344-0.65625 0.078125-0.24219 0.042969-0.45312 0.089844-0.64062 0.14062-0.1875 0.042969-0.32031 0.078125-0.39062 0.10938v6.6719z"/></g><g id="as"><path d="m1.2344 0v-8.8281c0-1.0391 0.23438-1.8281 0.70312-2.3594 0.46875-0.53906 1.1875-0.8125 2.1562-0.8125 0.39453 0 0.72656 0.03125 1 0.09375 0.26953 0.0625 0.45703 0.125 0.5625 0.1875l-0.23438 0.96875c-0.11719-0.0625-0.27734-0.11719-0.48438-0.17188-0.21094-0.050781-0.46875-0.078125-0.78125-0.078125-0.65625 0-1.125 0.17969-1.4062 0.53125-0.28125 0.34375-0.42188 0.90234-0.42188 1.6719v0.79688h3.0156v0.95312h-3.0156v7.0469z"/></g><g id="e"><path d="m4.2812 0c-0.67969 0-1.2812-0.16406-1.8125-0.5-0.52344-0.33203-0.93359-0.79688-1.2344-1.3906-0.29297-0.60156-0.4375-1.3047-0.4375-2.1094 0-0.80078 0.14453-1.5 0.4375-2.0938 0.30078-0.60156 0.71094-1.0703 1.2344-1.4062 0.53125-0.33203 1.1328-0.5 1.8125-0.5 0.6875 0 1.2891 0.16797 1.8125 0.5 0.53125 0.33594 0.94531 0.80469 1.25 1.4062 0.30078 0.59375 0.45312 1.293 0.45312 2.0938 0 0.80469-0.15234 1.5078-0.45312 2.1094-0.30469 0.59375-0.71484 1.0586-1.2344 1.3906-0.52344 0.33594-1.1328 0.5-1.8281 0.5zm0-1.0156c0.48828 0 0.91016-0.11719 1.2656-0.35938 0.35156-0.25 0.625-0.59766 0.8125-1.0469 0.1875-0.44531 0.28125-0.97266 0.28125-1.5781 0-0.60156-0.09375-1.1289-0.28125-1.5781-0.1875-0.44531-0.46094-0.78906-0.8125-1.0312-0.35547-0.25-0.77734-0.375-1.2656-0.375-0.48047 0-0.89844 0.125-1.25 0.375-0.34375 0.24219-0.61719 0.58594-0.8125 1.0312-0.1875 0.44922-0.28125 0.97656-0.28125 1.5781 0 0.60547 0.09375 1.1328 0.28125 1.5781 0.19531 0.44922 0.46875 0.79688 0.8125 1.0469 0.35156 0.24219 0.76953 0.35938 1.25 0.35938z"/></g><g id="q"><path d="m1.2344 0v-7.5781c0.30078-0.070313 0.6875-0.16016 1.1562-0.26562 0.46875-0.10156 1.0508-0.15625 1.75-0.15625 0.48828 0 0.90625 0.074219 1.25 0.21875 0.34375 0.13672 0.625 0.34375 0.84375 0.625 0.09375-0.0625 0.25-0.16016 0.46875-0.29688 0.22656-0.13281 0.51562-0.25781 0.85938-0.375 0.34375-0.11328 0.73828-0.17188 1.1875-0.17188 0.78125 0 1.3672 0.15625 1.7656 0.46875 0.39453 0.30469 0.66016 0.72656 0.79688 1.2656 0.13281 0.54297 0.20312 1.168 0.20312 1.875v4.3906h-1.0938v-4.0781c0-0.65625-0.04687-1.1953-0.14062-1.625-0.08594-0.4375-0.25781-0.75781-0.51562-0.96875-0.25-0.21875-0.625-0.32812-1.125-0.32812-0.36719 0-0.68359 0.042969-0.95312 0.125-0.26172 0.085938-0.48047 0.1875-0.65625 0.3125-0.16797 0.11719-0.29297 0.19922-0.375 0.25 0.09375 0.26172 0.16016 0.55469 0.20312 0.875 0.039063 0.3125 0.0625 0.64844 0.0625 1v4.4375h-1.0938v-4.0781c0-0.65625-0.046875-1.1953-0.14062-1.625-0.085938-0.4375-0.25781-0.75781-0.51562-0.96875-0.26172-0.21875-0.65234-0.32812-1.1719-0.32812-0.28125 0-0.53906 0.015625-0.76562 0.046875-0.23047 0.023437-0.42188 0.046875-0.57812 0.078125-0.14844 0.03125-0.25781 0.058594-0.32812 0.078125v6.7969z"/></g><g id="j"><path d="m4.4375 0c-0.80469 0-1.4766-0.16406-2.0156-0.5-0.54297-0.33203-0.94922-0.79688-1.2188-1.3906-0.27344-0.60156-0.40625-1.3008-0.40625-2.0938 0-0.78906 0.14062-1.4844 0.42188-2.0781 0.28125-0.60156 0.6875-1.0781 1.2188-1.4219 0.53906-0.34375 1.1758-0.51562 1.9062-0.51562 0.39453 0 0.77344 0.039062 1.1406 0.10938 0.36328 0.074219 0.64844 0.16406 0.85938 0.26562l-0.28125 0.95312c-0.19922-0.082031-0.42188-0.15625-0.67188-0.21875-0.24219-0.0625-0.55859-0.09375-0.95312-0.09375-0.8125 0-1.4336 0.26562-1.8594 0.79688-0.42969 0.52344-0.64062 1.2578-0.64062 2.2031 0 0.59375 0.085938 1.1172 0.26562 1.5625 0.17578 0.4375 0.45703 0.78125 0.84375 1.0312 0.39453 0.25 0.91406 0.375 1.5625 0.375 0.375 0 0.70703-0.039063 1-0.125 0.28906-0.082031 0.50391-0.16016 0.64062-0.23438l0.21875 0.95312c-0.1875 0.09375-0.47656 0.1875-0.85938 0.28125-0.375 0.09375-0.76562 0.14062-1.1719 0.14062z"/></g><g id="p"><path d="m4.0312 0c-0.42969 0-0.82031-0.019531-1.1719-0.0625-0.35547-0.050781-0.66797-0.10938-0.9375-0.17188-0.26172-0.070313-0.49219-0.13281-0.6875-0.1875v-11.109l1.0938-0.1875v4.3281c0.17578-0.13281 0.44141-0.26953 0.79688-0.40625 0.36328-0.13281 0.78125-0.20312 1.25-0.20312 0.72656 0 1.3477 0.17188 1.8594 0.51562 0.50781 0.34375 0.89844 0.82031 1.1719 1.4219 0.26953 0.59375 0.40625 1.2812 0.40625 2.0625 0 0.82422-0.16406 1.5312-0.48438 2.125-0.3125 0.59375-0.75 1.0586-1.3125 1.3906-0.5625 0.32422-1.2266 0.48438-1.9844 0.48438zm-0.015625-1.0156c0.53125 0 0.99219-0.11328 1.3906-0.34375 0.39453-0.23828 0.69531-0.57812 0.90625-1.0156 0.21875-0.44531 0.32812-0.98828 0.32812-1.625 0-0.41406-0.042969-0.80078-0.125-1.1562-0.085937-0.36328-0.21875-0.67969-0.40625-0.95312-0.1875-0.28125-0.4375-0.49219-0.75-0.64062-0.30469-0.15625-0.67969-0.23438-1.125-0.23438-0.41797 0-0.79688 0.074219-1.1406 0.21875-0.34375 0.13672-0.60156 0.27344-0.76562 0.40625v5.1562c0.13281 0.042969 0.34375 0.085937 0.625 0.125 0.28125 0.042969 0.63281 0.0625 1.0625 0.0625z"/></g><g id="d"><path d="m3.625 3c-0.48047 0-0.92969-0.042969-1.3438-0.125-0.40625-0.074219-0.75781-0.16406-1.0469-0.26562l0.21875-0.95312c0.23828 0.082031 0.55469 0.16406 0.95312 0.25 0.40625 0.082031 0.82031 0.125 1.25 0.125 0.58203 0 1.0547-0.074219 1.4219-0.21875 0.36328-0.14844 0.62891-0.375 0.79688-0.6875 0.17578-0.3125 0.26562-0.73047 0.26562-1.25v-0.46875c-0.14844 0.10547-0.38672 0.23047-0.71875 0.375-0.32422 0.14844-0.74609 0.21875-1.2656 0.21875-0.60547 0-1.1641-0.13281-1.6719-0.40625-0.51172-0.26953-0.92188-0.69141-1.2344-1.2656-0.30469-0.58203-0.45312-1.3438-0.45312-2.2812 0-0.76953 0.14062-1.457 0.42188-2.0625 0.28906-0.61328 0.70703-1.0977 1.25-1.4531 0.53906-0.35156 1.1914-0.53125 1.9531-0.53125 0.67578 0 1.2383 0.054688 1.6875 0.15625 0.44531 0.09375 0.8125 0.18359 1.0938 0.26562v7.2188c0 1.1953-0.29688 2.0547-0.89062 2.5781-0.59375 0.51953-1.4922 0.78125-2.6875 0.78125zm0.57812-4c0.39453 0 0.76562-0.0625 1.1094-0.1875 0.35156-0.125 0.625-0.27344 0.8125-0.45312v-5.1562c-0.15625-0.050781-0.36719-0.097656-0.625-0.14062-0.25-0.039062-0.60547-0.0625-1.0625-0.0625-0.53125 0-0.98438 0.13281-1.3594 0.39062-0.36719 0.25-0.64844 0.60938-0.84375 1.0781-0.19922 0.46094-0.29688 0.99219-0.29688 1.5938 0 0.53125 0.0625 0.98438 0.1875 1.3594 0.125 0.36719 0.29688 0.66797 0.51562 0.90625 0.21875 0.24219 0.45703 0.41406 0.71875 0.51562 0.26953 0.10547 0.55078 0.15625 0.84375 0.15625z"/></g><g id="g"><path d="m2.8594 0c-0.65625 0-1.168-0.054688-1.5312-0.17188-0.36719-0.125-0.60938-0.21094-0.73438-0.26562l0.25-0.98438c0.11328 0.042969 0.33594 0.125 0.67188 0.25 0.33203 0.125 0.78125 0.1875 1.3438 0.1875 0.53906 0 0.97656-0.082031 1.3125-0.25 0.33203-0.16406 0.5-0.45703 0.5-0.875 0-0.25781-0.0625-0.46875-0.1875-0.625-0.11719-0.16406-0.30469-0.31641-0.5625-0.45312-0.26172-0.13281-0.61719-0.28906-1.0625-0.46875-0.38672-0.15625-0.74219-0.32031-1.0625-0.5-0.3125-0.17578-0.57422-0.39844-0.78125-0.67188-0.19922-0.28125-0.29688-0.64062-0.29688-1.0781 0-0.41406 0.10156-0.78125 0.3125-1.0938 0.21875-0.3125 0.52344-0.55469 0.92188-0.73438 0.39453-0.17578 0.86719-0.26562 1.4219-0.26562 0.50781 0 0.9375 0.046875 1.2812 0.14062 0.35156 0.09375 0.60156 0.17188 0.75 0.23438l-0.23438 0.96875c-0.13672-0.070312-0.34375-0.14844-0.625-0.23438-0.28125-0.09375-0.68359-0.14062-1.2031-0.14062-0.40625 0-0.76562 0.089844-1.0781 0.26562-0.30469 0.16797-0.45312 0.4375-0.45312 0.8125 0 0.26172 0.0625 0.47656 0.1875 0.64062 0.13281 0.16797 0.32812 0.3125 0.57812 0.4375 0.25781 0.125 0.57031 0.26172 0.9375 0.40625 0.42578 0.16797 0.80469 0.33984 1.1406 0.51562 0.34375 0.17969 0.61328 0.41406 0.8125 0.70312 0.20703 0.28125 0.3125 0.66406 0.3125 1.1406 0 0.44922-0.12109 0.83594-0.35938 1.1562-0.23047 0.32422-0.5625 0.5625-1 0.71875s-0.96094 0.23438-1.5625 0.23438z"/></g><g id="l"><path d="m1.2344 0v-8h1.0938v8zm0.5625-10.359c-0.21875 0-0.40625-0.07031-0.5625-0.21875-0.14844-0.15625-0.21875-0.35938-0.21875-0.60938 0-0.23828 0.070313-0.42969 0.21875-0.57812 0.15625-0.15625 0.34375-0.23438 0.5625-0.23438 0.20703 0 0.38281 0.07813 0.53125 0.23438 0.15625 0.14844 0.23438 0.33984 0.23438 0.57812 0 0.25-0.078125 0.45312-0.23438 0.60938-0.14844 0.14844-0.32422 0.21875-0.53125 0.21875z"/></g><g id="ar"><path d="m3.7188 2.7969c-0.5-0.64844-0.94531-1.3516-1.3281-2.1094-0.375-0.75781-0.66797-1.5781-0.875-2.4531-0.21094-0.875-0.3125-1.7891-0.3125-2.75 0-0.95703 0.10156-1.8672 0.3125-2.7344 0.20703-0.875 0.5-1.6914 0.875-2.4531 0.38281-0.76953 0.82812-1.4727 1.3281-2.1094l0.78125 0.54688c-0.5 0.64844-0.91406 1.3242-1.2344 2.0312-0.32422 0.69922-0.57031 1.4375-0.73438 2.2188-0.15625 0.78125-0.23438 1.6172-0.23438 2.5 0 1.3359 0.17969 2.5547 0.54688 3.6562 0.36328 1.1016 0.91406 2.1406 1.6562 3.1094z"/></g><g id="f"><path d="m1.2344 3v-10.578c0.19531-0.0625 0.42578-0.125 0.6875-0.1875 0.26953-0.0625 0.58203-0.11328 0.9375-0.15625 0.35156-0.050781 0.74219-0.078125 1.1719-0.078125 0.75781 0 1.4219 0.16406 1.9844 0.48438 0.5625 0.32422 1 0.78906 1.3125 1.3906 0.32031 0.59375 0.48438 1.3047 0.48438 2.125 0 0.78125-0.13672 1.4766-0.40625 2.0781-0.27344 0.59375-0.66406 1.0625-1.1719 1.4062-0.51172 0.34375-1.1328 0.51562-1.8594 0.51562-0.46875 0-0.88672-0.066406-1.25-0.20312-0.35547-0.13281-0.62109-0.26953-0.79688-0.40625v3.6094zm3-4.0156c0.44531 0 0.82031-0.070313 1.125-0.21875 0.3125-0.15625 0.5625-0.36719 0.75-0.64062 0.1875-0.28125 0.32031-0.59766 0.40625-0.95312 0.082031-0.36328 0.125-0.75 0.125-1.1562 0-0.63281-0.10938-1.1758-0.32812-1.625-0.21094-0.45703-0.51172-0.80078-0.90625-1.0312-0.39844-0.23828-0.85938-0.35938-1.3906-0.35938-0.42969 0-0.78125 0.023438-1.0625 0.0625-0.28125 0.042969-0.49219 0.085938-0.625 0.125v5.1719c0.16406 0.125 0.42188 0.26172 0.76562 0.40625 0.34375 0.14844 0.72266 0.21875 1.1406 0.21875z"/></g><g id="aq"><path d="m0.90625 2.7969-0.78125-0.54688c0.5-0.64844 0.91016-1.3242 1.2344-2.0312 0.32031-0.69531 0.5625-1.4375 0.71875-2.2188 0.15625-0.78906 0.23438-1.6289 0.23438-2.5156 0-0.88281-0.078125-1.7188-0.23438-2.5s-0.39844-1.5195-0.71875-2.2188c-0.32422-0.70703-0.73438-1.3828-1.2344-2.0312l0.78125-0.54688c0.5 0.63672 0.9375 1.3398 1.3125 2.1094 0.38281 0.76172 0.67969 1.5781 0.89062 2.4531 0.21875 0.86719 0.32812 1.7773 0.32812 2.7344 0 0.96094-0.10938 1.875-0.32812 2.75-0.21094 0.875-0.50781 1.6953-0.89062 2.4531-0.375 0.75781-0.8125 1.4609-1.3125 2.1094z"/></g><g id="r"><path d="m4.5469 0c-0.74219 0-1.3984-0.16016-1.9688-0.48438-0.5625-0.32031-1-0.78125-1.3125-1.375s-0.46875-1.3047-0.46875-2.1406c0-0.78125 0.12891-1.4688 0.39062-2.0625 0.26953-0.60156 0.66016-1.0781 1.1719-1.4219 0.51953-0.34375 1.1406-0.51562 1.8594-0.51562 0.47656 0 0.89453 0.070312 1.25 0.20312 0.35156 0.13672 0.61719 0.27344 0.79688 0.40625v-4.1406l1.0781-0.1875v11.297c-0.17969 0.054687-0.40625 0.11719-0.6875 0.1875-0.27344 0.0625-0.58594 0.12109-0.9375 0.17188-0.34375 0.042969-0.73438 0.0625-1.1719 0.0625zm0.015625-1.0156c0.42578 0 0.78125-0.019531 1.0625-0.0625 0.28125-0.039063 0.49219-0.082031 0.64062-0.125v-5.1562c-0.16797-0.13281-0.42188-0.26953-0.76562-0.40625-0.34375-0.14453-0.73047-0.21875-1.1562-0.21875-0.4375 0-0.8125 0.078125-1.125 0.23438-0.30469 0.14844-0.55469 0.35938-0.75 0.64062-0.1875 0.27344-0.32422 0.58984-0.40625 0.95312-0.085938 0.35547-0.125 0.74219-0.125 1.1562 0 0.63672 0.10938 1.1797 0.32812 1.625 0.21875 0.4375 0.52344 0.77734 0.92188 1.0156 0.39453 0.23047 0.85156 0.34375 1.375 0.34375z"/></g><g id="a"><path d="m3.5312 0c-0.54297 0-1.0312-0.078125-1.4688-0.23438-0.42969-0.16406-0.76562-0.4375-1.0156-0.8125-0.24219-0.375-0.35938-0.86328-0.35938-1.4688 0-0.57031 0.13281-1.0391 0.40625-1.4062 0.28125-0.36328 0.66016-0.625 1.1406-0.78125 0.48828-0.16406 1.0352-0.25 1.6406-0.25 0.26953 0 0.55469 0.027344 0.85938 0.078125 0.30078 0.042969 0.49219 0.085938 0.57812 0.125v-0.40625c0-0.30078-0.042969-0.59375-0.125-0.875-0.085938-0.28906-0.25781-0.52344-0.51562-0.70312-0.25-0.1875-0.63672-0.28125-1.1562-0.28125-0.53125 0-0.94531 0.039063-1.2344 0.10938-0.28125 0.074219-0.49219 0.13281-0.625 0.17188l-0.14062-0.9375c0.17578-0.082031 0.44141-0.15625 0.79688-0.21875 0.36328-0.070313 0.78906-0.10938 1.2812-0.10938 0.69531 0 1.25 0.125 1.6562 0.375s0.69531 0.58984 0.875 1.0156c0.17578 0.42969 0.26562 0.91797 0.26562 1.4688v4.7969c-0.19922 0.054688-0.5625 0.125-1.0938 0.21875-0.53125 0.085938-1.1211 0.125-1.7656 0.125zm0.17188-0.96875c0.33203 0 0.63281-0.007812 0.90625-0.03125 0.28125-0.03125 0.51562-0.066406 0.70312-0.10938v-2.7031c-0.09375-0.050781-0.26172-0.10156-0.5-0.15625-0.24219-0.050781-0.54297-0.078125-0.90625-0.078125-0.3125 0-0.63281 0.039063-0.95312 0.10938-0.32422 0.0625-0.60156 0.21094-0.82812 0.4375-0.21875 0.21875-0.32812 0.54297-0.32812 0.96875 0 0.58594 0.17188 0.99219 0.51562 1.2188 0.34375 0.23047 0.80469 0.34375 1.3906 0.34375z"/></g><g id="m"><path d="m1.7969 0c-0.26172 0-0.46875-0.082031-0.625-0.25-0.15625-0.17578-0.23438-0.39062-0.23438-0.64062 0-0.25781 0.078125-0.47266 0.23438-0.64062 0.15625-0.16406 0.36328-0.25 0.625-0.25 0.26953 0 0.48438 0.085938 0.64062 0.25 0.15625 0.16797 0.23438 0.38281 0.23438 0.64062 0 0.25-0.078125 0.46484-0.23438 0.64062-0.15625 0.16797-0.37109 0.25-0.64062 0.25z"/></g><g id="aa"><path d="m1.3125 0v-9.7188c0.36328-0.09375 0.78516-0.16016 1.2656-0.20312 0.48828-0.050781 0.94141-0.078125 1.3594-0.078125 1.4375 0 2.5156 0.26562 3.2344 0.79688 0.71875 0.52344 1.0781 1.2734 1.0781 2.25 0 0.74219-0.18359 1.3359-0.54688 1.7812-0.35547 0.44922-0.86719 0.77344-1.5312 0.96875-0.66797 0.19922-1.4766 0.29688-2.4219 0.29688h-1.2969v3.9062zm1.1406-4.9062h1.2031c0.6875 0 1.2852-0.054688 1.7969-0.17188 0.50781-0.11328 0.90625-0.31641 1.1875-0.60938 0.28125-0.28906 0.42188-0.71094 0.42188-1.2656 0-0.53906-0.15234-0.95312-0.45312-1.2344-0.29297-0.28906-0.67188-0.49219-1.1406-0.60938-0.46875-0.125-0.96875-0.1875-1.5-0.1875-0.33594 0-0.625 0.011719-0.875 0.03125-0.25 0.023437-0.46484 0.042969-0.64062 0.0625z"/></g><g id="z"><path d="m2.8438 0c-0.23047-0.5625-0.46094-1.1445-0.6875-1.75-0.23047-0.61328-0.45312-1.2539-0.67188-1.9219-0.21094-0.66406-0.41406-1.3594-0.60938-2.0781-0.1875-0.71875-0.37109-1.4688-0.54688-2.25h1.1562c0.10156 0.52344 0.22656 1.0898 0.375 1.7031 0.15625 0.60547 0.32031 1.2148 0.5 1.8281 0.17578 0.60547 0.35156 1.1797 0.53125 1.7188 0.1875 0.54297 0.35938 1.0156 0.51562 1.4219 0.23828-0.6875 0.47266-1.4141 0.70312-2.1875 0.23828-0.78125 0.45703-1.5547 0.65625-2.3281 0.20703-0.78125 0.37891-1.5 0.51562-2.1562h0.90625c0.125 0.65625 0.28516 1.375 0.48438 2.1562 0.19531 0.77344 0.41406 1.5469 0.65625 2.3281 0.23828 0.78125 0.48438 1.5156 0.73438 2.2031 0.15625-0.40625 0.32031-0.87891 0.5-1.4219 0.17578-0.53906 0.35156-1.1172 0.53125-1.7344 0.17578-0.61328 0.33594-1.2227 0.48438-1.8281 0.15625-0.61328 0.28906-1.1797 0.40625-1.7031h1.0938c-0.1875 0.78125-0.38281 1.5312-0.57812 2.25-0.1875 0.71875-0.39062 1.4141-0.60938 2.0781-0.21094 0.66797-0.42969 1.3086-0.65625 1.9219-0.21875 0.60547-0.45312 1.1875-0.70312 1.75h-0.96875c-0.1875-0.47656-0.39062-1.0234-0.60938-1.6406-0.21875-0.625-0.4375-1.2891-0.65625-2-0.21875-0.70703-0.42188-1.4375-0.60938-2.1875-0.17969 0.75-0.375 1.4805-0.59375 2.1875-0.21875 0.71094-0.4375 1.375-0.65625 2-0.21094 0.61719-0.40625 1.1641-0.59375 1.6406z"/></g><g id="y"><path d="m1.2344 0v-11.703l1.0938-0.1875v7.4062c0.23828-0.25 0.50391-0.52344 0.79688-0.82812 0.28906-0.3125 0.58594-0.62891 0.89062-0.95312 0.30078-0.33203 0.58203-0.64844 0.84375-0.95312 0.26953-0.30078 0.5-0.5625 0.6875-0.78125h1.3125c-0.30469 0.33594-0.65234 0.71484-1.0469 1.1406-0.39844 0.42969-0.79688 0.85938-1.2031 1.2969s-0.78125 0.83594-1.125 1.1875c0.32031 0.23047 0.64844 0.51562 0.98438 0.85938 0.33203 0.34375 0.66406 0.71875 1 1.125 0.33203 0.39844 0.64453 0.80469 0.9375 1.2188 0.28906 0.40625 0.53516 0.79688 0.73438 1.1719h-1.2656c-0.30469-0.51953-0.65625-1.0352-1.0625-1.5469-0.40625-0.51953-0.82812-0.98828-1.2656-1.4062-0.42969-0.41406-0.83594-0.75391-1.2188-1.0156v3.9688z"/></g><g id="ap"><path d="m1.0781-0.21875v-8.0469c0-0.95703 0.23438-1.6797 0.70312-2.1719 0.47656-0.48828 1.2031-0.73438 2.1719-0.73438 0.40625 0 0.74219 0.03906 1.0156 0.10938 0.26953 0.0625 0.45703 0.12109 0.5625 0.17188l-0.25 0.89062c-0.11719-0.03906-0.27734-0.08203-0.48438-0.125-0.21094-0.05078-0.46875-0.07813-0.78125-0.07813-0.66797 0-1.1406 0.14062-1.4219 0.42188-0.28125 0.28126-0.42188 0.72657-0.42188 1.3281v0.64062h3.0156v0.92188h-3.0156v6.6719zm5.75 0v-8.0469c0-0.95703 0.23438-1.6797 0.70312-2.1719 0.46875-0.48828 1.1875-0.73438 2.1562-0.73438 0.39453 0 0.72656 0.03906 1 0.10938 0.26953 0.0625 0.45312 0.12109 0.54688 0.17188l-0.21875 0.89062c-0.11719-0.03906-0.27734-0.08203-0.48438-0.125-0.21094-0.05078-0.47656-0.07813-0.79688-0.07813-0.64844 0-1.1094 0.14062-1.3906 0.42188-0.28125 0.28126-0.42188 0.72657-0.42188 1.3281v0.64062h3.0156v0.92188h-3.0156v6.6719z"/></g><g id="v"><path d="m3.0625 0c-0.24219-0.53906-0.49219-1.125-0.75-1.75-0.25-0.63281-0.5-1.2891-0.75-1.9688-0.24219-0.67578-0.46875-1.375-0.6875-2.0938s-0.41797-1.4453-0.59375-2.1875h1.1562c0.15625 0.71875 0.35156 1.4844 0.59375 2.2969 0.23828 0.8125 0.5 1.6094 0.78125 2.3906s0.54688 1.4648 0.79688 2.0469c0.19531-0.4375 0.39453-0.92969 0.59375-1.4844 0.20703-0.55078 0.41016-1.1289 0.60938-1.7344 0.19531-0.60156 0.37891-1.207 0.54688-1.8125 0.16406-0.60156 0.30469-1.1719 0.42188-1.7031h1.0938c-0.17969 0.74219-0.375 1.4688-0.59375 2.1875s-0.45312 1.418-0.70312 2.0938c-0.24219 0.67969-0.48438 1.3359-0.73438 1.9688-0.25 0.625-0.5 1.2109-0.75 1.75z"/></g><g id="ao"><path d="m3.5 0v-8.9844h-3.2344v-1.0156h7.6094v1.0156h-3.2188v8.9844z"/></g><g id="an"><path d="m-0.34375 3 5-15h1.0781l-4.9531 15z"/></g><g id="am"><path d="m9.5156 2.6094c-0.40625-0.0625-0.83594-0.15234-1.2812-0.26562-0.4375-0.10547-0.85547-0.25781-1.25-0.45312-0.38672-0.1875-0.71875-0.4375-1-0.75-0.27344-0.30469-0.45312-0.68359-0.54688-1.1406-0.82422 0-1.5781-0.19141-2.2656-0.57812-0.6875-0.38281-1.2422-0.94531-1.6562-1.6875-0.41797-0.73828-0.625-1.6445-0.625-2.7188 0-0.82031 0.125-1.5469 0.375-2.1719 0.25781-0.625 0.61328-1.1445 1.0625-1.5625 0.44531-0.42578 0.95703-0.74219 1.5312-0.95312 0.57031-0.21875 1.1797-0.32812 1.8281-0.32812 0.875 0 1.6719 0.1875 2.3906 0.5625 0.72656 0.375 1.3125 0.93359 1.75 1.6719 0.4375 0.74219 0.65625 1.6641 0.65625 2.7656 0 0.96875-0.17188 1.8047-0.51562 2.5-0.34375 0.69922-0.8125 1.25-1.4062 1.6562-0.58594 0.40625-1.2344 0.67188-1.9531 0.79688 0.050781 0.35156 0.23828 0.64453 0.5625 0.875 0.33203 0.22656 0.72656 0.40625 1.1875 0.53125 0.45703 0.125 0.92188 0.22266 1.3906 0.29688zm-3.8281-3.625c0.73828 0 1.375-0.16016 1.9062-0.48438 0.53906-0.32031 0.95703-0.78125 1.25-1.375 0.28906-0.59375 0.4375-1.2969 0.4375-2.1094 0-0.82031-0.14844-1.5312-0.4375-2.125-0.29297-0.59375-0.71094-1.0469-1.25-1.3594-0.53125-0.32031-1.168-0.48438-1.9062-0.48438-0.73047 0-1.3672 0.16406-1.9062 0.48438-0.53125 0.3125-0.94922 0.76562-1.25 1.3594-0.29297 0.59375-0.4375 1.3047-0.4375 2.125 0 0.8125 0.14453 1.5156 0.4375 2.1094 0.30078 0.59375 0.71875 1.0547 1.25 1.375 0.53906 0.32422 1.1758 0.48438 1.9062 0.48438z"/></g><g id="al"><path d="m1.7969 0c-0.26172 0-0.46875-0.082031-0.625-0.25-0.15625-0.17578-0.23438-0.39062-0.23438-0.64062 0-0.25781 0.078125-0.47266 0.23438-0.64062 0.15625-0.16406 0.36328-0.25 0.625-0.25 0.26953 0 0.48438 0.085938 0.64062 0.25 0.15625 0.16797 0.23438 0.38281 0.23438 0.64062 0 0.25-0.078125 0.46484-0.23438 0.64062-0.15625 0.16797-0.37109 0.25-0.64062 0.25zm0-6.2188c-0.26172 0-0.46875-0.082031-0.625-0.25-0.15625-0.17578-0.23438-0.39062-0.23438-0.64062s0.078125-0.45703 0.23438-0.625c0.15625-0.17578 0.36328-0.26562 0.625-0.26562 0.26953 0 0.48438 0.089844 0.64062 0.26562 0.15625 0.16797 0.23438 0.375 0.23438 0.625s-0.078125 0.46484-0.23438 0.64062c-0.15625 0.16797-0.37109 0.25-0.64062 0.25z"/></g><g id="i"><path d="m-0.0625 2.9844v-0.96875h7.3438v0.96875z"/></g><g id="ak"><path d="m6.2656 3v-3.6094c-0.17969 0.13672-0.44922 0.27344-0.8125 0.40625-0.35547 0.13672-0.77344 0.20312-1.25 0.20312-0.71875 0-1.3398-0.17188-1.8594-0.51562-0.51172-0.34375-0.89844-0.8125-1.1562-1.4062-0.26172-0.60156-0.39062-1.2969-0.39062-2.0781 0-0.82031 0.15625-1.5312 0.46875-2.125 0.3125-0.60156 0.75-1.0664 1.3125-1.3906 0.57031-0.32031 1.2266-0.48438 1.9688-0.48438 0.4375 0 0.82812 0.027344 1.1719 0.078125 0.35156 0.042969 0.66406 0.09375 0.9375 0.15625 0.28125 0.0625 0.50781 0.125 0.6875 0.1875v10.578zm-1.9219-4.0156c0.42578 0 0.8125-0.070313 1.1562-0.21875 0.34375-0.14453 0.59766-0.28125 0.76562-0.40625v-5.1719c-0.14844-0.039062-0.35938-0.082031-0.64062-0.125-0.28125-0.039062-0.63672-0.0625-1.0625-0.0625-0.52344 0-0.98047 0.12109-1.375 0.35938-0.39844 0.23047-0.70312 0.57422-0.92188 1.0312-0.21875 0.44922-0.32812 0.99219-0.32812 1.625 0 0.40625 0.039062 0.79297 0.125 1.1562 0.082031 0.35547 0.21875 0.67188 0.40625 0.95312 0.19531 0.27344 0.44531 0.48438 0.75 0.64062 0.3125 0.14844 0.6875 0.21875 1.125 0.21875z"/></g><g id="u"><path d="m0.375 0c0.25781-0.5 0.53125-0.98828 0.8125-1.4688 0.28906-0.47656 0.58594-0.94531 0.89062-1.4062 0.3125-0.46875 0.61719-0.92188 0.92188-1.3594l-2.4844-3.7656h1.2656l1.9219 3 1.9375-3h1.1719l-2.4375 3.7188c0.28906 0.38672 0.59375 0.82031 0.90625 1.2969 0.32031 0.46875 0.63281 0.96094 0.9375 1.4688 0.30078 0.51172 0.57031 1.0156 0.8125 1.5156h-1.1719c-0.14844-0.30078-0.33984-0.64453-0.57812-1.0312-0.24219-0.39453-0.5-0.8125-0.78125-1.25-0.27344-0.4375-0.54297-0.84766-0.8125-1.2344-0.28125 0.38672-0.5625 0.79688-0.84375 1.2344-0.27344 0.42969-0.52734 0.83984-0.76562 1.2344-0.23047 0.39844-0.41797 0.74609-0.5625 1.0469z"/></g><g id="x"><path d="m0.5625 0v-0.78125c0.23828-0.48828 0.53906-1.0234 0.90625-1.6094 0.36328-0.59375 0.75-1.1797 1.1562-1.7656 0.40625-0.59375 0.78906-1.1406 1.1562-1.6406 0.36328-0.5 0.67578-0.91406 0.9375-1.25h-3.9531v-0.95312h5.3125v0.875c-0.21875 0.26172-0.50781 0.62109-0.85938 1.0781-0.35547 0.46094-0.73438 0.98047-1.1406 1.5625-0.40625 0.57422-0.80859 1.168-1.2031 1.7812-0.39844 0.60547-0.74609 1.1875-1.0469 1.75h4.3594v0.95312z"/></g><g id="aj"><path d="m1.3125 0v-10h5.9062v1.0156h-4.7656v2.9844h4.2188v1h-4.2188v5z"/></g><g id="ai"><path d="m1.3125 0v-10h0.90625c0.38281 0.40625 0.78906 0.88281 1.2188 1.4219 0.4375 0.53125 0.875 1.0859 1.3125 1.6562 0.4375 0.57422 0.85938 1.1484 1.2656 1.7188 0.40625 0.57422 0.78125 1.125 1.125 1.6562 0.35156 0.53125 0.65625 1.0078 0.90625 1.4219v-7.875h1.125v10h-0.95312c-0.23047-0.40625-0.52344-0.88281-0.875-1.4375-0.34375-0.55078-0.73047-1.1328-1.1562-1.75-0.41797-0.625-0.85156-1.2422-1.2969-1.8594-0.44922-0.625-0.88672-1.207-1.3125-1.75-0.41797-0.55078-0.79688-1.0195-1.1406-1.4062v8.2031z"/></g><g id="ah"><path d="m1.1094-1.0938-0.3125-0.9375 5.4219-2.3281-5.4219-2.3281 0.3125-0.9375 6.3594 2.7656v1z"/></g><g id="ag"><path d="m7.1406-1.0938-6.3438-2.7656v-1l6.3438-2.7656 0.32812 0.9375-5.4219 2.3281 5.4219 2.3281z"/></g><g id="af"><path d="m3.8438 0c-0.24219 0-0.52344-0.0078125-0.84375-0.03125-0.3125-0.03125-0.62109-0.0625-0.92188-0.09375-0.30469-0.039062-0.55859-0.09375-0.76562-0.15625v-9.4688c0.23828-0.070312 0.50781-0.12891 0.8125-0.17188 0.3125-0.050781 0.61719-0.078125 0.92188-0.078125h0.85938c0.75 0 1.4297 0.074219 2.0469 0.21875 0.625 0.14844 1.125 0.39844 1.5 0.75 0.38281 0.34375 0.57812 0.82422 0.57812 1.4375 0 0.48047-0.13672 0.89062-0.40625 1.2344-0.27344 0.34375-0.63672 0.58984-1.0938 0.73438 0.58203 0.15625 1.0625 0.43359 1.4375 0.82812 0.375 0.39844 0.5625 0.98438 0.5625 1.7656 0 0.99219-0.38672 1.7461-1.1562 2.2656-0.77344 0.51172-1.9492 0.76562-3.5312 0.76562zm0.125-1.0312c0.58203 0 1.1289-0.050781 1.6406-0.15625 0.50781-0.11328 0.92188-0.31641 1.2344-0.60938 0.32031-0.28906 0.48438-0.71094 0.48438-1.2656 0-0.75781-0.25781-1.2734-0.76562-1.5469-0.51172-0.26953-1.2109-0.40625-2.0938-0.40625h-2.0312v3.9219c0.15625 0.042969 0.375 0.0625 0.65625 0.0625h0.875zm-1.5312-4.9531h1.8438c0.48828 0 0.92578-0.039063 1.3125-0.125 0.38281-0.09375 0.69141-0.25 0.92188-0.46875 0.22656-0.21875 0.34375-0.53125 0.34375-0.9375 0-0.53906-0.27344-0.92188-0.8125-1.1406-0.53125-0.22656-1.2305-0.34375-2.0938-0.34375h-0.89062c-0.25 0-0.46094 0.015625-0.625 0.046875z"/></g><g id="ad"><path d="m4.1406 0h-1.4219c-0.52344 0-1.0273-0.070312-1.5156-0.21875v-9.5156c0.48828-0.10156 1.0039-0.17188 1.5469-0.20312 0.55078-0.039062 1.0352-0.0625 1.4531-0.0625 1.1328 0 2.1328 0.17188 3 0.51562 0.86328 0.34375 1.5352 0.88672 2.0156 1.625 0.47656 0.74219 0.71875 1.6953 0.71875 2.8594 0 1.1172-0.24219 2.043-0.71875 2.7812-0.46875 0.74219-1.1406 1.2969-2.0156 1.6719-0.875 0.36719-1.8984 0.54688-3.0625 0.54688zm0.10938-1.7188c1.2188 0 2.1172-0.28906 2.7031-0.875 0.59375-0.58203 0.89062-1.3789 0.89062-2.3906 0-1.0625-0.28906-1.8672-0.85938-2.4219-0.5625-0.5625-1.4531-0.84375-2.6719-0.84375h-0.64062c-0.17969 0-0.32812 0.015625-0.45312 0.046875v6.4531c0.09375 0.023438 0.21875 0.03125 0.375 0.03125h0.65625z"/></g><g id="w"><path d="m3.75 0c-0.63672 0-1.1953-0.082031-1.6719-0.25-0.48047-0.16406-0.85547-0.4375-1.125-0.8125-0.26172-0.375-0.39062-0.88281-0.39062-1.5312 0-0.60156 0.14453-1.0859 0.4375-1.4531 0.30078-0.36328 0.70312-0.625 1.2031-0.78125s1.0312-0.23438 1.5938-0.23438c0.28125 0 0.53906 0.015625 0.78125 0.046875 0.23828 0.023437 0.42188 0.054687 0.54688 0.09375v-0.21875c0-0.23828-0.046875-0.45312-0.14062-0.64062s-0.25781-0.32812-0.48438-0.42188c-0.23047-0.10156-0.54688-0.15625-0.95312-0.15625-0.41797 0-0.79688 0.027344-1.1406 0.078125-0.34375 0.042969-0.625 0.10547-0.84375 0.1875l-0.25-1.5312c0.22656-0.082031 0.56641-0.16406 1.0156-0.25 0.44531-0.082031 0.92188-0.125 1.4219-0.125 0.8125 0 1.4531 0.125 1.9219 0.375s0.80078 0.60547 1 1.0625c0.19531 0.46094 0.29688 1 0.29688 1.625v4.5625c-0.28125 0.054688-0.69922 0.13281-1.25 0.23438-0.55469 0.09375-1.2109 0.14062-1.9688 0.14062zm0.15625-1.5312h0.70312c0.21875 0 0.39062-0.023438 0.51562-0.078125v-2.0156c-0.09375-0.03125-0.23438-0.054688-0.42188-0.078125-0.1875-0.03125-0.38672-0.046875-0.59375-0.046875-0.28125 0-0.54688 0.03125-0.79688 0.09375s-0.45312 0.17188-0.60938 0.32812c-0.15625 0.14844-0.23438 0.37109-0.23438 0.67188 0 0.41797 0.12891 0.71094 0.39062 0.875 0.25781 0.16797 0.60938 0.25 1.0469 0.25z"/></g><g id="ac"><path d="m3.9375 0c-0.76172 0-1.3555-0.13281-1.7812-0.40625-0.41797-0.26953-0.71484-0.64844-0.89062-1.1406-0.16797-0.48828-0.25-1.0781-0.25-1.7656v-6.7031l1.9062-0.3125v2.3281h2.7188v1.625h-2.7188v3.0625c0 0.375 0.039063 0.6875 0.125 0.9375 0.082031 0.24219 0.21875 0.42188 0.40625 0.54688 0.1875 0.11719 0.44141 0.17188 0.76562 0.17188 0.26953 0 0.53125-0.023438 0.78125-0.078125 0.25-0.0625 0.46875-0.12891 0.65625-0.20312l0.28125 1.5312c-0.23047 0.09375-0.50781 0.1875-0.82812 0.28125-0.32422 0.085938-0.71484 0.125-1.1719 0.125z"/></g><clipPath id="bt"><path d="m601 425h1v1h-1z"/></clipPath><clipPath id="bs"><path d="m323 73h278v16h-278z"/></clipPath><clipPath id="bh"><path d="m328 73h250v12h-250z"/></clipPath><clipPath id="az"><path d="m323 89h278v24h-278z"/></clipPath><clipPath id="ay"><path d="m323 113h278v24h-278z"/></clipPath><clipPath id="ax"><path d="m323 137h278v24h-278z"/></clipPath><clipPath id="aw"><path d="m323 161h278v24h-278z"/></clipPath><clipPath id="av"><path d="m323 185h278v24h-278z"/></clipPath><clipPath id="au"><path d="m323 209h278v24h-278z"/></clipPath><clipPath id="at"><path d="m323 233h278v24h-278z"/></clipPath><clipPath id="br"><path d="m323 257h278v24h-278z"/></clipPath><clipPath id="bq"><path d="m323 281h278v24h-278z"/></clipPath><clipPath id="bp"><path d="m323 305h278v24h-278z"/></clipPath><clipPath id="bo"><path d="m323 329h278v24h-278z"/></clipPath><clipPath id="bn"><path d="m323 353h278v24h-278z"/></clipPath><clipPath id="bm"><path d="m323 377h278v24h-278z"/></clipPath><clipPath id="bl"><path d="m323 401h278v24h-278z"/></clipPath><clipPath id="bk"><path d="m561 73h40v352h-40z"/></clipPath><clipPath id="bj"><path d="m323 73h278v40h-278z"/></clipPath><clipPath id="bi"><path d="m529 451h84v32h-84z"/></clipPath><clipPath id="bg"><path d="m528 456c0-3.3047 2.6953-6 6-6h74c3.3047 0 6 2.6953 6 6v22c0 3.3047-2.6953 6-6 6h-74c-3.3047 0-6-2.6953-6-6z"/></clipPath><clipPath id="bf"><path d="m437 451h84v32h-84z"/></clipPath><clipPath id="be"><path d="m436 456c0-3.3047 2.6953-6 6-6h74c3.3047 0 6 2.6953 6 6v22c0 3.3047-2.6953 6-6 6h-74c-3.3047 0-6-2.6953-6-6z"/></clipPath><clipPath id="bd"><path d="m345 451h84v32h-84z"/></clipPath><clipPath id="bc"><path d="m344 456c0-3.3047 2.6953-6 6-6h74c3.3047 0 6 2.6953 6 6v22c0 3.3047-2.6953 6-6 6h-74c-3.3047 0-6-2.6953-6-6z"/></clipPath><clipPath id="bb"><path d="m253 451h84v32h-84z"/></clipPath><clipPath id="ba"><path d="m252 456c0-3.3047 2.6953-6 6-6h74c3.3047 0 6 2.6953 6 6v22c0 3.3047-2.6953 6-6 6h-74c-3.3047 0-6-2.6953-6-6z"/></clipPath><marker id="cm" overflow="visible" markerHeight="5.5999999" markerWidth="7.6999998" orient="auto-start-reverse" preserveAspectRatio="xMidYMid" viewBox="0 0 7.7 5.6"><path transform="scale(.7)" d="m-2-4 11 4-11 4c2-2.33 2-5.66 0-8z" fill="context-stroke" fill-rule="evenodd"/></marker></defs><g transform="translate(1 1)"><rect x="-5.7884e-7" y="-4.3328e-7" width="626" height="496" fill="#fafafa"/><g fill="#3d3d3d"><use x="36" y="62" xlink:href="#ab"/><use x="45" y="62" xlink:href="#n"/><use x="53" y="62" xlink:href="#o"/><use x="59" y="62" xlink:href="#o"/><use x="65" y="62" xlink:href="#c"/><use x="73" y="62" xlink:href="#k"/><use x="81" y="62" xlink:href="#b"/><use x="87" y="62" xlink:href="#h"/><use x="91" y="62" xlink:href="#t"/><use x="98" y="62" xlink:href="#ae"/><use x="102" y="62" xlink:href="#glyph-0-9"/><use x="105" y="62" xlink:href="#b"/><use x="111" y="62" xlink:href="#s"/><use x="119" y="62" xlink:href="#c"/><use x="127" y="62" xlink:href="#glyph-0-9"/><use x="130" y="62" xlink:href="#as"/><use x="136" y="62" xlink:href="#e"/><use x="145" y="62" xlink:href="#o"/><use x="151" y="62" xlink:href="#q"/><use x="164" y="62" xlink:href="#glyph-0-9"/><use x="167" y="62" xlink:href="#b"/><use x="173" y="62" xlink:href="#s"/><use x="181" y="62" xlink:href="#c"/><use x="189" y="62" xlink:href="#glyph-0-9"/><use x="192" y="62" xlink:href="#j"/><use x="199" y="62" xlink:href="#e"/><use x="208" y="62" xlink:href="#k"/><use x="216" y="62" xlink:href="#b"/><use x="222" y="62" xlink:href="#o"/><use x="228" y="62" xlink:href="#e"/><use x="237" y="62" xlink:href="#h"/><use x="241" y="62" xlink:href="#glyph-0-9"/><use x="244" y="62" xlink:href="#p"/><use x="253" y="62" xlink:href="#c"/><use x="261" y="62" xlink:href="#h"/><use x="265" y="62" xlink:href="#e"/><use x="274" y="62" xlink:href="#k"/><use x="282" y="62" xlink:href="#d"/><use x="290" y="62" xlink:href="#g"/><use x="296" y="62" xlink:href="#glyph-0-9"/><use x="299" y="62" xlink:href="#b"/><use x="305" y="62" xlink:href="#e"/><use x="36" y="80" xlink:href="#l"/><use x="40" y="80" xlink:href="#g"/><use x="46" y="80" xlink:href="#glyph-0-9"/><use x="49" y="80" xlink:href="#k"/><use x="57" y="80" xlink:href="#e"/><use x="66" y="80" xlink:href="#b"/><use x="72" y="80" xlink:href="#glyph-0-9"/><use x="75" y="80" xlink:href="#ar"/><use x="80" y="80" xlink:href="#e"/><use x="89" y="80" xlink:href="#o"/><use x="95" y="80" xlink:href="#glyph-0-9"/><use x="98" y="80" xlink:href="#k"/><use x="106" y="80" xlink:href="#e"/><use x="115" y="80" xlink:href="#b"/><use x="121" y="80" xlink:href="#glyph-0-9"/><use x="124" y="80" xlink:href="#j"/><use x="131" y="80" xlink:href="#e"/><use x="140" y="80" xlink:href="#q"/><use x="153" y="80" xlink:href="#f"/><use x="162" y="80" xlink:href="#h"/><use x="166" y="80" xlink:href="#c"/><use x="174" y="80" xlink:href="#b"/><use x="180" y="80" xlink:href="#c"/><use x="188" y="80" xlink:href="#h"/><use x="192" y="80" xlink:href="#t"/><use x="199" y="80" xlink:href="#aq"/><use x="204" y="80" xlink:href="#glyph-0-9"/><use x="207" y="80" xlink:href="#p"/><use x="216" y="80" xlink:href="#e"/><use x="225" y="80" xlink:href="#n"/><use x="233" y="80" xlink:href="#k"/><use x="241" y="80" xlink:href="#r"/><use x="250" y="80" xlink:href="#glyph-0-9"/><use x="253" y="80" xlink:href="#b"/><use x="259" y="80" xlink:href="#e"/><use x="268" y="80" xlink:href="#glyph-0-9"/><use x="271" y="80" xlink:href="#a"/><use x="279" y="80" xlink:href="#glyph-0-9"/><use x="282" y="80" xlink:href="#r"/><use x="291" y="80" xlink:href="#a"/><use x="299" y="80" xlink:href="#b"/><use x="305" y="80" xlink:href="#a"/><use x="36" y="98" xlink:href="#g"/><use x="42" y="98" xlink:href="#e"/><use x="51" y="98" xlink:href="#n"/><use x="59" y="98" xlink:href="#o"/><use x="65" y="98" xlink:href="#j"/><use x="72" y="98" xlink:href="#c"/><use x="80" y="98" xlink:href="#m"/><use x="36" y="134" xlink:href="#aa"/><use x="45" y="134" xlink:href="#h"/><use x="49" y="134" xlink:href="#c"/><use x="57" y="134" xlink:href="#a"/><use x="65" y="134" xlink:href="#g"/><use x="71" y="134" xlink:href="#c"/><use x="79" y="134" xlink:href="#glyph-0-9"/><use x="82" y="134" xlink:href="#j"/><use x="89" y="134" xlink:href="#s"/><use x="97" y="134" xlink:href="#e"/><use x="106" y="134" xlink:href="#e"/><use x="115" y="134" xlink:href="#g"/><use x="121" y="134" xlink:href="#c"/><use x="129" y="134" xlink:href="#glyph-0-9"/><use x="132" y="134" xlink:href="#a"/><use x="140" y="134" xlink:href="#glyph-0-9"/><use x="143" y="134" xlink:href="#r"/><use x="152" y="134" xlink:href="#a"/><use x="160" y="134" xlink:href="#b"/><use x="166" y="134" xlink:href="#a"/><use x="174" y="134" xlink:href="#glyph-0-9"/><use x="177" y="134" xlink:href="#g"/><use x="183" y="134" xlink:href="#e"/><use x="192" y="134" xlink:href="#n"/><use x="200" y="134" xlink:href="#o"/><use x="206" y="134" xlink:href="#j"/><use x="213" y="134" xlink:href="#c"/><use x="221" y="134" xlink:href="#glyph-0-9"/><use x="224" y="134" xlink:href="#a"/><use x="232" y="134" xlink:href="#k"/><use x="240" y="134" xlink:href="#r"/><use x="249" y="134" xlink:href="#glyph-0-9"/><use x="252" y="134" xlink:href="#a"/><use x="260" y="134" xlink:href="#glyph-0-9"/><use x="263" y="134" xlink:href="#b"/><use x="269" y="134" xlink:href="#a"/><use x="277" y="134" xlink:href="#p"/><use x="286" y="134" xlink:href="#h"/><use x="290" y="134" xlink:href="#c"/><use x="298" y="134" xlink:href="#m"/><use x="36" y="188" xlink:href="#aa"/><use x="45" y="188" xlink:href="#h"/><use x="49" y="188" xlink:href="#c"/><use x="57" y="188" xlink:href="#a"/><use x="65" y="188" xlink:href="#g"/><use x="71" y="188" xlink:href="#c"/><use x="79" y="188" xlink:href="#glyph-0-9"/><use x="82" y="188" xlink:href="#k"/><use x="90" y="188" xlink:href="#e"/><use x="99" y="188" xlink:href="#b"/><use x="105" y="188" xlink:href="#c"/><use x="113" y="188" xlink:href="#glyph-0-9"/><use x="116" y="188" xlink:href="#b"/><use x="122" y="188" xlink:href="#s"/><use x="130" y="188" xlink:href="#a"/><use x="138" y="188" xlink:href="#b"/><use x="144" y="188" xlink:href="#glyph-0-9"/><use x="147" y="188" xlink:href="#b"/><use x="153" y="188" xlink:href="#s"/><use x="161" y="188" xlink:href="#c"/><use x="169" y="188" xlink:href="#glyph-0-9"/><use x="172" y="188" xlink:href="#g"/><use x="178" y="188" xlink:href="#c"/><use x="186" y="188" xlink:href="#b"/><use x="192" y="188" xlink:href="#b"/><use x="198" y="188" xlink:href="#l"/><use x="202" y="188" xlink:href="#k"/><use x="210" y="188" xlink:href="#d"/><use x="218" y="188" xlink:href="#g"/><use x="224" y="188" xlink:href="#glyph-0-9"/><use x="227" y="188" xlink:href="#q"/><use x="240" y="188" xlink:href="#a"/><use x="248" y="188" xlink:href="#r"/><use x="257" y="188" xlink:href="#c"/><use x="265" y="188" xlink:href="#glyph-0-9"/><use x="268" y="188" xlink:href="#e"/><use x="277" y="188" xlink:href="#k"/><use x="285" y="188" xlink:href="#glyph-0-9"/><use x="288" y="188" xlink:href="#b"/><use x="294" y="188" xlink:href="#s"/><use x="302" y="188" xlink:href="#l"/><use x="306" y="188" xlink:href="#g"/><use x="36" y="206" xlink:href="#f"/><use x="45" y="206" xlink:href="#a"/><use x="53" y="206" xlink:href="#d"/><use x="61" y="206" xlink:href="#c"/><use x="69" y="206" xlink:href="#glyph-0-9"/><use x="72" y="206" xlink:href="#z"/><use x="83" y="206" xlink:href="#l"/><use x="87" y="206" xlink:href="#h"/><use x="91" y="206" xlink:href="#h"/><use x="95" y="206" xlink:href="#glyph-0-9"/><use x="98" y="206" xlink:href="#b"/><use x="104" y="206" xlink:href="#a"/><use x="112" y="206" xlink:href="#y"/><use x="119" y="206" xlink:href="#c"/><use x="127" y="206" xlink:href="#glyph-0-9"/><use x="130" y="206" xlink:href="#c"/><use x="138" y="206" xlink:href="#ap"/><use x="149" y="206" xlink:href="#c"/><use x="157" y="206" xlink:href="#j"/><use x="164" y="206" xlink:href="#b"/><use x="170" y="206" xlink:href="#glyph-0-9"/><use x="173" y="206" xlink:href="#l"/><use x="177" y="206" xlink:href="#q"/><use x="190" y="206" xlink:href="#q"/><use x="203" y="206" xlink:href="#c"/><use x="211" y="206" xlink:href="#r"/><use x="220" y="206" xlink:href="#l"/><use x="224" y="206" xlink:href="#a"/><use x="232" y="206" xlink:href="#b"/><use x="238" y="206" xlink:href="#c"/><use x="246" y="206" xlink:href="#h"/><use x="250" y="206" xlink:href="#t"/><use x="257" y="206" xlink:href="#glyph-0-9"/><use x="260" y="206" xlink:href="#n"/><use x="268" y="206" xlink:href="#f"/><use x="277" y="206" xlink:href="#e"/><use x="286" y="206" xlink:href="#k"/><use x="36" y="224" xlink:href="#h"/><use x="40" y="224" xlink:href="#c"/><use x="48" y="224" xlink:href="#a"/><use x="56" y="224" xlink:href="#v"/><use x="63" y="224" xlink:href="#l"/><use x="67" y="224" xlink:href="#k"/><use x="75" y="224" xlink:href="#d"/><use x="83" y="224" xlink:href="#glyph-0-9"/><use x="86" y="224" xlink:href="#b"/><use x="92" y="224" xlink:href="#s"/><use x="100" y="224" xlink:href="#c"/><use x="108" y="224" xlink:href="#glyph-0-9"/><use x="111" y="224" xlink:href="#f"/><use x="120" y="224" xlink:href="#a"/><use x="128" y="224" xlink:href="#d"/><use x="136" y="224" xlink:href="#c"/><use x="144" y="224" xlink:href="#m"/><use x="322" y="62" xlink:href="#ao"/><use x="330" y="62" xlink:href="#a"/><use x="338" y="62" xlink:href="#p"/><use x="347" y="62" xlink:href="#h"/><use x="351" y="62" xlink:href="#c"/><use x="359" y="62" xlink:href="#glyph-0-9"/><use x="362" y="62" xlink:href="#an"/><use x="367" y="62" xlink:href="#glyph-0-9"/><use x="370" y="62" xlink:href="#am"/><use x="381" y="62" xlink:href="#n"/><use x="389" y="62" xlink:href="#c"/><use x="397" y="62" xlink:href="#o"/><use x="403" y="62" xlink:href="#t"/><use x="410" y="62" xlink:href="#al"/></g><path d="m322 72h280v354h-280zm1 1h278v352h-278z" fill="#c7c7c7" fill-rule="evenodd"/><g clip-path="url(#bt)"><path d="m601 425h6v6h-6z" fill="#d4d4d4"/><path d="m601 425h6v6h-6zm1 1h4v4h-4z" fill="#c7c7c7" fill-rule="evenodd"/></g><g clip-path="url(#bs)"><path d="m323 65h397v24h-397z" fill="#fff"/></g><g clip-path="url(#bh)"><use x="327" y="82" xlink:href="#f"/><use x="336" y="82" xlink:href="#d"/><use x="344" y="82" xlink:href="#i"/><use x="351" y="82" xlink:href="#j"/><use x="358" y="82" xlink:href="#a"/><use x="366" y="82" xlink:href="#b"/><use x="372" y="82" xlink:href="#a"/><use x="380" y="82" xlink:href="#h"/><use x="384" y="82" xlink:href="#e"/><use x="393" y="82" xlink:href="#d"/><use x="401" y="82" xlink:href="#m"/><use x="405" y="82" xlink:href="#f"/><use x="414" y="82" xlink:href="#d"/><use x="422" y="82" xlink:href="#i"/><use x="429" y="82" xlink:href="#g"/><use x="435" y="82" xlink:href="#b"/><use x="441" y="82" xlink:href="#a"/><use x="449" y="82" xlink:href="#b"/><use x="455" y="82" xlink:href="#l"/><use x="459" y="82" xlink:href="#e"/><use x="468" y="82" xlink:href="#i"/><use x="475" y="82" xlink:href="#n"/><use x="483" y="82" xlink:href="#g"/><use x="489" y="82" xlink:href="#c"/><use x="497" y="82" xlink:href="#o"/><use x="503" y="82" xlink:href="#i"/><use x="510" y="82" xlink:href="#g"/><use x="516" y="82" xlink:href="#c"/><use x="524" y="82" xlink:href="#ak"/><use x="533" y="82" xlink:href="#n"/><use x="541" y="82" xlink:href="#c"/><use x="549" y="82" xlink:href="#k"/><use x="557" y="82" xlink:href="#j"/><use x="564" y="82" xlink:href="#c"/><use x="572" y="82" xlink:href="#g"/></g><g clip-path="url(#az)"><path d="m323 89h397v24h-397z" fill="#fff"/></g><use x="327" y="106" xlink:href="#f"/><use x="336" y="106" xlink:href="#d"/><use x="344" y="106" xlink:href="#i"/><use x="351" y="106" xlink:href="#j"/><use x="358" y="106" xlink:href="#a"/><use x="366" y="106" xlink:href="#b"/><use x="372" y="106" xlink:href="#a"/><use x="380" y="106" xlink:href="#h"/><use x="384" y="106" xlink:href="#e"/><use x="393" y="106" xlink:href="#d"/><use x="401" y="106" xlink:href="#m"/><use x="405" y="106" xlink:href="#f"/><use x="414" y="106" xlink:href="#d"/><use x="422" y="106" xlink:href="#i"/><use x="429" y="106" xlink:href="#g"/><use x="435" y="106" xlink:href="#b"/><use x="441" y="106" xlink:href="#a"/><use x="449" y="106" xlink:href="#b"/><use x="455" y="106" xlink:href="#l"/><use x="459" y="106" xlink:href="#e"/><use x="468" y="106" xlink:href="#i"/><use x="475" y="106" xlink:href="#n"/><use x="483" y="106" xlink:href="#g"/><use x="489" y="106" xlink:href="#c"/><use x="497" y="106" xlink:href="#o"/><use x="503" y="106" xlink:href="#i"/><use x="510" y="106" xlink:href="#b"/><use x="516" y="106" xlink:href="#a"/><use x="524" y="106" xlink:href="#p"/><use x="533" y="106" xlink:href="#h"/><use x="537" y="106" xlink:href="#c"/><use x="545" y="106" xlink:href="#g"/><g clip-path="url(#ay)"><path d="m323 113h397v24h-397z" fill="#fff"/></g><use x="327" y="130" xlink:href="#f"/><use x="336" y="130" xlink:href="#d"/><use x="344" y="130" xlink:href="#i"/><use x="351" y="130" xlink:href="#j"/><use x="358" y="130" xlink:href="#a"/><use x="366" y="130" xlink:href="#b"/><use x="372" y="130" xlink:href="#a"/><use x="380" y="130" xlink:href="#h"/><use x="384" y="130" xlink:href="#e"/><use x="393" y="130" xlink:href="#d"/><use x="401" y="130" xlink:href="#m"/><use x="405" y="130" xlink:href="#f"/><use x="414" y="130" xlink:href="#d"/><use x="422" y="130" xlink:href="#i"/><use x="429" y="130" xlink:href="#g"/><use x="435" y="130" xlink:href="#b"/><use x="441" y="130" xlink:href="#a"/><use x="449" y="130" xlink:href="#b"/><use x="455" y="130" xlink:href="#g"/><g clip-path="url(#ax)"><path d="m323 137h397v24h-397z" fill="#fff"/></g><use x="327" y="154" xlink:href="#f"/><use x="336" y="154" xlink:href="#d"/><use x="344" y="154" xlink:href="#i"/><use x="351" y="154" xlink:href="#j"/><use x="358" y="154" xlink:href="#a"/><use x="366" y="154" xlink:href="#b"/><use x="372" y="154" xlink:href="#a"/><use x="380" y="154" xlink:href="#h"/><use x="384" y="154" xlink:href="#e"/><use x="393" y="154" xlink:href="#d"/><use x="401" y="154" xlink:href="#m"/><use x="405" y="154" xlink:href="#f"/><use x="414" y="154" xlink:href="#d"/><use x="422" y="154" xlink:href="#i"/><use x="429" y="154" xlink:href="#g"/><use x="435" y="154" xlink:href="#b"/><use x="441" y="154" xlink:href="#a"/><use x="449" y="154" xlink:href="#b"/><use x="455" y="154" xlink:href="#g"/><use x="461" y="154" xlink:href="#i"/><use x="468" y="154" xlink:href="#c"/><use x="476" y="154" xlink:href="#u"/><use x="483" y="154" xlink:href="#b"/><g clip-path="url(#aw)"><path d="m323 161h397v24h-397z" fill="#fff"/></g><use x="327" y="178" xlink:href="#f"/><use x="336" y="178" xlink:href="#d"/><use x="344" y="178" xlink:href="#i"/><use x="351" y="178" xlink:href="#j"/><use x="358" y="178" xlink:href="#a"/><use x="366" y="178" xlink:href="#b"/><use x="372" y="178" xlink:href="#a"/><use x="380" y="178" xlink:href="#h"/><use x="384" y="178" xlink:href="#e"/><use x="393" y="178" xlink:href="#d"/><use x="401" y="178" xlink:href="#m"/><use x="405" y="178" xlink:href="#f"/><use x="414" y="178" xlink:href="#d"/><use x="422" y="178" xlink:href="#i"/><use x="429" y="178" xlink:href="#g"/><use x="435" y="178" xlink:href="#b"/><use x="441" y="178" xlink:href="#a"/><use x="449" y="178" xlink:href="#b"/><use x="455" y="178" xlink:href="#g"/><use x="461" y="178" xlink:href="#i"/><use x="468" y="178" xlink:href="#c"/><use x="476" y="178" xlink:href="#u"/><use x="483" y="178" xlink:href="#b"/><use x="489" y="178" xlink:href="#i"/><use x="496" y="178" xlink:href="#c"/><use x="504" y="178" xlink:href="#u"/><use x="511" y="178" xlink:href="#f"/><use x="520" y="178" xlink:href="#o"/><use x="526" y="178" xlink:href="#g"/><g clip-path="url(#av)"><path d="m323 185h397v24h-397z" fill="#fff"/></g><use x="327" y="202" xlink:href="#f"/><use x="336" y="202" xlink:href="#d"/><use x="344" y="202" xlink:href="#i"/><use x="351" y="202" xlink:href="#j"/><use x="358" y="202" xlink:href="#a"/><use x="366" y="202" xlink:href="#b"/><use x="372" y="202" xlink:href="#a"/><use x="380" y="202" xlink:href="#h"/><use x="384" y="202" xlink:href="#e"/><use x="393" y="202" xlink:href="#d"/><use x="401" y="202" xlink:href="#m"/><use x="405" y="202" xlink:href="#f"/><use x="414" y="202" xlink:href="#d"/><use x="422" y="202" xlink:href="#i"/><use x="429" y="202" xlink:href="#b"/><use x="435" y="202" xlink:href="#a"/><use x="443" y="202" xlink:href="#p"/><use x="452" y="202" xlink:href="#h"/><use x="456" y="202" xlink:href="#c"/><use x="464" y="202" xlink:href="#g"/><g clip-path="url(#au)"><path d="m323 209h397v24h-397z" fill="#fff"/></g><use x="327" y="226" xlink:href="#f"/><use x="336" y="226" xlink:href="#d"/><use x="344" y="226" xlink:href="#i"/><use x="351" y="226" xlink:href="#j"/><use x="358" y="226" xlink:href="#a"/><use x="366" y="226" xlink:href="#b"/><use x="372" y="226" xlink:href="#a"/><use x="380" y="226" xlink:href="#h"/><use x="384" y="226" xlink:href="#e"/><use x="393" y="226" xlink:href="#d"/><use x="401" y="226" xlink:href="#m"/><use x="405" y="226" xlink:href="#f"/><use x="414" y="226" xlink:href="#d"/><use x="422" y="226" xlink:href="#i"/><use x="429" y="226" xlink:href="#b"/><use x="435" y="226" xlink:href="#l"/><use x="439" y="226" xlink:href="#q"/><use x="452" y="226" xlink:href="#c"/><use x="460" y="226" xlink:href="#x"/><use x="467" y="226" xlink:href="#e"/><use x="476" y="226" xlink:href="#k"/><use x="484" y="226" xlink:href="#c"/><use x="492" y="226" xlink:href="#i"/><use x="499" y="226" xlink:href="#a"/><use x="507" y="226" xlink:href="#p"/><use x="516" y="226" xlink:href="#p"/><use x="525" y="226" xlink:href="#o"/><use x="531" y="226" xlink:href="#c"/><use x="539" y="226" xlink:href="#v"/><use x="546" y="226" xlink:href="#g"/><g clip-path="url(#at)"><path d="m323 233h397v24h-397z" fill="#fff"/></g><use x="327" y="250" xlink:href="#f"/><use x="336" y="250" xlink:href="#d"/><use x="344" y="250" xlink:href="#i"/><use x="351" y="250" xlink:href="#j"/><use x="358" y="250" xlink:href="#a"/><use x="366" y="250" xlink:href="#b"/><use x="372" y="250" xlink:href="#a"/><use x="380" y="250" xlink:href="#h"/><use x="384" y="250" xlink:href="#e"/><use x="393" y="250" xlink:href="#d"/><use x="401" y="250" xlink:href="#m"/><use x="405" y="250" xlink:href="#f"/><use x="414" y="250" xlink:href="#d"/><use x="422" y="250" xlink:href="#i"/><use x="429" y="250" xlink:href="#b"/><use x="435" y="250" xlink:href="#l"/><use x="439" y="250" xlink:href="#q"/><use x="452" y="250" xlink:href="#c"/><use x="460" y="250" xlink:href="#x"/><use x="467" y="250" xlink:href="#e"/><use x="476" y="250" xlink:href="#k"/><use x="484" y="250" xlink:href="#c"/><use x="492" y="250" xlink:href="#i"/><use x="499" y="250" xlink:href="#k"/><use x="507" y="250" xlink:href="#a"/><use x="515" y="250" xlink:href="#q"/><use x="528" y="250" xlink:href="#c"/><use x="536" y="250" xlink:href="#g"/><g clip-path="url(#br)"><path d="m323 257h397v24h-397z" fill="#fff"/></g><use x="327" y="274" xlink:href="#f"/><use x="336" y="274" xlink:href="#d"/><use x="344" y="274" xlink:href="#i"/><use x="351" y="274" xlink:href="#j"/><use x="358" y="274" xlink:href="#a"/><use x="366" y="274" xlink:href="#b"/><use x="372" y="274" xlink:href="#a"/><use x="380" y="274" xlink:href="#h"/><use x="384" y="274" xlink:href="#e"/><use x="393" y="274" xlink:href="#d"/><use x="401" y="274" xlink:href="#m"/><use x="405" y="274" xlink:href="#f"/><use x="414" y="274" xlink:href="#d"/><use x="422" y="274" xlink:href="#i"/><use x="429" y="274" xlink:href="#n"/><use x="437" y="274" xlink:href="#g"/><use x="443" y="274" xlink:href="#c"/><use x="451" y="274" xlink:href="#o"/><g clip-path="url(#bq)"><path d="m323 281h397v24h-397z" fill="#fff"/></g><use x="327" y="298" xlink:href="#f"/><use x="336" y="298" xlink:href="#d"/><use x="344" y="298" xlink:href="#i"/><use x="351" y="298" xlink:href="#j"/><use x="358" y="298" xlink:href="#a"/><use x="366" y="298" xlink:href="#b"/><use x="372" y="298" xlink:href="#a"/><use x="380" y="298" xlink:href="#h"/><use x="384" y="298" xlink:href="#e"/><use x="393" y="298" xlink:href="#d"/><use x="401" y="298" xlink:href="#m"/><use x="405" y="298" xlink:href="#f"/><use x="414" y="298" xlink:href="#d"/><use x="422" y="298" xlink:href="#i"/><use x="429" y="298" xlink:href="#n"/><use x="437" y="298" xlink:href="#g"/><use x="443" y="298" xlink:href="#c"/><use x="451" y="298" xlink:href="#o"/><use x="457" y="298" xlink:href="#i"/><use x="464" y="298" xlink:href="#q"/><use x="477" y="298" xlink:href="#a"/><use x="485" y="298" xlink:href="#f"/><use x="494" y="298" xlink:href="#f"/><use x="503" y="298" xlink:href="#l"/><use x="507" y="298" xlink:href="#k"/><use x="515" y="298" xlink:href="#d"/><use x="523" y="298" xlink:href="#g"/><g clip-path="url(#bp)"><path d="m323 305h397v24h-397z" fill="#fff"/></g><use x="327" y="322" xlink:href="#f"/><use x="336" y="322" xlink:href="#d"/><use x="344" y="322" xlink:href="#i"/><use x="351" y="322" xlink:href="#j"/><use x="358" y="322" xlink:href="#a"/><use x="366" y="322" xlink:href="#b"/><use x="372" y="322" xlink:href="#a"/><use x="380" y="322" xlink:href="#h"/><use x="384" y="322" xlink:href="#e"/><use x="393" y="322" xlink:href="#d"/><use x="401" y="322" xlink:href="#m"/><use x="405" y="322" xlink:href="#f"/><use x="414" y="322" xlink:href="#d"/><use x="422" y="322" xlink:href="#i"/><use x="429" y="322" xlink:href="#v"/><use x="436" y="322" xlink:href="#l"/><use x="440" y="322" xlink:href="#c"/><use x="448" y="322" xlink:href="#z"/><use x="459" y="322" xlink:href="#g"/><g clip-path="url(#bo)"><path d="m323 329h397v24h-397z" fill="#fff"/></g><use x="327" y="346" xlink:href="#f"/><use x="336" y="346" xlink:href="#n"/><use x="344" y="346" xlink:href="#p"/><use x="353" y="346" xlink:href="#h"/><use x="357" y="346" xlink:href="#l"/><use x="361" y="346" xlink:href="#j"/><use x="368" y="346" xlink:href="#m"/><use x="372" y="346" xlink:href="#j"/><use x="379" y="346" xlink:href="#n"/><use x="387" y="346" xlink:href="#g"/><use x="393" y="346" xlink:href="#b"/><use x="399" y="346" xlink:href="#e"/><use x="408" y="346" xlink:href="#q"/><use x="421" y="346" xlink:href="#c"/><use x="429" y="346" xlink:href="#o"/><g clip-path="url(#bn)"><path d="m323 353h397v24h-397z" fill="#e95420"/></g><g fill="#fff"><use x="327" y="370" xlink:href="#f"/><use x="336" y="370" xlink:href="#n"/><use x="344" y="370" xlink:href="#p"/><use x="353" y="370" xlink:href="#h"/><use x="357" y="370" xlink:href="#l"/><use x="361" y="370" xlink:href="#j"/><use x="368" y="370" xlink:href="#m"/><use x="372" y="370" xlink:href="#r"/><use x="381" y="370" xlink:href="#c"/><use x="389" y="370" xlink:href="#q"/><use x="402" y="370" xlink:href="#a"/><use x="410" y="370" xlink:href="#k"/><use x="418" y="370" xlink:href="#r"/></g><g clip-path="url(#bm)"><path d="m323 377h397v24h-397z" fill="#fff"/></g><use x="327" y="394" xlink:href="#f"/><use x="336" y="394" xlink:href="#n"/><use x="344" y="394" xlink:href="#p"/><use x="353" y="394" xlink:href="#h"/><use x="357" y="394" xlink:href="#l"/><use x="361" y="394" xlink:href="#j"/><use x="368" y="394" xlink:href="#m"/><use x="372" y="394" xlink:href="#f"/><use x="381" y="394" xlink:href="#o"/><use x="387" y="394" xlink:href="#e"/><use x="396" y="394" xlink:href="#r"/><use x="405" y="394" xlink:href="#n"/><use x="413" y="394" xlink:href="#j"/><use x="420" y="394" xlink:href="#b"/><g clip-path="url(#bl)"><path d="m323 401h397v24h-397z" fill="#fff"/></g><use x="327" y="418" xlink:href="#f"/><use x="336" y="418" xlink:href="#n"/><use x="344" y="418" xlink:href="#p"/><use x="353" y="418" xlink:href="#h"/><use x="357" y="418" xlink:href="#l"/><use x="361" y="418" xlink:href="#j"/><use x="368" y="418" xlink:href="#m"/><use x="372" y="418" xlink:href="#g"/><use x="378" y="418" xlink:href="#a"/><use x="386" y="418" xlink:href="#h"/><use x="390" y="418" xlink:href="#c"/><g clip-path="url(#bk)" fill-opacity=".2" fill-rule="evenodd"><path d="m559 73h40v352h-40zm2 0h40v352h-40z" fill="#ccc"/><path d="m560 73h40v352h-40zm1 0h40v352h-40z" fill="#999"/></g><g clip-path="url(#bj)" fill-opacity=".2" fill-rule="evenodd"><path d="m323 75h278v40h-278zm0-2h278v40h-278z" fill="#ccc"/><path d="m323 74h278v40h-278zm0-1h278v40h-278z" fill="#999"/></g><g fill="#3d3d3d"><use x="24" y="38" xlink:href="#ad"/><use x="35" y="38" xlink:href="#w"/><use x="43" y="38" xlink:href="#ac"/><use x="49" y="38" xlink:href="#w"/></g><g clip-path="url(#bi)"><g clip-path="url(#bg)"><path d="m529 451h84v32h-84z" fill="#fcfcfc"/></g></g><path d="m528 456c0-3.3047 2.6953-6 6-6h74c3.3047 0 6 2.6953 6 6v22c0 3.3047-2.6953 6-6 6h-74c-3.3047 0-6-2.6953-6-6zm1 0c0-2.7539 2.2461-5 5-5h74c2.7539 0 5 2.2461 5 5v22c0 2.7539-2.2461 5-5 5h-74c-2.7539 0-5-2.2461-5-5z" fill="#c7c7c7" fill-rule="evenodd"/><g fill="#9c9c9c"><use x="552" y="472" xlink:href="#aj"/><use x="560" y="472" xlink:href="#l"/><use x="564" y="472" xlink:href="#k"/><use x="572" y="472" xlink:href="#l"/><use x="576" y="472" xlink:href="#g"/><use x="582" y="472" xlink:href="#s"/></g><g clip-path="url(#bf)"><g clip-path="url(#be)"><path d="m437 451h84v32h-84z" fill="#fff"/></g></g><path d="m436 456c0-3.3047 2.6953-6 6-6h74c3.3047 0 6 2.6953 6 6v22c0 3.3047-2.6953 6-6 6h-74c-3.3047 0-6-2.6953-6-6zm1 0c0-2.7539 2.2461-5 5-5h74c2.7539 0 5 2.2461 5 5v22c0 2.7539-2.2461 5-5 5h-74c-2.7539 0-5-2.2461-5-5z" fill="#c7c7c7" fill-rule="evenodd"/><g fill="#3d3d3d"><use x="457" y="472" xlink:href="#ab"/><use x="466" y="472" xlink:href="#a"/><use x="474" y="472" xlink:href="#k"/><use x="482" y="472" xlink:href="#j"/><use x="489" y="472" xlink:href="#c"/><use x="497" y="472" xlink:href="#h"/></g><g clip-path="url(#bd)"><g clip-path="url(#bc)"><path d="m345 451h84v32h-84z" fill="#fff"/></g></g><path d="m344 456c0-3.3047 2.6953-6 6-6h74c3.3047 0 6 2.6953 6 6v22c0 3.3047-2.6953 6-6 6h-74c-3.3047 0-6-2.6953-6-6zm1 0c0-2.7539 2.2461-5 5-5h74c2.7539 0 5 2.2461 5 5v22c0 2.7539-2.2461 5-5 5h-74c-2.7539 0-5-2.2461-5-5z" fill="#c7c7c7" fill-rule="evenodd"/><g fill="#3d3d3d"><use x="366" y="472" xlink:href="#ai"/><use x="376" y="472" xlink:href="#c"/><use x="384" y="472" xlink:href="#u"/><use x="391" y="472" xlink:href="#b"/><use x="397" y="472" xlink:href="#glyph-0-9"/><use x="400" y="472" xlink:href="#ah"/></g><g clip-path="url(#bb)"><g clip-path="url(#ba)"><path d="m253 451h84v32h-84z" fill="#fcfcfc"/></g></g><path d="m252 456c0-3.3047 2.6953-6 6-6h74c3.3047 0 6 2.6953 6 6v22c0 3.3047-2.6953 6-6 6h-74c-3.3047 0-6-2.6953-6-6zm1 0c0-2.7539 2.2461-5 5-5h74c2.7539 0 5 2.2461 5 5v22c0 2.7539-2.2461 5-5 5h-74c-2.7539 0-5-2.2461-5-5z" fill="#c7c7c7" fill-rule="evenodd"/><g fill="#9c9c9c"><use x="274" y="472" xlink:href="#ag"/><use x="282" y="472" xlink:href="#glyph-0-9"/><use x="285" y="472" xlink:href="#af"/><use x="294" y="472" xlink:href="#a"/><use x="302" y="472" xlink:href="#j"/><use x="309" y="472" xlink:href="#y"/></g></g><path d="m201.47 268.16 133.44 167.84" fill="none" marker-end="url(#cm)" stroke="#f00" stroke-linecap="round" stroke-linejoin="round" stroke-width="5"/></svg>
