<?xml version="1.0" encoding="UTF-8"?>
<svg width="480pt" height="388pt" version="1.1" viewBox="0 0 480 388" xmlns="http://www.w3.org/2000/svg"><defs><marker id="n" overflow="visible" markerHeight="7" markerWidth="4.2071066" orient="auto-start-reverse" preserveAspectRatio="xMidYMid" viewBox="0 0 4.2071068 7"><path transform="rotate(180 .125 0)" d="m3-3-3 3 3 3" fill="none" stroke="context-stroke" stroke-linecap="round"/></marker><marker id="t" overflow="visible" markerHeight="7" markerWidth="4.2071066" orient="auto-start-reverse" preserveAspectRatio="xMidYMid" viewBox="0 0 4.2071068 7"><path transform="rotate(180 .125 0)" d="m3-3-3 3 3 3" fill="none" stroke="context-stroke" stroke-linecap="round"/></marker><marker id="p" overflow="visible" markerHeight="7" markerWidth="4.2071066" orient="auto-start-reverse" preserveAspectRatio="xMidYMid" viewBox="0 0 4.2071068 7"><path transform="rotate(180 .125 0)" d="m3-3-3 3 3 3" fill="none" stroke="context-stroke" stroke-linecap="round"/></marker><marker id="l" overflow="visible" markerHeight="7" markerWidth="4.2071066" orient="auto-start-reverse" preserveAspectRatio="xMidYMid" viewBox="0 0 4.2071068 7"><path transform="rotate(180 .125 0)" d="m3-3-3 3 3 3" fill="none" stroke="context-stroke" stroke-linecap="round"/></marker><marker id="j" overflow="visible" markerHeight="7" markerWidth="4.2071066" orient="auto-start-reverse" preserveAspectRatio="xMidYMid" viewBox="0 0 4.2071068 7"><path transform="rotate(180 .125 0)" d="m3-3-3 3 3 3" fill="none" stroke="context-stroke" stroke-linecap="round"/></marker><marker id="r" overflow="visible" markerHeight="7" markerWidth="4.2071066" orient="auto-start-reverse" preserveAspectRatio="xMidYMid" viewBox="0 0 4.2071068 7"><path transform="rotate(180 .125 0)" d="m3-3-3 3 3 3" fill="none" stroke="context-stroke" stroke-linecap="round"/></marker><marker id="g" overflow="visible" markerHeight="7" markerWidth="4.2071066" orient="auto-start-reverse" preserveAspectRatio="xMidYMid" viewBox="0 0 4.2071068 7"><path transform="rotate(180 .125 0)" d="m3-3-3 3 3 3" fill="none" stroke="context-stroke" stroke-linecap="round"/></marker><marker id="d" overflow="visible" markerHeight="7" markerWidth="4.2071066" orient="auto-start-reverse" preserveAspectRatio="xMidYMid" viewBox="0 0 4.2071068 7"><path transform="rotate(180 .125 0)" d="m3-3-3 3 3 3" fill="none" stroke="context-stroke" stroke-linecap="round"/></marker><marker id="i" overflow="visible" markerHeight="7" markerWidth="4.2071066" orient="auto-start-reverse" preserveAspectRatio="xMidYMid" viewBox="0 0 4.2071068 7"><path transform="rotate(180 .125 0)" d="m3-3-3 3 3 3" fill="none" stroke="context-stroke" stroke-linecap="round"/></marker><marker id="b" overflow="visible" markerHeight="7" markerWidth="4.2071066" orient="auto-start-reverse" preserveAspectRatio="xMidYMid" viewBox="0 0 4.2071068 7"><path transform="rotate(180 .125 0)" d="m3-3-3 3 3 3" fill="none" stroke="context-stroke" stroke-linecap="round"/></marker><marker id="o" overflow="visible" markerHeight="7" markerWidth="4.2071066" orient="auto-start-reverse" preserveAspectRatio="xMidYMid" viewBox="0 0 4.2071068 7"><path transform="rotate(180 .125 0)" d="m3-3-3 3 3 3" fill="none" stroke="context-stroke" stroke-linecap="round"/></marker><marker id="s" overflow="visible" markerHeight="7" markerWidth="4.2071066" orient="auto-start-reverse" preserveAspectRatio="xMidYMid" viewBox="0 0 4.2071068 7"><path transform="rotate(180 .125 0)" d="m3-3-3 3 3 3" fill="none" stroke="context-stroke" stroke-linecap="round"/></marker><marker id="q" overflow="visible" markerHeight="7" markerWidth="4.2071066" orient="auto-start-reverse" preserveAspectRatio="xMidYMid" viewBox="0 0 4.2071068 7"><path transform="rotate(180 .125 0)" d="m3-3-3 3 3 3" fill="none" stroke="context-stroke" stroke-linecap="round"/></marker><marker id="m" overflow="visible" markerHeight="7" markerWidth="4.2071066" orient="auto-start-reverse" preserveAspectRatio="xMidYMid" viewBox="0 0 4.2071068 7"><path transform="rotate(180 .125 0)" d="m3-3-3 3 3 3" fill="none" stroke="context-stroke" stroke-linecap="round"/></marker><marker id="k" overflow="visible" markerHeight="7" markerWidth="4.2071066" orient="auto-start-reverse" preserveAspectRatio="xMidYMid" viewBox="0 0 4.2071068 7"><path transform="rotate(180 .125 0)" d="m3-3-3 3 3 3" fill="none" stroke="context-stroke" stroke-linecap="round"/></marker><marker id="e" overflow="visible" markerHeight="7" markerWidth="4.2071066" orient="auto-start-reverse" preserveAspectRatio="xMidYMid" viewBox="0 0 4.2071068 7"><path transform="rotate(180 .125 0)" d="m3-3-3 3 3 3" fill="none" stroke="context-stroke" stroke-linecap="round"/></marker><marker id="f" overflow="visible" markerHeight="7" markerWidth="4.2071066" orient="auto-start-reverse" preserveAspectRatio="xMidYMid" viewBox="0 0 4.2071068 7"><path transform="rotate(180 .125 0)" d="m3-3-3 3 3 3" fill="none" stroke="context-stroke" stroke-linecap="round"/></marker><marker id="c" overflow="visible" markerHeight="7" markerWidth="4.2071066" orient="auto-start-reverse" preserveAspectRatio="xMidYMid" viewBox="0 0 4.2071068 7"><path transform="rotate(180 .125 0)" d="m3-3-3 3 3 3" fill="none" stroke="context-stroke" stroke-linecap="round"/></marker><marker id="h" overflow="visible" markerHeight="7" markerWidth="4.2071066" orient="auto-start-reverse" preserveAspectRatio="xMidYMid" viewBox="0 0 4.2071068 7"><path transform="rotate(180 .125 0)" d="m3-3-3 3 3 3" fill="none" stroke="context-stroke" stroke-linecap="round"/></marker><marker id="a" overflow="visible" markerHeight="7" markerWidth="4.2071066" orient="auto-start-reverse" preserveAspectRatio="xMidYMid" viewBox="0 0 4.2071068 7"><path transform="rotate(180 .125 0)" d="m3-3-3 3 3 3" fill="none" stroke="context-stroke" stroke-linecap="round"/></marker></defs><rect x="163.85" y="88.526" width="112.93" height="39" rx="2" ry="2" fill="#ee7105" stroke="#b5161e" stroke-linecap="round" stroke-linejoin="round" stroke-width=".99998" style="paint-order:fill markers stroke"/><rect x="221.98" y="138.88" width="131.26" height="56.626" rx="2" ry="2" fill="#ee7105" stroke="#b5161e" stroke-linecap="round" stroke-linejoin="round" stroke-width=".99998" style="paint-order:fill markers stroke"/><rect x="269.66" y="206.86" width="102.47" height="66.126" rx="2" ry="1.9999" fill="#ee7105" stroke="#b5161e" stroke-linecap="round" stroke-linejoin="round" stroke-width=".99997" style="paint-order:fill markers stroke"/><text x="320.85709" y="216.53336" fill="#000000" font-family="Ubuntu" font-size="7.9998px" stroke-width="1.3333" text-align="center" text-anchor="middle" xml:space="preserve"><tspan x="320.85709" y="216.53336">Physical Schema Design</tspan><tspan x="320.85709" y="226.53311"/></text><text x="274.45822" y="227.71515" fill="#000000" font-family="Ubuntu" font-size="7.9998px" stroke-width="1.3333" text-align="center" xml:space="preserve"><tspan x="274.45822" y="227.71515">- define access path</tspan><tspan x="274.45822" y="237.7149">- optimize storage</tspan><tspan x="274.45822" y="247.71465">- define indexes</tspan><tspan x="274.45822" y="257.71439">- optimize queries</tspan><tspan x="274.45822" y="267.71414">- configure DBMS settings</tspan></text><text x="287.57101" y="149.12279" fill="#000000" font-family="Ubuntu" font-size="7.9998px" stroke-width="1.3333" text-align="center" text-anchor="middle" xml:space="preserve"><tspan x="287.57101" y="149.12279" stroke-width="1.3333">Logical Schema Design</tspan></text><text x="228.9805" y="161.37167" fill="#000000" font-family="Ubuntu" font-size="7.9998px" stroke-width="1.3333" text-align="center" xml:space="preserve"><tspan x="228.9805" y="161.37167">- normalize data</tspan><tspan x="228.9805" y="171.37143">- define tables and keys</tspan><tspan x="228.9805" y="181.37117">- define attributes</tspan><tspan x="228.9805" y="191.37093">- define constraints and relations</tspan><tspan x="228.9805" y="201.37068"/></text><text x="220.38237" y="99.387695" fill="#000000" font-family="Ubuntu" font-size="7.9998px" stroke-width="1.3333" text-align="center" text-anchor="middle" xml:space="preserve"><tspan x="220.38237" y="99.387695" font-size="7.9998px" stroke-width="1.7777">Conceptual Schema Design</tspan></text><text x="166.67171" y="112.25304" fill="#000000" font-family="Ubuntu" font-size="7.9998px" stroke-width="1.3333" text-align="center" xml:space="preserve"><tspan x="166.67171" y="112.25304">- Entity Relationship Diagrams</tspan><tspan x="166.67171" y="122.25278">- Database Model Selection</tspan></text><rect x="1.5488" y="1.8219" width="217.1" height="75.353" rx="1.9999" ry="2" fill="#ee7105" stroke="#b5161e" stroke-linecap="round" stroke-linejoin="round" stroke-width=".99998" style="paint-order:fill markers stroke"/><text x="109.90035" y="11.014563" fill="#000000" font-family="Ubuntu" font-size="7.9998px" stroke-width="1.3333" text-align="center" text-anchor="middle" xml:space="preserve"><tspan x="109.90035" y="11.014563" font-size="7.9998px" stroke-width="1.7777">Requirements Gathering and Analysis</tspan></text><text x="6.6211748" y="21.90724" fill="#000000" font-family="Ubuntu" font-size="7.9998px" stroke-width="1.3333" text-align="center" xml:space="preserve"><tspan x="6.6211748" y="21.90724">- group meetings</tspan><tspan x="6.6211748" y="31.90699">- interviews</tspan><tspan x="6.6211748" y="41.906742">- questionnaires</tspan><tspan x="6.6211748" y="51.90649">- direct user observation</tspan><tspan x="6.6211748" y="61.906242">- existing documentation</tspan><tspan x="6.6211748" y="71.905991">- ...</tspan></text><text x="103.05434" y="22.211233" fill="#000000" font-family="Ubuntu" font-size="7.9998px" stroke-width="1.3333" text-align="center" xml:space="preserve"><tspan x="103.05434" y="22.211233">- business requirements</tspan><tspan x="103.05434" y="32.210983">- functional requirements</tspan><tspan x="103.05434" y="42.210735">- non-functional requirementss</tspan><tspan x="103.05434" y="52.210484">- constraints</tspan><tspan x="103.05434" y="62.210236">- identify entities</tspan><tspan x="103.05434" y="72.209984">- define relatioships</tspan></text><rect x="365.02" y="340.93" width="113.43" height="45.247" rx="1.9999" ry="2" fill="#ee7105" stroke="#b5161e" stroke-linecap="round" stroke-linejoin="round" stroke-width=".99998" style="paint-order:fill markers stroke"/><text x="368.51065" y="360.90433" fill="#000000" font-family="Ubuntu" font-size="7.9998px" stroke-width="1.3333" text-align="center" xml:space="preserve"><tspan x="368.51065" y="360.90433">- loading with data</tspan><tspan x="368.51065" y="370.90408">- administration and tuning</tspan><tspan x="368.51065" y="380.90384">- maintenance, reorganization</tspan></text><text x="401.79779" y="350.90775" fill="#000000" font-family="Ubuntu" font-size="7.9998px" stroke-width="1.3333" text-align="center" text-anchor="middle" xml:space="preserve"><tspan x="401.79779" y="350.90775" font-size="7.9998px" stroke-width="1.7777" text-align="start" text-anchor="start">Production</tspan></text><rect x="317.34" y="284.33" width="102.47" height="45.247" rx="2" ry="2" fill="#ee7105" stroke="#b5161e" stroke-linecap="round" stroke-linejoin="round" stroke-width=".99998" style="paint-order:fill markers stroke"/><text x="321.84976" y="304.51505" fill="#000000" font-family="Ubuntu" font-size="7.9998px" stroke-width="1.3333" text-align="center" xml:space="preserve"><tspan x="321.84976" y="304.51505">- review with stakeholders</tspan><tspan x="321.84976" y="314.5148">- prototype testing</tspan><tspan x="321.84976" y="324.51456">- requirement verification</tspan></text><text x="350.74103" y="294.12598" fill="#000000" font-family="Ubuntu" font-size="7.9998px" stroke-width="1.3333" text-align="center" text-anchor="middle" xml:space="preserve"><tspan x="350.74103" y="294.12598" font-size="7.9998px" stroke-width="1.7777" text-align="start" text-anchor="start">Validation</tspan></text><path d="m29.501 167.19h192.48" fill="none" marker-end="url(#o)" stroke="#fff" stroke-linecap="round" stroke-linejoin="round" stroke-width="2"/><path d="m33.841 239.92h235.82" fill="none" marker-end="url(#s)" stroke="#fff" stroke-linecap="round" stroke-linejoin="round" stroke-width="2"/><path d="m351.2 363.55c-322.25-0.0546-322.25-3.9809-322.25-286.38" fill="none" marker-end="url(#m)" stroke="#fff" stroke-linecap="round" stroke-linejoin="round" stroke-width="2"/><path d="m147.92 108.01c-50.023-0.21803-50.023-2.6948-50.023-30.83" fill="none" marker-end="url(#k)" stroke="#fff" stroke-linecap="round" stroke-linejoin="round" stroke-width="2"/><path d="m191.25 82.631v5.9083" fill="none" marker-end="url(#e)" stroke="#fff" stroke-linecap="round" stroke-linejoin="round" stroke-width="2"/><path d="m249.38 131.19v7.6888" fill="none" marker-end="url(#f)" stroke="#fff" stroke-linecap="round" stroke-linejoin="round" stroke-width="2"/><path d="m344.74 278.32v6.0105" fill="none" marker-end="url(#h)" stroke="#fff" stroke-linecap="round" stroke-linejoin="round" stroke-width="2"/><path d="m392.42 334.08v6.8523" fill="none" marker-end="url(#a)" stroke="#fff" stroke-linecap="round" stroke-linejoin="round" stroke-width="2"/><text x="306.49667" y="224.88495" fill="#000000" font-family="Ubuntu" font-size="7.9998px" stroke-width="1.3333" text-align="center" xml:space="preserve"><tspan x="306.49667" y="224.88495"/></text><text x="769.74506" y="163.74658" font-family="Ubuntu" font-size="12px" font-weight="bold" stroke-width=".74998" style="line-height:1.25" xml:space="preserve"><tspan x="769.74506" y="163.74658" stroke-width=".74998"/></text><path d="m29.501 167.19h192.48" fill="none" marker-end="url(#p)" stroke="#b5161e" stroke-linecap="round" stroke-linejoin="round" stroke-width=".99998"/><path d="m33.841 239.92h235.82" fill="none" marker-end="url(#t)" stroke="#b5161e" stroke-linecap="round" stroke-linejoin="round" stroke-width=".99998"/><path d="m163.85 108.03c-65.951 0-65.952 0-65.952-30.852" fill="none" marker-end="url(#l)" stroke="#b5161e" stroke-linecap="round" stroke-linejoin="round" stroke-width=".99998"/><path d="m191.25 77.784v10.756" fill="none" marker-end="url(#j)" stroke="#b5161e" stroke-linecap="round" stroke-linejoin="round" stroke-width=".99998"/><path d="m249.38 128.12v10.756" fill="none" marker-end="url(#g)" stroke="#b5161e" stroke-linecap="round" stroke-linejoin="round" stroke-width=".99998"/><path d="m311.7 201.74v5.1207" fill="none" marker-end="url(#c)" stroke="#fff" stroke-linecap="round" stroke-linejoin="round" stroke-width="2"/><path d="m311.7 196.1v10.756" fill="none" marker-end="url(#d)" stroke="#b5161e" stroke-linecap="round" stroke-linejoin="round" stroke-width=".99998"/><path d="m344.74 273.58v10.756" fill="none" marker-end="url(#i)" stroke="#b5161e" stroke-linecap="round" stroke-linejoin="round" stroke-width=".99998"/><path d="m392.42 330.18v10.756" fill="none" marker-end="url(#b)" stroke="#b5161e" stroke-linecap="round" stroke-linejoin="round" stroke-width=".99998"/><path d="m365.02 363.55c-336.08 2e-5 -336.08 2e-5 -336.08-286.38" fill="none" marker-end="url(#n)" stroke="#b5161e" stroke-linecap="round" stroke-linejoin="round" stroke-width=".99998"/><path d="m290.08 306.96h-234.97" fill="none" marker-end="url(#q)" stroke="#fff" stroke-linecap="round" stroke-linejoin="round" stroke-width="2"/><path d="m317.34 306.96h-262.23" fill="none" marker-end="url(#r)" stroke="#b5161e" stroke-linecap="round" stroke-linejoin="round" stroke-width=".99998"/></svg>
