<?xml version="1.0" encoding="UTF-8"?>
<svg width="382pt" height="419pt" version="1.1" viewBox="0 0 382 419" xmlns="http://www.w3.org/2000/svg"><defs><marker id="z" overflow="visible" markerHeight="7" markerWidth="4.2071066" orient="auto-start-reverse" preserveAspectRatio="xMidYMid" viewBox="0 0 4.2071068 7"><path transform="rotate(180 .125 0)" d="m3-3-3 3 3 3" fill="none" stroke="context-stroke" stroke-linecap="round"/></marker><marker id="f" overflow="visible" markerHeight="7" markerWidth="4.2071066" orient="auto-start-reverse" preserveAspectRatio="xMidYMid" viewBox="0 0 4.2071068 7"><path transform="rotate(180 .125 0)" d="m3-3-3 3 3 3" fill="none" stroke="context-stroke" stroke-linecap="round"/></marker><marker id="x" overflow="visible" markerHeight="7" markerWidth="4.2071066" orient="auto-start-reverse" preserveAspectRatio="xMidYMid" viewBox="0 0 4.2071068 7"><path transform="rotate(180 .125 0)" d="m3-3-3 3 3 3" fill="none" stroke="context-stroke" stroke-linecap="round"/></marker><marker id="g" overflow="visible" markerHeight="7" markerWidth="4.2071066" orient="auto-start-reverse" preserveAspectRatio="xMidYMid" viewBox="0 0 4.2071068 7"><path transform="rotate(180 .125 0)" d="m3-3-3 3 3 3" fill="none" stroke="context-stroke" stroke-linecap="round"/></marker><marker id="y" overflow="visible" markerHeight="7" markerWidth="4.2071066" orient="auto-start-reverse" preserveAspectRatio="xMidYMid" viewBox="0 0 4.2071068 7"><path transform="rotate(180 .125 0)" d="m3-3-3 3 3 3" fill="none" stroke="context-stroke" stroke-linecap="round"/></marker><marker id="a" overflow="visible" markerHeight="7" markerWidth="4.2071066" orient="auto-start-reverse" preserveAspectRatio="xMidYMid" viewBox="0 0 4.2071068 7"><path transform="rotate(180 .125 0)" d="m3-3-3 3 3 3" fill="none" stroke="context-stroke" stroke-linecap="round"/></marker><marker id="e" overflow="visible" markerHeight="7" markerWidth="4.2071066" orient="auto-start-reverse" preserveAspectRatio="xMidYMid" viewBox="0 0 4.2071068 7"><path transform="rotate(180 .125 0)" d="m3-3-3 3 3 3" fill="none" stroke="context-stroke" stroke-linecap="round"/></marker><marker id="d" overflow="visible" markerHeight="7" markerWidth="4.2071066" orient="auto-start-reverse" preserveAspectRatio="xMidYMid" viewBox="0 0 4.2071068 7"><path transform="rotate(180 .125 0)" d="m3-3-3 3 3 3" fill="none" stroke="context-stroke" stroke-linecap="round"/></marker><marker id="w" overflow="visible" markerHeight="7" markerWidth="4.2071066" orient="auto-start-reverse" preserveAspectRatio="xMidYMid" viewBox="0 0 4.2071068 7"><path transform="rotate(180 .125 0)" d="m3-3-3 3 3 3" fill="none" stroke="context-stroke" stroke-linecap="round"/></marker><marker id="m" overflow="visible" markerHeight="7" markerWidth="4.2071066" orient="auto-start-reverse" preserveAspectRatio="xMidYMid" viewBox="0 0 4.2071068 7"><path transform="rotate(180 .125 0)" d="m3-3-3 3 3 3" fill="none" stroke="context-stroke" stroke-linecap="round"/></marker><marker id="l" overflow="visible" markerHeight="7" markerWidth="4.2071066" orient="auto-start-reverse" preserveAspectRatio="xMidYMid" viewBox="0 0 4.2071068 7"><path transform="rotate(180 .125 0)" d="m3-3-3 3 3 3" fill="none" stroke="context-stroke" stroke-linecap="round"/></marker><marker id="k" overflow="visible" markerHeight="7" markerWidth="4.2071066" orient="auto-start-reverse" preserveAspectRatio="xMidYMid" viewBox="0 0 4.2071068 7"><path transform="rotate(180 .125 0)" d="m3-3-3 3 3 3" fill="none" stroke="context-stroke" stroke-linecap="round"/></marker><marker id="u" overflow="visible" markerHeight="7" markerWidth="4.2071066" orient="auto-start-reverse" preserveAspectRatio="xMidYMid" viewBox="0 0 4.2071068 7"><path transform="rotate(180 .125 0)" d="m3-3-3 3 3 3" fill="none" stroke="context-stroke" stroke-linecap="round"/></marker><marker id="q" overflow="visible" markerHeight="7" markerWidth="4.2071066" orient="auto-start-reverse" preserveAspectRatio="xMidYMid" viewBox="0 0 4.2071068 7"><path transform="rotate(180 .125 0)" d="m3-3-3 3 3 3" fill="none" stroke="context-stroke" stroke-linecap="round"/></marker><marker id="t" overflow="visible" markerHeight="7" markerWidth="4.2071066" orient="auto-start-reverse" preserveAspectRatio="xMidYMid" viewBox="0 0 4.2071068 7"><path transform="rotate(180 .125 0)" d="m3-3-3 3 3 3" fill="none" stroke="context-stroke" stroke-linecap="round"/></marker><marker id="p" overflow="visible" markerHeight="7" markerWidth="4.2071066" orient="auto-start-reverse" preserveAspectRatio="xMidYMid" viewBox="0 0 4.2071068 7"><path transform="rotate(180 .125 0)" d="m3-3-3 3 3 3" fill="none" stroke="context-stroke" stroke-linecap="round"/></marker><marker id="n" overflow="visible" markerHeight="7" markerWidth="4.2071066" orient="auto-start-reverse" preserveAspectRatio="xMidYMid" viewBox="0 0 4.2071068 7"><path transform="rotate(180 .125 0)" d="m3-3-3 3 3 3" fill="none" stroke="context-stroke" stroke-linecap="round"/></marker><marker id="s" overflow="visible" markerHeight="7" markerWidth="4.2071066" orient="auto-start-reverse" preserveAspectRatio="xMidYMid" viewBox="0 0 4.2071068 7"><path transform="rotate(180 .125 0)" d="m3-3-3 3 3 3" fill="none" stroke="context-stroke" stroke-linecap="round"/></marker><marker id="r" overflow="visible" markerHeight="7" markerWidth="4.2071066" orient="auto-start-reverse" preserveAspectRatio="xMidYMid" viewBox="0 0 4.2071068 7"><path transform="rotate(180 .125 0)" d="m3-3-3 3 3 3" fill="none" stroke="context-stroke" stroke-linecap="round"/></marker><marker id="o" overflow="visible" markerHeight="7" markerWidth="4.2071066" orient="auto-start-reverse" preserveAspectRatio="xMidYMid" viewBox="0 0 4.2071068 7"><path transform="rotate(180 .125 0)" d="m3-3-3 3 3 3" fill="none" stroke="context-stroke" stroke-linecap="round"/></marker><marker id="c" overflow="visible" markerHeight="7" markerWidth="4.2071066" orient="auto-start-reverse" preserveAspectRatio="xMidYMid" viewBox="0 0 4.2071068 7"><path transform="rotate(180 .125 0)" d="m3-3-3 3 3 3" fill="none" stroke="context-stroke" stroke-linecap="round"/></marker><marker id="b" overflow="visible" markerHeight="7" markerWidth="4.2071066" orient="auto-start-reverse" preserveAspectRatio="xMidYMid" viewBox="0 0 4.2071068 7"><path transform="rotate(180 .125 0)" d="m3-3-3 3 3 3" fill="none" stroke="context-stroke" stroke-linecap="round"/></marker><marker id="h" overflow="visible" markerHeight="7" markerWidth="4.2071066" orient="auto-start-reverse" preserveAspectRatio="xMidYMid" viewBox="0 0 4.2071068 7"><path transform="rotate(180 .125 0)" d="m3-3-3 3 3 3" fill="none" stroke="context-stroke" stroke-linecap="round"/></marker><marker id="i" overflow="visible" markerHeight="7" markerWidth="4.2071066" orient="auto-start-reverse" preserveAspectRatio="xMidYMid" viewBox="0 0 4.2071068 7"><path transform="rotate(180 .125 0)" d="m3-3-3 3 3 3" fill="none" stroke="context-stroke" stroke-linecap="round"/></marker><marker id="v" overflow="visible" markerHeight="7" markerWidth="4.2071066" orient="auto-start-reverse" preserveAspectRatio="xMidYMid" viewBox="0 0 4.2071068 7"><path transform="rotate(180 .125 0)" d="m3-3-3 3 3 3" fill="none" stroke="context-stroke" stroke-linecap="round"/></marker><marker id="j" overflow="visible" markerHeight="7" markerWidth="4.2071066" orient="auto-start-reverse" preserveAspectRatio="xMidYMid" viewBox="0 0 4.2071068 7"><path transform="rotate(180 .125 0)" d="m3-3-3 3 3 3" fill="none" stroke="context-stroke" stroke-linecap="round"/></marker></defs><g transform="matrix(1.3333 0 0 -1.3333 -148.9 918.32)"><text transform="scale(1,-1)" x="278.93469" y="-640.52014" font-family="Ubuntu" font-size="9px" font-weight="bold" stroke-width=".5625" style="line-height:1.25" xml:space="preserve"><tspan x="278.93469" y="-640.52014" stroke-width=".5625"/></text><rect transform="scale(1,-1)" x="112.89" y="-638.48" width="87.265" height="33.936" rx="1.5" ry="1.5" fill="#ee7105" stroke="#b5161e" stroke-linecap="round" stroke-linejoin="round" stroke-width=".75" style="paint-order:fill markers stroke"/><text transform="scale(1,-1)" x="118.71143" y="-623.11609" fill="#000000" font-family="Ubuntu" font-size="6px" text-align="center" xml:space="preserve"><tspan x="118.71143" y="-623.11609" text-align="start">1) organizational objectives</tspan><tspan x="118.71143" y="-615.61609" text-align="start">2) organizational operations</tspan><tspan x="118.71143" y="-608.11609" text-align="start">3) organizational structure</tspan></text><text transform="scale(1,-1)" x="118.15643" y="-631.38391" fill="#000000" font-family="Ubuntu" font-size="6px" text-align="center" text-anchor="middle" xml:space="preserve"><tspan x="118.15643" y="-631.38391" font-size="6px" text-align="start" text-anchor="start">Organizational Data Analysis</tspan></text><rect transform="scale(1,-1)" x="309.69" y="-638.48" width="87.265" height="63.464" rx="1.5" ry="1.5" fill="#ee7105" stroke="#b5161e" stroke-linecap="round" stroke-linejoin="round" stroke-width=".75" style="paint-order:fill markers stroke"/><text transform="scale(1,-1)" x="320.26694" y="-623.4184" fill="#000000" font-family="Ubuntu" font-size="6px" text-align="center" xml:space="preserve"><tspan x="320.26694" y="-623.4184" text-align="start">1) Feasibility and Costs</tspan><tspan x="320.26694" y="-615.9184" text-align="start">2) Scope and Boundaries</tspan><tspan x="320.26694" y="-608.4184" text-align="start">3) Design Model</tspan><tspan x="320.26694" y="-600.9184" text-align="start">4) Performance</tspan><tspan x="320.26694" y="-593.4184" text-align="start">5) Security</tspan><tspan x="320.26694" y="-585.9184" text-align="start">6) Portability</tspan><tspan x="320.26694" y="-578.4184" text-align="start">7) Maintenance</tspan></text><text transform="scale(1,-1)" x="322.78094" y="-631.5351" fill="#000000" font-family="Ubuntu" font-size="6px" text-align="center" text-anchor="middle" xml:space="preserve"><tspan x="322.78094" y="-631.5351" font-size="6px" text-align="start" text-anchor="start">Requirements Analysis</tspan></text><rect transform="scale(1,-1)" x="216.5" y="-687.52" width="76.857" height="10.901" rx="1.5" ry="1.5" fill="#ee7105" stroke="#b5161e" stroke-linecap="round" stroke-linejoin="round" stroke-width=".75" style="paint-order:fill markers stroke"/><text transform="scale(1,-1)" x="254.77968" y="-680.30774" fill="#000000" font-family="Ubuntu" font-size="6px" text-align="center" text-anchor="middle" xml:space="preserve"><tspan x="254.77968" y="-680.30774" font-size="6px">Project Planning</tspan></text><rect transform="scale(1,-1)" x="203.05" y="-670.2" width="103.76" height="25.294" rx="1.5" ry="1.5" fill="#ee7105" stroke="#b5161e" stroke-linecap="round" stroke-linejoin="round" stroke-width=".75" style="paint-order:fill markers stroke"/><text transform="scale(1,-1)" x="254.92368" y="-663.27856" fill="#000000" font-family="Ubuntu" font-size="6px" text-align="center" text-anchor="middle" xml:space="preserve"><tspan x="254.92368" y="-663.27856">Requirements Definition and</tspan><tspan x="254.92368" y="-655.77856">Organizational Data Collection</tspan><tspan x="254.92368" y="-648.27856">(initial requirements documentation)</tspan></text><rect transform="scale(1,-1)" x="320.1" y="-533.95" width="76.857" height="10.901" rx="1.5" ry="1.5" fill="#ee7105" stroke="#b5161e" stroke-linecap="round" stroke-linejoin="round" stroke-width=".75" style="paint-order:fill markers stroke"/><text transform="scale(1,-1)" x="358.38388" y="-526.73419" fill="#000000" font-family="Ubuntu" font-size="6px" text-align="center" text-anchor="middle" xml:space="preserve"><tspan x="358.38388" y="-526.73419" font-size="6px">Application Design</tspan></text><rect transform="scale(1,-1)" x="320.1" y="-425.01" width="76.857" height="10.901" rx="1.5" ry="1.5" fill="#ee7105" stroke="#b5161e" stroke-linecap="round" stroke-linejoin="round" stroke-width=".75" style="paint-order:fill markers stroke"/><text transform="scale(1,-1)" x="358.38388" y="-417.79282" fill="#000000" font-family="Ubuntu" font-size="6px" text-align="center" text-anchor="middle" xml:space="preserve"><tspan x="358.38388" y="-417.79282" font-size="6px">Application Implementation</tspan></text><rect transform="scale(1,-1)" x="320.1" y="-403.93" width="76.857" height="10.901" rx="1.5" ry="1.5" fill="#ee7105" stroke="#b5161e" stroke-linecap="round" stroke-linejoin="round" stroke-width=".75" style="paint-order:fill markers stroke"/><text transform="scale(1,-1)" x="358.38385" y="-396.71954" fill="#000000" font-family="Ubuntu" font-size="6px" text-align="center" text-anchor="middle" xml:space="preserve"><tspan x="358.38385" y="-396.71954" font-size="6px">Maintenance</tspan></text><rect transform="scale(1,-1)" x="320.1" y="-386.61" width="76.857" height="10.901" rx="1.5" ry="1.5" fill="#ee7105" stroke="#b5161e" stroke-linecap="round" stroke-linejoin="round" stroke-width=".75" style="paint-order:fill markers stroke"/><text transform="scale(1,-1)" x="358.38388" y="-379.39627" fill="#000000" font-family="Ubuntu" font-size="6px" text-align="center" text-anchor="middle" xml:space="preserve"><tspan x="358.38388" y="-379.39627" font-size="6px">Installation</tspan></text><rect transform="scale(1,-1)" x="112.89" y="-538.4" width="76.857" height="40.817" rx="1.5" ry="1.5" fill="#ee7105" stroke="#b5161e" stroke-linecap="round" stroke-linejoin="round" stroke-width=".75" style="paint-order:fill markers stroke"/><text transform="scale(1,-1)" x="151.09747" y="-516.21478" fill="#000000" font-family="Ubuntu" text-align="center" text-anchor="middle" xml:space="preserve"><tspan x="151.09747" y="-516.21478" font-size="6px">Requirements Refinement</tspan><tspan x="151.09747" y="-508.71478" font-size="3px"/><tspan x="151.09747" y="-501.21478" font-size="6px"/></text><rect transform="scale(1,-1)" x="216.5" y="-568.6" width="76.857" height="10.901" rx="1.5" ry="1.5" fill="#ee7105" stroke="#b5161e" stroke-linecap="round" stroke-linejoin="round" stroke-width=".75" style="paint-order:fill markers stroke"/><text transform="scale(1,-1)" x="254.77968" y="-561.3808" fill="#000000" font-family="Ubuntu" font-size="6px" text-align="center" text-anchor="middle" xml:space="preserve"><tspan x="254.77968" y="-561.3808" font-size="6px">Problems and Constraints</tspan></text><rect transform="scale(1,-1)" x="216.5" y="-551.27" width="76.857" height="10.901" rx="1.5" ry="1.5" fill="#ee7105" stroke="#b5161e" stroke-linecap="round" stroke-linejoin="round" stroke-width=".75" style="paint-order:fill markers stroke"/><text transform="scale(1,-1)" x="254.77968" y="-544.0575" fill="#000000" font-family="Ubuntu" font-size="6px" text-align="center" text-anchor="middle" xml:space="preserve"><tspan x="254.77968" y="-544.0575" font-size="6px">Timeline Planning</tspan></text><rect transform="scale(1,-1)" x="216.5" y="-386.61" width="76.857" height="10.901" rx="1.5" ry="1.5" fill="#ee7105" stroke="#b5161e" stroke-linecap="round" stroke-linejoin="round" stroke-width=".75" style="paint-order:fill markers stroke"/><text transform="scale(1,-1)" x="254.77968" y="-379.39627" fill="#000000" font-family="Ubuntu" font-size="6px" text-align="center" text-anchor="middle" xml:space="preserve"><tspan x="254.77968" y="-379.39627" font-size="6px">Evaluation</tspan></text><rect transform="scale(1,-1)" x="216.5" y="-428.76" width="76.857" height="18.401" rx="1.5" ry="1.5" fill="#ee7105" stroke="#b5161e" stroke-linecap="round" stroke-linejoin="round" stroke-width=".75" style="paint-order:fill markers stroke"/><text transform="scale(1,-1)" x="254.77969" y="-421.54279" fill="#000000" font-family="Ubuntu" font-size="6px" text-align="center" text-anchor="middle" xml:space="preserve"><tspan x="254.77969" y="-421.54279">Database Implementation</tspan><tspan x="254.77969" y="-414.04279">and Loading</tspan></text><rect transform="scale(1,-1)" x="216.5" y="-403.93" width="76.857" height="10.901" rx="1.5" ry="1.5" fill="#ee7105" stroke="#b5161e" stroke-linecap="round" stroke-linejoin="round" stroke-width=".75" style="paint-order:fill markers stroke"/><text transform="scale(1,-1)" x="254.77968" y="-396.71957" fill="#000000" font-family="Ubuntu" font-size="6px" text-align="center" text-anchor="middle" xml:space="preserve"><tspan x="254.77968" y="-396.71957" font-size="6px">Integration and Testing</tspan></text><rect transform="scale(1,-1)" x="209.61" y="-516.63" width="90.637" height="81.446" rx="1.5" ry="1.5" fill="#ee7105" stroke="#b5161e" stroke-linecap="round" stroke-linejoin="round" stroke-width=".75" style="paint-order:fill markers stroke"/><rect transform="scale(1,-1)" x="215" y="-504.15" width="79.857" height="13.9" rx="1.5" ry="1.5" fill="#fff" style="paint-order:fill markers stroke"/><g transform="translate(-3.0468 -1.7642)"><rect transform="scale(1,-1)" x="219.54" y="-504.42" width="76.857" height="10.901" rx="1.5" ry="1.5" fill="#ee7105" stroke="#b5161e" stroke-linecap="round" stroke-linejoin="round" stroke-width=".75" style="paint-order:fill markers stroke"/><text transform="scale(1,-1)" x="258.02448" y="-497.20465" fill="#000000" font-family="Ubuntu" font-size="6px" text-align="center" text-anchor="middle" xml:space="preserve"><tspan x="258.02448" y="-497.20465" font-size="6px">Conceptual Design</tspan></text></g><rect transform="scale(1,-1)" x="215" y="-469.67" width="79.857" height="13.9" rx="1.5" ry="1.5" fill="#fff" style="paint-order:fill markers stroke"/><g transform="translate(-3.1308 -5.2891)"><rect transform="scale(1,-1)" x="219.63" y="-473.46" width="76.857" height="10.901" rx="1.5" ry="1.5" fill="#ee7105" stroke="#b5161e" stroke-linecap="round" stroke-linejoin="round" stroke-width=".75" style="paint-order:fill markers stroke"/><text transform="scale(1,-1)" x="258.02448" y="-466.242" fill="#000000" font-family="Ubuntu" font-size="6px" text-align="center" text-anchor="middle" xml:space="preserve"><tspan x="258.02448" y="-466.242" font-size="6px">Logical Design</tspan></text></g><rect transform="scale(1,-1)" x="215" y="-486.91" width="79.857" height="13.9" rx="1.5" ry="1.5" fill="#fff" style="paint-order:fill markers stroke"/><g transform="translate(-3.1308 -4.9885)"><rect transform="scale(1,-1)" x="219.63" y="-490.4" width="76.857" height="10.901" rx="1.5" ry="1.5" fill="#ee7105" stroke="#b5161e" stroke-linecap="round" stroke-linejoin="round" stroke-width=".75" style="paint-order:fill markers stroke"/><text transform="scale(1,-1)" x="258.02448" y="-482.6662" fill="#000000" font-family="Ubuntu" font-size="6px" text-align="center" text-anchor="middle" xml:space="preserve"><tspan x="258.02448" y="-482.6662" font-size="6px">Database Model Selection</tspan></text></g><text transform="scale(1,-1)" x="254.89368" y="-508.62601" fill="#000000" font-family="Ubuntu" font-size="6px" text-align="center" text-anchor="middle" xml:space="preserve"><tspan x="254.89368" y="-508.62601" font-size="6px">Database Design</tspan></text><path d="m254.93 491.75v-6.343" fill="none" marker-end="url(#z)" stroke="#b5161e" stroke-linecap="round" stroke-linejoin="round" stroke-width=".75"/><path d="m254.93 474.51v-6.343" fill="none" marker-end="url(#g)" stroke="#b5161e" stroke-linecap="round" stroke-linejoin="round" stroke-width=".75"/><rect transform="scale(1,-1)" x="215" y="-452.42" width="79.857" height="13.9" rx="1.5" ry="1.5" fill="#fff" style="paint-order:fill markers stroke"/><g transform="translate(-3.1308 -7.2089)"><rect transform="scale(1,-1)" x="219.63" y="-458.13" width="76.857" height="10.901" rx="1.5" ry="1.5" fill="#ee7105" stroke="#b5161e" stroke-linecap="round" stroke-linejoin="round" stroke-width=".75" style="paint-order:fill markers stroke"/><text transform="scale(1,-1)" x="258.02448" y="-450.91812" fill="#000000" font-family="Ubuntu" font-size="6px" text-align="center" text-anchor="middle" xml:space="preserve"><tspan x="258.02448" y="-450.91812" font-size="6px">Physical Design</tspan></text></g><path d="m254.93 457.27v-6.343" fill="none" marker-end="url(#y)" stroke="#b5161e" stroke-linecap="round" stroke-linejoin="round" stroke-width=".75"/><text transform="scale(1,-1)" x="157.88695" y="-499.4379" font-family="Ubuntu" font-size="9px" font-weight="bold" stroke-width=".5625" style="line-height:1.25" xml:space="preserve"><tspan x="157.88695" y="-499.4379" stroke-width=".5625"/></text><path d="m254.93 676.62v-6.4225" fill="none" marker-end="url(#x)" stroke="#b5161e" stroke-linecap="round" stroke-linejoin="round" stroke-width=".75"/><path d="m306.81 653.23c46.519 0 46.519 0 46.519-14.788" fill="none" marker-end="url(#f)" stroke="#b5161e" stroke-linecap="round" stroke-linejoin="round" stroke-width=".75"/><path d="m203.05 657.32c-46.519 0-46.519 0-46.519-18.894" fill="none" marker-end="url(#a)" stroke="#b5161e" stroke-linecap="round" stroke-linejoin="round" stroke-width=".75"/><path d="m353.33 574.82c-7e-5 -11.672-7e-5 -11.672-59.972-11.672" fill="none" marker-end="url(#e)" stroke="#b5161e" stroke-linecap="round" stroke-linejoin="round" stroke-width=".75"/><path d="m156.53 604.24c7e-5 -41.167 7e-5 -41.167 59.972-41.167" fill="none" marker-end="url(#d)" stroke="#b5161e" stroke-linecap="round" stroke-linejoin="round" stroke-width=".75"/><path d="m216.5 381.16c-26.277 0-26.277 41.495-0.37499 41.607" fill="none" marker-end="url(#b)" stroke="#b5161e" stroke-linecap="round" stroke-linejoin="round" stroke-width=".75"/><path d="m254.93 557.69v-6.4225" fill="none" marker-end="url(#w)" stroke="#b5161e" stroke-linecap="round" stroke-linejoin="round" stroke-width=".75"/><path d="m358.53 523.05v-98.041" fill="none" marker-end="url(#v)" stroke="#b5161e" stroke-linecap="round" stroke-linejoin="round" stroke-width=".75"/><path d="m320.1 531.19h-130.35" fill="none" marker-end="url(#l)" stroke="#b5161e" stroke-linecap="round" stroke-linejoin="round" stroke-width=".75"/><path d="m189.75 525.81h130.35" fill="none" marker-end="url(#k)" stroke="#b5161e" stroke-linecap="round" stroke-linejoin="round" stroke-width=".75"/><path d="m200.1 621.51h109.6" fill="none" marker-end="url(#j)" stroke="#b5161e" stroke-linecap="round" stroke-linejoin="round" stroke-width=".75"/><path d="m254.93 533.81c3.472-5.3164 3.472-5.3164 0-10.783" fill="none" stroke="#fff" stroke-linecap="round" stroke-linejoin="round" stroke-width="3"/><path d="m254.93 539.92v-6.1087c3.472-5.3164 3.472-5.3164 0-10.783v-6.3957" fill="none" marker-end="url(#m)" stroke="#b5161e" stroke-linecap="round" stroke-linejoin="round" stroke-width=".75"/><path d="m254.93 435.18v-6.4225" fill="none" marker-end="url(#u)" stroke="#b5161e" stroke-linecap="round" stroke-linejoin="round" stroke-width=".75"/><path d="m293.4 419.56h26.671" fill="none" marker-end="url(#t)" stroke="#b5161e" stroke-linecap="round" stroke-linejoin="round" stroke-width=".75"/><path d="m293.36 383.85h26.671" fill="none" marker-end="url(#s)" stroke="#b5161e" stroke-linecap="round" stroke-linejoin="round" stroke-width=".75"/><path d="m320.1 378.47h-26.671" fill="none" marker-end="url(#r)" stroke="#b5161e" stroke-linecap="round" stroke-linejoin="round" stroke-width=".75"/><path d="m254.93 393.03v-6.4225" fill="none" marker-end="url(#q)" stroke="#b5161e" stroke-linecap="round" stroke-linejoin="round" stroke-width=".75"/><path d="m358.53 386.61v6.4225" fill="none" marker-end="url(#n)" stroke="#b5161e" stroke-linecap="round" stroke-linejoin="round" stroke-width=".75"/><path d="m372.22 413.93v-9.992" fill="none" marker-end="url(#p)" stroke="#b5161e" stroke-linecap="round" stroke-linejoin="round" stroke-width=".75"/><path d="m344.85 414.11v-2.6649c0-2.5025 0-2.5025-2.5028-2.5025l-85.65-1.4705c-1.7673 0-1.7673 0-1.7673-1.7673v-1.7673" fill="none" marker-end="url(#o)" stroke="#b5161e" stroke-linecap="round" stroke-linejoin="round" stroke-width=".75"/><path d="m216.5 398.48c-18.35-1e-5 -18.35 17.975 0 17.975" fill="none" marker-end="url(#c)" stroke="#b5161e" stroke-linecap="round" stroke-linejoin="round" stroke-width=".75"/><path d="m209.61 509.79h-19.876" fill="none" marker-end="url(#h)" stroke="#b5161e" stroke-linecap="round" stroke-linejoin="round" stroke-width=".75"/><path d="m189.73 504.41h19.876" fill="none" marker-end="url(#i)" stroke="#b5161e" stroke-linecap="round" stroke-linejoin="round" stroke-width=".75"/></g></svg>
