<?xml version="1.0" encoding="UTF-8"?>
<svg width="394pt" height="125pt" version="1.1" viewBox="0 0 394 125" xmlns="http://www.w3.org/2000/svg"><defs><marker id="h" overflow="visible" markerHeight="7" markerWidth="4.2071066" orient="auto-start-reverse" preserveAspectRatio="xMidYMid" viewBox="0 0 4.2071068 7"><path transform="rotate(180 .125 0)" d="m3-3-3 3 3 3" fill="none" stroke="context-stroke" stroke-linecap="round"/></marker><marker id="g" overflow="visible" markerHeight="7" markerWidth="4.2071066" orient="auto-start-reverse" preserveAspectRatio="xMidYMid" viewBox="0 0 4.2071068 7"><path transform="rotate(180 .125 0)" d="m3-3-3 3 3 3" fill="none" stroke="context-stroke" stroke-linecap="round"/></marker><marker id="e" overflow="visible" markerHeight="7" markerWidth="4.2071066" orient="auto-start-reverse" preserveAspectRatio="xMidYMid" viewBox="0 0 4.2071068 7"><path transform="rotate(180 .125 0)" d="m3-3-3 3 3 3" fill="none" stroke="context-stroke" stroke-linecap="round"/></marker><marker id="d" overflow="visible" markerHeight="7" markerWidth="4.2071066" orient="auto-start-reverse" preserveAspectRatio="xMidYMid" viewBox="0 0 4.2071068 7"><path transform="rotate(180 .125 0)" d="m3-3-3 3 3 3" fill="none" stroke="context-stroke" stroke-linecap="round"/></marker><marker id="f" overflow="visible" markerHeight="7" markerWidth="4.2071066" orient="auto-start-reverse" preserveAspectRatio="xMidYMid" viewBox="0 0 4.2071068 7"><path transform="rotate(180 .125 0)" d="m3-3-3 3 3 3" fill="none" stroke="context-stroke" stroke-linecap="round"/></marker><marker id="b" overflow="visible" markerHeight="7" markerWidth="4.2071066" orient="auto-start-reverse" preserveAspectRatio="xMidYMid" viewBox="0 0 4.2071068 7"><path transform="rotate(180 .125 0)" d="m3-3-3 3 3 3" fill="none" stroke="context-stroke" stroke-linecap="round"/></marker><marker id="a" overflow="visible" markerHeight="7" markerWidth="4.2071066" orient="auto-start-reverse" preserveAspectRatio="xMidYMid" viewBox="0 0 4.2071068 7"><path transform="rotate(180 .125 0)" d="m3-3-3 3 3 3" fill="none" stroke="context-stroke" stroke-linecap="round"/></marker><marker id="c" overflow="visible" markerHeight="7" markerWidth="4.2071066" orient="auto-start-reverse" preserveAspectRatio="xMidYMid" viewBox="0 0 4.2071068 7"><path transform="rotate(180 .125 0)" d="m3-3-3 3 3 3" fill="none" stroke="context-stroke" stroke-linecap="round"/></marker></defs><g transform="matrix(1.3333 0 0 -1.3333 -35.976 900.15)"><rect transform="scale(1,-1)" x="28.201" y="-647.03" width="76.857" height="10.901" rx="1.5" ry="1.5" fill="#ee7105" stroke="#b5161e" stroke-linecap="round" stroke-linejoin="round" stroke-width=".75" style="paint-order:fill markers stroke"/><text transform="scale(1,-1)" x="66.596481" y="-639.80457" fill="#000000" font-family="Ubuntu" font-size="6px" text-align="center" text-anchor="middle" xml:space="preserve"><tspan x="66.596481" y="-639.80457" font-size="6px">Requirements Definition</tspan></text><rect transform="scale(1,-1)" x="127.09" y="-647.03" width="76.857" height="10.901" rx="1.5" ry="1.5" fill="#ee7105" stroke="#b5161e" stroke-linecap="round" stroke-linejoin="round" stroke-width=".75" style="paint-order:fill markers stroke"/><text transform="scale(1,-1)" x="165.48936" y="-639.92755" fill="#000000" font-family="Ubuntu" font-size="6px" text-align="center" text-anchor="middle" xml:space="preserve"><tspan x="165.48936" y="-639.92755" font-size="6px">Design</tspan></text><rect transform="scale(1,-1)" x="225.99" y="-647.03" width="76.857" height="10.901" rx="1.5" ry="1.5" fill="#ee7105" stroke="#b5161e" stroke-linecap="round" stroke-linejoin="round" stroke-width=".75" style="paint-order:fill markers stroke"/><text transform="scale(1,-1)" x="264.26828" y="-639.8136" fill="#000000" font-family="Ubuntu" font-size="6px" text-align="center" text-anchor="middle" xml:space="preserve"><tspan x="264.26828" y="-639.8136" font-size="6px">Evaluation by Stakeholders</tspan></text><rect transform="scale(1,-1)" x="176.54" y="-673.71" width="76.857" height="10.901" rx="1.5" ry="1.5" fill="#ee7105" stroke="#b5161e" stroke-linecap="round" stroke-linejoin="round" stroke-width=".75" style="paint-order:fill markers stroke"/><text transform="scale(1,-1)" x="214.95383" y="-666.61108" fill="#000000" font-family="Ubuntu" font-size="6px" text-align="center" text-anchor="middle" xml:space="preserve"><tspan x="214.95383" y="-666.61108" font-size="6px">Prototyping</tspan></text><rect transform="scale(1,-1)" x="176.54" y="-620.34" width="76.857" height="10.901" rx="1.5" ry="1.5" fill="#ee7105" stroke="#b5161e" stroke-linecap="round" stroke-linejoin="round" stroke-width=".75" style="paint-order:fill markers stroke"/><text transform="scale(1,-1)" x="214.87282" y="-613.12103" fill="#000000" font-family="Ubuntu" font-size="6px" text-align="center" text-anchor="middle" xml:space="preserve"><tspan x="214.87282" y="-613.12103" font-size="6px">Review and Update</tspan></text><rect transform="scale(1,-1)" x="127.09" y="-593.66" width="76.857" height="10.901" rx="1.5" ry="1.5" fill="#ee7105" stroke="#b5161e" stroke-linecap="round" stroke-linejoin="round" stroke-width=".75" style="paint-order:fill markers stroke"/><text transform="scale(1,-1)" x="165.50737" y="-586.44653" fill="#000000" font-family="Ubuntu" font-size="6px" text-align="center" text-anchor="middle" xml:space="preserve"><tspan x="165.50737" y="-586.44653" font-size="6px">Integration and Testing</tspan></text><rect transform="scale(1,-1)" x="225.99" y="-593.66" width="76.857" height="10.901" rx="1.5" ry="1.5" fill="#ee7105" stroke="#b5161e" stroke-linecap="round" stroke-linejoin="round" stroke-width=".75" style="paint-order:fill markers stroke"/><text transform="scale(1,-1)" x="264.19028" y="-586.4375" fill="#000000" font-family="Ubuntu" font-size="6px" text-align="center" text-anchor="middle" xml:space="preserve"><tspan x="264.19028" y="-586.4375" font-size="6px">Development</tspan></text><text transform="scale(1,-1)" x="286.85565" y="-616.19238" fill="#000000" font-family="Ubuntu" font-size="6px" xml:space="preserve"><tspan x="286.85565" y="-616.19238">Stakeholders</tspan><tspan x="286.85565" y="-608.69238">are satisfied</tspan></text><rect transform="scale(1,-1)" x="28.201" y="-593.66" width="76.857" height="10.901" rx="1.5" ry="1.5" fill="#ee7105" stroke="#b5161e" stroke-linecap="round" stroke-linejoin="round" stroke-width=".75" style="paint-order:fill markers stroke"/><text transform="scale(1,-1)" x="66.58448" y="-586.02948" fill="#000000" font-family="Ubuntu" font-size="6px" text-align="center" text-anchor="middle" xml:space="preserve"><tspan x="66.58448" y="-586.02948" font-size="6px">Maintenance</tspan></text><path d="m105.06 641.58h22.036" fill="none" marker-end="url(#h)" stroke="#b5161e" stroke-linecap="round" stroke-linejoin="round" stroke-width=".75"/><path d="m225.24 588.21h-22.036" fill="none" marker-end="url(#a)" stroke="#b5161e" stroke-linecap="round" stroke-linejoin="round" stroke-width=".75"/><path d="m127.09 588.21h-22.036" fill="none" marker-end="url(#c)" stroke="#b5161e" stroke-linecap="round" stroke-linejoin="round" stroke-width=".75"/><path d="m284 636.13v-42.443" fill="none" marker-end="url(#b)" stroke="#b5161e" stroke-linecap="round" stroke-linejoin="round" stroke-width=".75"/><path d="m165.52 647.03c0 10.617 0 21.233 11.018 21.233" fill="none" marker-end="url(#g)" stroke="#b5161e" stroke-linecap="round" stroke-linejoin="round" stroke-width=".75"/><path d="m264.42 636.13c0-10.617 0-21.233-11.018-21.233" fill="none" marker-end="url(#d)" stroke="#b5161e" stroke-linecap="round" stroke-linejoin="round" stroke-width=".75"/><path d="m176.54 614.89c-11.018 2e-5 -11.018 10.617-11.018 21.233" fill="none" marker-end="url(#f)" stroke="#b5161e" stroke-linecap="round" stroke-linejoin="round" stroke-width=".75"/><path d="m253.4 668.26c11.018-2e-5 11.018-10.617 11.018-21.233" fill="none" marker-end="url(#e)" stroke="#b5161e" stroke-linecap="round" stroke-linejoin="round" stroke-width=".75"/></g></svg>
