<?xml version="1.0" encoding="UTF-8"?>
<svg width="394pt" height="125pt" version="1.1" viewBox="0 0 394 125" xmlns="http://www.w3.org/2000/svg"><defs><marker id="h" overflow="visible" markerHeight="7" markerWidth="4.2071066" orient="auto-start-reverse" preserveAspectRatio="xMidYMid" viewBox="0 0 4.2071068 7"><path transform="rotate(180 .125 0)" d="m3-3-3 3 3 3" fill="none" stroke="context-stroke" stroke-linecap="round"/></marker><marker id="g" overflow="visible" markerHeight="7" markerWidth="4.2071066" orient="auto-start-reverse" preserveAspectRatio="xMidYMid" viewBox="0 0 4.2071068 7"><path transform="rotate(180 .125 0)" d="m3-3-3 3 3 3" fill="none" stroke="context-stroke" stroke-linecap="round"/></marker><marker id="e" overflow="visible" markerHeight="7" markerWidth="4.2071066" orient="auto-start-reverse" preserveAspectRatio="xMidYMid" viewBox="0 0 4.2071068 7"><path transform="rotate(180 .125 0)" d="m3-3-3 3 3 3" fill="none" stroke="context-stroke" stroke-linecap="round"/></marker><marker id="d" overflow="visible" markerHeight="7" markerWidth="4.2071066" orient="auto-start-reverse" preserveAspectRatio="xMidYMid" viewBox="0 0 4.2071068 7"><path transform="rotate(180 .125 0)" d="m3-3-3 3 3 3" fill="none" stroke="context-stroke" stroke-linecap="round"/></marker><marker id="f" overflow="visible" markerHeight="7" markerWidth="4.2071066" orient="auto-start-reverse" preserveAspectRatio="xMidYMid" viewBox="0 0 4.2071068 7"><path transform="rotate(180 .125 0)" d="m3-3-3 3 3 3" fill="none" stroke="context-stroke" stroke-linecap="round"/></marker><marker id="b" overflow="visible" markerHeight="7" markerWidth="4.2071066" orient="auto-start-reverse" preserveAspectRatio="xMidYMid" viewBox="0 0 4.2071068 7"><path transform="rotate(180 .125 0)" d="m3-3-3 3 3 3" fill="none" stroke="context-stroke" stroke-linecap="round"/></marker><marker id="a" overflow="visible" markerHeight="7" markerWidth="4.2071066" orient="auto-start-reverse" preserveAspectRatio="xMidYMid" viewBox="0 0 4.2071068 7"><path transform="rotate(180 .125 0)" d="m3-3-3 3 3 3" fill="none" stroke="context-stroke" stroke-linecap="round"/></marker><marker id="c" overflow="visible" markerHeight="7" markerWidth="4.2071066" orient="auto-start-reverse" preserveAspectRatio="xMidYMid" viewBox="0 0 4.2071068 7"><path transform="rotate(180 .125 0)" d="m3-3-3 3 3 3" fill="none" stroke="context-stroke" stroke-linecap="round"/></marker><marker id="i" overflow="visible" markerHeight="7" markerWidth="4.2071066" orient="auto-start-reverse" preserveAspectRatio="xMidYMid" viewBox="0 0 4.2071068 7"><path transform="rotate(180 .125 0)" d="m3-3-3 3 3 3" fill="none" stroke="context-stroke" stroke-linecap="round"/></marker></defs><rect x="1.6244" y="37.465" width="102.47" height="14.534" rx="2" ry="2" fill="#ee7105" stroke="#b5161e" stroke-linecap="round" stroke-linejoin="round" stroke-width=".99998" style="paint-order:fill markers stroke"/><text x="52.817089" y="47.098572" fill="#000000" font-family="Ubuntu" font-size="7.9998px" stroke-width="1.3333" text-align="center" text-anchor="middle" xml:space="preserve"><tspan x="52.817089" y="47.098572" font-size="7.9998px" stroke-width="1.7777">Requirements Definition</tspan></text><rect x="133.47" y="37.465" width="102.47" height="14.534" rx="2" ry="2" fill="#ee7105" stroke="#b5161e" stroke-linecap="round" stroke-linejoin="round" stroke-width=".99998" style="paint-order:fill markers stroke"/><text x="184.67097" y="46.934597" fill="#000000" font-family="Ubuntu" font-size="7.9998px" stroke-width="1.3333" text-align="center" text-anchor="middle" xml:space="preserve"><tspan x="184.67097" y="46.934597" font-size="7.9998px" stroke-width="1.7777">Design</tspan></text><rect x="265.34" y="37.465" width="102.47" height="14.534" rx="2" ry="2" fill="#ee7105" stroke="#b5161e" stroke-linecap="round" stroke-linejoin="round" stroke-width=".99998" style="paint-order:fill markers stroke"/><text x="316.37289" y="47.086529" fill="#000000" font-family="Ubuntu" font-size="7.9998px" stroke-width="1.3333" text-align="center" text-anchor="middle" xml:space="preserve"><tspan x="316.37289" y="47.086529" font-size="7.9998px" stroke-width="1.7777">Evaluation by Stakeholders</tspan></text><rect x="199.4" y="1.8924" width="102.47" height="14.534" rx="2" ry="2" fill="#ee7105" stroke="#b5161e" stroke-linecap="round" stroke-linejoin="round" stroke-width=".99998" style="paint-order:fill markers stroke"/><text x="250.62193" y="11.357442" fill="#000000" font-family="Ubuntu" font-size="7.9998px" stroke-width="1.3333" text-align="center" text-anchor="middle" xml:space="preserve"><tspan x="250.62193" y="11.357442" font-size="7.9998px" stroke-width="1.7777">Prototyping</tspan></text><rect x="199.4" y="73.051" width="102.47" height="14.534" rx="2" ry="2" fill="#ee7105" stroke="#b5161e" stroke-linecap="round" stroke-linejoin="round" stroke-width=".99998" style="paint-order:fill markers stroke"/><text x="250.51393" y="82.675728" fill="#000000" font-family="Ubuntu" font-size="7.9998px" stroke-width="1.3333" text-align="center" text-anchor="middle" xml:space="preserve"><tspan x="250.51393" y="82.675728" font-size="7.9998px" stroke-width="1.7777">Review and Update</tspan></text><rect x="133.47" y="108.62" width="102.47" height="14.534" rx="2" ry="2" fill="#ee7105" stroke="#b5161e" stroke-linecap="round" stroke-linejoin="round" stroke-width=".99998" style="paint-order:fill markers stroke"/><text x="184.69498" y="118.24084" fill="#000000" font-family="Ubuntu" font-size="7.9998px" stroke-width="1.3333" text-align="center" text-anchor="middle" xml:space="preserve"><tspan x="184.69498" y="118.24084" font-size="7.9998px" stroke-width="1.7777">Integration and Testing</tspan></text><rect x="265.34" y="108.62" width="102.47" height="14.534" rx="2" ry="2" fill="#ee7105" stroke="#b5161e" stroke-linecap="round" stroke-linejoin="round" stroke-width=".99998" style="paint-order:fill markers stroke"/><text x="316.26889" y="118.25288" fill="#000000" font-family="Ubuntu" font-size="7.9998px" stroke-width="1.3333" text-align="center" text-anchor="middle" xml:space="preserve"><tspan x="316.26889" y="118.25288" font-size="7.9998px" stroke-width="1.7777">Development</tspan></text><text x="346.48865" y="78.580696" fill="#000000" font-family="Ubuntu" font-size="7.9998px" stroke-width="1.3333" xml:space="preserve"><tspan x="346.48865" y="78.580696">Stakeholders</tspan><tspan x="346.48865" y="88.580444">are satisfied</tspan></text><rect x="1.6244" y="108.62" width="102.47" height="14.534" rx="2" ry="2" fill="#ee7105" stroke="#b5161e" stroke-linecap="round" stroke-linejoin="round" stroke-width=".99998" style="paint-order:fill markers stroke"/><text x="52.801086" y="118.7969" fill="#000000" font-family="Ubuntu" font-size="7.9998px" stroke-width="1.3333" text-align="center" text-anchor="middle" xml:space="preserve"><tspan x="52.801086" y="118.7969" font-size="7.9998px" stroke-width="1.7777">Maintenance</tspan></text><path d="m104.1 44.731h29.381" fill="none" marker-end="url(#h)" stroke="#b5161e" stroke-linecap="round" stroke-linejoin="round" stroke-width=".99998"/><path d="m264.34 115.89h-29.381" fill="none" marker-end="url(#a)" stroke="#b5161e" stroke-linecap="round" stroke-linejoin="round" stroke-width=".99998"/><path d="m133.47 115.89h-29.381" fill="none" marker-end="url(#c)" stroke="#b5161e" stroke-linecap="round" stroke-linejoin="round" stroke-width=".99998"/><path d="m342.68 51.998v56.589" fill="none" marker-end="url(#b)" stroke="#b5161e" stroke-linecap="round" stroke-linejoin="round" stroke-width=".99998"/><path d="m184.71 37.465c0-14.156 0-28.31 14.69-28.31" fill="none" marker-end="url(#g)" stroke="#b5161e" stroke-linecap="round" stroke-linejoin="round" stroke-width=".99998"/><path d="m316.58 51.998c0 14.156 0 28.31-14.69 28.31" fill="none" marker-end="url(#d)" stroke="#b5161e" stroke-linecap="round" stroke-linejoin="round" stroke-width=".99998"/><path d="m199 78.72c-14.69-2.4e-5 -14.69-12.619-14.69-25.237" fill="none" marker-end="url(#f)" stroke="#b5161e" stroke-linecap="round" stroke-linejoin="round" stroke-width=".99997"/><path d="m199.4 83.708c-151.36-2.8e-5 -151.36-15.121-151.36-30.24" fill="none" marker-end="url(#i)" stroke="#b5161e" stroke-linecap="round" stroke-linejoin="round" stroke-width=".99998"/><path d="m301.88 9.1589c14.69 2.67e-5 14.69 14.156 14.69 28.31" fill="none" marker-end="url(#e)" stroke="#b5161e" stroke-linecap="round" stroke-linejoin="round" stroke-width=".99998"/></svg>
