<?xml version="1.0" encoding="UTF-8"?>
<svg width="327pt" height="123pt" version="1.1" viewBox="0 0 327 123" xmlns="http://www.w3.org/2000/svg"><defs><marker id="a" overflow="visible" markerHeight="6.9999995" markerWidth="4.2071066" orient="auto-start-reverse" preserveAspectRatio="xMidYMid" viewBox="0 0 4.2071068 7"><path transform="rotate(180 .125 0)" d="m3-3-3 3 3 3" fill="none" stroke="context-stroke" stroke-linecap="round"/></marker><marker id="d" overflow="visible" markerHeight="7" markerWidth="4.2071066" orient="auto-start-reverse" preserveAspectRatio="xMidYMid" viewBox="0 0 4.2071068 7"><path transform="rotate(180 .125 0)" d="m3-3-3 3 3 3" fill="none" stroke="context-stroke" stroke-linecap="round"/></marker><marker id="c" overflow="visible" markerHeight="7" markerWidth="4.2071066" orient="auto-start-reverse" preserveAspectRatio="xMidYMid" viewBox="0 0 4.2071068 7"><path transform="rotate(180 .125 0)" d="m3-3-3 3 3 3" fill="none" stroke="context-stroke" stroke-linecap="round"/></marker><marker id="b" overflow="visible" markerHeight="7" markerWidth="4.2071066" orient="auto-start-reverse" preserveAspectRatio="xMidYMid" viewBox="0 0 4.2071068 7"><path transform="rotate(180 .125 0)" d="m3-3-3 3 3 3" fill="none" stroke="context-stroke" stroke-linecap="round"/></marker><marker id="f" overflow="visible" markerHeight="7" markerWidth="4.2071066" orient="auto-start-reverse" preserveAspectRatio="xMidYMid" viewBox="0 0 4.2071068 7"><path transform="rotate(180 .125 0)" d="m3-3-3 3 3 3" fill="none" stroke="context-stroke" stroke-linecap="round"/></marker><marker id="e" overflow="visible" markerHeight="6.9999995" markerWidth="4.2071066" orient="auto-start-reverse" preserveAspectRatio="xMidYMid" viewBox="0 0 4.2071068 7"><path transform="rotate(180 .125 0)" d="m3-3-3 3 3 3" fill="none" stroke="context-stroke" stroke-linecap="round"/></marker></defs><g transform="matrix(1.3333 0 0 -1.3333 -158.86 903.88)"><rect transform="scale(1,-1)" x="120.37" y="-676.72" width="76.857" height="10.901" rx="1.5" ry="1.5" fill="#ee7105" stroke="#b5161e" stroke-linecap="round" stroke-linejoin="round" stroke-width=".75" style="paint-order:fill markers stroke"/><text transform="scale(1,-1)" x="158.78299" y="-669.51025" fill="#000000" font-family="Ubuntu" font-size="6px" text-align="center" text-anchor="middle" xml:space="preserve"><tspan x="158.78299" y="-669.51025" font-size="6px">Rapidly Created Prototype</tspan></text><rect transform="scale(1,-1)" x="286.31" y="-676.72" width="76.857" height="10.901" rx="1.5" ry="1.5" fill="#ee7105" stroke="#b5161e" stroke-linecap="round" stroke-linejoin="round" stroke-width=".75" style="paint-order:fill markers stroke"/><text transform="scale(1,-1)" x="324.72513" y="-669.51025" fill="#000000" font-family="Ubuntu" font-size="6px" text-align="center" text-anchor="middle" xml:space="preserve"><tspan x="324.72513" y="-669.51025" font-size="6px">Changed Requirements</tspan></text><rect transform="scale(1,-1)" x="153.56" y="-660.93" width="76.857" height="10.901" rx="1.5" ry="1.5" fill="#ee7105" stroke="#b5161e" stroke-linecap="round" stroke-linejoin="round" stroke-width=".75" style="paint-order:fill markers stroke"/><text transform="scale(1,-1)" x="191.9534" y="-653.7041" fill="#000000" font-family="Ubuntu" font-size="6px" text-align="center" text-anchor="middle" xml:space="preserve"><tspan x="191.9534" y="-653.7041" font-size="6px">Analysis</tspan></text><rect transform="scale(1,-1)" x="186.75" y="-645.13" width="76.857" height="10.901" rx="1.5" ry="1.5" fill="#ee7105" stroke="#b5161e" stroke-linecap="round" stroke-linejoin="round" stroke-width=".75" style="paint-order:fill markers stroke"/><text transform="scale(1,-1)" x="225.14183" y="-638.02997" fill="#000000" font-family="Ubuntu" font-size="6px" text-align="center" text-anchor="middle" xml:space="preserve"><tspan x="225.14183" y="-638.02997" font-size="6px">Design</tspan></text><rect transform="scale(1,-1)" x="219.93" y="-629.33" width="76.857" height="10.901" rx="1.5" ry="1.5" fill="#ee7105" stroke="#b5161e" stroke-linecap="round" stroke-linejoin="round" stroke-width=".75" style="paint-order:fill markers stroke"/><text transform="scale(1,-1)" x="258.13828" y="-622.1098" fill="#000000" font-family="Ubuntu" font-size="6px" text-align="center" text-anchor="middle" xml:space="preserve"><tspan x="258.13828" y="-622.1098" font-size="6px">Implementation</tspan></text><rect transform="scale(1,-1)" x="253.12" y="-613.54" width="76.857" height="10.901" rx="1.5" ry="1.5" fill="#ee7105" marker-end="" stroke="#b5161e" stroke-linecap="round" stroke-linejoin="round" stroke-width=".75" style="paint-order:fill markers stroke"/><text transform="scale(1,-1)" x="291.53668" y="-606.32172" fill="#000000" font-family="Ubuntu" font-size="6px" text-align="center" text-anchor="middle" xml:space="preserve"><tspan x="291.53668" y="-606.32172" font-size="6px">Post-Delivery Maintenance</tspan></text><rect transform="scale(1,-1)" x="286.31" y="-597.74" width="76.857" height="10.901" rx="1.5" ry="1.5" fill="#ee7105" stroke="#b5161e" stroke-linecap="round" stroke-linejoin="round" stroke-width=".75" style="paint-order:fill markers stroke"/><text transform="scale(1,-1)" x="324.6441" y="-590.51556" fill="#000000" font-family="Ubuntu" font-size="6px" text-align="center" text-anchor="middle" xml:space="preserve"><tspan x="324.6441" y="-590.51556" font-size="6px">Retirement</tspan></text><path d="m137.27 665.45c0-9.9717 0-9.9717 16.291-9.9718" fill="none" marker-end="url(#a)" stroke="#b5161e" stroke-linecap="round" stroke-linejoin="round" stroke-width=".75"/><path d="m170.46 649.65c0-9.9717 0-9.9717 16.291-9.9718" fill="none" marker-end="url(#d)" stroke="#b5161e" stroke-linecap="round" stroke-linejoin="round" stroke-width=".75"/><path d="m203.64 633.85c0-9.9717 0-9.9717 16.291-9.9718" fill="none" marker-end="url(#b)" stroke="#b5161e" stroke-linecap="round" stroke-linejoin="round" stroke-width=".75"/><path d="m236.83 618.06c0-9.9717 0-9.9717 16.291-9.9718" fill="none" marker-end="url(#c)" stroke="#b5161e" stroke-linecap="round" stroke-linejoin="round" stroke-width=".75"/><path d="m270.02 602.26c0-9.9717 0-9.9717 16.291-9.9718" fill="none" marker-end="url(#f)" stroke="#b5161e" stroke-linecap="round" stroke-linejoin="round" stroke-width=".75"/><path d="m323.34 613.45v51.718" fill="none" marker-end="url(#a)" stroke="#b5161e" stroke-linecap="round" stroke-linejoin="round" stroke-width=".75"/><path d="m286.31 671.27c-72.725 0-72.725 0-72.491-10.347" fill="none" marker-end="url(#e)" stroke="#b5161e" stroke-linecap="round" stroke-linejoin="round" stroke-width=".75"/><path d="m303.43 613.54c-2e-5 10.347-2e-5 10.347-6.6377 10.347" fill="none" marker-end="url(#a)" stroke="#b5161e" stroke-linecap="round" stroke-linejoin="round" stroke-width=".75"/><path d="m310.07 613.54c0.375 26.144 0.375 26.144-46.089 26.144" fill="none" marker-end="url(#a)" stroke="#b5161e" stroke-linecap="round" stroke-linejoin="round" stroke-width=".75"/><path d="m316.7 613.54c0 41.941 0 41.941-85.915 41.941" fill="none" marker-end="url(#a)" stroke="#b5161e" stroke-linecap="round" stroke-linejoin="round" stroke-width=".75"/></g></svg>
