<?xml version="1.0" encoding="UTF-8"?>
<svg width="346pt" height="161pt" version="1.1" viewBox="0 0 346 161" xmlns="http://www.w3.org/2000/svg"><defs><marker id="i" overflow="visible" markerHeight="7" markerWidth="4.2071066" orient="auto-start-reverse" preserveAspectRatio="xMidYMid" viewBox="0 0 4.2071068 7"><path transform="rotate(180 .125 0)" d="m3-3-3 3 3 3" fill="none" stroke="context-stroke" stroke-linecap="round"/></marker><marker id="e" overflow="visible" markerHeight="7" markerWidth="4.2071066" orient="auto-start-reverse" preserveAspectRatio="xMidYMid" viewBox="0 0 4.2071068 7"><path transform="rotate(180 .125 0)" d="m3-3-3 3 3 3" fill="none" stroke="context-stroke" stroke-linecap="round"/></marker><marker id="h" overflow="visible" markerHeight="7" markerWidth="4.2071066" orient="auto-start-reverse" preserveAspectRatio="xMidYMid" viewBox="0 0 4.2071068 7"><path transform="rotate(180 .125 0)" d="m3-3-3 3 3 3" fill="none" stroke="context-stroke" stroke-linecap="round"/></marker><marker id="f" overflow="visible" markerHeight="7" markerWidth="4.2071066" orient="auto-start-reverse" preserveAspectRatio="xMidYMid" viewBox="0 0 4.2071068 7"><path transform="rotate(180 .125 0)" d="m3-3-3 3 3 3" fill="none" stroke="context-stroke" stroke-linecap="round"/></marker><marker id="g" overflow="visible" markerHeight="7" markerWidth="4.2071066" orient="auto-start-reverse" preserveAspectRatio="xMidYMid" viewBox="0 0 4.2071068 7"><path transform="rotate(180 .125 0)" d="m3-3-3 3 3 3" fill="none" stroke="context-stroke" stroke-linecap="round"/></marker><marker id="c" overflow="visible" markerHeight="7" markerWidth="4.2071066" orient="auto-start-reverse" preserveAspectRatio="xMidYMid" viewBox="0 0 4.2071068 7"><path transform="rotate(180 .125 0)" d="m3-3-3 3 3 3" fill="none" stroke="context-stroke" stroke-linecap="round"/></marker><marker id="d" overflow="visible" markerHeight="7" markerWidth="4.2071066" orient="auto-start-reverse" preserveAspectRatio="xMidYMid" viewBox="0 0 4.2071068 7"><path transform="rotate(180 .125 0)" d="m3-3-3 3 3 3" fill="none" stroke="context-stroke" stroke-linecap="round"/></marker><marker id="a" overflow="visible" markerHeight="7" markerWidth="4.2071066" orient="auto-start-reverse" preserveAspectRatio="xMidYMid" viewBox="0 0 4.2071068 7"><path transform="rotate(180 .125 0)" d="m3-3-3 3 3 3" fill="none" stroke="context-stroke" stroke-linecap="round"/></marker><marker id="b" overflow="visible" markerHeight="7" markerWidth="4.2071066" orient="auto-start-reverse" preserveAspectRatio="xMidYMid" viewBox="0 0 4.2071068 7"><path transform="rotate(180 .125 0)" d="m3-3-3 3 3 3" fill="none" stroke="context-stroke" stroke-linecap="round"/></marker></defs><g transform="matrix(1.3333 0 0 -1.3333 -166.84 931.53)"><g transform="translate(.7607 -.82024)"><rect transform="scale(1,-1)" x="125.5" y="-698.27" width="76.857" height="10.901" rx="1.5" ry="1.5" fill="#ee7105" stroke="#b5161e" stroke-linecap="round" stroke-linejoin="round" stroke-width=".75" style="paint-order:fill markers stroke"/><text transform="scale(1,-1)" x="163.7858" y="-691.06" fill="#000000" font-family="Ubuntu" font-size="6px" text-align="center" text-anchor="middle" xml:space="preserve"><tspan x="163.7858" y="-691.06" font-size="6px">Requirements Analysis</tspan></text><rect transform="scale(1,-1)" x="170.6" y="-680.62" width="76.857" height="10.901" rx="1.5" ry="1.5" fill="#ee7105" stroke="#b5161e" stroke-linecap="round" stroke-linejoin="round" stroke-width=".75" style="paint-order:fill markers stroke"/><text transform="scale(1,-1)" x="209.07668" y="-673.40985" fill="#000000" font-family="Ubuntu" font-size="6px" text-align="center" text-anchor="middle" xml:space="preserve"><tspan x="209.07668" y="-673.40985" font-size="6px">Conceptual Design</tspan></text><rect transform="scale(1,-1)" x="215.69" y="-662.97" width="76.857" height="17.812" rx="1.5" ry="1.5" fill="#ee7105" stroke="#b5161e" stroke-linecap="round" stroke-linejoin="round" stroke-width=".75" style="paint-order:fill markers stroke"/><text transform="scale(1,-1)" x="254.08557" y="-656.05389" fill="#000000" font-family="Ubuntu" font-size="6px" text-align="center" text-anchor="middle" xml:space="preserve"><tspan x="254.08557" y="-656.05389">Logical Schema Design</tspan><tspan x="254.08557" y="-648.55389">- e.g., tables</tspan></text><rect transform="scale(1,-1)" x="260.78" y="-638.41" width="76.857" height="17.812" rx="1.5" ry="1.5" fill="#ee7105" stroke="#b5161e" stroke-linecap="round" stroke-linejoin="round" stroke-width=".75" style="paint-order:fill markers stroke"/><text transform="scale(1,-1)" x="299.17847" y="-631.49207" fill="#000000" font-family="Ubuntu" font-size="6px" text-align="center" text-anchor="middle" xml:space="preserve"><tspan x="299.17847" y="-631.49207">Physical Schema Design</tspan><tspan x="299.17847" y="-623.99207">- e.g., access paths</tspan></text><rect transform="scale(1,-1)" x="305.88" y="-613.85" width="76.857" height="33.936" rx="1.5" ry="1.5" fill="#ee7105" stroke="#b5161e" stroke-linecap="round" stroke-linejoin="round" stroke-width=".75" style="paint-order:fill markers stroke"/><text transform="scale(1,-1)" x="311.13937" y="-598.86981" fill="#000000" font-family="Ubuntu" font-size="6px" text-align="center" xml:space="preserve"><tspan x="311.13937" y="-598.86981" text-align="start">- loading, administration,</tspan><tspan x="311.13937" y="-591.36981" text-align="start"><tspan fill="none">-</tspan> tuning, maintenance,</tspan><tspan x="311.13937" y="-583.86981" text-align="start"><tspan fill="none">-</tspan> reorganization</tspan></text><text transform="scale(1,-1)" x="311.13831" y="-606.36743" fill="#000000" font-family="Ubuntu" font-size="6px" text-align="center" text-anchor="middle" xml:space="preserve"><tspan x="311.13831" y="-606.36743" font-size="6px" text-align="start" text-anchor="start">Production</tspan></text><path d="m170.6 675.17c-9.9717 0-9.9717 0-9.9718 12.2" fill="none" marker-end="url(#e)" stroke="#b5161e" stroke-linecap="round" stroke-linejoin="round" stroke-width=".75"/><path d="m141.09 654.07h74.599" fill="none" marker-end="url(#c)" stroke="#b5161e" stroke-linecap="round" stroke-linejoin="round" stroke-width=".75"/><path d="m144.48 629.51h116.3" fill="none" marker-end="url(#b)" stroke="#b5161e" stroke-linecap="round" stroke-linejoin="round" stroke-width=".75"/><path d="m337.92 624.91c12.181 0 11.906 9.2068-0.27574 9.2068" fill="none" marker-end="url(#a)" stroke="#b5161e" stroke-linecap="round" stroke-linejoin="round" stroke-width=".75"/><path d="m305.5 608.66c-172.09 0-164.52-10.658-164.52 78.714" fill="none" marker-end="url(#d)" stroke="#b5161e" stroke-linecap="round" stroke-linejoin="round" stroke-width=".75"/><text transform="scale(1,-1)" x="277.3317" y="-642.18427" font-family="Ubuntu" font-size="9px" font-weight="bold" stroke-width=".5625" style="line-height:1.25" xml:space="preserve"><tspan x="277.3317" y="-642.18427" stroke-width=".5625"/></text><path d="m186.1 687.37v-6.7494" fill="none" marker-end="url(#i)" stroke="#b5161e" stroke-linecap="round" stroke-linejoin="round" stroke-width=".75"/><path d="m231.2 669.35v-6.7494" fill="none" marker-end="url(#h)" stroke="#b5161e" stroke-linecap="round" stroke-linejoin="round" stroke-width=".75"/><path d="m276.29 644.79v-6.7494" fill="none" marker-end="url(#f)" stroke="#b5161e" stroke-linecap="round" stroke-linejoin="round" stroke-width=".75"/><path d="m321.38 620.22v-6.7494" fill="none" marker-end="url(#g)" stroke="#b5161e" stroke-linecap="round" stroke-linejoin="round" stroke-width=".75"/></g></g></svg>
