<svg height="469pt" viewBox="0 0 516 469" width="516pt" xmlns="http://www.w3.org/2000/svg"><g transform="matrix(1.3333 0 0 -1.3333 61.748 1190.8)"><path d="m127.16 721.01 188.15 50.146c9.564-15.432 15.092-31.945 17.919-50.403h-206.11" fill="#fc9169"/><g font-family="Ubuntu" transform="scale(1 -1)"><g font-size="7.5"><text x="132.98471" y="-709.58698"><tspan x="132.98471" y="-709.58698">Concept of</tspan><tspan x="132.98471" y="-700.21198">Require-</tspan><tspan x="132.98471" y="-690.83698">ments</tspan></text><g text-anchor="end"><text x="121.86031" y="-709.58698"><tspan x="121.86031" y="-709.58698">Concept of</tspan><tspan x="121.86031" y="-700.21198">Operation</tspan></text><text x="122.1003" y="-753.6358"><tspan x="122.1003" y="-753.6358">Re-</tspan><tspan x="122.1003" y="-744.2608">quire-</tspan><tspan x="122.1003" y="-734.8858">ments</tspan><tspan x="122.1003" y="-725.5108">Plan</tspan></text></g></g><g font-size="10.5" text-anchor="end"><text x="70.378609" y="-880.6488"><tspan font-size="10.5" text-anchor="end" x="70.378609" y="-880.6488">1. Determine Objectives</tspan></text><text x="336.77957" y="-880.6488"><tspan font-size="10.5" text-anchor="end" x="336.77957" y="-880.6488">2. Identity and Resolve Risks</tspan></text></g></g><path d="m156.43 853.38c-61.765-.46621-121.98-27.01-152.08-74.183-40.34-63.228-11.612-144.72 67.146-177.7 72.123-30.203 164.94-8.4248 202.23 51.123 33.902 54.135 9.095 123.69-58.522 151.39-60.944 24.967-139.09 6.3771-169.89-44.109-27.471-45.037-6.5802-102.66 49.905-125.07 49.758-19.739 113.26-4.3321 137.53 37.103 21.053 35.932 4.0685 81.652-41.303 98.742-38.561 14.525-87.463 2.2906-105.18-30.114-14.659-26.813-1.5601-60.694 32.734-72.413 27.338-9.3421 61.768-.25337 72.814 23.166 8.3301 17.661-.93907 39.887-24.25 46.071-8.0208 2.1278-17.053 1.6863-24.652-1.0942-7.5997-2.7805-13.797-7.9861-15.763-15.273-.19693-.72992.3707-1.4515 1.2678-1.6117.89712-.16022 1.784.30167 1.9808 1.0316 1.726 6.3958 7.0646 10.893 13.878 13.386 6.8134 2.4928 15.073 2.8947 22.257.98877 21.314-5.6545 29.877-26.203 22.177-42.528-10.319-21.876-42.714-30.426-68.422-21.641-32.458 11.092-44.92 43.325-30.983 68.817 16.917 30.943 63.803 42.674 100.74 28.759 43.604-16.424 59.98-60.505 39.698-95.121-23.445-40.014-84.932-54.933-133.08-35.835-54.755 21.721-75.054 77.706-48.384 121.43 29.943 49.089 106.08 67.201 165.41 42.895 65.91-27.002 90.135-94.918 57.054-147.74-36.427-58.166-127.24-79.474-197.75-49.946-77.067 32.273-105.22 112.13-65.716 174.05 42.902 67.244 148.4 91.749 230.09 56.992 88.226-37.54 120.31-129.36 74.374-200.37-31.39-48.525-93.919-80.079-161.05-82.601-.57563-.092-.98931.0597-1.5326.18348 1.8276 2.0091 3.7637 3.9361 5.536 5.9886-.0378.0379-25.936-8.2197-25.936-8.2197 9.0894-2.27 16.689-4.1418 26.374-6.4482-1.8703 2.0221-2.9812 2.9186-5.9106 5.6558.54209.12894 1.1296.11916 1.6238.13623 68.307 2.5657 131.87 34.638 163.83 84.044 46.783 72.32 14.129 165.77-75.776 204.02-26.03 11.076-54.426 16.252-82.501 16.04z" fill="#ee7105" fill-rule="evenodd" stroke-linecap="round" stroke-linejoin="round" stroke-width=".50739"/><path d="m127.73 892.17-6.9258-11.981h5.8008v-158.31h-159.99v5.8008l-11.981-6.9258 11.981-6.9236v5.7986h159.99v-176.15l1.125-1.125 1.125 1.125v176.15h209.75l1.125 1.125-1.125 1.125h-209.75v158.31h5.7986z" fill="#b5161e" stroke-linecap="round" stroke-linejoin="round"/><g font-family="Ubuntu"><g font-size="7.5"><text text-anchor="middle" transform="scale(1 -1)" x="188.59337" y="-723.57111"><tspan font-size="7.5" text-anchor="start" x="188.59337" y="-723.57111">Prototype 1</tspan></text><g font-size="7.5" transform="matrix(.96561 .26 .26 -.96561 0 0)"><text x="369.92172" y="-674.8277"><tspan x="369.92172" y="-674.8277">Risk</tspan><tspan x="369.92172" y="-665.4527">Analysis</tspan></text><text x="418.21515" y="-675.49731"><tspan x="418.21515" y="-675.49731">Risk</tspan><tspan x="418.21515" y="-666.12231">Analysis</tspan></text><text x="466.50858" y="-676.16693"><tspan x="466.50858" y="-676.16693">Risk</tspan><tspan x="466.50858" y="-666.79193">Analysis</tspan></text></g><g text-anchor="middle" transform="scale(1 -1)"><text x="239.18034" y="-723.57111"><tspan font-size="7.5" text-anchor="start" x="239.18034" y="-723.57111">Prototype 2</tspan></text><text font-size="7.5" text-anchor="start" x="286.54605" y="-732.94611"><tspan x="286.54605" y="-732.94611">Operational</tspan><tspan x="286.54605" y="-723.57111">Prototype</tspan></text><text x="192.33325" y="-709.87195"><tspan font-size="7.5" text-anchor="start" x="192.33325" y="-709.87195">Requirements</tspan></text><text x="247.09254" y="-709.87195"><tspan font-size="7.5" text-anchor="start" x="247.09254" y="-709.87195">Draft</tspan></text><text font-size="7.5" text-anchor="end" x="324.30661" y="-709.87195"><tspan x="324.30661" y="-709.87195">Detailed</tspan><tspan x="324.30661" y="-700.49695">Design</tspan></text><text x="305.17413" y="-656.39758"><tspan font-size="7.5" text-anchor="end" x="305.17413" y="-656.39758">Code</tspan></text><text x="292.75986" y="-615.90686"><tspan font-size="7.5" text-anchor="end" x="292.75986" y="-615.90686">Integration</tspan></text><text x="227.02841" y="-583.01666"><tspan font-size="7.5" text-anchor="end" x="227.02841" y="-583.01666">Test</tspan></text><text x="186.78218" y="-564.86481"><tspan font-size="7.5" text-anchor="end" x="186.78218" y="-564.86481">Implementation</tspan></text><text font-size="7.5" text-anchor="start" x="133.36722" y="-608.67419"><tspan x="133.36722" y="-608.67419">Verification and</tspan><tspan x="133.36722" y="-599.29919">Validation</tspan></text><text font-size="7.5" text-anchor="start" x="133.36722" y="-652.48364"><tspan x="133.36722" y="-652.48364">Verification and</tspan><tspan x="133.36722" y="-643.10864">Validation</tspan></text><text x="122.31782" y="-564.86481"><tspan font-size="7.5" text-anchor="end" x="122.31782" y="-564.86481">Release</tspan></text><text x="122.4753" y="-608.67419"><tspan font-size="7.5" text-anchor="end" x="122.4753" y="-608.67419">Test Plan</tspan></text><text font-size="7.5" text-anchor="end" x="121.99531" y="-652.47614"><tspan x="121.99531" y="-652.47614">Development</tspan><tspan x="121.99531" y="-643.10114">Plan</tspan></text></g></g><g font-size="10.5" transform="scale(1 -1)"><text text-anchor="end" x="57.180088" y="-545.85272"><tspan font-size="10.5" text-anchor="end" x="57.180084" y="-545.85272">4. Plan Next Iteration</tspan></text><text text-anchor="end" x="336.50659" y="-547.66919"><tspan font-size="10.5" text-anchor="end" x="336.50659" y="-547.66919">3. Development and Test</tspan></text><text font-size="10.5" x="134.01822" y="-868.59497"><tspan x="134.01822" y="-868.59497">Cumulative</tspan><tspan x="134.01822" y="-855.46997">Costs</tspan></text><text x="-30.608139" y="-725.29614"><tspan font-size="10.5" x="-30.608139" y="-725.29614">Review</tspan></text></g></g></g></svg>