<?xml version="1.0" encoding="UTF-8"?>
<svg width="327pt" height="123pt" version="1.1" viewBox="0 0 327 123" xmlns="http://www.w3.org/2000/svg"><defs><marker id="e" overflow="visible" markerHeight="7" markerWidth="4.2071066" orient="auto-start-reverse" preserveAspectRatio="xMidYMid" viewBox="0 0 4.2071068 7"><path transform="rotate(180 .125 0)" d="m3-3-3 3 3 3" fill="none" stroke="context-stroke" stroke-linecap="round"/></marker><marker id="c" overflow="visible" markerHeight="7" markerWidth="4.2071066" orient="auto-start-reverse" preserveAspectRatio="xMidYMid" viewBox="0 0 4.2071068 7"><path transform="rotate(180 .125 0)" d="m3-3-3 3 3 3" fill="none" stroke="context-stroke" stroke-linecap="round"/></marker><marker id="b" overflow="visible" markerHeight="7" markerWidth="4.2071066" orient="auto-start-reverse" preserveAspectRatio="xMidYMid" viewBox="0 0 4.2071068 7"><path transform="rotate(180 .125 0)" d="m3-3-3 3 3 3" fill="none" stroke="context-stroke" stroke-linecap="round"/></marker><marker id="a" overflow="visible" markerHeight="7" markerWidth="4.2071066" orient="auto-start-reverse" preserveAspectRatio="xMidYMid" viewBox="0 0 4.2071068 7"><path transform="rotate(180 .125 0)" d="m3-3-3 3 3 3" fill="none" stroke="context-stroke" stroke-linecap="round"/></marker><marker id="d" overflow="visible" markerHeight="7" markerWidth="4.2071066" orient="auto-start-reverse" preserveAspectRatio="xMidYMid" viewBox="0 0 4.2071068 7"><path transform="rotate(180 .125 0)" d="m3-3-3 3 3 3" fill="none" stroke="context-stroke" stroke-linecap="round"/></marker><marker id="l" overflow="visible" markerHeight="7" markerWidth="4.2071066" orient="auto-start-reverse" preserveAspectRatio="xMidYMid" viewBox="0 0 4.2071068 7"><path transform="rotate(180 .125 0)" d="m3-3-3 3 3 3" fill="none" stroke="context-stroke" stroke-linecap="round"/></marker><marker id="k" overflow="visible" markerHeight="7" markerWidth="4.2071066" orient="auto-start-reverse" preserveAspectRatio="xMidYMid" viewBox="0 0 4.2071068 7"><path transform="rotate(180 .125 0)" d="m3-3-3 3 3 3" fill="none" stroke="context-stroke" stroke-linecap="round"/></marker><marker id="j" overflow="visible" markerHeight="7" markerWidth="4.2071066" orient="auto-start-reverse" preserveAspectRatio="xMidYMid" viewBox="0 0 4.2071068 7"><path transform="rotate(180 .125 0)" d="m3-3-3 3 3 3" fill="none" stroke="context-stroke" stroke-linecap="round"/></marker><marker id="h" overflow="visible" markerHeight="7" markerWidth="4.2071066" orient="auto-start-reverse" preserveAspectRatio="xMidYMid" viewBox="0 0 4.2071068 7"><path transform="rotate(180 .125 0)" d="m3-3-3 3 3 3" fill="none" stroke="context-stroke" stroke-linecap="round"/></marker><marker id="i" overflow="visible" markerHeight="7" markerWidth="4.2071066" orient="auto-start-reverse" preserveAspectRatio="xMidYMid" viewBox="0 0 4.2071068 7"><path transform="rotate(180 .125 0)" d="m3-3-3 3 3 3" fill="none" stroke="context-stroke" stroke-linecap="round"/></marker><marker id="g" overflow="visible" markerHeight="7" markerWidth="4.2071066" orient="auto-start-reverse" preserveAspectRatio="xMidYMid" viewBox="0 0 4.2071068 7"><path transform="rotate(180 .125 0)" d="m3-3-3 3 3 3" fill="none" stroke="context-stroke" stroke-linecap="round"/></marker><marker id="f" overflow="visible" markerHeight="7" markerWidth="4.2071066" orient="auto-start-reverse" preserveAspectRatio="xMidYMid" viewBox="0 0 4.2071068 7"><path transform="rotate(180 .125 0)" d="m3-3-3 3 3 3" fill="none" stroke="context-stroke" stroke-linecap="round"/></marker></defs><path d="m304.29 106.55c0-13.295 0-13.295-21.721-13.295" fill="none" marker-end="url(#l)" stroke="#f07177" stroke-linecap="round" stroke-linejoin="round" stroke-width=".99998"/><path d="m273.28 85.265c0-37.858 0-37.858-79.205-37.858" fill="none" marker-end="url(#g)" stroke="#f07177" stroke-linecap="round" stroke-linejoin="round" stroke-width=".99997"/><path d="m184.81 43.42c0-38.328 0-38.328-79.205-38.329" fill="none" marker-end="url(#f)" stroke="#f07177" stroke-linecap="round" stroke-linejoin="round" stroke-width=".99997"/><path d="m260.03 85.547c0-13.295 0-13.295-21.721-13.295" fill="none" marker-end="url(#k)" stroke="#f07177" stroke-linecap="round" stroke-linejoin="round" stroke-width=".99998"/><path d="m215.8 64.726c0-9.7784 0-9.7784-21.721-9.7785" fill="none" marker-end="url(#j)" stroke="#f07177" stroke-linecap="round" stroke-linejoin="round" stroke-width=".99998"/><path d="m171.54 43.327c0-13.295 0-13.295-21.721-13.295" fill="none" marker-end="url(#h)" stroke="#f07177" stroke-linecap="round" stroke-linejoin="round" stroke-width=".99998"/><path d="m127.29 23.184c0-10.719 0-10.719-21.721-10.719" fill="none" marker-end="url(#i)" stroke="#f07177" stroke-linecap="round" stroke-linejoin="round" stroke-width=".99998"/><rect x="1.6394" y="1.5808" width="102.47" height="14.534" rx="2" ry="2" fill="#ee7105" stroke="#b5161e" stroke-linecap="round" stroke-linejoin="round" stroke-width=".99998" style="paint-order:fill markers stroke"/><text x="52.855415" y="11.193561" fill="#000000" font-family="Ubuntu" font-size="7.9998px" stroke-width="1.3333" text-align="center" text-anchor="middle" xml:space="preserve"><tspan x="52.855415" y="11.193561" font-size="7.9998px" stroke-width="1.7777">Project Planning</tspan></text><rect x="45.892" y="22.634" width="102.47" height="14.534" rx="2" ry="2" fill="#ee7105" stroke="#b5161e" stroke-linecap="round" stroke-linejoin="round" stroke-width=".99998" style="paint-order:fill markers stroke"/><text x="97.08152" y="32.267902" fill="#000000" font-family="Ubuntu" font-size="7.9998px" stroke-width="1.3333" text-align="center" text-anchor="middle" xml:space="preserve"><tspan x="97.08152" y="32.267902" font-size="7.9998px" stroke-width="1.7777">Requirements Definition</tspan></text><rect x="90.144" y="43.7" width="102.47" height="14.534" rx="2" ry="2" fill="#ee7105" stroke="#b5161e" stroke-linecap="round" stroke-linejoin="round" stroke-width=".99998" style="paint-order:fill markers stroke"/><text x="141.33167" y="53.166225" fill="#000000" font-family="Ubuntu" font-size="7.9998px" stroke-width="1.3333" text-align="center" text-anchor="middle" xml:space="preserve"><tspan x="141.33167" y="53.166225" font-size="7.9998px" stroke-width="1.7777">Design</tspan></text><rect x="134.38" y="64.766" width="102.47" height="14.534" rx="2" ry="2" fill="#ee7105" stroke="#b5161e" stroke-linecap="round" stroke-linejoin="round" stroke-width=".99998" style="paint-order:fill markers stroke"/><text x="185.32582" y="74.392578" fill="#000000" font-family="Ubuntu" font-size="7.9998px" stroke-width="1.3333" text-align="center" text-anchor="middle" xml:space="preserve"><tspan x="185.32582" y="74.392578" font-size="7.9998px" stroke-width="1.7777">Development</tspan></text><rect x="178.63" y="85.819" width="102.47" height="14.534" rx="2" ry="2" fill="#ee7105" stroke="#b5161e" stroke-linecap="round" stroke-linejoin="round" stroke-width=".99998" style="paint-order:fill markers stroke"/><text x="229.85591" y="95.442833" fill="#000000" font-family="Ubuntu" font-size="7.9998px" stroke-width="1.3333" text-align="center" text-anchor="middle" xml:space="preserve"><tspan x="229.85591" y="95.442833" font-size="7.9998px" stroke-width="1.7777">Integration and Testing</tspan></text><rect x="222.89" y="106.88" width="102.47" height="14.534" rx="2" ry="2" fill="#ee7105" stroke="#b5161e" stroke-linecap="round" stroke-linejoin="round" stroke-width=".99998" style="paint-order:fill markers stroke"/><text x="273.99805" y="116.51718" fill="#000000" font-family="Ubuntu" font-size="7.9998px" stroke-width="1.3333" text-align="center" text-anchor="middle" xml:space="preserve"><tspan x="273.99805" y="116.51718" font-size="7.9998px" stroke-width="1.7777">Installation and Acceptance</tspan></text><path d="m24.172 16.607c0 13.295 0 13.295 21.721 13.295" fill="none" marker-end="url(#e)" stroke="#b5161e" stroke-linecap="round" stroke-linejoin="round" stroke-width="2"/><path d="m68.424 37.673c0 13.295 0 13.295 21.721 13.295" fill="none" marker-end="url(#c)" stroke="#b5161e" stroke-linecap="round" stroke-linejoin="round" stroke-width="2"/><path d="m112.66 58.739c0 13.295 0 13.295 21.721 13.295" fill="none" marker-end="url(#a)" stroke="#b5161e" stroke-linecap="round" stroke-linejoin="round" stroke-width="2"/><path d="m156.92 79.792c0 13.295 0 13.295 21.721 13.295" fill="none" marker-end="url(#b)" stroke="#b5161e" stroke-linecap="round" stroke-linejoin="round" stroke-width="2"/><path d="m201.17 100.86c0 13.295 0 13.295 21.721 13.295" fill="none" marker-end="url(#d)" stroke="#b5161e" stroke-linecap="round" stroke-linejoin="round" stroke-width="2"/></svg>
