<svg height="224pt" viewBox="0 0 779 224" width="779pt" xmlns="http://www.w3.org/2000/svg" xmlns:xlink="http://www.w3.org/1999/xlink"><linearGradient id="a" x2="0" y2="1"><stop offset="0" stop-color="#a9a9a9" stop-opacity=".19608"/><stop offset="1" stop-color="#a9a9a9" stop-opacity=".19608"/></linearGradient><linearGradient id="b" x2="0" y2="1"><stop offset="0" stop-color="#fcfcfc"/><stop offset="1" stop-color="#fcfcfc"/></linearGradient><linearGradient id="c" x2="0" y2="1"><stop offset="0" stop-color="#f3f3f3"/><stop offset="1" stop-color="#e1e1e1"/></linearGradient><linearGradient id="d" x2="0" y2="1"><stop offset="0" stop-color="#4aa5ff"/><stop offset="1" stop-color="#4aa5ff"/></linearGradient><linearGradient id="e" gradientTransform="scale(.99946 1.0005)" gradientUnits="userSpaceOnUse" x1="-.75034" x2="-.75034" y1="-.78024" y2="18.89"><stop offset="0" stop-color="#dcdcdc"/><stop offset="1" stop-color="#dcdcdc"/></linearGradient><linearGradient id="f" gradientTransform="scale(1.9119 .52305)" gradientUnits="userSpaceOnUse" x2="0" xlink:href="#a" y2="55.444"/><linearGradient id="g" gradientTransform="scale(1.8886 .5295)" gradientUnits="userSpaceOnUse" x1="-.26475" x2="-.26475" y1="-.94428" y2="55.713"><stop offset="0" stop-color="#eeffe0"/><stop offset="1" stop-color="#eeffe0"/></linearGradient><linearGradient id="h" gradientTransform="scale(1.1214 .89174)" gradientUnits="userSpaceOnUse" x2="0" xlink:href="#a" y2="239"/><linearGradient id="i" gradientTransform="scale(1.3807 .72429)" gradientUnits="userSpaceOnUse" x1="-.36215" x2="-.36215" xlink:href="#b" y1="-.69033" y2="193.43"/><linearGradient id="j" gradientTransform="scale(3.1162 .32091)" gradientUnits="userSpaceOnUse" x1="-.16045" x2="-.16045" xlink:href="#b" y1="-1.5581" y2="84.449"/><linearGradient id="k" gradientTransform="scale(.99738 1.0026)" gradientUnits="userSpaceOnUse" x1="-.57651" x2="-.57651" y1="-.81104" y2="12.474"><stop offset="0" stop-color="#ffff80"/><stop offset="1" stop-color="#ffff80"/></linearGradient><linearGradient id="l" gradientUnits="userSpaceOnUse" x1="-.575" x2="-.575" y1="-.575" y2="11.575"><stop offset="0" stop-color="#d2e9ff"/><stop offset="1" stop-color="#d2e9ff"/></linearGradient><linearGradient id="m" gradientUnits="userSpaceOnUse" x1="-.575" x2="-.575" y1="-.575" y2="11.575"><stop offset="0" stop-color="#e0e0e0"/><stop offset="1" stop-color="#e0e0e0"/></linearGradient><linearGradient id="n" gradientTransform="scale(.98481 1.0154)" gradientUnits="userSpaceOnUse" x1="-.41286" x2="-.41286" y1="-.80082" y2="12.483"><stop offset="0" stop-color="#c5cbff"/><stop offset="1" stop-color="#c5cbff"/></linearGradient><linearGradient id="o" gradientTransform="scale(3.5789 .27941)" gradientUnits="userSpaceOnUse" x1="-.13971" x2="-.13971" xlink:href="#b" y1="-1.7895" y2="73.096"/><linearGradient id="p" gradientTransform="scale(1.1144 .89736)" gradientUnits="userSpaceOnUse" x1="-.61828" x2="-.61828" xlink:href="#c" y1="-.76781" y2="10.102"/><linearGradient id="q" gradientTransform="scale(1.0891 .9182)" gradientUnits="userSpaceOnUse" x1="-.38932" x2="-.38932" xlink:href="#c" y1="-.75038" y2="10.128"/><linearGradient id="r" gradientTransform="scale(.98191 1.0184)" gradientUnits="userSpaceOnUse" x1="-.36007" x2="-.36007" xlink:href="#c" y1="-.69431" y2="8.988"/><linearGradient id="s" gradientTransform="scale(3.1509 .31737)" gradientUnits="userSpaceOnUse" x1="-.17191" x2="-.17191" xlink:href="#d" y1="-1.5754" y2="83.498"/><linearGradient id="t" gradientTransform="scale(1.1803 .84722)" gradientUnits="userSpaceOnUse" x2="0" xlink:href="#a" y2="251.56"/><linearGradient id="u" gradientTransform="scale(1.7642 .56683)" gradientUnits="userSpaceOnUse" x1="-.28342" x2="-.28342" xlink:href="#b" y1="-.8821" y2="167.42"/><linearGradient id="v" gradientTransform="scale(2.0196 .49516)" gradientUnits="userSpaceOnUse" x1="-.24758" x2="-.24758" xlink:href="#b" y1="-1.0098" y2="146.01"/><linearGradient id="w" gradientUnits="userSpaceOnUse" x1="-.575" x2="-.575" y1="-.575" y2="12.675"><stop offset="0" stop-color="#ff8769"/><stop offset="1" stop-color="#ff8769"/></linearGradient><linearGradient id="x" gradientTransform="scale(3.767 .26546)" gradientUnits="userSpaceOnUse" x1="-.13273" x2="-.13273" xlink:href="#b" y1="-1.8835" y2="76.938"/><linearGradient id="y" gradientTransform="scale(3.3164 .30153)" gradientUnits="userSpaceOnUse" x1="-.16333" x2="-.16333" xlink:href="#d" y1="-1.6582" y2="87.885"/><g stroke="#606060" stroke-linecap="square" stroke-linejoin="bevel" stroke-width="1.5"><g fill="none"><g transform="translate(1.7643 -78.312)"><path d="m296.92 201.41h33"/><path d="m329.92 201.41c74.04 0 74.04-1.445 148.08-1.445"/><path d="m478 199.96h22"/></g><g transform="translate(298.69 123.1)"><path d="m18 0-18-11"/><path d="m18 0-18 11"/></g></g><circle cx="9.075" cy="9.075" fill="url(#e)" fill-rule="evenodd" r="9.075" stroke-dasharray="6 3" transform="translate(317.69 114.16)"/><g fill="none"><path d="m0-8.8v17.6" transform="translate(491.76 121.65)"/><path d="m0-8.8v17.6" transform="translate(483.76 121.65)"/></g></g><path d="m0 0h106v29h-106z" fill="url(#f)" fill-rule="evenodd" transform="translate(349.65 153.16)"/><g stroke-linecap="square" stroke-linejoin="bevel"><path d="m0 0h106v29h-106z" fill="url(#g)" fill-rule="evenodd" stroke="#a4b09b" transform="translate(341.65 145.16)"/><text fill-rule="evenodd" font-family="Noto Sans" font-size="13.2" font-style="italic" font-weight="400" transform="translate(344.65 146.96)" x="4" y="17.8906">home_address_1</text><g stroke="#606060" stroke-width="1.5"><g fill="none"><g transform="translate(1.7643 -78.312)"><path d="m296.92 177.65h33"/><path d="m329.921 177.654c74.04 0 74.04.868 148.079.868"/><path d="m478 178.52h22"/></g><g transform="translate(298.69 99.342)"><path d="m18 0-18-11"/><path d="m18 0-18 11"/></g></g><circle cx="9.075" cy="9.075" fill="url(#e)" fill-rule="evenodd" r="9.075" stroke-dasharray="6 3" transform="translate(317.69 90.41)"/><path d="m0-8.8v17.6" fill="none" transform="translate(491.76 100.21)"/></g></g><g fill-rule="evenodd"><circle cx="9.075" cy="9.075" r="9.075" style="stroke:#606060;stroke-dasharray:6 3;stroke-linecap:square;stroke-linejoin:bevel;stroke-width:1.5;fill:url(#e)" transform="translate(465.11 91.278)"/><path d="m0 0h106v29h-106z" fill="url(#f)" transform="translate(349.65 67.608)"/><path d="m0 0h106v29h-106z" fill="url(#g)" stroke="#a4b09b" stroke-linecap="square" stroke-linejoin="bevel" transform="translate(341.65 59.608)"/><text style="font-family:Noto Sans;font-size:13.2;font-style:italic;font-weight:400;stroke-linecap:square;stroke-linejoin:bevel" transform="translate(344.65 61.408)" x="4" y="17.8906">home_address_2</text><path d="m0 12c0-6.6274 5.3726-12 12-12h244.01c6.628 0 12 5.3726 12 12v189.12c0 6.627-5.372 12-12 12h-244.01c-6.6274 0-12-5.373-12-12z" fill="url(#h)" transform="translate(509.76 9.688)"/><g stroke-linecap="square" stroke-linejoin="bevel"><path d="m0 0h267.01v139.6h-267.01z" fill="url(#i)" stroke="#d7d7d7" transform="translate(501.76 27.688)"/><path d="m0 0h267.01v26.6h-267.01z" fill="url(#j)" stroke="#d7d7d7" transform="translate(501.76 167.29)"/><path d="m2.6889 0-2.6889 2.6889v6.7222l2.6889 2.6889 1.3444-1.3444v-2.6889h1.3444l1.3444 1.3444 2.6889-2.6889 2.6889 2.6889v-5.3778h-8.0667v-2.6889z" fill="url(#k)" stroke="#897416" stroke-width="1.15" transform="translate(509.76 34.728)"/><g font-family="Noto Sans" font-size="14.667" font-style="italic"><text fill="#2b7dba" font-weight="700" transform="translate(527.01 30.488)" y="16.0313">id</text><text fill="#4964a6" font-weight="700" transform="translate(621.84 30.488)" xml:space="preserve" y="16.0313"> integer</text><text fill="#25682d" font-weight="400" transform="translate(727.62 30.488)" y="16.0313">« pk »</text></g><circle cx="5.5" cy="5.5" fill="url(#l)" r="5.5" stroke="#5a9ee4" stroke-width="1.15" transform="translate(509.76 57.913)"/><g font-family="Noto Sans" font-size="14.667" font-style="italic"><text font-weight="400" transform="translate(525.91 53.088)" y="16.0313">country</text><text fill="#4964a6" font-weight="700" transform="translate(621.84 53.088)" xml:space="preserve" y="16.0313"> varchar(100)</text><text fill="#25682d" font-weight="400" transform="translate(726.37 53.088)" y="16.0313">« nn »</text></g><circle cx="5.5" cy="5.5" fill="url(#m)" r="5.5" stroke="#808080" stroke-width="1.15" transform="translate(509.76 80.513)"/><text font-family="'Noto Sans'" font-size="14.667" font-weight="400" transform="translate(525.91 75.688)" y="16.0313">province</text><text fill="#4964a6" font-family="Noto Sans" font-size="14.667" font-style="italic" font-weight="700" transform="translate(621.84 75.688)" xml:space="preserve" y="16.0313"> varchar(100)</text><text fill="#25682d" transform="translate(761.89 75.688)" y="16.0313"/><circle cx="5.5" cy="5.5" fill="url(#l)" r="5.5" stroke="#5a9ee4" stroke-width="1.15" transform="translate(509.76 103.11)"/><g font-family="Noto Sans" font-size="14.667" font-style="italic"><text font-weight="400" transform="translate(525.91 98.288)" y="16.0313">city</text><text fill="#4964a6" font-weight="700" transform="translate(621.84 98.288)" xml:space="preserve" y="16.0313"> varchar(100)</text><text fill="#25682d" font-weight="400" transform="translate(726.37 98.288)" y="16.0313">« nn »</text></g><circle cx="5.5" cy="5.5" fill="url(#l)" r="5.5" stroke="#5a9ee4" stroke-width="1.15" transform="translate(509.76 125.71)"/><g font-family="Noto Sans" font-size="14.667" font-style="italic"><text font-weight="400" transform="translate(525.91 120.89)" y="16.0313">postal_code</text><text fill="#4964a6" font-weight="700" transform="translate(621.84 120.89)" xml:space="preserve" y="16.0313"> varchar(40)</text><text fill="#25682d" font-weight="400" transform="translate(726.37 120.89)" y="16.0313">« nn »</text></g><circle cx="5.5" cy="5.5" fill="url(#l)" r="5.5" stroke="#5a9ee4" stroke-width="1.15" transform="translate(509.76 148.31)"/><g font-family="Noto Sans" font-size="14.667" font-style="italic"><text font-weight="400" transform="translate(525.91 143.49)" y="16.0313">street_address</text><text fill="#4964a6" font-weight="700" transform="translate(621.84 143.49)" xml:space="preserve" y="16.0313"> varchar(255)</text><text fill="#25682d" font-weight="400" transform="translate(726.37 143.49)" y="16.0313">« nn »</text></g><path d="m6.7222 0-6.7222 6.7222 5.3778 5.3778h6.7222v-6.7222z" fill="url(#n)" stroke="#4c4c98" stroke-width="1.15" transform="translate(509.76 174.24)"/><g font-family="Noto Sans" font-size="14.667" font-style="italic"><text fill="#082061" font-weight="400" transform="translate(526.85 170.09)" y="16.0313">address_id_pk</text><text fill="#4964a6" font-weight="700" transform="translate(621.84 170.09)" xml:space="preserve" y="16.0313"> constraint</text><text fill="#25682d" font-weight="400" transform="translate(727.62 170.09)" y="16.0313">« pk »</text></g><path d="m0 0h267.013v7.924l-.182 2.0838-.541 2.0204-.884 1.8958-1.2 1.7135-1.479 1.479-1.714 1.1998-1.895.884-2.021.5414-2.084.1823h-243.013l-2.08378-.1823-2.02046-.5414-1.89576-.884-1.71345-1.1998-1.47908-1.479-1.19977-1.7135-.884011-1.8958-.541382-2.0204-.182307-2.0838z" fill="url(#o)" stroke="#d7d7d7" transform="translate(501.76 193.89)"/><g stroke="#bebebe"><path d="m0 0h11l-5.5 8.8z" fill="url(#p)" opacity=".4" transform="translate(648.77 198.86)"/><path d="m5.5 0-5.5 8.8h11z" fill="url(#q)" transform="translate(627.25 198.86)"/><path d="m4.4 0 4.4 4.4-4.4 4.4-4.4-4.4z" fill="url(#r)" transform="translate(605.39 198.92)"/></g><g transform="translate(501.76 1.688)"><path d="m0 12 .18231-2.0838.54138-2.0205.88401-1.8958 1.1998-1.7134 1.4791-1.4791 1.7134-1.1998 1.8958-.88401 2.0205-.54138 2.0838-.18231h243.01l2.084.18231 2.021.54138 1.895.88401 1.714 1.1998 1.479 1.4791 1.2 1.7134.884 1.8958.541 2.0205.182 2.0838v14h-267.01z" fill="url(#s)" stroke="#3175b0"/><g font-family="Noto Sans" font-size="14.667"><text font-style="italic" font-weight="400" x="82.6875" y="17.3333">public.</text><text fill="#fff" font-weight="700" x="127.031" y="17.3333">address</text></g></g></g><path d="m0 12c0-6.6274 5.3726-12 12-12h272.92c6.628 0 12 5.3726 12 12v189.12c0 6.627-5.372 12-12 12h-272.92c-6.6274 0-12-5.373-12-12z" fill="url(#t)" transform="translate(9.7643 9.688)"/><g stroke-linecap="square" stroke-linejoin="bevel"><path d="m0 0h295.92v94.4h-295.92z" fill="url(#u)" stroke="#d7d7d7" transform="translate(1.7643 27.688)"/><path d="m0 0h295.92v71.8h-295.92z" fill="url(#v)" stroke="#d7d7d7" transform="translate(1.7643 122.09)"/><path d="m2.6889 0-2.6889 2.6889v6.7222l2.6889 2.6889 1.3444-1.3444v-2.6889h1.3444l1.3444 1.3444 2.6889-2.6889 2.6889 2.6889v-5.3778h-8.0667v-2.6889z" fill="url(#k)" stroke="#897416" stroke-width="1.15" transform="translate(9.7643 34.728)"/><g font-family="Noto Sans" font-size="14.667" font-style="italic"><text fill="#2b7dba" font-weight="700" transform="translate(27.014 30.488)" y="16.0313">id</text><text fill="#4964a6" font-weight="700" transform="translate(93.139 30.488)" xml:space="preserve" y="16.0313"> integer</text><text fill="#25682d" font-weight="400" transform="translate(256.53 30.488)" y="16.0313">« pk »</text></g><circle cx="5.5" cy="5.5" fill="url(#l)" r="5.5" stroke="#5a9ee4" stroke-width="1.15" transform="translate(9.7643 57.913)"/><g font-family="Noto Sans" font-size="14.667" font-style="italic"><text font-weight="400" transform="translate(25.914 53.088)" y="16.0313">name</text><text fill="#4964a6" font-weight="700" transform="translate(93.139 53.088)" xml:space="preserve" y="16.0313"> varchar(255)</text><text fill="#25682d" font-weight="400" transform="translate(255.28 53.088)" y="16.0313">« nn »</text></g><path d="m0 4.0333v4.0333h5.3778v4.0333h1.3444l5.3778-5.3778v-1.3444l-5.3778-5.3778h-1.3444v4.0333z" fill="url(#w)" stroke="#8f341b" stroke-width="1.15" transform="translate(9.7643 79.963)"/><g font-family="Noto Sans" font-size="14.667" font-style="italic"><text font-weight="400" transform="translate(27.014 75.688)" y="16.0313">address_1</text><text fill="#4964a6" font-weight="700" transform="translate(93.139 75.688)" xml:space="preserve" y="16.0313"> integer</text><text fill="#25682d" font-weight="400" transform="translate(239.2 75.688)" y="16.0313">« fk nn »</text></g><path d="m0 4.0333v4.0333h5.3778v4.0333h1.3444l5.3778-5.3778v-1.3444l-5.3778-5.3778h-1.3444v4.0333z" fill="url(#w)" stroke="#8f341b" stroke-width="1.15" transform="translate(9.7643 102.56)"/><g font-family="Noto Sans" font-size="14.667" font-style="italic"><text font-weight="400" transform="translate(27.014 98.288)" y="16.0313">address_2</text><text fill="#4964a6" font-weight="700" transform="translate(93.139 98.288)" xml:space="preserve" y="16.0313"> integer</text><text fill="#25682d" font-weight="400" transform="translate(260.44 98.288)" y="16.0313">« fk »</text></g><path d="m6.7222 0-6.7222 6.7222 5.3778 5.3778h6.7222v-6.7222z" fill="url(#n)" stroke="#4c4c98" stroke-width="1.15" transform="translate(9.7643 129.04)"/><g font-family="Noto Sans" font-size="14.667" font-style="italic"><text fill="#082061" font-weight="400" transform="translate(26.846 124.89)" y="16.0313">student_id_pk</text><text fill="#4964a6" font-weight="700" transform="translate(167.91 124.89)" xml:space="preserve" y="16.0313"> constraint</text><text fill="#25682d" font-weight="400" transform="translate(256.53 124.89)" y="16.0313">« pk »</text></g><path d="m6.7222 0-6.7222 6.7222 5.3778 5.3778h6.7222v-6.7222z" fill="url(#n)" stroke="#4c4c98" stroke-width="1.15" transform="translate(9.7643 151.64)"/><g font-family="Noto Sans" font-size="14.667" font-style="italic"><text fill="#082061" font-weight="400" transform="translate(26.846 147.49)" y="16.0313">student_address_1_fk</text><text fill="#4964a6" font-weight="700" transform="translate(167.91 147.49)" xml:space="preserve" y="16.0313"> constraint</text><text fill="#25682d" font-weight="400" transform="translate(260.44 147.49)" y="16.0313">« fk »</text></g><path d="m6.7222 0-6.7222 6.7222 5.3778 5.3778h6.7222v-6.7222z" fill="url(#n)" stroke="#4c4c98" stroke-width="1.15" transform="translate(9.7643 174.24)"/><g font-family="Noto Sans" font-size="14.667" font-style="italic"><text fill="#082061" font-weight="400" transform="translate(26.846 170.09)" y="16.0313">student_address_2_fk</text><text fill="#4964a6" font-weight="700" transform="translate(167.91 170.09)" xml:space="preserve" y="16.0313"> constraint</text><text fill="#25682d" font-weight="400" transform="translate(260.44 170.09)" y="16.0313">« fk »</text></g><path d="m0 0h295.921v7.924l-.182 2.0838-.541 2.0204-.884 1.8958-1.2 1.7135-1.479 1.479-1.714 1.1998-1.895.884-2.021.5414-2.084.1823h-271.921l-2.08378-.1823-2.02046-.5414-1.89576-.884-1.71345-1.1998-1.47908-1.479-1.19977-1.7135-.884011-1.8958-.541382-2.0204-.182307-2.0838z" fill="url(#x)" stroke="#d7d7d7" transform="translate(1.7643 193.89)"/><g stroke="#bebebe"><path d="m0 0h11l-5.5 8.8z" fill="url(#p)" opacity=".4" transform="translate(163.22 198.86)"/><path d="m5.5 0-5.5 8.8h11z" fill="url(#q)" transform="translate(141.7 198.86)"/><path d="m4.4 0 4.4 4.4-4.4 4.4-4.4-4.4z" fill="url(#r)" transform="translate(119.84 198.92)"/></g><g transform="translate(1.7643 1.688)"><path d="m0 12 .18231-2.0838.54138-2.0205.88401-1.8958 1.1998-1.7134 1.4791-1.4791 1.7134-1.1998 1.8958-.88401 2.0205-.54138 2.0838-.18231h271.92l2.084.18231 2.021.54138 1.895.88401 1.714 1.1998 1.479 1.4791 1.2 1.7134.884 1.8958.541 2.0205.182 2.0838v14h-295.92z" fill="url(#y)" stroke="#3175b0"/><g font-family="Noto Sans" font-size="14.667"><text font-style="italic" font-weight="400" x="97.031303" y="17.3333">public.</text><text fill="#fff" font-weight="700" x="141.375" y="17.3333">student</text></g></g></g></g></svg>