<svg height="224pt" viewBox="0 0 522 224" width="522pt" xmlns="http://www.w3.org/2000/svg" xmlns:xlink="http://www.w3.org/1999/xlink"><linearGradient id="a" x2="0" y2="1"><stop offset="0" stop-color="#dcdcdc"/><stop offset="1" stop-color="#dcdcdc"/></linearGradient><linearGradient id="b" x2="0" y2="1"><stop offset="0" stop-color="#a9a9a9" stop-opacity=".19608"/><stop offset="1" stop-color="#a9a9a9" stop-opacity=".19608"/></linearGradient><linearGradient id="c" x2="0" y2="1"><stop offset="0" stop-color="#eeffe0"/><stop offset="1" stop-color="#eeffe0"/></linearGradient><linearGradient id="d" x2="0" y2="1"><stop offset="0" stop-color="#fcfcfc"/><stop offset="1" stop-color="#fcfcfc"/></linearGradient><linearGradient id="e" x2="0" y2="1"><stop offset="0" stop-color="#ffff80"/><stop offset="1" stop-color="#ffff80"/></linearGradient><linearGradient id="f" x2="0" y2="1"><stop offset="0" stop-color="#d2e9ff"/><stop offset="1" stop-color="#d2e9ff"/></linearGradient><linearGradient id="g" x2="0" y2="1"><stop offset="0" stop-color="#c5cbff"/><stop offset="1" stop-color="#c5cbff"/></linearGradient><linearGradient id="h" x2="0" y2="1"><stop offset="0" stop-color="#f3f3f3"/><stop offset="1" stop-color="#e1e1e1"/></linearGradient><linearGradient id="i" x2="0" y2="1"><stop offset="0" stop-color="#4aa5ff"/><stop offset="1" stop-color="#4aa5ff"/></linearGradient><linearGradient id="j" x2="0" y2="1"><stop offset="0" stop-color="#ff8769"/><stop offset="1" stop-color="#ff8769"/></linearGradient><linearGradient id="k" gradientTransform="matrix(.99946 0 0 1.0005 197.88 109.97)" gradientUnits="userSpaceOnUse" x1="-.75034" x2="-.75034" xlink:href="#a" y1="-.78024" y2="18.89"/><linearGradient id="l" gradientTransform="matrix(1.9119 0 0 .52305 231.81 149.69)" gradientUnits="userSpaceOnUse" x2="0" xlink:href="#b" y2="55.444"/><linearGradient id="m" gradientTransform="matrix(1.8886 0 0 .5295 223.81 141.69)" gradientUnits="userSpaceOnUse" x1="-.26475" x2="-.26475" xlink:href="#c" y1="-.94428" y2="55.713"/><linearGradient id="n" gradientTransform="matrix(.99946 0 0 1.0005 197.88 92.924)" gradientUnits="userSpaceOnUse" x1="-.75034" x2="-.75034" xlink:href="#a" y1="-.78024" y2="18.89"/><linearGradient id="o" gradientTransform="matrix(.99946 0 0 1.0005 345.08 92.924)" gradientUnits="userSpaceOnUse" x1="-.75034" x2="-.75034" xlink:href="#a" y1="-.78024" y2="18.89"/><linearGradient id="p" gradientTransform="matrix(1.9119 0 0 .52305 231.81 69.688)" gradientUnits="userSpaceOnUse" x2="0" xlink:href="#b" y2="55.444"/><linearGradient id="q" gradientTransform="matrix(1.8886 0 0 .5295 223.81 61.688)" gradientUnits="userSpaceOnUse" x1="-.26475" x2="-.26475" xlink:href="#c" y1="-.94428" y2="55.713"/><linearGradient id="r" gradientTransform="matrix(.78422 0 0 1.2751 389.73 9.688)" gradientUnits="userSpaceOnUse" x2="0" xlink:href="#b" y2="167.14"/><linearGradient id="s" gradientTransform="matrix(.96552 0 0 1.0357 381.73 27.688)" gradientUnits="userSpaceOnUse" x1="-.51785" x2="-.51785" xlink:href="#d" y1="-.48276" y2="135.27"/><linearGradient id="t" gradientTransform="matrix(2.1792 0 0 .45888 381.73 167.29)" gradientUnits="userSpaceOnUse" x1="-.22944" x2="-.22944" xlink:href="#d" y1="-1.0896" y2="59.057"/><linearGradient id="u" gradientTransform="matrix(.99738 0 0 1.0026 389.73 34.728)" gradientUnits="userSpaceOnUse" x1="-.57651" x2="-.57651" xlink:href="#e" y1="-.81104" y2="12.474"/><linearGradient id="v" gradientUnits="userSpaceOnUse" x1="389.16" x2="389.16" xlink:href="#f" y1="57.338" y2="69.488"/><linearGradient id="w" gradientUnits="userSpaceOnUse" x1="389.16" x2="389.16" y1="79.938" y2="92.088"><stop offset="0" stop-color="#e0e0e0"/><stop offset="1" stop-color="#e0e0e0"/></linearGradient><linearGradient id="x" gradientUnits="userSpaceOnUse" x1="389.16" x2="389.16" xlink:href="#f" y1="102.54" y2="114.69"/><linearGradient id="y" gradientUnits="userSpaceOnUse" x1="389.16" x2="389.16" xlink:href="#f" y1="125.14" y2="137.29"/><linearGradient id="z" gradientUnits="userSpaceOnUse" x1="389.16" x2="389.16" xlink:href="#f" y1="147.74" y2="159.89"/><linearGradient id="A" gradientTransform="matrix(.98481 0 0 1.0154 389.73 174.24)" gradientUnits="userSpaceOnUse" x1="-.41286" x2="-.41286" xlink:href="#g" y1="-.80082" y2="12.483"/><linearGradient id="B" gradientTransform="matrix(2.5028 0 0 .39955 381.73 193.89)" gradientUnits="userSpaceOnUse" x1="-.19977" x2="-.19977" xlink:href="#d" y1="-1.2514" y2="51.118"/><linearGradient id="C" gradientTransform="matrix(1.1144 0 0 .89736 460.27 198.86)" gradientUnits="userSpaceOnUse" x1="-.61828" x2="-.61828" xlink:href="#h" y1="-.76781" y2="10.102"/><linearGradient id="D" gradientTransform="matrix(1.0891 0 0 .9182 438.75 198.86)" gradientUnits="userSpaceOnUse" x1="-.38932" x2="-.38932" xlink:href="#h" y1="-.75038" y2="10.128"/><linearGradient id="E" gradientTransform="matrix(.98191 0 0 1.0184 416.88 198.92)" gradientUnits="userSpaceOnUse" x1="-.36007" x2="-.36007" xlink:href="#h" y1="-.69431" y2="8.988"/><linearGradient id="F" gradientTransform="matrix(2.2036 0 0 .45379 381.73 1.688)" gradientUnits="userSpaceOnUse" x1="-.24581" x2="-.24581" xlink:href="#i" y1="-1.1018" y2="58.397"/><linearGradient id="G" gradientTransform="matrix(.91169 0 0 1.0969 9.7348 9.688)" gradientUnits="userSpaceOnUse" x2="0" xlink:href="#b" y2="194.3"/><linearGradient id="H" gradientTransform="matrix(1.3627 0 0 .73386 1.7348 27.688)" gradientUnits="userSpaceOnUse" x1="-.36693" x2="-.36693" xlink:href="#d" y1="-.68133" y2="129.32"/><linearGradient id="I" gradientTransform="matrix(1.5599 0 0 .64107 1.7348 122.09)" gradientUnits="userSpaceOnUse" x1="-.32053" x2="-.32053" xlink:href="#d" y1="-.77995" y2="112.78"/><linearGradient id="J" gradientTransform="matrix(.99738 0 0 1.0026 9.7348 34.728)" gradientUnits="userSpaceOnUse" x1="-.57651" x2="-.57651" xlink:href="#e" y1="-.81104" y2="12.474"/><linearGradient id="K" gradientUnits="userSpaceOnUse" x1="9.1598" x2="9.1598" xlink:href="#f" y1="57.338" y2="69.488"/><linearGradient id="L" gradientUnits="userSpaceOnUse" x1="9.1598" x2="9.1598" xlink:href="#j" y1="79.388" y2="92.638"/><linearGradient id="M" gradientUnits="userSpaceOnUse" x1="9.1598" x2="9.1598" xlink:href="#j" y1="101.99" y2="115.24"/><linearGradient id="N" gradientTransform="matrix(.98481 0 0 1.0154 9.7348 129.04)" gradientUnits="userSpaceOnUse" x1="-.41286" x2="-.41286" xlink:href="#g" y1="-.80082" y2="12.483"/><linearGradient id="O" gradientTransform="matrix(.98481 0 0 1.0154 9.7348 151.64)" gradientUnits="userSpaceOnUse" x1="-.41286" x2="-.41286" xlink:href="#g" y1="-.80082" y2="12.483"/><linearGradient id="P" gradientTransform="matrix(.98481 0 0 1.0154 9.7348 174.24)" gradientUnits="userSpaceOnUse" x1="-.41286" x2="-.41286" xlink:href="#g" y1="-.80082" y2="12.483"/><linearGradient id="Q" gradientTransform="matrix(2.9097 0 0 .34368 1.7348 193.89)" gradientUnits="userSpaceOnUse" x1="-.17184" x2="-.17184" xlink:href="#d" y1="-1.4548" y2="59.427"/><linearGradient id="R" gradientTransform="matrix(1.1144 0 0 .89736 103.31 198.86)" gradientUnits="userSpaceOnUse" x1="-.61828" x2="-.61828" xlink:href="#h" y1="-.76781" y2="10.102"/><linearGradient id="S" gradientTransform="matrix(1.0891 0 0 .9182 81.782 198.86)" gradientUnits="userSpaceOnUse" x1="-.38932" x2="-.38932" xlink:href="#h" y1="-.75038" y2="10.128"/><linearGradient id="T" gradientTransform="matrix(.98191 0 0 1.0184 59.921 198.92)" gradientUnits="userSpaceOnUse" x1="-.36007" x2="-.36007" xlink:href="#h" y1="-.69431" y2="8.988"/><linearGradient id="U" gradientTransform="matrix(2.5617 0 0 .39036 1.7348 1.688)" gradientUnits="userSpaceOnUse" x1="-.21145" x2="-.21145" xlink:href="#i" y1="-1.2809" y2="67.886"/><g stroke="#606060" stroke-linecap="square" stroke-linejoin="bevel" stroke-width="1.5"><g fill="none"><path d="m178.88 118.91h33"/><path d="m211.88 118.91h147.86"/><path d="m359.73 118.91h22"/><g transform="translate(178.88 118.91)"><path d="m18 0-18-11"/><path d="m18 0-18 11"/></g></g><circle cx="206.95" cy="119.05" fill="url(#k)" fill-rule="evenodd" r="9.075" stroke-dasharray="6 3"/><g fill="none"><path d="m0-8.8v17.6" transform="translate(371.73 118.91)"/><path d="m0-8.8v17.6" transform="translate(363.73 118.91)"/><path d="m178.88 101.86h33"/><path d="m211.88 101.86h147.86"/><path d="m359.73 101.86h22"/><path d="m18 0-18-11" transform="translate(178.88 101.86)"/><path d="m18 0-18 11" transform="translate(178.88 101.86)"/><path d="m0-8.8v17.6" transform="translate(371.73 101.86)"/></g></g><g fill-rule="evenodd"><circle cx="206.95" cy="102" r="9.075" style="stroke:#606060;stroke-dasharray:6 3;stroke-linecap:square;stroke-linejoin:bevel;stroke-width:1.5;fill:url(#n)"/><circle cx="354.16" cy="102" r="9.075" style="stroke:#606060;stroke-dasharray:6 3;stroke-linecap:square;stroke-linejoin:bevel;stroke-width:1.5;fill:url(#o)"/><path d="m231.81 149.69h106v29h-106z" fill="url(#l)"/><path d="m223.81 141.69h106v29h-106z" fill="url(#m)" stroke="#a4b09b" stroke-linecap="square" stroke-linejoin="bevel"/><text style="font-family:Noto Sans;font-size:13.2;font-style:italic;font-weight:400;stroke-linecap:square;stroke-linejoin:bevel" x="230.81157" y="161.3786">home_address_1</text><path d="m231.81 69.688h106v29h-106z" fill="url(#p)"/><path d="m223.81 61.688h106v29h-106z" fill="url(#q)" stroke="#a4b09b" stroke-linecap="square" stroke-linejoin="bevel"/><text style="font-family:Noto Sans;font-size:13.2;font-style:italic;font-weight:400;stroke-linecap:square;stroke-linejoin:bevel" x="230.81157" y="81.378601">home_address_2</text><path d="m389.73 21.688c0-6.6274 5.3726-12 12-12h107.07c6.627 0 12 5.3726 12 12v189.12c0 6.627-5.373 12-12 12h-107.07c-6.6274 0-12-5.373-12-12z" fill="url(#r)"/><g stroke-linecap="square" stroke-linejoin="bevel"><path d="m381.73 27.688h130.07v139.6h-130.07z" fill="url(#s)" stroke="#d7d7d7"/><path d="m381.73 167.29h130.07v26.6h-130.07z" fill="url(#t)" stroke="#d7d7d7"/><path d="m392.42 34.728-2.6889 2.6889v6.7222l2.6889 2.6889 1.3444-1.3444v-2.6889h1.3444l1.3444 1.3444 2.6889-2.6889 2.6889 2.6889v-5.3778h-8.0667v-2.6889z" fill="url(#u)" stroke="#897416" stroke-width="1.15"/><text fill="#2b7dba" font-family="Noto Sans" font-size="14.667" font-style="italic" font-weight="700" x="406.98483" y="46.519299">id</text><circle cx="395.23" cy="63.413" fill="url(#v)" r="5.5" stroke="#5a9ee4" stroke-width="1.15"/><text font-family="Noto Sans" font-size="14.667" font-style="italic" font-weight="400" x="405.88483" y="69.119301">country</text><circle cx="395.23" cy="86.013" fill="url(#w)" r="5.5" stroke="#808080" stroke-width="1.15"/><text font-family="'Noto Sans'" font-size="14.667" font-weight="400" x="405.88483" y="91.719307">province</text><circle cx="395.23" cy="108.61" fill="url(#x)" r="5.5" stroke="#5a9ee4" stroke-width="1.15"/><text font-family="Noto Sans" font-size="14.667" font-style="italic" font-weight="400" x="405.88483" y="114.31931">city</text><circle cx="395.23" cy="131.21" fill="url(#y)" r="5.5" stroke="#5a9ee4" stroke-width="1.15"/><text font-family="Noto Sans" font-size="14.667" font-style="italic" font-weight="400" x="405.88483" y="136.9193">postal_code</text><circle cx="395.23" cy="153.81" fill="url(#z)" r="5.5" stroke="#5a9ee4" stroke-width="1.15"/><text font-family="Noto Sans" font-size="14.667" font-style="italic" font-weight="400" x="405.88483" y="159.5193">street_address</text><path d="m396.46 174.24-6.7222 6.7222 5.3778 5.3778h6.7222v-6.7222z" fill="url(#A)" stroke="#4c4c98" stroke-width="1.15"/><text fill="#082061" font-family="Noto Sans" font-size="14.667" font-style="italic" font-weight="400" x="406.81683" y="186.11931">address_id_pk</text><path d="m381.73484 193.888h130.072v7.924l-.182 2.0838-.542 2.0204-.884 1.8958-1.2 1.7135-1.479 1.479-1.713 1.1998-1.896.884-2.02.5414-2.084.1823h-106.072l-2.08378-.1823-2.02046-.5414-1.89576-.884-1.71345-1.1998-1.47908-1.479-1.19977-1.7135-.88401-1.8958-.54138-2.0204-.18231-2.0838z" fill="url(#B)" stroke="#d7d7d7"/><g stroke="#bebebe"><path d="m460.27 198.86h11l-5.5 8.8z" fill="url(#C)" opacity=".4"/><path d="m444.25 198.86-5.5 8.8h11z" fill="url(#D)"/><path d="m421.28 198.92 4.4 4.4-4.4 4.4-4.4-4.4z" fill="url(#E)"/></g><path d="m381.73 13.688.18231-2.0838.54138-2.0205.88401-1.8958 1.1998-1.7134 1.4791-1.4791 1.7134-1.1998 1.8958-.88401 2.0205-.54138 2.0838-.18231h106.07l2.084.18231 2.02.54138 1.896.88401 1.713 1.1998 1.479 1.4791 1.2 1.7134.884 1.8958.542 2.0205.182 2.0838v14h-130.07z" fill="url(#F)" stroke="#3175b0"/><g font-family="Noto Sans" font-size="14.667"><text font-style="italic" font-weight="400" x="395.95364" y="19.021299">public.</text><text fill="#fff" font-weight="700" x="440.29733" y="19.021299">address</text></g></g><path d="m9.7348 21.688c0-6.6274 5.3726-12 12-12h153.14c6.628 0 12 5.3726 12 12v189.12c0 6.627-5.372 12-12 12h-153.14c-6.6274 0-12-5.373-12-12z" fill="url(#G)"/><g stroke-linecap="square" stroke-linejoin="bevel"><path d="m1.7348 27.688h176.14v94.4h-176.14z" fill="url(#H)" stroke="#d7d7d7"/><path d="m1.7348 122.09h176.14v71.8h-176.14z" fill="url(#I)" stroke="#d7d7d7"/><path d="m12.424 34.728-2.6889 2.6889v6.7222l2.6889 2.6889 1.3444-1.3444v-2.6889h1.3444l1.3444 1.3444 2.6889-2.6889 2.6889 2.6889v-5.3778h-8.0667v-2.6889z" fill="url(#J)" stroke="#897416" stroke-width="1.15"/><text fill="#2b7dba" font-family="Noto Sans" font-size="14.667" font-style="italic" font-weight="700" x="26.984838" y="46.519299">id</text><circle cx="15.235" cy="63.413" fill="url(#K)" r="5.5" stroke="#5a9ee4" stroke-width="1.15"/><text font-family="Noto Sans" font-size="14.667" font-style="italic" font-weight="400" x="25.88484" y="69.119301">name</text><path d="m9.7348 83.996v4.0333h5.3778v4.0333h1.3444l5.3778-5.3778v-1.3444l-5.3778-5.3778h-1.3444v4.0333z" fill="url(#L)" stroke="#8f341b" stroke-width="1.15"/><text font-family="Noto Sans" font-size="14.667" font-style="italic" font-weight="400" x="26.984838" y="91.719307">address_1</text><path d="m9.7348 106.6v4.0333h5.3778v4.0333h1.3444l5.3778-5.3778v-1.3444l-5.3778-5.3778h-1.3444v4.0333z" fill="url(#M)" stroke="#8f341b" stroke-width="1.15"/><text font-family="Noto Sans" font-size="14.667" font-style="italic" font-weight="400" x="26.984838" y="114.31931">address_2</text><path d="m16.457 129.04-6.7222 6.7222 5.3778 5.3778h6.7222v-6.7222z" fill="url(#N)" stroke="#4c4c98" stroke-width="1.15"/><text fill="#082061" font-family="Noto Sans" font-size="14.667" font-style="italic" font-weight="400" x="26.816439" y="140.9193">student_id_pk</text><path d="m16.457 151.64-6.7222 6.7222 5.3778 5.3778h6.7222v-6.7222z" fill="url(#O)" stroke="#4c4c98" stroke-width="1.15"/><text fill="#082061" font-family="Noto Sans" font-size="14.667" font-style="italic" font-weight="400" x="26.816439" y="163.5193">student_address_1_fk</text><path d="m16.457 174.24-6.7222 6.7222 5.3778 5.3778h6.7222v-6.7222z" fill="url(#P)" stroke="#4c4c98" stroke-width="1.15"/><text fill="#082061" font-family="Noto Sans" font-size="14.667" font-style="italic" font-weight="400" x="26.816439" y="186.11931">student_address_2_fk</text><path d="m1.7348 193.89h176.14v7.924l-.182 2.0838-.542 2.0204-.884 1.8958-1.199 1.7135-1.479 1.479-1.714 1.1998-1.896.884-2.02.5414-2.084.1823h-152.14l-2.0838-.1823-2.0205-.5414-1.8958-.884-1.7134-1.1998-1.4791-1.479-1.1998-1.7135-.88401-1.8958-.54138-2.0204-.18231-2.0838v-7.924" fill="url(#Q)" stroke="#d7d7d7"/><g stroke="#bebebe"><path d="m103.31 198.86h11l-5.5 8.8z" fill="url(#R)" opacity=".4"/><path d="m87.282 198.86-5.5 8.8h11z" fill="url(#S)"/><path d="m64.321 198.92 4.4 4.4-4.4 4.4-4.4-4.4z" fill="url(#T)"/></g><path d="m1.7348 13.688.18231-2.0838.54138-2.0205.88401-1.8958 1.1998-1.7134 1.4791-1.4791 1.7134-1.1998 1.8958-.88401 2.0205-.54138 2.0838-.18231h152.14l2.084.18231 2.02.54138 1.896.88401 1.714 1.1998 1.479 1.4791 1.199 1.7134.884 1.8958.542 2.0205.182 2.0838v14h-176.14z" fill="url(#U)" stroke="#3175b0"/><g font-family="Noto Sans" font-size="14.667"><text font-style="italic" font-weight="400" x="38.891136" y="19.021299">public.</text><text fill="#fff" font-weight="700" x="83.23484" y="19.021299">student</text></g></g></g></svg>