<svg height="224pt" viewBox="0 0 762 224" width="762pt" xmlns="http://www.w3.org/2000/svg" xmlns:xlink="http://www.w3.org/1999/xlink"><linearGradient id="a" x2="0" y2="1"><stop offset="0" stop-color="#dcdcdc"/><stop offset="1" stop-color="#dcdcdc"/></linearGradient><linearGradient id="b" x2="0" y2="1"><stop offset="0" stop-color="#a9a9a9" stop-opacity=".19608"/><stop offset="1" stop-color="#a9a9a9" stop-opacity=".19608"/></linearGradient><linearGradient id="c" x2="0" y2="1"><stop offset="0" stop-color="#eeffe0"/><stop offset="1" stop-color="#eeffe0"/></linearGradient><linearGradient id="d" x2="0" y2="1"><stop offset="0" stop-color="#fcfcfc"/><stop offset="1" stop-color="#fcfcfc"/></linearGradient><linearGradient id="e" x2="0" y2="1"><stop offset="0" stop-color="#ffff80"/><stop offset="1" stop-color="#ffff80"/></linearGradient><linearGradient id="f" x2="0" y2="1"><stop offset="0" stop-color="#d2e9ff"/><stop offset="1" stop-color="#d2e9ff"/></linearGradient><linearGradient id="g" x2="0" y2="1"><stop offset="0" stop-color="#c5cbff"/><stop offset="1" stop-color="#c5cbff"/></linearGradient><linearGradient id="h" x2="0" y2="1"><stop offset="0" stop-color="#f3f3f3"/><stop offset="1" stop-color="#e1e1e1"/></linearGradient><linearGradient id="i" x2="0" y2="1"><stop offset="0" stop-color="#4aa5ff"/><stop offset="1" stop-color="#4aa5ff"/></linearGradient><linearGradient id="j" gradientTransform="matrix(.99946 0 0 1.0005 -262.73 -113.83)" gradientUnits="userSpaceOnUse" x1="-.75034" x2="-.75034" xlink:href="#a" y1="-.78024" y2="18.89"/><linearGradient id="k" gradientTransform="matrix(1.6815 0 0 .59469 169.73 129.69)" gradientUnits="userSpaceOnUse" x2="0" xlink:href="#b" y2="48.765"/><linearGradient id="l" gradientTransform="matrix(1.6633 0 0 .6012 161.73 121.69)" gradientUnits="userSpaceOnUse" x1="-.3006" x2="-.3006" xlink:href="#c" y1="-.83166" y2="49.068"/><linearGradient id="m" gradientTransform="matrix(.99946 0 0 1.0005 478 97.445)" gradientUnits="userSpaceOnUse" x1="-.75034" x2="-.75034" xlink:href="#a" y1="-.78024" y2="18.89"/><linearGradient id="n" gradientTransform="matrix(2.0511 0 0 .48755 489.73 129.69)" gradientUnits="userSpaceOnUse" x2="0" xlink:href="#b" y2="59.481"/><linearGradient id="o" gradientTransform="matrix(2.0248 0 0 .49386 481.73 121.69)" gradientUnits="userSpaceOnUse" x1="-.24693" x2="-.24693" xlink:href="#c" y1="-1.0124" y2="59.733"/><linearGradient id="p" gradientTransform="matrix(.78422 0 0 1.2751 629.73 9.688)" gradientUnits="userSpaceOnUse" x2="0" xlink:href="#b" y2="167.14"/><linearGradient id="q" gradientTransform="matrix(.96552 0 0 1.0357 621.73 27.688)" gradientUnits="userSpaceOnUse" x1="-.51785" x2="-.51785" xlink:href="#d" y1="-.48276" y2="135.27"/><linearGradient id="r" gradientTransform="matrix(2.1792 0 0 .45888 621.73 167.29)" gradientUnits="userSpaceOnUse" x1="-.22944" x2="-.22944" xlink:href="#d" y1="-1.0896" y2="59.057"/><linearGradient id="s" gradientTransform="matrix(.99738 0 0 1.0026 629.73 34.728)" gradientUnits="userSpaceOnUse" x1="-.57651" x2="-.57651" xlink:href="#e" y1="-.81104" y2="12.474"/><linearGradient id="t" gradientUnits="userSpaceOnUse" x1="629.16" x2="629.16" xlink:href="#f" y1="57.338" y2="69.488"/><linearGradient id="u" gradientUnits="userSpaceOnUse" x1="629.16" x2="629.16" y1="79.938" y2="92.088"><stop offset="0" stop-color="#e0e0e0"/><stop offset="1" stop-color="#e0e0e0"/></linearGradient><linearGradient id="v" gradientUnits="userSpaceOnUse" x1="629.16" x2="629.16" xlink:href="#f" y1="102.54" y2="114.69"/><linearGradient id="w" gradientUnits="userSpaceOnUse" x1="629.16" x2="629.16" xlink:href="#f" y1="125.14" y2="137.29"/><linearGradient id="x" gradientUnits="userSpaceOnUse" x1="629.16" x2="629.16" xlink:href="#f" y1="147.74" y2="159.89"/><linearGradient id="y" gradientTransform="matrix(.98481 0 0 1.0154 629.73 174.24)" gradientUnits="userSpaceOnUse" x1="-.41286" x2="-.41286" xlink:href="#g" y1="-.80082" y2="12.483"/><linearGradient id="z" gradientTransform="matrix(2.5028 0 0 .39955 621.73 193.89)" gradientUnits="userSpaceOnUse" x1="-.19977" x2="-.19977" xlink:href="#d" y1="-1.2514" y2="51.118"/><linearGradient id="A" gradientTransform="matrix(1.1144 0 0 .89736 700.27 198.86)" gradientUnits="userSpaceOnUse" x1="-.61828" x2="-.61828" xlink:href="#h" y1="-.76781" y2="10.102"/><linearGradient id="B" gradientTransform="matrix(1.0891 0 0 .9182 678.75 198.86)" gradientUnits="userSpaceOnUse" x1="-.38932" x2="-.38932" xlink:href="#h" y1="-.75038" y2="10.128"/><linearGradient id="C" gradientTransform="matrix(.98191 0 0 1.0184 656.88 198.92)" gradientUnits="userSpaceOnUse" x1="-.36007" x2="-.36007" xlink:href="#h" y1="-.69431" y2="8.988"/><linearGradient id="D" gradientTransform="matrix(2.2036 0 0 .45379 621.73 1.688)" gradientUnits="userSpaceOnUse" x1="-.24581" x2="-.24581" xlink:href="#i" y1="-1.1018" y2="58.397"/><linearGradient id="E" gradientTransform="matrix(1.0191 0 0 .98126 9.7348 49.688)" gradientUnits="userSpaceOnUse" x2="0" xlink:href="#b" y2="125.07"/><linearGradient id="F" gradientTransform="matrix(1.5934 0 0 .62758 1.7348 67.688)" gradientUnits="userSpaceOnUse" x1="-.31379" x2="-.31379" xlink:href="#d" y1="-.79671" y2="79.193"/><linearGradient id="G" gradientTransform="matrix(2.149 0 0 .46534 1.7348 116.89)" gradientUnits="userSpaceOnUse" x1="-.23267" x2="-.23267" xlink:href="#d" y1="-1.0745" y2="58.237"/><linearGradient id="H" gradientTransform="matrix(.99738 0 0 1.0026 9.7348 74.728)" gradientUnits="userSpaceOnUse" x1="-.57651" x2="-.57651" xlink:href="#e" y1="-.81104" y2="12.474"/><linearGradient id="I" gradientUnits="userSpaceOnUse" x1="9.1598" x2="9.1598" xlink:href="#f" y1="97.338" y2="109.49"/><linearGradient id="J" gradientTransform="matrix(.98481 0 0 1.0154 9.7348 123.84)" gradientUnits="userSpaceOnUse" x1="-.41286" x2="-.41286" xlink:href="#g" y1="-.80082" y2="12.483"/><linearGradient id="K" gradientTransform="matrix(2.4681 0 0 .40517 1.7348 143.49)" gradientUnits="userSpaceOnUse" x1="-.20259" x2="-.20259" xlink:href="#d" y1="-1.234" y2="50.408"/><linearGradient id="L" gradientTransform="matrix(1.1144 0 0 .89736 78.462 148.46)" gradientUnits="userSpaceOnUse" x1="-.61828" x2="-.61828" xlink:href="#h" y1="-.76781" y2="10.102"/><linearGradient id="M" gradientTransform="matrix(1.0891 0 0 .9182 56.938 148.46)" gradientUnits="userSpaceOnUse" x1="-.38932" x2="-.38932" xlink:href="#h" y1="-.75038" y2="10.128"/><linearGradient id="N" gradientTransform="matrix(.98191 0 0 1.0184 35.077 148.52)" gradientUnits="userSpaceOnUse" x1="-.36007" x2="-.36007" xlink:href="#h" y1="-.69431" y2="8.988"/><linearGradient id="O" gradientTransform="matrix(2.1731 0 0 .46018 1.7348 41.688)" gradientUnits="userSpaceOnUse" x1="-.24927" x2="-.24927" xlink:href="#i" y1="-1.0865" y2="57.586"/><linearGradient id="P" gradientTransform="matrix(1.0274 0 0 .97329 289.73 29.688)" gradientUnits="userSpaceOnUse" x2="0" xlink:href="#b" y2="172.53"/><linearGradient id="Q" gradientTransform="matrix(1.8791 0 0 .53216 281.73 47.688)" gradientUnits="userSpaceOnUse" x1="-.26608" x2="-.26608" xlink:href="#d" y1="-.93957" y2="93.394"/><linearGradient id="R" gradientTransform="matrix(1.5604 0 0 .64084 281.73 96.888)" gradientUnits="userSpaceOnUse" x1="-.32042" x2="-.32042" xlink:href="#d" y1="-.78022" y2="112.82"/><linearGradient id="S" gradientTransform="matrix(.99738 0 0 1.0026 289.73 54.728)" gradientUnits="userSpaceOnUse" x1="-.57651" x2="-.57651" xlink:href="#e" y1="-.81104" y2="12.474"/><linearGradient id="T" gradientTransform="matrix(.99738 0 0 1.0026 289.73 77.328)" gradientUnits="userSpaceOnUse" x1="-.57651" x2="-.57651" xlink:href="#e" y1="-.81104" y2="12.474"/><linearGradient id="U" gradientTransform="matrix(.98481 0 0 1.0154 289.73 103.84)" gradientUnits="userSpaceOnUse" x1="-.41286" x2="-.41286" xlink:href="#g" y1="-.80082" y2="12.483"/><linearGradient id="V" gradientTransform="matrix(.98481 0 0 1.0154 289.73 126.44)" gradientUnits="userSpaceOnUse" x1="-.41286" x2="-.41286" xlink:href="#g" y1="-.80082" y2="12.483"/><linearGradient id="W" gradientTransform="matrix(.98481 0 0 1.0154 289.73 149.04)" gradientUnits="userSpaceOnUse" x1="-.41286" x2="-.41286" xlink:href="#g" y1="-.80082" y2="12.483"/><linearGradient id="X" gradientTransform="matrix(2.9107 0 0 .34357 281.73 168.69)" gradientUnits="userSpaceOnUse" x1="-.17178" x2="-.17178" xlink:href="#d" y1="-1.4553" y2="59.447"/><linearGradient id="Y" gradientTransform="matrix(1.1144 0 0 .89736 383.37 173.66)" gradientUnits="userSpaceOnUse" x1="-.61828" x2="-.61828" xlink:href="#h" y1="-.76781" y2="10.102"/><linearGradient id="Z" gradientTransform="matrix(1.0891 0 0 .9182 361.84 173.66)" gradientUnits="userSpaceOnUse" x1="-.38932" x2="-.38932" xlink:href="#h" y1="-.75038" y2="10.128"/><linearGradient id="aa" gradientTransform="matrix(.98191 0 0 1.0184 339.98 173.72)" gradientUnits="userSpaceOnUse" x1="-.36007" x2="-.36007" xlink:href="#h" y1="-.69431" y2="8.988"/><linearGradient id="ab" gradientTransform="matrix(2.5626 0 0 .39023 281.73 21.688)" gradientUnits="userSpaceOnUse" x1="-.21138" x2="-.21138" xlink:href="#i" y1="-1.2813" y2="67.909"/><g stroke="#606060" stroke-linecap="square" stroke-linejoin="bevel" stroke-width="1.5"><g fill="none"><path d="m281.73 104.89h-33"/><path d="m248.73 104.89c-48.772 0-48.772-1.301-97.543-1.301"/><path d="m151.19 103.59h-22"/><g transform="matrix(-1 0 0 -1 281.73 104.89)"><path d="m18 0-18-11"/><path d="m18 0-18 11"/></g></g><circle cx="-253.66" cy="-104.75" fill="url(#j)" fill-rule="evenodd" r="9.075" stroke-dasharray="6 3" transform="scale(-1)"/><g fill="none"><path d="m0-8.8v17.6" transform="matrix(-1 0 0 -1 139.19 103.59)"/><path d="m0-8.8v17.6" transform="matrix(-1 0 0 -1 147.19 103.59)"/></g></g><path d="m169.73 129.69h82v29h-82z" fill="url(#k)" fill-rule="evenodd"/><g stroke-linecap="square" stroke-linejoin="bevel"><path d="m161.73 121.69h82v29h-82z" fill="url(#l)" fill-rule="evenodd" stroke="#a4b09b"/><text fill-rule="evenodd" font-family="Noto Sans" font-size="13.2" font-style="italic" font-weight="400" x="168.73483" y="141.3786">has_address</text><g stroke="#606060" stroke-width="1.5"><g fill="none"><path d="m459 106.38h33"/><path d="m492 106.38c53.867 0 53.867 1.335 107.73 1.335"/><path d="m599.73 107.71h22"/><g transform="translate(459 106.38)"><path d="m18 0-18-11"/><path d="m18 0-18 11"/></g></g><circle cx="487.08" cy="106.52" fill="url(#m)" fill-rule="evenodd" r="9.075" stroke-dasharray="6 3"/><g fill="none"><path d="m0-8.8v17.6" transform="translate(611.73 107.71)"/><path d="m0-8.8v17.6" transform="translate(603.73 107.71)"/></g></g></g><g fill-rule="evenodd"><path d="m489.73 129.69h122v29h-122z" fill="url(#n)"/><path d="m481.73 121.69h122v29h-122z" fill="url(#o)" stroke="#a4b09b" stroke-linecap="square" stroke-linejoin="bevel"/><text style="font-family:Noto Sans;font-size:13.2;font-style:italic;font-weight:400;stroke-linecap:square;stroke-linejoin:bevel" x="488.73483" y="141.3786">address_of_student</text><path d="m629.73 21.688c0-6.6274 5.3726-12 12-12h107.07c6.627 0 12 5.3726 12 12v189.12c0 6.627-5.373 12-12 12h-107.07c-6.6274 0-12-5.373-12-12z" fill="url(#p)"/><g stroke-linecap="square" stroke-linejoin="bevel"><path d="m621.73 27.688h130.07v139.6h-130.07z" fill="url(#q)" stroke="#d7d7d7"/><path d="m621.73 167.29h130.07v26.6h-130.07z" fill="url(#r)" stroke="#d7d7d7"/><path d="m632.42 34.728-2.6889 2.6889v6.7222l2.6889 2.6889 1.3444-1.3444v-2.6889h1.3444l1.3444 1.3444 2.6889-2.6889 2.6889 2.6889v-5.3778h-8.0667v-2.6889z" fill="url(#s)" stroke="#897416" stroke-width="1.15"/><text fill="#2b7dba" font-family="Noto Sans" font-size="14.667" font-style="italic" font-weight="700" x="646.98486" y="46.519299">id</text><circle cx="635.23" cy="63.413" fill="url(#t)" r="5.5" stroke="#5a9ee4" stroke-width="1.15"/><text font-family="Noto Sans" font-size="14.667" font-style="italic" font-weight="400" x="645.88489" y="69.119301">country</text><circle cx="635.23" cy="86.013" fill="url(#u)" r="5.5" stroke="#808080" stroke-width="1.15"/><text font-family="'Noto Sans'" font-size="14.667" font-weight="400" x="645.88489" y="91.719307">province</text><circle cx="635.23" cy="108.61" fill="url(#v)" r="5.5" stroke="#5a9ee4" stroke-width="1.15"/><text font-family="Noto Sans" font-size="14.667" font-style="italic" font-weight="400" x="645.88489" y="114.31931">city</text><circle cx="635.23" cy="131.21" fill="url(#w)" r="5.5" stroke="#5a9ee4" stroke-width="1.15"/><text font-family="Noto Sans" font-size="14.667" font-style="italic" font-weight="400" x="645.88489" y="136.9193">postal_code</text><circle cx="635.23" cy="153.81" fill="url(#x)" r="5.5" stroke="#5a9ee4" stroke-width="1.15"/><text font-family="Noto Sans" font-size="14.667" font-style="italic" font-weight="400" x="645.88489" y="159.5193">street_address</text><path d="m636.46 174.24-6.7222 6.7222 5.3778 5.3778h6.7222v-6.7222z" fill="url(#y)" stroke="#4c4c98" stroke-width="1.15"/><text fill="#082061" font-family="Noto Sans" font-size="14.667" font-style="italic" font-weight="400" x="646.81683" y="186.11931">address_id_pk</text><path d="m621.73484 193.888h130.072v7.924l-.182 2.0838-.542 2.0204-.884 1.8958-1.2 1.7135-1.479 1.479-1.713 1.1998-1.896.884-2.02.5414-2.084.1823h-106.072l-2.08378-.1823-2.02046-.5414-1.89576-.884-1.71345-1.1998-1.47908-1.479-1.19977-1.7135-.88401-1.8958-.54138-2.0204-.18231-2.0838z" fill="url(#z)" stroke="#d7d7d7"/><g stroke="#bebebe"><path d="m700.27 198.86h11l-5.5 8.8z" fill="url(#A)" opacity=".4"/><path d="m684.25 198.86-5.5 8.8h11z" fill="url(#B)"/><path d="m661.28 198.92 4.4 4.4-4.4 4.4-4.4-4.4z" fill="url(#C)"/></g><path d="m621.73 13.688.18231-2.0838.54138-2.0205.88401-1.8958 1.1998-1.7134 1.4791-1.4791 1.7134-1.1998 1.8958-.88401 2.0205-.54138 2.0838-.18231h106.07l2.084.18231 2.02.54138 1.896.88401 1.713 1.1998 1.479 1.4791 1.2 1.7134.884 1.8958.542 2.0205.182 2.0838v14h-130.07z" fill="url(#D)" stroke="#3175b0"/><g font-family="Noto Sans" font-size="14.667"><text font-style="italic" font-weight="400" x="635.95367" y="19.021299">public.</text><text fill="#fff" font-weight="700" x="680.29736" y="19.021299">address</text></g></g><path d="m9.7348 61.688c0-6.6274 5.3726-12 12-12h103.46c6.627 0 12 5.3726 12 12v98.724c0 6.627-5.373 12-12 12h-103.46c-6.6274 0-12-5.373-12-12z" fill="url(#E)"/><g stroke-linecap="square" stroke-linejoin="bevel"><path d="m1.7348 67.688h126.46v49.2h-126.46z" fill="url(#F)" stroke="#d7d7d7"/><path d="m1.7348 116.89h126.46v26.6h-126.46z" fill="url(#G)" stroke="#d7d7d7"/><path d="m12.424 74.728-2.6889 2.6889v6.7222l2.6889 2.6889 1.3444-1.3444v-2.6889h1.3444l1.3444 1.3444 2.6889-2.6889 2.6889 2.6889v-5.3778h-8.0667v-2.6889z" fill="url(#H)" stroke="#897416" stroke-width="1.15"/><text fill="#2b7dba" font-family="Noto Sans" font-size="14.667" font-style="italic" font-weight="700" x="26.984838" y="86.519302">id</text><circle cx="15.235" cy="103.41" fill="url(#I)" r="5.5" stroke="#5a9ee4" stroke-width="1.15"/><text font-family="Noto Sans" font-size="14.667" font-style="italic" font-weight="400" x="25.88484" y="109.1193">name</text><path d="m16.457 123.84-6.7222 6.7222 5.3778 5.3778h6.7222v-6.7222z" fill="url(#J)" stroke="#4c4c98" stroke-width="1.15"/><text fill="#082061" font-family="Noto Sans" font-size="14.667" font-style="italic" font-weight="400" x="26.816439" y="135.7193">student_id_pk</text><path d="m1.7348 143.49h126.46v7.924l-.183 2.0838-.541 2.0204-.884 1.8958-1.2 1.7135-1.479 1.479-1.713 1.1998-1.896.884-2.021.5414-2.083.1823h-102.46l-2.0838-.1823-2.0205-.5414-1.8958-.884-1.7134-1.1998-1.4791-1.479-1.1998-1.7135-.88401-1.8958-.54138-2.0204-.18231-2.0838v-7.924" fill="url(#K)" stroke="#d7d7d7"/><g stroke="#bebebe"><path d="m78.462 148.46h11l-5.5 8.8z" fill="url(#L)" opacity=".4"/><path d="m62.438 148.46-5.5 8.8h11z" fill="url(#M)"/><path d="m39.477 148.52 4.4 4.4-4.4 4.4-4.4-4.4z" fill="url(#N)"/></g><path d="m1.7348 53.688.18231-2.0838.54138-2.0205.88401-1.8958 1.1998-1.7134 1.4791-1.4791 1.7134-1.1998 1.8958-.88401 2.0205-.54138 2.0838-.18231h102.46l2.083.18231 2.021.54138 1.896.88401 1.713 1.1998 1.479 1.4791 1.2 1.7134.884 1.8958.541 2.0205.183 2.0838v14h-126.46z" fill="url(#O)" stroke="#3175b0"/><g font-family="Noto Sans" font-size="14.667"><text font-style="italic" font-weight="400" x="14.047338" y="59.021297">public.</text><text fill="#fff" font-weight="700" x="58.391132" y="59.021297">student</text></g></g><path d="m289.73 41.688c0-6.6274 5.3726-12 12-12h153.27c6.627 0 12 5.3726 12 12v143.92c0 6.627-5.373 12-12 12h-153.27c-6.6274 0-12-5.373-12-12z" fill="url(#P)"/><g stroke-linecap="square" stroke-linejoin="bevel"><path d="m281.73 47.688h176.27v49.2h-176.27z" fill="url(#Q)" stroke="#d7d7d7"/><path d="m281.73 96.888h176.27v71.8h-176.27z" fill="url(#R)" stroke="#d7d7d7"/><path d="m292.42 54.728-2.6889 2.6889v6.7222l2.6889 2.6889 1.3444-1.3444v-2.6889h1.3444l1.3444 1.3444 2.6889-2.6889 2.6889 2.6889v-5.3778h-8.0667v-2.6889z" fill="url(#S)" stroke="#897416" stroke-width="1.15"/><text fill="#2b7dba" font-family="Noto Sans" font-size="14.667" font-style="italic" font-weight="700" x="306.98483" y="66.519302">student</text><path d="m292.42 77.328-2.6889 2.6889v6.7222l2.6889 2.6889 1.3444-1.3444v-2.6889h1.3444l1.3444 1.3444 2.6889-2.6889 2.6889 2.6889v-5.3778h-8.0667v-2.6889z" fill="url(#T)" stroke="#897416" stroke-width="1.15"/><text fill="#2b7dba" font-family="Noto Sans" font-size="14.667" font-style="italic" font-weight="700" x="306.98483" y="89.119301">address</text><path d="m296.46 103.84-6.7222 6.7222 5.3778 5.3778h6.7222v-6.7222z" fill="url(#U)" stroke="#4c4c98" stroke-width="1.15"/><text fill="#082061" font-family="Noto Sans" font-size="14.667" font-style="italic" font-weight="400" x="306.81683" y="115.71931">student_address_pk</text><path d="m296.46 126.44-6.7222 6.7222 5.3778 5.3778h6.7222v-6.7222z" fill="url(#V)" stroke="#4c4c98" stroke-width="1.15"/><text fill="#082061" font-family="Noto Sans" font-size="14.667" font-style="italic" font-weight="400" x="306.81683" y="138.31931">student_fk</text><path d="m296.46 149.04-6.7222 6.7222 5.3778 5.3778h6.7222v-6.7222z" fill="url(#W)" stroke="#4c4c98" stroke-width="1.15"/><text fill="#082061" font-family="Noto Sans" font-size="14.667" font-style="italic" font-weight="400" x="306.81683" y="160.9193">address_fk</text><path d="m281.73484 168.688h176.266v7.924l-.183 2.0838-.541 2.0204-.884 1.8958-1.2 1.7135-1.479 1.479-1.713 1.1998-1.896.884-2.021.5414-2.083.1823h-152.266l-2.08378-.1823-2.02046-.5414-1.89576-.884-1.71345-1.1998-1.47908-1.479-1.19977-1.7135-.88401-1.8958-.54138-2.0204-.18231-2.0838z" fill="url(#X)" stroke="#d7d7d7"/><g stroke="#bebebe"><path d="m383.37 173.66h11l-5.5 8.8z" fill="url(#Y)" opacity=".4"/><path d="m367.34 173.66-5.5 8.8h11z" fill="url(#Z)"/><path d="m344.38 173.72 4.4 4.4-4.4 4.4-4.4-4.4z" fill="url(#aa)"/></g><path d="m281.73 33.688.18231-2.0838.54138-2.0205.88401-1.8958 1.1998-1.7134 1.4791-1.4791 1.7134-1.1998 1.8958-.88401 2.0205-.54138 2.0838-.18231h152.27l2.083.18231 2.021.54138 1.896.88401 1.713 1.1998 1.479 1.4791 1.2 1.7134.884 1.8958.541 2.0205.183 2.0838v14h-176.27z" fill="url(#ab)" stroke="#3175b0"/><g font-family="Noto Sans" font-size="14.667"><text font-style="italic" font-weight="400" x="286.73483" y="39.021297">public.</text><text fill="#fff" font-weight="700" x="331.07864" y="39.021297">student_address</text></g></g></g></svg>