<svg height="424pt" viewBox="0 0 739 424" width="739pt" xmlns="http://www.w3.org/2000/svg" xmlns:xlink="http://www.w3.org/1999/xlink"><linearGradient id="a" x2="0" y2="1"><stop offset="0" stop-color="#a9a9a9" stop-opacity=".19608"/><stop offset="1" stop-color="#a9a9a9" stop-opacity=".19608"/></linearGradient><linearGradient id="b" x2="0" y2="1"><stop offset="0" stop-color="#eeffe0"/><stop offset="1" stop-color="#eeffe0"/></linearGradient><linearGradient id="c" x2="0" y2="1"><stop offset="0" stop-color="#fcfcfc"/><stop offset="1" stop-color="#fcfcfc"/></linearGradient><linearGradient id="d" x2="0" y2="1"><stop offset="0" stop-color="#f3f3f3"/><stop offset="1" stop-color="#e1e1e1"/></linearGradient><linearGradient id="e" x2="0" y2="1"><stop offset="0" stop-color="#4aa5ff"/><stop offset="1" stop-color="#4aa5ff"/></linearGradient><linearGradient id="f" gradientTransform="scale(.99946 1.0005)" gradientUnits="userSpaceOnUse" x1="-.75034" x2="-.75034" y1="-.78024" y2="18.89"><stop offset="0" stop-color="#dcdcdc"/><stop offset="1" stop-color="#dcdcdc"/></linearGradient><linearGradient id="g" gradientTransform="scale(1.6815 .59469)" gradientUnits="userSpaceOnUse" x2="0" xlink:href="#a" y2="48.765"/><linearGradient id="h" gradientTransform="scale(1.6633 .6012)" gradientUnits="userSpaceOnUse" x1="-.3006" x2="-.3006" xlink:href="#b" y1="-.83166" y2="49.068"/><linearGradient id="i" gradientTransform="scale(2.0511 .48755)" gradientUnits="userSpaceOnUse" x2="0" xlink:href="#a" y2="59.481"/><linearGradient id="j" gradientTransform="scale(2.0248 .49386)" gradientUnits="userSpaceOnUse" x1="-.24693" x2="-.24693" xlink:href="#b" y1="-1.0124" y2="59.733"/><linearGradient id="k" gradientTransform="scale(1.1214 .89174)" gradientUnits="userSpaceOnUse" x2="0" xlink:href="#a" y2="239"/><linearGradient id="l" gradientTransform="scale(1.3807 .72429)" gradientUnits="userSpaceOnUse" x1="-.36215" x2="-.36215" xlink:href="#c" y1="-.69033" y2="193.43"/><linearGradient id="m" gradientTransform="scale(3.1162 .32091)" gradientUnits="userSpaceOnUse" x1="-.16045" x2="-.16045" xlink:href="#c" y1="-1.5581" y2="84.449"/><linearGradient id="n" gradientTransform="scale(.99738 1.0026)" gradientUnits="userSpaceOnUse" x1="-.57651" x2="-.57651" y1="-.81104" y2="12.474"><stop offset="0" stop-color="#ffff80"/><stop offset="1" stop-color="#ffff80"/></linearGradient><linearGradient id="o" gradientUnits="userSpaceOnUse" x1="-.575" x2="-.575" y1="-.575" y2="11.575"><stop offset="0" stop-color="#d2e9ff"/><stop offset="1" stop-color="#d2e9ff"/></linearGradient><linearGradient id="p" gradientUnits="userSpaceOnUse" x1="-.575" x2="-.575" y1="-.575" y2="11.575"><stop offset="0" stop-color="#e0e0e0"/><stop offset="1" stop-color="#e0e0e0"/></linearGradient><linearGradient id="q" gradientTransform="scale(.98481 1.0154)" gradientUnits="userSpaceOnUse" x1="-.41286" x2="-.41286" y1="-.80082" y2="12.483"><stop offset="0" stop-color="#c5cbff"/><stop offset="1" stop-color="#c5cbff"/></linearGradient><linearGradient id="r" gradientTransform="scale(3.5789 .27941)" gradientUnits="userSpaceOnUse" x1="-.13971" x2="-.13971" xlink:href="#c" y1="-1.7895" y2="73.096"/><linearGradient id="s" gradientTransform="scale(1.1144 .89736)" gradientUnits="userSpaceOnUse" x1="-.61828" x2="-.61828" xlink:href="#d" y1="-.76781" y2="10.102"/><linearGradient id="t" gradientTransform="scale(1.0891 .9182)" gradientUnits="userSpaceOnUse" x1="-.38932" x2="-.38932" xlink:href="#d" y1="-.75038" y2="10.128"/><linearGradient id="u" gradientTransform="scale(.98191 1.0184)" gradientUnits="userSpaceOnUse" x1="-.36007" x2="-.36007" xlink:href="#d" y1="-.69431" y2="8.988"/><linearGradient id="v" gradientTransform="scale(3.1509 .31737)" gradientUnits="userSpaceOnUse" x1="-.17191" x2="-.17191" xlink:href="#e" y1="-1.5754" y2="83.498"/><linearGradient id="w" gradientTransform="scale(1.4193 .70455)" gradientUnits="userSpaceOnUse" x2="0" xlink:href="#a" y2="174.19"/><linearGradient id="x" gradientTransform="scale(2.2192 .45061)" gradientUnits="userSpaceOnUse" x1="-.2253" x2="-.2253" xlink:href="#c" y1="-1.1096" y2="110.3"/><linearGradient id="y" gradientTransform="scale(2.993 .33412)" gradientUnits="userSpaceOnUse" x1="-.16706" x2="-.16706" xlink:href="#c" y1="-1.4965" y2="81.109"/><linearGradient id="z" gradientTransform="scale(3.4374 .29092)" gradientUnits="userSpaceOnUse" x1="-.14546" x2="-.14546" xlink:href="#c" y1="-1.7187" y2="70.206"/><linearGradient id="A" gradientTransform="scale(3.0263 .33044)" gradientUnits="userSpaceOnUse" x1="-.17899" x2="-.17899" xlink:href="#e" y1="-1.5131" y2="80.196"/><linearGradient id="B" gradientTransform="scale(1.3065 .76538)" gradientUnits="userSpaceOnUse" x2="0" xlink:href="#a" y2="219.4"/><linearGradient id="C" gradientTransform="scale(2.3896 .41848)" gradientUnits="userSpaceOnUse" x1="-.20924" x2="-.20924" xlink:href="#c" y1="-1.1948" y2="118.76"/><linearGradient id="D" gradientTransform="scale(1.9843 .50395)" gradientUnits="userSpaceOnUse" x1="-.25197" x2="-.25197" xlink:href="#c" y1="-.99217" y2="143.47"/><linearGradient id="E" gradientTransform="scale(3.7013 .27017)" gradientUnits="userSpaceOnUse" x1="-.13509" x2="-.13509" xlink:href="#c" y1="-1.8507" y2="75.596"/><linearGradient id="F" gradientTransform="scale(3.2586 .30688)" gradientUnits="userSpaceOnUse" x1="-.16623" x2="-.16623" xlink:href="#e" y1="-1.6293" y2="86.353"/><g stroke="#606060" stroke-linecap="square" stroke-linejoin="bevel" stroke-width="1.5"><g fill="none"><g transform="translate(-38.236 -38.312)"><path d="m197.27 260v-33"/><path d="m213.43 184.72c0 21.138-16.154 21.138-16.154 42.276"/><path d="m213.43 184.72v-22"/></g><g transform="matrix(0 -1 1 0 159.04 221.69)"><path d="m18 0-18-11"/><path d="m18 0-18 11"/></g></g><circle cx="9.075" cy="9.075" fill="url(#f)" fill-rule="evenodd" r="9.075" stroke-dasharray="6 3" transform="matrix(0 -1 1 0 150.1 202.69)"/><g fill="none"><path d="m0-8.8v17.6" transform="matrix(0 -1 1 0 175.19 134.41)"/><path d="m0-8.8v17.6" transform="matrix(0 -1 1 0 175.19 142.41)"/></g></g><path d="m0 0h82v29h-82z" fill="url(#g)" fill-rule="evenodd" transform="translate(209.76 169.69)"/><g stroke-linecap="square" stroke-linejoin="bevel"><path d="m0 0h82v29h-82z" fill="url(#h)" fill-rule="evenodd" stroke="#a4b09b" transform="translate(201.76 161.69)"/><text fill-rule="evenodd" font-family="Noto Sans" font-size="13.2" font-style="italic" font-weight="400" transform="translate(204.76 163.49)" x="4" y="17.8906">has_address</text><g stroke="#606060" stroke-width="1.5"><g fill="none"><g transform="translate(-38.236 -38.312)"><path d="m326.66 344.79h33"/><path d="m359.66 344.79c59.172 0 59.172 1 118.34 1"/><path d="m478 345.79h22"/></g><g transform="translate(288.42 306.48)"><path d="m18 0-18-11"/><path d="m18 0-18 11"/></g></g><circle cx="9.075" cy="9.075" fill="url(#f)" fill-rule="evenodd" r="9.075" stroke-dasharray="6 3" transform="translate(307.42 297.54)"/><g fill="none"><path d="m0-8.8v17.6" transform="translate(451.76 307.48)"/><path d="m0-8.8v17.6" transform="translate(443.76 307.48)"/></g></g></g><g fill-rule="evenodd"><path d="m0 0h122v29h-122z" fill="url(#i)" transform="translate(327.89 332.87)"/><path d="m0 0h122v29h-122z" fill="url(#j)" stroke="#a4b09b" stroke-linecap="square" stroke-linejoin="bevel" transform="translate(319.89 324.87)"/><text style="font-family:Noto Sans;font-size:13.2;font-style:italic;font-weight:400;stroke-linecap:square;stroke-linejoin:bevel" transform="translate(322.89 326.67)" x="4" y="17.8906">address_of_student</text><path d="m0 12c0-6.6274 5.3726-12 12-12h244.01c6.628 0 12 5.3726 12 12v189.12c0 6.627-5.372 12-12 12h-244.01c-6.6274 0-12-5.373-12-12z" fill="url(#k)" transform="translate(469.76 209.69)"/><g stroke-linecap="square" stroke-linejoin="bevel"><path d="m0 0h267.01v139.6h-267.01z" fill="url(#l)" stroke="#d7d7d7" transform="translate(461.76 227.69)"/><path d="m0 0h267.01v26.6h-267.01z" fill="url(#m)" stroke="#d7d7d7" transform="translate(461.76 367.29)"/><path d="m2.6889 0-2.6889 2.6889v6.7222l2.6889 2.6889 1.3444-1.3444v-2.6889h1.3444l1.3444 1.3444 2.6889-2.6889 2.6889 2.6889v-5.3778h-8.0667v-2.6889z" fill="url(#n)" stroke="#897416" stroke-width="1.15" transform="translate(469.76 234.73)"/><g font-family="Noto Sans" font-size="14.667" font-style="italic"><text fill="#2b7dba" font-weight="700" transform="translate(487.01 230.49)" y="16.0313">id</text><text fill="#4964a6" font-weight="700" transform="translate(581.84 230.49)" xml:space="preserve" y="16.0313"> integer</text><text fill="#25682d" font-weight="400" transform="translate(687.62 230.49)" y="16.0313">« pk »</text></g><circle cx="5.5" cy="5.5" fill="url(#o)" r="5.5" stroke="#5a9ee4" stroke-width="1.15" transform="translate(469.76 257.91)"/><g font-family="Noto Sans" font-size="14.667" font-style="italic"><text font-weight="400" transform="translate(485.91 253.09)" y="16.0313">country</text><text fill="#4964a6" font-weight="700" transform="translate(581.84 253.09)" xml:space="preserve" y="16.0313"> varchar(100)</text><text fill="#25682d" font-weight="400" transform="translate(686.37 253.09)" y="16.0313">« nn »</text></g><circle cx="5.5" cy="5.5" fill="url(#p)" r="5.5" stroke="#808080" stroke-width="1.15" transform="translate(469.76 280.51)"/><text font-family="'Noto Sans'" font-size="14.667" font-weight="400" transform="translate(485.91 275.69)" y="16.0313">province</text><text fill="#4964a6" font-family="Noto Sans" font-size="14.667" font-style="italic" font-weight="700" transform="translate(581.84 275.69)" xml:space="preserve" y="16.0313"> varchar(100)</text><text fill="#25682d" transform="translate(721.89 275.69)" y="16.0313"/><circle cx="5.5" cy="5.5" fill="url(#o)" r="5.5" stroke="#5a9ee4" stroke-width="1.15" transform="translate(469.76 303.11)"/><g font-family="Noto Sans" font-size="14.667" font-style="italic"><text font-weight="400" transform="translate(485.91 298.29)" y="16.0313">city</text><text fill="#4964a6" font-weight="700" transform="translate(581.84 298.29)" xml:space="preserve" y="16.0313"> varchar(100)</text><text fill="#25682d" font-weight="400" transform="translate(686.37 298.29)" y="16.0313">« nn »</text></g><circle cx="5.5" cy="5.5" fill="url(#o)" r="5.5" stroke="#5a9ee4" stroke-width="1.15" transform="translate(469.76 325.71)"/><g font-family="Noto Sans" font-size="14.667" font-style="italic"><text font-weight="400" transform="translate(485.91 320.89)" y="16.0313">postal_code</text><text fill="#4964a6" font-weight="700" transform="translate(581.84 320.89)" xml:space="preserve" y="16.0313"> varchar(40)</text><text fill="#25682d" font-weight="400" transform="translate(686.37 320.89)" y="16.0313">« nn »</text></g><circle cx="5.5" cy="5.5" fill="url(#o)" r="5.5" stroke="#5a9ee4" stroke-width="1.15" transform="translate(469.76 348.31)"/><g font-family="Noto Sans" font-size="14.667" font-style="italic"><text font-weight="400" transform="translate(485.91 343.49)" y="16.0313">street_address</text><text fill="#4964a6" font-weight="700" transform="translate(581.84 343.49)" xml:space="preserve" y="16.0313"> varchar(255)</text><text fill="#25682d" font-weight="400" transform="translate(686.37 343.49)" y="16.0313">« nn »</text></g><path d="m6.7222 0-6.7222 6.7222 5.3778 5.3778h6.7222v-6.7222z" fill="url(#q)" stroke="#4c4c98" stroke-width="1.15" transform="translate(469.76 374.24)"/><g font-family="Noto Sans" font-size="14.667" font-style="italic"><text fill="#082061" font-weight="400" transform="translate(486.85 370.09)" y="16.0313">address_id_pk</text><text fill="#4964a6" font-weight="700" transform="translate(581.84 370.09)" xml:space="preserve" y="16.0313"> constraint</text><text fill="#25682d" font-weight="400" transform="translate(687.62 370.09)" y="16.0313">« pk »</text></g><path d="m0 0h267.013v7.924l-.182 2.0838-.541 2.0204-.884 1.8958-1.2 1.7135-1.479 1.479-1.714 1.1998-1.895.884-2.021.5414-2.084.1823h-243.013l-2.08378-.1823-2.02046-.5414-1.89576-.884-1.71345-1.1998-1.47908-1.479-1.19977-1.7135-.884011-1.8958-.541382-2.0204-.182307-2.0838z" fill="url(#r)" stroke="#d7d7d7" transform="translate(461.76 393.89)"/><g stroke="#bebebe"><path d="m0 0h11l-5.5 8.8z" fill="url(#s)" opacity=".4" transform="translate(608.77 398.86)"/><path d="m5.5 0-5.5 8.8h11z" fill="url(#t)" transform="translate(587.25 398.86)"/><path d="m4.4 0 4.4 4.4-4.4 4.4-4.4-4.4z" fill="url(#u)" transform="translate(565.39 398.92)"/></g><g transform="translate(461.76 201.69)"><path d="m0 12 .18231-2.0838.54138-2.0205.88401-1.8958 1.1998-1.7134 1.4791-1.4791 1.7134-1.1998 1.8958-.88401 2.0205-.54138 2.0838-.18231h243.01l2.084.18231 2.021.54138 1.895.88401 1.714 1.1998 1.479 1.4791 1.2 1.7134.884 1.8958.541 2.0205.182 2.0838v14h-267.01z" fill="url(#v)" stroke="#3175b0"/><g font-family="Noto Sans" font-size="14.667"><text font-style="italic" font-weight="400" x="82.6875" y="17.3333">public.</text><text fill="#fff" font-weight="700" x="127.031" y="17.3333">address</text></g></g></g><path d="m0 12c0-6.6274 5.3726-12 12-12h223.23c6.627 0 12 5.3726 12 12v98.724c0 6.627-5.373 12-12 12h-223.23c-6.6274 0-12-5.373-12-12z" fill="url(#w)" transform="translate(69.764 9.688)"/><g stroke-linecap="square" stroke-linejoin="bevel"><path d="m0 0h246.23v49.2h-246.23z" fill="url(#x)" stroke="#d7d7d7" transform="translate(61.764 27.688)"/><path d="m0 0h246.23v26.6h-246.23z" fill="url(#y)" stroke="#d7d7d7" transform="translate(61.764 76.888)"/><path d="m2.6889 0-2.6889 2.6889v6.7222l2.6889 2.6889 1.3444-1.3444v-2.6889h1.3444l1.3444 1.3444 2.6889-2.6889 2.6889 2.6889v-5.3778h-8.0667v-2.6889z" fill="url(#n)" stroke="#897416" stroke-width="1.15" transform="translate(69.764 34.728)"/><g font-family="Noto Sans" font-size="14.667" font-style="italic"><text fill="#2b7dba" font-weight="700" transform="translate(87.014 30.488)" y="16.0313">id</text><text fill="#4964a6" font-weight="700" transform="translate(124.71 30.488)" xml:space="preserve" y="16.0313"> integer</text><text fill="#25682d" font-weight="400" transform="translate(266.84 30.488)" y="16.0313">« pk »</text></g><circle cx="5.5" cy="5.5" fill="url(#o)" r="5.5" stroke="#5a9ee4" stroke-width="1.15" transform="translate(69.764 57.913)"/><g font-family="Noto Sans" font-size="14.667" font-style="italic"><text font-weight="400" transform="translate(85.914 53.088)" y="16.0313">name</text><text fill="#4964a6" font-weight="700" transform="translate(124.71 53.088)" xml:space="preserve" y="16.0313"> varchar(255)</text><text fill="#25682d" font-weight="400" transform="translate(265.59 53.088)" y="16.0313">« nn »</text></g><path d="m6.7222 0-6.7222 6.7222 5.3778 5.3778h6.7222v-6.7222z" fill="url(#q)" stroke="#4c4c98" stroke-width="1.15" transform="translate(69.764 83.844)"/><g font-family="Noto Sans" font-size="14.667" font-style="italic"><text fill="#082061" font-weight="400" transform="translate(86.846 79.688)" y="16.0313">student_id_pk</text><text fill="#4964a6" font-weight="700" transform="translate(178.22 79.688)" xml:space="preserve" y="16.0313"> constraint</text><text fill="#25682d" font-weight="400" transform="translate(266.84 79.688)" y="16.0313">« pk »</text></g><path d="m0 0h246.234v7.924l-.182 2.0838-.542 2.0204-.884 1.8958-1.2 1.7135-1.479 1.479-1.713 1.1998-1.896.884-2.02.5414-2.084.1823h-222.234l-2.08378-.1823-2.02046-.5414-1.89576-.884-1.71345-1.1998-1.47908-1.479-1.19977-1.7135-.884011-1.8958-.541382-2.0204-.182307-2.0838z" fill="url(#z)" stroke="#d7d7d7" transform="translate(61.764 103.49)"/><g stroke="#bebebe"><path d="m0 0h11l-5.5 8.8z" fill="url(#s)" opacity=".4" transform="translate(198.38 108.46)"/><path d="m5.5 0-5.5 8.8h11z" fill="url(#t)" transform="translate(176.86 108.46)"/><path d="m4.4 0 4.4 4.4-4.4 4.4-4.4-4.4z" fill="url(#u)" transform="translate(155 108.52)"/></g><g transform="translate(61.764 1.688)"><path d="m0 12 .18231-2.0838.54138-2.0205.88401-1.8958 1.1998-1.7134 1.4791-1.4791 1.7134-1.1998 1.8958-.88401 2.0205-.54138 2.0838-.18231h222.23l2.084.18231 2.02.54138 1.896.88401 1.713 1.1998 1.479 1.4791 1.2 1.7134.884 1.8958.542 2.0205.182 2.0838v14h-246.23z" fill="url(#A)" stroke="#3175b0"/><g font-family="Noto Sans" font-size="14.667"><text font-style="italic" font-weight="400" x="72.1875" y="17.3333">public.</text><text fill="#fff" font-weight="700" x="116.531" y="17.3333">student</text></g></g></g><path d="m0 12c0-6.6274 5.3726-12 12-12h262.66c6.627 0 12 5.3726 12 12v143.92c0 6.627-5.373 12-12 12h-262.66c-6.6274 0-12-5.373-12-12z" fill="url(#B)" transform="translate(9.7643 229.69)"/><g stroke-linecap="square" stroke-linejoin="bevel"><path d="m0 0h285.66v49.2h-285.66z" fill="url(#C)" stroke="#d7d7d7" transform="translate(1.7643 247.69)"/><path d="m0 0h285.66v71.8h-285.66z" fill="url(#D)" stroke="#d7d7d7" transform="translate(1.7643 296.89)"/><path d="m2.6889 0-2.6889 2.6889v6.7222l2.6889 2.6889 1.3444-1.3444v-2.6889h1.3444l1.3444 1.3444 2.6889-2.6889 2.6889 2.6889v-5.3778h-8.0667v-2.6889z" fill="url(#n)" stroke="#897416" stroke-width="1.15" transform="translate(9.7643 254.73)"/><g font-family="Noto Sans" font-size="14.667" font-style="italic"><text fill="#2b7dba" font-weight="700" transform="translate(27.014 250.49)" y="16.0313">student</text><text fill="#4964a6" font-weight="700" transform="translate(82.733 250.49)" xml:space="preserve" y="16.0313"> integer</text><text fill="#25682d" font-weight="400" transform="translate(230.19 250.49)" y="16.0313">« pk fk »</text></g><path d="m2.6889 0-2.6889 2.6889v6.7222l2.6889 2.6889 1.3444-1.3444v-2.6889h1.3444l1.3444 1.3444 2.6889-2.6889 2.6889 2.6889v-5.3778h-8.0667v-2.6889z" fill="url(#n)" stroke="#897416" stroke-width="1.15" transform="translate(9.7643 277.33)"/><g font-family="Noto Sans" font-size="14.667" font-style="italic"><text fill="#2b7dba" font-weight="700" transform="translate(27.014 273.09)" y="16.0313">address</text><text fill="#4964a6" font-weight="700" transform="translate(82.733 273.09)" xml:space="preserve" y="16.0313"> integer</text><text fill="#25682d" font-weight="400" transform="translate(230.19 273.09)" y="16.0313">« pk fk »</text></g><path d="m6.7222 0-6.7222 6.7222 5.3778 5.3778h6.7222v-6.7222z" fill="url(#q)" stroke="#4c4c98" stroke-width="1.15" transform="translate(9.7643 303.84)"/><g font-family="Noto Sans" font-size="14.667" font-style="italic"><text fill="#082061" font-weight="400" transform="translate(26.846 299.69)" y="16.0313">student_address_pk</text><text fill="#4964a6" font-weight="700" transform="translate(157.64 299.69)" xml:space="preserve" y="16.0313"> constraint</text><text fill="#25682d" font-weight="400" transform="translate(246.26 299.69)" y="16.0313">« pk »</text></g><path d="m6.7222 0-6.7222 6.7222 5.3778 5.3778h6.7222v-6.7222z" fill="url(#q)" stroke="#4c4c98" stroke-width="1.15" transform="translate(9.7643 326.44)"/><g font-family="Noto Sans" font-size="14.667" font-style="italic"><text fill="#082061" font-weight="400" transform="translate(26.846 322.29)" y="16.0313">student_fk</text><text fill="#4964a6" font-weight="700" transform="translate(157.64 322.29)" xml:space="preserve" y="16.0313"> constraint</text><text fill="#25682d" font-weight="400" transform="translate(250.17 322.29)" y="16.0313">« fk »</text></g><path d="m6.7222 0-6.7222 6.7222 5.3778 5.3778h6.7222v-6.7222z" fill="url(#q)" stroke="#4c4c98" stroke-width="1.15" transform="translate(9.7643 349.04)"/><g font-family="Noto Sans" font-size="14.667" font-style="italic"><text fill="#082061" font-weight="400" transform="translate(26.846 344.89)" y="16.0313">address_fk</text><text fill="#4964a6" font-weight="700" transform="translate(157.64 344.89)" xml:space="preserve" y="16.0313"> constraint</text><text fill="#25682d" font-weight="400" transform="translate(250.17 344.89)" y="16.0313">« fk »</text></g><path d="m0 0h285.656v7.924l-.183 2.0838-.541 2.0204-.884 1.8958-1.2 1.7135-1.479 1.479-1.713 1.1998-1.896.884-2.02.5414-2.084.1823h-261.656l-2.08378-.1823-2.02046-.5414-1.89576-.884-1.71345-1.1998-1.47908-1.479-1.19977-1.7135-.884011-1.8958-.541382-2.0204-.182307-2.0838z" fill="url(#E)" stroke="#d7d7d7" transform="translate(1.7643 368.69)"/><g stroke="#bebebe"><path d="m0 0h11l-5.5 8.8z" fill="url(#s)" opacity=".4" transform="translate(158.09 373.66)"/><path d="m5.5 0-5.5 8.8h11z" fill="url(#t)" transform="translate(136.57 373.66)"/><path d="m4.4 0 4.4 4.4-4.4 4.4-4.4-4.4z" fill="url(#u)" transform="translate(114.71 373.72)"/></g><g transform="translate(1.7643 221.69)"><path d="m0 12 .18231-2.0838.54138-2.0205.88401-1.8958 1.1998-1.7134 1.4791-1.4791 1.7134-1.1998 1.8958-.88401 2.0205-.54138 2.0838-.18231h261.66l2.084.18231 2.02.54138 1.896.88401 1.713 1.1998 1.479 1.4791 1.2 1.7134.884 1.8958.541 2.0205.183 2.0838v14h-285.66z" fill="url(#F)" stroke="#3175b0"/><g font-family="Noto Sans" font-size="14.667"><text font-style="italic" font-weight="400" x="59.6875" y="17.3333">public.</text><text fill="#fff" font-weight="700" x="104.031" y="17.3333">student_address</text></g></g></g></g></svg>